<?xml version="1.0" encoding="utf-8" ?>
<svg baseProfile="full" height="300mm" version="1.1" viewBox="0,0,200,300" width="200mm" xmlns="http://www.w3.org/2000/svg" xmlns:ev="http://www.w3.org/2001/xml-events" xmlns:xlink="http://www.w3.org/1999/xlink"><defs /><rect fill="#222222" height="300" width="200" x="0" y="0" /><text fill="#FFFFFF" style="font-size:12px; font-family:Arial; font-weight:bold;" x="10" y="20">Picked Over 5km Runs</text><text fill="#FFFFFF" style="font-size:4px; font-family:Arial" x="10" y="280">ATHLETE</text><text fill="#FFFFFF" style="font-size:9px; font-family:Arial" x="10" y="290">DuanFei</text><text fill="#FFFFFF" style="font-size:4px; font-family:Arial" x="120" y="280">STATISTICS</text><text fill="#FFFFFF" style="font-size:3px; font-family:Arial" x="120" y="285">Number: 32</text><text fill="#FFFFFF" style="font-size:3px; font-family:Arial" x="120" y="290">Weekly: 2.3</text><text fill="#FFFFFF" style="font-size:3px; font-family:Arial" x="141" y="285">Total: 166.2 km</text><text fill="#FFFFFF" style="font-size:3px; font-family:Arial" x="141" y="290">Avg: 5.2 km</text><text fill="#FFFFFF" style="font-size:3px; font-family:Arial" x="167" y="285">Min: 1.4 km</text><text fill="#FFFFFF" style="font-size:3px; font-family:Arial" x="167" y="290">Max: 15.2 km</text><polyline fill="none" points="22.75481796823442,31.714285714289872 40.16599348816089,33.6717105768912 37.31112462771125,59.94635877231485 34.49150106171146,62.571428571420256 24.270365634933114,59.07133178212098 14.1197207972873,54.62708700817893 14.542664332082495,50.94270259377663" stroke="#4dd2ff" stroke-linecap="round" stroke-linejoin="round" stroke-width="0.5"><title>2019-12-08 1.4km</title></polyline><polyline fill="none" points="60.46932337875478,33.0123824456532 65.87186613003723,32.73909926772467 70.64701682026498,33.53617469017627 73.0868748370558,32.852967280807206 76.25869025895372,33.78668378602015 75.91013911366463,46.289168966410216 73.78397712763399,61.02293403176009 71.23955376702361,62.571428571420256 50.88416688400321,54.91998637319193 51.12815268547274,47.22285461987485 53.25431467150338,31.80538035702193 59.45852505741641,32.101437804696616 60.57388872210868,32.944061668385984 64.1291104038246,32.57968399563106 63.11831208248623,31.714285714289872 61.0270052109845,32.033116874314146" stroke="#fff300" stroke-linecap="round" stroke-linejoin="round" stroke-width="0.5"><title>2020-06-06 2.0km</title></polyline><polyline fill="none" points="95.54579450935125,32.4072109683475 95.43974199774675,31.852870858245296 113.46866898308508,33.35420693265041 110.56990033062175,60.44660951377591 109.3326210277155,61.85545815524529 106.99946577078663,62.571428571420256 100.35350837209262,60.793048150400864 86.53133101668209,54.857359289657325 86.74343604012392,48.297977298963815 89.81895887851715,31.714285714289872 110.95875953999348,33.308012058085296" stroke="#fff000" stroke-linecap="round" stroke-linejoin="round" stroke-width="0.5"><title>2020-06-07 2.2km</title></polyline><polyline fill="none" points="131.70570539403707,33.10862175450893 132.2654524797108,32.26287751161726 140.87156392051838,33.33720097868354 146.92382928333245,33.04004796233494 149.40770697570406,34.50295303115854 146.8188767048996,60.17151223469409 145.69938253378496,62.04573381881346 143.14553645579144,62.571428571420256 132.5103418296203,59.188685281114886 123.27451491728425,54.48022565536667 125.9682977667544,32.3771673766023 127.71750740916468,31.714285714260768 136.7434291644022,32.40002534573432 147.93837087601423,33.748643259867094 149.58262793999165,34.66295795488986" stroke="#ffef00" stroke-linecap="round" stroke-linejoin="round" stroke-width="0.5"><title>2020-06-08 2.2km</title></polyline><polyline fill="none" points="168.44682016875595,32.73533171368763 172.99605065817013,32.190774167655036 181.12215702887625,32.780711476138094 185.63666056841612,34.30093058152124 183.55304355034605,57.557302772504045 182.02505773701705,61.93615814734949 179.94144071871415,62.571428571420256 172.8571428572759,60.64292599199689 160.32071379804984,54.83467453435878 162.43905776645988,32.485742929187836 164.00177053012885,31.714285714260768 170.4262563358061,32.05463466659421 180.08034852007404,32.780711476138094 185.46302581694908,34.07403256985708 183.34468184853904,59.44044326725998 182.4765080907382,61.55045776106999 180.32343717222102,62.526052145520225 172.6140542048961,60.37066606504959 160.07762514590286,55.17500406442559 162.1265152138658,36.91024858347373" stroke="#ffd700" stroke-linecap="round" stroke-linejoin="round" stroke-width="0.5"><title>2020-06-09 3.5km</title></polyline><polyline fill="none" points="22.494226473150775,67.57062890462112 23.130540937418118,66.57743779261364 27.58474218752235,66.64673027346726 36.98805593769066,67.20106970056077 40.204979062778875,68.21735671517672 37.37691477686167,95.4482966613723 35.99823343777098,96.69547222650726 33.947886830428615,96.85714285713038 14.08073522313498,89.28165094359429 17.156255133915693,66.0461950530298 37.412265580380335,67.15487477672286 39.99287424120121,68.03257744410075 40.16962825902738,68.93337560779764 37.37691477686167,95.21733780944487 35.715427009155974,96.74166384176351 34.15999165200628,96.85714285713038 17.5451139730867,91.22172919978038 14.151436830405146,89.0968811098137 16.802747098263353,66.508145300264 21.22159754461609,65.9999999999709" stroke="#ffd400" stroke-linecap="round" stroke-linejoin="round" stroke-width="0.5"><title>2020-06-10 3.7km</title></polyline><polyline fill="none" points="59.08100696466863,67.01250081695616 73.06294718314894,67.05852352216607 76.4791895034723,68.20908947501448 74.15473596588708,94.372089631157 72.99250919697806,96.23588095945888 70.84415062447079,96.85714285713038 58.059656167868525,92.7613989575475 50.62844864628278,89.0797965664824 52.60071225371212,69.17556238558609 53.586844057776034,65.9999999999709 74.57736388174817,67.31164830818307 76.44397051073611,68.186078187573 74.013859994011,94.92432498029666 73.2742611411959,96.0978226326115 70.94980760337785,96.81112348943134 58.27097012568265,92.99149801183376 50.62844864628278,89.24086736087338 53.26987312058918,66.1610798422771 68.13228816399351,67.54176161473151 72.46422430220991,67.08153487279196 76.51440849644132,68.186078187573" stroke="#ffce00" stroke-linecap="round" stroke-linejoin="round" stroke-width="0.5"><title>2020-06-11 4.0km</title></polyline><polyline fill="none" points="95.54840489337221,67.54518520564307 95.93096384778619,66.81803995955852 102.22579755308107,66.68170008077868 105.5644938829355,67.52246193645988 108.10329421702772,66.77259333844995 112.72877975716256,68.38594527196256 110.46820411714725,94.63041729445104 107.54684482864104,96.85714285713038 86.99299554829486,89.56343501477386 89.94913292350248,66.59080680290936 106.19049944449216,67.09071957957349 108.13807230372913,68.52228457803722 112.7983359307982,68.4086684929789 110.50298220384866,94.47136500099441 109.28574916697107,96.0846068013052 107.23384204786271,96.76625633868389 87.23644215567037,89.26804844575236 90.19257953087799,66.29540350902244 101.2867892102804,66.8407632681774 113.00700445147231,68.5904542139906 110.67687263782136,93.72154620607034 109.66830812161788,95.94827675650595 107.4772886550054,96.81169960042462 87.37555450270884,89.26804844575236 90.19257953087799,66.43174351754715 93.91383481537923,65.9999999999709 95.51362680643797,66.70442339705187" stroke="red" stroke-linecap="round" stroke-linejoin="round" stroke-width="0.5"><title>2020-06-12 5.6km</title></polyline><polyline fill="none" points="132.1779915210791,66.93717720749555 146.45154380239546,67.78292064508423 149.28526374069043,68.67437804696965 147.04627514746971,95.44005110711441 145.15712852217257,96.81143029677332 143.1280451095663,96.85714285713038 129.13436640240252,92.26300494954921 123.46692652604543,88.97165047680028 126.12572548049502,66.29715398169355 144.5623971768655,67.41719396831468 149.39021633076482,68.69723590344074 146.9413225571625,93.84010289580328 145.71687567047775,95.98860333586344 142.6032821580302,96.51429853000445 128.92446122178808,92.05729607259855 123.53689491958357,89.08593406289583 124.13162626465783,79.6460020011873 126.30064646410756,66.0228580062103 127.03531459649093,66.0" stroke="#ffd600" stroke-linecap="round" stroke-linejoin="round" stroke-width="0.5"><title>2020-06-13 3.6km</title></polyline><polyline fill="none" points="167.34830208844505,68.15503203382832 169.24306260747835,66.68777741355007 181.94497571745887,67.44433123382623 185.90993754426017,68.59062223674846 184.6116757071577,89.17746215005172 183.55903097428381,94.6334889329155 182.54147439915687,96.10064339303062 179.98003888269886,96.7425218160497 170.43605997157283,93.44142206248944 167.73427182389423,93.32680006505689 159.80434816982597,89.17746215005172 162.57631263276562,66.77948098140769 163.31316394591704,66.0 177.83966125920415,67.55896047849092 182.0853283482138,67.2609243754705 185.8397612287663,68.59062223674846 183.66429544752464,93.92283410104574 182.43620992591605,96.16941612941446 180.15547967143357,96.85714285713038 170.330795498332,93.60189280495979 167.5237428774126,93.39557326733484 159.94470080081373,89.29208530928008 162.751753421966,66.45851840407704 168.15532971709035,66.61899972421816 168.54129945253953,67.99455131590366" stroke="#ffd200" stroke-linecap="round" stroke-linejoin="round" stroke-width="0.5"><title>2020-06-14 3.8km</title></polyline><polyline fill="none" points="23.006813819753006,101.2096143658564 35.45029458659701,101.23271184138139 40.22265226696618,102.84953191052773 38.45511238533072,124.74527097327518 37.32388686086051,129.61853153753327 36.05125814629719,130.91189908000524 34.213016669265926,131.14285714286962 21.91093909321353,127.12416839480284 14.098412816179916,123.31330668684677 16.89112582919188,100.51668949972373 22.86541062919423,100.5859820387559 35.096786610316485,101.32510173029732 40.0458982787095,102.54926580551546 39.480285516474396,114.55973949146573 37.53599164658226,129.4568603093794 36.12195974146016,130.934994892159 34.00091188354418,131.1197613424738 22.936112224590033,127.47060862233047 14.063062018714845,123.33640292444034 16.855775031493977,100.28571428573923 22.229096271796152,100.6783720725798 22.759358236333355,103.33457669542986" stroke="#ffd300" stroke-linecap="round" stroke-linejoin="round" stroke-width="0.5"><title>2020-06-15 3.7km</title></polyline><polyline fill="none" points="59.5102544920519,101.2464610846364 72.35896903648973,101.2922108756029 76.38513299473561,102.80195111039211 75.05474838241935,122.10783427831484 73.40927267773077,130.15930738538736 71.69377673044801,131.14285714286962 69.80323017621413,130.9369980872434 55.65914114075713,126.22508467239095 50.72271402692422,123.70899214083329 51.247865847544745,117.41869300376857 53.698574343463406,100.74321304322802 72.60403988626786,101.4294602186128 76.4551532373298,102.64182741066907 74.31953583331779,128.62679490377195 72.18391842977144,130.9369980872434 69.48813908360898,130.79975865926826 58.49496097210795,127.11715012101922 50.68770390562713,123.73186577908928 52.8583314307034,103.71694247584674 53.48851361544803,100.83471273322357 54.608837499516085,100.28571428571013 64.90181318367831,100.67458826227812 68.26278483564965,101.56670951531851 72.84911073558033,101.2464610846364 76.59519372275099,102.87057553377235 74.3895560761448,128.03208701894619 73.51430304185487,129.9534478338319 71.69377673044801,131.05136424209923 63.466398207237944,129.15288192618755 50.547663419973105,123.59462393022841 52.438209974439815,108.8637307145109" stroke="red" stroke-linecap="round" stroke-linejoin="round" stroke-width="0.5"><title>2020-06-16 5.3km</title></polyline><polyline fill="none" points="95.45484305289574,102.54091198547394 95.86493240157142,101.75940927650663 100.0,101.24584951938596 108.1676128602121,101.44680776394671 111.4483276491519,102.31762565358076 112.67859569517896,103.23309881985188 112.26850634650327,110.6461211773858 110.42310427757911,128.57524097760324 108.6802245459985,130.87493275030283 106.97151892678812,131.14285714286962 89.474373385543,125.2484789211012 87.15053374320269,123.55159630964044 89.81611450947821,100.97790503548458 94.70301258028485,100.28571428571013 104.100893486524,101.75940927650663 108.09926463547163,101.44680776394671 112.84946625703014,103.3670703266398 111.00406418810599,124.5340029123472 109.84214436705224,129.57996231567813 107.07404126389883,130.98656793570262 93.47274453449063,126.23088134269346" stroke="#ffdf00" stroke-linecap="round" stroke-linejoin="round" stroke-width="0.5"><title>2020-07-05 3.1km</title></polyline><polyline fill="none" points="132.047946724575,101.80626704104361 137.14726766897365,100.73293628543615 140.33006530581042,101.53793462258182 144.6764663795475,101.24724096589489 148.8517493007239,103.12556547488202 147.0378968839068,126.0225252720993 146.42187153501436,129.66713504152722 145.36093898955733,130.65095038185245 143.64975746441633,131.14285714286962 141.32255059015006,130.49443446699297 123.90272266510874,123.56295386652346 125.23744425480254,108.84992852489813 126.33260043081827,101.31432413618313 128.31757099973038,100.39751983262249 134.03291729371995,101.13543565687723 137.38683308265172,100.28571428573923 140.15894715324976,101.5602956643852 144.3684537052177,101.67210085422266 148.95442019216716,103.3268140052387 147.1747914061416,126.0448849426175 146.55876605724916,129.17522646253929 144.3000064441003,131.0981383715407 131.70571041945368,127.18522648073849 123.93694629543461,123.63003328756895 125.71657508146018,106.45733363908948" stroke="#ffd800" stroke-linecap="round" stroke-linejoin="round" stroke-width="0.5"><title>2020-07-08 3.5km</title></polyline><polyline fill="none" points="168.58391421241686,101.81068708159728 173.04592002625577,100.98092319231364 179.56731313862838,101.54157465722528 185.33359757484868,103.44778376616887 183.06827154615894,129.3040533363237 181.2491460989695,130.85134002941777 179.49866689532064,131.09800837005605 160.31204189616255,123.78759125599754 162.92059914115816,101.16033174659242 167.27963558980264,100.28571428571013 183.92634958727285,102.70772718981607 185.2992744531948,103.29080218248419 185.4365669398103,105.95948073608452 184.0979651955422,120.93963190232171 183.06827154615894,128.6985916987178 181.14617673424073,130.98588641593233 178.6405888539739,130.78406681929482 160.3806881394703,123.78759125599754 162.57736792461947,102.52831932881963 163.19518411438912,101.09305354810203 167.86312865791842,100.64453193661757 180.2880986931268,101.7434089925082 185.2649513313081,103.24595029000193 183.2398871544283,127.91373265750008 182.45045535662211,129.95436296466505 180.2880986931268,131.14285714286962 160.27771877450868,123.54091841247282 162.71466041146778,104.03085768135497" stroke="red" stroke-linecap="round" stroke-linejoin="round" stroke-width="0.5"><title>2020-07-10 5.3km</title></polyline><polyline fill="none" points="22.880347326165065,136.7103402222565 27.756658556405455,134.9279146452027 31.030266095884144,136.2201739846787 35.9065773258917,135.88596938553383 39.38478533644229,137.26734657719499 39.009684472577646,152.1725469758385 37.74798156670295,162.955632312136 36.82727944664657,164.47058782895328 34.7812747345306,165.42857142857974 14.628128320910037,158.36617303744424 17.492534917779267,135.551764505537 26.665456043323502,134.57142857142026 35.395076148211956,135.46264315690496 39.65758596477099,137.89119276904967 38.668683687224984,154.04401249825605 36.997779838973656,164.42603039598907 34.30387363513,165.22806342420517 20.80024253553711,160.48267782456242" stroke="#ffe000" stroke-linecap="round" stroke-linejoin="round" stroke-width="0.5"><title>2020-07-12 3.1km</title></polyline><polyline fill="none" points="60.3715187611524,135.4882331318513 71.22041084524244,135.66712158109294 76.28550872672349,137.2771140174009 75.22457606252283,156.50707736323238 73.78718342026696,163.5503787166963 71.76798899448477,165.31677449058043 69.6803473001346,165.27205570656224 50.857348416000605,157.84866815205896 53.5952391626779,135.51059419219382 57.39406257402152,134.57142857144936 61.500898694153875,135.1975392307795 65.33394573954865,134.6608730115404 75.60103603987955,136.42739659606013 74.91656335350126,155.32200175023172 73.65028888289817,163.50565973497578 72.4866853156127,164.93666466744617 70.05680727772415,165.42857142857974 50.960019319085404,157.89338776754448 53.38989735674113,135.71184368079412 57.59940437995829,134.75031743160798 70.33059635246173,135.55531630964833 75.84060148033313,137.12058725993847 74.3689852040261,156.61887676781043" stroke="#ffc700" stroke-linecap="round" stroke-linejoin="round" stroke-width="0.5"><title>2020-07-15 4.4km</title></polyline><polyline fill="none" points="96.64391180756502,135.09406540266355 100.1565015220549,134.61687527911272 111.14638617262244,136.04844396561384 112.78095762408338,136.91192739779945 110.52038008510135,162.97462828431162 109.54659283766523,164.65603537257994 107.07734660268761,165.42857142857974 95.63534644409083,161.6340419652115 87.35815484006889,157.63497849699343 89.89695730688982,135.3894685310952 91.84453180199489,134.57142857142026 104.46898790379055,135.84393446255126 107.6337964583654,135.3894685310952 112.95484820380807,137.0255435021536 110.76382689690217,161.99759123518015 109.37270225747488,164.6333137016627 107.11212471872568,165.38312817178667 97.58292093942873,161.7930948107678 95.63534644409083,162.13392212757026 87.11470802826807,157.65770055982284 89.93173542292789,135.2304053346743 90.87074455432594,134.57142857142026 95.53101209620945,134.61687527911272 97.75681151915342,135.45763845319743 108.7119180536829,135.75304131692974 112.95484820380807,137.0709899350186 110.41604573698714,163.4745067951735 107.52946211048402,165.4058498008526 99.56527355033904,162.7701323525398 97.75681151915342,161.42954535776516 95.87879325612448,161.6113201250555 87.01037368038669,157.36231364338892 89.82740107504651,136.1620603117044 90.48818527860567,134.7532153716602 99.63482978241518,134.79866205889266 112.98962631984614,136.88920417314512 110.34648950514384,162.63380167397554 109.30314602563158,164.33793186329422 107.07734660268761,165.13319016911555 95.91357137192972,161.65676380411605 87.21904237638228,157.56681230067625 89.89695730688982,134.9804487574147 91.14896948216483,134.79866205889266" stroke="red" stroke-linecap="round" stroke-linejoin="round" stroke-width="0.5"><title>2020-07-18 7.3km</title></polyline><polyline fill="none" points="131.96382437623106,135.75653191612219 136.39369059237652,134.84491426488967 143.23033451614901,135.30072334592114 149.16007669479586,136.89605110822595 146.78817982319742,163.21805627975846 145.32318469672464,164.97279609189718 143.6140237157233,165.33741640200606 123.69706616248004,157.6347429047455 126.62705641542561,134.57142857144936 136.63785644690506,134.8677047311794 149.1251958583016,136.94163180945907 146.8230606596917,163.03574521609698 144.31164044281468,165.42857142857974 123.76682783523574,157.6803212831437 125.33646547072567,136.87326075561577" stroke="#ffd700" stroke-linecap="round" stroke-linejoin="round" stroke-width="0.5"><title>2020-07-21 3.5km</title></polyline><polyline fill="none" points="169.34873044630513,135.87188556586625 180.07637608679943,135.80576073762495 185.0016473555006,137.48091962828767 183.01129800709896,162.4752067346417 181.93178649619222,164.32657226888114 179.87396767851897,165.14205194392707 160.47649521566927,158.06715850680484 163.3102129320614,135.4530947995081 170.4619766920805,135.07838689393247 183.21370641561225,136.79763199444278 185.10285155964084,137.6131687107263 185.27152523351833,138.42870373700862 184.12454425287433,156.0394397439959 182.91009380295873,162.7176479549089 181.79684755741619,164.4367723237374 180.51492763799615,165.14205194392707 177.84988359524868,164.74533231309033 160.5776994198095,158.11123923337436 160.8813120322302,152.95376071240753 163.41141713620164,135.34288662901963 172.11497869319282,135.07838689393247 185.06911682500504,137.65725172829116 184.15827898751013,155.81903490106924 182.87635906832293,162.65152763703372 181.05468339356594,164.87757223439985 178.01855726889335,164.9216521983035 160.51022995030507,157.9569566686987 163.00660031940788,136.97396440061857 163.71502974862233,135.29880335211055 172.45232604048215,134.9681786185247 184.9679126208648,137.4368365908449 183.21370641561225,162.80580836164881 181.5269696796313,164.9216521983035 179.80649820901453,165.42857142857974 160.44276048103347,157.714512515784 163.14153925841674,136.09230157968705 163.71502974862233,135.3208449910744 167.6282589759212,134.6595952831558 172.55353024462238,134.57142857144936 177.47880151332356,136.1584263598197 181.42576547549106,136.13638476774213 185.27152523351833,137.67929323518183 184.3269526611548,154.34231927030487 182.94382853759453,162.49724685185356 181.2233570672106,164.85553225065814 179.0643340451643,165.14205194392707 160.5439646851737,157.75859328205115 163.1752739928197,136.00413518890855 163.88370342203416,135.25472007037024 167.76319791469723,134.72572030400624 182.06672543496825,136.51109166585957 185.13658629450947,137.65725172829116 182.84262433368713,162.69560785018257 181.93178649619222,164.30453225428937 179.67155927000567,165.14205194392707 160.47649521566927,158.04511814168654 163.6475602791179,135.4971780590131" stroke="red" stroke-linecap="round" stroke-linejoin="round" stroke-width="0.5"><title>2020-07-31 11.0km</title></polyline><polyline fill="none" points="24.30349351116456,169.3411039589555 36.61328118247911,169.84811021701898 39.89353978843428,171.02344050380634 39.1528362322133,189.36737617340987 37.53034272836521,197.59422744516633 35.73149123461917,199.5529773166927 33.54465216421522,199.52993325478747 14.321631301892921,191.8100998805021 16.896457949653268,168.85714285713038 36.331108398968354,169.52546994326985 39.5760954071302,170.93125785753364 39.96408298402093,174.3189565417997 37.495071130339056,197.82466909039067 35.13187407026999,199.5990654367779 32.063245051773265,199.02296356568695 14.60380408517085,192.01750028203242 14.497989291558042,189.48259931546636 17.213902330724522,168.85714285713038 26.807776962872595,168.88018863659818 39.92881138622761,171.0695318192884 38.20050308853388,193.9301879479608 37.495071130339056,197.68640411883825 35.97839242010377,199.52993325478747 34.0384545349516,199.71428571428987 14.674347281223163,192.06358924595406 14.921248466474935,185.88762207870604" stroke="red" stroke-linecap="round" stroke-linejoin="round" stroke-width="0.5"><title>2020-08-02 5.0km</title></polyline><polyline fill="none" points="60.94377382984385,169.35412872204324 72.3187529090792,170.1673769982881 76.15651180804707,171.7260982778389 75.08470526849851,189.36859602405457 73.49428266193718,197.83943150370033 71.83471124595962,199.55616581611685 70.00226780772209,199.66910860675853 53.06080960459076,193.5023859605717 50.986345334909856,192.10187171059079 53.71772328997031,169.55744094471447 62.08472917834297,169.060455330502 69.58737495378591,170.46104958391516 72.66449695383199,169.9640650828951 76.26023502158932,172.0423598314519 74.35864277440123,194.06710807306808 72.49162493133917,199.17216009111144 70.55545827979222,199.71428571428987 64.33206547028385,197.97496342554223 50.95177093031816,192.62141788681038 51.539535806979984,183.54055791944847 53.64857448101975,169.28635795842274 63.121961313067004,168.85714285713038 76.05278859450482,171.43242661326076 74.32406836980954,194.27040783988195 73.45970825711265,197.97496342554223 71.31609517848119,199.71428571428987 51.15921735740267,192.12446068861755 53.510276863118634,169.76075306514394 58.731011942029,168.85714285713038 72.8027945717331,170.52882015018258 76.19108621263877,171.77127851490513 74.04747313377447,196.10010113118915 73.0448154034093,198.56226789421635 71.21237196517177,199.69169716120814 63.60600297595374,197.61354486612254 50.8826221213676,192.2825835000549 52.542193537112325,177.87056406898773" stroke="red" stroke-linecap="round" stroke-linejoin="round" stroke-width="0.5"><title>2020-08-07 7.1km</title></polyline><polyline fill="none" points="96.54550423938781,169.95762036729138 108.98856359580532,170.31695930846035 112.4602459021844,171.7992290367838 111.63529169093817,190.34959592408268 110.08850254444405,197.7380624281068 108.88544431957416,199.15285963463248 106.68556642206386,199.48971537666512 87.71161955827847,191.87670654372778 90.22085528471507,169.86778558173683 95.2393267378211,169.19402404813445 104.96691181487404,170.47416999391862 108.98856359580532,170.00253775264719 112.4602459021844,171.5971016692347 112.59773827088065,175.63962966398685 110.77596438722685,194.25719091197243 110.22599491290748,197.3787480572355 108.91981741134077,199.1079455143772 107.23553589638323,199.66937165684067 102.28581062750891,198.11983359465376 87.40226172888651,191.98899385979166 90.18648219271563,169.68811595023726 100.49840983608738,168.85714285713038 105.48250819696113,170.3394179813913 111.0853222166188,170.5640046435583 112.56336517864838,172.2034834663791 111.49779932224192,189.49620804510778 109.88226399151608,198.07491935850703 106.96055115922354,199.71428571428987 93.03944884054363,194.70633732140413 87.6772464660462,191.78687666813494 90.11773600801826,170.00253775264719 94.96434200066142,168.8796016118722 101.11712549463846,169.2838589848834 103.42012266837992,170.47416999391862" stroke="red" stroke-linecap="round" stroke-linejoin="round" stroke-width="0.5"><title>2020-08-09 5.6km</title></polyline><polyline fill="none" points="132.2960653847549,170.6959455976903 144.76164374966174,170.87966271321056 148.92587683466263,171.83532568826922 147.72272785101086,189.44190333865117 146.32049058703706,197.7802614159591 144.65332660637796,199.38767162020667 142.3283946341835,199.3849090425938 129.37598470319062,194.3863721920352 124.49635493848473,192.1996362179343 123.89470505481586,191.14874993052217 126.6911093313247,170.00253823914682 143.52506594080478,170.8519730932021 148.8639805628918,172.12042756658047 147.13003183319233,194.68218290089862 146.11764650279656,198.14004600417684 143.62012214655988,199.54645396093838 124.29883909667842,192.08213605734636 126.61092548049055,169.6205931433069 136.50255844998173,170.13592409394914 148.87539055966772,172.1455841839197 147.01906162290834,194.52944552520057 145.48671119450592,198.8972894604958 143.98660489358008,199.61043548188172 141.6426476156339,199.33351540309377 124.38055501086637,192.2177192660165 124.20093728369102,191.10513294074917 126.88070961553603,169.71567894206964 137.49923789221793,168.85714285713038 141.8751465366222,170.6269643084088 147.20938135590404,170.97265286603943 148.9624378022272,172.43517903547036 147.56954526319169,191.34576965429005 146.51608130778186,197.6611388505553 143.79436002974398,199.71428571428987 124.36840054788627,192.3375391511945 126.494849111652,171.55399946507532" stroke="red" stroke-linecap="round" stroke-linejoin="round" stroke-width="0.5"><title>2020-08-14 7.2km</title></polyline><polyline fill="none" points="168.41743841324933,169.97635464472114 173.5912672141567,169.35964648859226 185.68683995120227,170.91283561711316 183.93892481573857,193.638970658154 183.099925550865,197.52170124300756 180.7227609665133,199.71428571428987 159.92257085512392,192.17722721392056 162.5094852554612,170.36465189422597 162.99890149361454,169.06271259931964 167.82314726733603,168.85714285713038 182.29588458850048,170.20476483629318 185.79171485919505,171.2554500696424 183.3795919723343,196.6081209013355 182.43571779946797,198.6408343728981 180.79267757199705,199.6000888973358 168.06785538606346,195.6945385132276 159.92257085512392,192.04018849745626 162.5094852554612,170.61590285869897 162.89402658538893,169.13123582364642 164.43219190463424,168.87998394467286 180.47805284755304,169.83930846847943 185.6518816484604,171.43817766013672 183.2747170641087,196.8365161785332 182.26092628552578,198.77787087167962 180.3382196368184,199.69144635347766 171.0043528135866,196.21984863647958 168.2076885967981,195.92293430215796 160.16727897408418,192.017348706926 162.43956865021028,170.8671536683687" stroke="red" stroke-linecap="round" stroke-linejoin="round" stroke-width="0.5"><title>2020-08-20 5.4km</title></polyline><polyline fill="none" points="23.426272897748277,203.85303285089321 34.26046659308486,204.2195746692887 39.940529307117686,205.75446496676886 38.818541610380635,223.8290831336344 37.34593275887892,232.2590501861414 35.9434481379576,233.7251136797131 34.08515601535328,234.0 14.48543344065547,226.07403698313283 17.115092104300857,203.4177640148846 21.883539814967662,203.1428571428405 39.66003238293342,205.36501573506393 38.993852188112214,223.21057327551534 37.31087064323947,232.4652156823431 35.733075444819406,233.77092807932058 33.69947274471633,233.8854640555801 14.380247093969956,226.25729797786335 17.150154219940305,203.16576605589944 39.69509449857287,205.36501573506393 38.60816891747527,223.6458210510027 36.96024948800914,233.2898766285798 34.33059082413092,233.9541856260621 21.953664045780897,229.83087096735835 14.520495555829257,226.16566749068443 14.450371325016022,223.57709774860996 17.290402682032436,203.1886749676487 39.69509449857287,205.47955966525478 37.41605698969215,232.64847381410073 34.435777170583606,234.0 14.345184978563339,226.37183605800965 17.255340566392988,203.48649070385727 22.935403280425817,203.1428571428405 39.58990815188736,205.2046541791351 39.800280845025554,210.9776305925916 37.90692660701461,230.72425933694467 36.64469044841826,233.2898766285798 34.08515601535328,233.79383527711616" stroke="red" stroke-linecap="round" stroke-linejoin="round" stroke-width="0.5"><title>2020-08-21 8.2km</title></polyline><polyline fill="none" points="59.02351974719204,203.90910523742787 75.99985382356681,205.52880816251854 74.69498731615022,221.67245062961592 76.59684012946673,223.45336446948932 74.31483459239826,225.55924295561272 73.18277963413857,232.21273052992183 70.60957241430879,234.0 50.60804910119623,226.47370496339863 53.46700222813524,203.4538756122929 57.904847097117454,203.14285714286962 74.23935053683817,205.0311636410479 76.01449540979229,206.27892151288688 74.46063079754822,224.61345013961545 73.47671493794769,231.27442517827149 72.24696044856682,233.3853262119519 69.27851986768655,233.75779108155984 58.35973894572817,229.62016033870168 50.75057012261823,226.60701574958512 50.5460170134902,224.94891269659274 53.01263281609863,203.45643516990822 75.48992740060203,205.55667837848887 75.88530188170262,209.61105280651827 73.32618376123719,231.9013152680127 70.42066982388496,233.87183892476605 50.87890199292451,226.91905277821934 50.63813743344508,222.41613661468728" stroke="red" stroke-linecap="round" stroke-linejoin="round" stroke-width="0.5"><title>2020-08-27 5.1km</title></polyline><polyline fill="none" points="95.15018529444933,222.70645924142445 99.52272606943734,219.72919834213099 104.8166855678428,219.96786748574232 106.89038459421135,221.18523094334523 108.21081134909764,220.85298479895573 109.697464463301,217.6114013873157 115.42857142840512,209.25301550823497 115.18420536234044,208.03216061994317 87.53191116405651,209.02266408634023 86.91164098586887,215.5100103513978 84.75708332890645,221.2193783497787 84.57142857136205,224.67543504780042 85.24064122652635,227.83323149336502 86.41893732897006,229.11069652289734 89.50884314882569,228.0748310323106 94.43127384642139,223.79231378791155 94.4034284078516,222.5599711390969" stroke="#fff000" stroke-linecap="round" stroke-linejoin="round" stroke-width="0.5"><title>2020-09-01 2.2km</title></polyline><polyline fill="none" points="131.59725553169847,222.28993492212612 135.8924920669524,219.75495810061693 141.36257864453364,220.09001506428467 143.8495285718236,221.18018824452884 151.26820234942716,210.30173999181716 151.56810814596247,208.9465708079224 150.83587913040537,208.37005287897773 140.8639954405371,208.39551110370667 124.19474999129307,209.23508342535933 123.50418920908123,215.176001173415 121.0035232504597,222.23396009064163 121.38457525579724,226.43696081161033 122.77571816998534,228.71244965761434 124.57896266190801,228.3960643155733 128.30302746791858,226.37121267232578 131.34525016858242,222.72438390835305 135.36611138831358,220.10610695992364 139.94860807957593,219.66021774575347 143.11669279879425,221.28155052050715 143.9431991998572,221.13348801148823 151.71567928232253,209.64164096090826 151.34596523363143,208.65749234778923 149.97131719463505,208.3255396921013 124.31058564444538,209.2905015514698 123.76631499850191,210.09688589759753 123.53623587277252,215.06721903837752 121.47968291933648,221.03448332022526 121.0,224.599734078045 122.72980688721873,228.8173174507392 127.23013051506132,227.1730782878294 133.35550972039346,221.05526223478955 135.6202367868973,219.95970295573352 140.3355410102522,219.70249981459347 143.89676117780618,221.1955289746984 151.8571428571595,209.03724330605473 151.2081802248722,208.39301430401974 146.52956498868298,208.3442096633371 123.93626615940593,209.22201266445336 123.77875607158057,214.22407870111056 121.64458192477468,220.43177011897205 121.02493414375931,224.53607622598065 122.21192719985265,228.08909107372165 123.27184641815256,228.77324066395522" stroke="red" stroke-linecap="round" stroke-linejoin="round" stroke-width="0.5"><title>2020-09-02 6.2km</title></polyline><polyline fill="none" points="168.18569471966475,222.3732055350556 172.23587829526514,219.76736966433236 176.445084907813,219.57852063636528 179.36580613593105,221.11682657140773 180.73215151578188,220.9223229585914 187.94008515228052,208.97745246300474 186.34732474351767,208.2371022424486 182.682509767008,208.21750958822668 160.5372253417736,209.0758014524472 159.74621949880384,216.06020770955365 157.42857142852154,224.08080090623116 158.21117994061206,227.3664557415177 159.32894635142293,228.83264654222876 164.54943759099115,226.81082047946984 168.75737618724816,221.76886746974196 170.81845130573492,220.48382428838522 176.05894528655335,219.65818033955293 180.44444462738466,221.11941257453873 188.24117351823952,209.3093699720048 187.54344134009443,208.55746939062374 183.97296112659387,208.06750938590267 172.92367197480053,209.12743633118225 164.69218277803157,208.80902474062168 160.1369394013891,209.42795392137486 160.09125621488784,214.83592965290882 157.43268788594287,223.04769826156553 158.22741250530817,227.63031345041236 159.46609781205188,229.02148828527424 163.791848425637,227.285406104289 168.9690785856219,221.49379017495085 171.8829217510065,219.81841241562506 175.56070602219552,219.63273523995304 180.39332702639513,221.22013687485014 188.21565721940715,209.0826629603689 187.03547875909135,208.44511725206394 182.33675097255036,208.26554665717413 160.37060289701913,209.2846009019704 159.8205385610927,215.59101721056504 157.46119767497294,223.5379672026611 158.07020227611065,226.90117689370527 159.5361887232866,228.9405072517984 163.91227004816756,227.14595621346962 168.95329398068134,221.7167522389791 172.71887057682034,219.75958196847932 176.47264133195858,219.81173132327967 180.51941705914214,221.2819939404144 188.28571428568102,209.25060818652855 187.5427641539136,208.52460558581515 183.36848157003988,208.3343532581639 160.55115254386328,209.30825968683348 159.9545785507653,215.17110030830372 157.63197280291934,222.19841836841078 157.80227528512478,225.88399421956274 159.31859514734242,229.07534775693784 163.68739559140522,227.36334453860763 168.12901869078632,222.2798224433791 172.13910734234378,220.01489347117604 175.71128803107422,219.53108466573758 179.65662201622035,221.1792788047751 180.56033571169246,221.01678626378998 187.97879962041043,209.68016131891636 187.72568894457072,208.74453980929684 186.44627166294958,208.4240745314164 160.50511985493358,209.319423050154 160.13785174046643,215.20928724843543 157.58337201096583,222.69820047775283 158.16200849728193,227.19032377641997 159.44923044997267,228.9569434747973 164.8027113515418,226.56914038726245" stroke="red" stroke-linecap="round" stroke-linejoin="round" stroke-width="0.5"><title>2020-09-04 10.7km</title></polyline><polyline fill="none" points="22.17020064452663,256.87886172757135 25.628186786547303,254.48198505016626 28.99972586228978,253.96510918225977 35.17051647219341,255.51614638254978 38.26046467456035,249.69793609232875 42.571428571478464,243.6081316169002 41.54230979643762,242.6708962736011 38.899764220113866,242.60983855082304 14.828206194681115,243.44687069539214 14.146823109243996,249.87426672613947 11.76514046115335,257.674782446702 12.00864532822743,260.58596823422704 13.483509137295187,263.2087369582732 17.872140792547725,261.36018740956206 23.5061189919943,255.7616416629462 25.956048571737483,254.47847171445028 29.112471058382653,253.90712218353292 34.99886399775278,255.3031444188091 42.255394880776294,243.6954797427461 41.50034026056528,242.68788860965287 33.92619725014083,242.50554875598755 26.430122640216723,243.2607054655673 14.918730925652198,243.30857284815283 14.38417064328678,244.05464115925133 14.34052592027001,249.31032935195253 11.714285714318976,257.8901191439945 12.450898740324192,262.0323717361316 13.655257183825597,263.1167961085739 18.691918896511197,260.8502475367277 21.982439812272787,257.1289093940286 26.3136427012505,254.20350885842345 30.038353404030204,253.88481160526862 33.73975749639794,255.38206655345857 35.084609258919954,255.15973263516207 42.09469357482158,243.19837657301105 41.39761982974596,242.70181579803466 32.43600691028405,242.5683015899849 14.846679246751592,243.47117985080695 14.030682142474689,250.3782853865996 12.008758748997934,255.50985999932163 11.890883597661741,260.4519587928662" stroke="red" stroke-linecap="round" stroke-linejoin="round" stroke-width="0.5"><title>2020-09-05 6.1km</title></polyline><polyline fill="none" points="60.33466220390983,255.09389280030155 63.645562389167026,253.6726894704625 66.98665409488603,253.87568532172008 69.67179170635063,255.20735482304008 71.48466067237314,255.3383434852003 78.89266816340387,243.8505648423161 78.64962979126722,242.90950650998275 74.95856981701218,242.47485894532292 51.14790270314552,243.37693911526003 50.33173421933316,250.64377794638858 48.50561389280483,255.04409095042502 48.20548438723199,257.79600819022744 48.810419187298976,261.30035555170616 50.09403248142917,263.0231544469134 54.17593924968969,261.5741344926937 61.540133492904715,254.61049312370596 64.60817986913025,253.7293198799307 71.18981039943174,255.32544273277745 78.83649655338377,243.75076848332537 78.2058982407907,242.69653716991888 74.4978565670317,242.42780428315746 51.34875743940938,243.39042922921362 50.5184207954444,250.16199385200161 48.228175890631974,256.16973340747063 48.84930743300356,261.4541965985554 50.2885807431303,263.1456533113087 55.694927522563376,260.3482136981038 59.90163908735849,255.62450792791788 62.36139494122472,254.19093661295483 66.01801096799318,253.70526907697786 71.16089439461939,255.38624118227744 79.0,243.53888330241898 78.4940980982501,242.773332837387 77.08775336004328,242.5981555027829 51.14835083403159,243.43639894001535 50.28120072744787,250.54339460094343 48.19472053414211,257.39951480471063 48.617916677263565,260.79011619638186 49.90466344577726,263.2864814311615 54.432066729990765,261.47953628125833 59.1709006417077,256.3951279738394 62.411328972899355,254.10138765280135 65.71815787418745,253.75697655591648 71.14626533852424,255.5081810017 78.81163425126579,243.34699727102998 78.23445184819866,242.60887545335572 76.4487817051122,242.4769201638992 56.51713344163727,242.89172564278124 50.90597622166388,243.54127865558257 50.61542273312807,249.0427310578234 48.20715116278734,257.17957876843866 48.779652961180545,261.33925116082537 50.00552132620942,263.09413940360537 55.08686687448062,261.03227612402407 61.80510811030399,254.57967189265764 64.57439890794922,253.86566001255414 67.26619101839606,254.1413727037725 71.11307582550216,255.6842265073792 78.93511993053835,243.6436396581994 78.56074569455814,242.84634517881204 77.28405879659113,242.55752411246067 59.92819746234454,242.71739025053103 51.27242526493501,243.42035116409534 50.58840975898784,250.04283605891396 48.75879300839733,254.377981906262 48.14285714284051,258.3209086145798 48.97246519138571,261.95219583733706 50.20569128089119,263.1387505866005 54.80270190828014,261.02367849161965 60.59017941262573,254.9631385303801 63.16173444944434,253.8448242478189 67.27734948263969,254.00323431345169 71.36238074244466,255.55786161092692 78.34043789620046,244.6486802951258 78.60678229294717,242.88165738980751 51.31859739613719,243.3565963699657 50.46742458734661,250.0452816647594 48.305041437852196,255.8868104564608 48.571410696953535,260.8681481182866 49.88533853844274,263.08101082374924 53.36224104871508,261.9869515909231 60.32283811457455,255.3711070488498 62.270111405756325,254.29487376482575 65.77716025710106,253.7259400197945 70.76413875480648,255.49244668579195 71.6323288900312,255.28757255300297 78.78016864007805,243.85022383125033 78.626409428427,242.94036475446774 51.32857571542263,243.41866663179826 50.74110960261896,249.67940256823204 48.18920165579766,256.2180323083885 48.404650246491656,260.39055772472057 49.591540905996226,262.84588699913 50.90142821078189,263.1039657187939 54.57201429340057,261.2455023356888 60.698525599204004,255.5406654260296" stroke="red" stroke-linecap="round" stroke-linejoin="round" stroke-width="0.5"><title>2020-09-06 15.2km</title></polyline></svg>