<svg xmlns="http://www.w3.org/2000/svg" xmlns:ev="http://www.w3.org/2001/xml-events" xmlns:xlink="http://www.w3.org/1999/xlink" width="200mm" height="300mm" baseProfile="full" version="1.1" viewBox="0 0 200 300"><rect width="200" height="300" x="0" y="0" fill="#222"/><text style="font-size:12px;font-family:Arial;font-weight:700" x="10" y="20" fill="#FFF">Over 10km Runs</text><text style="font-size:4px;font-family:Arial" x="10" y="280" fill="#FFF">ATHLETE</text><text style="font-size:9px;font-family:Arial" x="10" y="290" fill="#FFF">DuanFei</text><text style="font-size:4px;font-family:Arial" x="120" y="280" fill="#FFF">STATISTICS</text><text style="font-size:3px;font-family:Arial" x="120" y="285" fill="#FFF">Number: 24</text><text style="font-size:3px;font-family:Arial" x="120" y="290" fill="#FFF">Weekly: 2.0</text><text style="font-size:3px;font-family:Arial" x="141" y="285" fill="#FFF">Total: 186.9 km</text><text style="font-size:3px;font-family:Arial" x="141" y="290" fill="#FFF">Avg: 7.8 km</text><text style="font-size:3px;font-family:Arial" x="167" y="285" fill="#FFF">Min: 5.2 km</text><text style="font-size:3px;font-family:Arial" x="167" y="290" fill="#FFF">Max: 23.6 km</text><polyline fill="none" stroke="#4dd2ff" stroke-linecap="round" stroke-linejoin="round" stroke-width=".5" points="24.788 33.807 25.266 32.973 32.606 32.834 36.489 33.807 39.467 32.904 44.839 34.78 42.233 65.429 38.829 68 14.842 59.521 18.299 32.695 37.233 33.321 39.52 34.989 44.945 34.85 42.233 65.22 40.85 67.097 38.456 67.931 15.108 59.174 18.565 32.348 31.489 32.973 45.158 35.058 42.445 64.386 41.275 66.958 38.722 67.931 15.268 59.174 18.565 32.487 22.926 32 24.788 32.834"><title>2020-06-12 5.5km</title></polyline><polyline fill="none" stroke="#4dd2ff" stroke-linecap="round" stroke-linejoin="round" stroke-width=".5" points="71.923 33.121 86.931 33.121 91.648 34.942 90.093 57.494 88.164 66.879 86.181 68 83.929 67.79 67.421 62.257 61.686 59.315 62.275 51.961 65.116 32.49 87.199 33.331 91.701 34.732 89.236 65.058 86.717 67.79 83.554 67.65 70.744 63.308 61.632 59.385 64.151 35.992 64.902 32.63 66.188 32 78.248 32.42 82.161 33.471 87.521 33.121 91.862 35.012 89.289 64.358 88.271 66.599 86.181 67.93 76.533 65.689 61.471 59.175 63.669 42.016"><title>2020-06-16 5.2km</title></polyline><polyline fill="none" stroke="#4dd2ff" stroke-linecap="round" stroke-linejoin="round" stroke-width=".5" points="118.374 33.783 123.569 32.823 131.179 33.44 137.895 35.703 135.219 65.874 133.12 67.657 131.074 67.931 108.719 59.429 111.762 33.029 116.853 32 136.269 34.812 137.843 35.497 138 38.583 136.426 56.069 135.219 65.12 133.015 67.794 130.077 67.589 108.771 59.429 111.343 34.606 112.077 32.96 117.535 32.411 132.018 33.714 137.791 35.429 135.429 64.229 134.537 66.629 132.018 68 108.666 59.155 111.5 36.389"><title>2020-07-10 5.3km</title></polyline><polyline fill="none" stroke="#4dd2ff" stroke-linecap="round" stroke-linejoin="round" stroke-width=".5" points="166.064 32.626 170.16 32.07 182.977 33.738 184.892 34.711 182.286 65.151 181.116 67.097 178.244 68 164.894 63.552 155.214 58.896 158.193 32.973 160.48 32 175.212 33.46 178.882 32.973 185.105 34.85 182.552 63.969 180.903 67.097 178.297 67.931 167.181 63.761 164.894 64.178 154.949 58.966 158.246 32.765 159.31 32 164.788 32.07 167.394 33.043 180.158 33.39 185.105 34.919 182.126 65.707 178.776 68 169.468 64.873 167.394 63.344 165.16 63.552 154.842 58.618 158.14 33.877 158.884 32.209 169.575 32.278 185.158 34.711 182.073 64.734 180.85 66.749 178.244 67.653 165.213 63.622 155.055 58.827 158.193 32.487 159.682 32.278"><title>2020-07-18 7.2km</title></polyline><polyline fill="none" stroke="#ffb100" stroke-linecap="round" stroke-linejoin="round" stroke-width=".5" points="25.898 73.551 38.435 73.483 44.162 75.438 41.84 104.562 40.602 106.719 38.177 107.663 15.528 99.438 18.83 73.079 27.188 72.607 42.098 74.629 44.265 75.573 44.472 76.517 43.13 97.079 41.737 104.832 40.447 106.854 38.951 107.663 35.804 107.258 15.683 99.506 16.044 93.439 18.985 72.944 29.149 72.607 44.265 75.641 43.182 96.809 41.686 104.764 39.57 107.393 36.01 107.461 15.58 99.304 18.521 74.832 19.346 72.876 29.51 72.472 44.11 75.371 42.098 104.966 40.086 107.461 38.126 108 15.528 99.034 18.676 73.82 19.346 72.876 23.886 72.135 29.665 72 35.391 73.888 39.983 73.82 44.472 75.641 43.388 95.057 41.737 104.629 39.777 107.326 37.249 107.663 15.632 99.101 18.676 73.685 19.501 72.809 24.041 72.202 40.757 74.292 44.317 75.641 41.634 104.832 40.602 106.719 37.919 107.663 15.528 99.438 19.243 73.079"><title>2020-07-31 10.8km</title></polyline><polyline fill="none" stroke="#4dd2ff" stroke-linecap="round" stroke-linejoin="round" stroke-width=".5" points="73.6 72.553 86.872 73.52 91.314 75.317 90.098 95.908 88.247 105.789 86.291 107.793 84.176 107.931 64.399 100.745 61.966 99.087 65.139 72.829 74.922 72.207 83.647 73.866 87.242 73.313 91.473 75.731 89.252 101.436 87.084 107.378 84.81 108 77.513 105.996 61.913 99.708 62.601 89.137 65.086 72.484 76.138 72 91.208 74.971 89.199 101.643 88.194 105.996 85.709 108 62.178 99.156 64.927 73.037 71.009 72 87.401 73.935 91.367 75.386 88.882 103.785 87.718 106.687 85.55 108 76.667 105.582 61.861 99.363 63.764 82.503"><title>2020-08-07 7.0km</title></polyline><polyline fill="none" stroke="#4dd2ff" stroke-linecap="round" stroke-linejoin="round" stroke-width=".5" points="119.311 73.305 133.822 73.718 137.871 75.435 136.924 97.077 135.137 105.733 133.717 107.382 131.141 107.794 109.006 98.863 111.951 73.168 117.787 72.412 129.143 73.924 133.822 73.374 137.871 75.229 138.028 79.901 135.925 101.68 135.294 105.321 133.77 107.313 131.772 108 125.988 106.145 108.638 99 111.898 72.962 123.938 72 129.721 73.718 136.293 73.992 138.028 75.916 136.767 96.115 134.874 106.145 131.456 108 115.21 102.16 108.954 98.794 111.793 73.374 117.471 72.069 124.674 72.481 127.355 73.924"><title>2020-08-09 5.6km</title></polyline><polyline fill="none" stroke="#4dd2ff" stroke-linecap="round" stroke-linejoin="round" stroke-width=".5" points="165.166 74.174 179.72 74.377 184.555 75.464 183.151 96.046 181.54 105.759 179.617 107.592 176.862 107.592 161.787 101.819 156.069 99.238 155.393 98.015 158.668 73.359 178.265 74.377 184.503 75.804 182.475 102.159 181.28 106.166 178.369 107.796 155.861 99.102 158.564 72.883 170.104 73.494 184.503 75.872 182.372 101.955 180.552 107.049 178.837 107.864 176.082 107.592 155.965 99.238 155.757 97.947 158.876 73.019 171.248 72 176.342 74.106 182.579 74.513 184.607 76.211 182.995 98.219 181.748 105.623 178.577 108 155.913 99.374 158.408 75.193"><title>2020-08-14 7.1km</title></polyline><polyline fill="none" stroke="#4dd2ff" stroke-linecap="round" stroke-linejoin="round" stroke-width=".5" points="24.848 113.326 30.828 112.628 44.923 114.442 42.894 140.884 41.933 145.419 39.157 148 14.917 139.21 17.96 113.744 18.494 112.279 24.154 112 40.972 113.605 45.083 114.791 42.253 144.372 41.132 146.744 39.263 147.86 24.421 143.256 14.917 139 17.96 114.093 18.387 112.349 20.203 112.07 38.89 113.186 44.923 115 42.147 144.582 40.972 146.884 38.73 147.93 27.838 143.884 24.581 143.535 15.184 139 17.853 114.372"><title>2020-08-20 5.3km</title></polyline><polyline fill="none" stroke="#4dd2ff" stroke-linecap="round" stroke-linejoin="round" stroke-width=".5" points="72.352 112.84 84.948 113.261 91.594 115.082 90.254 136.164 88.539 145.969 86.931 147.72 84.733 148 61.9 138.755 64.955 112.35 70.53 112 91.272 114.592 90.468 135.393 88.539 146.249 86.663 147.72 84.305 147.86 61.793 138.965 65.009 112.07 91.326 114.592 90.04 135.954 88.11 147.16 85.055 147.93 70.583 143.167 61.954 138.895 61.846 135.884 65.17 112.07 91.326 114.732 88.646 146.459 85.162 148 61.739 139.105 65.116 112.42 71.762 112 91.165 114.451 91.433 121.175 89.236 144.218 87.735 147.16 84.733 147.79"><title>2020-08-21 8.1km</title></polyline><polyline fill="none" stroke="#4dd2ff" stroke-linecap="round" stroke-linejoin="round" stroke-width=".5" points="117.674 134.343 122.7 131.359 129.115 131.732 132.017 133.011 140.68 120.328 141.006 118.73 140.148 118.09 128.502 118.09 109.052 119.103 108.235 126.03 105.333 134.236 105.783 139.139 107.376 141.803 109.501 141.43 113.833 139.086 117.388 134.823 122.087 131.785 127.44 131.252 131.159 133.171 132.098 132.958 141.17 119.529 140.761 118.41 139.168 118.037 109.174 119.156 108.561 120.062 108.275 125.87 105.865 132.851 105.333 137.007 107.336 141.963 112.607 140.045 119.758 132.904 122.373 131.625 127.89 131.306 132.058 133.064 141.333 118.836 140.598 118.09 135.122 118.037 108.725 119.05 108.561 124.911 106.069 132.158 105.333 136.954 106.723 141.11 107.949 141.91"><title>2020-09-02 6.1km</title></polyline><polyline fill="none" stroke="#ffb500" stroke-linecap="round" stroke-linejoin="round" stroke-width=".5" points="164.543 134.408 169.267 131.381 174.195 131.169 177.575 132.974 179.163 132.762 187.593 118.795 185.719 117.945 181.443 117.892 155.624 118.901 154.688 127.079 152 136.426 152.896 140.25 154.199 141.949 160.308 139.612 165.195 133.718 167.597 132.231 173.706 131.275 178.837 132.974 187.919 119.166 187.104 118.317 182.95 117.732 170.081 118.954 160.471 118.582 155.136 119.326 155.095 125.645 152 135.205 152.937 140.568 154.362 142.214 159.412 140.143 165.439 133.399 168.86 131.434 173.136 131.222 178.796 133.08 187.919 118.901 186.534 118.157 181.036 117.998 155.421 119.166 154.769 126.495 152.041 135.789 152.733 139.719 154.443 142.108 159.534 139.984 165.439 133.665 169.837 131.381 174.195 131.434 178.919 133.133 188 119.113 187.104 118.264 182.258 118.051 155.624 119.166 154.932 126.017 152.244 134.249 152.407 138.55 154.199 142.268 159.29 140.25 164.462 134.302 169.145 131.7 173.339 131.115 177.941 133.027 178.959 132.868 187.633 119.644 187.348 118.529 185.842 118.157 155.584 119.219 155.136 126.07 152.163 134.833 152.855 140.037 154.362 142.108 160.593 139.347"><title>2020-09-04 10.6km</title></polyline><polyline fill="none" stroke="#4dd2ff" stroke-linecap="round" stroke-linejoin="round" stroke-width=".5" points="24.19 174.679 28.227 171.914 32.14 171.276 39.357 173.084 42.945 166.332 48 159.207 46.777 158.144 43.719 158.038 15.629 159.048 14.813 166.544 12.041 175.636 12.326 179.038 14.039 182.069 19.176 179.942 25.74 173.403 28.593 171.914 32.304 171.223 39.153 172.871 47.633 159.314 46.736 158.144 37.889 157.931 29.164 158.782 15.751 158.835 15.099 159.739 15.058 165.853 12 175.848 12.856 180.686 14.242 181.962 20.113 179.304 23.986 174.998 29.042 171.595 33.364 171.223 37.685 172.924 39.275 172.712 47.429 158.729 46.614 158.144 36.177 157.984 15.629 159.048 14.691 167.129 12.326 173.084 12.204 178.879"><title>2020-09-05 6.0km</title></polyline><polyline fill="none" stroke="#ff7800" stroke-linecap="round" stroke-linejoin="round" stroke-width=".5" points="72.887 172.585 76.769 170.933 80.651 171.199 83.797 172.744 85.922 172.904 94.544 159.476 94.258 158.41 89.967 157.877 62.181 158.943 61.241 167.416 59.116 172.531 58.748 175.729 59.484 179.832 60.955 181.856 65.736 180.151 74.317 172.052 77.872 170.986 85.554 172.851 94.503 159.369 93.768 158.144 89.436 157.824 62.426 158.943 61.445 166.83 58.789 173.863 59.525 179.991 61.2 182.016 67.493 178.713 72.397 173.224 75.257 171.572 79.547 170.986 85.513 172.958 94.667 159.103 94.095 158.25 92.46 158.037 62.181 158.996 61.159 167.309 58.748 175.302 59.239 179.245 60.751 182.176 66.022 180.045 71.538 174.13 75.339 171.466 79.18 171.039 85.513 173.064 94.462 158.89 93.768 158.037 91.684 157.877 68.433 158.357 61.895 159.103 61.568 165.551 58.748 175.036 59.443 179.885 60.873 181.91 66.798 179.512 74.603 171.998 77.831 171.146 80.978 171.466 85.473 173.277 94.585 159.263 94.176 158.304 92.664 157.984 72.437 158.144 62.344 158.996 61.527 166.723 59.402 171.785 58.667 176.368 59.647 180.578 61.078 181.963 66.471 179.512 73.214 172.425 76.197 171.146 81.019 171.306 85.759 173.117 93.89 160.435 94.217 158.357 62.385 158.89 61.404 166.723 58.871 173.544 59.198 179.352 60.71 181.91 64.755 180.631 72.887 172.904 75.175 171.679 79.261 170.986 85.064 173.064 86.086 172.851 94.421 159.476 94.258 158.41 62.385 158.996 61.731 166.297 58.748 173.917 58.994 178.766 60.383 181.643 61.895 181.963 66.185 179.778 73.336 173.117"><title>2020-09-06 14.9km</title></polyline><polyline fill="none" stroke="#4dd2ff" stroke-linecap="round" stroke-linejoin="round" stroke-width=".5" points="117.812 173.988 121.384 171.579 125.037 170.991 132.344 173.078 140.348 160.766 141.046 158.25 132.138 157.929 108.864 158.893 108.084 166.44 105.333 174.845 105.826 179.341 107.427 182.125 110.588 181.215 114.364 178.645 118.674 173.667 121.342 171.793 126.638 171.151 132.508 172.971 141.333 159.16 140.8 158.036 139.609 157.875 108.617 159.053 108.207 166.066 105.374 175.059 105.58 178.378 106.934 181.964 113.092 179.716 118.715 173.453 122.902 171.258 127.705 171.312 132.344 173.078 141.21 158.785 140.594 157.929 108.74 159.16 107.714 167.832 105.58 173.292 105.456 178.003"><title>2020-09-08 6.0km</title></polyline><polyline fill="none" stroke="#ffb800" stroke-linecap="round" stroke-linejoin="round" stroke-width=".5" points="164.584 174.169 167.068 172.204 171.67 170.983 179.204 172.948 188 159.034 187.226 158.237 181.281 158.078 155.747 158.927 155.054 160.521 154.932 166.203 152.855 171.301 152.081 175.709 152.57 179.586 153.955 181.922 160.389 179.161 164.95 173.85 169.511 171.248 172.769 171.195 178.959 172.948 187.959 159.352 187.063 158.131 185.434 158.078 155.502 158.98 154.606 167.265 152 174.753 152.529 179.267 154.321 181.975 159.778 179.586 164.91 174.063 169.308 171.514 172.729 171.089 178.878 173.001 187.633 158.715 186.778 158.078 155.462 158.98 155.136 165.194 152.855 171.408 152.163 176.718 153.018 180.382 154.566 181.922 159.249 179.904 164.747 174.169 170.122 171.248 179.367 172.894 187.796 159.087 187.145 158.184 183.887 157.971 155.339 159.246 154.647 167.106 152.122 175.178 152.774 179.745 154.362 182.029 159.778 179.533 165.113 173.691 169.348 170.983 174.805 171.354 178.837 172.948 187.919 159.087 186.738 157.971 155.421 159.299 154.688 167.212 152.204 174.966 152.774 179.692"><title>2020-09-09 10.3km</title></polyline><polyline fill="none" stroke="#4dd2ff" stroke-linecap="round" stroke-linejoin="round" stroke-width=".5" points="25.017 213.766 25.505 212.812 27.824 211.751 31.851 210.902 39.01 213.024 47.919 198.86 45.356 198.065 15.336 199.179 14.644 206.924 12.366 213.183 12 217.427 13.668 221.617 14.685 221.988 20.339 219.177 24.203 215.517 25.424 213.395 27.783 211.91 30.386 211.167 34.536 211.273 38.888 213.342 47.756 199.285 47.553 198.277 46.047 198.012 15.864 198.966 14.441 207.984 12.081 214.244 12.692 219.761 13.871 221.723 16.393 221.458 19.647 219.601 26.156 212.971 28.922 211.379 34.495 211.273 38.847 213.395 48 198.86 46.617 198.065 32.298 198.648"><title>2020-09-10 5.3km</title></polyline><polyline fill="none" stroke="#4dd2ff" stroke-linecap="round" stroke-linejoin="round" stroke-width=".5" points="71.213 214.732 75.068 211.952 77.446 211.15 80.357 211.15 85.851 212.914 92.494 203.129 94.667 198.638 87.737 197.996 62.029 199.119 61.414 207.567 58.708 215.534 59.241 219.33 60.84 222.111 66.498 219.598 72.238 213.663 75.396 211.791 79.906 210.989 85.892 213.235 94.626 199.493 94.011 197.943 86.261 197.782 73.386 198.638 69.737 198.103 61.824 199.333 61.906 205.215 58.667 215.481 59.61 220.4 61.004 222.218 66.17 219.812 72.074 213.716 76.626 211.257 81.669 211.257 86.015 212.861 94.585 198.852 93.929 198.05 84.826 197.836 62.193 199.119 61.742 206.391 58.913 214.518 59.282 219.437 61.127 222.057 64.243 220.934 67.892 218.368"><title>2020-09-13 6.3km</title></polyline><polyline fill="none" stroke="#4dd2ff" stroke-linecap="round" stroke-linejoin="round" stroke-width=".5" points="117.756 214.716 121.392 212.158 124.294 211.252 127.93 211.466 132.548 213.011 141.333 198.89 140.475 198.197 132.916 198.037 109.011 198.943 108.398 199.742 108.398 204.858 105.333 215.196 106.151 220.098 107.826 222.016 111.994 220.418 117.715 214.61 122.414 211.732 126.378 211.093 131.199 212.958 132.384 212.798 141.17 199.156 140.026 198.037 131.199 198.037 108.766 199.263 108.235 205.924 105.66 213.277 105.333 216.634 106.069 220.045 106.804 221.59 107.826 221.856 112.443 219.991 116.611 216.315 117.715 214.396 123.967 210.986 127.358 211.146 131.363 213.011 132.466 212.798 141.129 199.476 139.985 197.93 109.215 198.89 108.48 199.742 108.112 206.35 105.415 215.142 106.028 220.045 107.376 222.07"><title>2020-09-15 6.1km</title></polyline><polyline fill="none" stroke="red" stroke-linecap="round" stroke-linejoin="round" stroke-width=".5" points="164.339 214.355 169.756 211.062 175.294 211.328 179.041 212.709 187.674 198.104 155.584 198.848 155.136 205.539 152.692 211.646 152.041 216.001 152.57 218.763 154.199 221.577 159.086 219.825 165.765 212.815 169.715 210.797 173.095 210.797 179.244 212.443 188 198.635 187.267 197.679 155.624 198.635 155.054 205.486 152 214.939 152.407 218.178 154.118 221.63 158.76 219.984 164.91 213.718 169.308 210.85 175.09 211.222 179.285 212.762 187.837 198.848 187.43 197.786 185.19 197.679 155.584 198.795 154.973 205.592 152.244 214.249 152.489 218.019 153.914 221.577 159.86 219.187 164.665 213.93 169.348 210.956 174.968 211.115 179.041 212.762 187.674 198.795 187.104 197.732 185.964 197.732 155.624 198.688 155.014 205.114 152.122 214.727 152.774 219.294 154.362 221.577 159.534 219.241 164.176 215.205 165.276 213.399 169.471 210.956 172.891 210.637 178.796 212.709 187.959 198.954 187.593 197.998 186.045 197.573 155.543 198.742 154.932 206.123 152.122 215.895 153.914 221.63 160.43 218.869 165.398 213.24 169.186 211.009 173.095 210.85 178.919 212.602 188 198.635 186.9 197.679 155.665 198.635 155.054 206.07 152.977 211.275 152.163 215.842 153.059 220.143 154.688 221.63 160.145 219.028 164.38 214.196 168.493 211.434 172.891 210.584 179.204 212.602 187.593 199.113 187.186 197.732 183.968 197.626 155.584 198.901 155.095 205.168 152.367 214.142 152.529 217.86 153.833 221.471 157.009 220.834 159.819 219.187 166.701 212.443 169.43 210.903 172.81 210.903 179.041 212.709 187.959 198.635 187.186 197.786 182.462 197.679 155.991 198.423 155.299 199.166 154.81 206.177 152.163 214.036 152.489 218.763 153.466 221.259 154.566 221.418 160.389 218.763 164.95 213.665 169.389 210.637 173.584 210.637 177.656 212.337 179.285 212.178 187.919 198.635 186.738 197.626 155.706 198.529 154.891 206.283 152.163 215.205 152.733 219.453 154.484 221.259 158.516 220.25 165.765 212.868 169.023 211.009 172.729 210.478 177.615 212.39 179.244 212.284 187.919 198.742 186.9 197.626 155.502 198.688 154.769 206.761 152.204 214.78 152.448 218.019 153.792 221.418 156.887 220.674 161.57 217.701 164.258 213.983 169.389 210.691 172.525 210.531 179.041 212.709 188 198.317 186.697 197.626 155.543 198.901 154.973 205.699 152.204 216.054 153.018 219.719 154.647 222.427 160.145 220.25 165.724 214.408 168.656 212.868"><title>2020-09-16 23.6km</title></polyline><polyline fill="none" stroke="#4dd2ff" stroke-linecap="round" stroke-linejoin="round" stroke-width=".5" points="25.368 253.948 28.212 251.775 31.828 251.192 36.014 251.934 38.817 253.365 48 239.111 46.172 238.052 38.573 237.999 15.576 238.952 15.21 245.576 12.975 251.139 12 256.65 13.422 261.472 14.926 262.054 20.777 258.928 24.271 254.742 28.619 251.669 33.576 251.245 38.817 253.259 47.959 239.323 46.903 238.158 42.068 237.946 15.535 239.164 15.291 245.629 12.203 255.431 13.056 260.359 14.479 262.054 19.639 259.511 23.093 256.756 24.758 254.372 28.578 251.722 32.113 251.192 39.183 252.888 47.959 239.005 47.309 238.211 45.237 237.946 15.86 239.111 15.047 247.006 12.244 255.431 12.894 259.776 14.641 262.001"><title>2020-09-18 6.1km</title></polyline><polyline fill="none" stroke="#4dd2ff" stroke-linecap="round" stroke-linejoin="round" stroke-width=".5" points="71.48 254.27 75.223 251.83 78.395 251.194 85.718 253.156 94.504 239.736 94.382 238.728 93.609 237.932 62.694 239.046 61.718 246.367 59.114 252.732 58.707 256.604 60.823 262.015 62.979 261.644 66.233 259.787 71.155 254.695 75.345 251.989 79.616 251.247 85.677 253.156 94.667 238.728 93.731 238.091 90.599 238.038 62.409 238.887 61.677 246.048 58.667 255.119 59.358 259.522 61.189 262.068 66.233 259.787 71.236 254.589 75.426 251.83 78.68 251.353 85.677 252.944 94.545 239.205 94.179 238.25 92.511 238.038 62.572 238.94 61.88 239.683 61.962 244.669 59.318 252.785 58.911 257.188"><title>2020-09-20 6.0km</title></polyline><polyline fill="none" stroke="#4dd2ff" stroke-linecap="round" stroke-linejoin="round" stroke-width=".5" points="117.907 254.38 125.074 251.068 132.937 252.777 141.251 238.838 139.736 238.037 108.733 239.265 108.364 244.926 105.333 255.341 105.825 259.186 107.34 261.963 110.166 261.536 113.893 259.4 117.743 254.593 122.903 251.282 126.139 250.855 131.627 252.991 132.774 252.617 141.333 239.212 140.105 238.09 109.306 238.945 108.651 239.746 108.2 246.155 105.374 255.127 105.784 259.186 107.504 261.857 110.821 261.109 113.688 259.293 118.603 253.739 123.149 251.229 126.589 251.068 132.323 253.098 141.17 238.784 140.391 238.037 109.183 238.998 108.487 239.746 108.118 246.475 105.661 253.311 105.374 256.943"><title>2020-09-22 6.0km</title></polyline><polyline fill="none" stroke="#4dd2ff" stroke-linecap="round" stroke-linejoin="round" stroke-width=".5" points="165.035 254.343 169.571 251.466 171.655 251.146 178.847 253.437 187.959 238.943 187.183 238.09 181.911 237.771 169.162 238.943 155.473 239.156 154.942 246.51 152 254.237 152.531 259.618 154.247 262.07 159.805 259.618 164.136 254.929 167.814 252.212 172.717 251.359 179.051 253.277 188 239.209 186.856 238.09 155.473 238.996 154.738 246.83 152.041 255.249 152.695 259.938 154.125 262.016 158.62 260.418 167.814 252.158 173.575 251.252 178.888 253.117 187.877 239.263 186.733 238.144 179.705 238.144 155.555 239.263 154.86 246.563 152.49 252.585 152 256.208 152.776 260.151 154.288 262.229"><title>2020-09-26 6.1km</title></polyline></svg>