<svg xmlns="http://www.w3.org/2000/svg" xmlns:ev="http://www.w3.org/2001/xml-events" xmlns:xlink="http://www.w3.org/1999/xlink" width="200mm" height="300mm" baseProfile="full" version="1.1" viewBox="0 0 200 300"><rect width="200" height="300" x="0" y="0" fill="#222"/><text style="font-size:12px;font-family:Arial;font-weight:700" x="10" y="20" fill="#FFF">Over 10km Runs</text><text style="font-size:4px;font-family:Arial" x="10" y="280" fill="#FFF">ATHLETE</text><text style="font-size:9px;font-family:Arial" x="10" y="290" fill="#FFF">DuanFei</text><text style="font-size:4px;font-family:Arial" x="120" y="280" fill="#FFF">STATISTICS</text><text style="font-size:3px;font-family:Arial" x="120" y="285" fill="#FFF">Number: 39</text><text style="font-size:3px;font-family:Arial" x="120" y="290" fill="#FFF">Weekly: 2.8</text><text style="font-size:3px;font-family:Arial" x="141" y="285" fill="#FFF">Total: 295.4 km</text><text style="font-size:3px;font-family:Arial" x="141" y="290" fill="#FFF">Avg: 7.6 km</text><text style="font-size:3px;font-family:Arial" x="167" y="285" fill="#FFF">Min: 5.2 km</text><text style="font-size:3px;font-family:Arial" x="167" y="290" fill="#FFF">Max: 23.6 km</text><polyline fill="none" stroke="#4dd2ff" stroke-linecap="round" stroke-linejoin="round" stroke-width=".5" points="21.091 32.855 21.45 32.23 26.955 32.126 29.866 32.855 32.1 32.178 36.129 33.585 34.174 56.571 31.622 58.5 13.632 52.141 16.224 32.021 30.425 32.49 32.14 33.741 36.209 33.637 34.174 56.415 33.137 57.822 31.342 58.448 13.831 51.88 16.424 31.761 26.117 32.23 36.368 33.794 34.334 55.79 33.456 57.718 31.542 58.448 13.951 51.88 16.424 31.865 19.695 31.5 21.091 32.126"><title>2020-06-12 5.5km</title></polyline><polyline fill="none" stroke="#4dd2ff" stroke-linecap="round" stroke-linejoin="round" stroke-width=".5" points="58.942 32.34 70.198 32.34 73.736 33.706 72.57 50.621 71.123 57.66 69.635 58.5 67.947 58.342 55.566 54.193 51.264 51.987 51.706 46.471 53.837 31.868 70.399 32.498 73.776 33.549 71.927 56.294 70.037 58.342 67.666 58.237 58.058 54.981 51.224 52.039 53.113 34.494 53.676 31.973 54.641 31.5 63.686 31.815 66.62 32.603 70.64 32.34 73.897 33.759 71.967 55.769 71.203 57.449 69.635 58.447 62.4 56.767 51.103 51.882 52.752 39.012"><title>2020-06-16 5.2km</title></polyline><polyline fill="none" stroke="#4dd2ff" stroke-linecap="round" stroke-linejoin="round" stroke-width=".5" points="96.281 32.837 100.177 32.117 105.884 32.58 110.922 34.277 108.914 56.906 107.34 58.243 105.805 58.449 89.039 52.072 91.322 32.271 95.139 31.5 109.702 33.609 110.882 34.123 111 36.437 109.82 49.552 108.914 56.34 107.261 58.346 105.057 58.191 89.078 52.072 91.007 33.454 91.558 32.22 95.651 31.809 106.514 32.786 110.843 34.072 109.072 55.672 108.403 57.471 106.514 58.5 89 51.866 91.125 34.792"><title>2020-07-10 5.3km</title></polyline><polyline fill="none" stroke="#4dd2ff" stroke-linecap="round" stroke-linejoin="round" stroke-width=".5" points="134.548 31.969 137.62 31.552 147.233 32.803 148.669 33.533 146.714 56.363 145.837 57.822 143.683 58.5 133.671 55.164 126.411 51.672 128.645 32.23 130.36 31.5 141.409 32.595 144.161 32.23 148.829 33.637 146.914 55.477 145.677 57.822 143.723 58.448 135.386 55.321 133.671 55.633 126.211 51.724 128.685 32.073 129.482 31.5 133.591 31.552 135.545 32.282 145.119 32.543 148.829 33.689 146.595 56.78 144.082 58.5 137.101 56.155 135.545 55.008 133.87 55.164 126.132 51.464 128.605 32.907 129.163 31.656 137.181 31.709 148.868 33.533 146.555 56.05 145.637 57.562 143.683 58.239 133.91 55.216 126.291 51.62 128.645 31.865 129.762 31.709"><title>2020-07-18 7.2km</title></polyline><polyline fill="none" stroke="#ffb100" stroke-linecap="round" stroke-linejoin="round" stroke-width=".5" points="171.924 32.663 181.326 32.612 185.621 34.079 183.88 55.921 182.952 57.539 181.133 58.247 164.146 52.079 166.623 32.309 172.891 31.955 184.074 33.472 185.699 34.18 185.854 34.888 184.848 50.309 183.803 56.124 182.836 57.64 181.713 58.247 179.353 57.944 164.262 52.129 164.533 47.579 166.739 32.208 174.362 31.955 185.699 34.23 184.886 50.107 183.764 56.073 182.178 58.045 179.508 58.096 164.185 51.978 166.391 33.624 167.01 32.157 174.632 31.854 185.583 34.028 184.074 56.225 182.565 58.096 181.094 58.5 164.146 51.775 166.507 32.865 167.01 32.157 170.415 31.601 174.748 31.5 179.044 32.916 182.487 32.865 185.854 34.23 185.041 48.792 183.803 55.972 182.332 57.994 180.436 58.247 164.224 51.826 166.507 32.764 167.126 32.107 170.531 31.652 183.068 33.219 185.738 34.23 183.725 56.124 182.952 57.539 180.94 58.247 164.146 52.079 166.932 32.309"><title>2020-07-31 10.8km</title></polyline><polyline fill="none" stroke="#4dd2ff" stroke-linecap="round" stroke-linejoin="round" stroke-width=".5" points="22.7 61.915 32.654 62.64 35.986 63.988 35.073 79.431 33.685 86.842 32.218 88.345 30.632 88.448 15.799 83.059 13.975 81.815 16.354 62.122 23.691 61.655 30.235 62.899 32.932 62.485 36.105 64.299 34.439 83.577 32.813 88.034 31.108 88.5 25.635 86.997 13.935 82.281 14.451 74.352 16.315 61.863 24.603 61.5 35.906 63.728 34.399 83.732 33.646 86.997 31.782 88.5 14.133 81.867 16.196 62.277 20.756 61.5 33.051 62.951 36.025 64.039 34.161 85.339 33.289 87.515 31.663 88.5 25 86.686 13.895 82.022 15.323 69.377"><title>2020-08-07 7.0km</title></polyline><polyline fill="none" stroke="#4dd2ff" stroke-linecap="round" stroke-linejoin="round" stroke-width=".5" points="59.483 62.479 70.367 62.788 73.403 64.076 72.693 80.307 71.353 86.8 70.288 88.036 68.356 88.345 51.755 81.647 53.963 62.376 58.34 61.809 66.857 62.943 70.367 62.531 73.403 63.922 73.521 67.426 71.944 83.76 71.471 86.491 70.327 87.985 68.829 88.5 64.491 87.109 51.479 81.75 53.923 62.221 62.953 61.5 67.291 62.788 72.22 62.994 73.521 64.437 72.575 79.586 71.155 87.109 68.592 88.5 56.408 84.12 51.715 81.596 53.845 62.531 58.103 61.552 63.506 61.861 65.517 62.943"><title>2020-08-09 5.6km</title></polyline><polyline fill="none" stroke="#4dd2ff" stroke-linecap="round" stroke-linejoin="round" stroke-width=".5" points="96.374 63.13 107.29 63.283 110.916 64.098 109.863 79.534 108.655 86.819 107.212 88.194 105.146 88.194 93.84 83.864 89.552 81.928 89.045 81.012 91.501 62.519 106.199 63.283 110.877 64.353 109.357 84.119 108.46 87.125 106.277 88.347 89.396 81.827 91.423 62.162 100.078 62.621 110.877 64.404 109.279 83.966 107.914 87.787 106.628 88.398 104.561 88.194 89.474 81.928 89.318 80.961 91.657 62.264 100.936 61.5 104.756 63.079 109.435 63.385 110.955 64.659 109.746 81.164 108.811 86.717 106.433 88.5 89.435 82.03 91.306 63.894"><title>2020-08-14 7.1km</title></polyline><polyline fill="none" stroke="#4dd2ff" stroke-linecap="round" stroke-linejoin="round" stroke-width=".5" points="133.636 62.494 138.121 61.971 148.692 63.331 147.171 83.163 146.45 86.564 144.367 88.5 126.188 81.907 128.47 62.808 128.871 61.709 133.115 61.5 145.729 62.704 148.812 63.593 146.69 85.779 145.849 87.558 144.448 88.395 133.315 84.942 126.188 81.75 128.47 63.07 128.79 61.762 130.152 61.552 144.167 62.39 148.692 63.75 146.61 85.936 145.729 87.663 144.047 88.448 135.878 85.413 133.436 85.151 126.388 81.75 128.39 63.279"><title>2020-08-20 5.3km</title></polyline><polyline fill="none" stroke="#4dd2ff" stroke-linecap="round" stroke-linejoin="round" stroke-width=".5" points="171.764 62.13 181.211 62.446 186.196 63.811 185.191 79.623 183.904 86.977 182.698 88.29 181.05 88.5 163.925 81.566 166.216 61.763 170.397 61.5 185.954 63.444 185.351 79.045 183.904 87.187 182.497 88.29 180.728 88.395 163.845 81.724 166.257 61.553 185.995 63.444 185.03 79.465 183.583 87.87 181.291 88.447 170.437 84.876 163.965 81.671 163.885 79.413 166.377 61.553 185.995 63.549 183.985 87.344 181.372 88.5 163.804 81.829 166.337 61.815 171.322 61.5 185.874 63.339 186.075 68.382 184.427 85.664 183.301 87.87 181.05 88.342"><title>2020-08-21 8.1km</title></polyline><polyline fill="none" stroke="#4dd2ff" stroke-linecap="round" stroke-linejoin="round" stroke-width=".5" points="20.755 108.257 24.525 106.019 29.337 106.299 31.512 107.258 38.01 97.746 38.255 96.547 37.611 96.068 28.877 96.068 14.289 96.827 13.676 102.023 11.5 108.177 11.837 111.854 13.032 113.852 14.626 113.573 17.875 111.814 20.541 108.617 24.065 106.339 28.08 105.939 30.869 107.378 31.574 107.218 38.377 97.147 38.071 96.308 36.876 96.028 14.381 96.867 13.921 97.547 13.707 101.903 11.898 107.138 11.5 110.256 13.002 113.972 16.955 112.534 22.318 107.178 24.28 106.219 28.417 105.979 31.543 107.298 38.5 96.627 37.948 96.068 33.842 96.028 14.044 96.787 13.921 101.183 12.052 106.619 11.5 110.216 12.542 113.333 13.461 113.932"><title>2020-09-02 6.1km</title></polyline><polyline fill="none" stroke="#ffb500" stroke-linecap="round" stroke-linejoin="round" stroke-width=".5" points="58.407 108.306 61.95 106.036 65.646 105.876 68.181 107.231 69.372 107.071 75.695 96.596 74.29 95.959 71.083 95.919 51.718 96.676 51.016 102.81 49 109.82 49.672 112.687 50.649 113.962 55.231 112.209 58.896 107.788 60.698 106.673 65.279 105.956 69.128 107.231 75.939 96.875 75.328 96.237 72.213 95.799 62.561 96.715 55.353 96.437 51.352 96.994 51.321 101.734 49 108.903 49.702 112.926 50.771 114.161 54.559 112.608 59.079 107.549 61.645 106.076 64.852 105.916 69.097 107.31 75.939 96.676 74.9 96.118 70.777 95.999 51.566 96.875 51.077 102.371 49.031 109.342 49.55 112.289 50.833 114.081 54.65 112.488 59.079 107.748 62.378 106.036 65.646 106.076 69.189 107.35 76 96.835 75.328 96.198 71.693 96.038 51.718 96.875 51.199 102.013 49.183 108.187 49.305 111.413 50.649 114.201 54.467 112.687 58.346 108.226 61.859 106.275 65.005 105.837 68.456 107.27 69.219 107.151 75.725 97.233 75.511 96.397 74.381 96.118 51.688 96.915 51.352 102.053 49.122 108.625 49.641 112.528 50.771 114.081 55.445 112.01"><title>2020-09-04 10.6km</title></polyline><polyline fill="none" stroke="#4dd2ff" stroke-linecap="round" stroke-linejoin="round" stroke-width=".5" points="95.643 108.509 98.67 106.436 101.605 105.957 107.018 107.313 109.708 102.249 113.5 96.905 112.583 96.108 110.289 96.028 89.221 96.786 88.61 102.408 86.531 109.227 86.745 111.779 88.029 114.052 91.882 112.457 96.805 107.552 98.945 106.436 101.728 105.917 106.865 107.153 113.225 96.985 112.552 96.108 105.917 95.948 99.373 96.586 89.313 96.626 88.824 97.304 88.793 101.89 86.5 109.386 87.142 113.015 88.182 113.972 92.585 111.978 95.49 108.748 99.281 106.196 102.523 105.917 105.764 107.193 106.956 107.034 113.072 96.547 112.46 96.108 104.633 95.988 89.221 96.786 88.518 102.847 86.745 107.313 86.653 111.659"><title>2020-09-05 6.0km</title></polyline><polyline fill="none" stroke="#ff7800" stroke-linecap="round" stroke-linejoin="round" stroke-width=".5" points="134.665 106.938 137.577 105.7 140.488 105.899 142.848 107.058 144.442 107.178 150.908 97.107 150.694 96.308 147.476 95.908 126.636 96.707 125.931 103.062 124.337 106.898 124.061 109.296 124.613 112.374 125.716 113.892 129.302 112.613 135.738 106.539 138.404 105.74 144.166 107.138 150.877 97.027 150.326 96.108 147.077 95.868 126.82 96.707 126.084 102.622 124.092 107.898 124.644 112.494 125.9 114.012 130.62 111.534 134.297 107.418 136.443 106.179 139.661 105.74 144.135 107.218 151 96.827 150.571 96.188 149.345 96.028 126.636 96.747 125.869 102.982 124.061 108.977 124.429 111.934 125.563 114.132 129.516 112.534 133.654 108.097 136.504 106.099 139.385 105.779 144.135 107.298 150.847 96.667 150.326 96.028 148.763 95.908 131.325 96.268 126.421 96.827 126.176 101.663 124.061 108.777 124.582 112.414 125.655 113.932 130.099 112.134 135.952 106.499 138.373 105.859 140.733 106.099 144.104 107.458 150.939 96.947 150.632 96.228 149.498 95.988 134.328 96.108 126.758 96.747 126.145 102.542 124.552 106.339 124 109.776 124.736 112.933 125.808 113.972 129.854 112.134 134.91 106.819 137.148 105.859 140.764 105.979 144.319 107.338 150.418 97.826 150.663 96.268 126.789 96.667 126.053 102.542 124.153 107.658 124.398 112.014 125.532 113.932 128.566 112.973 134.665 107.178 136.381 106.259 139.446 105.74 143.798 107.298 144.564 107.138 150.816 97.107 150.694 96.308 126.789 96.747 126.299 102.223 124.061 107.938 124.245 111.574 125.287 113.732 126.421 113.972 129.639 112.334 135.002 107.338"><title>2020-09-06 14.9km</title></polyline><polyline fill="none" stroke="#4dd2ff" stroke-linecap="round" stroke-linejoin="round" stroke-width=".5" points="170.859 107.991 173.538 106.185 176.278 105.743 181.758 107.309 187.761 98.075 188.284 96.188 181.604 95.947 164.148 96.669 163.563 102.33 161.5 108.633 161.869 112.006 163.07 114.093 165.441 113.411 168.273 111.484 171.506 107.75 173.507 106.345 177.478 105.863 181.881 107.228 188.5 96.87 188.1 96.027 187.207 95.907 163.963 96.79 163.655 102.049 161.531 108.794 161.685 111.283 162.701 113.973 167.319 112.287 171.536 107.59 174.677 105.944 178.279 105.984 181.758 107.309 188.408 96.589 187.946 95.947 164.055 96.87 163.286 103.374 161.685 107.469 161.592 111.002"><title>2020-09-08 6.0km</title></polyline><polyline fill="none" stroke="#ffb800" stroke-linecap="round" stroke-linejoin="round" stroke-width=".5" points="20.938 138.127 22.801 136.653 26.252 135.737 31.903 137.211 38.5 126.775 37.92 126.178 33.46 126.058 14.31 126.696 13.791 127.89 13.699 132.152 12.141 135.976 11.561 139.282 11.928 142.189 12.966 143.942 17.792 141.871 21.213 137.888 24.633 135.936 27.077 135.896 31.719 137.211 38.469 127.014 37.798 126.098 36.576 126.058 14.127 126.735 13.455 132.949 11.5 138.565 11.897 141.95 13.241 143.982 17.334 142.189 21.182 138.047 24.481 136.135 27.046 135.817 31.658 137.251 38.225 126.536 37.584 126.058 14.096 126.735 13.852 131.396 12.141 136.056 11.622 140.039 12.264 142.787 13.424 143.942 16.937 142.428 21.06 138.127 25.092 135.936 32.025 137.171 38.347 126.815 37.859 126.138 35.415 125.979 14.005 126.935 13.485 132.829 11.592 138.884 12.08 142.309 13.271 144.021 17.334 142.149 21.335 137.768 24.511 135.737 28.604 136.016 31.628 137.211 38.439 126.815 37.553 125.979 14.066 126.974 13.516 132.909 11.653 138.724 12.08 142.269"><title>2020-09-09 10.3km</title></polyline><polyline fill="none" stroke="#4dd2ff" stroke-linecap="round" stroke-linejoin="round" stroke-width=".5" points="58.763 137.825 59.129 137.109 60.868 136.313 63.888 135.676 69.258 137.268 75.939 126.645 74.017 126.048 51.502 126.884 50.983 132.693 49.275 137.387 49 140.57 50.251 143.713 51.014 143.991 55.254 141.883 58.153 139.138 59.068 137.546 60.837 136.432 62.79 135.875 65.902 135.955 69.166 137.507 75.817 126.964 75.664 126.208 74.536 126.009 51.898 126.725 50.831 133.488 49.061 138.183 49.519 142.32 50.403 143.792 52.295 143.593 54.736 142.201 59.617 137.228 61.692 136.035 65.871 135.955 69.136 137.546 76 126.645 74.963 126.048 64.224 126.486"><title>2020-09-10 5.3km</title></polyline><polyline fill="none" stroke="#4dd2ff" stroke-linecap="round" stroke-linejoin="round" stroke-width=".5" points="95.91 138.549 98.801 136.464 100.584 135.862 102.768 135.862 106.888 137.186 111.87 129.847 113.5 126.478 108.303 125.997 89.022 126.839 88.56 133.176 86.531 139.151 86.931 141.998 88.13 144.083 92.374 142.198 96.679 137.747 99.047 136.344 102.429 135.742 106.919 137.426 113.469 127.12 113.008 125.957 107.196 125.837 97.54 126.478 94.803 126.077 88.868 127 88.929 131.411 86.5 139.111 87.207 142.8 88.253 144.163 92.128 142.359 96.556 137.787 99.969 135.943 103.752 135.943 107.011 137.146 113.438 126.639 112.946 126.037 106.12 125.877 89.145 126.839 88.806 132.293 86.685 138.389 86.961 142.078 88.345 144.043 90.682 143.201 93.419 141.276"><title>2020-09-13 6.3km</title></polyline><polyline fill="none" stroke="#4dd2ff" stroke-linecap="round" stroke-linejoin="round" stroke-width=".5" points="133.317 138.537 136.044 136.619 138.22 135.939 140.948 136.099 144.411 137.258 151 126.667 150.356 126.148 144.687 126.028 126.758 126.707 126.299 127.307 126.299 131.143 124 138.897 124.613 142.573 125.869 144.012 128.995 142.813 133.286 138.457 136.81 136.299 139.783 135.819 143.4 137.218 144.288 137.098 150.877 126.867 150.019 126.028 143.4 126.028 126.574 126.947 126.176 131.943 124.245 137.458 124 139.976 124.552 142.534 125.103 143.692 125.869 143.892 129.333 142.494 132.459 139.736 133.286 138.297 137.975 135.74 140.519 135.859 143.522 137.258 144.35 137.098 150.847 127.107 149.989 125.948 126.911 126.667 126.36 127.307 126.084 132.263 124.061 138.857 124.521 142.534 125.532 144.052"><title>2020-09-15 6.1km</title></polyline><polyline fill="none" stroke="red" stroke-linecap="round" stroke-linejoin="round" stroke-width=".5" points="170.755 138.266 174.817 135.797 178.971 135.996 181.781 137.031 188.256 126.078 164.188 126.636 163.852 131.654 162.019 136.235 161.531 139.501 161.928 141.572 163.149 143.683 166.814 142.369 171.824 137.111 174.786 135.598 177.321 135.598 181.933 136.832 188.5 126.476 187.95 125.76 164.218 126.476 163.791 131.615 161.5 138.704 161.805 141.134 163.088 143.723 166.57 142.488 171.182 137.788 174.481 135.637 178.818 135.916 181.964 137.071 188.378 126.636 188.072 125.839 186.393 125.76 164.188 126.596 163.73 131.694 161.683 138.187 161.867 141.014 162.936 143.683 167.395 141.891 170.999 137.948 174.511 135.717 178.726 135.837 181.781 137.071 188.256 126.596 187.828 125.799 186.973 125.799 164.218 126.516 163.76 131.336 161.592 138.545 162.08 141.97 163.271 143.683 167.15 141.93 170.632 138.903 171.457 137.549 174.603 135.717 177.169 135.478 181.597 137.031 188.469 126.715 188.195 125.999 187.034 125.68 164.157 126.556 163.699 132.093 161.592 139.421 162.936 143.723 167.822 141.652 171.549 137.43 174.389 135.757 177.321 135.637 181.689 136.952 188.5 126.476 187.675 125.76 164.249 126.476 163.791 132.053 162.233 135.956 161.622 139.381 162.294 142.608 163.516 143.723 167.609 141.771 170.785 138.147 173.87 136.076 177.169 135.438 181.903 136.952 188.195 126.835 187.889 125.799 185.476 125.72 164.188 126.676 163.821 131.376 161.775 138.107 161.897 140.895 162.874 143.603 165.257 143.125 167.364 141.891 172.526 136.832 174.572 135.677 177.107 135.677 181.781 137.031 188.469 126.476 187.889 125.839 184.346 125.76 164.493 126.317 163.974 126.875 163.607 132.132 161.622 138.027 161.867 141.572 162.6 143.444 163.424 143.563 167.792 141.572 171.213 137.748 174.542 135.478 177.688 135.478 180.742 136.753 181.964 136.633 188.439 126.476 187.553 125.72 164.279 126.397 163.669 132.212 161.622 138.903 162.05 142.09 163.363 143.444 166.387 142.687 171.824 137.151 174.267 135.757 177.046 135.359 180.712 136.792 181.933 136.713 188.439 126.556 187.675 125.72 164.127 126.516 163.577 132.571 161.653 138.585 161.836 141.014 162.844 143.563 165.165 143.006 168.678 140.775 170.693 137.987 174.542 135.518 176.894 135.398 181.781 137.031 188.5 126.238 187.523 125.72 164.157 126.676 163.73 131.774 161.653 139.541 162.264 142.289 163.485 144.32 167.609 142.687 171.793 138.306 173.992 137.151"><title>2020-09-16 23.6km</title></polyline><polyline fill="none" stroke="#4dd2ff" stroke-linecap="round" stroke-linejoin="round" stroke-width=".5" points="21.526 167.961 23.659 166.331 26.371 165.894 29.51 166.451 31.613 167.524 38.5 156.834 37.129 156.039 31.43 155.999 14.182 156.714 13.907 161.682 12.231 165.855 11.5 169.987 12.567 173.604 13.694 174.041 18.082 171.696 20.703 168.557 23.964 166.252 27.682 165.934 31.613 167.444 38.47 156.992 37.677 156.118 34.051 155.959 14.151 156.873 13.968 161.722 11.652 169.073 12.292 172.769 13.359 174.041 17.229 172.133 19.819 170.067 21.069 168.279 23.933 166.292 26.585 165.894 31.887 167.166 38.47 156.754 37.982 156.158 36.428 155.959 14.395 156.834 13.786 162.755 11.683 169.073 12.17 172.332 13.481 174.001"><title>2020-09-18 6.1km</title></polyline><polyline fill="none" stroke="#4dd2ff" stroke-linecap="round" stroke-linejoin="round" stroke-width=".5" points="58.61 168.203 61.417 166.373 63.797 165.895 69.288 167.367 75.878 157.302 75.786 156.546 75.207 155.949 52.02 156.784 51.288 162.275 49.336 167.049 49.031 169.953 50.617 174.011 52.234 173.733 54.675 172.34 58.366 168.521 61.508 166.492 64.712 165.935 69.258 167.367 76 156.546 75.298 156.068 72.949 156.029 51.807 156.665 51.258 162.036 49 168.839 49.519 172.141 50.892 174.051 54.675 172.34 58.427 168.442 61.569 166.373 64.01 166.015 69.258 167.208 75.908 156.904 75.634 156.188 74.383 156.029 51.929 156.705 51.41 157.262 51.471 161.002 49.488 167.089 49.183 170.391"><title>2020-09-20 6.0km</title></polyline><polyline fill="none" stroke="#4dd2ff" stroke-linecap="round" stroke-linejoin="round" stroke-width=".5" points="95.93 168.285 101.305 165.801 107.203 167.083 113.439 156.628 112.302 156.027 89.049 156.949 88.773 161.195 86.5 169.006 86.869 171.89 88.005 173.973 90.125 173.652 92.92 172.05 95.807 168.445 99.677 165.961 102.104 165.641 106.22 167.243 107.08 166.963 113.5 156.909 112.578 156.067 89.48 156.708 88.988 157.309 88.65 162.116 86.531 168.846 86.838 171.89 88.128 173.892 90.616 173.332 92.766 171.97 96.452 167.804 99.862 165.921 102.442 165.801 106.742 167.323 113.377 156.588 112.794 156.027 89.387 156.748 88.865 157.309 88.589 162.356 86.746 167.484 86.531 170.207"><title>2020-09-22 6.0km</title></polyline><polyline fill="none" stroke="#4dd2ff" stroke-linecap="round" stroke-linejoin="round" stroke-width=".5" points="133.776 168.257 137.178 166.099 138.741 165.859 144.135 167.578 150.969 156.707 150.387 156.068 146.434 155.828 136.872 156.707 126.605 156.867 126.207 162.382 124 168.177 124.398 172.214 125.686 174.052 129.854 172.214 133.102 168.697 135.86 166.659 139.538 166.019 144.288 167.458 151 156.907 150.142 156.068 126.605 156.747 126.053 162.622 124.031 168.937 124.521 172.454 125.594 174.012 128.965 172.813 135.86 166.619 140.182 165.939 144.166 167.338 150.908 156.947 150.05 156.108 144.779 156.108 126.666 156.947 126.145 162.422 124.368 166.938 124 169.656 124.582 172.613 125.716 174.172"><title>2020-09-26 6.1km</title></polyline><polyline fill="none" stroke="#4dd2ff" stroke-linecap="round" stroke-linejoin="round" stroke-width=".5" points="188.472 162.025 188.482 162.031 188.472 162.037 188.5 162.061 188.348 162.085 188.071 162.097 188.048 162.103 188.044 162.115 188.025 162.103 187.97 162.121 187.896 162.121 187.79 162.139 187.73 162.127 187.67 162.127 187.633 162.145 187.362 162.151 187.246 162.181 187.219 162.181 187.113 162.224 187.034 162.224 187.034 162.242 186.993 162.248 186.868 162.254 186.795 162.266 186.583 162.272 186.467 162.26 186.338 162.254 186.251 162.266 185.993 162.272 185.864 162.296 185.799 162.29 185.688 162.32 185.679 162.344 185.601 162.326 185.37 162.308 185.2 162.314 185.172 162.326 185.112 162.32 185.057 162.332 185.029 162.32 184.914 162.35 184.831 162.338 184.78 162.35 184.661 162.362 184.601 162.35 184.458 162.356 184.403 162.368 184.352 162.386 184.209 162.374 184.158 162.392 184.048 162.392 183.978 162.41 183.9 162.404 183.859 162.428 183.813 162.434 183.674 162.434 183.55 162.446 183.508 162.434 183.471 162.44 183.356 162.428 183.329 162.422 183.315 162.404 183.292 162.392 183.255 162.386 183.181 162.398 183.098 162.428 182.983 162.428 182.932 162.446 182.78 162.458 182.789 162.47 182.739 162.47 182.716 162.488 182.697 162.488 182.637 162.512 182.444 162.548 182.163 162.572 182.103 162.584 181.688 162.626 181.305 162.638 181.241 162.656 181.199 162.65 181.176 162.668 181.061 162.68 180.955 162.71 180.651 162.74 180.568 162.782 180.531 162.764 180.471 162.758 180.388 162.758 180.323 162.764 180.305 162.776 180.231 162.77 180.199 162.782 180.176 162.782 180.162 162.794 180.098 162.825 180.093 162.819 180.075 162.776 180.065 162.776 179.922 162.788 179.881 162.8 179.858 162.794 179.83 162.807 179.697 162.807 179.641 162.831 179.6 162.837 179.577 162.843 179.586 162.849 179.572 162.861 179.54 162.861 179.498 162.873 179.439 162.867 179.439 162.879 179.323 162.903 179.157 162.903 179.097 162.909 178.964 162.897 178.789 162.903 178.733 162.915 178.678 162.933 178.581 162.945 178.563 162.957 178.457 162.957 178.305 162.969 178.189 162.969 178.037 162.993 177.982 163.017 177.941 163.017 177.839 163.017 177.687 163.041 177.235 163.077 176.881 163.089 176.811 163.101 176.682 163.095 176.641 163.101 176.452 163.095 176.355 163.113 176.281 163.113 176.258 163.125 176.157 163.113 176.069 163.125 176.046 163.119 175.89 163.125 175.839 163.137 175.807 163.137 175.784 163.143 175.728 163.143 175.65 163.155 175.502 163.161 175.489 163.179 175.429 163.203 175.401 163.191 175.332 163.203 175.29 163.191 175.235 163.197 175.217 163.215 175.157 163.227 175.134 163.221 175.115 163.233 175.028 163.209 174.82 163.221 174.719 163.203 174.599 163.221 174.493 163.203 174.392 163.221 174.263 163.215 174.138 163.233 174.041 163.221 173.848 163.245 173.774 163.215 173.58 163.233 173.35 163.197 173.202 163.215 172.903 163.173 172.557 163.161 172.405 163.167 172.082 163.197 172.032 163.179 171.953 163.179 171.903 163.191 171.824 163.185 171.801 163.197 171.658 163.197 171.631 163.191 171.456 163.197 171.396 163.191 171.363 163.197 171.271 163.185 171.013 163.173 170.939 163.185 170.824 163.185 170.746 163.209 170.677 163.197 170.644 163.203 170.571 163.245 170.446 163.203 170.225 163.197 170.064 163.179 169.916 163.179 169.87 163.161 169.626 163.179 169.561 163.203 169.409 163.203 169.331 163.197 169.229 163.209 169.151 163.191 169.082 163.203 169.05 163.197 168.879 163.203 168.824 163.203 168.667 163.215 168.644 163.221 168.593 163.215 168.538 163.227 168.483 163.221 168.363 163.233 168.34 163.245 168.28 163.233 168.142 163.227 168.063 163.215 167.727 163.245 167.543 163.233 167.515 163.239 167.381 163.221 166.925 163.269 166.874 163.263 166.828 163.275 166.662 163.281 166.446 163.275 166.261 163.299 166.169 163.287 166.151 163.299 166.086 163.299 166.045 163.317 165.962 163.305 165.939 163.311 165.92 163.299 165.892 163.299 165.865 163.305 165.809 163.353 165.763 163.365 165.68 163.359 165.625 163.341 165.602 163.353 165.574 163.353 165.542 163.341 165.464 163.335 165.372 163.347 165.353 163.365 165.326 163.365 165.224 163.359 165.178 163.371 165.15 163.365 165.127 163.371 165.054 163.353 164.966 163.353 164.8 163.377 164.671 163.371 164.473 163.395 164.307 163.383 164.081 163.401 163.98 163.426 163.781 163.432 163.699 163.456 163.643 163.462 163.413 163.432 163.325 163.444 163.233 163.474 163.076 163.474 162.947 163.498 162.791 163.51 162.661 163.498 162.546 163.522 162.33 163.522 162.316 163.54 162.191 163.546 162.15 163.564 162.136 163.582 162.136 163.624 162.145 163.666 162.118 163.702 161.947 163.75 161.795 163.75 161.758 163.768 161.753 163.858 161.772 163.924 161.726 164.039 161.721 164.063 161.744 164.153 161.721 164.279 161.717 164.435 161.735 164.628 161.73 164.85 161.74 164.91 161.74 164.97 161.749 165.006 161.758 165.066 161.758 165.132 161.744 165.216 161.758 165.259 161.753 165.349 161.777 165.457 161.781 165.601 161.79 165.619 161.781 165.799 161.795 165.841 161.8 165.92 161.813 165.986 161.823 166.22 161.832 166.25 161.956 166.472 162.025 166.575 162.039 166.677 162.062 166.743 162.058 166.875 162.072 166.947 162.072 167.001 162.085 167.049 162.085 167.158 162.104 167.254 162.085 167.494 162.095 167.566 162.09 167.578 162.09 167.608 162.104 167.62 162.099 167.638 162.108 167.68 162.095 167.734 162.099 167.897 162.09 167.927 162.03 167.951 161.952 167.945 161.836 167.957 161.703 167.939 161.689 167.969 161.666 167.975 161.634 167.963 161.606 167.939 161.611 167.903 161.588 167.897 161.583 167.879 161.565 167.861 161.56 167.849 161.565 167.584 161.56 167.524 161.546 167.512 161.555 167.434 161.569 167.416 161.56 167.422 161.541 167.374 161.541 167.344 161.514 167.332 161.5 167.338"><title>2020-10-10 6.1km</title></polyline><polyline fill="none" stroke="#4dd2ff" stroke-linecap="round" stroke-linejoin="round" stroke-width=".5" points="11.513 198.149 11.5 198.116 11.5 198.133 11.55 198.154 11.563 198.138 11.685 198.144 11.824 198.127 11.857 198.133 11.895 198.127 11.958 198.133 12.08 198.127 12.11 198.105 12.147 198.116 12.16 198.127 12.16 198.149 12.177 198.204 12.168 198.379 12.185 198.626 12.185 198.714 12.202 198.724 12.286 198.697 12.362 198.686 12.509 198.714 12.551 198.708 12.572 198.659 12.58 198.637 12.576 198.593 12.589 198.566 12.589 198.352 12.601 198.297 12.606 198.226 12.601 198.116 12.614 197.985 12.606 197.963 12.614 197.848 12.606 197.826 12.614 197.787 12.606 197.749 12.61 197.722 12.606 197.678 12.606 197.623 12.589 197.59 12.585 197.563 12.564 197.53 12.559 197.508 12.551 197.497 12.547 197.469 12.53 197.426 12.479 197.398 12.471 197.376 12.433 197.343 12.383 197.267 12.353 197.201 12.332 197.141 12.328 197.086 12.324 197.069 12.332 196.998 12.328 196.965 12.311 196.932 12.32 196.823 12.307 196.74 12.316 196.719 12.32 196.658 12.316 196.62 12.32 196.592 12.32 196.565 12.324 196.505 12.32 196.412 12.324 196.39 12.311 196.34 12.316 196.296 12.307 196.214 12.311 196.148 12.299 196.066 12.303 195.99 12.29 195.715 12.29 195.622 12.278 195.546 12.282 195.452 12.273 195.414 12.278 195.392 12.278 195.244 12.269 195.151 12.29 195.08 12.294 194.981 12.286 194.954 12.311 194.899 12.332 194.882 12.564 194.871 12.727 194.833 12.858 194.828 12.984 194.811 13.055 194.789 13.202 194.784 13.249 194.767 13.316 194.767 13.413 194.751 13.644 194.74 13.833 194.745 13.9 194.74 14.014 194.745 14.106 194.729 14.178 194.74 14.388 194.745 14.451 194.723 14.628 194.723 14.741 194.707 14.808 194.712 14.96 194.707 15.014 194.685 15.212 194.68 15.384 194.68 15.464 194.663 15.519 194.669 15.535 194.663 15.645 194.658 15.847 194.663 16.002 194.63 16.053 194.641 16.069 194.63 16.116 194.625 16.225 194.647 16.322 194.641 16.368 194.63 16.372 194.647 16.607 194.647 16.641 194.63 16.683 194.63 16.746 194.625 16.977 194.581 17.108 194.564 17.204 194.564 17.23 194.559 17.301 194.564 17.351 194.559 17.377 194.57 17.423 194.548 17.541 194.537 17.629 194.548 17.734 194.553 17.814 194.548 17.856 194.537 17.898 194.532 17.982 194.553 18.016 194.537 18.07 194.526 18.163 194.532 18.314 194.526 18.356 194.532 18.381 194.521 18.461 194.526 18.533 194.543 18.655 194.543 18.705 194.532 18.827 194.543 18.945 194.537 19.016 194.521 19.243 194.548 19.369 194.559 19.491 194.537 19.516 194.548 19.571 194.537 19.79 194.548 19.811 194.537 19.869 194.532 19.949 194.537 20.033 194.521 20.21 194.537 20.227 194.543 20.517 194.543 20.555 194.559 20.559 194.57 20.592 194.586 20.706 194.564 21.101 194.548 21.189 194.532 21.337 194.543 21.479 194.521 21.555 194.521 21.606 194.504 21.711 194.504 21.774 194.515 21.883 194.504 21.938 194.51 22.001 194.499 22.139 194.504 22.202 194.526 22.253 194.51 22.434 194.521 22.585 194.515 22.635 194.466 22.665 194.455 22.673 194.438 22.766 194.499 22.829 194.493 22.909 194.51 22.989 194.504 23.123 194.526 23.148 194.515 23.169 194.521 23.279 194.493 23.333 194.504 23.358 194.515 23.506 194.51 23.594 194.537 23.695 194.515 23.745 194.521 23.77 194.51 23.796 194.488 23.842 194.482 23.888 194.493 23.913 194.51 23.93 194.493 23.981 194.488 24.002 194.477 24.031 194.477 24.052 194.493 24.115 194.471 24.224 194.46 24.241 194.466 24.309 194.471 24.321 194.488 24.43 194.51 24.46 194.499 24.594 194.482 24.645 194.488 24.699 194.477 24.851 194.499 24.973 194.51 25.04 194.493 25.2 194.499 25.288 194.488 25.389 194.493 25.536 194.471 25.612 194.482 25.725 194.482 25.847 194.493 25.99 194.482 26.087 194.466 26.238 194.46 26.335 194.444 26.427 194.455 26.654 194.422 26.793 194.416 26.969 194.395 27.053 194.389 27.133 194.356 27.184 194.362 27.28 194.334 27.777 194.307 27.882 194.296 28.033 194.257 28.26 194.247 28.369 194.23 28.495 194.225 28.546 194.214 28.626 194.214 28.739 194.203 28.748 194.23 28.769 194.247 28.844 194.225 29.105 194.181 29.244 194.175 29.281 194.164 29.311 194.109 29.357 194.115 29.508 194.077 29.588 194.088 29.626 194.088 29.735 194.066 29.786 194.066 29.908 194.033 29.958 194.038 30.025 194.022 30.08 194.027 30.156 194.022 30.236 194.005 30.337 194.005 30.496 193.978 30.538 193.961 30.778 193.929 30.887 193.934 30.917 193.945 30.933 193.94 30.933 193.951 30.942 193.956 31.106 193.901 31.211 193.885 31.261 193.885 31.434 193.841 31.564 193.852 31.703 193.83 31.812 193.83 31.947 193.846 32.031 193.835 32.237 193.83 32.367 193.819 32.451 193.797 32.615 193.792 32.749 193.764 32.758 193.753 32.884 193.726 33.128 193.731 33.262 193.709 33.351 193.715 33.46 193.709 33.59 193.726 33.754 193.687 33.784 193.665 33.834 193.66 33.884 193.665 33.91 193.682 33.981 193.693 34.183 193.687 34.246 193.693 34.263 193.682 34.313 193.682 34.422 193.698 34.498 193.682 34.519 193.671 34.599 193.655 34.624 193.66 34.809 193.649 34.944 193.649 35.33 193.605 35.385 193.611 35.478 193.6 35.557 193.611 35.705 193.594 35.738 193.6 35.81 193.594 35.906 193.572 36.133 193.572 36.201 193.55 36.419 193.556 36.528 193.528 36.558 193.534 36.579 193.517 36.604 193.517 36.646 193.507 36.751 193.507 36.856 193.523 36.882 193.512 36.987 193.512 37.033 193.501 37.155 193.512 37.172 193.507 37.18 193.463 37.226 193.452 37.436 193.446 37.487 193.463 37.596 193.468 37.588 193.474 37.6 193.446 37.575 193.391 37.567 193.337 37.588 193.287 37.584 193.134 37.567 193.106 37.563 193.068 37.546 193.03 37.537 193.002 37.542 192.98 37.508 192.92 37.512 192.904 37.466 192.849 37.466 192.832 37.445 192.805 37.436 192.756 37.441 192.739 37.424 192.712 37.42 192.684 37.357 192.608 37.34 192.52 37.369 192.492 37.373 192.481 37.39 192.476 37.491 192.449 37.537 192.46 37.71 192.388 37.743 192.361 37.769 192.361 37.819 192.333 37.84 192.268 37.924 192.246 37.933 192.251 38.038 192.213 38.096 192.18 38.096 192.164 38.109 192.147 38.134 192.147 38.197 192.092 38.214 192.098 38.218 192.087 38.256 192.081 38.273 192.065 38.281 192.048 38.277 192.032 38.286 192.027 38.277 192.01 38.269 191.961 38.298 191.944 38.29 191.922 38.332 191.889 38.336 191.862 38.361 191.846 38.378 191.791 38.378 191.763 38.391 191.747 38.454 191.692 38.479 191.676 38.492 191.654 38.487 191.637 38.5 191.621 38.5 191.604 38.487 191.604 38.45 191.577 38.416 191.566 38.382 191.566 38.374 191.55 38.361 191.55 38.374 191.528 38.374 191.506 38.361 191.5 38.361 191.484 38.378 191.44 38.378 191.407 38.391 191.396 38.399 191.374 38.391 191.358 38.399 191.336 38.416 191.33 38.45 191.308 38.471 191.308 38.496 191.276"><title>2020-10-10 7.1km</title></polyline><polyline fill="none" stroke="#4dd2ff" stroke-linecap="round" stroke-linejoin="round" stroke-width=".5" points="58.173 198.489 61.17 196.495 64.044 195.818 69.334 197.173 75.969 186.806 75.083 186.008 67.897 186.008 51.538 186.925 51.049 192.628 49.061 198.051 49.275 201.44 50.315 203.992 54.168 202.676 56.767 200.523 58.448 198.21 62.852 195.698 65.695 195.897 69.059 197.293 76 186.287 65.328 186.048 62.179 186.686 59.06 186.327 51.569 186.686 50.988 192.747 49 199.127 49.367 202.078 50.773 203.872 54.565 202.237 58.693 197.971 62.515 195.857 64.503 195.738 69.273 197.054 75.694 187.005 75.388 186.168 74.165 186.048 51.538 186.846 51.263 191.312 49.092 198.33 49.734 202.756"><title>2020-10-10 6.1km</title></polyline><polyline fill="none" stroke="#ffb700" stroke-linecap="round" stroke-linejoin="round" stroke-width=".5" points="96.449 198.054 100.245 195.858 102.847 195.938 106.704 197.136 113.378 186.836 113.133 186.477 111.694 186.038 101.133 186.198 88.918 186.876 88.306 193.144 86.5 198.892 86.592 201.367 87.847 203.922 90.204 203.403 92.898 201.687 96.694 197.455 100.031 195.779 103.704 196.058 106.398 197.176 113.5 186.637 112.888 186.118 108.694 186.078 89.347 186.677 88.857 187.315 88.612 192.226 86.5 199.052 86.806 201.767 87.969 203.882 91.796 202.525 96.878 197.296 99.02 196.098 102.173 195.819 106.673 197.256 113.194 187.156 113.286 185.998 99.755 186.796 97.459 186.357 89.255 186.637 88.337 192.944 86.531 198.812 86.745 201.727 87.939 204.002 92.592 201.966 96.449 197.775 99.02 196.098 102.296 195.858 106.643 197.335 113.408 186.916 112.673 186.158 89.01 186.876 88.673 191.986 86.5 199.731 86.837 201.846 88.031 204.002 91.857 202.725 96.786 197.296 98.255 196.417 101.408 195.858 106.398 197.415 113.316 186.637 110.745 185.998 89.255 186.717 88.582 192.745 86.622 198.573 86.867 201.886 87.694 203.842"><title>2020-10-11 10.4km</title></polyline><polyline fill="none" stroke="#4dd2ff" stroke-linecap="round" stroke-linejoin="round" stroke-width=".5" points="124 197.833 124.043 197.811 124.166 197.811 124.234 197.794 124.366 197.789 124.404 197.783 124.434 197.756 124.489 197.767 124.523 197.761 124.57 197.761 124.595 197.789 124.612 197.861 124.617 197.999 124.651 198.144 124.655 198.221 124.668 198.254 124.668 198.371 124.685 198.387 124.723 198.387 124.778 198.437 124.897 198.437 124.906 198.421 124.944 198.41 125.012 198.421 125.076 198.415 125.08 198.404 125.071 198.382 125.08 198.327 125.071 198.216 125.08 198.16 125.076 198.105 125.097 197.983 125.084 197.883 125.093 197.844 125.089 197.811 125.097 197.789 125.089 197.772 125.097 197.767 125.089 197.756 125.084 197.733 125.097 197.506 125.084 197.417 125.097 197.367 125.067 197.312 125.054 197.19 124.952 197.057 124.889 197.002 124.88 196.985 124.88 196.963 124.872 196.957 124.838 196.896 124.821 196.857 124.825 196.752 124.808 196.691 124.795 196.674 124.804 196.641 124.791 196.541 124.799 196.442 124.812 196.408 124.804 196.325 124.799 196.176 124.795 196.159 124.782 195.932 124.787 195.876 124.774 195.571 124.778 195.499 124.765 195.388 124.77 195.355 124.761 195.338 124.765 195.233 124.757 195.2 124.761 195.166 124.77 195.155 124.761 195.117 124.757 194.95 124.765 194.795 124.778 194.745 124.795 194.595 124.791 194.546 124.799 194.523 124.816 194.518 125.123 194.496 125.288 194.479 125.331 194.462 125.454 194.462 125.526 194.446 125.573 194.451 125.722 194.446 125.816 194.429 125.913 194.435 125.952 194.424 126.045 194.424 126.117 194.412 126.313 194.412 126.402 194.396 126.683 194.401 126.811 194.385 126.942 194.396 127.066 194.39 127.095 194.385 127.202 194.379 127.257 194.368 127.304 194.374 127.444 194.351 127.55 194.357 127.618 194.346 127.64 194.357 127.729 194.357 127.823 194.34 127.895 194.351 128.005 194.335 128.32 194.335 128.363 194.318 128.609 194.29 128.856 194.302 129.005 194.263 129.23 194.274 129.417 194.241 129.511 194.246 129.574 194.218 129.668 194.224 129.71 194.213 129.757 194.224 129.966 194.218 130.174 194.23 130.284 194.218 130.361 194.196 130.425 194.235 130.586 194.235 130.659 194.235 130.744 194.218 130.786 194.202 130.867 194.207 130.943 194.196 131.101 194.213 131.165 194.202 131.305 194.202 131.373 194.213 131.441 194.202 131.492 194.213 131.586 194.196 131.751 194.218 131.853 194.202 131.977 194.213 132.062 194.207 132.211 194.224 132.283 194.207 132.364 194.213 132.602 194.191 132.661 194.196 132.687 194.191 132.797 194.196 132.819 194.191 133.023 194.191 133.15 194.174 133.333 194.191 133.452 194.185 133.482 194.191 133.826 194.157 133.962 194.174 134.145 194.18 134.264 194.174 134.392 194.191 134.549 194.191 134.694 194.174 134.902 194.18 134.945 194.174 134.97 194.185 135.047 194.174 135.183 194.18 135.259 194.163 135.378 194.169 135.421 194.157 135.468 194.169 135.548 194.163 135.591 194.169 135.655 194.157 135.808 194.163 135.876 194.152 136.088 194.163 136.246 194.157 136.28 194.174 136.411 194.157 136.497 194.135 136.662 194.13 136.735 194.119 136.798 194.13 136.866 194.119 136.986 194.135 137.296 194.113 137.453 194.124 137.526 194.141 137.755 194.146 137.802 194.157 137.87 194.152 137.908 194.135 138.053 194.157 138.172 194.13 138.389 194.13 138.461 194.146 138.525 194.146 138.567 194.135 138.657 194.13 138.712 194.119 138.788 194.113 138.822 194.102 139.184 194.102 139.269 194.085 139.469 194.069 139.532 194.052 139.813 194.035 139.907 194.008 140.017 194.002 140.106 193.986 140.277 193.98 140.489 193.947 140.515 193.952 140.561 193.947 140.834 193.886 140.931 193.886 141.038 193.864 141.263 193.864 141.408 193.841 141.416 193.869 141.403 193.858 141.467 193.858 141.48 193.847 141.518 193.852 141.603 193.836 141.956 193.797 142.096 193.753 142.237 193.753 142.305 193.731 142.381 193.725 142.424 193.708 142.479 193.714 142.581 193.681 142.709 193.675 142.87 193.642 142.926 193.647 143.015 193.642 143.125 193.62 143.253 193.614 143.329 193.592 143.406 193.592 143.512 193.57 143.585 193.581 143.716 193.564 143.793 193.564 143.942 193.525 144.146 193.525 144.38 193.487 144.507 193.487 144.52 193.492 144.516 193.498 144.524 193.509 144.537 193.487 144.533 193.503 144.796 193.492 144.835 193.475 145.281 193.414 145.421 193.381 145.519 193.392 145.574 193.376 145.723 193.392 145.944 193.365 145.966 193.376 146.029 193.365 146.208 193.387 146.378 193.359 146.416 193.359 146.45 193.348 146.501 193.354 146.557 193.337 146.603 193.348 146.693 193.331 146.91 193.331 147.143 193.309 147.16 193.315 147.488 193.276 147.603 193.27 147.683 193.254 147.811 193.259 148.151 193.232 148.223 193.248 148.309 193.237 148.436 193.243 148.5 193.237 148.525 193.22 148.525 193.209 148.534 193.204 148.534 193.209 148.542 193.209 148.568 193.22 148.598 193.226 148.653 193.209 148.678 193.198 148.819 193.204 148.895 193.193 149.014 193.209 149.053 193.187 149.078 193.187 149.227 193.198 149.274 193.187 149.393 193.193 149.418 193.182 149.474 193.187 149.499 193.165 149.546 193.176 149.648 193.165 149.72 193.132 149.771 193.148 149.865 193.154 149.89 193.132 149.933 193.148 150.188 193.143 150.324 193.126 150.341 193.121 150.362 193.104 150.371 193.065 150.366 192.96 150.371 192.932 150.383 192.893 150.422 192.86 150.43 192.838 150.426 192.821 150.413 192.738 150.388 192.672 150.388 192.638 150.392 192.616 150.371 192.583 150.345 192.5 150.307 192.422 150.281 192.394 150.269 192.344 150.247 192.228 150.256 192.117 150.213 192.023 150.209 191.984 150.307 191.967 150.515 191.868 150.558 191.868 150.613 191.823 150.634 191.823 150.694 191.762 150.864 191.668 150.898 191.64 150.919 191.64 150.945 191.624 150.94 191.646 151 191.563"><title>2020-10-12 6.8km</title></polyline><polyline fill="none" stroke="#4dd2ff" stroke-linecap="round" stroke-linejoin="round" stroke-width=".5" points="188.459 192.091 188.468 192.037 188.486 192.013 188.477 192.013 188.5 192.013 188.5 192.031 188.132 192.067 188.067 192.055 187.938 192.055 187.717 192.073 187.689 192.067 187.676 192.085 187.584 192.079 187.551 192.091 187.455 192.097 187.386 192.121 187.289 192.109 187.224 192.115 187.141 192.133 187.031 192.133 186.893 192.157 186.782 192.151 186.501 192.175 186.018 192.199 185.94 192.211 185.838 192.211 185.811 192.217 185.751 192.211 185.396 192.241 185.318 192.241 185.143 192.253 185.055 192.271 184.913 192.271 184.774 192.289 184.747 192.295 184.719 192.289 184.549 192.301 184.36 192.301 184.116 192.337 183.969 192.337 183.651 192.349 183.559 192.355 183.503 192.373 183.411 192.367 183.324 192.385 182.969 192.391 182.942 192.397 182.702 192.421 182.596 192.451 182.564 192.445 182.509 192.457 182.486 192.445 182.407 192.469 182.366 192.499 182.311 192.499 182.09 192.535 181.988 192.559 181.961 192.553 181.758 192.589 181.38 192.595 181.33 192.607 181.201 192.613 180.925 192.655 180.722 192.703 180.616 192.715 180.556 192.709 180.496 192.721 180.409 192.721 180.257 192.745 180.013 192.757 179.967 192.739 179.907 192.733 179.607 192.763 179.557 192.781 179.525 192.835 179.483 192.835 179.469 192.847 179.451 192.853 179.455 192.865 179.442 192.871 179.409 192.859 179.386 192.871 179.336 192.871 179.322 192.889 179.304 192.883 179.23 192.889 179.041 192.847 178.977 192.847 178.912 192.865 178.894 192.853 178.843 192.847 178.765 192.859 178.677 192.889 178.636 192.889 178.585 192.907 178.267 192.931 178.221 192.943 178.138 192.937 178.106 192.949 177.973 192.956 177.973 192.968 177.95 192.968 177.931 192.986 177.756 192.992 177.659 193.01 177.475 193.016 177.259 193.046 176.987 193.046 176.849 193.076 176.72 193.07 176.619 193.076 176.563 193.064 176.467 193.082 176.356 193.076 176.163 193.094 175.845 193.094 175.707 193.118 175.656 193.112 175.601 193.136 175.573 193.124 175.504 193.13 175.449 193.142 175.394 193.148 175.237 193.142 175.127 193.13 175.094 193.136 174.965 193.136 174.942 193.154 174.8 193.178 174.666 193.154 174.643 193.178 174.5 193.16 174.394 193.178 174.316 193.172 174.298 193.196 174.242 193.196 174.192 193.178 174.132 193.184 174.104 193.172 173.998 193.166 173.975 193.196 173.943 193.19 173.915 193.202 173.722 193.142 173.616 193.13 173.51 193.148 173.487 193.172 173.404 193.178 173.321 193.178 173.22 193.148 173.197 193.166 173.174 193.166 173.064 193.148 173.036 193.172 173.008 193.172 172.87 193.148 172.842 193.154 172.815 193.148 172.686 193.154 172.654 193.142 172.543 193.148 172.4 193.136 172.258 193.148 172 193.136 171.949 193.136 171.908 193.154 171.719 193.142 171.544 193.154 171.516 193.142 171.466 193.142 171.373 193.16 170.977 193.148 170.913 193.16 170.899 193.136 170.89 193.136 170.743 193.166 170.715 193.178 170.609 193.184 170.535 193.172 170.31 193.172 170.204 193.154 169.96 193.16 169.863 193.148 169.789 193.16 169.688 193.154 169.559 193.172 169.536 193.166 169.467 193.166 169.287 193.19 169.237 193.184 169.094 193.19 168.919 193.178 168.55 193.19 168.527 193.178 168.44 193.208 168.297 193.19 168.21 193.208 168.136 193.208 168.108 193.196 168.03 193.19 167.855 193.208 167.629 193.19 167.468 193.202 167.307 193.19 167.118 193.202 167.1 193.214 167.072 193.208 166.999 193.232 166.971 193.226 166.952 193.238 166.879 193.232 166.778 193.244 166.704 193.232 166.63 193.238 166.584 193.25 166.478 193.244 166.451 193.256 166.28 193.238 166.105 193.268 166.078 193.262 165.981 193.274 165.953 193.262 165.903 193.268 165.884 193.286 165.838 193.286 165.787 193.298 165.783 193.352 165.76 193.37 165.709 193.364 165.677 193.346 165.645 193.34 165.626 193.352 165.599 193.352 165.539 193.376 165.506 193.376 165.437 193.406 165.391 193.394 165.373 193.406 165.355 193.448 165.331 193.454 165.212 193.424 165.152 193.394 165.041 193.382 164.981 193.358 164.94 193.382 164.857 193.382 164.673 193.346 164.493 193.37 164.433 193.37 164.355 193.352 164.277 193.352 164.231 193.364 164.056 193.364 163.918 193.394 163.77 193.382 163.489 193.424 163.314 193.418 163.158 193.448 163.08 193.454 162.895 193.46 162.665 193.46 162.416 193.49 162.26 193.484 162.232 193.496 162.007 193.466 161.744 193.508 161.68 193.526 161.657 193.568 161.661 193.628 161.68 193.64 161.652 193.688 161.657 193.73 161.647 193.802 161.666 193.94 161.657 194.018 161.675 194.217 161.666 194.295 161.666 194.367 161.675 194.391 161.67 194.475 161.68 194.751 161.698 194.943 161.693 194.967 161.703 195.051 161.703 195.099 161.716 195.219 161.726 195.507 161.744 195.58 161.735 195.76 161.758 195.844 161.762 195.91 161.762 195.982 161.749 196.132 161.786 196.216 161.804 196.3 161.832 196.366 161.974 196.57 161.997 196.66 162.016 196.786 162.011 196.991 162.016 197.051 162.034 197.105 162.048 197.315 162.057 197.339 162.066 197.459 162.057 197.561 162.066 197.675 162.066 197.723 162.053 197.741 162.043 197.825 162.043 197.915 161.997 197.945 161.97 197.945 161.795 197.927 161.758 197.933 161.767 197.951 161.772 197.987 161.73 197.945 161.638 197.933 161.569 197.873 161.541 197.693 161.546 197.669 161.518 197.603 161.505 197.531 161.5 197.483 161.514 197.453 161.5 197.387 161.505 197.369"><title>2020-10-13 6.2km</title></polyline><polyline fill="none" stroke="#4dd2ff" stroke-linecap="round" stroke-linejoin="round" stroke-width=".5" points="11.5 227.881 11.508 227.903 11.618 227.914 11.69 227.908 11.812 227.886 11.905 227.881 12.014 227.892 12.094 227.875 12.124 227.881 12.145 227.897 12.162 227.947 12.153 228.018 12.158 228.04 12.158 228.09 12.166 228.128 12.162 228.172 12.17 228.337 12.166 228.474 12.2 228.485 12.238 228.469 12.339 228.491 12.444 228.485 12.495 228.496 12.567 228.485 12.596 228.469 12.596 228.419 12.605 228.408 12.596 228.381 12.6 228.353 12.605 228.15 12.613 228.079 12.605 228.013 12.605 227.798 12.596 227.782 12.6 227.765 12.588 227.633 12.592 227.611 12.588 227.551 12.592 227.457 12.605 227.413 12.592 227.369 12.592 227.309 12.571 227.254 12.508 227.177 12.487 227.166 12.444 227.106 12.436 227.111 12.428 227.1 12.356 226.968 12.339 226.913 12.331 226.82 12.322 226.781 12.326 226.721 12.305 226.572 12.314 226.501 12.305 226.457 12.314 226.314 12.305 226.204 12.309 226.094 12.305 225.973 12.288 225.858 12.293 225.83 12.284 225.671 12.288 225.528 12.272 225.138 12.276 225.088 12.272 225.028 12.263 225.011 12.272 224.989 12.267 224.901 12.288 224.802 12.276 224.709 12.28 224.676 12.284 224.665 12.309 224.654 12.381 224.637 12.546 224.61 12.659 224.61 12.765 224.599 12.858 224.577 12.963 224.571 13.009 224.555 13.182 224.544 13.237 224.533 13.262 224.538 13.33 224.533 13.418 224.544 13.511 224.538 13.781 224.5 14.051 224.5 14.097 224.511 14.215 224.494 14.439 224.511 14.679 224.483 15.113 224.483 15.185 224.467 15.257 224.461 15.375 224.456 15.45 224.467 15.518 224.45 15.581 224.461 15.606 224.445 15.754 224.45 16.045 224.417 16.34 224.412 16.378 224.417 16.386 224.423 16.386 224.428 16.412 224.428 16.572 224.406 16.631 224.412 16.728 224.401 16.833 224.395 16.956 224.368 17.238 224.351 17.322 224.362 17.348 224.362 17.373 224.346 17.664 224.346 17.715 224.357 17.74 224.346 17.799 224.357 17.925 224.335 18.035 224.34 18.107 224.329 18.351 224.335 18.423 224.34 18.444 224.335 18.516 224.34 18.651 224.329 18.752 224.346 18.844 224.324 18.992 224.324 19.047 224.313 19.414 224.318 19.578 224.329 19.861 224.324 19.907 224.313 20.063 224.313 20.126 224.324 20.274 224.307 20.35 224.318 20.708 224.296 20.885 224.313 21.071 224.313 21.142 224.296 21.201 224.307 21.252 224.302 21.555 224.307 21.572 224.296 21.678 224.302 21.724 224.296 21.876 224.307 22.163 224.291 22.289 224.291 22.365 224.285 22.39 224.274 22.424 224.285 22.55 224.28 22.673 224.291 22.698 224.28 22.723 224.285 22.816 224.269 22.943 224.291 22.968 224.28 22.985 224.291 23.04 224.28 23.141 224.296 23.351 224.291 23.432 224.307 23.554 224.285 23.604 224.296 23.693 224.302 23.752 224.291 23.828 224.302 23.904 224.285 23.954 224.263 24.001 224.269 24.14 224.263 24.279 224.242 24.612 224.258 24.684 224.247 24.713 224.258 24.726 224.247 24.777 224.242 24.928 224.274 25.021 224.274 25.282 224.247 25.451 224.253 25.557 224.242 25.679 224.258 25.982 224.247 26.025 224.253 26.134 224.242 26.159 224.253 26.311 224.225 26.522 224.214 26.568 224.22 26.826 224.192 26.927 224.192 27.163 224.143 27.264 224.143 27.559 224.104 27.597 224.11 27.694 224.093 27.939 224.077 28.044 224.044 28.175 224.033 28.217 224.011 28.322 223.994 28.394 224 28.605 223.978 28.723 223.983 28.816 223.972 28.866 223.983 28.993 223.95 29.191 223.945 29.208 223.928 29.229 223.934 29.262 223.917 29.284 223.89 29.381 223.884 29.397 223.868 29.431 223.862 29.452 223.868 29.524 223.857 29.553 223.835 29.591 223.846 29.693 223.829 29.735 223.846 29.882 223.813 30.013 223.802 30.076 223.78 30.144 223.785 30.215 223.774 30.308 223.747 30.413 223.752 30.662 223.725 30.738 223.725 30.877 223.697 30.932 223.708 31 223.703 31.08 223.686 31.101 223.692 31.202 223.67 31.303 223.67 31.379 223.648 31.51 223.648 31.531 223.637 31.556 223.648 31.775 223.615 31.864 223.62 31.885 223.637 31.876 223.642 31.889 223.631 31.885 223.637 31.893 223.642 31.927 223.642 32.011 223.637 32.096 223.615 32.193 223.62 32.319 223.604 32.526 223.571 32.644 223.571 32.838 223.538 32.994 223.549 33.053 223.538 33.167 223.543 33.188 223.532 33.289 223.521 33.58 223.499 33.626 223.505 33.715 223.488 33.824 223.488 33.845 223.483 34.006 223.477 34.044 223.466 34.086 223.472 34.103 223.461 34.145 223.472 34.225 223.472 34.377 223.455 34.49 223.461 34.609 223.439 35.072 223.417 35.152 223.406 35.38 223.395 35.473 223.389 35.498 223.378 35.755 223.362 35.81 223.345 35.852 223.351 35.861 223.351 35.856 223.362 35.878 223.34 35.873 223.345 35.865 223.334 35.856 223.34 35.861 223.329 35.861 223.334 35.848 223.334 35.878 223.334 35.865 223.351 35.865 223.345 35.894 223.362 36.029 223.367 36.046 223.378 36.228 223.367 36.278 223.345 36.48 223.334 36.548 223.318 36.771 223.329 36.847 223.312 37.007 223.307 37.033 223.318 37.096 223.312 37.206 223.318 37.429 223.285 37.598 223.285 37.653 223.263 37.669 223.241 37.657 223.208 37.657 223.186 37.648 223.147 37.653 223.114 37.636 223.049 37.631 223.01 37.653 222.961 37.64 222.911 37.644 222.884 37.627 222.768 37.631 222.746 37.615 222.68 37.543 222.565 37.543 222.532 37.526 222.482 37.454 222.334 37.463 222.301 37.442 222.268 37.433 222.213 37.395 222.141 37.395 222.125 37.433 222.108 37.492 222.103 37.505 222.114 37.526 222.114 37.691 222.081 37.838 222.048 37.927 222.004 38.011 221.949 38.137 221.861 38.319 221.691 38.34 221.691 38.344 221.707 38.378 221.691 38.39 221.674 38.399 221.63 38.424 221.603 38.454 221.559 38.479 221.537 38.475 221.515 38.5 221.504"><title>2020-10-13 6.9km</title></polyline><polyline fill="none" stroke="#4dd2ff" stroke-linecap="round" stroke-linejoin="round" stroke-width=".5" points="57.409 228.15 58.02 228.629 60.589 226.755 64.105 225.718 69.089 227.273 76 216.666 74.655 216.028 51.874 216.706 51.385 217.304 51.079 222.608 49.153 227.871 49.183 230.822 50.651 233.972 54.749 232.178 59.427 227.313 62.21 225.718 64.717 225.718 69.089 227.313 75.817 216.985 75.266 216.028 51.569 216.866 51.202 222.368 49.092 229.067 49.581 232.377 50.682 233.972 54.412 232.457 60.772 226.396 64.747 225.798 69.059 227.353 76 216.786 75.083 216.068 66.766 216.108 51.507 216.985 51.324 221.531 49 229.187 49.642 232.377 50.835 233.972 55.116 231.898 59.182 227.353 61.384 226.236 64.931 225.838 68.478 227.353 69.456 226.914 75.878 216.905 75.511 216.188 62.515 216.427 61.904 216.826"><title>2020-10-13 7.5km</title></polyline><polyline fill="none" stroke="#4dd2ff" stroke-linecap="round" stroke-linejoin="round" stroke-width=".5" points="113.495 222.104 113.5 222.098 113.477 222.127 113.437 222.133 113.171 222.151 112.888 222.157 112.802 222.168 112.654 222.157 112.397 222.204 112.294 222.198 112.222 222.204 112.199 222.215 112.055 222.233 112.033 222.227 111.934 222.239 111.911 222.233 111.727 222.262 111.704 222.251 111.605 222.262 111.529 222.262 111.484 222.268 111.452 222.292 111.371 222.292 111.245 222.303 111.124 222.292 111.052 222.298 110.921 222.292 110.746 222.309 110.516 222.309 110.012 222.362 109.8 222.362 109.616 222.374 109.593 222.386 109.53 222.386 109.454 222.397 109.341 222.403 109.238 222.397 108.99 222.415 108.788 222.421 108.711 222.438 108.657 222.433 108.626 222.444 108.495 222.438 108.482 222.433 108.387 222.421 108.288 222.444 107.901 222.48 107.401 222.591 107.203 222.615 107.005 222.644 106.735 222.667 106.402 222.673 106.281 222.703 106.173 222.703 106.065 222.732 105.498 222.767 105.327 222.796 105.318 222.785 105.309 222.796 105.304 222.791 105.255 222.802 105.102 222.802 104.989 222.826 104.926 222.832 104.895 222.843 104.841 222.838 104.782 222.849 104.602 222.873 104.503 222.896 104.386 222.908 104.291 222.914 104.084 222.949 104.021 222.943 103.913 222.949 103.621 222.99 103.522 222.984 103.36 223.002 103.333 222.996 103.261 223.019 103.103 223.025 103.081 223.043 103.058 223.037 102.91 223.061 102.5 223.102 102.176 223.119 102.113 223.131 102.041 223.125 101.879 223.125 101.758 223.149 101.663 223.154 101.402 223.131 101.316 223.143 101.051 223.143 100.92 223.154 100.664 223.149 100.56 223.178 100.358 223.166 100.25 223.19 100.164 223.178 100.088 223.184 99.962 223.172 99.674 223.184 99.575 223.172 99.503 223.178 99.408 223.166 99.291 223.172 99.228 223.166 99.156 223.184 99.066 223.178 99.044 223.19 98.927 223.201 98.909 223.213 98.855 223.207 98.837 223.225 98.81 223.225 98.792 223.237 98.688 223.254 98.625 223.237 98.603 223.242 98.553 223.219 98.445 223.213 98.418 223.219 98.373 223.219 98.251 223.201 98.112 223.207 98.067 223.196 97.59 223.184 97.473 223.196 97.234 223.196 97.194 223.207 97.063 223.196 96.834 223.201 96.627 223.184 96.343 223.19 96.312 223.184 96.276 223.201 96.231 223.213 96.06 223.219 95.97 223.213 95.902 223.219 95.794 223.201 95.61 223.19 95.587 223.201 95.411 223.207 95.326 223.196 95.186 223.196 94.903 223.225 94.795 223.213 94.687 223.219 94.61 223.213 94.475 223.225 94.295 223.219 94.192 223.231 93.926 223.231 93.467 223.248 92.842 223.231 92.657 223.237 92.324 223.278 92.22 223.272 91.748 223.301 91.568 223.289 91.424 223.307 91.271 223.313 91.181 223.336 90.987 223.366 90.947 223.383 90.812 223.395 90.708 223.383 90.618 223.389 90.591 223.383 90.393 223.377 90.281 223.401 90.182 223.389 89.561 223.436 89.38 223.424 89.07 223.465 89.034 223.477 88.948 223.477 88.431 223.512 88.206 223.512 87.742 223.559 87.679 223.554 87.634 223.559 87.553 223.554 87.409 223.577 87.405 223.571 87.4 223.559 87.364 223.554 87.328 223.612 87.333 223.642 87.319 223.677 87.337 223.712 87.333 223.777 87.292 224.07 87.301 224.158 87.292 224.293 87.297 224.41 87.315 224.557 87.31 224.604 87.328 224.751 87.346 225.173 87.355 225.255 87.378 225.731 87.373 225.813 87.396 225.971 87.391 226.024 87.414 226.177 87.522 226.406 87.535 226.417 87.612 226.546 87.634 226.623 87.639 226.664 87.63 226.722 87.63 226.805 87.639 226.975 87.661 227.075 87.675 227.221 87.697 227.298 87.675 227.456 87.684 227.497 87.666 227.679 87.67 227.744 87.661 227.785 87.666 227.837 87.657 227.861 87.643 227.878 87.612 227.896 87.427 227.89 87.337 227.902 87.288 227.89 87.238 227.867 87.22 227.849 87.216 227.826 87.22 227.785 87.211 227.714 87.198 227.679 87.193 227.638 87.198 227.544 87.184 227.421 87.18 227.391 87.184 227.391 87.153 227.368 87.153 227.356 87.175 227.339 87.171 227.298 87.148 227.262 86.982 227.239 86.932 227.251 86.919 227.233 86.914 227.245 86.856 227.239 86.77 227.262 86.716 227.268 86.689 227.256 86.545 227.274 86.5 227.268"><title>2020-10-14 6.2km</title></polyline><polyline fill="none" stroke="#4dd2ff" stroke-linecap="round" stroke-linejoin="round" stroke-width=".5" points="128.602 220.059 129.4 221.579 128.817 225.18 130.873 227.981 132.99 228.821 135.536 226.821 138.574 225.86 144.127 227.261 151 216.818 150.049 215.978 145.631 215.938 126.547 216.778 125.964 222.539 124 229.021 124.276 231.542 125.012 233.502 125.718 233.982 130.198 231.902 133.573 228.061 135.782 226.501 139.832 225.78 143.176 227.141 144.373 227.061 150.939 216.898 150.172 215.978 149.374 215.978 126.547 216.778 125.994 222.539 124 229.141 124.276 231.582 125.473 234.062 130.014 232.182 134.248 227.181 135.72 226.381 140.66 225.78 144.035 227.421 150.969 216.778 150.049 215.978 126.547 216.818 126.025 222.419 124.061 228.541 124.89 233.262"><title>2020-10-14 6.4km</title></polyline><polyline fill="none" stroke="#4dd2ff" stroke-linecap="round" stroke-linejoin="round" stroke-width=".5" points="188.5 222.096 188.468 222.084 188.454 222.084 188.436 222.066 188.418 222.084 188.367 222.156 188.358 222.144 188.363 222.132 188.34 222.114 188.354 222.114 188.372 222.054 188.271 222.072 188.129 222.072 188.042 222.084 187.951 222.084 187.932 222.096 187.717 222.09 187.717 222.102 187.671 222.108 187.552 222.102 187.36 222.126 187.305 222.12 187.154 222.126 186.825 222.15 186.696 222.144 186.564 222.174 186.559 222.162 186.499 222.18 186.385 222.192 186.33 222.21 186.229 222.21 186.046 222.245 185.808 222.251 185.767 222.257 185.735 222.251 185.552 222.251 185.515 222.263 185.19 222.269 184.728 222.323 184.572 222.323 184.494 222.347 184.403 222.341 184.215 222.353 184.037 222.359 184.018 222.347 183.744 222.383 183.648 222.371 183.533 222.389 183.396 222.395 183.387 222.383 183.332 222.401 183.268 222.401 183.194 222.418 183.167 222.412 183.094 222.424 183.066 222.412 182.865 222.436 182.746 222.46 182.672 222.46 182.654 222.478 182.531 222.484 182.32 222.532 182.068 222.58 181.88 222.592 181.844 222.586 181.789 222.604 181.656 222.604 181.583 222.627 181.336 222.639 181.198 222.669 181.079 222.669 180.924 222.711 180.754 222.729 180.608 222.735 180.585 222.747 180.443 222.741 180.118 222.806 179.921 222.789 179.779 222.806 179.729 222.8 179.66 222.818 179.61 222.818 179.55 222.836 179.491 222.842 179.463 222.854 179.427 222.848 179.175 222.86 178.658 222.92 178.534 222.944 177.953 222.997 177.733 223.033 177.573 223.045 177.316 223.075 177.097 223.081 177.037 223.093 176.968 223.087 176.946 223.093 176.845 223.099 176.653 223.087 176.369 223.111 176.263 223.105 176.209 223.117 176.195 223.105 175.856 223.123 175.792 223.117 175.476 223.123 175.375 223.147 175.288 223.135 175.128 223.147 175.069 223.141 174.927 223.159 174.789 223.147 174.638 223.165 174.501 223.153 174.478 223.141 174.327 223.159 174.263 223.153 174.094 223.159 174.048 223.177 174.011 223.171 173.819 223.165 173.718 223.212 173.695 223.218 173.682 223.236 173.627 223.242 173.581 223.272 173.526 223.272 173.457 223.248 173.389 223.266 173.357 223.254 173.238 223.242 173.027 223.177 172.958 223.177 172.899 223.165 172.771 223.171 172.661 223.153 172.487 223.153 172.313 223.153 172.267 223.141 172.134 223.153 172.002 223.141 171.988 223.153 171.869 223.135 171.512 223.165 171.306 223.153 170.903 223.183 170.88 223.177 170.66 223.177 170.482 223.153 170.276 223.171 170.056 223.159 169.461 223.188 169.191 223.177 168.998 223.177 168.774 223.188 168.651 223.188 168.513 223.212 168.248 223.23 168.065 223.206 167.817 223.224 167.685 223.242 167.566 223.242 167.465 223.272 167.369 223.278 167.323 223.296 167.236 223.29 167.163 223.254 167.099 223.248 167.03 223.248 166.993 223.26 166.819 223.278 166.774 223.278 166.751 223.266 166.691 223.272 166.568 223.254 166.508 223.254 166.352 223.266 166.27 223.29 166.174 223.284 166.101 223.308 166.032 223.314 166.014 223.326 165.922 223.338 165.899 223.35 165.844 223.344 165.799 223.356 165.689 223.356 165.634 223.338 165.501 223.362 165.483 223.374 165.304 223.374 165.249 223.391 165.217 223.374 165.162 223.38 165.13 223.374 165.08 223.385 164.979 223.385 164.933 223.403 164.901 223.397 164.796 223.391 164.599 223.445 164.498 223.409 164.411 223.415 164.251 223.451 164.224 223.469 164.1 223.439 164.004 223.433 163.977 223.421 163.913 223.433 163.807 223.439 163.757 223.427 163.697 223.445 163.629 223.433 163.574 223.451 163.436 223.457 163.203 223.481 162.85 223.487 162.64 223.475 161.912 223.523 161.894 223.535 161.862 223.559 161.866 223.576 161.862 223.588 161.852 223.636 161.862 223.666 161.885 223.702 161.88 223.732 161.885 223.964 161.862 224.048 161.885 224.179 161.875 224.358 161.898 224.567 161.898 224.663 161.894 224.729 161.907 224.848 161.903 224.914 161.921 225.057 161.912 225.105 161.926 225.254 161.921 225.308 161.935 225.355 161.93 225.403 161.939 225.475 161.935 225.528 161.944 225.63 161.939 225.761 161.953 225.815 161.949 225.898 161.962 226.006 161.958 226.072 161.972 226.173 161.99 226.227 162.077 226.376 162.155 226.495 162.2 226.65 162.214 226.734 162.228 226.943 162.232 226.955 162.232 227.056 162.246 227.098 162.255 227.17 162.251 227.194 162.264 227.253 162.264 227.271 162.246 227.271 162.237 227.319 162.26 227.498 162.26 227.558 162.269 227.635 162.264 227.719 162.251 227.743 162.242 227.85 162.228 227.868 162.219 227.916 162.2 227.946 162.168 227.946 162.049 227.928 162.031 227.916 161.88 227.916 161.798 227.892 161.756 227.826 161.743 227.755 161.72 227.707 161.688 227.57 161.679 227.414 161.683 227.391 161.692 227.385 161.683 227.385 161.688 227.373 161.674 227.343 161.679 227.307 161.669 227.295 161.573 227.295 161.5 227.277"><title>2020-10-15 6.2km</title></polyline><polyline fill="none" stroke="#4dd2ff" stroke-linecap="round" stroke-linejoin="round" stroke-width=".5" points="11.5 257.9 11.517 257.894 11.513 257.917 11.517 257.911 11.504 257.9 11.53 257.894 11.526 257.962 11.539 257.979 11.556 258.267 11.569 258.341 11.565 258.397 11.569 258.454 11.613 258.465 11.639 258.499 11.699 258.522 11.877 258.51 11.955 258.499 12.007 258.476 12.02 258.46 12.029 258.409 12.025 258.239 12.038 258.081 12.003 257.793 12.02 257.736 12.016 257.713 12.02 257.679 12.012 257.651 12.016 257.533 12.025 257.504 12.012 257.419 12.003 257.284 11.973 257.216 11.873 257.058 11.864 257.063 11.825 256.99 11.79 256.911 11.786 256.866 11.773 256.854 11.773 256.803 11.756 256.747 11.76 256.685 11.743 256.656 11.743 256.634 11.743 256.521 11.73 256.487 11.738 256.464 11.751 256.374 11.743 256.323 11.751 256.266 11.743 256.221 11.738 256.046 11.738 256.006 11.743 255.989 11.725 255.922 11.721 255.769 11.717 255.752 11.721 255.599 11.699 255.413 11.699 255.328 11.678 255.181 11.682 255.04 11.669 254.978 11.682 254.927 11.682 254.808 11.704 254.78 11.695 254.723 11.704 254.661 11.717 254.61 11.717 254.582 11.738 254.548 11.756 254.537 12.025 254.531 12.211 254.514 12.233 254.503 12.293 254.508 12.406 254.503 12.467 254.491 12.718 254.48 12.853 254.463 12.905 254.469 13.052 254.457 13.269 254.457 13.329 254.446 13.62 254.452 13.984 254.429 14.105 254.407 14.158 254.418 14.288 254.407 14.348 254.418 14.37 254.412 14.526 254.446 14.634 254.424 14.803 254.407 14.951 254.367 15.22 254.395 15.263 254.412 15.376 254.407 15.562 254.373 15.688 254.333 15.939 254.316 15.987 254.299 16.186 254.305 16.173 254.299 16.173 254.316 16.247 254.294 16.39 254.282 16.499 254.294 16.52 254.248 16.616 254.243 16.646 254.248 16.767 254.243 16.871 254.254 17.027 254.254 17.075 254.243 17.236 254.231 17.327 254.243 17.561 254.226 17.639 254.237 18.016 254.209 18.233 254.22 18.298 254.209 18.341 254.214 18.406 254.203 18.54 254.209 18.757 254.192 18.991 254.209 19.312 254.197 19.382 254.209 19.594 254.186 19.681 254.192 19.737 254.186 20.179 254.186 20.353 254.175 20.5 254.186 20.595 254.175 20.738 254.186 20.855 254.175 20.873 254.18 20.929 254.175 21.25 254.169 21.315 254.158 21.41 254.18 21.558 254.164 21.718 254.18 21.835 254.164 21.983 254.175 22.169 254.164 22.273 254.164 22.447 254.158 22.481 254.169 22.793 254.158 22.815 254.152 22.837 254.158 22.971 254.152 22.993 254.164 23.123 254.152 23.192 254.158 23.231 254.152 23.409 254.169 23.587 254.152 23.63 254.158 23.691 254.147 23.842 254.152 23.89 254.141 24.02 254.135 24.163 254.135 24.233 254.147 24.332 254.13 24.471 254.13 24.614 254.147 24.692 254.141 24.727 254.147 24.866 254.13 25.095 254.13 25.126 254.124 25.225 254.135 25.559 254.124 25.65 254.13 25.737 254.124 25.772 254.13 25.988 254.101 26.006 254.107 26.114 254.096 26.14 254.101 26.223 254.096 26.27 254.084 26.396 254.079 26.465 254.056 26.582 254.045 26.652 254.011 26.691 254.017 26.764 254.017 26.855 253.954 26.89 253.943 26.929 253.949 26.977 253.926 27.003 253.926 27.085 253.904 27.298 253.875 27.766 253.83 27.792 253.819 27.983 253.836 28.095 253.864 28.217 253.87 28.585 253.819 28.711 253.813 28.793 253.841 29.036 253.836 29.118 253.819 29.136 253.807 29.253 253.813 29.366 253.785 29.439 253.785 29.5 253.762 29.708 253.734 29.916 253.683 30.003 253.683 30.103 253.66 30.176 253.655 30.237 253.666 30.28 253.649 30.432 253.621 30.506 253.593 30.618 253.587 30.675 253.57 30.731 253.57 30.84 253.542 30.87 253.542 30.9 253.564 30.965 253.57 31.689 253.457 31.741 253.463 31.949 253.44 32.066 253.451 32.153 253.434 32.426 253.423 32.673 253.389 32.786 253.389 32.821 253.4 32.903 253.389 33.081 253.395 33.098 253.383 33.263 253.378 33.315 253.366 33.393 253.372 33.523 253.361 33.658 253.366 33.679 253.355 33.922 253.327 33.957 253.333 34.061 253.316 34.16 253.321 34.355 253.299 34.728 253.287 34.85 253.259 34.967 253.248 34.988 253.236 35.11 253.253 35.236 253.248 35.296 253.253 35.457 253.236 35.565 253.242 35.708 253.219 35.825 253.219 35.916 253.191 35.929 253.197 35.929 253.186 35.921 253.197 35.925 253.186 35.942 253.214 35.951 253.214 36.033 253.197 36.198 253.203 36.311 253.197 36.393 253.18 36.571 253.174 36.601 253.163 36.701 253.169 36.731 253.157 36.87 253.146 36.983 253.146 37.035 253.157 37.178 253.152 37.208 253.14 37.347 253.123 37.533 253.118 37.837 253.067 37.889 253.067 37.949 253.089 37.975 253.078 37.988 253.095 37.993 253.089 37.988 253.078 37.967 253.05 37.962 253.01 37.941 252.971 37.906 252.88 37.906 252.841 37.871 252.767 37.858 252.682 37.832 252.603 37.793 252.53 37.789 252.502 37.759 252.434 37.728 252.388 37.72 252.355 37.681 252.321 37.655 252.27 37.646 252.219 37.65 252.202 37.702 252.157 37.724 252.123 37.763 252.1 37.759 252.089 37.806 252.038 37.832 252.032 37.932 251.965 38.049 251.925 38.088 251.891 38.105 251.846 38.192 251.818 38.257 251.772 38.301 251.761 38.314 251.71 38.383 251.665 38.383 251.654 38.418 251.642 38.431 251.665 38.491 251.637 38.5 251.597 38.461 251.518 38.478 251.478"><title>2020-10-15 6.7km</title></polyline><polyline fill="none" stroke="#4dd2ff" stroke-linecap="round" stroke-linejoin="round" stroke-width=".5" points="54.878 250.709 54.694 250.19 54.357 249.751 54.296 249.311 54.173 249.631 53.959 249.591 53.745 249.791 53.714 250.31 53.898 250.669 54.173 251.068 54.357 251.587 54.296 251.707 54.327 252.146 54.173 252.665 54.235 252.904 54.02 253.783 54.02 254.022 53.837 254.341 53.837 254.661 53.776 254.9 53.867 255.539 54.235 255.978 54.357 256.298 54.602 256.577 55.031 257.216 55.061 257.375 55.673 258.134 55.827 258.174 56.684 258.174 57.02 258.413 57.388 258.174 57.48 258.294 57.541 258.493 57.724 258.613 58.031 258.453 58.061 258.294 58.245 258.094 58.704 257.735 58.98 257.216 59.224 257.096 59.5 257.016 59.806 256.777 60.173 256.777 60.724 256.457 60.969 256.497 61.52 256.258 61.949 256.218 62.531 255.858 63.082 255.739 63.296 255.858 63.694 255.858 64.153 255.739 64.52 255.819 65.01 255.858 65.286 256.058 65.959 256.138 66.296 256.337 66.602 256.377 66.724 256.497 67.429 256.777 67.918 257.136 68.837 257.136 69.204 257.216 69.265 257.136 69.296 256.936 69.541 256.697 70.061 255.819 70.582 255.22 71.439 253.942 71.5 253.583 71.684 253.463 71.959 252.825 72.265 252.545 72.296 252.385 72.449 252.066 73.551 250.549 73.98 249.87 74.041 249.671 74.224 249.471 74.439 249.112 74.776 248.633 75.663 247.156 75.816 246.996 75.847 246.836 75.939 246.637 75.847 246.477 75.265 245.998 74.194 246.118 73.704 246.038 73.52 246.078 72.878 246.038 72.541 246.118 71.224 245.958 70.337 246.078 69.847 245.958 69.388 246.078 69.265 246.038 67.52 246.238 66.816 246.198 65.684 246.317 65.316 246.238 64.337 246.357 63.908 246.277 62.684 246.397 62.286 246.317 61.765 246.517 61.031 246.317 60.633 246.357 60.449 246.437 59.378 246.477 59.041 246.637 58.49 246.677 57.816 246.517 57.357 246.637 57.173 246.597 56.867 246.677 56.163 246.677 56.041 246.597 55.735 246.597 55.429 246.477 55.214 246.517 55 246.677 54.755 246.757 54.449 246.677 53.745 246.637 53.622 246.717 53.224 246.717 52.827 246.757 51.694 246.757 51.541 246.876 51.327 247.276 51.327 247.675 51.388 247.954 51.327 248.234 51.357 249.311 51.418 249.551 51.357 250.509 51.265 250.669 51.265 251.068 51.204 251.507 51.082 251.866 51.082 252.146 51.051 252.345 50.959 252.425 50.929 252.785 50.714 253.184 50.592 253.583 50.469 253.743 50.316 254.541 50.071 255.02 49.98 255.3 49.888 255.419 49.888 255.739 49.551 256.337 49.276 257.375 49.153 257.655 49.092 258.094 49.153 258.214 49 258.972 49 259.81 49.153 260.968 49.306 261.407 49.337 261.767 49.765 262.804 49.888 263.323 50.041 263.643 50.286 263.882 50.561 264.042 51.051 263.962 51.327 263.882 51.418 263.922 51.847 263.842 52.184 263.683 52.429 263.483 53.071 263.244 53.531 262.924 53.806 262.844 54.48 262.246 55 262.046 55.398 261.727 55.582 261.327 56.224 260.689 56.653 260.369 56.99 259.89 57.357 259.611 57.571 259.292 57.633 259.132 57.847 258.892 57.939 258.493 58.643 257.894 58.98 257.735 58.98 257.415 59.224 257.176 59.622 256.936 59.837 256.777 60.51 256.657 60.878 256.337 61.276 256.377 61.765 256.218 62.163 255.978 62.316 255.779 62.439 255.739 62.745 255.938 63.204 255.858 63.602 255.898 63.847 255.819 64.306 255.938 64.949 256.018 65.286 256.178 65.592 256.138 65.745 256.218 65.867 256.178 66.541 256.417 67.796 257.096 68.041 257.176 68.622 257.296 69.112 257.256 69.265 257.136 69.449 256.896 69.51 256.697 69.602 256.617 69.939 256.058 70.367 255.18 70.582 254.98 70.673 254.701 70.857 254.501 71.01 254.182 71.378 253.743 71.592 253.304 72.48 252.146 72.571 251.946 73 251.228 73.306 250.868 74.041 249.83 74.194 249.391 74.806 248.633 75.143 247.954 75.908 246.956 76 246.637 75.571 246.238 75.296 246.078 73.673 246.038 72.296 246.118 71.378 246.038 70.582 246.118 69.969 246.038 69.112 246.198 68.531 246.158 67.918 246.238 67.276 246.198 66.878 246.317 66.541 246.317 66.082 246.397 65.959 246.357 65.5 246.317 64.949 246.517 64.612 246.517 64.031 246.357 63.633 246.357 63.449 246.477 62.347 246.437 61.735 246.557 60.939 246.397 60.847 246.477 59.684 246.437 59.255 246.597 58.735 246.517 58.031 246.597 57.786 246.517 57.357 246.517 57.235 246.597 55.612 246.597 54.969 246.717 54.388 246.677 52.98 246.757 51.724 246.717 51.541 246.836 51.418 247.036 51.357 248.992 51.265 249.391 51.327 249.631 51.296 250.19 51.327 250.509 51.143 251.627 51.173 251.946 50.99 252.385 50.959 252.625 50.622 253.423 50.531 253.862 50.408 254.182 50.286 254.661 50.041 255.18 49.918 255.659 49.612 256.298 49.612 256.537 49.49 256.817 49.459 257.016 49.276 257.296 49.122 257.934 49.122 258.533 49 259.092 49 259.731 49.092 260.489 49.337 261.527 49.796 262.844 50.041 263.443 50.347 263.842 50.5 263.922 51.051 263.842 51.327 263.723 51.418 263.603 51.571 263.643 52.306 263.403 52.582 263.363 53.194 263.204 53.316 263.044 53.439 263.044 53.531 262.884 53.653 262.884 54.082 262.525 54.327 262.445 54.48 262.246 55 261.767 55.122 261.846 55.306 261.767 55.612 261.527 55.765 261.327 56.041 261.128 56.194 260.808 56.714 260.25 56.806 259.97 57.112 259.531 57.571 259.172 57.847 259.012 58.061 258.573 58.153 258.573 58.337 258.333 58.429 258.014 58.888 257.775 58.918 257.375 59.041 257.256 59.531 257.016 60.082 256.856 60.388 256.856 60.449 256.777 60.51 256.577 60.663 256.417 60.878 256.337 61.245 256.298 61.888 256.098 61.918 255.779 62.071 255.659 62.531 255.699 63.082 255.858 63.541 255.779 63.908 255.819 64.122 255.779 64.551 255.898 65.653 255.978 66.878 256.417 67.245 256.617 67.796 257.096 68.224 257.335 68.439 257.415 69.173 257.375 69.327 257.256 69.786 256.417 69.939 256.018 70.49 255.06 70.918 254.461 71.01 254.222 71.378 253.783 71.867 253.024 72.633 251.667 72.878 251.387 72.969 251.188 73.122 251.028 73.52 250.349 74.684 248.912 75.541 247.395 75.816 247.076 76 246.677 75.786 246.557 75.633 246.317 75.296 246.078 74.745 246.158 73.827 246.038 73.367 246.118 73.276 246.038 73.031 246.038 72.786 246.118 72.296 246.038 71.653 246.158 71.561 246.078 71.347 246.118 70.98 245.998 69.908 246.078 69.357 246.238 68.837 246.198 68.745 246.118 68.102 246.277 67.49 246.317 66.847 246.238 66.449 246.357 66.204 246.317 65.684 246.317 65.255 246.437 65.163 246.517 64.765 246.557 63.847 246.517 63.51 246.557 63.327 246.677 62.531 246.517 62.469 246.437 62.408 246.517 61.949 246.637 61.765 246.597 61.582 246.437 61.153 246.357 60.847 246.397 60.418 246.517 60.051 246.477 58.949 246.517 58.704 246.437 58.306 246.517 58.092 246.437 57.969 246.517 57.663 246.477 57.388 246.597 56.714 246.637 55.98 246.597 55.49 246.677 55.184 246.796 54.755 246.677 54.449 246.717 53.929 246.597 53.592 246.717 53.01 246.637 51.847 246.757 51.571 246.916 51.48 247.196 51.418 247.675 51.48 247.994 51.48 248.513 51.357 249.032 51.388 249.351 51.357 249.751 51.418 250.549 51.173 251.268 50.745 252.026 50.714 252.345 50.745 252.904 50.653 253.104 50.653 253.343 50.592 253.503 50.561 253.942 49.888 255.3 49.827 255.699 49.612 256.098 49.612 256.298"><title>2020-10-15 6.5km</title></polyline><polyline fill="none" stroke="#ff9500" stroke-linecap="round" stroke-linejoin="round" stroke-width=".5" points="92.766 249.532 91.261 249.893 91.937 251.776 91.384 254.379 91.691 256.062 93.503 258.064 95.561 258.705 98.203 256.783 101.428 255.821 106.773 257.023 113.439 246.728 112.21 245.967 89.08 246.849 88.558 252.056 86.531 259.146 87.206 263.071 87.974 263.872 92.52 262.27 95.715 258.545 99.094 256.142 101.797 255.781 106.128 257.263 106.927 257.023 113.377 246.969 112.855 246.087 110.06 246.047 89.234 246.768 88.712 252.016 86.5 259.506 86.899 261.99 88.036 264.033 91.445 262.671 93.442 261.229 96.667 257.504 100.261 255.661 106.681 257.183 113.469 246.768 113.039 246.128 110.52 245.927 89.265 246.648 88.435 253.178 87.268 255.781 86.561 259.386 86.899 262.07 88.159 263.993 91.937 262.911 96.698 257.383 98.817 256.262 102.78 255.941 106.589 257.464 113.5 246.648 112.548 246.007 106.005 245.967 89.019 246.889 88.712 251.655 86.592 259.106 86.899 261.95 87.667 263.832 88.404 264.033 93.258 261.75 96.852 257.464 100.077 255.901 102.872 256.022 106.742 257.504 113.469 246.929 112.794 246.047 110.398 246.007 89.049 246.768 88.834 251.135 86.93 256.622 86.531 259.907 86.991 262.35 88.036 264.073 92.275 262.35 95.746 258.385 98.695 256.662 103.517 256.062 106.681 257.303 113.377 246.929 112.732 246.087 107.572 246.007 89.234 246.688 88.589 252.577 86.531 258.825 86.838 261.79 87.913 263.913"><title>2020-10-16 12.9km</title></polyline><polyline fill="none" stroke="#4dd2ff" stroke-linecap="round" stroke-linejoin="round" stroke-width=".5" points="132.827 251.212 132.671 253.406 133.503 254.537 134.717 255.057 136 254.13 137.821 253.406 138.705 253.383 141.133 254.152 145 248.34 144.514 247.865 124.243 248.476 124 250.104 124.329 257.047 124.746 257.499 126.809 257.454 129.254 258.087 130.624 258.064 132.202 257.522 136.416 253.836 138.393 253.338 139.277 253.406 141.514 254.559 143.647 256.843 145.954 258.607 148.191 256.481 149.249 254.559 151 252.569 147.948 249.629 146.162 248.318 145.486 248.386 144.653 247.865 133.468 248.001 124.277 248.476 124.035 249.539 124.329 253.903 124.087 255.667 124.728 262.135 130.936 261.727 130.919 260.665 130.087 258.607 130.52 258.584"><title>2020-10-18 6.6km</title></polyline></svg>