<?xml version="1.0" encoding="utf-8" ?>
<svg baseProfile="full" height="300mm" version="1.1" viewBox="0,0,200,300" width="200mm" xmlns="http://www.w3.org/2000/svg" xmlns:ev="http://www.w3.org/2001/xml-events" xmlns:xlink="http://www.w3.org/1999/xlink"><defs /><rect fill="#222222" height="300" width="200" x="0" y="0" /><text fill="#FFFFFF" style="font-size:12px; font-family:Arial; font-weight:bold;" x="10" y="20">Picked Over 5km Runs</text><text fill="#FFFFFF" style="font-size:4px; font-family:Arial" x="10" y="280">ATHLETE</text><text fill="#FFFFFF" style="font-size:9px; font-family:Arial" x="10" y="290">DuanFei</text><text fill="#FFFFFF" style="font-size:4px; font-family:Arial" x="120" y="280">STATISTICS</text><text fill="#FFFFFF" style="font-size:3px; font-family:Arial" x="120" y="285">Number: 25</text><text fill="#FFFFFF" style="font-size:3px; font-family:Arial" x="120" y="290">Weekly: 1.9</text><text fill="#FFFFFF" style="font-size:3px; font-family:Arial" x="141" y="285">Total: 193.3 km</text><text fill="#FFFFFF" style="font-size:3px; font-family:Arial" x="141" y="290">Avg: 7.7 km</text><text fill="#FFFFFF" style="font-size:3px; font-family:Arial" x="167" y="285">Min: 5.0 km</text><text fill="#FFFFFF" style="font-size:3px; font-family:Arial" x="167" y="290">Max: 24.0 km</text><polyline fill="none" points="23.325825138017535,33.422444465977605 23.727512040175498,32.658941957575735 30.3370874307584,32.51578508486273 33.84271857701242,33.39858503328287 36.50845892797224,32.61122300539864 41.36521874507889,34.30524253559997 38.99161432310939,61.86193815921433 35.9241870699916,64.20000000001164 14.342645325697958,56.54160676556057 17.446589569794014,32.42034714308102 34.5000244169496,32.94525555858854 36.54497591895051,34.44839880694053 41.438252727501094,34.32910191765404 39.02813131408766,61.694933251070324 37.7500366254244,63.38883714139229 35.595534150255844,64.10456915566465 14.598264263477176,56.23145086807199 17.702208507573232,32.110173684486654 29.35112867085263,32.68280143159791 41.65735467406921,34.5199769246974 39.210716269677505,60.90762351639569 38.15172352781519,63.245690594339976 35.85115308780223,64.1522845804866 14.74433222785592,56.23145086807199 17.702208507573232,32.253330693463795 21.609526556218043,31.800000000017462 23.289308146806434,32.53964456691756" stroke="#4dd2ff" stroke-linecap="round" stroke-linejoin="round" stroke-width="0.5"><title>2020-06-12 5.6km</title></polyline><polyline fill="none" points="59.735767216654494,32.80878413884784 73.22691748826765,32.85682141938014 77.45438964455388,34.4420486659219 76.05748580163345,54.71322599222185 74.32973631145433,63.16727275465382 72.52846556692384,64.20000000001164 70.54339168500155,63.983847991592484 55.69209819776006,59.03633890597848 50.50884972838685,56.39444174786331 51.060259140096605,49.789627653954085 53.633503060787916,32.28037369536469 73.4842418807093,33.0009332295449 77.52791089913808,34.2739187811967 75.28551262523979,61.55813464894891 73.0431143513415,63.983847991592484 70.2125460379757,63.839746592217125 58.66970902075991,59.97300762706436 50.47208910086192,56.41845906802337 52.75124800228514,35.40278959964053 53.412939296104014,32.376448369876016 54.58927937457338,31.79999999998836 65.39690384292044,32.20831767539494 68.92592407739721,33.14504499107716 73.74156627245247,32.80878413884784 77.67495340900496,34.51410431045224 75.35903388005681,60.933691369893495 74.44001819402911,62.95112022550893 72.52846556692384,64.10393245419255 63.88971811765805,62.11052602250129 50.32504659099504,56.274355126719456 52.310120473150164,40.80691725021461" stroke="#4dd2ff" stroke-linecap="round" stroke-linejoin="round" stroke-width="0.5"><title>2020-06-16 5.3km</title></polyline><polyline fill="none" points="95.51310992287472,33.401221435691696 100.19821602734737,32.529969351919135 107.04567879531533,33.11865339009091 113.10027745342813,35.12017295448459 110.72168512339704,62.2692560031428 108.81160340388305,63.893907030898845 106.97360023995861,64.1529087885865 86.8276439907495,56.47697081879596 89.56662909802981,32.71834833393223 94.14361736923456,31.800000000017462 111.62266706652008,34.3431135493156 113.06423817574978,34.95534229159239 113.20839528669603,37.75745477291639 111.80286345514469,53.48661349742906 110.72168512339704,61.63352128365659 108.70348557061516,64.03518073674059 106.07261829660274,63.823270160268294 86.89972254633904,56.47697081879596 89.20623632078059,34.15473529527662 89.85494331992231,32.64770622551441 94.75628509069793,32.17675853346009 107.80250362772495,33.3305794421467 113.02819889783859,34.908247804502025 110.90188151202165,60.809419290395454 110.07297812448815,62.95208111291868 107.80250362772495,64.20000000001164 86.79160471330397,56.21796433310374 89.35039343172684,35.732400565437274" stroke="#4dd2ff" stroke-linecap="round" stroke-linejoin="round" stroke-width="0.5"><title>2020-07-10 5.3km</title></polyline><polyline fill="none" points="132.4761073978152,32.34876867281855 136.16432659793645,31.847719043085817 147.70370548125356,33.350866163906176 149.42000550497323,34.25752376773744 147.0463990890421,61.6233596985694 146.0239224792458,63.38883714124677 143.43121393281035,64.20000000001164 131.41711376607418,60.215744063491 122.72606258187443,56.01672742186929 125.39180517196655,32.658941957663046 127.43675839202479,31.800000000017462 140.69243729882874,33.13613118568901 144.01548628113233,32.658941957663046 149.60259061376564,34.37682067728019 147.302018241724,60.59747079695808 145.84133737022057,63.36497938676621 143.46773095428944,64.15228458039928 133.4620669861324,60.382749551325105 131.41711376607418,60.740618233947316 122.47044342965819,56.040585587819805 125.4283221939113,32.49192560141091 126.41428178199567,31.800000000017462 131.30756270093843,31.847719043085817 133.64465209492482,32.73052037585876 145.1475139562972,33.04069338279078 149.60259061376564,34.42453943181317 146.93684802367352,62.14823213493219 143.90593521599658,64.17614229093306 135.54353722766973,61.40863897019881 133.64465209492482,60.00102262568544 131.67273291875608,60.19188613133156 122.36089236428961,55.73042932560202 125.31877112854272,33.47016332732164 126.0125945424661,31.99087614027667 135.6165712713264,32.0385951618664 149.6391076357104,34.23366438184166 146.8638139802497,61.265491757687414 145.76830332679674,63.054828456486575 143.43121393281035,63.88984967759461 131.709249940468,60.239601994340774 122.57999449502677,55.945152915723156 125.39180517196655,32.229471195314545 126.70641795615666,32.0385951618664" stroke="#4dd2ff" stroke-linecap="round" stroke-linejoin="round" stroke-width="0.5"><title>2020-07-18 7.3km</title></polyline><polyline fill="none" points="168.31616696878336,33.165479844174115 179.58019489096478,33.096048774488736 184.75172972329892,34.85496560970205 182.66186290746555,61.098967071360676 181.52837582095526,63.0429008823121 179.36766606243327,63.899154541111784 159.0003199763596,56.4705164321349 161.97572357859462,32.72574953947333 169.48507552663796,32.33230623861891 182.8743917364627,34.13751359417802 184.85799413756467,34.99382714624517 185.0351014949847,35.85013892385177 183.83077146555297,54.34141173117678 182.5555984931998,61.35353035264416 181.3866899353452,63.158610939921346 180.04067401983775,63.899154541111784 177.24237777502276,63.48259892873466 159.10658439062536,56.516801195044536 159.42537763365544,51.101448748027906 162.08198799286038,32.61003096046625 171.2207276278641,32.33230623861891 184.82257266622037,35.0401143146737 183.86619293689728,54.10998664612998 182.5201770218555,61.28410401887959 180.6074175632093,63.621450846112566 177.41948513220996,63.66773480823031 159.0357414477039,56.35480450213072 161.6569303353317,34.32266262063058 162.4007812361233,32.56374351971317 171.57494234247133,32.216587549453834 184.71630825195462,34.80867842040607 182.8743917364627,61.44609877973562 181.1033181634266,63.66773480823031 179.296823119279,64.20000000001164 158.9648985050153,56.100238141574664 161.7986162211746,33.39691665864666 162.4007812361233,32.58688724061358 166.50967192463577,31.892575047328137 171.68120675673708,31.800000000017462 176.85274158907123,33.46634767780779 180.99705374916084,33.44320400612196 185.0351014949847,35.06325789692346 184.0433002943173,52.559435233823024 182.5910199645441,61.12210919443169 180.7845249203965,63.5983088631765 178.51755074737594,63.899154541111784 159.07116291928105,56.14652294613188 161.8340376925189,33.30434194832924 162.57788859307766,32.51745607389603 166.65135781024583,31.962006319197826 181.67006170679815,33.83664624913945 184.8934156091418,35.0401143146737 182.48475555027835,61.33038824269897 181.52837582095526,63.01975886701257 179.1551372334361,63.899154541111784 159.0003199763596,56.44737404875923 162.32993829296902,32.7720369619492" stroke="#ffaf00" stroke-linecap="round" stroke-linejoin="round" stroke-width="0.5"><title>2020-07-31 11.0km</title></polyline><polyline fill="none" points="25.018668186385185,83.30815915690619 37.94394524139352,83.84051572790486 41.388216777471825,85.07461252901703 40.61047804355621,104.33574498211965 38.90685986448079,112.97393881744938 37.01806579600088,115.03062618256081 34.72188477218151,115.0064299175574 14.537712866906077,106.90060487453593 17.241280846996233,82.80000000001746 37.6476638186723,83.50174344045809 41.0549001772888,84.97782075044233 41.46228713286109,88.53490436889115 38.86982468655333,113.2159025449073 36.3884677735623,115.07901870863861 33.166407304117456,114.47411174399895 14.833994289394468,107.1183752961515 14.722888755844906,104.45672928125714 17.574597447179258,82.80000000001746 27.648165810853243,82.82419806843973 41.42525195516646,85.12300841027172 39.61052824277431,109.12669734537485 38.86982468655333,113.070724324818 37.27731204079464,115.0064299175574 35.240377261303365,115.20000000001164 14.908064645016566,107.16676870826632 15.167310889577493,100.68200318267918" stroke="#4dd2ff" stroke-linecap="round" stroke-linejoin="round" stroke-width="0.5"><title>2020-08-02 5.0km</title></polyline><polyline fill="none" points="61.24096252117306,83.32183515813085 73.18469055462629,84.17574584821705 77.21433739853092,85.81240319172502 76.08894053194672,104.33702582525439 74.41899679484777,113.23140307891299 72.67644680826925,115.03397410691832 70.7523811981082,115.15256403709645 52.96385008492507,108.67750525861629 50.785662601701915,107.20696529612178 53.653609454631805,83.53531299196766 62.438965637236834,83.0134780970402 70.31674370146357,84.48410206311382 73.54772180155851,83.96226833705441 77.32324677263387,86.14447782302159 75.32657491299324,109.27046347671421 73.36620617797598,114.63076809566701 71.33323119371198,115.20000000001164 64.79866874380969,113.37371159682516 50.74935947707854,107.75248878114508 51.3665125973057,98.2175858154078 53.58100320515223,83.25067585636862 63.528059378731996,82.79999999998836 77.10542802419513,85.50404794394854 75.29027178813703,109.48392823190079 74.3826936702244,113.37371159682516 72.13189993752167,115.20000000001164 50.96717822528444,107.23068372305715 53.435790706425905,83.74879071841133 58.91756253922358,82.79999999998836 73.69293430051766,84.55526115768589 77.25064052338712,85.8598424406664 74.99984679045156,111.40510618773988 73.94705617357977,113.99038128892425 72.02299056341872,115.17628201926709 64.0363031248562,112.99422210943885 50.676753227366135,107.39671267505037 52.41930321394466,92.26409227243857" stroke="#4dd2ff" stroke-linecap="round" stroke-linejoin="round" stroke-width="0.5"><title>2020-08-07 7.1km</title></polyline><polyline fill="none" points="96.37277945131063,83.95550138567341 109.4379917755723,84.33280727389501 113.08325819741003,85.88919048864045 112.21705627534539,105.36707572030718 110.5929276717361,113.12496554953395 109.32971653528512,114.61050261638593 107.01984474319033,114.96420114551438 87.09720053616911,106.97054187091999 89.73189804889262,83.86117486085277 95.00129307457246,83.15372525053681 105.21525740553625,84.49787849362474 109.4379917755723,84.00266464028391 113.08325819741003,85.67695675272262 113.22762518445961,89.92161114717601 111.31476260651834,109.47005045760307 110.73729465855286,112.74768546011182 109.36580828181468,114.56334279009025 107.59731269115582,115.15284023969434 102.40010115900077,113.52582527440973 86.77237481530756,107.08844355281326 89.69580630213022,83.67252174776513 100.5233303278219,82.80000000001746 105.75663360673934,84.35638888046378 111.6395883273799,84.5922048757493 113.19153343746439,86.3136576397228 112.0726892882958,104.47101844736608 110.3763771909289,113.47866532646003 107.30857871705666,115.20000000001164 92.69142128247768,109.94165418748162 87.06110878917389,106.87622050155187 89.6236228083726,84.00266464028391 94.71255910070613,82.82358169247163 101.17298176931217,83.24805193414795 103.59112880169414,84.49787849362474" stroke="#4dd2ff" stroke-linecap="round" stroke-linejoin="round" stroke-width="0.5"><title>2020-08-09 5.6km</title></polyline><polyline fill="none" points="131.66086865402758,84.73074287758209 144.74972593714483,84.923645848874 149.12217067647725,85.92709197269869 147.85886424360797,104.41399850559537 146.3865151165519,113.16927448677598 144.63599293679,114.85705520125339 142.19481436605565,114.85415449476568 128.59478393848985,109.6056908016617 123.47117268526927,107.30961802887032 122.83944030757993,106.20618742707302 125.77566479775123,84.00266515111434 143.45131923793815,84.89457174789277 149.05717959115282,86.22644894491532 147.23653342481703,109.91629204596393 146.17352882795967,113.5470483044046 143.55112825380638,115.0237766589853 123.26378105161712,107.18624286021804 125.69147175457329,83.60162280048826 136.0776863724459,84.14272029866697 149.0691600877326,86.25286339313607 147.1200147040654,109.75591780149261 145.5110467541963,114.34215393353952 143.93593513825908,115.09095725597581 141.4747799965553,114.80019117327174 123.34958276129328,107.32860522932606 123.16098414780572,106.160389587807 125.97474509640597,83.70146288917749 137.12419978692196,82.80000000001746 141.71890386356972,84.65831252385397 147.3198504236061,85.0212855093705 149.16055969242007,86.55693798724678 147.69802252645604,106.41305813702638 146.59188537299633,113.04419579310343 143.73407803103328,115.20000000001164 123.3368205751758,107.45441610875423 125.56959156738594,85.63169943832327" stroke="#4dd2ff" stroke-linecap="round" stroke-linejoin="round" stroke-width="0.5"><title>2020-08-14 7.2km</title></polyline><polyline fill="none" points="167.33831033366732,83.97517237695865 172.77083057467826,83.3276288130437 185.47118194866925,84.95847739797318 183.6358710564673,108.82091919108643 182.7549218281638,112.89778630516957 180.258899014676,115.20000000001164 158.4186993977055,107.2860885746195 161.13495951821096,84.38288448896492 161.64884656807408,83.01584822928999 166.7143046304118,82.79999999998836 181.91067881765775,84.21500307813403 185.58130060206167,85.31822257314343 183.0485715707764,111.938526946411 182.05750368908048,114.07287609155173 180.33231145050377,115.08009334219969 166.97124815522693,110.97926543888752 158.4186993977055,107.1421979223378 161.13495951821096,84.64669800165575 161.53872791444883,83.08779761483311 163.15380149963312,82.8239831419196 180.00195548962802,83.83127389193396 185.43447573063895,85.51008654315956 182.93845291715115,112.1783419874846 181.87397259962745,114.21676441526506 179.85513061843812,115.17601867116173 170.0545704541728,111.53084106830647 167.11807302664965,111.21908101727604 158.67564292275347,107.1182161422621 161.06154708261602,84.91051135180169" stroke="#4dd2ff" stroke-linecap="round" stroke-linejoin="round" stroke-width="0.5"><title>2020-08-20 5.4km</title></polyline><polyline fill="none" points="24.097586542833596,134.54568449346698 35.473489922937006,134.9305534028099 41.43755577271804,136.54218821515678 40.259468691190705,155.52053729034378 38.713229396846145,164.37200269545428 37.240620544878766,165.91136936371913 35.289413816295564,166.20000000001164 14.70970511296764,157.87773883232148 17.470846709795296,134.0886522156361 22.477716805879027,133.80000000001746 41.143034002278,136.1332665218506 40.443544797599316,154.87110193929402 38.676414175424725,164.58847646648064 37.019729217281565,165.95947448330116 34.88444638205692,166.07973725837655 14.599259448703378,158.07016287680017 17.507661931216717,133.8240543587017 41.17984922369942,136.1332665218506 40.038577363593504,155.32811210356886 38.3082619626075,165.45437046003644 35.547120365547016,166.15189490737976 22.551347248256207,161.82241451574373 14.7465203339234,157.97395086524193 14.67288989154622,155.25595263607102 17.654922816203907,133.84810871604714 41.17984922369942,136.25353764853207 38.786859839456156,164.78089750485378 35.65756602934562,166.20000000001164 14.562444227514789,158.1904278609436 17.618107595015317,134.16081523906905 23.582173444563523,133.80000000001746 41.06940355966799,135.96488688810496 41.29029488749802,142.02651212227647 39.30227293772623,162.76047230380937 37.97692497097887,165.45437046003644 35.289413816295564,165.98352704098215" stroke="#4dd2ff" stroke-linecap="round" stroke-linejoin="round" stroke-width="0.5"><title>2020-08-21 8.2km</title></polyline><polyline fill="none" points="59.2246957346797,134.60456049931236 77.04984651482664,136.30524857068667 75.67973668198101,153.25607316111564 77.67668213602155,155.12603269296233 75.28057632199489,157.3372051034239 74.09191861585714,164.32336705643684 71.39005103497766,166.20000000001164 50.388451556209475,158.2973902115773 53.39035233971663,134.12656939291628 58.05008945195004,133.80000000001746 75.20131806354038,135.78272182313958 77.06522018020041,137.09286758853705 75.43366233725101,156.34412264663843 74.40055068489164,163.33814643719234 73.10930847097188,165.5545925225597 69.99244586122222,165.94568063566112 58.527725893072784,161.6011683556717 50.538098628865555,158.43736653708038 50.323317864211276,156.69635833145003 52.91326445690356,134.1292569284269 76.5144237705972,136.33451229744242 76.92956697568297,140.59160544685437 74.24249294912443,163.9963810314366 71.19170331512578,166.06543087103637 50.6728470926173,158.76500541713904 50.420044305035844,154.03694344544783" stroke="#4dd2ff" stroke-linecap="round" stroke-linejoin="round" stroke-width="0.5"><title>2020-08-27 5.1km</title></polyline><polyline fill="none" points="94.92711830837652,153.9044316682266 99.43711667042226,151.24270600566524 105.18070757668465,151.59451581750182 107.79200500040315,152.7391976567742 115.58161246683449,141.31682699141675 115.89651355333626,139.89389934833162 115.1276730869431,139.28855552291498 104.65719521255232,139.315286658908 87.15448749088682,140.1968375966244 86.42939866962843,146.43480123209883 83.8036994128488,153.84565809517517 84.20380401867442,158.2588088522025 85.66450407844968,160.64807214052416 87.55791079485789,160.31586753137526 91.46817884128541,158.18977330593043 94.66251267702319,154.36060310376342 98.8844169578515,151.611412307946 103.69603848364204,151.14322863303823 107.02252743882127,152.84562804654706 107.89035915979184,152.69016241206555 116.05146324657835,140.62372300896095 115.663263495313,139.59036696518888 114.21988305449486,139.24181667671655 87.27611492667347,140.2550266290491 86.7046307483688,141.1017301924876 86.46304766647518,146.32057999030803 84.30366706522182,152.58620748622343 83.80000000004657,156.32972078194143 85.61629723175429,160.75818332328345 90.34163704072125,159.03173220221652 96.77328520640731,152.6080253465334 99.15124862617813,151.4576881035464 104.1023180608172,151.18762480531586 107.84159923670813,152.7553054234304 116.19999999995343,139.98910547135165 115.51858923607506,139.31266501924256 110.6060432381928,139.26142014650395 86.8830794673413,140.1831132976804 86.71769387507811,145.4352826361719 84.47681102110073,151.9533586249454 83.82618085085414,156.26288003730588 85.07252355990931,159.9935456274252 86.18543873913586,160.71190269716317" stroke="#4dd2ff" stroke-linecap="round" stroke-linejoin="round" stroke-width="0.5"><title>2020-09-02 6.2km</title></polyline><polyline fill="none" points="131.09497945569456,153.9918658118113 135.34767221007496,151.25573814756353 139.7673391532153,151.05744666821556 142.83409644290805,152.67266789998394 144.26875909161754,152.46843910653843 151.8370894100517,139.92632508615497 150.16469098068774,139.14895735456957 146.316635255469,139.12838506765547 123.06408660905436,140.02959152508993 122.23353047389537,147.36321809506626 119.80000000004657,155.78484095158638 120.6217389376834,159.2347785285965 121.79539366904646,160.77427886938676 127.27690947055817,158.6513615034637 131.69524499657564,153.35731084324652 133.8593738710042,152.0080155028263 139.36189255095087,151.14108935653348 143.96666685887612,152.67538320328458 152.15323219425045,140.27483847062103 151.42061340715736,139.48534286016366 147.67160918284208,138.97088485522545 136.06985557358712,140.08380814775592 127.42679191706702,139.7494759776746 122.64378637145273,140.3993516174669 122.5958190257661,146.07772613558336 119.80432228022255,154.70008317465545 120.63878313056193,159.51182912295917 121.93940270273015,160.9725626995787 126.48144084680825,159.1496764095209 131.9175325150136,153.06847968371585 134.97706783865578,151.30933303642087 138.838741323445,151.11437200196087 143.9129933777731,152.78114371860283 152.1264400803484,140.0367961084121 150.88725269702263,139.3673731146846 145.95358852134086,139.17882399004884 122.8891330419574,140.24883094709367 122.31156548927538,146.87056807111367 119.83425755891949,155.21486556279706 120.47371239005588,158.7462357384211 122.01299815950915,160.88753261440434 126.60788355069235,159.00325402416638 131.90095867961645,153.3025898509659 135.85481410566717,151.2475610669353 139.79627339867875,151.30231788946548 144.04538791207597,152.8460936374613 152.19999999995343,140.2131385958637 151.4199023616966,139.45083586510736 147.03690564865246,139.25107092107646 123.07871017116122,140.2736726711737 122.45230747829191,146.42965532373637 120.0135714430362,153.80833928685752 120.19238904956728,157.6781939305365 121.78452490479685,161.02911514480365 126.37176537094638,159.23151176556712 131.03546962537803,153.89381356557715 135.24606270948425,151.51563814474503 138.9968524328433,151.00763889902737 143.1394531170372,152.73824274502113 144.0883524972014,152.56762557700858 151.87773960153572,140.6641693848942 151.61197339184582,139.6817667997966 150.26858524628915,139.34527825799887 123.03037584782578,140.28539420265588 122.64474432752468,146.4697516108572 119.96254061162472,154.33311050166958 120.57010892219841,159.04983996527153 121.92169197252952,160.90479064855026 127.54284691927023,158.39759740664158" stroke="#ffb200" stroke-linecap="round" stroke-linejoin="round" stroke-width="0.5"><title>2020-09-04 10.7km</title></polyline><polyline fill="none" points="166.77871067658998,154.22280481396592 170.4095961258281,151.70608430271386 173.94971215515397,151.1633646413975 180.42904229578562,152.79195370170055 183.67348790820688,146.68283289697138 188.19999999995343,140.28853819775395 187.11942528607324,139.30444108729716 184.34475243091583,139.2403304784093 159.06961650424637,140.11921423018794 158.35416426463053,146.8679800624668 155.85339748417027,155.05852156906622 156.10907759470865,158.1152666459675 157.65768459415995,160.8691738061898 162.26574783213437,158.92819678006344 168.18142494163476,153.04972374613862 170.75385100021958,151.70239530017716 174.0680946111679,151.10247829274158 180.24880719766952,152.56830163978157 187.868164624786,140.38025372990523 187.07535727345385,139.32228304017917 179.12250711256638,139.1308261938393 171.25162877212279,139.9237407388864 159.16466747177765,139.9740014905692 158.60337917529978,140.75737321723136 158.5575522161089,146.27584581958945 155.80000000004657,155.28462510122336 156.57344367727637,159.6339903229673 157.83802004298195,160.77263591400697 163.12651484133676,158.39275991357863 166.58156180288643,154.4853548637475 171.1293248361908,151.41368430136936 175.04027107427828,151.07905218558153 178.92674537119456,152.65116988113732 180.33883972186595,152.41771926695947 187.69942825334147,139.8582954016747 186.96750082122162,139.33690658796695 177.55780725576915,139.19671666951035 159.0890132091008,140.1447388433735 158.2322162494529,147.39719965594122 156.10919668641873,152.78535299931536 155.98542777751572,157.97455673254444" stroke="#4dd2ff" stroke-linecap="round" stroke-linejoin="round" stroke-width="0.5"><title>2020-09-05 6.1km</title></polyline><polyline fill="none" points="24.60139531432651,203.3485874403268 28.0778405086603,201.85632394399727 31.585986799793318,202.06946958781919 34.40538129187189,203.4677225642081 36.30889370595105,203.60526065947488 44.08730157162063,191.543093084445 43.83211128087714,190.55498183550662 39.956498307874426,190.09860189261963 14.955297838430852,191.04578607101575 14.09832093049772,198.67596684372984 12.18089458742179,203.2962954979448 11.865758606698364,206.1858085997519 12.50094014685601,209.86537332928856 13.848734105704352,211.67431216925615 18.13473621220328,210.15284121735021 25.86714016762562,202.84101777989417 29.0885888626799,201.91578587394906 35.99930091947317,203.59171486942796 44.028321381192654,191.4383069074829 43.366193152964115,190.33136402841774 39.47274939552881,190.04919449731824 15.166195311583579,191.0599506906874 14.294341835193336,198.17009354458423 11.889584685210139,204.4782200778427 12.541772804921493,210.0269064284803 14.05300978035666,211.80293597688433 19.729673898778856,208.86562438303372 24.14672104176134,203.9057333243254 26.72946468833834,202.40048344360548 30.56891151657328,201.8905325308151 35.968939114362,203.65555324137677 44.199999999953434,191.2158274675603 43.66880300315097,190.41199947928544 42.192141028121114,190.22806327792932 14.95576837589033,191.10821888703504 14.04526076395996,198.57056433099206 11.854456560919061,205.76949054494617 12.298812511144206,209.32962200621841 13.649896618211642,211.95080550271086 18.403670066501945,210.0535130953067 23.379445673897862,204.71488437254447 26.7818954216782,202.30645703544724 30.254065768094733,201.94482538374723 35.95357860554941,203.78359005178208 44.00221596402116,191.01434713456547 43.396174440626055,190.23931922603515 41.52122079045512,190.1007661721087 20.592990113887936,190.53631192495232 14.701275032712147,191.21834258837043 14.396193869877607,196.99486761074513 11.867508721072227,205.5385577068664 12.46863560937345,209.90621371887391 13.755797392688692,211.74884637378273 19.091210218379274,209.583889930218 26.145363515941426,202.80865548728616 29.05311885336414,202.05894301319495 31.87950056931004,202.3484413389815 35.918729616794735,203.96843783275108 44.13187592709437,191.3258216411341 43.73878297931515,190.48866243773955 42.39826173661277,190.18540031809243 24.174607335589826,190.35325976306922 15.086046528303996,191.09136872232193 14.367830246919766,198.04497786186403 12.44673265889287,202.59688100160565 11.800000000046566,206.73695404530736 12.671088451053947,210.54980562921264 13.965975844999775,211.79568811593344 18.79283700371161,209.57486241619335 24.869688383303583,203.21129545688746 27.569821171928197,202.03706546023022 31.891216956777498,202.2033960291301 36.180499779758975,203.83575469147763 43.507459791144356,192.38111430988647 43.787121407687664,190.5257402592979 15.134527266025543,191.02442618846544 14.24079581676051,198.0475457480061 11.97029350977391,204.18115097927512 12.249981231754646,209.41155552421696 13.629605465335771,211.7350613649469 17.280353101203218,210.5862991704489 24.588980020489544,203.63966240131413 26.633616976207122,202.50961745309178 30.31601827009581,201.9122370207915 35.55234569264576,203.76706902007572 36.463945334544405,203.55195118064876 43.96917707216926,191.54273502281285 43.80772989988327,190.58738299220568 15.14500450133346,191.089599963394 14.528165082912892,197.66337269663927 11.848661738680676,204.52893392380793 12.074882759014145,208.91008561095805 13.321117951534688,211.4881813490938 14.696499621495605,211.75916400473216 18.55061500822194,209.80777745248633 24.98345187935047,203.8176986973558" stroke="#ff7600" stroke-linecap="round" stroke-linejoin="round" stroke-width="0.5"><title>2020-09-06 15.2km</title></polyline><polyline fill="none" points="59.021783818723634,204.6027567218698 62.23071298748255,202.4114557839639 65.52441590512171,201.8774255370372 72.11553627345711,203.76141492190072 79.31985115283169,192.68696356366854 79.92686928692274,190.43482579186093 71.92777512106113,190.139508565102 50.98824665509164,191.01878488020157 50.29205919895321,197.78932175325463 47.800000000046566,205.34801133853034 48.25966159906238,209.41283396471408 49.69485403038561,211.89230289892294 52.542862594127655,211.08322500236682 55.92432402307168,208.77273381786654 59.79733928432688,204.29291166504845 62.19893410964869,202.60939095378853 66.95582838635892,202.02056073670974 72.25284250825644,203.64695947623113 80.19999999995343,191.25678221139242 79.72160948440433,190.2484977907152 78.65656235371716,190.10769710107706 50.752633473137394,191.1456706119934 50.407861246028915,197.46109409432393 47.859125598100945,205.55181793915108 48.039786998415366,208.5494388466759 49.238687072880566,211.77672506938688 54.76865882030688,209.73187259028782 59.858424161793664,204.10797522592475 63.60446469252929,202.12115567573346 67.9376601150725,202.156680693588 72.10759952501394,203.78003950824495 80.07806445425376,190.90996390147484 79.54237890522927,190.14071383932605 50.884596420452,191.22783037016052 49.95717272628099,199.04679776760167 48.02626904845238,203.9318070327281 47.90263374289498,208.2123627459223" stroke="#4dd2ff" stroke-linecap="round" stroke-linejoin="round" stroke-width="0.5"><title>2020-09-08 6.1km</title></polyline><polyline fill="none" points="95.13234732765704,204.75139428072725 97.36600952921435,202.99324717721902 101.48390383343212,201.87258284405107 108.29803112521768,203.63570870575495 116.19999999995343,191.11503412455204 115.5072848496493,190.37589710290194 110.1714370814152,190.24162746229558 87.17542029335164,191.04366602894152 86.5412967116572,192.4364966044377 86.44229846913368,197.57045508583542 84.55025867326185,202.17481197262532 83.85308245290071,206.13622177240904 84.31540763797238,209.61492623586673 85.55125104961917,211.72865422983887 91.35449122195132,209.226344612689 95.44221655954607,204.44981006655144 99.53965952270664,202.1217219340324 102.476457367884,202.0494158618967 108.05279240501113,203.6313915158389 116.16607392393053,191.4143507887493 115.36922446731478,190.2972025180643 113.89812936657108,190.23175508895656 86.9250909469556,191.05796195365838 86.14357927371748,198.51043365173973 83.80000000004657,205.24803338642232 84.27175296214409,209.3306803944579 85.86729331570677,211.7843424323073 90.78766211518086,209.60246181566617 95.41565980785526,204.66222390378243 99.38603349518962,202.3308695536689 102.47130437660962,201.9677596524998 108.00411770725623,203.67157084241626 115.88662800658494,190.8526198757172 115.1203714183066,190.23146332224132 86.91511431103572,191.0854519577406 86.59563213773072,196.65886163013056 84.56652709050104,202.2704875813215 83.92214324045926,207.02020159285166 84.69234477519058,210.33664178015897 86.09670267347246,211.72243884034106 90.3127873907797,209.90594894532114 95.25343201402575,204.76563421299215 100.11472470872104,202.12083813673235 108.41736572934315,203.60487333673518 116.03010711399838,191.18342959749862 115.44606626266614,190.35023489021114 112.49936257326044,190.1672753696912 86.78545596613549,191.3096329876862 86.17280823551118,198.4056887824263 83.90446697291918,205.66879386166693 84.46903043659404,209.75016334370594 85.91560222348198,211.8327246303088 90.77611711551435,209.56178729701787 95.61384037067182,204.29992189776385 99.39661194942892,201.8792479891854 104.33916696091183,202.21794843350654 107.966552763246,203.63473208155483 116.12482249015011,191.143432729732 115.05308315623552,190.17704313335707 86.86602849001065,191.34453446266707 86.20183509332128,198.45881510098116 83.96926963073201,205.4510588531266 84.47001716471277,209.727300194907" stroke="#ffb500" stroke-linecap="round" stroke-linejoin="round" stroke-width="0.5"><title>2020-09-09 10.5km</title></polyline><polyline fill="none" points="131.4959682840854,204.40961965170573 131.9340803651139,203.5348438032961 134.04386593704112,202.57875162834534 137.65201572841033,201.80956313118804 144.07680465257727,203.7139557514165 152.11885448521934,190.96323763762484 149.7993661663495,190.24247423073393 122.79800437227823,191.2494870670198 122.1789403904695,198.23938994613127 120.12002704874612,203.84505081543466 119.80000000004657,207.67561869582278 121.29200238129124,211.4549125326448 122.19288479792885,211.78123167221202 127.28697226685472,209.25687949339044 130.76207887311466,205.97019879694562 131.84960577450693,204.03289428079734 133.9728016324807,202.69730496080592 136.32591345882975,202.03328488656553 140.06831991579384,202.1384901541751 143.99627046613023,203.99668133389787 151.9654353542719,191.3667469827924 151.7980167369824,190.4383769472479 150.41574082849547,190.21876832778798 123.25663848337717,191.05658669196418 121.98721505119465,199.18426548532443 119.87006974685937,204.80159069187357 120.39430040214211,209.7873969480279 121.45209867088124,211.54587634271593 123.74604660156183,211.31170529403607 126.66678538220003,209.64035037966096 132.50891161710024,203.69252970439265 135.00849453755654,202.24561512516811 140.04448136826977,202.13206735771382 143.96245740586892,204.06593516413704 152.19999999995343,190.9708720226481 150.9397906246595,190.2431200723513 138.03897874848917,190.77639725760673" stroke="#4dd2ff" stroke-linecap="round" stroke-linejoin="round" stroke-width="0.5"><title>2020-09-10 5.4km</title></polyline><polyline fill="none" points="167.07834640331566,205.28417854668805 170.5519949432928,202.7765277790022 172.7062952434644,202.03436049685115 175.30764215206727,202.0582515578135 180.2520118597895,203.6400121837214 186.23086266801693,194.81974787576473 188.19999999995343,190.79848587163724 181.94825170305558,190.19595785895945 158.8352515429724,191.23962590639712 158.28643262735568,198.82070739741903 155.83784797880799,205.9780519703927 156.32870335387997,209.41740955540445 157.75353837409057,211.90128882441786 162.8532527773641,209.65102521298104 168.03048404701985,204.31421940264408 170.86539450194687,202.62305612742784 174.90650698565878,201.88944539107615 180.2825104985386,203.91605189736583 188.15665093902498,191.55339564190945 187.60831325571053,190.17511850589653 180.6183462953195,190.0100775702449 169.0408155072946,190.77068333417992 165.7583076597657,190.32177956198575 158.64242991665378,191.42443260145956 158.71714087598957,196.70951950675226 155.80000000004657,205.96625038789352 156.654142848216,210.39095458065276 157.8900930865202,211.9899224297551 162.5563866100274,209.84733118314762 167.88170216348954,204.3450931610423 171.95684206765145,202.1425428960356 176.4928123417776,202.12635548581602 180.39346747030504,203.5816730801016 188.13474181178026,190.96971657892573 187.5254153017886,190.27069455341552 179.32836285000667,190.09172157396097 158.99570511002094,191.22145199458464 158.57004344463348,197.76345243721153 156.01801574975252,205.08846378183807 156.34755448787473,209.52616614848375 158.00235208356753,211.85766624979442 160.83957300079055,210.85878832452 164.11122797615826,208.54518793328316" stroke="#4dd2ff" stroke-linecap="round" stroke-linejoin="round" stroke-width="0.5"><title>2020-09-13 6.4km</title></polyline><polyline fill="none" points="22.965269775129855,256.2200615548936 26.270683279493824,253.9149679428374 28.863998460350558,253.11079032774433 32.1296958650928,253.28943769511534 36.275662382133305,254.7128869194421 44.200000000186265,242.00458872472518 43.43985357647762,241.3542994284362 36.635522928321734,241.24160539655713 15.110755137866363,242.05422742295195 14.559146923478693,242.7483145140577 14.556866452330723,247.38232961428002 11.800000000046566,256.6885247552127 12.520101164001971,261.0773909681884 14.038619209313765,262.80832831794396 17.790174534311518,261.3446816437063 22.938749057706445,256.1583190620877 27.158232036046684,253.55113370349864 30.73896673019044,252.9836319486203 35.09524680580944,254.67481438009418 36.16187138482928,254.49020754059893 44.03995993221179,242.25132827754715 43.031886694952846,241.24518516930402 35.08061435702257,241.20237062792876 14.88997060758993,242.32887228101026 14.416323370533064,248.3306669597514 12.104062422644347,254.92015491443453 11.814064389327541,257.96504994892166 12.445813012309372,261.0258952975273 13.130311116576195,262.42976331178215 14.02972032292746,262.6556470460491 18.18841312499717,260.961847464554 21.94943981268443,257.65922382846475 22.958094217116013,255.92778481234564 28.563201824668795,252.8703788126295 31.638970411848277,253.02088178665144 35.236968361306936,254.69951782861608 36.22149464045651,254.5006099989405 44.01102489349432,242.4998212895589 42.979076428571716,241.13440943689784 15.286222469294444,242.00284409572487 14.63022547075525,242.75414824378095 14.28759966767393,248.71647975841188 11.865203923778608,256.59764937110594 12.413796070497483,261.0082164808118 13.655128819867969,262.86559056313126" stroke="#4dd2ff" stroke-linecap="round" stroke-linejoin="round" stroke-width="0.5"><title>2020-09-15 6.2km</title></polyline><polyline fill="none" points="58.89931480679661,255.92491094901925 63.796283721225336,252.9704304759507 68.74939927854575,253.20248498563888 72.12963474169374,254.45919869389036 79.88788296841085,241.2853673172358 51.02453786903061,241.96913422370562 50.62369591719471,247.9916573035298 48.456766117597,253.4661305693444 47.85878476919606,257.41290930644027 48.32914970978163,259.8794162472186 49.779013306833804,262.4298619834299 54.190881826449186,260.83616732186056 60.20775160915218,254.5402896706364 63.76499790372327,252.71877605453483 66.77953491196968,252.70292027990217 72.31276820739731,254.22106132746558 80.19123510061763,241.79256894194987 79.52581505896524,240.92908889544196 51.0888886610046,241.76905405745492 50.562592801172286,247.9596906634397 47.800000000046566,256.470311083307 48.164368454832584,259.3658692483441 49.71583808469586,262.460370177374 53.88719426654279,260.98399477565545 59.43554491456598,255.35045965277823 63.372074202634394,252.77913072917727 68.56497059995309,253.11304974844097 72.36169067607261,254.48098594136536 80.0398918138817,241.97133311239304 79.66392565052956,241.02280483415234 77.65929631283507,240.92073049215833 51.04934591241181,241.91146010672674 50.49307570233941,248.0306510135124 48.0285844381433,255.8472139534133 48.25718513526954,259.22080787507 49.540311065269634,262.40630717689055 54.87551027163863,260.2870993175893 59.21488765301183,255.55896004170063 63.42540060658939,252.87657777415006 68.4660330703482,253.03161958020064 72.14517604443245,254.48983495330322 79.90805022325367,241.90618517060648 79.37954793986864,240.99059797570226 78.35446467273869,240.97078772846726 51.09223850397393,241.84435951904743 50.543768180767074,247.62893273652298 47.91142039233819,256.26465695144725 48.494620078010485,260.38228915745276 49.945780482608825,262.3967192064156 54.607434360310435,260.2951767023769 58.76825246331282,256.70380557031604 59.769808972021565,255.06033703422872 63.51111131720245,252.84488336829236 66.61466220789589,252.56020338868257 71.92210889142007,254.4327627978928 80.13892140146345,242.0494143824617 79.80764478747733,241.2131971581839 78.44174496713094,240.83664414350642 51.001796536613256,241.88153465703363 50.440980402519926,248.5181478636805 47.91536548733711,257.3179142890149 49.52814181125723,262.46115737161017 55.40311876917258,259.9721414798987 59.848845339147374,254.9329283167317 63.28415510733612,252.9328154932591 66.79712998308241,252.7765348481189 72.01552427071147,254.33195314981276 80.20000000018626,241.77180581758148 79.20489262323827,240.9102991076652 51.113237546989694,241.7787230234826 50.55980089469813,248.47515894527896 48.71216034935787,253.14212333777687 47.965382360620424,257.261421483563 48.77959056477994,261.1141181247658 50.236826793057844,262.44323057029396 55.15931525779888,260.12885700911283 58.95282348222099,255.7885093309451 62.65641618077643,253.28561756882118 66.59227258781902,252.50879826705204 72.27746454789303,254.36768808343913 79.83404273632914,242.2233757120266 79.46584842167795,240.96911298768828 76.58235742431134,240.90006687128334 51.026249225018546,242.02046016583336 50.605197510216385,247.65246395365102 48.13103237748146,255.73507236444857 48.29571710061282,259.0962599957711 49.45758272707462,262.34676152150496 52.32393530476838,261.74040326674003 54.82983537064865,260.27267047323403 61.027940560597926,254.1806718163425 63.4907866823487,252.8319236607349 66.54115858930163,252.79775047826115 72.14152872213162,254.4289736462233 80.1691999626346,241.76658776399563 79.44837977574207,241.0069168904447 75.22297412110493,240.90934974863194 51.40947572700679,241.59724044342875 50.78086490975693,242.26451825347613 50.35940706729889,248.55040648422437 47.980172815267,255.6514246595907 48.27158804819919,259.868236138107 49.12766106403433,262.14044098951854 50.108217149507254,262.28833746068995 55.37884547607973,259.9005833656702 59.45025345403701,255.3195428533072 63.46027001529001,252.55731665922212 67.23089204938151,252.56712101501762 70.87811323441565,254.10793444057344 72.36509846919216,253.97094183872105 80.13656715583056,241.7994364144397 79.06625860347413,240.87905239706743 51.158415240002796,241.68453983266954 50.43459702958353,248.6777432487288 47.97421343787573,256.6923128324561 48.476148606976494,260.495817619696 50.0405181387905,262.1522633268032 53.661320206709206,261.20477189830854 60.179420572472736,254.57520623863093 63.12571959476918,252.93221997801447 66.44836928439327,252.42063762474572 70.84998358297162,254.1745900112146 72.29942518635653,254.0460484161449 80.11052686325274,241.89009675005218 79.21479212492704,240.86247620277572 50.9537054086104,241.8348626323277 50.30748072499409,249.0721410897968 47.98381809843704,256.28929086911376 48.22370027960278,259.22209593100706 49.41837438149378,262.2606714016292 52.20659707626328,261.5893559799006 56.424268286442384,258.94142168055987 58.85792252118699,255.59959876697394 63.47080906829797,252.64931445001275 66.28928102809004,252.50589002182824 72.1430179302115,254.44843566251802 80.19518615119159,241.5184606590774 79.0136391853448,240.87431579100667 50.99917481956072,242.0115588044573 50.486790258437395,248.13955936243292 48.00781345088035,257.42797236974 48.73804838722572,260.76067312050145 50.200946076540276,263.1633558565227 55.13748796773143,261.2241599262634 60.15802232734859,255.9577501549793 62.78191919019446,254.57873018702958" stroke="red" stroke-linecap="round" stroke-linejoin="round" stroke-width="0.5"><title>2020-09-16 24.0km</title></polyline><polyline fill="none" points="95.82376486854628,255.54131259777932 98.3711961582303,253.61974654666847 101.64184338692576,253.06473112030653 105.38457111432217,253.743116158701 107.9349000742659,255.01615726717864 116.20000000018626,242.22410818006028 114.53853117814288,241.26846909886808 107.71060390933417,241.19920982670737 87.02006616839208,242.0728241095785 86.68461365113035,248.006145635969 84.69239284680225,253.04453223227756 83.80000000004657,257.98504322674125 85.07918092282489,262.3252147916646 86.43202071962878,262.8619523435482 91.68238910683431,260.02210114710033 94.84590796777047,256.2716853139573 98.75106332823634,253.48259472782956 103.20231962716207,253.13870158974896 107.92191034881398,254.92526696575806 116.14820383372717,242.37868196619092 115.17856457829475,241.33531189966016 110.84504778124392,241.13804765648092 86.99592646001838,242.2567511634843 86.74869288899936,248.0690054523002 83.96664884942584,256.90681532537565 84.75938337971456,261.31191286590183 86.03792624711059,262.83338342470233 90.68514215573668,260.57148235989735 93.78654673951678,258.0576325277798 95.27658859756775,255.91047481290298 98.70848531881347,253.54835617283243 101.90692543773912,253.06498345156433 108.23742504417896,254.5933515994402 116.14788974286057,242.08857687326963 115.57092677149922,241.39279239226016 113.68802599329501,241.16597794479458 87.26400229567662,242.19225031120004 86.54598427889869,249.31025481206598 84.0117446584627,256.8806538875506 84.60405932064168,260.7905672052293 86.17358715157025,262.8087132626679" stroke="#4dd2ff" stroke-linecap="round" stroke-linejoin="round" stroke-width="0.5"><title>2020-09-18 6.3km</title></polyline><polyline fill="none" points="131.34260022407398,255.84021383922664 134.70631124265492,253.6348893858958 137.56786785810255,253.09200102905743 144.14450181811117,254.83625296442187 152.06970270653255,242.7471231528616 151.9550140928477,241.84201335400576 151.25042219669558,241.13294915258302 123.44013902940787,242.11433262267383 122.54741994244978,248.7398442044505 120.21477435319684,254.44134313700488 119.82461836119182,257.9593951822608 121.73770551360212,262.8086001451011 123.67644121916965,262.50161689156084 126.60004939441569,260.797338146338 131.05263231974095,256.24153464866686 134.8032851126045,253.77016064245254 138.66143787652254,253.1004401067912 144.11685360828415,254.8256128982175 152.19999999995343,241.86157308483962 151.37590672355145,241.283331609593 148.54302122676745,241.24654650714365 123.18949389760382,241.99318758488516 122.5234840172343,248.42925407545408 119.80000000004657,256.6130707683333 120.43465653830208,260.5679663332121 122.06806929875165,262.8670508474461 126.60242416616529,260.7875562533445 131.13398459856398,256.11318785496405 134.90456694364548,253.66197631054092 137.8321025716141,253.20493764578714 144.13132793689147,254.66267756314483 152.1161563510541,242.2907010158815 151.77201507682912,241.41956442192895 150.2581479321234,241.24429179323488 123.32559012318961,242.05795429900172 122.69096622010693,242.69476692887838 122.7553136702627,247.21061279191053 120.38070617476478,254.49045655695954 120.02609625807963,258.48069889028557" stroke="#4dd2ff" stroke-linecap="round" stroke-linejoin="round" stroke-width="0.5"><title>2020-09-20 6.1km</title></polyline><polyline fill="none" points="167.12371862237342,255.9575878328178 173.58950387849472,252.96240435511572 180.64211813919246,254.49044420319842 188.13192837918177,241.93242524159723 186.78186749271117,241.245840146119 158.86028605117463,242.31684429754387 158.5576859214343,247.45162189021357 155.80000000004657,256.81571752161835 156.2409337379504,260.2910998838779 157.60937625076622,262.77772192805423 160.14580290578306,262.4030373673304 163.52568957209587,260.4609361126204 166.98044497077353,256.1356384170358 171.64580464549363,253.16822356646298 174.54643710306846,252.7905240819091 179.47280220710672,254.67322701073135 180.5049824230373,254.36926139888237 188.20000000018626,242.28889425066882 187.1005213188473,241.26480591046857 159.381686975481,242.0388094020891 158.7898537979927,242.76573972514598 158.39737656502984,248.53426145354751 155.84801307390444,256.63376937477733 156.23264362709597,260.2839758215996 157.76502164965495,262.66587999940384 160.74896543077193,262.00152767900727 163.31837297254242,260.3797300279839 167.75435990677215,255.35421936010243 171.86190777923912,253.12498151545878 174.94049795228057,252.98663587978808 180.10830531828105,254.7729915518139 188.08342001098208,241.9235128177097 187.3507624126505,241.22227807194577 159.27955072070472,242.10194522549864 158.66216280893423,242.79213214066112 158.3322378261946,248.81189432108658 156.1148451482877,254.963693839818 155.83592231897637,258.27400758714066" stroke="#4dd2ff" stroke-linecap="round" stroke-linejoin="round" stroke-width="0.5"><title>2020-09-22 6.1km</title></polyline></svg>