<svg xmlns="http://www.w3.org/2000/svg" xmlns:ev="http://www.w3.org/2001/xml-events" xmlns:xlink="http://www.w3.org/1999/xlink" width="200mm" height="300mm" baseProfile="full" version="1.1" viewBox="0 0 200 300"><rect width="200" height="300" x="0" y="0" fill="#222"/><text style="font-size:12px;font-family:Arial;font-weight:700" x="10" y="20" fill="#FFF">Over 5km Runs</text><text style="font-size:4px;font-family:Arial" x="10" y="280" fill="#FFF">ATHLETE</text><text style="font-size:9px;font-family:Arial" x="10" y="290" fill="#FFF">DuanFei</text><text style="font-size:4px;font-family:Arial" x="120" y="280" fill="#FFF">STATISTICS</text><text style="font-size:3px;font-family:Arial" x="120" y="285" fill="#FFF">Number: 50</text><text style="font-size:3px;font-family:Arial" x="120" y="290" fill="#FFF">Weekly: 2.9</text><text style="font-size:3px;font-family:Arial" x="141" y="285" fill="#FFF">Total: 385.8 km</text><text style="font-size:3px;font-family:Arial" x="141" y="290" fill="#FFF">Avg: 7.7 km</text><text style="font-size:3px;font-family:Arial" x="167" y="285" fill="#FFF">Min: 5.0 km</text><text style="font-size:3px;font-family:Arial" x="167" y="290" fill="#FFF">Max: 23.6 km</text><polyline fill="none" stroke="#4dd2ff" stroke-linecap="round" stroke-linejoin="round" stroke-width=".5" points="19.859 32.538 20.178 31.982 25.071 31.889 27.659 32.538 29.645 31.936 33.226 33.187 31.488 53.619 29.219 55.333 13.228 49.681 15.533 31.797 28.155 32.214 29.68 33.326 33.297 33.233 31.488 53.48 30.567 54.731 28.971 55.287 13.405 49.449 15.71 31.565 24.326 31.982 33.439 33.372 31.63 52.924 30.85 54.638 29.148 55.287 13.512 49.449 15.71 31.658 18.618 31.333 19.859 31.889"><title>2020-06-12 5.5km</title></polyline><polyline fill="none" stroke="#4dd2ff" stroke-linecap="round" stroke-linejoin="round" stroke-width=".5" points="50.838 32.08 60.843 32.08 63.987 33.294 62.951 48.33 61.665 54.586 60.343 55.333 58.842 55.193 47.836 51.505 44.013 49.544 44.406 44.641 46.3 31.66 61.022 32.221 64.023 33.154 62.379 53.372 60.7 55.193 58.592 55.1 50.052 52.205 43.977 49.59 45.656 33.995 46.157 31.754 47.014 31.333 55.054 31.613 57.663 32.314 61.236 32.08 64.13 33.341 62.415 52.905 61.736 54.4 60.343 55.287 53.911 53.793 43.87 49.45 45.335 38.011"><title>2020-06-16 5.2km</title></polyline><polyline fill="none" stroke="#4dd2ff" stroke-linecap="round" stroke-linejoin="round" stroke-width=".5" points="81.361 32.522 84.824 31.882 89.897 32.293 94.375 33.802 92.591 53.916 91.191 55.105 89.827 55.288 74.924 49.619 76.953 32.019 80.346 31.333 93.29 33.208 94.34 33.665 94.445 35.722 93.395 47.379 92.591 53.413 91.121 55.196 89.162 55.059 74.959 49.619 76.673 33.071 77.163 31.973 80.801 31.608 90.457 32.476 94.305 33.619 92.731 52.819 92.136 54.419 90.457 55.333 74.889 49.436 76.778 34.259"><title>2020-07-10 5.3km</title></polyline><polyline fill="none" stroke="#4dd2ff" stroke-linecap="round" stroke-linejoin="round" stroke-width=".5" points="112.71 31.75 115.44 31.38 123.985 32.492 125.261 33.14 123.524 53.434 122.744 54.731 120.829 55.333 111.929 52.368 105.476 49.264 107.462 31.982 108.987 31.333 118.808 32.306 121.255 31.982 125.403 33.233 123.701 52.646 122.602 54.731 120.865 55.287 113.454 52.507 111.929 52.785 105.299 49.31 107.497 31.843 108.206 31.333 111.859 31.38 113.596 32.028 122.106 32.26 125.403 33.279 123.418 53.804 121.184 55.333 114.979 53.248 113.596 52.229 112.107 52.368 105.228 49.079 107.426 32.584 107.923 31.472 115.05 31.519 125.439 33.14 123.382 53.156 122.567 54.499 120.829 55.102 112.142 52.415 105.37 49.218 107.462 31.658 108.455 31.519"><title>2020-07-18 7.2km</title></polyline><polyline fill="none" stroke="#ffaf00" stroke-linecap="round" stroke-linejoin="round" stroke-width=".5" points="143.266 32.367 151.624 32.322 155.441 33.626 153.894 53.041 153.068 54.479 151.452 55.109 136.352 49.626 138.554 32.052 144.125 31.738 154.066 33.086 155.51 33.715 155.648 34.345 154.753 48.053 153.825 53.221 152.965 54.569 151.967 55.109 149.869 54.839 136.456 49.671 136.696 45.626 138.657 31.963 145.432 31.738 155.51 33.76 154.788 47.873 153.79 53.176 152.38 54.929 150.007 54.974 136.387 49.536 138.347 33.221 138.898 31.918 145.673 31.648 155.407 33.581 154.066 53.311 152.724 54.974 151.417 55.333 136.352 49.356 138.45 32.547 138.898 31.918 141.924 31.423 145.776 31.333 149.594 32.592 152.655 32.547 155.648 33.76 154.925 46.704 153.825 53.086 152.518 54.884 150.832 55.109 136.421 49.401 138.45 32.457 139.001 31.873 142.027 31.468 153.171 32.861 155.544 33.76 153.756 53.221 153.068 54.479 151.28 55.109 136.352 49.626 138.829 32.052"><title>2020-07-31 10.8km</title></polyline><polyline fill="none" stroke="#4dd2ff" stroke-linecap="round" stroke-linejoin="round" stroke-width=".5" points="174.622 31.702 183.47 32.347 186.432 33.545 185.621 47.272 184.387 53.859 183.083 55.195 181.673 55.287 168.488 50.497 166.866 49.391 168.982 31.886 175.503 31.472 181.32 32.577 183.717 32.209 186.537 33.821 185.057 50.957 183.611 54.919 182.096 55.333 177.231 53.997 166.831 49.806 167.289 42.758 168.946 31.656 176.314 31.333 186.361 33.314 185.022 51.095 184.352 53.997 182.695 55.333 167.007 49.437 168.841 32.024 172.895 31.333 183.823 32.623 186.467 33.591 184.81 52.523 184.034 54.458 182.589 55.333 176.667 53.721 166.796 49.575 168.065 38.335"><title>2020-08-07 7.0km</title></polyline><polyline fill="none" stroke="#4dd2ff" stroke-linecap="round" stroke-linejoin="round" stroke-width=".5" points="20.652 58.87 30.326 59.145 33.025 60.29 32.394 74.718 31.202 80.489 30.256 81.588 28.538 81.863 13.782 75.909 15.745 58.779 19.635 58.275 27.206 59.282 30.326 58.916 33.025 60.153 33.13 63.267 31.728 77.786 31.307 80.214 30.291 81.542 28.959 82 25.103 80.763 13.537 76 15.71 58.641 23.736 58 27.592 59.145 31.973 59.328 33.13 60.611 32.289 74.077 31.027 80.763 28.749 82 17.918 78.107 13.747 75.863 15.64 58.916 19.425 58.046 24.227 58.321 26.015 59.282"><title>2020-08-09 5.6km</title></polyline><polyline fill="none" stroke="#4dd2ff" stroke-linecap="round" stroke-linejoin="round" stroke-width=".5" points="50.777 59.449 60.48 59.585 63.703 60.31 62.767 74.03 61.693 80.506 60.411 81.728 58.574 81.728 48.525 77.879 44.713 76.159 44.262 75.344 46.445 58.906 59.51 59.585 63.668 60.536 62.317 78.106 61.52 80.777 59.579 81.864 44.574 76.068 46.376 58.589 54.069 58.996 63.668 60.581 62.248 77.97 61.035 81.366 59.891 81.909 58.055 81.728 44.643 76.159 44.505 75.298 46.584 58.679 54.832 58 58.228 59.404 62.386 59.676 63.738 60.808 62.664 75.479 61.832 80.415 59.718 82 44.609 76.249 46.272 60.128"><title>2020-08-14 7.1km</title></polyline><polyline fill="none" stroke="#4dd2ff" stroke-linecap="round" stroke-linejoin="round" stroke-width=".5" points="81.232 58.884 85.218 58.419 94.615 59.628 93.263 77.256 92.622 80.279 90.771 82 74.611 76.14 76.64 59.163 76.996 58.186 80.769 58 91.981 59.07 94.722 59.861 92.836 79.581 92.088 81.163 90.842 81.907 80.947 78.837 74.611 76 76.64 59.395 76.925 58.233 78.135 58.047 90.593 58.791 94.615 60 92.764 79.721 91.981 81.256 90.486 81.953 83.225 79.256 81.054 79.023 74.789 76 76.569 59.581"><title>2020-08-20 5.3km</title></polyline><polyline fill="none" stroke="#4dd2ff" stroke-linecap="round" stroke-linejoin="round" stroke-width=".5" points="112.457 58.56 120.854 58.84 125.285 60.055 124.392 74.109 123.248 80.646 122.176 81.813 120.711 82 105.489 75.837 107.526 58.233 111.242 58 125.071 59.728 124.535 73.596 123.248 80.833 121.998 81.813 120.425 81.907 105.417 75.977 107.561 58.047 125.106 59.728 124.249 73.969 122.962 81.44 120.926 81.953 111.278 78.778 105.525 75.93 105.453 73.922 107.669 58.047 125.106 59.821 123.32 80.973 120.997 82 105.382 76.07 107.633 58.28 112.064 58 124.999 59.634 125.178 64.117 123.713 79.479 122.712 81.44 120.711 81.86"><title>2020-08-21 8.1km</title></polyline><polyline fill="none" stroke="#4dd2ff" stroke-linecap="round" stroke-linejoin="round" stroke-width=".5" points="142.227 72.895 145.578 70.906 149.855 71.155 151.789 72.007 157.564 63.552 157.782 62.487 157.21 62.06 149.446 62.06 136.479 62.735 135.934 67.354 134 72.824 134.3 76.093 135.362 77.869 136.779 77.62 139.666 76.057 142.036 73.215 145.169 71.19 148.738 70.835 151.217 72.114 151.843 71.972 157.891 63.019 157.619 62.273 156.556 62.025 136.561 62.771 136.152 63.375 135.961 67.247 134.354 71.901 134 74.672 135.335 77.975 138.849 76.696 143.616 71.936 145.36 71.084 149.037 70.87 151.816 72.043 158 62.558 157.51 62.06 153.859 62.025 136.261 62.7 136.152 66.607 134.49 71.439 134 74.636 134.926 77.407 135.743 77.94"><title>2020-09-02 6.1km</title></polyline><polyline fill="none" stroke="#ffb300" stroke-linecap="round" stroke-linejoin="round" stroke-width=".5" points="173.029 72.939 176.178 70.921 179.463 70.779 181.716 71.983 182.775 71.841 188.395 62.53 187.146 61.963 184.296 61.928 167.083 62.601 166.459 68.053 164.667 74.284 165.264 76.833 166.133 77.966 170.205 76.408 173.463 72.478 175.065 71.487 179.137 70.85 182.558 71.983 188.612 62.778 188.069 62.211 185.3 61.822 176.721 62.636 170.314 62.388 166.757 62.884 166.73 67.097 164.667 73.47 165.291 77.045 166.241 78.143 169.608 76.762 173.626 72.266 175.906 70.956 178.757 70.814 182.531 72.054 188.612 62.601 187.689 62.105 184.024 61.999 166.947 62.778 166.513 67.663 164.694 73.859 165.155 76.479 166.296 78.072 169.689 76.656 173.626 72.443 176.558 70.921 179.463 70.956 182.612 72.089 188.667 62.742 188.069 62.176 184.839 62.034 167.083 62.778 166.621 67.345 164.83 72.832 164.938 75.7 166.133 78.178 169.526 76.833 172.974 72.868 176.097 71.133 178.893 70.744 181.961 72.018 182.64 71.912 188.422 63.096 188.232 62.353 187.228 62.105 167.056 62.813 166.757 67.38 164.775 73.222 165.237 76.691 166.241 78.072 170.395 76.231"><title>2020-09-04 10.6km</title></polyline><polyline fill="none" stroke="#4dd2ff" stroke-linecap="round" stroke-linejoin="round" stroke-width=".5" points="19.46 99.786 22.151 97.943 24.76 97.517 29.571 98.723 31.963 94.221 35.333 89.472 34.518 88.763 32.479 88.692 13.752 89.365 13.209 94.363 11.361 100.424 11.551 102.692 12.692 104.713 16.117 103.295 20.493 98.935 22.396 97.943 24.869 97.482 29.435 98.581 35.089 89.542 34.491 88.763 28.593 88.621 22.776 89.188 13.834 89.223 13.399 89.826 13.372 93.902 11.333 100.566 11.904 103.791 12.828 104.642 16.742 102.869 19.324 99.999 22.695 97.73 25.576 97.482 28.457 98.616 29.517 98.474 34.953 89.153 34.409 88.763 27.451 88.656 13.752 89.365 13.127 94.753 11.551 98.723 11.469 102.586"><title>2020-09-05 6.0km</title></polyline><polyline fill="none" stroke="#f70" stroke-linecap="round" stroke-linejoin="round" stroke-width=".5" points="51.48 98.39 54.068 97.288 56.656 97.466 58.754 98.496 60.17 98.603 65.918 89.651 65.728 88.94 62.867 88.585 44.343 89.295 43.716 94.944 42.3 98.354 42.054 100.486 42.545 103.221 43.526 104.571 46.713 103.434 52.434 98.034 54.804 97.324 59.925 98.567 65.891 89.58 65.401 88.762 62.513 88.549 44.506 89.295 43.852 94.553 42.082 99.242 42.572 103.328 43.689 104.677 47.884 102.475 51.153 98.816 53.06 97.715 55.921 97.324 59.898 98.638 66 89.402 65.619 88.833 64.529 88.691 44.343 89.331 43.662 94.873 42.054 100.201 42.381 102.83 43.389 104.784 46.904 103.363 50.581 99.42 53.115 97.644 55.675 97.36 59.898 98.709 65.864 89.26 65.401 88.691 64.011 88.585 48.511 88.905 44.152 89.402 43.934 93.7 42.054 100.024 42.518 103.257 43.471 104.606 47.421 103.008 52.624 97.999 54.776 97.431 56.874 97.644 59.871 98.852 65.946 89.508 65.673 88.869 64.665 88.656 51.18 88.762 44.452 89.331 43.907 94.482 42.49 97.857 42 100.912 42.654 103.718 43.607 104.642 47.203 103.008 51.698 98.283 53.687 97.431 56.901 97.537 60.061 98.745 65.482 90.29 65.7 88.905 44.479 89.26 43.825 94.482 42.136 99.029 42.354 102.901 43.362 104.606 46.059 103.754 51.48 98.603 53.006 97.786 55.73 97.324 59.598 98.709 60.279 98.567 65.837 89.651 65.728 88.94 44.479 89.331 44.043 94.198 42.054 99.278 42.218 102.511 43.144 104.429 44.152 104.642 47.012 103.185 51.78 98.745"><title>2020-09-06 14.9km</title></polyline><polyline fill="none" stroke="#4dd2ff" stroke-linecap="round" stroke-linejoin="round" stroke-width=".5" points="80.986 99.325 83.367 97.72 85.802 97.327 90.674 98.719 96.01 90.511 96.475 88.833 90.537 88.619 75.02 89.262 74.5 94.294 72.667 99.896 72.995 102.894 74.062 104.75 76.17 104.143 78.687 102.43 81.561 99.111 83.339 97.862 86.87 97.434 90.783 98.647 96.667 89.44 96.311 88.691 95.517 88.584 74.856 89.369 74.582 94.044 72.694 100.039 72.831 102.252 73.734 104.643 77.839 103.144 81.588 98.969 84.379 97.505 87.581 97.541 90.674 98.719 96.585 89.19 96.174 88.619 74.938 89.44 74.254 95.221 72.831 98.862 72.749 102.002"><title>2020-09-08 6.0km</title></polyline><polyline fill="none" stroke="#ffb600" stroke-linecap="round" stroke-linejoin="round" stroke-width=".5" points="111.722 99.446 113.379 98.136 116.446 97.322 121.469 98.632 127.333 89.356 126.817 88.825 122.854 88.718 105.831 89.285 105.37 90.347 105.288 94.135 103.903 97.534 103.388 100.473 103.713 103.057 104.637 104.615 108.926 102.774 111.967 99.234 115.008 97.499 117.179 97.463 121.306 98.632 127.306 89.568 126.709 88.754 125.623 88.718 105.668 89.32 105.071 94.843 103.333 99.835 103.686 102.845 104.881 104.65 108.519 103.057 111.94 99.375 114.872 97.676 117.152 97.393 121.252 98.667 127.089 89.143 126.519 88.718 105.641 89.32 105.424 93.463 103.903 97.605 103.442 101.145 104.012 103.588 105.044 104.615 108.166 103.27 111.831 99.446 115.415 97.499 121.578 98.596 127.198 89.391 126.763 88.789 124.591 88.648 105.56 89.497 105.098 94.737 103.415 100.119 103.849 103.163 104.908 104.686 108.519 103.022 112.075 99.127 114.899 97.322 118.537 97.57 121.225 98.632 127.279 89.391 126.492 88.648 105.614 89.533 105.125 94.808 103.469 99.977 103.849 103.128"><title>2020-09-09 10.3km</title></polyline><polyline fill="none" stroke="#4dd2ff" stroke-linecap="round" stroke-linejoin="round" stroke-width=".5" points="142.678 99.178 143.003 98.541 144.549 97.834 147.234 97.268 152.007 98.683 157.946 89.24 156.237 88.71 136.224 89.452 135.763 94.616 134.244 98.789 134 101.618 135.112 104.411 135.79 104.659 139.559 102.785 142.136 100.345 142.949 98.93 144.522 97.94 146.258 97.445 149.024 97.516 151.925 98.895 157.837 89.523 157.702 88.851 156.698 88.674 136.576 89.311 135.627 95.323 134.054 99.496 134.461 103.174 135.247 104.482 136.929 104.305 139.098 103.068 143.437 98.647 145.281 97.586 148.997 97.516 151.898 98.93 158 89.24 157.078 88.71 147.532 89.099"><title>2020-09-10 5.3km</title></polyline><polyline fill="none" stroke="#4dd2ff" stroke-linecap="round" stroke-linejoin="round" stroke-width=".5" points="173.031 99.821 175.601 97.968 177.186 97.433 179.127 97.433 182.79 98.61 187.218 92.086 188.667 89.092 184.047 88.664 166.908 89.413 166.498 95.045 164.694 100.356 165.049 102.887 166.115 104.741 169.888 103.065 173.715 99.109 175.819 97.861 178.826 97.326 182.817 98.823 188.639 89.662 188.229 88.628 183.063 88.522 174.48 89.092 172.047 88.735 166.771 89.555 166.826 93.476 164.667 100.32 165.295 103.6 166.225 104.812 169.669 103.208 173.605 99.144 176.639 97.504 180.002 97.504 182.899 98.574 188.612 89.234 188.175 88.7 182.106 88.557 167.017 89.413 166.717 94.261 164.831 99.679 165.077 102.958 166.307 104.705 168.384 103.956 170.817 102.245"><title>2020-09-13 6.3km</title></polyline><polyline fill="none" stroke="#4dd2ff" stroke-linecap="round" stroke-linejoin="round" stroke-width=".5" points="19.615 126.477 22.039 124.772 23.974 124.168 26.398 124.31 29.476 125.341 35.333 115.926 34.761 115.465 29.722 115.358 13.785 115.962 13.376 116.495 13.376 119.905 11.333 126.797 11.878 130.065 12.995 131.344 15.774 130.278 19.588 126.406 22.72 124.488 25.363 124.062 28.577 125.305 29.367 125.199 35.224 116.104 34.462 115.358 28.577 115.358 13.622 116.175 13.267 120.616 11.551 125.518 11.333 127.756 11.824 130.03 12.314 131.06 12.995 131.238 16.073 129.994 18.852 127.543 19.588 126.264 23.756 123.991 26.017 124.097 28.686 125.341 29.422 125.199 35.197 116.317 34.434 115.287 13.921 115.926 13.431 116.495 13.186 120.9 11.388 126.762 11.796 130.03 12.695 131.38"><title>2020-09-15 6.1km</title></polyline><polyline fill="none" stroke="red" stroke-linecap="round" stroke-linejoin="round" stroke-width=".5" points="50.226 126.237 53.837 124.042 57.529 124.219 60.027 125.139 65.783 115.403 44.389 115.898 44.09 120.36 42.462 124.431 42.027 127.334 42.38 129.175 43.466 131.051 46.724 129.883 51.176 125.21 53.81 123.865 56.063 123.865 60.163 124.962 66 115.757 65.511 115.12 44.416 115.757 44.036 120.324 42 126.626 42.271 128.786 43.412 131.087 46.507 129.989 50.606 125.812 53.538 123.9 57.394 124.148 60.19 125.174 65.891 115.898 65.62 115.19 64.127 115.12 44.389 115.863 43.982 120.395 42.163 126.166 42.326 128.679 43.276 131.051 47.24 129.458 50.443 125.953 53.566 123.971 57.312 124.077 60.027 125.174 65.783 115.863 65.403 115.155 64.643 115.155 44.416 115.792 44.009 120.076 42.081 126.484 42.516 129.529 43.575 131.051 47.023 129.494 50.118 126.803 50.851 125.599 53.647 123.971 55.928 123.758 59.864 125.139 65.973 115.969 65.729 115.332 64.697 115.049 44.362 115.828 43.955 120.749 42.081 127.263 43.276 131.087 47.62 129.246 50.932 125.493 53.457 124.006 56.063 123.9 59.946 125.068 66 115.757 65.267 115.12 44.443 115.757 44.036 120.714 42.652 124.183 42.109 127.228 42.706 130.096 43.792 131.087 47.43 129.352 50.253 126.13 52.995 124.289 55.928 123.723 60.136 125.068 65.729 116.076 65.457 115.155 63.312 115.084 44.389 115.934 44.063 120.112 42.244 126.095 42.353 128.573 43.222 130.981 45.339 130.556 47.213 129.458 51.801 124.962 53.62 123.935 55.873 123.935 60.027 125.139 65.973 115.757 65.457 115.19 62.308 115.12 44.661 115.615 44.199 116.111 43.873 120.784 42.109 126.024 42.326 129.175 42.977 130.839 43.71 130.945 47.593 129.175 50.633 125.776 53.593 123.758 56.389 123.758 59.104 124.891 60.19 124.785 65.946 115.757 65.158 115.084 44.471 115.686 43.928 120.855 42.109 126.803 42.489 129.635 43.656 130.839 46.344 130.166 51.176 125.245 53.348 124.006 55.819 123.652 59.077 124.927 60.163 124.856 65.946 115.828 65.267 115.084 44.335 115.792 43.846 121.174 42.136 126.52 42.299 128.679 43.195 130.945 45.258 130.45 48.38 128.467 50.172 125.989 53.593 123.794 55.683 123.688 60.027 125.139 66 115.544 65.131 115.084 44.362 115.934 43.982 120.466 42.136 127.37 42.679 129.812 43.765 131.618 47.43 130.166 51.149 126.272 53.104 125.245"><title>2020-09-16 23.6km</title></polyline><polyline fill="none" stroke="#4dd2ff" stroke-linecap="round" stroke-linejoin="round" stroke-width=".5" points="81.579 125.965 83.475 124.517 85.886 124.128 88.676 124.623 90.545 125.577 96.667 116.074 95.448 115.368 90.382 115.332 75.05 115.968 74.807 120.384 73.317 124.093 72.667 127.767 73.615 130.981 74.617 131.37 78.518 129.286 80.847 126.495 83.746 124.446 87.05 124.164 90.545 125.506 96.64 116.216 95.935 115.438 92.712 115.297 75.023 116.11 74.861 120.419 72.802 126.954 73.371 130.239 74.319 131.37 77.759 129.674 80.062 127.837 81.172 126.248 83.719 124.482 86.075 124.128 90.789 125.259 96.64 116.004 96.206 115.474 94.825 115.297 75.24 116.074 74.698 121.338 72.829 126.954 73.263 129.851 74.427 131.334"><title>2020-09-18 6.1km</title></polyline><polyline fill="none" stroke="#4dd2ff" stroke-linecap="round" stroke-linejoin="round" stroke-width=".5" points="111.876 126.18 114.371 124.554 116.486 124.129 121.367 125.438 127.225 116.49 127.144 115.818 126.628 115.288 106.018 116.031 105.367 120.911 103.632 125.155 103.36 127.736 104.771 131.343 106.208 131.096 108.377 129.858 111.659 126.463 114.452 124.66 117.299 124.165 121.34 125.438 127.333 115.818 126.71 115.394 124.621 115.359 105.828 115.925 105.34 120.699 103.333 126.746 103.794 129.681 105.015 131.379 108.377 129.858 111.713 126.392 114.506 124.554 116.676 124.235 121.34 125.296 127.252 116.137 127.008 115.5 125.896 115.359 105.937 115.96 105.476 116.455 105.53 119.779 103.767 125.19 103.496 128.125"><title>2020-09-20 6.0km</title></polyline><polyline fill="none" stroke="#4dd2ff" stroke-linecap="round" stroke-linejoin="round" stroke-width=".5" points="142.382 126.253 147.16 124.046 152.403 125.185 157.945 115.892 156.935 115.358 136.266 116.177 136.02 119.951 134 126.894 134.328 129.458 135.338 131.309 137.222 131.024 139.706 129.6 142.273 126.396 145.713 124.188 147.87 123.903 151.529 125.327 152.294 125.078 158 116.141 157.181 115.393 136.648 115.963 136.212 116.497 135.911 120.77 134.027 126.752 134.3 129.458 135.447 131.238 137.659 130.739 139.57 129.529 142.846 125.826 145.877 124.152 148.171 124.046 151.993 125.399 157.891 115.856 157.372 115.358 136.567 115.999 136.102 116.497 135.857 120.983 134.218 125.541 134.027 127.962"><title>2020-09-22 6.0km</title></polyline><polyline fill="none" stroke="#4dd2ff" stroke-linecap="round" stroke-linejoin="round" stroke-width=".5" points="173.357 126.229 176.381 124.31 177.77 124.097 182.565 125.625 188.639 115.962 188.122 115.394 184.608 115.18 176.108 115.962 166.982 116.104 166.628 121.007 164.667 126.158 165.021 129.746 166.165 131.38 169.87 129.746 172.757 126.619 175.209 124.808 178.478 124.239 182.701 125.518 188.667 116.14 187.904 115.394 166.982 115.998 166.492 121.22 164.694 126.833 165.13 129.959 166.083 131.344 169.08 130.278 175.209 124.772 179.05 124.168 182.592 125.412 188.585 116.175 187.822 115.429 183.137 115.429 167.037 116.175 166.574 121.042 164.994 125.056 164.667 127.472 165.184 130.101 166.192 131.486"><title>2020-09-26 6.1km</title></polyline><polyline fill="none" stroke="#4dd2ff" stroke-linecap="round" stroke-linejoin="round" stroke-width=".5" points="35.309 147.356 35.317 147.361 35.309 147.366 35.333 147.388 35.198 147.409 34.952 147.42 34.932 147.425 34.928 147.436 34.911 147.425 34.862 147.441 34.797 147.441 34.702 147.457 34.649 147.447 34.596 147.447 34.563 147.463 34.321 147.468 34.219 147.495 34.194 147.495 34.1 147.532 34.03 147.532 34.03 147.548 33.994 147.553 33.883 147.559 33.817 147.569 33.629 147.575 33.527 147.564 33.412 147.559 33.334 147.569 33.105 147.575 32.99 147.596 32.933 147.591 32.834 147.618 32.826 147.639 32.756 147.623 32.551 147.607 32.4 147.612 32.375 147.623 32.322 147.618 32.273 147.628 32.248 147.618 32.146 147.644 32.072 147.634 32.027 147.644 31.921 147.655 31.867 147.644 31.74 147.65 31.691 147.66 31.646 147.676 31.519 147.666 31.474 147.682 31.376 147.682 31.314 147.698 31.245 147.692 31.208 147.714 31.167 147.719 31.044 147.719 30.933 147.73 30.896 147.719 30.864 147.724 30.761 147.714 30.737 147.708 30.724 147.692 30.704 147.682 30.671 147.676 30.605 147.687 30.532 147.714 30.429 147.714 30.384 147.73 30.249 147.74 30.257 147.751 30.212 147.751 30.192 147.767 30.175 147.767 30.122 147.788 29.95 147.821 29.7 147.842 29.647 147.853 29.278 147.89 28.938 147.901 28.881 147.917 28.844 147.911 28.823 147.927 28.721 147.938 28.627 147.965 28.356 147.991 28.282 148.029 28.25 148.013 28.196 148.007 28.123 148.007 28.065 148.013 28.049 148.024 27.983 148.018 27.955 148.029 27.934 148.029 27.922 148.04 27.865 148.066 27.86 148.061 27.844 148.024 27.836 148.024 27.709 148.034 27.672 148.045 27.652 148.04 27.627 148.05 27.508 148.05 27.459 148.072 27.422 148.077 27.402 148.082 27.41 148.088 27.398 148.098 27.369 148.098 27.332 148.109 27.279 148.104 27.279 148.114 27.176 148.136 27.029 148.136 26.976 148.141 26.857 148.13 26.701 148.136 26.652 148.146 26.603 148.162 26.517 148.173 26.5 148.184 26.406 148.184 26.271 148.194 26.168 148.194 26.033 148.216 25.984 148.237 25.947 148.237 25.857 148.237 25.722 148.259 25.32 148.291 25.005 148.301 24.943 148.312 24.829 148.307 24.792 148.312 24.624 148.307 24.538 148.323 24.472 148.323 24.452 148.333 24.362 148.323 24.284 148.333 24.263 148.328 24.124 148.333 24.079 148.344 24.05 148.344 24.03 148.349 23.981 148.349 23.911 148.36 23.78 148.365 23.768 148.381 23.714 148.403 23.69 148.392 23.628 148.403 23.591 148.392 23.542 148.397 23.526 148.413 23.473 148.424 23.452 148.419 23.436 148.43 23.358 148.408 23.174 148.419 23.083 148.403 22.977 148.419 22.883 148.403 22.793 148.419 22.678 148.413 22.567 148.43 22.481 148.419 22.309 148.44 22.244 148.413 22.071 148.43 21.867 148.397 21.736 148.413 21.469 148.376 21.162 148.365 21.027 148.371 20.74 148.397 20.695 148.381 20.625 148.381 20.58 148.392 20.511 148.387 20.49 148.397 20.363 148.397 20.338 148.392 20.183 148.397 20.13 148.392 20.101 148.397 20.019 148.387 19.789 148.376 19.724 148.387 19.621 148.387 19.552 148.408 19.49 148.397 19.462 148.403 19.396 148.44 19.286 148.403 19.089 148.397 18.945 148.381 18.814 148.381 18.773 148.365 18.556 148.381 18.499 148.403 18.364 148.403 18.294 148.397 18.204 148.408 18.134 148.392 18.073 148.403 18.044 148.397 17.893 148.403 17.843 148.403 17.704 148.413 17.684 148.419 17.639 148.413 17.589 148.424 17.54 148.419 17.434 148.43 17.413 148.44 17.36 148.43 17.237 148.424 17.167 148.413 16.868 148.44 16.704 148.43 16.68 148.435 16.561 148.419 16.155 148.462 16.11 148.456 16.069 148.467 15.922 148.472 15.729 148.467 15.565 148.488 15.484 148.478 15.467 148.488 15.41 148.488 15.373 148.504 15.299 148.494 15.279 148.499 15.262 148.488 15.238 148.488 15.213 148.494 15.164 148.536 15.123 148.547 15.049 148.542 15 148.526 14.98 148.536 14.955 148.536 14.926 148.526 14.857 148.52 14.775 148.531 14.758 148.547 14.734 148.547 14.644 148.542 14.603 148.552 14.578 148.547 14.558 148.552 14.492 148.536 14.414 148.536 14.267 148.558 14.152 148.552 13.976 148.574 13.828 148.563 13.628 148.579 13.537 148.6 13.361 148.606 13.288 148.627 13.238 148.633 13.034 148.606 12.956 148.617 12.874 148.643 12.734 148.643 12.62 148.665 12.48 148.675 12.366 148.665 12.263 148.686 12.071 148.686 12.058 148.702 11.948 148.707 11.911 148.723 11.899 148.739 11.899 148.777 11.907 148.814 11.882 148.846 11.731 148.889 11.596 148.889 11.563 148.905 11.559 148.985 11.575 149.044 11.534 149.145 11.53 149.167 11.55 149.247 11.53 149.359 11.526 149.498 11.542 149.669 11.538 149.867 11.546 149.92 11.546 149.973 11.555 150.005 11.563 150.059 11.563 150.118 11.55 150.192 11.563 150.23 11.559 150.31 11.579 150.406 11.583 150.534 11.591 150.55 11.583 150.711 11.596 150.748 11.6 150.817 11.612 150.876 11.62 151.084 11.628 151.111 11.739 151.309 11.8 151.4 11.813 151.49 11.833 151.549 11.829 151.667 11.841 151.731 11.841 151.779 11.854 151.822 11.854 151.918 11.87 152.003 11.854 152.217 11.862 152.281 11.858 152.292 11.858 152.318 11.87 152.329 11.866 152.345 11.874 152.383 11.862 152.431 11.866 152.575 11.858 152.602 11.804 152.623 11.735 152.618 11.632 152.628 11.514 152.612 11.501 152.639 11.481 152.644 11.452 152.634 11.428 152.612 11.432 152.58 11.411 152.575 11.407 152.559 11.391 152.543 11.387 152.532 11.391 152.297 11.387 152.244 11.374 152.233 11.382 152.164 11.395 152.147 11.387 152.153 11.37 152.11 11.37 152.083 11.346 152.073 11.333 152.078"><title>2020-10-10 6.1km</title></polyline><polyline fill="none" stroke="#4dd2ff" stroke-linecap="round" stroke-linejoin="round" stroke-width=".5" points="42.011 152.799 42 152.77 42 152.785 42.045 152.804 42.056 152.789 42.164 152.794 42.288 152.78 42.318 152.785 42.351 152.78 42.407 152.785 42.516 152.78 42.542 152.76 42.575 152.77 42.587 152.78 42.587 152.799 42.602 152.848 42.594 153.004 42.609 153.223 42.609 153.301 42.624 153.311 42.699 153.286 42.766 153.277 42.897 153.301 42.934 153.296 42.953 153.252 42.96 153.233 42.957 153.194 42.968 153.169 42.968 152.979 42.979 152.931 42.983 152.867 42.979 152.77 42.99 152.653 42.983 152.633 42.99 152.531 42.983 152.512 42.99 152.478 42.983 152.443 42.986 152.419 42.983 152.38 42.983 152.331 42.968 152.302 42.964 152.278 42.945 152.249 42.942 152.229 42.934 152.219 42.93 152.195 42.915 152.156 42.871 152.132 42.863 152.112 42.83 152.083 42.785 152.015 42.759 151.956 42.74 151.903 42.736 151.854 42.732 151.839 42.74 151.776 42.736 151.747 42.721 151.718 42.729 151.62 42.717 151.547 42.725 151.528 42.729 151.474 42.725 151.44 42.729 151.416 42.729 151.391 42.732 151.338 42.729 151.255 42.732 151.235 42.721 151.191 42.725 151.152 42.717 151.079 42.721 151.021 42.71 150.948 42.714 150.88 42.702 150.636 42.702 150.553 42.691 150.485 42.695 150.402 42.688 150.368 42.691 150.349 42.691 150.217 42.684 150.134 42.702 150.071 42.706 149.983 42.699 149.959 42.721 149.91 42.74 149.895 42.945 149.886 43.091 149.852 43.207 149.847 43.319 149.832 43.383 149.813 43.513 149.808 43.554 149.793 43.614 149.793 43.7 149.778 43.906 149.769 44.074 149.774 44.134 149.769 44.234 149.774 44.317 149.759 44.38 149.769 44.567 149.774 44.623 149.754 44.78 149.754 44.881 149.74 44.941 149.744 45.075 149.74 45.124 149.72 45.299 149.715 45.453 149.715 45.524 149.701 45.572 149.705 45.587 149.701 45.684 149.696 45.864 149.701 46.002 149.671 46.047 149.681 46.062 149.671 46.103 149.666 46.2 149.686 46.286 149.681 46.327 149.671 46.331 149.686 46.54 149.686 46.57 149.671 46.607 149.671 46.663 149.666 46.869 149.627 46.985 149.613 47.071 149.613 47.093 149.608 47.156 149.613 47.201 149.608 47.224 149.618 47.265 149.598 47.369 149.588 47.448 149.598 47.541 149.603 47.612 149.598 47.65 149.588 47.687 149.584 47.762 149.603 47.792 149.588 47.84 149.579 47.922 149.584 48.057 149.579 48.094 149.584 48.117 149.574 48.188 149.579 48.251 149.593 48.36 149.593 48.404 149.584 48.513 149.593 48.617 149.588 48.681 149.574 48.883 149.598 48.995 149.608 49.103 149.588 49.126 149.598 49.174 149.588 49.369 149.598 49.387 149.588 49.44 149.584 49.511 149.588 49.585 149.574 49.742 149.588 49.757 149.593 50.015 149.593 50.049 149.608 50.052 149.618 50.082 149.632 50.183 149.613 50.534 149.598 50.613 149.584 50.744 149.593 50.871 149.574 50.938 149.574 50.983 149.559 51.076 149.559 51.132 149.569 51.229 149.559 51.278 149.564 51.334 149.554 51.457 149.559 51.513 149.579 51.558 149.564 51.719 149.574 51.853 149.569 51.898 149.525 51.924 149.515 51.932 149.501 52.014 149.554 52.07 149.549 52.141 149.564 52.212 149.559 52.332 149.579 52.354 149.569 52.373 149.574 52.47 149.549 52.518 149.559 52.541 149.569 52.672 149.564 52.75 149.588 52.84 149.569 52.885 149.574 52.907 149.564 52.929 149.545 52.971 149.54 53.012 149.549 53.034 149.564 53.049 149.549 53.094 149.545 53.113 149.535 53.139 149.535 53.157 149.549 53.213 149.53 53.311 149.52 53.326 149.525 53.385 149.53 53.397 149.545 53.494 149.564 53.52 149.554 53.639 149.54 53.684 149.545 53.733 149.535 53.867 149.554 53.976 149.564 54.035 149.549 54.177 149.554 54.256 149.545 54.346 149.549 54.476 149.53 54.544 149.54 54.645 149.54 54.753 149.549 54.88 149.54 54.966 149.525 55.1 149.52 55.186 149.506 55.269 149.515 55.47 149.486 55.594 149.481 55.751 149.462 55.825 149.457 55.896 149.428 55.941 149.433 56.027 149.408 56.468 149.384 56.561 149.374 56.696 149.34 56.898 149.33 56.995 149.316 57.107 149.311 57.152 149.301 57.223 149.301 57.324 149.291 57.331 149.316 57.35 149.33 57.417 149.311 57.649 149.272 57.772 149.267 57.806 149.257 57.832 149.208 57.873 149.213 58.007 149.179 58.078 149.189 58.112 149.189 58.209 149.169 58.254 149.169 58.362 149.14 58.407 149.145 58.467 149.13 58.516 149.135 58.583 149.13 58.654 149.116 58.744 149.116 58.886 149.091 58.923 149.077 59.136 149.048 59.233 149.053 59.259 149.062 59.274 149.057 59.274 149.067 59.282 149.072 59.427 149.023 59.521 149.009 59.566 149.009 59.719 148.97 59.835 148.979 59.958 148.96 60.055 148.96 60.175 148.975 60.249 148.965 60.433 148.96 60.548 148.95 60.623 148.931 60.769 148.926 60.888 148.901 60.896 148.892 61.008 148.867 61.225 148.872 61.344 148.853 61.423 148.858 61.52 148.853 61.636 148.867 61.781 148.833 61.808 148.814 61.852 148.809 61.897 148.814 61.92 148.828 61.983 148.838 62.163 148.833 62.219 148.838 62.234 148.828 62.278 148.828 62.376 148.843 62.443 148.828 62.461 148.819 62.532 148.804 62.555 148.809 62.719 148.799 62.839 148.799 63.183 148.76 63.231 148.765 63.313 148.755 63.384 148.765 63.515 148.75 63.545 148.755 63.609 148.75 63.695 148.731 63.896 148.731 63.956 148.711 64.15 148.716 64.248 148.692 64.274 148.697 64.292 148.682 64.315 148.682 64.352 148.672 64.446 148.672 64.539 148.687 64.561 148.677 64.655 148.677 64.696 148.668 64.804 148.677 64.819 148.672 64.827 148.633 64.868 148.624 65.055 148.619 65.099 148.633 65.197 148.638 65.189 148.643 65.2 148.619 65.178 148.57 65.17 148.521 65.189 148.478 65.185 148.341 65.17 148.317 65.167 148.283 65.152 148.249 65.144 148.224 65.148 148.205 65.118 148.151 65.122 148.137 65.081 148.088 65.081 148.073 65.062 148.049 65.055 148.005 65.058 147.99 65.043 147.966 65.04 147.942 64.984 147.873 64.969 147.795 64.995 147.771 64.999 147.761 65.014 147.756 65.103 147.732 65.144 147.742 65.298 147.678 65.327 147.654 65.35 147.654 65.395 147.63 65.413 147.571 65.488 147.552 65.496 147.557 65.589 147.523 65.641 147.493 65.641 147.479 65.652 147.464 65.675 147.464 65.731 147.415 65.746 147.42 65.75 147.41 65.783 147.406 65.798 147.391 65.806 147.376 65.802 147.362 65.809 147.357 65.802 147.342 65.794 147.298 65.821 147.284 65.813 147.264 65.851 147.235 65.854 147.211 65.877 147.196 65.892 147.147 65.892 147.123 65.903 147.108 65.959 147.06 65.981 147.045 65.993 147.026 65.989 147.011 66 146.996 66 146.982 65.989 146.982 65.955 146.957 65.925 146.948 65.895 146.948 65.888 146.933 65.877 146.933 65.888 146.913 65.888 146.894 65.877 146.889 65.877 146.875 65.892 146.836 65.892 146.806 65.903 146.797 65.91 146.777 65.903 146.762 65.91 146.743 65.925 146.738 65.955 146.719 65.974 146.719 65.996 146.689"><title>2020-10-10 7.1km</title></polyline><polyline fill="none" stroke="#4dd2ff" stroke-linecap="round" stroke-linejoin="round" stroke-width=".5" points="80.821 153.101 83.484 151.329 86.039 150.727 90.741 151.932 96.639 142.716 95.851 142.007 89.464 142.007 74.923 142.823 74.488 147.891 72.721 152.712 72.911 155.724 73.835 157.993 77.26 156.823 79.57 154.909 81.065 152.853 84.979 150.62 87.507 150.798 90.497 152.038 96.667 142.255 87.181 142.043 84.381 142.61 81.609 142.291 74.95 142.61 74.433 147.998 72.667 153.669 72.993 156.291 74.243 157.886 77.613 156.433 81.283 152.641 84.68 150.762 86.447 150.656 90.687 151.826 96.395 142.893 96.123 142.149 95.036 142.043 74.923 142.752 74.678 146.722 72.748 152.96 73.319 156.894"><title>2020-10-10 6.1km</title></polyline><polyline fill="none" stroke="#ffb600" stroke-linecap="round" stroke-linejoin="round" stroke-width=".5" points="112.177 152.715 115.551 150.763 117.864 150.834 121.293 151.899 127.224 142.743 127.007 142.424 125.728 142.034 116.34 142.176 105.483 142.779 104.939 148.35 103.333 153.46 103.415 155.66 104.531 157.931 106.626 157.469 109.02 155.944 112.395 152.182 115.361 150.692 118.626 150.94 121.02 151.934 127.333 142.566 126.789 142.105 123.061 142.069 105.864 142.602 105.429 143.169 105.211 147.534 103.333 153.602 103.605 156.015 104.639 157.895 108.041 156.689 112.558 152.04 114.463 150.976 117.265 150.728 121.265 152.005 127.061 143.027 127.143 141.998 115.116 142.708 113.075 142.318 105.782 142.566 104.966 148.173 103.361 153.389 103.551 155.979 104.612 158.002 108.748 156.192 112.177 152.466 114.463 150.976 117.374 150.763 121.238 152.076 127.252 142.814 126.599 142.14 105.565 142.779 105.265 147.321 103.333 154.205 103.633 156.086 104.694 158.002 108.095 156.866 112.476 152.04 113.782 151.26 116.585 150.763 121.02 152.147 127.17 142.566 124.884 141.998 105.782 142.637 105.184 147.995 103.442 153.176 103.66 156.121 104.395 157.86"><title>2020-10-11 10.4km</title></polyline><polyline fill="none" stroke="#4dd2ff" stroke-linecap="round" stroke-linejoin="round" stroke-width=".5" points="134 152.518 134.038 152.499 134.147 152.499 134.208 152.484 134.325 152.479 134.359 152.474 134.386 152.449 134.435 152.459 134.465 152.454 134.506 152.454 134.529 152.479 134.544 152.543 134.548 152.666 134.578 152.794 134.582 152.863 134.593 152.893 134.593 152.996 134.609 153.011 134.643 153.011 134.692 153.055 134.797 153.055 134.805 153.041 134.839 153.031 134.9 153.041 134.956 153.036 134.96 153.026 134.952 153.006 134.96 152.957 134.952 152.858 134.96 152.809 134.956 152.76 134.975 152.651 134.964 152.563 134.971 152.528 134.968 152.499 134.975 152.479 134.968 152.464 134.975 152.459 134.968 152.449 134.964 152.43 134.975 152.228 134.964 152.149 134.975 152.104 134.949 152.055 134.937 151.947 134.847 151.828 134.79 151.779 134.782 151.764 134.782 151.745 134.775 151.74 134.745 151.686 134.729 151.651 134.733 151.557 134.718 151.503 134.707 151.488 134.714 151.459 134.703 151.37 134.711 151.281 134.722 151.252 134.714 151.178 134.711 151.045 134.707 151.03 134.695 150.828 134.699 150.779 134.688 150.508 134.692 150.444 134.68 150.345 134.684 150.316 134.677 150.301 134.68 150.207 134.673 150.178 134.677 150.148 134.684 150.138 134.677 150.104 134.673 149.956 134.68 149.818 134.692 149.773 134.707 149.64 134.703 149.596 134.711 149.576 134.726 149.571 134.998 149.552 135.145 149.537 135.183 149.522 135.293 149.522 135.357 149.507 135.398 149.512 135.531 149.507 135.614 149.493 135.701 149.497 135.735 149.488 135.818 149.488 135.882 149.478 136.056 149.478 136.135 149.463 136.385 149.468 136.498 149.453 136.615 149.463 136.725 149.458 136.751 149.453 136.846 149.448 136.895 149.438 136.937 149.443 137.061 149.424 137.156 149.428 137.216 149.419 137.235 149.428 137.315 149.428 137.398 149.414 137.462 149.424 137.56 149.409 137.84 149.409 137.878 149.394 138.097 149.369 138.316 149.379 138.449 149.345 138.649 149.355 138.815 149.325 138.898 149.33 138.955 149.305 139.038 149.31 139.076 149.3 139.117 149.31 139.303 149.305 139.488 149.315 139.586 149.305 139.654 149.286 139.711 149.32 139.854 149.32 139.919 149.32 139.994 149.305 140.032 149.29 140.104 149.295 140.172 149.286 140.312 149.3 140.369 149.29 140.493 149.29 140.554 149.3 140.614 149.29 140.66 149.3 140.743 149.286 140.89 149.305 140.981 149.29 141.09 149.3 141.166 149.295 141.298 149.31 141.363 149.295 141.434 149.3 141.646 149.281 141.699 149.286 141.722 149.281 141.82 149.286 141.839 149.281 142.02 149.281 142.134 149.266 142.296 149.281 142.402 149.276 142.428 149.281 142.734 149.251 142.855 149.266 143.018 149.271 143.124 149.266 143.237 149.281 143.377 149.281 143.506 149.266 143.691 149.271 143.729 149.266 143.751 149.276 143.819 149.266 143.94 149.271 144.008 149.256 144.114 149.261 144.152 149.251 144.193 149.261 144.265 149.256 144.303 149.261 144.36 149.251 144.496 149.256 144.556 149.246 144.745 149.256 144.885 149.251 144.915 149.266 145.032 149.251 145.108 149.231 145.255 149.226 145.32 149.217 145.376 149.226 145.437 149.217 145.543 149.231 145.819 149.212 145.958 149.221 146.023 149.236 146.227 149.241 146.268 149.251 146.329 149.246 146.363 149.231 146.491 149.251 146.597 149.226 146.79 149.226 146.854 149.241 146.911 149.241 146.949 149.231 147.028 149.226 147.077 149.217 147.145 149.212 147.175 149.202 147.497 149.202 147.572 149.187 147.75 149.172 147.807 149.157 148.056 149.143 148.139 149.118 148.237 149.113 148.317 149.098 148.468 149.093 148.657 149.064 148.68 149.069 148.721 149.064 148.963 149.01 149.05 149.01 149.145 148.99 149.345 148.99 149.473 148.97 149.481 148.995 149.47 148.985 149.526 148.985 149.538 148.975 149.572 148.98 149.647 148.965 149.961 148.931 150.086 148.891 150.21 148.891 150.271 148.872 150.339 148.867 150.377 148.852 150.426 148.857 150.517 148.827 150.63 148.822 150.774 148.793 150.823 148.798 150.902 148.793 151 148.773 151.114 148.768 151.182 148.748 151.25 148.748 151.344 148.729 151.409 148.739 151.526 148.724 151.594 148.724 151.726 148.689 151.907 148.689 152.115 148.655 152.229 148.655 152.24 148.66 152.236 148.665 152.244 148.674 152.255 148.655 152.251 148.67 152.486 148.66 152.52 148.645 152.917 148.591 153.041 148.561 153.128 148.571 153.177 148.556 153.31 148.571 153.506 148.546 153.525 148.556 153.582 148.546 153.74 148.566 153.892 148.541 153.926 148.541 153.956 148.532 154.001 148.536 154.05 148.522 154.092 148.532 154.171 148.517 154.364 148.517 154.572 148.497 154.587 148.502 154.878 148.467 154.98 148.463 155.052 148.448 155.165 148.453 155.468 148.428 155.532 148.443 155.608 148.433 155.721 148.438 155.778 148.433 155.8 148.418 155.8 148.408 155.808 148.403 155.808 148.408 155.815 148.408 155.838 148.418 155.865 148.423 155.914 148.408 155.936 148.398 156.061 148.403 156.129 148.394 156.235 148.408 156.269 148.389 156.292 148.389 156.424 148.398 156.466 148.389 156.571 148.394 156.594 148.384 156.643 148.389 156.666 148.369 156.707 148.379 156.798 148.369 156.862 148.339 156.908 148.354 156.991 148.359 157.014 148.339 157.051 148.354 157.278 148.349 157.399 148.334 157.414 148.329 157.433 148.315 157.441 148.28 157.437 148.187 157.441 148.162 157.452 148.127 157.486 148.098 157.494 148.078 157.49 148.063 157.478 147.989 157.456 147.93 157.456 147.901 157.46 147.881 157.441 147.851 157.418 147.777 157.384 147.708 157.361 147.684 157.35 147.639 157.331 147.536 157.339 147.437 157.301 147.354 157.297 147.319 157.384 147.304 157.569 147.216 157.607 147.216 157.656 147.176 157.675 147.176 157.728 147.122 157.879 147.038 157.909 147.014 157.928 147.014 157.951 146.999 157.947 147.018 158 146.945"><title>2020-10-12 6.8km</title></polyline><polyline fill="none" stroke="#4dd2ff" stroke-linecap="round" stroke-linejoin="round" stroke-width=".5" points="188.63 147.414 188.638 147.366 188.654 147.345 188.646 147.345 188.667 147.345 188.667 147.361 188.339 147.393 188.282 147.382 188.167 147.382 187.971 147.398 187.946 147.393 187.934 147.409 187.852 147.403 187.823 147.414 187.737 147.419 187.676 147.441 187.59 147.43 187.533 147.435 187.459 147.451 187.361 147.451 187.238 147.473 187.14 147.467 186.89 147.489 186.46 147.51 186.391 147.521 186.301 147.521 186.276 147.526 186.223 147.521 185.908 147.547 185.838 147.547 185.683 147.558 185.605 147.574 185.478 147.574 185.355 147.59 185.33 147.596 185.306 147.59 185.154 147.601 184.987 147.601 184.77 147.633 184.639 147.633 184.356 147.644 184.274 147.649 184.225 147.665 184.143 147.66 184.066 147.676 183.75 147.681 183.726 147.686 183.513 147.708 183.419 147.734 183.39 147.729 183.341 147.74 183.321 147.729 183.251 147.75 183.214 147.777 183.165 147.777 182.969 147.809 182.879 147.83 182.854 147.825 182.674 147.857 182.338 147.862 182.293 147.873 182.179 147.878 181.933 147.916 181.753 147.958 181.659 147.969 181.605 147.964 181.552 147.974 181.474 147.974 181.339 147.996 181.122 148.007 181.081 147.991 181.028 147.985 180.762 148.012 180.717 148.028 180.688 148.076 180.652 148.076 180.639 148.087 180.623 148.092 180.627 148.103 180.615 148.108 180.586 148.097 180.566 148.108 180.521 148.108 180.508 148.124 180.492 148.119 180.427 148.124 180.259 148.087 180.201 148.087 180.144 148.103 180.128 148.092 180.083 148.087 180.013 148.097 179.935 148.124 179.898 148.124 179.853 148.14 179.571 148.161 179.53 148.172 179.456 148.167 179.428 148.177 179.309 148.183 179.309 148.193 179.289 148.193 179.272 148.209 179.117 148.215 179.031 148.231 178.867 148.236 178.675 148.263 178.433 148.263 178.31 148.289 178.196 148.284 178.106 148.289 178.056 148.279 177.97 148.295 177.872 148.289 177.7 148.305 177.418 148.305 177.295 148.327 177.25 148.321 177.201 148.343 177.176 148.332 177.115 148.337 177.066 148.348 177.017 148.353 176.877 148.348 176.779 148.337 176.751 148.343 176.636 148.343 176.615 148.359 176.489 148.38 176.37 148.359 176.349 148.38 176.223 148.364 176.128 148.38 176.059 148.375 176.042 148.396 175.993 148.396 175.948 148.38 175.895 148.385 175.87 148.375 175.776 148.369 175.756 148.396 175.727 148.391 175.703 148.402 175.531 148.348 175.437 148.337 175.342 148.353 175.322 148.375 175.248 148.38 175.175 148.38 175.085 148.353 175.064 148.369 175.044 148.369 174.945 148.353 174.921 148.375 174.896 148.375 174.773 148.353 174.749 148.359 174.724 148.353 174.61 148.359 174.581 148.348 174.483 148.353 174.356 148.343 174.229 148.353 174 148.343 173.955 148.343 173.918 148.359 173.75 148.348 173.595 148.359 173.57 148.348 173.525 148.348 173.443 148.364 173.091 148.353 173.034 148.364 173.021 148.343 173.013 148.343 172.882 148.369 172.858 148.38 172.764 148.385 172.698 148.375 172.497 148.375 172.403 148.359 172.186 148.364 172.1 148.353 172.035 148.364 171.945 148.359 171.83 148.375 171.81 148.369 171.748 148.369 171.589 148.391 171.544 148.385 171.417 148.391 171.261 148.38 170.934 148.391 170.913 148.38 170.836 148.407 170.709 148.391 170.631 148.407 170.565 148.407 170.541 148.396 170.471 148.391 170.316 148.407 170.115 148.391 169.972 148.402 169.829 148.391 169.661 148.402 169.644 148.412 169.62 148.407 169.554 148.428 169.53 148.423 169.513 148.434 169.448 148.428 169.358 148.439 169.292 148.428 169.227 148.434 169.186 148.444 169.092 148.439 169.067 148.45 168.916 148.434 168.76 148.46 168.736 148.455 168.65 148.466 168.625 148.455 168.58 148.46 168.564 148.476 168.523 148.476 168.478 148.487 168.474 148.535 168.453 148.551 168.408 148.546 168.379 148.53 168.351 148.524 168.334 148.535 168.31 148.535 168.257 148.556 168.228 148.556 168.167 148.583 168.126 148.572 168.109 148.583 168.093 148.62 168.072 148.626 167.966 148.599 167.913 148.572 167.815 148.562 167.761 148.54 167.724 148.562 167.651 148.562 167.487 148.53 167.327 148.551 167.274 148.551 167.205 148.535 167.135 148.535 167.094 148.546 166.939 148.546 166.816 148.572 166.685 148.562 166.435 148.599 166.279 148.594 166.14 148.62 166.071 148.626 165.907 148.631 165.702 148.631 165.481 148.658 165.342 148.652 165.318 148.663 165.117 148.636 164.884 148.674 164.826 148.69 164.806 148.727 164.81 148.78 164.826 148.791 164.802 148.834 164.806 148.871 164.798 148.935 164.814 149.058 164.806 149.127 164.822 149.304 164.814 149.373 164.814 149.437 164.822 149.458 164.818 149.533 164.826 149.779 164.843 149.949 164.839 149.971 164.847 150.045 164.847 150.088 164.859 150.195 164.867 150.451 164.884 150.515 164.875 150.675 164.896 150.75 164.9 150.809 164.9 150.873 164.888 151.006 164.92 151.081 164.937 151.156 164.961 151.214 165.088 151.396 165.109 151.476 165.125 151.588 165.121 151.769 165.125 151.823 165.142 151.871 165.154 152.058 165.162 152.079 165.17 152.186 165.162 152.276 165.17 152.378 165.17 152.421 165.158 152.437 165.15 152.511 165.15 152.591 165.109 152.618 165.084 152.618 164.929 152.602 164.896 152.607 164.904 152.623 164.908 152.655 164.871 152.618 164.789 152.607 164.728 152.554 164.704 152.394 164.708 152.372 164.683 152.314 164.671 152.25 164.667 152.207 164.679 152.18 164.667 152.122 164.671 152.106"><title>2020-10-13 6.2km</title></polyline><polyline fill="none" stroke="#4dd2ff" stroke-linecap="round" stroke-linejoin="round" stroke-width=".5" points="11.333 179.227 11.341 179.247 11.438 179.257 11.502 179.252 11.611 179.232 11.693 179.227 11.791 179.237 11.862 179.222 11.888 179.227 11.907 179.242 11.922 179.286 11.914 179.349 11.918 179.369 11.918 179.413 11.925 179.447 11.922 179.486 11.929 179.633 11.925 179.755 11.955 179.765 11.989 179.75 12.079 179.77 12.173 179.765 12.218 179.775 12.281 179.765 12.308 179.75 12.308 179.706 12.315 179.696 12.308 179.672 12.311 179.648 12.315 179.467 12.323 179.403 12.315 179.345 12.315 179.154 12.308 179.139 12.311 179.125 12.3 179.007 12.304 178.988 12.3 178.934 12.304 178.851 12.315 178.812 12.304 178.773 12.304 178.719 12.285 178.67 12.229 178.602 12.21 178.592 12.173 178.538 12.165 178.543 12.158 178.533 12.094 178.416 12.079 178.367 12.072 178.284 12.064 178.25 12.068 178.196 12.049 178.064 12.057 178.001 12.049 177.962 12.057 177.835 12.049 177.737 12.053 177.639 12.049 177.532 12.034 177.429 12.038 177.405 12.03 177.263 12.034 177.136 12.019 176.789 12.023 176.745 12.019 176.691 12.012 176.677 12.019 176.657 12.015 176.579 12.034 176.491 12.023 176.408 12.027 176.378 12.03 176.369 12.053 176.359 12.117 176.344 12.263 176.32 12.364 176.32 12.458 176.31 12.54 176.291 12.634 176.286 12.675 176.271 12.829 176.261 12.877 176.251 12.9 176.256 12.96 176.251 13.039 176.261 13.121 176.256 13.361 176.222 13.601 176.222 13.642 176.232 13.747 176.217 13.945 176.232 14.159 176.207 14.545 176.207 14.609 176.193 14.672 176.188 14.777 176.183 14.845 176.193 14.905 176.178 14.961 176.188 14.984 176.173 15.115 176.178 15.373 176.149 15.636 176.144 15.669 176.149 15.677 176.154 15.677 176.159 15.699 176.159 15.842 176.139 15.894 176.144 15.98 176.134 16.074 176.129 16.183 176.105 16.434 176.09 16.509 176.1 16.531 176.1 16.554 176.085 16.812 176.085 16.857 176.095 16.88 176.085 16.932 176.095 17.045 176.076 17.142 176.08 17.206 176.071 17.423 176.076 17.487 176.08 17.506 176.076 17.569 176.08 17.689 176.071 17.779 176.085 17.862 176.066 17.993 176.066 18.042 176.056 18.368 176.061 18.514 176.071 18.765 176.066 18.806 176.056 18.945 176.056 19.001 176.066 19.132 176.051 19.2 176.061 19.518 176.041 19.676 176.056 19.841 176.056 19.904 176.041 19.957 176.051 20.002 176.046 20.271 176.051 20.286 176.041 20.38 176.046 20.421 176.041 20.556 176.051 20.811 176.036 20.924 176.036 20.991 176.032 21.014 176.022 21.044 176.032 21.156 176.027 21.265 176.036 21.287 176.027 21.31 176.032 21.392 176.017 21.504 176.036 21.527 176.027 21.542 176.036 21.591 176.027 21.681 176.041 21.868 176.036 21.939 176.051 22.048 176.032 22.093 176.041 22.172 176.046 22.224 176.036 22.291 176.046 22.359 176.032 22.404 176.012 22.445 176.017 22.569 176.012 22.692 175.992 22.989 176.007 23.052 175.997 23.078 176.007 23.09 175.997 23.135 175.992 23.27 176.022 23.352 176.022 23.584 175.997 23.734 176.002 23.828 175.992 23.937 176.007 24.207 175.997 24.244 176.002 24.341 175.992 24.364 176.002 24.499 175.978 24.686 175.968 24.727 175.973 24.956 175.948 25.046 175.948 25.256 175.904 25.346 175.904 25.608 175.87 25.642 175.875 25.728 175.861 25.945 175.846 26.039 175.817 26.155 175.807 26.193 175.787 26.286 175.773 26.35 175.777 26.538 175.758 26.643 175.763 26.725 175.753 26.77 175.763 26.882 175.733 27.059 175.729 27.073 175.714 27.092 175.719 27.122 175.704 27.141 175.68 27.227 175.675 27.242 175.66 27.272 175.655 27.291 175.66 27.355 175.65 27.381 175.631 27.415 175.641 27.504 175.626 27.542 175.641 27.673 175.611 27.789 175.602 27.846 175.582 27.905 175.587 27.969 175.577 28.052 175.553 28.145 175.558 28.366 175.533 28.434 175.533 28.558 175.509 28.606 175.518 28.666 175.514 28.737 175.499 28.756 175.504 28.846 175.484 28.936 175.484 29.004 175.465 29.12 175.465 29.138 175.455 29.161 175.465 29.356 175.435 29.435 175.44 29.453 175.455 29.446 175.46 29.457 175.45 29.453 175.455 29.461 175.46 29.491 175.46 29.566 175.455 29.641 175.435 29.727 175.44 29.839 175.426 30.023 175.396 30.128 175.396 30.3 175.367 30.439 175.377 30.491 175.367 30.593 175.372 30.611 175.362 30.701 175.352 30.96 175.333 31.001 175.338 31.08 175.323 31.177 175.323 31.196 175.318 31.338 175.313 31.372 175.303 31.41 175.308 31.425 175.299 31.462 175.308 31.533 175.308 31.668 175.294 31.769 175.299 31.874 175.279 32.286 175.259 32.358 175.25 32.56 175.24 32.643 175.235 32.665 175.225 32.894 175.211 32.942 175.196 32.98 175.201 32.987 175.201 32.984 175.211 33.002 175.191 32.999 175.196 32.991 175.186 32.984 175.191 32.987 175.181 32.987 175.186 32.976 175.186 33.002 175.186 32.991 175.201 32.991 175.196 33.017 175.211 33.137 175.215 33.152 175.225 33.313 175.215 33.358 175.196 33.538 175.186 33.598 175.171 33.797 175.181 33.864 175.167 34.007 175.162 34.029 175.171 34.085 175.167 34.183 175.171 34.381 175.142 34.531 175.142 34.58 175.123 34.595 175.103 34.584 175.074 34.584 175.054 34.576 175.02 34.58 174.991 34.565 174.932 34.561 174.898 34.58 174.854 34.569 174.81 34.573 174.785 34.558 174.683 34.561 174.663 34.546 174.605 34.483 174.502 34.483 174.473 34.468 174.429 34.404 174.297 34.411 174.267 34.393 174.238 34.385 174.189 34.351 174.126 34.351 174.111 34.385 174.096 34.438 174.091 34.449 174.101 34.468 174.101 34.614 174.072 34.745 174.043 34.824 174.004 34.899 173.955 35.011 173.876 35.172 173.725 35.191 173.725 35.195 173.74 35.225 173.725 35.236 173.71 35.243 173.671 35.266 173.647 35.292 173.608 35.315 173.588 35.311 173.569 35.333 173.559"><title>2020-10-13 6.9km</title></polyline><polyline fill="none" stroke="#4dd2ff" stroke-linecap="round" stroke-linejoin="round" stroke-width=".5" points="49.475 179.467 50.018 179.892 52.301 178.226 55.427 177.305 59.857 178.687 66 169.259 64.804 168.692 44.555 169.294 44.12 169.826 43.848 174.54 42.136 179.219 42.163 181.842 43.468 184.642 47.11 183.047 51.268 178.723 53.742 177.305 55.971 177.305 59.857 178.723 65.837 169.542 65.348 168.692 44.283 169.436 43.957 174.327 42.082 180.282 42.516 183.224 43.495 184.642 46.811 183.295 52.464 177.907 55.998 177.376 59.83 178.758 66 169.365 65.185 168.727 57.792 168.763 44.229 169.542 44.066 173.583 42 180.388 42.571 183.224 43.631 184.642 47.436 182.799 51.051 178.758 53.008 177.766 56.161 177.411 59.314 178.758 60.183 178.368 65.891 169.472 65.565 168.833 54.014 169.046 53.47 169.401"><title>2020-10-13 7.5km</title></polyline><polyline fill="none" stroke="#4dd2ff" stroke-linecap="round" stroke-linejoin="round" stroke-width=".5" points="96.663 174.092 96.667 174.087 96.647 174.113 96.611 174.118 96.375 174.134 96.123 174.139 96.047 174.15 95.915 174.139 95.687 174.181 95.594 174.176 95.53 174.181 95.51 174.191 95.382 174.207 95.362 174.202 95.274 174.212 95.254 174.207 95.09 174.233 95.07 174.223 94.982 174.233 94.914 174.233 94.874 174.238 94.846 174.259 94.774 174.259 94.662 174.27 94.554 174.259 94.49 174.265 94.374 174.259 94.218 174.275 94.014 174.275 93.566 174.322 93.378 174.322 93.214 174.332 93.194 174.343 93.138 174.343 93.07 174.353 92.97 174.358 92.878 174.353 92.658 174.369 92.478 174.374 92.41 174.39 92.362 174.385 92.334 174.395 92.218 174.39 92.206 174.385 92.122 174.374 92.034 174.395 91.69 174.426 91.246 174.525 91.07 174.546 90.894 174.572 90.654 174.593 90.358 174.598 90.25 174.624 90.154 174.624 90.058 174.651 89.553 174.682 89.401 174.708 89.393 174.698 89.385 174.708 89.381 174.703 89.337 174.713 89.201 174.713 89.101 174.734 89.045 174.739 89.017 174.75 88.969 174.744 88.917 174.755 88.757 174.776 88.669 174.797 88.565 174.807 88.481 174.812 88.297 174.844 88.241 174.838 88.145 174.844 87.885 174.88 87.797 174.875 87.653 174.891 87.629 174.885 87.565 174.906 87.425 174.911 87.405 174.927 87.385 174.922 87.253 174.943 86.889 174.979 86.601 174.995 86.545 175.005 86.481 175 86.337 175 86.229 175.021 86.145 175.026 85.913 175.005 85.837 175.016 85.601 175.016 85.485 175.026 85.257 175.021 85.165 175.047 84.985 175.037 84.889 175.057 84.813 175.047 84.745 175.052 84.633 175.042 84.377 175.052 84.289 175.042 84.225 175.047 84.141 175.037 84.037 175.042 83.981 175.037 83.917 175.052 83.837 175.047 83.817 175.057 83.713 175.068 83.697 175.078 83.648 175.073 83.632 175.089 83.608 175.089 83.592 175.099 83.5 175.115 83.444 175.099 83.424 175.104 83.38 175.084 83.284 175.078 83.26 175.084 83.22 175.084 83.112 175.068 82.988 175.073 82.948 175.063 82.524 175.052 82.42 175.063 82.208 175.063 82.172 175.073 82.056 175.063 81.852 175.068 81.668 175.052 81.416 175.057 81.388 175.052 81.356 175.068 81.316 175.078 81.164 175.084 81.084 175.078 81.024 175.084 80.928 175.068 80.764 175.057 80.744 175.068 80.588 175.073 80.512 175.063 80.388 175.063 80.136 175.089 80.04 175.078 79.944 175.084 79.876 175.078 79.756 175.089 79.596 175.084 79.504 175.094 79.268 175.094 78.86 175.11 78.304 175.094 78.14 175.099 77.844 175.136 77.752 175.13 77.331 175.157 77.171 175.146 77.043 175.162 76.907 175.167 76.827 175.188 76.655 175.214 76.619 175.23 76.499 175.24 76.407 175.23 76.327 175.235 76.303 175.23 76.127 175.224 76.027 175.245 75.939 175.235 75.387 175.277 75.227 175.266 74.951 175.303 74.919 175.313 74.843 175.313 74.383 175.344 74.183 175.344 73.771 175.386 73.715 175.381 73.675 175.386 73.603 175.381 73.475 175.402 73.471 175.397 73.467 175.386 73.435 175.381 73.403 175.433 73.407 175.459 73.395 175.49 73.411 175.522 73.407 175.579 73.371 175.84 73.379 175.918 73.371 176.038 73.375 176.143 73.391 176.273 73.387 176.315 73.403 176.445 73.419 176.821 73.427 176.894 73.447 177.316 73.443 177.389 73.463 177.53 73.459 177.577 73.479 177.713 73.575 177.916 73.587 177.926 73.655 178.041 73.675 178.109 73.679 178.146 73.671 178.198 73.671 178.271 73.679 178.422 73.699 178.511 73.711 178.641 73.731 178.709 73.711 178.85 73.719 178.886 73.703 179.048 73.707 179.105 73.699 179.142 73.703 179.189 73.695 179.21 73.683 179.225 73.655 179.241 73.491 179.236 73.411 179.246 73.367 179.236 73.323 179.215 73.307 179.199 73.303 179.178 73.307 179.142 73.299 179.079 73.287 179.048 73.283 179.011 73.287 178.928 73.275 178.818 73.271 178.792 73.275 178.792 73.247 178.772 73.247 178.761 73.267 178.745 73.263 178.709 73.243 178.678 73.095 178.657 73.051 178.667 73.039 178.652 73.035 178.662 72.983 178.657 72.907 178.678 72.859 178.683 72.835 178.672 72.707 178.688 72.667 178.683"><title>2020-10-14 6.2km</title></polyline><polyline fill="none" stroke="#4dd2ff" stroke-linecap="round" stroke-linejoin="round" stroke-width=".5" points="107.424 172.274 108.133 173.626 107.615 176.827 109.442 179.316 111.324 180.063 113.588 178.285 116.288 177.431 121.224 178.676 127.333 169.394 126.488 168.647 122.561 168.611 105.597 169.358 105.079 174.48 103.333 180.241 103.579 182.482 104.233 184.224 104.861 184.651 108.842 182.802 111.842 179.388 113.806 178 117.406 177.36 120.379 178.57 121.442 178.498 127.279 169.465 126.597 168.647 125.888 168.647 105.597 169.358 105.106 174.48 103.333 180.348 103.579 182.517 104.642 184.722 108.679 183.051 112.442 178.605 113.752 177.894 118.142 177.36 121.142 178.818 127.306 169.358 126.488 168.647 105.597 169.394 105.133 174.373 103.388 179.814 104.124 184.011"><title>2020-10-14 6.4km</title></polyline><polyline fill="none" stroke="#4dd2ff" stroke-linecap="round" stroke-linejoin="round" stroke-width=".5" points="158 174.085 157.972 174.075 157.959 174.075 157.943 174.059 157.927 174.075 157.882 174.138 157.874 174.128 157.878 174.117 157.858 174.101 157.87 174.101 157.886 174.048 157.797 174.064 157.67 174.064 157.593 174.075 157.512 174.075 157.495 174.085 157.304 174.08 157.304 174.091 157.263 174.096 157.158 174.091 156.987 174.112 156.938 174.107 156.804 174.112 156.511 174.133 156.397 174.128 156.279 174.154 156.275 174.144 156.222 174.16 156.12 174.17 156.071 174.186 155.982 174.186 155.819 174.218 155.607 174.223 155.571 174.229 155.542 174.223 155.379 174.223 155.347 174.234 155.058 174.239 154.647 174.287 154.509 174.287 154.439 174.308 154.358 174.303 154.191 174.314 154.033 174.319 154.016 174.308 153.772 174.34 153.687 174.33 153.585 174.345 153.463 174.351 153.455 174.34 153.406 174.356 153.349 174.356 153.284 174.372 153.259 174.367 153.194 174.377 153.17 174.367 152.991 174.388 152.885 174.409 152.82 174.409 152.804 174.425 152.694 174.43 152.507 174.473 152.283 174.515 152.116 174.526 152.083 174.521 152.035 174.536 151.917 174.536 151.851 174.558 151.632 174.568 151.51 174.595 151.404 174.595 151.266 174.632 151.115 174.648 150.985 174.653 150.964 174.664 150.838 174.658 150.549 174.717 150.374 174.701 150.248 174.717 150.203 174.712 150.142 174.727 150.098 174.727 150.045 174.743 149.992 174.749 149.967 174.759 149.935 174.754 149.711 174.765 149.251 174.818 149.141 174.839 148.625 174.887 148.429 174.918 148.287 174.929 148.059 174.956 147.864 174.961 147.811 174.972 147.75 174.966 147.729 174.972 147.64 174.977 147.469 174.966 147.217 174.987 147.123 174.982 147.074 174.993 147.062 174.982 146.761 174.998 146.704 174.993 146.423 174.998 146.334 175.019 146.256 175.009 146.114 175.019 146.061 175.014 145.935 175.03 145.813 175.019 145.679 175.035 145.556 175.025 145.536 175.014 145.402 175.03 145.345 175.025 145.194 175.03 145.154 175.046 145.121 175.041 144.95 175.035 144.861 175.078 144.84 175.083 144.828 175.099 144.779 175.104 144.739 175.131 144.69 175.131 144.629 175.109 144.568 175.125 144.539 175.115 144.433 175.104 144.246 175.046 144.185 175.046 144.132 175.035 144.018 175.041 143.921 175.025 143.766 175.025 143.611 175.025 143.571 175.014 143.453 175.025 143.335 175.014 143.322 175.025 143.217 175.009 142.899 175.035 142.716 175.025 142.358 175.051 142.338 175.046 142.142 175.046 141.984 175.025 141.801 175.041 141.605 175.03 141.076 175.056 140.836 175.046 140.665 175.046 140.466 175.056 140.356 175.056 140.234 175.078 139.998 175.094 139.835 175.072 139.615 175.088 139.497 175.104 139.392 175.104 139.302 175.131 139.217 175.136 139.176 175.152 139.099 175.147 139.034 175.115 138.977 175.109 138.916 175.109 138.883 175.12 138.728 175.136 138.688 175.136 138.667 175.125 138.614 175.131 138.505 175.115 138.452 175.115 138.313 175.125 138.24 175.147 138.155 175.141 138.09 175.163 138.028 175.168 138.012 175.178 137.931 175.189 137.91 175.2 137.862 175.194 137.821 175.205 137.723 175.205 137.674 175.189 137.556 175.21 137.54 175.221 137.381 175.221 137.333 175.237 137.304 175.221 137.255 175.226 137.227 175.221 137.182 175.232 137.093 175.232 137.052 175.247 137.023 175.242 136.93 175.237 136.755 175.285 136.665 175.253 136.588 175.258 136.446 175.29 136.421 175.306 136.311 175.279 136.226 175.274 136.201 175.263 136.144 175.274 136.051 175.279 136.006 175.269 135.953 175.285 135.892 175.274 135.843 175.29 135.721 175.295 135.514 175.316 135.2 175.322 135.013 175.311 134.366 175.354 134.35 175.364 134.321 175.385 134.326 175.401 134.321 175.412 134.313 175.454 134.321 175.481 134.342 175.513 134.338 175.539 134.342 175.746 134.321 175.82 134.342 175.937 134.334 176.096 134.354 176.282 134.354 176.367 134.35 176.425 134.362 176.531 134.358 176.59 134.374 176.717 134.366 176.76 134.378 176.892 134.374 176.94 134.387 176.982 134.383 177.025 134.391 177.089 134.387 177.136 134.395 177.227 134.391 177.343 134.403 177.391 134.399 177.465 134.411 177.561 134.407 177.619 134.419 177.709 134.435 177.757 134.513 177.89 134.582 177.996 134.623 178.134 134.635 178.208 134.647 178.394 134.651 178.404 134.651 178.495 134.663 178.532 134.671 178.595 134.667 178.617 134.68 178.67 134.68 178.686 134.663 178.686 134.655 178.728 134.675 178.887 134.675 178.94 134.684 179.009 134.68 179.083 134.667 179.105 134.659 179.2 134.647 179.216 134.639 179.259 134.623 179.285 134.594 179.285 134.488 179.269 134.472 179.259 134.338 179.259 134.264 179.237 134.228 179.179 134.216 179.115 134.195 179.073 134.167 178.951 134.159 178.813 134.163 178.792 134.171 178.786 134.163 178.786 134.167 178.776 134.155 178.749 134.159 178.717 134.151 178.707 134.065 178.707 134 178.691"><title>2020-10-15 6.2km</title></polyline><polyline fill="none" stroke="#4dd2ff" stroke-linecap="round" stroke-linejoin="round" stroke-width=".5" points="164.667 179.244 164.682 179.239 164.678 179.259 164.682 179.254 164.671 179.244 164.694 179.239 164.69 179.3 164.701 179.315 164.717 179.571 164.728 179.636 164.724 179.687 164.728 179.737 164.767 179.747 164.79 179.777 164.844 179.797 165.002 179.787 165.071 179.777 165.118 179.757 165.129 179.742 165.137 179.697 165.133 179.546 165.145 179.405 165.114 179.149 165.129 179.099 165.125 179.079 165.129 179.048 165.121 179.023 165.125 178.918 165.133 178.893 165.121 178.817 165.114 178.697 165.087 178.636 164.998 178.496 164.99 178.501 164.956 178.435 164.925 178.365 164.921 178.325 164.909 178.315 164.909 178.27 164.894 178.219 164.898 178.164 164.882 178.139 164.882 178.119 164.882 178.018 164.871 177.988 164.879 177.968 164.89 177.888 164.882 177.843 164.89 177.792 164.882 177.752 164.879 177.596 164.879 177.561 164.882 177.546 164.867 177.486 164.863 177.35 164.859 177.335 164.863 177.199 164.844 177.034 164.844 176.958 164.825 176.828 164.829 176.702 164.817 176.647 164.829 176.601 164.829 176.496 164.848 176.471 164.84 176.421 164.848 176.365 164.859 176.32 164.859 176.295 164.879 176.265 164.894 176.255 165.133 176.25 165.299 176.235 165.318 176.225 165.372 176.23 165.472 176.225 165.526 176.215 165.75 176.205 165.869 176.189 165.915 176.194 166.046 176.184 166.239 176.184 166.293 176.174 166.551 176.179 166.875 176.159 166.983 176.139 167.029 176.149 167.145 176.139 167.198 176.149 167.218 176.144 167.356 176.174 167.453 176.154 167.603 176.139 167.734 176.104 167.973 176.129 168.012 176.144 168.112 176.139 168.277 176.109 168.389 176.074 168.613 176.059 168.655 176.044 168.832 176.049 168.821 176.044 168.821 176.059 168.886 176.039 169.013 176.029 169.11 176.039 169.129 175.999 169.214 175.993 169.241 175.999 169.349 175.993 169.441 176.004 169.58 176.004 169.622 175.993 169.765 175.983 169.846 175.993 170.054 175.978 170.123 175.988 170.459 175.963 170.651 175.973 170.709 175.963 170.748 175.968 170.805 175.958 170.925 175.963 171.118 175.948 171.326 175.963 171.611 175.953 171.672 175.963 171.861 175.943 171.938 175.948 171.988 175.943 172.382 175.943 172.536 175.933 172.667 175.943 172.751 175.933 172.879 175.943 172.983 175.933 172.998 175.938 173.048 175.933 173.333 175.928 173.391 175.918 173.476 175.938 173.607 175.923 173.75 175.938 173.854 175.923 173.985 175.933 174.15 175.923 174.243 175.923 174.397 175.918 174.428 175.928 174.705 175.918 174.724 175.913 174.744 175.918 174.863 175.913 174.882 175.923 174.998 175.913 175.06 175.918 175.094 175.913 175.252 175.928 175.41 175.913 175.449 175.918 175.503 175.908 175.638 175.913 175.68 175.903 175.796 175.898 175.923 175.898 175.985 175.908 176.073 175.893 176.197 175.893 176.324 175.908 176.393 175.903 176.424 175.908 176.547 175.893 176.751 175.893 176.778 175.888 176.867 175.898 177.164 175.888 177.245 175.893 177.322 175.888 177.353 175.893 177.545 175.868 177.561 175.873 177.657 175.863 177.68 175.868 177.753 175.863 177.796 175.853 177.908 175.848 177.969 175.828 178.073 175.818 178.135 175.787 178.17 175.793 178.235 175.793 178.316 175.737 178.347 175.727 178.382 175.732 178.424 175.712 178.447 175.712 178.52 175.692 178.709 175.667 179.125 175.627 179.148 175.617 179.318 175.632 179.418 175.657 179.526 175.662 179.854 175.617 179.965 175.612 180.039 175.637 180.254 175.632 180.328 175.617 180.343 175.607 180.447 175.612 180.547 175.586 180.613 175.586 180.667 175.566 180.852 175.541 181.037 175.496 181.114 175.496 181.202 175.476 181.268 175.471 181.322 175.481 181.36 175.466 181.495 175.441 181.561 175.416 181.661 175.411 181.711 175.396 181.761 175.396 181.857 175.37 181.884 175.37 181.911 175.391 181.969 175.396 182.613 175.295 182.659 175.3 182.844 175.28 182.948 175.29 183.025 175.275 183.268 175.265 183.487 175.235 183.588 175.235 183.618 175.245 183.692 175.235 183.85 175.24 183.865 175.23 184.012 175.225 184.058 175.215 184.127 175.22 184.243 175.21 184.362 175.215 184.382 175.205 184.597 175.179 184.628 175.184 184.721 175.169 184.809 175.174 184.983 175.154 185.314 175.144 185.422 175.119 185.526 175.109 185.545 175.099 185.653 175.114 185.765 175.109 185.819 175.114 185.961 175.099 186.058 175.104 186.185 175.084 186.289 175.084 186.37 175.059 186.382 175.064 186.382 175.054 186.374 175.064 186.378 175.054 186.393 175.079 186.401 175.079 186.474 175.064 186.62 175.069 186.721 175.064 186.794 175.049 186.952 175.044 186.979 175.034 187.067 175.039 187.094 175.029 187.218 175.019 187.318 175.019 187.364 175.029 187.491 175.024 187.518 175.014 187.642 174.999 187.807 174.994 188.077 174.948 188.123 174.948 188.177 174.968 188.2 174.958 188.212 174.973 188.216 174.968 188.212 174.958 188.193 174.933 188.189 174.898 188.17 174.863 188.139 174.782 188.139 174.747 188.108 174.682 188.096 174.607 188.073 174.536 188.039 174.471 188.035 174.446 188.008 174.386 187.981 174.345 187.973 174.315 187.938 174.285 187.915 174.24 187.908 174.195 187.911 174.179 187.958 174.139 187.977 174.109 188.012 174.089 188.008 174.079 188.05 174.034 188.073 174.029 188.162 173.968 188.266 173.933 188.301 173.903 188.316 173.863 188.393 173.838 188.451 173.798 188.489 173.788 188.501 173.742 188.563 173.702 188.563 173.692 188.593 173.682 188.605 173.702 188.659 173.677 188.667 173.642 188.632 173.571 188.647 173.536"><title>2020-10-15 6.7km</title></polyline><polyline fill="none" stroke="#4dd2ff" stroke-linecap="round" stroke-linejoin="round" stroke-width=".5" points="16.558 199.519 16.395 199.058 16.095 198.667 16.041 198.277 15.932 198.561 15.741 198.525 15.551 198.703 15.524 199.164 15.687 199.483 15.932 199.838 16.095 200.3 16.041 200.406 16.068 200.796 15.932 201.258 15.986 201.471 15.796 202.251 15.796 202.464 15.633 202.748 15.633 203.032 15.578 203.245 15.66 203.813 15.986 204.203 16.095 204.487 16.313 204.735 16.694 205.303 16.721 205.445 17.265 206.119 17.401 206.154 18.163 206.154 18.463 206.367 18.789 206.154 18.871 206.261 18.925 206.438 19.088 206.545 19.361 206.403 19.388 206.261 19.551 206.083 19.959 205.764 20.204 205.303 20.422 205.196 20.667 205.125 20.939 204.913 21.265 204.913 21.755 204.629 21.973 204.664 22.463 204.451 22.844 204.416 23.361 204.096 23.85 203.99 24.041 204.096 24.395 204.096 24.803 203.99 25.129 204.061 25.565 204.096 25.81 204.274 26.408 204.345 26.707 204.522 26.98 204.558 27.088 204.664 27.714 204.913 28.15 205.232 28.966 205.232 29.293 205.303 29.347 205.232 29.374 205.054 29.592 204.842 30.054 204.061 30.517 203.529 31.279 202.393 31.333 202.074 31.497 201.967 31.741 201.4 32.014 201.151 32.041 201.009 32.177 200.725 33.156 199.377 33.537 198.774 33.592 198.596 33.755 198.419 33.946 198.099 34.245 197.674 35.034 196.361 35.17 196.219 35.197 196.077 35.279 195.899 35.197 195.757 34.68 195.332 33.728 195.438 33.293 195.367 33.129 195.403 32.558 195.367 32.259 195.438 31.088 195.296 30.299 195.403 29.864 195.296 29.456 195.403 29.347 195.367 27.796 195.545 27.17 195.509 26.163 195.615 25.837 195.545 24.966 195.651 24.585 195.58 23.497 195.686 23.143 195.615 22.68 195.793 22.027 195.615 21.673 195.651 21.51 195.722 20.558 195.757 20.259 195.899 19.769 195.935 19.17 195.793 18.762 195.899 18.599 195.864 18.327 195.935 17.701 195.935 17.592 195.864 17.32 195.864 17.048 195.757 16.857 195.793 16.667 195.935 16.449 196.006 16.177 195.935 15.551 195.899 15.442 195.97 15.088 195.97 14.735 196.006 13.728 196.006 13.592 196.112 13.401 196.467 13.401 196.822 13.456 197.07 13.401 197.319 13.429 198.277 13.483 198.49 13.429 199.341 13.347 199.483 13.347 199.838 13.293 200.229 13.184 200.548 13.184 200.796 13.156 200.974 13.075 201.045 13.048 201.364 12.857 201.719 12.748 202.074 12.639 202.216 12.503 202.925 12.286 203.351 12.204 203.6 12.122 203.706 12.122 203.99 11.823 204.522 11.578 205.445 11.469 205.693 11.415 206.083 11.469 206.19 11.333 206.864 11.333 207.609 11.469 208.638 11.605 209.029 11.633 209.348 12.014 210.271 12.122 210.732 12.259 211.016 12.476 211.229 12.721 211.371 13.156 211.3 13.401 211.229 13.483 211.264 13.864 211.193 14.163 211.051 14.381 210.874 14.952 210.661 15.361 210.377 15.605 210.306 16.204 209.774 16.667 209.596 17.02 209.313 17.184 208.958 17.755 208.39 18.136 208.106 18.435 207.68 18.762 207.432 18.952 207.148 19.007 207.006 19.197 206.793 19.279 206.438 19.905 205.906 20.204 205.764 20.204 205.48 20.422 205.267 20.776 205.054 20.966 204.913 21.565 204.806 21.891 204.522 22.245 204.558 22.68 204.416 23.034 204.203 23.17 204.025 23.279 203.99 23.551 204.167 23.959 204.096 24.313 204.132 24.531 204.061 24.939 204.167 25.51 204.238 25.81 204.38 26.082 204.345 26.218 204.416 26.327 204.38 26.925 204.593 28.041 205.196 28.259 205.267 28.776 205.374 29.211 205.338 29.347 205.232 29.51 205.019 29.565 204.842 29.646 204.771 29.946 204.274 30.327 203.493 30.517 203.316 30.599 203.067 30.762 202.89 30.898 202.606 31.224 202.216 31.415 201.825 32.204 200.796 32.286 200.619 32.667 199.98 32.939 199.661 33.592 198.738 33.728 198.348 34.272 197.674 34.571 197.07 35.252 196.183 35.333 195.899 34.952 195.545 34.707 195.403 33.265 195.367 32.041 195.438 31.224 195.367 30.517 195.438 29.973 195.367 29.211 195.509 28.694 195.474 28.15 195.545 27.578 195.509 27.224 195.615 26.925 195.615 26.517 195.686 26.408 195.651 26 195.615 25.51 195.793 25.211 195.793 24.694 195.651 24.34 195.651 24.177 195.757 23.197 195.722 22.653 195.828 21.946 195.686 21.864 195.757 20.83 195.722 20.449 195.864 19.986 195.793 19.361 195.864 19.143 195.793 18.762 195.793 18.653 195.864 17.211 195.864 16.639 195.97 16.122 195.935 14.871 196.006 13.755 195.97 13.592 196.077 13.483 196.254 13.429 197.993 13.347 198.348 13.401 198.561 13.374 199.058 13.401 199.341 13.238 200.335 13.265 200.619 13.102 201.009 13.075 201.222 12.776 201.932 12.694 202.322 12.585 202.606 12.476 203.032 12.259 203.493 12.15 203.919 11.878 204.487 11.878 204.7 11.769 204.948 11.741 205.125 11.578 205.374 11.442 205.942 11.442 206.474 11.333 206.971 11.333 207.538 11.415 208.213 11.633 209.135 12.041 210.306 12.259 210.838 12.531 211.193 12.667 211.264 13.156 211.193 13.401 211.087 13.483 210.98 13.619 211.016 14.272 210.803 14.517 210.767 15.061 210.625 15.17 210.483 15.279 210.483 15.361 210.342 15.469 210.342 15.85 210.022 16.068 209.951 16.204 209.774 16.667 209.348 16.776 209.419 16.939 209.348 17.211 209.135 17.347 208.958 17.592 208.78 17.728 208.496 18.19 208 18.272 207.751 18.544 207.361 18.952 207.042 19.197 206.9 19.388 206.509 19.469 206.509 19.633 206.296 19.714 206.013 20.122 205.8 20.15 205.445 20.259 205.338 20.694 205.125 21.184 204.983 21.456 204.983 21.51 204.913 21.565 204.735 21.701 204.593 21.891 204.522 22.218 204.487 22.789 204.309 22.816 204.025 22.952 203.919 23.361 203.954 23.85 204.096 24.259 204.025 24.585 204.061 24.776 204.025 25.156 204.132 26.136 204.203 27.224 204.593 27.551 204.771 28.041 205.196 28.422 205.409 28.612 205.48 29.265 205.445 29.401 205.338 29.81 204.593 29.946 204.238 30.435 203.387 30.816 202.854 30.898 202.642 31.224 202.251 31.66 201.577 32.34 200.37 32.558 200.122 32.639 199.945 32.776 199.803 33.129 199.199 34.163 197.922 34.925 196.574 35.17 196.29 35.333 195.935 35.143 195.828 35.007 195.615 34.707 195.403 34.218 195.474 33.401 195.367 32.993 195.438 32.912 195.367 32.694 195.367 32.476 195.438 32.041 195.367 31.469 195.474 31.388 195.403 31.197 195.438 30.871 195.332 29.918 195.403 29.429 195.545 28.966 195.509 28.884 195.438 28.313 195.58 27.769 195.615 27.197 195.545 26.844 195.651 26.626 195.615 26.163 195.615 25.782 195.722 25.701 195.793 25.347 195.828 24.531 195.793 24.231 195.828 24.068 195.935 23.361 195.793 23.306 195.722 23.252 195.793 22.844 195.899 22.68 195.864 22.517 195.722 22.136 195.651 21.864 195.686 21.483 195.793 21.156 195.757 20.177 195.793 19.959 195.722 19.605 195.793 19.415 195.722 19.306 195.793 19.034 195.757 18.789 195.864 18.19 195.899 17.537 195.864 17.102 195.935 16.83 196.041 16.449 195.935 16.177 195.97 15.714 195.864 15.415 195.97 14.898 195.899 13.864 196.006 13.619 196.148 13.537 196.396 13.483 196.822 13.537 197.106 13.537 197.567 13.429 198.028 13.456 198.312 13.429 198.667 13.483 199.377 13.265 200.016 12.884 200.69 12.857 200.974 12.884 201.471 12.803 201.648 12.803 201.861 12.748 202.003 12.721 202.393 12.122 203.6 12.068 203.954 11.878 204.309 11.878 204.487"><title>2020-10-15 6.5km</title></polyline><polyline fill="none" stroke="#ff9300" stroke-linecap="round" stroke-linejoin="round" stroke-width=".5" points="47.57 198.473 46.232 198.794 46.833 200.467 46.341 202.782 46.614 204.277 48.225 206.057 50.055 206.627 52.403 204.918 55.27 204.063 60.02 205.132 65.945 195.981 64.853 195.304 44.294 196.088 43.829 200.716 42.027 207.019 42.628 210.508 43.311 211.22 47.352 209.796 50.191 206.485 53.195 204.348 55.597 204.028 59.447 205.345 60.157 205.132 65.891 196.194 65.427 195.411 62.942 195.375 44.43 196.016 43.966 200.681 42 207.339 42.355 209.547 43.365 211.362 46.396 210.152 48.171 208.87 51.038 205.559 54.232 203.921 59.939 205.274 65.973 196.016 65.59 195.447 63.352 195.269 44.457 195.91 43.72 201.713 42.683 204.028 42.055 207.232 42.355 209.618 43.474 211.327 46.833 210.365 51.065 205.452 52.949 204.455 56.471 204.17 59.857 205.523 66 195.91 65.154 195.34 59.338 195.304 44.239 196.123 43.966 200.36 42.082 206.983 42.355 209.511 43.038 211.184 43.693 211.362 48.007 209.333 51.201 205.523 54.068 204.135 56.553 204.241 59.993 205.559 65.973 196.159 65.372 195.375 63.242 195.34 44.266 196.016 44.075 199.898 42.382 204.775 42.027 207.695 42.437 209.867 43.365 211.398 47.133 209.867 50.218 206.342 52.84 204.811 57.126 204.277 59.939 205.381 65.891 196.159 65.317 195.411 60.73 195.34 44.43 195.945 43.857 201.179 42.027 206.734 42.3 209.369 43.256 211.256"><title>2020-10-16 12.9km</title></polyline><polyline fill="none" stroke="#4dd2ff" stroke-linecap="round" stroke-linejoin="round" stroke-width=".5" points="80.513 199.967 80.374 201.916 81.114 202.921 82.193 203.384 83.333 202.56 84.952 201.916 85.738 201.896 87.896 202.58 91.333 197.414 90.902 196.992 72.882 197.534 72.667 198.982 72.96 205.153 73.329 205.555 75.164 205.514 77.337 206.077 78.555 206.057 79.958 205.575 83.703 202.298 85.461 201.856 86.247 201.916 88.235 202.942 90.131 204.972 92.181 206.54 94.17 204.65 95.11 202.942 96.667 201.173 93.954 198.559 92.366 197.394 91.765 197.454 91.025 196.992 81.083 197.112 72.913 197.534 72.697 198.479 72.96 202.359 72.744 203.926 73.314 209.675 78.832 209.313 78.817 208.369 78.077 206.54 78.462 206.519"><title>2020-10-18 6.6km</title></polyline><polyline fill="none" stroke="#4dd2ff" stroke-linecap="round" stroke-linejoin="round" stroke-width=".5" points="106.561 199.354 106.815 201.038 106.502 203.257 108.536 205.604 110.883 203.946 113.426 203.64 116.869 205.093 118.903 207.44 121.015 209.174 123.832 206.879 127.333 202.696 122.13 197.977 120.233 197.365 105.192 197.849 104.859 198.206 104.937 200.579 103.431 205.502 103.509 207.108 104.331 208.766 106.228 208.256 110.336 204.43 112.292 203.614 116.243 204.762 121.192 209.276 123.519 207.134 127.216 202.619 122.15 198.002 120.155 197.365 105.055 197.875 104.644 201.624 103.333 205.986 103.627 207.619 104.292 208.868 106.932 207.874 109.612 204.94 111.979 203.665 113.778 203.844 116.517 204.966 119.607 208.027 121.446 209.302 127.275 202.772 126.531 201.777 122.013 197.926 120.272 197.39 105.192 197.773 104.859 198.079 104.683 201.522 103.822 203.589 103.372 206.088"><title>2020-10-21 8.5km</title></polyline><polyline fill="none" stroke="#ffa900" stroke-linecap="round" stroke-linejoin="round" stroke-width=".5" points="137.415 199.618 137.044 200.051 137.551 201.578 137.122 201.832 137.102 203.69 138.332 204.987 139.62 205.7 140.634 204.504 141.727 203.944 145.005 203.791 147.346 205.115 151.6 209.186 153.941 207.405 157.824 202.825 157.59 202.188 152.712 198.041 150.976 197.43 135.893 197.786 135.541 198.168 135.288 201.578 134.02 205.751 134.332 207.786 134.898 208.855 136.654 208.371 137.961 207.532 140.888 204.377 142.215 203.715 143.815 203.639 146.976 204.835 151.932 209.287 158 202.621 152.537 197.964 150.741 197.379 135.698 197.863 135.483 200.763 134 205.852 134.371 207.888 134.937 208.829 137.512 207.837 140.907 204.377 143.444 203.664 145.239 203.97 147.346 205.089 150.332 208.219 151.854 209.237 153.746 207.583 157.902 202.596 152.966 198.219 150.995 197.481 135.756 197.914 135.249 201.858 134 205.827 134.234 207.455 135.112 208.906 137.239 208.041 140.654 204.657 143.483 203.715 145.571 204.122 147.307 205.115 151.659 209.287 154.41 206.896 157.805 202.748 157.298 201.832 152.166 197.659 149.239 197.379 135.854 197.939 135.463 201.018 134.117 205.216"><title>2020-10-23 11.3km</title></polyline><polyline fill="none" stroke="#4dd2ff" stroke-linecap="round" stroke-linejoin="round" stroke-width=".5" points="167.836 199.071 168.073 200.74 167.64 202.974 168.88 205.002 170.022 205.67 171.243 204.617 173.29 203.565 175.653 203.821 178.015 205.028 182.268 209.29 182.78 209.213 188.627 202.794 187.938 201.716 183.607 198.147 181.382 197.377 166.38 197.762 166.163 200.509 164.667 205.516 164.765 207.416 165.454 208.879 166.97 208.545 168.092 207.826 171.558 204.283 172.818 203.693 175.023 203.642 178.035 205.054 182.583 209.315 188.667 202.717 188.273 202.024 183.41 197.967 181.461 197.351 169.097 197.634 166.439 197.813 166.124 198.198"><title>2020-10-24 5.3km</title></polyline><polyline fill="none" stroke="#4dd2ff" stroke-linecap="round" stroke-linejoin="round" stroke-width=".5" points="14.603 226.618 14.798 227.971 14.446 230.064 15.64 231.647 17.03 232.183 17.97 231.264 19.673 230.345 22.276 230.396 24.606 231.596 29.147 235.91 30.987 234.353 35.333 229.273 35.118 228.788 30.244 224.78 28.403 224.065 18.635 224.116 12.997 224.524 12.684 228.149 11.333 232.285 11.686 234.429 12.371 235.425 13.937 235.118 15.405 234.123 18.987 230.626 21.395 230.192 24.958 231.825 29.324 235.91 35.314 229.221 30.067 224.703 28.09 224.065 13.056 224.499 12.645 228.379 11.392 231.902 11.784 234.787 12.547 235.45 15.151 234.25 18.831 230.677 21.102 230.166 24.958 231.8 27.934 234.914 29.461 235.935 35.294 229.247 30.185 224.703 28.286 224.09 13.232 224.448 12.899 224.805 12.762 228.124 11.333 232.489 11.725 234.327"><title>2020-10-25 8.5km</title></polyline><polyline fill="none" stroke="#4dd2ff" stroke-linecap="round" stroke-linejoin="round" stroke-width=".5" points="45.297 226.597 45.493 227.748 45.101 230.23 46.239 231.663 47.495 232.354 48.535 231.356 50.242 230.793 50.497 230.307 52.911 230.512 55.246 231.689 59.858 235.937 62.232 234.043 62.899 232.917 65.529 230.41 66 229.156 62.114 225.701 60.662 224.652 59.132 224.165 43.766 224.498 43.295 228.286 42.118 231.612 42.098 233.455 42.706 235.656 44.335 235.272 45.886 234.427 48.221 231.638 49.3 230.87 52.028 230.333 53.343 230.64 55.442 231.817 60.113 235.963 65.392 230.307 65.902 229.181 60.78 224.677 58.994 224.14 43.727 224.498 43.334 228.234 42.373 230.665 42 232.815 42.51 235.093 42.962 235.656 44.571 235.195 46.337 233.967 49.32 230.538 51.733 230.333 52.793 230.461 55.285 231.689 59.956 235.988 65.137 230.614 65.882 229.539 65.804 229.002 60.662 224.626 58.68 224.012 43.943 224.498 43.57 224.856 43.295 228.337 42.118 231.382 42 233.276 42.471 234.888 42.942 235.553 44.021 235.425 45.905 234.376 46.926 233.173"><title>2020-10-26 8.8km</title></polyline><polyline fill="none" stroke="red" stroke-linecap="round" stroke-linejoin="round" stroke-width=".5" points="75.738 226.544 76.168 227.972 75.777 230.064 77.087 231.798 78.241 232.411 80.999 230.472 83.816 230.625 86.222 231.849 90.564 235.981 96.608 229.503 96.275 228.84 91.385 224.809 89.117 223.993 74.466 224.478 73.958 228.431 73.117 230.421 72.667 232.742 73.058 234.579 73.664 235.522 75.972 234.732 80.178 230.829 82.486 230.344 84.011 230.676 86.378 232.002 90.447 235.981 92.95 233.915 96.588 229.605 96.315 228.891 91.366 224.707 89.351 224.07 74.466 224.427 74.016 228.227 72.745 232.334 72.804 233.941 73.723 235.548 74.76 235.395 76.696 234.221 79.747 231.212 81.351 230.319 82.368 230.293 84.461 230.88 86.378 231.926 90.623 236.007 96.158 230.37 96.647 229.426 91.405 224.758 89.469 224.095 74.368 224.503 73.958 228.278 72.784 232.079 72.804 233.89 73.703 235.497 75.992 234.783 79.65 231.237 82.662 230.574 83.953 230.804 86.163 231.875 90.505 235.981 96.667 229.477 91.425 224.784 89.547 224.095 74.584 224.427 74.231 224.784 73.977 228.329 72.706 232.334 72.921 234.119 73.566 235.497 74.623 235.471 76.051 234.757 78.632 232.053 80.843 231.365 81.077 230.88 83.346 230.446 86.202 231.875 90.564 235.956 91.855 234.961 96.588 229.452 96.373 228.942 91.542 224.835 89.527 224.095 74.388 224.503 74.212 227.411 72.764 232.053 72.96 234.17 73.43 235.344 73.899 235.599 76.481 234.477 78.867 231.824 80.236 230.957 81.332 230.395 83.249 230.395 86.124 231.9 90.662 235.93 95.923 230.446 96.588 229.273 91.346 224.682 89.508 224.146 74.447 224.605 74.075 228.049 72.784 231.9 73.019 234.145 73.801 235.548 76.129 234.604 79.395 231.237 81.469 230.395 85.498 231.441 90.564 236.007 96.569 229.452 96.452 228.942 91.405 224.707 89.39 224.044 74.642 224.554 74.29 224.886 74.075 228.202 72.882 231.492 72.921 233.992 73.508 235.318 74.173 235.471 75.816 234.808 77.85 232.921"><title>2020-10-27 20.2km</title></polyline><polyline fill="none" stroke="#4dd2ff" stroke-linecap="round" stroke-linejoin="round" stroke-width=".5" points="106.583 226.49 106.916 227.766 106.328 229.834 107.405 231.519 108.775 232.31 110.165 231.162 111.81 230.472 113.395 230.37 116.841 231.851 121.01 235.935 123.555 233.842 127.333 229.502 122.655 225.162 120.09 224.065 109.911 224.09 105.154 224.524 104.841 224.907 104.625 228.175 103.412 231.493 103.529 234.148 104.234 235.501 105.428 235.272 107.327 234.225 109.695 231.519 111.868 230.498 113.924 230.421 116.312 231.264 120.462 224.703 119.718 224.09 105.115 224.448 104.567 228.302 103.333 232.03 103.412 233.663 104.116 235.45"><title>2020-10-29 5.0km</title></polyline><polyline fill="none" stroke="#4dd2ff" stroke-linecap="round" stroke-linejoin="round" stroke-width=".5" points="137.056 226.321 137.389 227.726 137.076 230.153 138.232 231.635 139.27 232.325 142.581 230.102 144.403 230.358 147.185 231.635 151.789 235.953 158 229.464 152.612 224.66 150.829 224.022 135.685 224.507 135.273 228.135 134 231.942 134.216 234.19 134.96 235.519 137.468 234.522 140.975 231.022 142.346 230.332 143.62 230.332 145.109 230.639 147.499 231.789 151.789 235.978 157.902 229.387 157.726 228.876 152.671 224.635 150.829 224.022 135.842 224.456 135.548 224.814 135.411 227.65 134.02 231.84 134.02 233.424 134.529 235.008"><title>2020-11-03 5.7km</title></polyline><polyline fill="none" stroke="#4dd2ff" stroke-linecap="round" stroke-linejoin="round" stroke-width=".5" points="168.067 225.95 167.831 226.693 168.264 227.693 167.871 228.103 167.635 230.205 168.853 231.538 170.131 232.358 173.256 230.359 175.654 230.487 177.993 231.717 182.514 235.972 185.129 233.614 188.647 229.411 188.097 228.513 183.399 224.643 181.492 224.028 166.593 224.438 166.2 224.72 165.964 228.052 164.667 232.333 164.824 233.896 165.492 235.511 168.205 234.614 171.546 231.077 174.809 230.308 178.19 231.846 182.691 235.947 186.819 231.794 188.667 229.205 183.32 224.566 181.59 224.053 166.337 224.463 166.141 227.334 164.706 231.871 164.765 233.742 165.237 234.921"><title>2020-11-04 5.7km</title></polyline><polyline fill="none" stroke="#4dd2ff" stroke-linecap="round" stroke-linejoin="round" stroke-width=".5" points="14.465 252.659 14.759 254.139 14.328 256.411 15.542 258.096 16.952 258.811 19.633 257.05 22.452 257.228 24.802 258.53 29.01 262.513 30.146 261.849 35.314 256.08 29.93 251.178 29.187 251.255 28.345 250.719 13.036 251.178 12.704 254.778 11.333 259.066 11.47 260.624 12.41 262.206 14.837 261.236 18.204 257.918 19.79 257.152 21.63 256.948 24.195 258.02 29.147 262.64 31.771 260.266 35.333 256.156 30.204 251.331 28.071 250.693 12.997 251.204 12.821 254.088 11.431 258.045 11.392 260.062"><title>2020-11-05 5.7km</title></polyline><polyline fill="none" stroke="#4dd2ff" stroke-linecap="round" stroke-linejoin="round" stroke-width=".5" points="44.951 253.242 45.364 254.268 45.01 256.628 46.269 258.296 47.351 258.937 50.38 257.09 53.193 257.193 55.515 258.475 59.98 262.657 65.98 256.167 65.764 255.551 60.866 251.344 58.761 250.677 43.652 251.138 43.22 255.166 42 258.655 42.216 260.733 42.885 262.221 44.498 261.785 45.895 260.887 48.669 257.86 51.462 256.936 53.508 257.347 55.397 258.373 60.02 262.605 66 256.038 65.843 255.576 60.885 251.369 58.957 250.728 43.849 251.164 43.534 251.498 43.18 255.166 42.02 258.116 42.275 261.041"><title>2020-11-06 5.7km</title></polyline></svg>