<svg xmlns="http://www.w3.org/2000/svg" xmlns:ev="http://www.w3.org/2001/xml-events" xmlns:xlink="http://www.w3.org/1999/xlink" width="200mm" height="300mm" baseProfile="full" version="1.1" viewBox="0 0 200 300"><rect width="200" height="300" x="0" y="0" fill="#222"/><text style="font-size:12px;font-family:Arial;font-weight:700" x="10" y="20" fill="#FFF">Over 10km Runs</text><text style="font-size:4px;font-family:Arial" x="10" y="280" fill="#FFF">ATHLETE</text><text style="font-size:9px;font-family:Arial" x="10" y="290" fill="#FFF">DuanFei</text><text style="font-size:4px;font-family:Arial" x="120" y="280" fill="#FFF">STATISTICS</text><text style="font-size:3px;font-family:Arial" x="120" y="285" fill="#FFF">Number: 30</text><text style="font-size:3px;font-family:Arial" x="120" y="290" fill="#FFF">Weekly: 2.1</text><text style="font-size:3px;font-family:Arial" x="141" y="285" fill="#FFF">Total: 226.2 km</text><text style="font-size:3px;font-family:Arial" x="141" y="290" fill="#FFF">Avg: 7.5 km</text><text style="font-size:3px;font-family:Arial" x="167" y="285" fill="#FFF">Min: 5.2 km</text><text style="font-size:3px;font-family:Arial" x="167" y="290" fill="#FFF">Max: 23.6 km</text><polyline fill="none" stroke="#4dd2ff" stroke-linecap="round" stroke-linejoin="round" stroke-width=".5" points="23.309 33.426 23.74 32.676 30.345 32.551 33.84 33.426 36.52 32.613 41.355 34.302 39.009 61.886 35.946 64.2 14.358 56.569 17.469 32.426 34.51 32.988 36.568 34.49 41.451 34.365 39.009 61.698 37.765 63.387 35.611 64.137 14.597 56.257 17.709 32.113 29.34 32.676 41.642 34.552 39.201 60.948 38.148 63.262 35.85 64.137 14.741 56.257 17.709 32.238 21.634 31.8 23.309 32.551"><title>2020-06-12 5.5km</title></polyline><polyline fill="none" stroke="#4dd2ff" stroke-linecap="round" stroke-linejoin="round" stroke-width=".5" points="59.731 32.809 73.238 32.809 77.483 34.448 76.084 54.745 74.347 63.191 72.562 64.2 70.536 64.011 55.679 59.031 50.517 56.384 51.048 49.765 53.604 32.241 73.479 32.998 77.531 34.258 75.312 61.553 73.045 64.011 70.199 63.885 58.67 59.977 50.469 56.447 52.736 35.393 53.411 32.367 54.569 31.8 65.423 32.178 68.945 33.124 73.768 32.809 77.676 34.511 75.36 60.922 74.444 62.939 72.562 64.137 63.879 62.12 50.324 56.258 52.302 40.814"><title>2020-06-16 5.2km</title></polyline><polyline fill="none" stroke="#4dd2ff" stroke-linecap="round" stroke-linejoin="round" stroke-width=".5" points="95.537 33.405 100.213 32.541 107.061 33.096 113.106 35.133 110.697 62.287 108.808 63.891 106.966 64.138 86.847 56.486 89.586 32.726 94.167 31.8 111.642 34.33 113.059 34.948 113.2 37.725 111.784 53.462 110.697 61.608 108.714 64.015 106.069 63.83 86.894 56.486 89.208 34.145 89.869 32.664 94.781 32.17 107.816 33.343 113.011 34.886 110.886 60.806 110.083 62.966 107.816 64.2 86.8 56.239 89.35 35.75"><title>2020-07-10 5.3km</title></polyline><polyline fill="none" stroke="#4dd2ff" stroke-linecap="round" stroke-linejoin="round" stroke-width=".5" points="132.458 32.363 136.144 31.863 147.68 33.364 149.403 34.239 147.057 61.636 146.004 63.387 143.419 64.2 131.405 60.197 122.693 56.006 125.374 32.676 127.432 31.8 140.691 33.114 143.994 32.676 149.594 34.365 147.297 60.572 145.813 63.387 143.467 64.137 133.463 60.385 131.405 60.76 122.454 56.069 125.421 32.488 126.379 31.8 131.309 31.863 133.655 32.738 145.143 33.051 149.594 34.427 146.914 62.136 143.898 64.2 135.521 61.385 133.655 60.009 131.644 60.197 122.358 55.756 125.326 33.489 125.996 31.988 135.617 32.05 149.642 34.239 146.866 61.26 145.765 63.074 143.419 63.887 131.692 60.26 122.549 55.944 125.374 32.238 126.714 32.05"><title>2020-07-18 7.2km</title></polyline><polyline fill="none" stroke="#ffb100" stroke-linecap="round" stroke-linejoin="round" stroke-width=".5" points="168.309 33.196 179.592 33.135 184.746 34.894 182.656 61.106 181.542 63.047 179.36 63.897 158.976 56.495 161.947 32.771 169.469 32.346 182.888 34.166 184.839 35.016 185.024 35.865 183.817 54.371 182.563 61.348 181.403 63.169 180.056 63.897 177.224 63.533 159.115 56.555 159.44 51.095 162.087 32.649 171.234 32.346 184.839 35.077 183.864 54.128 182.517 61.288 180.613 63.654 177.409 63.715 159.022 56.373 161.669 34.348 162.412 32.589 171.559 32.225 184.699 34.834 182.888 61.47 181.078 63.715 179.313 64.2 158.976 56.131 161.808 33.438 162.412 32.589 166.498 31.921 171.698 31.8 176.852 33.499 180.985 33.438 185.024 35.077 184.049 52.551 182.563 61.166 180.799 63.593 178.524 63.897 159.069 56.191 161.808 33.317 162.551 32.528 166.637 31.982 181.681 33.863 184.885 35.077 182.471 61.348 181.542 63.047 179.127 63.897 158.976 56.495 162.319 32.771"><title>2020-07-31 10.8km</title></polyline><polyline fill="none" stroke="#4dd2ff" stroke-linecap="round" stroke-linejoin="round" stroke-width=".5" points="25.24 73.098 37.185 73.968 41.183 75.585 40.088 94.117 38.422 103.01 36.662 104.813 34.758 104.938 16.959 98.47 14.77 96.978 17.625 73.346 26.429 72.787 34.282 74.279 37.518 73.782 41.326 75.958 39.327 99.092 37.375 104.44 35.329 105 28.761 103.197 14.722 97.538 15.341 88.023 17.578 73.035 27.524 72.6 41.088 75.274 39.279 99.279 38.375 103.197 36.138 105 14.96 97.04 17.435 73.533 22.908 72.6 37.661 74.341 41.23 75.647 38.994 101.207 37.947 103.818 35.995 105 28 102.823 14.674 97.227 16.388 82.053"><title>2020-08-07 7.0km</title></polyline><polyline fill="none" stroke="#4dd2ff" stroke-linecap="round" stroke-linejoin="round" stroke-width=".5" points="60.38 73.775 73.44 74.146 77.084 75.692 76.232 95.169 74.623 102.96 73.345 104.444 71.027 104.815 51.106 96.777 53.755 73.651 59.008 72.971 69.229 74.331 73.44 73.837 77.084 75.506 77.226 79.711 75.333 99.312 74.765 102.589 73.393 104.382 71.595 105 66.39 103.331 50.774 96.9 53.708 73.466 64.544 72.6 69.749 74.146 75.664 74.393 77.226 76.125 76.09 94.303 74.386 103.331 71.311 105 56.689 99.744 51.058 96.715 53.614 73.837 58.724 72.662 65.207 73.033 67.62 74.331"><title>2020-08-09 5.6km</title></polyline><polyline fill="none" stroke="#4dd2ff" stroke-linecap="round" stroke-linejoin="round" stroke-width=".5" points="95.649 74.556 108.748 74.74 113.099 75.718 111.836 94.241 110.386 102.983 108.655 104.633 106.175 104.633 92.608 99.437 87.462 97.114 86.854 96.014 89.801 73.823 107.439 74.74 113.052 76.024 111.228 99.743 110.152 103.349 107.532 104.817 87.275 96.992 89.708 73.395 100.094 73.945 113.052 76.085 111.134 99.559 109.497 104.144 107.953 104.878 105.474 104.633 87.369 97.114 87.181 95.953 89.988 73.517 101.123 72.6 105.708 74.495 111.322 74.862 113.146 76.39 111.696 96.197 110.573 102.86 107.719 105 87.322 97.236 89.567 75.473"><title>2020-08-14 7.1km</title></polyline><polyline fill="none" stroke="#4dd2ff" stroke-linecap="round" stroke-linejoin="round" stroke-width=".5" points="131.363 73.793 136.745 73.165 149.431 74.798 147.605 98.596 146.74 102.677 144.241 105 122.425 97.089 125.164 74.17 125.645 72.851 130.738 72.6 145.875 74.044 149.575 75.112 147.028 101.735 146.019 103.87 144.337 104.874 130.979 100.73 122.425 96.9 125.164 74.484 125.549 72.914 127.182 72.663 144.001 73.667 149.431 75.3 146.932 101.923 145.875 103.995 143.857 104.937 134.054 101.295 131.123 100.982 122.665 96.9 125.068 74.735"><title>2020-08-20 5.3km</title></polyline><polyline fill="none" stroke="#4dd2ff" stroke-linecap="round" stroke-linejoin="round" stroke-width=".5" points="168.117 73.356 179.453 73.735 185.435 75.374 184.229 94.347 182.685 103.172 181.238 104.748 179.26 105 158.71 96.68 161.46 72.915 166.477 72.6 185.145 74.932 184.422 93.654 182.685 103.424 180.997 104.748 178.874 104.874 158.614 96.869 161.508 72.663 185.193 74.932 184.036 94.158 182.299 104.244 179.549 104.937 166.525 100.651 158.758 96.806 158.662 94.095 161.653 72.663 185.193 75.058 182.782 103.613 179.646 105 158.565 96.995 161.604 72.978 167.586 72.6 185.049 74.806 185.29 80.858 183.312 101.596 181.961 104.244 179.26 104.811"><title>2020-08-21 8.1km</title></polyline><polyline fill="none" stroke="#4dd2ff" stroke-linecap="round" stroke-linejoin="round" stroke-width=".5" points="22.906 133.509 27.43 130.823 33.204 131.159 35.815 132.31 43.612 120.896 43.906 119.457 43.133 118.881 32.652 118.881 15.147 119.793 14.411 126.027 11.8 133.413 12.205 137.825 13.639 140.223 15.551 139.887 19.449 137.777 22.649 133.94 26.878 131.207 31.696 130.727 35.043 132.454 35.889 132.262 44.053 120.176 43.685 119.169 42.251 118.833 15.257 119.841 14.705 120.656 14.448 125.883 12.278 132.166 11.8 135.907 13.602 140.367 18.346 138.64 24.782 132.214 27.136 131.063 32.101 130.775 35.852 132.358 44.2 119.553 43.538 118.881 38.61 118.833 14.852 119.745 14.705 125.02 12.462 131.542 11.8 135.859 13.05 139.599 14.154 140.319"><title>2020-09-02 6.1km</title></polyline><polyline fill="none" stroke="#ffb500" stroke-linecap="round" stroke-linejoin="round" stroke-width=".5" points="59.089 133.567 63.34 130.843 67.775 130.652 70.817 132.277 72.247 132.086 79.833 119.515 78.148 118.75 74.299 118.703 51.062 119.611 50.219 126.971 47.8 135.383 48.606 138.825 49.779 140.354 55.277 138.251 59.675 132.946 61.838 131.608 67.335 130.747 71.953 132.277 80.127 119.85 79.394 119.085 75.655 118.559 64.073 119.659 55.424 119.324 50.622 119.993 50.586 125.681 47.8 134.284 48.643 139.111 49.926 140.593 54.471 138.729 59.895 132.659 62.974 130.891 66.822 130.699 71.917 132.372 80.127 119.611 78.881 118.942 73.933 118.798 50.879 119.85 50.292 126.446 47.837 134.81 48.46 138.347 49.999 140.497 54.581 138.586 59.895 132.898 63.853 130.843 67.775 130.891 72.027 132.42 80.2 119.802 79.394 119.037 75.032 118.846 51.062 119.85 50.439 126.015 48.02 133.424 48.167 137.295 49.779 140.641 54.361 138.825 59.015 133.472 63.23 131.13 67.005 130.604 71.147 132.325 72.063 132.181 79.87 120.28 79.614 119.276 78.257 118.942 51.025 119.898 50.622 126.063 47.947 133.95 48.57 138.633 49.926 140.497 55.533 138.012"><title>2020-09-04 10.6km</title></polyline><polyline fill="none" stroke="#4dd2ff" stroke-linecap="round" stroke-linejoin="round" stroke-width=".5" points="94.771 133.811 98.404 131.323 101.926 130.749 108.421 132.375 111.65 126.299 116.2 119.887 115.099 118.93 112.347 118.834 87.066 119.743 86.332 126.49 83.837 134.672 84.094 137.735 85.635 140.462 90.258 138.548 96.166 132.663 98.734 131.323 102.073 130.701 108.238 132.184 115.87 119.982 115.063 118.93 107.1 118.738 99.248 119.504 87.176 119.552 86.589 120.365 86.552 125.868 83.8 134.864 84.571 139.218 85.818 140.366 91.102 137.974 94.588 134.098 99.138 131.036 103.027 130.701 106.917 132.232 108.348 132.041 115.686 119.456 114.952 118.93 105.559 118.786 87.066 119.743 86.222 127.016 84.094 132.375 83.983 137.591"><title>2020-09-05 6.0km</title></polyline><polyline fill="none" stroke="#ff7800" stroke-linecap="round" stroke-linejoin="round" stroke-width=".5" points="132.598 131.926 136.092 130.439 139.586 130.679 142.417 132.07 144.33 132.214 152.09 120.128 151.832 119.169 147.971 118.689 122.963 119.649 122.117 127.274 120.205 131.878 119.874 134.756 120.536 138.448 121.859 140.271 126.162 138.736 133.885 131.447 137.085 130.487 143.999 132.166 152.053 120.032 151.391 118.929 147.493 118.642 123.183 119.649 122.301 126.747 119.91 133.077 120.572 138.592 122.08 140.415 127.744 137.441 132.157 132.502 134.731 131.015 138.593 130.487 143.962 132.262 152.2 119.793 151.685 119.025 150.214 118.833 122.963 119.697 122.043 127.178 119.874 134.372 120.315 137.921 121.676 140.558 126.42 138.64 131.385 133.317 134.805 130.919 138.262 130.535 143.962 132.358 152.016 119.601 151.391 118.833 149.515 118.689 128.59 119.121 122.705 119.793 122.411 125.596 119.874 134.132 120.499 138.496 121.786 140.319 127.119 138.161 134.143 131.399 137.048 130.631 139.88 130.919 143.925 132.55 152.126 119.936 151.759 119.073 150.398 118.785 132.194 118.929 123.11 119.697 122.374 126.651 120.462 131.207 119.8 135.331 120.683 139.12 121.97 140.367 126.824 138.161 132.892 131.782 135.577 130.631 139.917 130.775 144.183 132.406 151.501 120.992 151.795 119.121 123.147 119.601 122.264 126.651 119.984 132.789 120.278 138.017 121.639 140.319 125.28 139.168 132.598 132.214 134.658 131.111 138.335 130.487 143.558 132.358 144.477 132.166 151.979 120.128 151.832 119.169 123.147 119.697 122.558 126.267 119.874 133.125 120.094 137.489 121.345 140.079 122.705 140.367 126.567 138.4 133.003 132.406"><title>2020-09-06 14.9km</title></polyline><polyline fill="none" stroke="#4dd2ff" stroke-linecap="round" stroke-linejoin="round" stroke-width=".5" points="167.031 133.189 170.245 131.021 173.533 130.491 180.109 132.37 187.313 121.29 187.941 119.025 179.925 118.736 158.977 119.603 158.275 126.396 155.8 133.96 156.243 138.007 157.684 140.512 160.529 139.693 163.928 137.381 167.807 132.9 170.208 131.214 174.974 130.636 180.257 132.274 188.2 119.844 187.72 118.832 186.648 118.688 158.756 119.748 158.386 126.059 155.837 134.153 156.022 137.14 157.241 140.368 162.782 138.344 167.844 132.708 171.612 130.732 175.935 130.781 180.109 132.37 188.089 119.507 187.535 118.736 158.866 119.844 157.943 127.649 156.022 132.563 155.911 136.803"><title>2020-09-08 6.0km</title></polyline><polyline fill="none" stroke="#ffb800" stroke-linecap="round" stroke-linejoin="round" stroke-width=".5" points="23.125 174.152 25.361 172.384 29.503 171.284 36.283 173.053 44.2 160.53 43.504 159.813 38.152 159.67 15.172 160.435 14.549 161.869 14.439 166.983 12.57 171.571 11.873 175.538 12.313 179.027 13.559 181.13 19.35 178.645 23.455 173.865 27.56 171.523 30.492 171.476 36.063 173.053 44.163 160.817 43.357 159.718 41.891 159.67 14.952 160.482 14.146 167.939 11.8 174.678 12.276 178.74 13.889 181.178 18.8 179.027 23.419 174.057 27.377 171.762 30.456 171.38 35.99 173.101 43.87 160.243 43.1 159.67 14.915 160.482 14.622 166.075 12.57 171.667 11.947 176.446 12.716 179.744 14.109 181.13 18.324 179.314 23.272 174.152 28.11 171.523 36.43 173.005 44.017 160.578 43.43 159.765 40.498 159.574 14.805 160.721 14.182 167.795 11.91 175.06 12.496 179.171 13.926 181.226 18.8 178.979 23.602 173.722 27.414 171.284 32.325 171.619 35.953 173.053 44.127 160.578 43.064 159.574 14.879 160.769 14.219 167.891 11.983 174.869 12.496 179.123"><title>2020-09-09 10.3km</title></polyline><polyline fill="none" stroke="#4dd2ff" stroke-linecap="round" stroke-linejoin="round" stroke-width=".5" points="59.515 173.79 59.955 172.93 62.041 171.976 65.666 171.212 72.109 173.121 80.127 160.374 77.82 159.658 50.802 160.661 50.18 167.631 48.129 173.265 47.8 177.084 49.301 180.855 50.216 181.19 55.305 178.659 58.783 175.365 59.881 173.456 62.005 172.119 64.348 171.45 68.082 171.546 71.999 173.408 79.98 160.756 79.797 159.849 78.443 159.61 51.278 160.47 49.997 168.586 47.873 174.219 48.422 179.185 49.484 180.951 51.754 180.712 54.683 179.041 60.54 173.074 63.03 171.641 68.045 171.546 71.963 173.456 80.2 160.374 78.955 159.658 66.068 160.183"><title>2020-09-10 5.3km</title></polyline><polyline fill="none" stroke="#4dd2ff" stroke-linecap="round" stroke-linejoin="round" stroke-width=".5" points="95.092 174.659 98.561 172.157 100.701 171.435 103.321 171.435 108.266 173.023 114.244 164.216 116.2 160.174 109.964 159.597 86.826 160.607 86.272 168.211 83.837 175.381 84.317 178.797 85.756 181.3 90.848 179.038 96.015 173.697 98.856 172.012 102.915 171.29 108.303 173.312 116.163 160.944 115.61 159.548 108.635 159.404 97.048 160.174 93.764 159.693 86.641 160.8 86.715 166.093 83.8 175.333 84.649 179.76 85.903 181.396 90.553 179.23 95.867 173.745 99.963 171.531 104.502 171.531 108.414 172.975 116.126 160.367 115.536 159.645 107.344 159.452 86.974 160.607 86.568 167.152 84.021 174.466 84.354 178.894 86.014 181.252 88.819 180.241 92.103 177.931"><title>2020-09-13 6.3km</title></polyline><polyline fill="none" stroke="#4dd2ff" stroke-linecap="round" stroke-linejoin="round" stroke-width=".5" points="130.98 174.644 134.253 172.342 136.864 171.527 140.137 171.719 144.293 173.11 152.2 160.401 151.428 159.777 144.624 159.633 123.11 160.449 122.558 161.168 122.558 165.772 119.8 175.076 120.536 179.488 122.043 181.215 125.795 179.776 130.943 174.549 135.173 171.959 138.74 171.383 143.079 173.062 144.146 172.918 152.053 160.641 151.023 159.633 143.079 159.633 122.889 160.736 122.411 166.731 120.094 173.35 119.8 176.371 120.462 179.44 121.124 180.831 122.043 181.071 126.199 179.392 129.95 176.083 130.943 174.357 136.57 171.287 139.622 171.431 143.227 173.11 144.22 172.918 152.016 160.928 150.986 159.537 123.294 160.401 122.632 161.168 122.301 167.115 119.874 175.028 120.425 179.44 121.639 181.263"><title>2020-09-15 6.1km</title></polyline><polyline fill="none" stroke="red" stroke-linecap="round" stroke-linejoin="round" stroke-width=".5" points="166.905 174.319 171.78 171.356 176.765 171.595 180.137 172.838 187.907 159.694 159.025 160.363 158.622 166.385 156.423 171.882 155.837 175.801 156.313 178.286 157.779 180.819 162.177 179.242 168.188 172.933 171.743 171.117 174.786 171.117 180.32 172.599 188.2 160.172 187.54 159.311 159.062 160.172 158.549 166.338 155.8 174.845 156.167 177.761 157.706 180.867 161.884 179.386 167.419 173.746 171.377 171.165 176.581 171.499 180.357 172.886 188.053 160.363 187.687 159.407 185.671 159.311 159.025 160.315 158.476 166.433 156.02 174.224 156.24 177.617 157.523 180.819 162.874 178.669 167.199 173.937 171.414 171.261 176.471 171.404 180.137 172.886 187.907 160.315 187.394 159.359 186.367 159.359 159.062 160.22 158.512 166.003 155.91 174.654 156.496 178.764 157.926 180.819 162.581 178.717 166.759 175.084 167.748 173.459 171.524 171.261 174.602 170.974 179.917 172.838 188.163 160.459 187.833 159.598 186.441 159.216 158.989 160.267 158.439 166.911 155.91 175.705 157.523 180.867 163.387 178.382 167.858 173.316 171.267 171.308 174.786 171.165 180.027 172.742 188.2 160.172 187.21 159.311 159.099 160.172 158.549 166.863 156.68 171.547 155.947 175.658 156.753 179.529 158.219 180.867 163.13 178.525 166.942 174.176 170.644 171.691 174.602 170.926 180.283 172.742 187.833 160.602 187.467 159.359 184.571 159.264 159.025 160.411 158.586 166.051 156.13 174.128 156.276 177.474 157.449 180.724 160.308 180.15 162.837 178.669 169.031 172.599 171.487 171.213 174.529 171.213 180.137 172.838 188.163 160.172 187.467 159.407 183.215 159.311 159.392 159.981 158.769 160.65 158.329 166.959 155.947 174.033 156.24 178.286 157.119 180.533 158.109 180.676 163.35 178.286 167.455 173.698 171.45 170.974 175.225 170.974 178.89 172.503 180.357 172.36 188.127 160.172 187.064 159.264 159.135 160.076 158.402 167.054 155.947 175.084 156.46 178.908 158.036 180.533 161.664 179.625 168.188 172.981 171.12 171.308 174.456 170.83 178.854 172.551 180.32 172.455 188.127 160.267 187.21 159.264 158.952 160.22 158.292 167.485 155.983 174.702 156.203 177.617 157.413 180.676 160.198 180.007 164.413 177.33 166.832 173.985 171.45 171.022 174.272 170.878 180.137 172.838 188.2 159.885 187.027 159.264 158.989 160.411 158.476 166.529 155.983 175.849 156.716 179.147 158.182 181.584 163.13 179.625 168.152 174.367 170.79 172.981"><title>2020-09-16 23.6km</title></polyline><polyline fill="none" stroke="#4dd2ff" stroke-linecap="round" stroke-linejoin="round" stroke-width=".5" points="23.831 214.753 26.391 212.798 29.646 212.273 33.412 212.941 35.935 214.228 44.2 201.4 42.554 200.446 35.716 200.399 15.018 201.257 14.689 207.218 12.678 212.225 11.8 217.185 13.08 221.524 14.433 222.049 19.699 219.235 22.844 215.468 26.757 212.702 31.218 212.321 35.935 214.133 44.163 201.591 43.213 200.542 38.861 200.351 14.981 201.448 14.762 207.266 11.983 216.088 12.751 220.523 14.031 222.049 18.675 219.76 21.783 217.28 23.283 215.134 26.72 212.75 29.902 212.273 36.265 213.799 44.163 201.305 43.578 200.589 41.713 200.351 15.274 201.4 14.543 208.506 12.019 216.088 12.605 219.998 14.177 222.001"><title>2020-09-18 6.1km</title></polyline><polyline fill="none" stroke="#4dd2ff" stroke-linecap="round" stroke-linejoin="round" stroke-width=".5" points="59.332 215.043 62.7 212.847 65.556 212.274 72.146 214.041 80.054 201.962 79.944 201.055 79.248 200.339 51.424 201.341 50.546 207.93 48.203 213.659 47.837 217.144 49.74 222.013 51.681 221.679 54.609 220.008 59.039 215.425 62.81 212.99 66.654 212.322 72.109 214.041 80.2 201.055 79.358 200.482 76.539 200.434 51.168 201.198 50.509 207.643 47.8 215.807 48.422 219.77 50.07 222.061 54.609 220.008 59.113 215.33 62.883 212.847 65.812 212.418 72.109 213.85 80.09 201.485 79.761 200.625 78.26 200.434 51.315 201.246 50.692 201.914 50.765 206.402 48.386 213.707 48.02 217.669"><title>2020-09-20 6.0km</title></polyline><polyline fill="none" stroke="#4dd2ff" stroke-linecap="round" stroke-linejoin="round" stroke-width=".5" points="95.116 215.142 101.567 212.162 108.644 213.7 116.126 201.154 114.762 200.433 86.859 201.538 86.528 206.634 83.8 216.007 84.242 219.468 85.606 221.967 88.149 221.583 91.504 219.66 94.969 215.334 99.613 212.354 102.525 211.969 107.464 213.892 108.496 213.555 116.2 201.49 115.094 200.481 87.375 201.25 86.786 201.971 86.38 207.739 83.837 215.815 84.205 219.468 85.754 221.871 88.739 221.198 91.319 219.564 95.743 214.565 99.834 212.306 102.93 212.162 108.091 213.988 116.053 201.106 115.352 200.433 87.265 201.298 86.638 201.971 86.306 208.028 84.095 214.18 83.837 217.449"><title>2020-09-22 6.0km</title></polyline><polyline fill="none" stroke="#4dd2ff" stroke-linecap="round" stroke-linejoin="round" stroke-width=".5" points="131.532 215.109 135.614 212.519 137.489 212.231 143.962 214.293 152.163 201.249 151.464 200.481 146.72 200.194 135.246 201.249 122.926 201.441 122.448 208.059 119.8 215.013 120.278 219.857 121.823 222.063 126.824 219.857 130.723 215.636 134.032 213.19 138.446 212.423 144.146 214.15 152.2 201.488 151.17 200.481 122.926 201.297 122.264 208.347 119.837 215.924 120.425 220.144 121.712 222.015 125.758 220.576 134.032 213.142 139.218 212.327 143.999 214.006 152.09 201.536 151.06 200.529 144.734 200.529 123 201.536 122.374 208.107 120.241 213.526 119.8 216.787 120.499 220.336 121.859 222.206"><title>2020-09-26 6.1km</title></polyline><polyline fill="none" stroke="#4dd2ff" stroke-linecap="round" stroke-linejoin="round" stroke-width=".5" points="188.167 207.63 188.178 207.637 188.167 207.645 188.2 207.674 188.017 207.702 187.686 207.717 187.658 207.724 187.652 207.738 187.63 207.724 187.564 207.746 187.475 207.746 187.348 207.767 187.276 207.753 187.204 207.753 187.16 207.774 186.834 207.782 186.696 207.818 186.662 207.818 186.535 207.868 186.441 207.868 186.441 207.89 186.391 207.897 186.242 207.904 186.154 207.919 185.899 207.926 185.761 207.912 185.606 207.904 185.501 207.919 185.191 207.926 185.036 207.955 184.959 207.948 184.826 207.984 184.815 208.012 184.721 207.991 184.445 207.969 184.24 207.976 184.207 207.991 184.135 207.984 184.068 207.998 184.035 207.984 183.897 208.02 183.797 208.005 183.737 208.02 183.593 208.034 183.521 208.02 183.349 208.027 183.283 208.041 183.222 208.063 183.051 208.049 182.99 208.07 182.857 208.07 182.774 208.092 182.68 208.085 182.63 208.113 182.575 208.121 182.409 208.121 182.26 208.135 182.21 208.121 182.166 208.128 182.028 208.113 181.994 208.106 181.978 208.085 181.95 208.07 181.906 208.063 181.817 208.077 181.718 208.113 181.58 208.113 181.519 208.135 181.336 208.15 181.347 208.164 181.286 208.164 181.259 208.186 181.237 208.186 181.165 208.214 180.932 208.258 180.595 208.287 180.523 208.301 180.025 208.351 179.566 208.366 179.489 208.388 179.439 208.38 179.411 208.402 179.273 208.416 179.146 208.452 178.781 208.488 178.681 208.539 178.637 208.517 178.565 208.51 178.466 208.51 178.388 208.517 178.366 208.532 178.278 208.525 178.239 208.539 178.211 208.539 178.195 208.553 178.117 208.589 178.112 208.582 178.09 208.532 178.078 208.532 177.907 208.546 177.857 208.561 177.83 208.553 177.796 208.568 177.636 208.568 177.57 208.597 177.52 208.604 177.492 208.611 177.503 208.618 177.487 208.633 177.448 208.633 177.398 208.647 177.326 208.64 177.326 208.654 177.188 208.683 176.989 208.683 176.917 208.69 176.757 208.676 176.546 208.683 176.48 208.698 176.414 208.719 176.298 208.734 176.275 208.748 176.148 208.748 175.966 208.763 175.827 208.763 175.645 208.791 175.578 208.82 175.529 208.82 175.407 208.82 175.225 208.849 174.682 208.892 174.257 208.907 174.174 208.921 174.019 208.914 173.969 208.921 173.742 208.914 173.626 208.936 173.538 208.936 173.51 208.95 173.388 208.936 173.283 208.95 173.256 208.943 173.067 208.95 173.007 208.964 172.968 208.964 172.94 208.972 172.874 208.972 172.78 208.986 172.603 208.993 172.586 209.015 172.514 209.044 172.481 209.029 172.398 209.044 172.348 209.029 172.282 209.037 172.26 209.058 172.188 209.073 172.16 209.065 172.138 209.08 172.033 209.051 171.784 209.065 171.663 209.044 171.519 209.065 171.392 209.044 171.27 209.065 171.115 209.058 170.966 209.08 170.85 209.065 170.617 209.094 170.529 209.058 170.296 209.08 170.02 209.037 169.843 209.058 169.483 209.008 169.069 208.993 168.886 209.001 168.499 209.037 168.438 209.015 168.344 209.015 168.283 209.029 168.189 209.022 168.162 209.037 167.99 209.037 167.957 209.029 167.747 209.037 167.675 209.029 167.636 209.037 167.526 209.022 167.216 209.008 167.127 209.022 166.989 209.022 166.895 209.051 166.812 209.037 166.773 209.044 166.685 209.094 166.535 209.044 166.27 209.037 166.076 209.015 165.899 209.015 165.844 208.993 165.551 209.015 165.474 209.044 165.291 209.044 165.197 209.037 165.075 209.051 164.981 209.029 164.898 209.044 164.86 209.037 164.655 209.044 164.589 209.044 164.401 209.058 164.373 209.065 164.312 209.058 164.246 209.073 164.179 209.065 164.036 209.08 164.008 209.094 163.936 209.08 163.77 209.073 163.676 209.058 163.272 209.094 163.051 209.08 163.018 209.087 162.857 209.065 162.31 209.123 162.249 209.116 162.194 209.13 161.995 209.138 161.735 209.13 161.513 209.159 161.403 209.145 161.381 209.159 161.303 209.159 161.253 209.181 161.154 209.166 161.126 209.174 161.104 209.159 161.071 209.159 161.038 209.166 160.971 209.224 160.916 209.239 160.817 209.231 160.75 209.21 160.722 209.224 160.689 209.224 160.651 209.21 160.557 209.202 160.446 209.217 160.424 209.239 160.391 209.239 160.269 209.231 160.214 209.246 160.18 209.239 160.153 209.246 160.064 209.224 159.959 209.224 159.76 209.253 159.605 209.246 159.367 209.275 159.168 209.26 158.897 209.282 158.776 209.311 158.538 209.318 158.438 209.347 158.372 209.354 158.095 209.318 157.99 209.332 157.88 209.368 157.692 209.368 157.537 209.397 157.349 209.412 157.194 209.397 157.056 209.426 156.796 209.426 156.779 209.448 156.63 209.455 156.58 209.477 156.563 209.498 156.563 209.549 156.574 209.599 156.541 209.642 156.336 209.7 156.154 209.7 156.11 209.722 156.104 209.83 156.126 209.909 156.071 210.046 156.065 210.075 156.093 210.183 156.065 210.335 156.06 210.522 156.082 210.753 156.077 211.02 156.088 211.092 156.088 211.164 156.099 211.207 156.11 211.279 156.11 211.359 156.093 211.46 156.11 211.51 156.104 211.618 156.132 211.748 156.137 211.921 156.148 211.943 156.137 212.159 156.154 212.21 156.16 212.303 156.176 212.383 156.187 212.664 156.198 212.7 156.348 212.967 156.431 213.09 156.447 213.212 156.475 213.291 156.469 213.45 156.486 213.537 156.486 213.602 156.502 213.659 156.502 213.789 156.525 213.904 156.502 214.193 156.513 214.279 156.508 214.294 156.508 214.33 156.525 214.344 156.519 214.366 156.53 214.416 156.513 214.481 156.519 214.676 156.508 214.712 156.436 214.741 156.342 214.734 156.204 214.748 156.043 214.726 156.027 214.763 155.999 214.77 155.96 214.755 155.927 214.726 155.933 214.683 155.905 214.676 155.9 214.654 155.877 214.633 155.872 214.618 155.877 214.301 155.872 214.229 155.855 214.215 155.866 214.121 155.883 214.099 155.872 214.106 155.85 214.049 155.85 214.013 155.817 213.998 155.8 214.005"><title>2020-10-10 6.1km</title></polyline><polyline fill="none" stroke="#4dd2ff" stroke-linecap="round" stroke-linejoin="round" stroke-width=".5" points="11.815 255.779 11.8 255.739 11.8 255.759 11.861 255.785 11.876 255.766 12.022 255.772 12.188 255.752 12.229 255.759 12.274 255.752 12.35 255.759 12.496 255.752 12.531 255.726 12.577 255.739 12.592 255.752 12.592 255.779 12.612 255.845 12.602 256.055 12.622 256.351 12.622 256.456 12.642 256.469 12.743 256.436 12.834 256.423 13.011 256.456 13.061 256.45 13.086 256.39 13.096 256.364 13.091 256.312 13.106 256.279 13.106 256.022 13.122 255.956 13.127 255.871 13.122 255.739 13.137 255.581 13.127 255.555 13.137 255.417 13.127 255.391 13.137 255.345 13.127 255.299 13.132 255.266 13.127 255.213 13.127 255.147 13.106 255.108 13.101 255.075 13.076 255.036 13.071 255.009 13.061 254.996 13.056 254.963 13.036 254.911 12.975 254.878 12.965 254.851 12.92 254.812 12.859 254.72 12.824 254.641 12.799 254.569 12.794 254.503 12.789 254.483 12.799 254.398 12.794 254.358 12.774 254.319 12.784 254.187 12.769 254.089 12.779 254.062 12.784 253.99 12.779 253.944 12.784 253.911 12.784 253.878 12.789 253.806 12.784 253.694 12.789 253.668 12.774 253.608 12.779 253.556 12.769 253.457 12.774 253.378 12.758 253.28 12.763 253.187 12.748 252.859 12.748 252.747 12.733 252.655 12.738 252.543 12.728 252.497 12.733 252.471 12.733 252.293 12.723 252.181 12.748 252.096 12.753 251.977 12.743 251.944 12.774 251.879 12.799 251.859 13.076 251.846 13.273 251.8 13.429 251.793 13.581 251.773 13.666 251.747 13.843 251.74 13.898 251.721 13.979 251.721 14.095 251.701 14.373 251.688 14.6 251.694 14.68 251.688 14.817 251.694 14.928 251.675 15.013 251.688 15.265 251.694 15.341 251.668 15.553 251.668 15.689 251.648 15.77 251.655 15.952 251.648 16.017 251.622 16.254 251.615 16.461 251.615 16.557 251.596 16.622 251.602 16.643 251.596 16.774 251.589 17.016 251.596 17.203 251.556 17.263 251.569 17.283 251.556 17.339 251.55 17.47 251.576 17.586 251.569 17.641 251.556 17.646 251.576 17.929 251.576 17.969 251.556 18.02 251.556 18.095 251.55 18.373 251.497 18.529 251.477 18.645 251.477 18.675 251.471 18.761 251.477 18.822 251.471 18.852 251.484 18.908 251.458 19.049 251.444 19.155 251.458 19.281 251.464 19.377 251.458 19.427 251.444 19.478 251.438 19.578 251.464 19.619 251.444 19.684 251.431 19.795 251.438 19.977 251.431 20.027 251.438 20.058 251.425 20.153 251.431 20.239 251.451 20.386 251.451 20.446 251.438 20.592 251.451 20.734 251.444 20.819 251.425 21.092 251.458 21.243 251.471 21.389 251.444 21.42 251.458 21.485 251.444 21.748 251.458 21.773 251.444 21.843 251.438 21.939 251.444 22.04 251.425 22.252 251.444 22.272 251.451 22.62 251.451 22.666 251.471 22.671 251.484 22.711 251.504 22.847 251.477 23.321 251.458 23.427 251.438 23.604 251.451 23.775 251.425 23.866 251.425 23.927 251.405 24.053 251.405 24.128 251.418 24.26 251.405 24.325 251.412 24.401 251.398 24.567 251.405 24.643 251.431 24.704 251.412 24.92 251.425 25.102 251.418 25.163 251.359 25.198 251.346 25.208 251.326 25.319 251.398 25.395 251.392 25.49 251.412 25.586 251.405 25.748 251.431 25.778 251.418 25.803 251.425 25.934 251.392 26 251.405 26.03 251.418 26.207 251.412 26.313 251.444 26.434 251.418 26.494 251.425 26.525 251.412 26.555 251.385 26.61 251.379 26.666 251.392 26.696 251.412 26.716 251.392 26.777 251.385 26.802 251.372 26.837 251.372 26.862 251.392 26.938 251.365 27.069 251.352 27.089 251.359 27.17 251.365 27.185 251.385 27.316 251.412 27.352 251.398 27.513 251.379 27.574 251.385 27.639 251.372 27.821 251.398 27.967 251.412 28.048 251.392 28.24 251.398 28.346 251.385 28.467 251.392 28.643 251.365 28.734 251.379 28.87 251.379 29.016 251.392 29.188 251.379 29.304 251.359 29.486 251.352 29.602 251.333 29.713 251.346 29.985 251.306 30.151 251.3 30.363 251.273 30.464 251.267 30.56 251.227 30.621 251.234 30.737 251.201 31.332 251.168 31.458 251.155 31.64 251.109 31.912 251.096 32.043 251.076 32.194 251.07 32.255 251.056 32.351 251.056 32.487 251.043 32.497 251.076 32.522 251.096 32.613 251.07 32.926 251.017 33.092 251.01 33.138 250.997 33.173 250.931 33.228 250.938 33.41 250.892 33.506 250.905 33.551 250.905 33.682 250.879 33.743 250.879 33.889 250.839 33.95 250.846 34.031 250.826 34.096 250.833 34.187 250.826 34.283 250.806 34.404 250.806 34.596 250.774 34.646 250.754 34.933 250.714 35.065 250.721 35.1 250.734 35.12 250.727 35.12 250.741 35.13 250.747 35.327 250.681 35.453 250.662 35.514 250.662 35.72 250.609 35.877 250.622 36.043 250.596 36.174 250.596 36.336 250.616 36.437 250.602 36.684 250.596 36.84 250.583 36.941 250.556 37.138 250.55 37.299 250.517 37.309 250.504 37.461 250.471 37.753 250.478 37.915 250.451 38.021 250.458 38.152 250.451 38.308 250.471 38.505 250.425 38.54 250.399 38.601 250.392 38.661 250.399 38.692 250.418 38.777 250.431 39.019 250.425 39.095 250.431 39.115 250.418 39.176 250.418 39.307 250.438 39.398 250.418 39.423 250.405 39.519 250.385 39.549 250.392 39.771 250.379 39.932 250.379 40.397 250.326 40.462 250.333 40.573 250.32 40.669 250.333 40.845 250.313 40.886 250.32 40.972 250.313 41.088 250.287 41.36 250.287 41.441 250.26 41.703 250.267 41.834 250.234 41.87 250.241 41.895 250.221 41.925 250.221 41.975 250.208 42.102 250.208 42.228 250.228 42.258 250.214 42.384 250.214 42.44 250.201 42.586 250.214 42.606 250.208 42.616 250.155 42.672 250.142 42.924 250.135 42.984 250.155 43.115 250.162 43.105 250.168 43.121 250.135 43.09 250.07 43.08 250.004 43.105 249.945 43.1 249.761 43.08 249.728 43.075 249.682 43.055 249.636 43.045 249.603 43.05 249.576 43.01 249.504 43.015 249.484 42.959 249.418 42.959 249.399 42.934 249.366 42.924 249.307 42.929 249.287 42.909 249.254 42.904 249.221 42.828 249.129 42.808 249.024 42.843 248.991 42.848 248.978 42.868 248.971 42.989 248.938 43.045 248.951 43.252 248.866 43.292 248.833 43.322 248.833 43.383 248.8 43.408 248.721 43.509 248.695 43.519 248.702 43.645 248.655 43.716 248.616 43.716 248.596 43.731 248.577 43.761 248.577 43.837 248.511 43.857 248.517 43.862 248.504 43.907 248.498 43.928 248.478 43.938 248.458 43.933 248.438 43.943 248.432 43.933 248.412 43.923 248.353 43.958 248.333 43.948 248.307 43.998 248.267 44.003 248.234 44.034 248.215 44.054 248.149 44.054 248.116 44.069 248.096 44.145 248.031 44.175 248.011 44.19 247.985 44.185 247.965 44.2 247.945 44.2 247.925 44.185 247.925 44.139 247.892 44.099 247.879 44.059 247.879 44.049 247.86 44.034 247.86 44.049 247.833 44.049 247.807 44.034 247.8 44.034 247.781 44.054 247.728 44.054 247.688 44.069 247.675 44.079 247.649 44.069 247.629 44.079 247.603 44.099 247.596 44.139 247.57 44.165 247.57 44.195 247.531"><title>2020-10-10 7.1km</title></polyline><polyline fill="none" stroke="#4dd2ff" stroke-linecap="round" stroke-linejoin="round" stroke-width=".5" points="47.8 255.4 47.851 255.373 47.999 255.373 48.081 255.353 48.239 255.347 48.285 255.34 48.32 255.307 48.387 255.32 48.428 255.313 48.484 255.313 48.514 255.347 48.535 255.433 48.54 255.599 48.581 255.772 48.586 255.865 48.601 255.905 48.601 256.045 48.621 256.065 48.667 256.065 48.734 256.125 48.877 256.125 48.887 256.105 48.933 256.092 49.014 256.105 49.091 256.098 49.096 256.085 49.086 256.058 49.096 255.992 49.086 255.859 49.096 255.792 49.091 255.726 49.116 255.579 49.101 255.46 49.111 255.413 49.106 255.373 49.116 255.347 49.106 255.327 49.116 255.32 49.106 255.307 49.101 255.28 49.116 255.007 49.101 254.901 49.116 254.841 49.081 254.774 49.065 254.628 48.943 254.468 48.866 254.402 48.856 254.382 48.856 254.355 48.846 254.349 48.805 254.275 48.785 254.229 48.79 254.102 48.769 254.029 48.754 254.009 48.764 253.969 48.749 253.85 48.759 253.73 48.775 253.69 48.764 253.59 48.759 253.411 48.754 253.391 48.739 253.118 48.744 253.051 48.729 252.685 48.734 252.599 48.718 252.466 48.724 252.426 48.713 252.406 48.718 252.28 48.708 252.24 48.713 252.2 48.724 252.186 48.713 252.14 48.708 251.94 48.718 251.754 48.734 251.694 48.754 251.515 48.749 251.455 48.759 251.428 48.78 251.421 49.147 251.395 49.346 251.375 49.397 251.355 49.545 251.355 49.632 251.335 49.688 251.342 49.866 251.335 49.979 251.315 50.096 251.322 50.142 251.308 50.254 251.308 50.341 251.295 50.576 251.295 50.683 251.275 51.02 251.282 51.173 251.262 51.331 251.275 51.479 251.268 51.515 251.262 51.642 251.255 51.708 251.242 51.765 251.248 51.933 251.222 52.06 251.228 52.142 251.215 52.168 251.228 52.275 251.228 52.387 251.208 52.474 251.222 52.606 251.202 52.984 251.202 53.035 251.182 53.331 251.149 53.627 251.162 53.805 251.115 54.076 251.129 54.3 251.089 54.413 251.095 54.489 251.062 54.601 251.069 54.652 251.055 54.709 251.069 54.959 251.062 55.209 251.075 55.341 251.062 55.433 251.035 55.51 251.082 55.704 251.082 55.79 251.082 55.892 251.062 55.943 251.042 56.04 251.049 56.132 251.035 56.321 251.055 56.397 251.042 56.566 251.042 56.647 251.055 56.729 251.042 56.79 251.055 56.903 251.035 57.102 251.062 57.224 251.042 57.372 251.055 57.474 251.049 57.653 251.069 57.739 251.049 57.836 251.055 58.122 251.029 58.194 251.035 58.224 251.029 58.357 251.035 58.382 251.029 58.627 251.029 58.78 251.009 59 251.029 59.143 251.022 59.178 251.029 59.592 250.989 59.755 251.009 59.974 251.016 60.117 251.009 60.27 251.029 60.459 251.029 60.632 251.009 60.882 251.016 60.933 251.009 60.964 251.022 61.056 251.009 61.219 251.016 61.311 250.996 61.454 251.002 61.505 250.989 61.561 251.002 61.658 250.996 61.709 251.002 61.786 250.989 61.969 250.996 62.051 250.982 62.306 250.996 62.495 250.989 62.536 251.009 62.694 250.989 62.796 250.962 62.995 250.956 63.082 250.942 63.158 250.956 63.24 250.942 63.383 250.962 63.755 250.936 63.944 250.949 64.031 250.969 64.306 250.976 64.362 250.989 64.444 250.982 64.49 250.962 64.663 250.989 64.806 250.956 65.066 250.956 65.153 250.976 65.23 250.976 65.281 250.962 65.388 250.956 65.454 250.942 65.546 250.936 65.587 250.922 66.021 250.922 66.123 250.902 66.362 250.882 66.439 250.863 66.776 250.843 66.888 250.809 67.021 250.803 67.128 250.783 67.332 250.776 67.587 250.736 67.618 250.743 67.674 250.736 68 250.663 68.118 250.663 68.245 250.636 68.516 250.636 68.689 250.61 68.699 250.643 68.684 250.63 68.761 250.63 68.776 250.616 68.822 250.623 68.924 250.603 69.347 250.556 69.516 250.503 69.684 250.503 69.766 250.477 69.858 250.47 69.909 250.45 69.975 250.457 70.097 250.417 70.25 250.41 70.444 250.37 70.511 250.377 70.618 250.37 70.75 250.344 70.903 250.337 70.995 250.31 71.087 250.31 71.215 250.284 71.301 250.297 71.46 250.277 71.551 250.277 71.73 250.23 71.975 250.23 72.256 250.184 72.409 250.184 72.424 250.191 72.419 250.197 72.429 250.21 72.444 250.184 72.439 250.204 72.756 250.191 72.802 250.171 73.337 250.097 73.506 250.057 73.623 250.071 73.689 250.051 73.868 250.071 74.133 250.038 74.159 250.051 74.235 250.038 74.45 250.064 74.654 250.031 74.7 250.031 74.74 250.018 74.802 250.024 74.868 250.004 74.924 250.018 75.031 249.998 75.292 249.998 75.572 249.971 75.593 249.978 75.985 249.931 76.123 249.924 76.22 249.904 76.373 249.911 76.781 249.878 76.868 249.898 76.97 249.884 77.123 249.891 77.2 249.884 77.23 249.865 77.23 249.851 77.241 249.845 77.241 249.851 77.251 249.851 77.281 249.865 77.317 249.871 77.383 249.851 77.414 249.838 77.582 249.845 77.674 249.831 77.817 249.851 77.863 249.825 77.894 249.825 78.072 249.838 78.128 249.825 78.271 249.831 78.302 249.818 78.368 249.825 78.399 249.798 78.455 249.811 78.577 249.798 78.664 249.758 78.725 249.778 78.838 249.785 78.868 249.758 78.919 249.778 79.225 249.771 79.389 249.751 79.409 249.745 79.435 249.725 79.445 249.678 79.44 249.552 79.445 249.519 79.46 249.472 79.506 249.432 79.516 249.405 79.511 249.385 79.496 249.286 79.465 249.206 79.465 249.166 79.47 249.139 79.445 249.099 79.414 249 79.368 248.906 79.338 248.873 79.322 248.813 79.297 248.674 79.307 248.54 79.256 248.427 79.251 248.381 79.368 248.361 79.618 248.241 79.669 248.241 79.736 248.188 79.761 248.188 79.833 248.115 80.037 248.002 80.078 247.968 80.103 247.968 80.134 247.948 80.129 247.975 80.2 247.875"><title>2020-10-12 6.8km</title></polyline><polyline fill="none" stroke="#4dd2ff" stroke-linecap="round" stroke-linejoin="round" stroke-width=".5" points="116.15 248.509 116.161 248.444 116.183 248.415 116.172 248.415 116.2 248.415 116.2 248.437 115.758 248.48 115.681 248.466 115.526 248.466 115.261 248.487 115.227 248.48 115.211 248.502 115.1 248.495 115.062 248.509 114.946 248.516 114.863 248.545 114.747 248.531 114.669 248.538 114.57 248.559 114.437 248.559 114.271 248.588 114.139 248.581 113.802 248.61 113.221 248.639 113.127 248.653 113.006 248.653 112.973 248.66 112.901 248.653 112.475 248.689 112.381 248.689 112.171 248.704 112.066 248.725 111.895 248.725 111.729 248.747 111.696 248.754 111.663 248.747 111.459 248.761 111.232 248.761 110.939 248.804 110.762 248.804 110.381 248.819 110.27 248.826 110.204 248.848 110.094 248.84 109.989 248.862 109.563 248.869 109.53 248.876 109.243 248.905 109.115 248.941 109.077 248.934 109.01 248.949 108.983 248.934 108.889 248.963 108.839 248.999 108.773 248.999 108.508 249.042 108.386 249.071 108.353 249.064 108.11 249.107 107.657 249.114 107.596 249.129 107.441 249.136 107.109 249.186 106.866 249.244 106.739 249.258 106.667 249.251 106.595 249.266 106.49 249.266 106.308 249.294 106.015 249.309 105.96 249.287 105.888 249.28 105.529 249.316 105.468 249.338 105.429 249.402 105.38 249.402 105.363 249.417 105.341 249.424 105.347 249.439 105.33 249.446 105.291 249.431 105.264 249.446 105.203 249.446 105.186 249.467 105.164 249.46 105.076 249.467 104.849 249.417 104.772 249.417 104.694 249.439 104.672 249.424 104.612 249.417 104.518 249.431 104.413 249.467 104.363 249.467 104.302 249.489 103.921 249.518 103.866 249.532 103.766 249.525 103.727 249.539 103.567 249.547 103.567 249.561 103.54 249.561 103.517 249.583 103.307 249.59 103.191 249.611 102.97 249.619 102.711 249.655 102.385 249.655 102.219 249.691 102.064 249.684 101.942 249.691 101.876 249.676 101.76 249.698 101.627 249.691 101.395 249.712 101.014 249.712 100.848 249.741 100.787 249.734 100.721 249.763 100.688 249.748 100.605 249.756 100.539 249.77 100.472 249.777 100.285 249.77 100.152 249.756 100.113 249.763 99.959 249.763 99.931 249.784 99.76 249.813 99.599 249.784 99.572 249.813 99.4 249.792 99.273 249.813 99.179 249.806 99.157 249.835 99.091 249.835 99.03 249.813 98.958 249.82 98.925 249.806 98.798 249.799 98.77 249.835 98.732 249.828 98.699 249.842 98.466 249.77 98.339 249.756 98.212 249.777 98.185 249.806 98.085 249.813 97.986 249.813 97.864 249.777 97.837 249.799 97.809 249.799 97.676 249.777 97.643 249.806 97.61 249.806 97.444 249.777 97.411 249.784 97.378 249.777 97.223 249.784 97.184 249.77 97.052 249.777 96.88 249.763 96.709 249.777 96.4 249.763 96.339 249.763 96.289 249.784 96.063 249.77 95.853 249.784 95.819 249.77 95.759 249.77 95.648 249.792 95.173 249.777 95.096 249.792 95.079 249.763 95.068 249.763 94.891 249.799 94.858 249.813 94.731 249.82 94.642 249.806 94.372 249.806 94.244 249.784 93.952 249.792 93.836 249.777 93.747 249.792 93.626 249.784 93.471 249.806 93.443 249.799 93.36 249.799 93.145 249.828 93.084 249.82 92.913 249.828 92.703 249.813 92.261 249.828 92.233 249.813 92.128 249.849 91.957 249.828 91.852 249.849 91.763 249.849 91.73 249.835 91.636 249.828 91.426 249.849 91.155 249.828 90.962 249.842 90.769 249.828 90.542 249.842 90.52 249.856 90.487 249.849 90.398 249.878 90.365 249.871 90.343 249.885 90.255 249.878 90.133 249.892 90.045 249.878 89.956 249.885 89.901 249.9 89.774 249.892 89.741 249.907 89.536 249.885 89.326 249.921 89.293 249.914 89.177 249.929 89.144 249.914 89.083 249.921 89.061 249.943 89.006 249.943 88.945 249.957 88.939 250.022 88.912 250.044 88.851 250.037 88.812 250.015 88.774 250.008 88.751 250.022 88.718 250.022 88.646 250.051 88.608 250.051 88.525 250.087 88.47 250.073 88.448 250.087 88.425 250.137 88.398 250.145 88.254 250.109 88.182 250.073 88.05 250.058 87.978 250.029 87.928 250.058 87.829 250.058 87.608 250.015 87.392 250.044 87.32 250.044 87.226 250.022 87.132 250.022 87.077 250.037 86.867 250.037 86.701 250.073 86.524 250.058 86.187 250.109 85.977 250.101 85.789 250.137 85.695 250.145 85.474 250.152 85.198 250.152 84.9 250.188 84.712 250.181 84.679 250.195 84.408 250.159 84.093 250.21 84.016 250.231 83.988 250.282 83.993 250.354 84.016 250.368 83.982 250.426 83.988 250.476 83.977 250.563 83.999 250.728 83.988 250.822 84.01 251.06 83.999 251.153 83.999 251.24 84.01 251.269 84.004 251.37 84.016 251.701 84.038 251.932 84.032 251.961 84.043 252.061 84.043 252.119 84.06 252.263 84.071 252.609 84.093 252.695 84.082 252.912 84.109 253.012 84.115 253.092 84.115 253.178 84.098 253.358 84.143 253.459 84.165 253.56 84.198 253.639 84.369 253.884 84.397 253.992 84.419 254.144 84.413 254.389 84.419 254.461 84.441 254.526 84.458 254.778 84.469 254.807 84.48 254.951 84.469 255.073 84.48 255.21 84.48 255.268 84.463 255.289 84.452 255.39 84.452 255.498 84.397 255.534 84.364 255.534 84.154 255.513 84.109 255.52 84.121 255.542 84.126 255.585 84.076 255.534 83.966 255.52 83.883 255.448 83.85 255.232 83.855 255.203 83.822 255.124 83.806 255.037 83.8 254.98 83.817 254.943 83.8 254.864 83.806 254.843"><title>2020-10-13 6.2km</title></polyline><polyline fill="none" stroke="#4dd2ff" stroke-linecap="round" stroke-linejoin="round" stroke-width=".5" points="119.8 255.457 119.81 255.483 119.942 255.496 120.028 255.49 120.174 255.463 120.286 255.457 120.417 255.47 120.513 255.45 120.549 255.457 120.574 255.477 120.594 255.536 120.584 255.622 120.589 255.648 120.589 255.708 120.599 255.754 120.594 255.806 120.604 256.004 120.599 256.169 120.64 256.182 120.685 256.163 120.807 256.189 120.933 256.182 120.994 256.196 121.08 256.182 121.115 256.163 121.115 256.103 121.126 256.09 121.115 256.057 121.12 256.024 121.126 255.78 121.136 255.694 121.126 255.615 121.126 255.358 121.115 255.338 121.12 255.318 121.105 255.16 121.11 255.134 121.105 255.061 121.11 254.949 121.126 254.896 121.11 254.843 121.11 254.771 121.085 254.705 121.009 254.612 120.984 254.599 120.933 254.527 120.923 254.533 120.913 254.52 120.827 254.362 120.807 254.296 120.797 254.184 120.787 254.138 120.792 254.065 120.766 253.887 120.776 253.801 120.766 253.748 120.776 253.577 120.766 253.445 120.771 253.313 120.766 253.168 120.746 253.029 120.751 252.996 120.741 252.805 120.746 252.633 120.726 252.165 120.731 252.106 120.726 252.033 120.716 252.013 120.726 251.987 120.721 251.881 120.746 251.763 120.731 251.651 120.736 251.611 120.741 251.598 120.771 251.585 120.857 251.565 121.055 251.532 121.191 251.532 121.318 251.519 121.429 251.492 121.556 251.486 121.611 251.466 121.819 251.453 121.884 251.439 121.915 251.446 121.996 251.439 122.102 251.453 122.213 251.446 122.537 251.4 122.861 251.4 122.917 251.413 123.058 251.393 123.326 251.413 123.615 251.38 124.136 251.38 124.222 251.36 124.308 251.354 124.45 251.347 124.541 251.36 124.622 251.34 124.697 251.354 124.728 251.334 124.905 251.34 125.254 251.301 125.608 251.294 125.654 251.301 125.664 251.308 125.664 251.314 125.694 251.314 125.886 251.288 125.957 251.294 126.074 251.281 126.2 251.275 126.347 251.242 126.686 251.222 126.787 251.235 126.817 251.235 126.848 251.215 127.197 251.215 127.257 251.228 127.288 251.215 127.359 251.228 127.51 251.202 127.642 251.209 127.728 251.195 128.021 251.202 128.107 251.209 128.133 251.202 128.219 251.209 128.381 251.195 128.502 251.215 128.613 251.189 128.79 251.189 128.856 251.176 129.296 251.182 129.494 251.195 129.833 251.189 129.888 251.176 130.076 251.176 130.151 251.189 130.328 251.169 130.42 251.182 130.85 251.156 131.062 251.176 131.285 251.176 131.371 251.156 131.442 251.169 131.502 251.162 131.867 251.169 131.887 251.156 132.013 251.162 132.069 251.156 132.251 251.169 132.595 251.149 132.747 251.149 132.838 251.143 132.868 251.129 132.909 251.143 133.061 251.136 133.207 251.149 133.238 251.136 133.268 251.143 133.379 251.123 133.531 251.149 133.561 251.136 133.582 251.149 133.647 251.136 133.769 251.156 134.022 251.149 134.118 251.169 134.265 251.143 134.325 251.156 134.432 251.162 134.502 251.149 134.594 251.162 134.685 251.143 134.745 251.116 134.801 251.123 134.968 251.116 135.135 251.09 135.535 251.11 135.621 251.096 135.656 251.11 135.671 251.096 135.732 251.09 135.914 251.129 136.025 251.129 136.339 251.096 136.541 251.103 136.668 251.09 136.815 251.11 137.179 251.096 137.229 251.103 137.361 251.09 137.391 251.103 137.573 251.07 137.826 251.057 137.882 251.063 138.191 251.03 138.312 251.03 138.595 250.971 138.717 250.971 139.071 250.925 139.117 250.931 139.233 250.912 139.526 250.892 139.653 250.852 139.81 250.839 139.86 250.813 139.987 250.793 140.073 250.8 140.326 250.773 140.467 250.78 140.579 250.767 140.639 250.78 140.791 250.74 141.029 250.734 141.049 250.714 141.075 250.72 141.115 250.701 141.14 250.668 141.257 250.661 141.277 250.641 141.317 250.635 141.343 250.641 141.429 250.628 141.464 250.602 141.51 250.615 141.631 250.595 141.682 250.615 141.859 250.575 142.016 250.562 142.091 250.536 142.172 250.542 142.258 250.529 142.37 250.496 142.496 250.503 142.795 250.47 142.886 250.47 143.053 250.437 143.118 250.45 143.199 250.443 143.296 250.424 143.321 250.43 143.442 250.404 143.564 250.404 143.655 250.377 143.812 250.377 143.837 250.364 143.867 250.377 144.13 250.338 144.237 250.344 144.262 250.364 144.252 250.371 144.267 250.358 144.262 250.364 144.272 250.371 144.312 250.371 144.414 250.364 144.515 250.338 144.631 250.344 144.783 250.325 145.031 250.285 145.173 250.285 145.405 250.245 145.593 250.259 145.663 250.245 145.8 250.252 145.825 250.239 145.947 250.226 146.296 250.199 146.351 250.206 146.458 250.186 146.589 250.186 146.614 250.179 146.807 250.173 146.852 250.16 146.903 250.166 146.923 250.153 146.974 250.166 147.07 250.166 147.252 250.146 147.389 250.153 147.53 250.127 148.087 250.1 148.183 250.087 148.456 250.074 148.567 250.067 148.598 250.054 148.906 250.034 148.972 250.014 149.023 250.021 149.033 250.021 149.028 250.034 149.053 250.008 149.048 250.014 149.038 250.001 149.028 250.008 149.033 249.995 149.033 250.001 149.018 250.001 149.053 250.001 149.038 250.021 149.038 250.014 149.073 250.034 149.235 250.041 149.255 250.054 149.473 250.041 149.534 250.014 149.777 250.001 149.858 249.981 150.126 249.995 150.217 249.975 150.409 249.968 150.439 249.981 150.515 249.975 150.647 249.981 150.915 249.942 151.117 249.942 151.183 249.916 151.203 249.889 151.188 249.85 151.188 249.823 151.178 249.777 151.183 249.737 151.163 249.658 151.158 249.612 151.183 249.553 151.168 249.493 151.173 249.46 151.153 249.322 151.158 249.295 151.138 249.216 151.052 249.078 151.052 249.038 151.031 248.979 150.945 248.801 150.955 248.761 150.93 248.721 150.92 248.655 150.874 248.57 150.874 248.55 150.92 248.53 150.991 248.523 151.006 248.537 151.031 248.537 151.229 248.497 151.406 248.458 151.512 248.405 151.613 248.339 151.765 248.233 151.982 248.029 152.008 248.029 152.013 248.048 152.053 248.029 152.068 248.009 152.079 247.956 152.109 247.923 152.144 247.87 152.175 247.844 152.17 247.818 152.2 247.804"><title>2020-10-13 6.9km</title></polyline><polyline fill="none" stroke="#4dd2ff" stroke-linecap="round" stroke-linejoin="round" stroke-width=".5" points="188.195 248.525 188.2 248.518 188.173 248.553 188.124 248.56 187.806 248.581 187.465 248.588 187.363 248.602 187.185 248.588 186.877 248.644 186.753 248.637 186.666 248.644 186.639 248.659 186.466 248.68 186.439 248.673 186.32 248.687 186.293 248.68 186.072 248.715 186.045 248.701 185.926 248.715 185.834 248.715 185.78 248.722 185.743 248.75 185.645 248.75 185.494 248.764 185.348 248.75 185.262 248.757 185.105 248.75 184.895 248.771 184.619 248.771 184.014 248.835 183.76 248.835 183.539 248.849 183.512 248.863 183.436 248.863 183.345 248.877 183.21 248.884 183.085 248.877 182.788 248.898 182.545 248.905 182.453 248.926 182.389 248.919 182.351 248.933 182.194 248.926 182.178 248.919 182.065 248.905 181.946 248.933 181.481 248.975 180.882 249.109 180.644 249.137 180.407 249.173 180.082 249.201 179.683 249.208 179.537 249.243 179.407 249.243 179.278 249.278 178.597 249.321 178.392 249.356 178.381 249.342 178.37 249.356 178.365 249.349 178.306 249.363 178.122 249.363 177.987 249.391 177.911 249.398 177.873 249.412 177.809 249.405 177.738 249.419 177.522 249.447 177.404 249.475 177.263 249.49 177.15 249.497 176.901 249.539 176.826 249.532 176.696 249.539 176.345 249.588 176.226 249.581 176.032 249.602 175.999 249.595 175.913 249.623 175.724 249.63 175.697 249.652 175.67 249.644 175.492 249.673 175 249.722 174.611 249.743 174.536 249.757 174.449 249.75 174.255 249.75 174.109 249.778 173.996 249.785 173.682 249.757 173.58 249.771 173.261 249.771 173.104 249.785 172.797 249.778 172.672 249.813 172.429 249.799 172.3 249.828 172.197 249.813 172.105 249.821 171.954 249.806 171.608 249.821 171.49 249.806 171.403 249.813 171.29 249.799 171.149 249.806 171.074 249.799 170.987 249.821 170.879 249.813 170.852 249.828 170.712 249.842 170.69 249.856 170.625 249.849 170.604 249.87 170.571 249.87 170.55 249.884 170.426 249.905 170.35 249.884 170.323 249.891 170.264 249.863 170.134 249.856 170.102 249.863 170.048 249.863 169.902 249.842 169.734 249.849 169.68 249.835 169.108 249.821 168.967 249.835 168.681 249.835 168.633 249.849 168.476 249.835 168.2 249.842 167.952 249.821 167.612 249.828 167.574 249.821 167.531 249.842 167.477 249.856 167.272 249.863 167.163 249.856 167.082 249.863 166.953 249.842 166.731 249.828 166.704 249.842 166.494 249.849 166.391 249.835 166.224 249.835 165.883 249.87 165.754 249.856 165.624 249.863 165.532 249.856 165.37 249.87 165.154 249.863 165.03 249.877 164.711 249.877 164.161 249.898 163.41 249.877 163.188 249.884 162.789 249.933 162.665 249.926 162.097 249.961 161.881 249.947 161.709 249.968 161.525 249.975 161.417 250.004 161.185 250.039 161.136 250.06 160.974 250.074 160.85 250.06 160.742 250.067 160.709 250.06 160.472 250.053 160.337 250.081 160.218 250.067 159.473 250.123 159.257 250.109 158.884 250.159 158.841 250.173 158.738 250.173 158.117 250.215 157.847 250.215 157.291 250.271 157.215 250.264 157.161 250.271 157.064 250.264 156.891 250.292 156.886 250.285 156.88 250.271 156.837 250.264 156.794 250.335 156.799 250.37 156.783 250.412 156.805 250.454 156.799 250.532 156.751 250.884 156.761 250.99 156.751 251.152 156.756 251.292 156.778 251.468 156.772 251.525 156.794 251.701 156.815 252.208 156.826 252.306 156.853 252.877 156.848 252.975 156.875 253.166 156.869 253.229 156.896 253.412 157.026 253.687 157.042 253.701 157.134 253.856 157.161 253.947 157.166 253.997 157.156 254.067 157.156 254.166 157.166 254.37 157.193 254.489 157.21 254.666 157.237 254.757 157.21 254.947 157.22 254.996 157.199 255.215 157.204 255.292 157.193 255.342 157.199 255.405 157.188 255.433 157.172 255.454 157.134 255.475 156.913 255.468 156.805 255.482 156.745 255.468 156.686 255.44 156.664 255.419 156.659 255.391 156.664 255.342 156.653 255.257 156.637 255.215 156.632 255.165 156.637 255.053 156.621 254.905 156.616 254.87 156.621 254.87 156.583 254.842 156.583 254.827 156.61 254.806 156.605 254.757 156.578 254.715 156.378 254.687 156.318 254.701 156.302 254.68 156.297 254.694 156.227 254.687 156.124 254.715 156.059 254.722 156.027 254.708 155.854 254.729 155.8 254.722"><title>2020-10-14 6.2km</title></polyline></svg>