<svg xmlns="http://www.w3.org/2000/svg" xmlns:ev="http://www.w3.org/2001/xml-events" xmlns:xlink="http://www.w3.org/1999/xlink" width="200mm" height="300mm" baseProfile="full" version="1.1" viewBox="0 0 200 300"><rect width="200" height="300" x="0" y="0" fill="#222"/><text style="font-size:12px;font-family:Arial;font-weight:700" x="10" y="20" fill="#FFF">Picked Over 5km Runs</text><text style="font-size:4px;font-family:Arial" x="10" y="280" fill="#FFF">ATHLETE</text><text style="font-size:9px;font-family:Arial" x="10" y="290" fill="#FFF">DuanFei</text><text style="font-size:4px;font-family:Arial" x="120" y="280" fill="#FFF">STATISTICS</text><text style="font-size:3px;font-family:Arial" x="120" y="285" fill="#FFF">Number: 26</text><text style="font-size:3px;font-family:Arial" x="120" y="290" fill="#FFF">Weekly: 2.0</text><text style="font-size:3px;font-family:Arial" x="141" y="285" fill="#FFF">Total: 199.6 km</text><text style="font-size:3px;font-family:Arial" x="141" y="290" fill="#FFF">Avg: 7.7 km</text><text style="font-size:3px;font-family:Arial" x="167" y="285" fill="#FFF">Min: 5.0 km</text><text style="font-size:3px;font-family:Arial" x="167" y="290" fill="#FFF">Max: 24.0 km</text><polyline fill="none" stroke="#4dd2ff" stroke-linecap="round" stroke-linejoin="round" stroke-width=".5" points="23.326 33.422 23.728 32.659 30.337 32.516 33.843 33.399 36.508 32.611 41.365 34.305 38.992 61.862 35.924 64.2 14.343 56.542 17.447 32.42 34.5 32.945 36.545 34.448 41.438 34.329 39.028 61.695 37.75 63.389 35.596 64.105 14.598 56.231 17.702 32.11 29.351 32.683 41.657 34.52 39.211 60.908 38.152 63.246 35.851 64.152 14.744 56.231 17.702 32.253 21.61 31.8 23.289 32.54"><title>2020-06-12 5.6km</title></polyline><polyline fill="none" stroke="#4dd2ff" stroke-linecap="round" stroke-linejoin="round" stroke-width=".5" points="59.736 32.809 73.227 32.857 77.454 34.442 76.057 54.713 74.33 63.167 72.528 64.2 70.543 63.984 55.692 59.036 50.509 56.394 51.06 49.79 53.634 32.28 73.484 33.001 77.528 34.274 75.286 61.558 73.043 63.984 70.213 63.84 58.67 59.973 50.472 56.418 52.751 35.403 53.413 32.376 54.589 31.8 65.397 32.208 68.926 33.145 73.742 32.809 77.675 34.514 75.359 60.934 74.44 62.951 72.528 64.104 63.89 62.111 50.325 56.274 52.31 40.807"><title>2020-06-16 5.3km</title></polyline><polyline fill="none" stroke="#4dd2ff" stroke-linecap="round" stroke-linejoin="round" stroke-width=".5" points="95.513 33.401 100.198 32.53 107.046 33.119 113.1 35.12 110.722 62.269 108.812 63.894 106.974 64.153 86.828 56.477 89.567 32.718 94.144 31.8 111.623 34.343 113.064 34.955 113.208 37.757 111.803 53.487 110.722 61.634 108.703 64.035 106.073 63.823 86.9 56.477 89.206 34.155 89.855 32.648 94.756 32.177 107.803 33.331 113.028 34.908 110.902 60.809 110.073 62.952 107.803 64.2 86.792 56.218 89.35 35.732"><title>2020-07-10 5.3km</title></polyline><polyline fill="none" stroke="#4dd2ff" stroke-linecap="round" stroke-linejoin="round" stroke-width=".5" points="132.476 32.349 136.164 31.848 147.704 33.351 149.42 34.258 147.046 61.623 146.024 63.389 143.431 64.2 131.417 60.216 122.726 56.017 125.392 32.659 127.437 31.8 140.692 33.136 144.015 32.659 149.603 34.377 147.302 60.597 145.841 63.365 143.468 64.152 133.462 60.383 131.417 60.741 122.47 56.041 125.428 32.492 126.414 31.8 131.308 31.848 133.645 32.731 145.148 33.041 149.603 34.425 146.937 62.148 143.906 64.176 135.544 61.409 133.645 60.001 131.673 60.192 122.361 55.73 125.319 33.47 126.013 31.991 135.617 32.039 149.639 34.234 146.864 61.265 145.768 63.055 143.431 63.89 131.709 60.24 122.58 55.945 125.392 32.229 126.706 32.039"><title>2020-07-18 7.3km</title></polyline><polyline fill="none" stroke="#ffaf00" stroke-linecap="round" stroke-linejoin="round" stroke-width=".5" points="168.316 33.165 179.58 33.096 184.752 34.855 182.662 61.099 181.528 63.043 179.368 63.899 159 56.471 161.976 32.726 169.485 32.332 182.874 34.138 184.858 34.994 185.035 35.85 183.831 54.341 182.556 61.354 181.387 63.159 180.041 63.899 177.242 63.483 159.107 56.517 159.425 51.101 162.082 32.61 171.221 32.332 184.823 35.04 183.866 54.11 182.52 61.284 180.607 63.621 177.419 63.668 159.036 56.355 161.657 34.323 162.401 32.564 171.575 32.217 184.716 34.809 182.874 61.446 181.103 63.668 179.297 64.2 158.965 56.1 161.799 33.397 162.401 32.587 166.51 31.893 171.681 31.8 176.853 33.466 180.997 33.443 185.035 35.063 184.043 52.559 182.591 61.122 180.785 63.598 178.518 63.899 159.071 56.147 161.834 33.304 162.578 32.517 166.651 31.962 181.67 33.837 184.893 35.04 182.485 61.33 181.528 63.02 179.155 63.899 159 56.447 162.33 32.772"><title>2020-07-31 11.0km</title></polyline><polyline fill="none" stroke="#4dd2ff" stroke-linecap="round" stroke-linejoin="round" stroke-width=".5" points="25.019 73.108 37.944 73.641 41.388 74.875 40.61 94.136 38.907 102.774 37.018 104.831 34.722 104.806 14.538 96.701 17.241 72.6 37.648 73.302 41.055 74.778 41.462 78.335 38.87 103.016 36.388 104.879 33.166 104.274 14.834 96.918 14.723 94.257 17.575 72.6 27.648 72.624 41.425 74.923 39.611 98.927 38.87 102.871 37.277 104.806 35.24 105 14.908 96.967 15.167 90.482"><title>2020-08-02 5.0km</title></polyline><polyline fill="none" stroke="#4dd2ff" stroke-linecap="round" stroke-linejoin="round" stroke-width=".5" points="61.241 73.122 73.185 73.976 77.214 75.612 76.089 94.137 74.419 103.031 72.676 104.834 70.752 104.953 52.964 98.478 50.786 97.007 53.654 73.335 62.439 72.813 70.317 74.284 73.548 73.762 77.323 75.944 75.327 99.07 73.366 104.431 71.333 105 64.799 103.174 50.749 97.552 51.367 88.018 53.581 73.051 63.528 72.6 77.105 75.304 75.29 99.284 74.383 103.174 72.132 105 50.967 97.031 53.436 73.549 58.918 72.6 73.693 74.355 77.251 75.66 75 101.205 73.947 103.79 72.023 104.976 64.036 102.794 50.677 97.197 52.419 82.064"><title>2020-08-07 7.1km</title></polyline><polyline fill="none" stroke="#4dd2ff" stroke-linecap="round" stroke-linejoin="round" stroke-width=".5" points="96.373 73.756 109.438 74.133 113.083 75.689 112.217 95.167 110.593 102.925 109.33 104.411 107.02 104.764 87.097 96.771 89.732 73.661 95.001 72.954 105.215 74.298 109.438 73.803 113.083 75.477 113.228 79.722 111.315 99.27 110.737 102.548 109.366 104.363 107.597 104.953 102.4 103.326 86.772 96.888 89.696 73.473 100.523 72.6 105.757 74.156 111.64 74.392 113.192 76.114 112.073 94.271 110.376 103.279 107.309 105 92.691 99.742 87.061 96.676 89.624 73.803 94.713 72.624 101.173 73.048 103.591 74.298"><title>2020-08-09 5.6km</title></polyline><polyline fill="none" stroke="#4dd2ff" stroke-linecap="round" stroke-linejoin="round" stroke-width=".5" points="131.661 74.531 144.75 74.724 149.122 75.727 147.859 94.214 146.387 102.969 144.636 104.657 142.195 104.654 128.595 99.406 123.471 97.11 122.839 96.006 125.776 73.803 143.451 74.695 149.057 76.026 147.237 99.716 146.174 103.347 143.551 104.824 123.264 96.986 125.691 73.402 136.078 73.943 149.069 76.053 147.12 99.556 145.511 104.142 143.936 104.891 141.475 104.6 123.35 97.129 123.161 95.96 125.975 73.501 137.124 72.6 141.719 74.458 147.32 74.821 149.161 76.357 147.698 96.213 146.592 102.844 143.734 105 123.337 97.254 125.57 75.432"><title>2020-08-14 7.2km</title></polyline><polyline fill="none" stroke="#4dd2ff" stroke-linecap="round" stroke-linejoin="round" stroke-width=".5" points="167.338 73.775 172.771 73.128 185.471 74.758 183.636 98.621 182.755 102.698 180.259 105 158.419 97.086 161.135 74.183 161.649 72.816 166.714 72.6 181.911 74.015 185.581 75.118 183.049 101.739 182.058 103.873 180.332 104.88 166.971 100.779 158.419 96.942 161.135 74.447 161.539 72.888 163.154 72.624 180.002 73.631 185.434 75.31 182.938 101.978 181.874 104.017 179.855 104.976 170.055 101.331 167.118 101.019 158.676 96.918 161.062 74.711"><title>2020-08-20 5.4km</title></polyline><polyline fill="none" stroke="#4dd2ff" stroke-linecap="round" stroke-linejoin="round" stroke-width=".5" points="24.098 114.146 35.473 114.531 41.438 116.142 40.259 135.121 38.713 143.972 37.241 145.511 35.289 145.8 14.71 137.478 17.471 113.689 22.478 113.4 41.143 115.733 40.444 134.471 38.676 144.188 37.02 145.559 34.884 145.68 14.599 137.67 17.508 113.424 41.18 115.733 40.039 134.928 38.308 145.054 35.547 145.752 22.551 141.422 14.747 137.574 14.673 134.856 17.655 113.448 41.18 115.854 38.787 144.381 35.658 145.8 14.562 137.79 17.618 113.761 23.582 113.4 41.069 115.565 41.29 121.627 39.302 142.36 37.977 145.054 35.289 145.584"><title>2020-08-21 8.2km</title></polyline><polyline fill="none" stroke="#4dd2ff" stroke-linecap="round" stroke-linejoin="round" stroke-width=".5" points="59.225 114.205 77.05 115.905 75.68 132.856 77.677 134.726 75.281 136.937 74.092 143.923 71.39 145.8 50.388 137.897 53.39 113.727 58.05 113.4 75.201 115.383 77.065 116.693 75.434 135.944 74.401 142.938 73.109 145.155 69.992 145.546 58.528 141.201 50.538 138.037 50.323 136.296 52.913 113.729 76.514 115.935 76.93 120.192 74.242 143.596 71.192 145.665 50.673 138.365 50.42 133.637"><title>2020-08-27 5.1km</title></polyline><polyline fill="none" stroke="#4dd2ff" stroke-linecap="round" stroke-linejoin="round" stroke-width=".5" points="94.927 133.504 99.437 130.843 105.181 131.195 107.792 132.339 115.582 120.917 115.897 119.494 115.128 118.889 104.657 118.915 87.154 119.797 86.429 126.035 83.804 133.446 84.204 137.859 85.665 140.248 87.558 139.916 91.468 137.79 94.663 133.961 98.884 131.211 103.696 130.743 107.023 132.446 107.89 132.29 116.051 120.224 115.663 119.19 114.22 118.842 87.276 119.855 86.705 120.702 86.463 125.921 84.304 132.186 83.8 135.93 85.616 140.358 90.342 138.632 96.773 132.208 99.151 131.058 104.102 130.788 107.842 132.355 116.2 119.589 115.519 118.913 110.606 118.861 86.883 119.783 86.718 125.035 84.477 131.553 83.826 135.863 85.073 139.594 86.185 140.312"><title>2020-09-02 6.2km</title></polyline><polyline fill="none" stroke="#ffb200" stroke-linecap="round" stroke-linejoin="round" stroke-width=".5" points="131.095 133.592 135.348 130.856 139.767 130.657 142.834 132.273 144.269 132.068 151.837 119.526 150.165 118.749 146.317 118.728 123.064 119.63 122.234 126.963 119.8 135.385 120.622 138.835 121.795 140.374 127.277 138.251 131.695 132.957 133.859 131.608 139.362 130.741 143.967 132.275 152.153 119.875 151.421 119.085 147.672 118.571 136.07 119.684 127.427 119.349 122.644 119.999 122.596 125.678 119.804 134.3 120.639 139.112 121.939 140.573 126.481 138.75 131.918 132.668 134.977 130.909 138.839 130.714 143.913 132.381 152.126 119.637 150.887 118.967 145.954 118.779 122.889 119.849 122.312 126.471 119.834 134.815 120.474 138.346 122.013 140.488 126.608 138.603 131.901 132.903 135.855 130.848 139.796 130.902 144.045 132.446 152.2 119.813 151.42 119.051 147.037 118.851 123.079 119.874 122.452 126.03 120.014 133.408 120.192 137.278 121.785 140.629 126.372 138.832 131.035 133.494 135.246 131.116 138.997 130.608 143.139 132.338 144.088 132.168 151.878 120.264 151.612 119.282 150.269 118.945 123.03 119.885 122.645 126.07 119.963 133.933 120.57 138.65 121.922 140.505 127.543 137.998"><title>2020-09-04 10.7km</title></polyline><polyline fill="none" stroke="#4dd2ff" stroke-linecap="round" stroke-linejoin="round" stroke-width=".5" points="166.779 133.823 170.41 131.306 173.95 130.763 180.429 132.392 183.673 126.283 188.2 119.889 187.119 118.904 184.345 118.84 159.07 119.719 158.354 126.468 155.853 134.659 156.109 137.715 157.658 140.469 162.266 138.528 168.181 132.65 170.754 131.302 174.068 130.702 180.249 132.168 187.868 119.98 187.075 118.922 179.123 118.731 171.252 119.524 159.165 119.574 158.603 120.357 158.558 125.876 155.8 134.885 156.573 139.234 157.838 140.373 163.127 137.993 166.582 134.085 171.129 131.014 175.04 130.679 178.927 132.251 180.339 132.018 187.699 119.458 186.968 118.937 177.558 118.797 159.089 119.745 158.232 126.997 156.109 132.385 155.985 137.575"><title>2020-09-05 6.1km</title></polyline><polyline fill="none" stroke="#ff7600" stroke-linecap="round" stroke-linejoin="round" stroke-width=".5" points="24.601 172.749 28.078 171.256 31.586 171.469 34.405 172.868 36.309 173.005 44.087 160.943 43.832 159.955 39.956 159.499 14.955 160.446 14.098 168.076 12.181 172.696 11.866 175.586 12.501 179.265 13.849 181.074 18.135 179.553 25.867 172.241 29.089 171.316 35.999 172.992 44.028 160.838 43.366 159.731 39.473 159.449 15.166 160.46 14.294 167.57 11.89 173.878 12.542 179.427 14.053 181.203 19.73 178.266 24.147 173.306 26.729 171.8 30.569 171.291 35.969 173.056 44.2 160.616 43.669 159.812 42.192 159.628 14.956 160.508 14.045 167.971 11.854 175.169 12.299 178.73 13.65 181.351 18.404 179.454 23.379 174.115 26.782 171.706 30.254 171.345 35.954 173.184 44.002 160.414 43.396 159.639 41.521 159.501 20.593 159.936 14.701 160.618 14.396 166.395 11.868 174.939 12.469 179.306 13.756 181.149 19.091 178.984 26.145 172.209 29.053 171.459 31.88 171.748 35.919 173.368 44.132 160.726 43.739 159.889 42.398 159.585 24.175 159.753 15.086 160.491 14.368 167.445 12.447 171.997 11.8 176.137 12.671 179.95 13.966 181.196 18.793 178.975 24.87 172.611 27.57 171.437 31.891 171.603 36.18 173.236 43.507 161.781 43.787 159.926 15.135 160.424 14.241 167.448 11.97 173.581 12.25 178.812 13.63 181.135 17.28 179.986 24.589 173.04 26.634 171.91 30.316 171.312 35.552 173.167 36.464 172.952 43.969 160.943 43.808 159.987 15.145 160.49 14.528 167.063 11.849 173.929 12.075 178.31 13.321 180.888 14.696 181.159 18.551 179.208 24.983 173.218"><title>2020-09-06 15.2km</title></polyline><polyline fill="none" stroke="#4dd2ff" stroke-linecap="round" stroke-linejoin="round" stroke-width=".5" points="59.022 174.003 62.231 171.811 65.524 171.277 72.116 173.161 79.32 162.087 79.927 159.835 71.928 159.54 50.988 160.419 50.292 167.189 47.8 174.748 48.26 178.813 49.695 181.292 52.543 180.483 55.924 178.173 59.797 173.693 62.199 172.009 66.956 171.421 72.253 173.047 80.2 160.657 79.722 159.648 78.657 159.508 50.753 160.546 50.408 166.861 47.859 174.952 48.04 177.949 49.239 181.177 54.769 179.132 59.858 173.508 63.604 171.521 67.938 171.557 72.108 173.18 80.078 160.31 79.542 159.541 50.885 160.628 49.957 168.447 48.026 173.332 47.903 177.612"><title>2020-09-08 6.1km</title></polyline><polyline fill="none" stroke="#ffb500" stroke-linecap="round" stroke-linejoin="round" stroke-width=".5" points="95.132 174.151 97.366 172.393 101.484 171.273 108.298 173.036 116.2 160.515 115.507 159.776 110.171 159.642 87.175 160.444 86.541 161.836 86.442 166.97 84.55 171.575 83.853 175.536 84.315 179.015 85.551 181.129 91.354 178.626 95.442 173.85 99.54 171.522 102.476 171.449 108.053 173.031 116.166 160.814 115.369 159.697 113.898 159.632 86.925 160.458 86.144 167.91 83.8 174.648 84.272 178.731 85.867 181.184 90.788 179.002 95.416 174.062 99.386 171.731 102.471 171.368 108.004 173.072 115.887 160.253 115.12 159.631 86.915 160.485 86.596 166.059 84.567 171.67 83.922 176.42 84.692 179.737 86.097 181.122 90.313 179.306 95.253 174.166 100.115 171.521 108.417 173.005 116.03 160.583 115.446 159.75 112.499 159.567 86.785 160.71 86.173 167.806 83.904 175.069 84.469 179.15 85.916 181.233 90.776 178.962 95.614 173.7 99.397 171.279 104.339 171.618 107.967 173.035 116.125 160.543 115.053 159.577 86.866 160.745 86.202 167.859 83.969 174.851 84.47 179.127"><title>2020-09-09 10.5km</title></polyline><polyline fill="none" stroke="#4dd2ff" stroke-linecap="round" stroke-linejoin="round" stroke-width=".5" points="131.496 173.81 131.934 172.935 134.044 171.979 137.652 171.21 144.077 173.114 152.119 160.363 149.799 159.642 122.798 160.649 122.179 167.639 120.12 173.245 119.8 177.076 121.292 180.855 122.193 181.181 127.287 178.657 130.762 175.37 131.85 173.433 133.973 172.097 136.326 171.433 140.068 171.538 143.996 173.397 151.965 160.767 151.798 159.838 150.416 159.619 123.257 160.457 121.987 168.584 119.87 174.202 120.394 179.187 121.452 180.946 123.746 180.712 126.667 179.04 132.509 173.093 135.008 171.646 140.044 171.532 143.962 173.466 152.2 160.371 150.94 159.643 138.039 160.176"><title>2020-09-10 5.4km</title></polyline><polyline fill="none" stroke="#4dd2ff" stroke-linecap="round" stroke-linejoin="round" stroke-width=".5" points="167.078 174.684 170.552 172.177 172.706 171.434 175.308 171.458 180.252 173.04 186.231 164.22 188.2 160.198 181.948 159.596 158.835 160.64 158.286 168.221 155.838 175.378 156.329 178.817 157.754 181.301 162.853 179.051 168.03 173.714 170.865 172.023 174.907 171.289 180.283 173.316 188.157 160.953 187.608 159.575 180.618 159.41 169.041 160.171 165.758 159.722 158.642 160.824 158.717 166.11 155.8 175.366 156.654 179.791 157.89 181.39 162.556 179.247 167.882 173.745 171.957 171.543 176.493 171.526 180.393 172.982 188.135 160.37 187.525 159.671 179.328 159.492 158.996 160.621 158.57 167.163 156.018 174.488 156.348 178.926 158.002 181.258 160.84 180.259 164.111 177.945"><title>2020-09-13 6.4km</title></polyline><polyline fill="none" stroke="#4dd2ff" stroke-linecap="round" stroke-linejoin="round" stroke-width=".5" points="22.965 215.42 26.271 213.115 28.864 212.311 32.13 212.489 36.276 213.913 44.2 201.205 43.44 200.554 36.636 200.442 15.111 201.254 14.559 201.948 14.557 206.582 11.8 215.889 12.52 220.277 14.039 222.008 17.79 220.545 22.939 215.358 27.158 212.751 30.739 212.184 35.095 213.875 36.162 213.69 44.04 201.451 43.032 200.445 35.081 200.402 14.89 201.529 14.416 207.531 12.104 214.12 11.814 217.165 12.446 220.226 13.13 221.63 14.03 221.856 18.188 220.162 21.949 216.859 22.958 215.128 28.563 212.07 31.639 212.221 35.237 213.9 36.221 213.701 44.011 201.7 42.979 200.334 15.286 201.203 14.63 201.954 14.288 207.916 11.865 215.798 12.414 220.208 13.655 222.066"><title>2020-09-15 6.2km</title></polyline><polyline fill="none" stroke="red" stroke-linecap="round" stroke-linejoin="round" stroke-width=".5" points="58.899 215.125 63.796 212.17 68.749 212.402 72.13 213.659 79.888 200.485 51.025 201.169 50.624 207.192 48.457 212.666 47.859 216.613 48.329 219.079 49.779 221.63 54.191 220.036 60.208 213.74 63.765 211.919 66.78 211.903 72.313 213.421 80.191 200.993 79.526 200.129 51.089 200.969 50.563 207.16 47.8 215.67 48.164 218.566 49.716 221.66 53.887 220.184 59.436 214.55 63.372 211.979 68.565 212.313 72.362 213.681 80.04 201.171 79.664 200.223 77.659 200.121 51.049 201.111 50.493 207.231 48.029 215.047 48.257 218.421 49.54 221.606 54.876 219.487 59.215 214.759 63.425 212.077 68.466 212.232 72.145 213.69 79.908 201.106 79.38 200.191 78.354 200.171 51.092 201.044 50.544 206.829 47.911 215.465 48.495 219.582 49.946 221.597 54.607 219.495 58.768 215.904 59.77 214.26 63.511 212.045 66.615 211.76 71.922 213.633 80.139 201.249 79.808 200.413 78.442 200.037 51.002 201.082 50.441 207.718 47.915 216.518 49.528 221.661 55.403 219.172 59.849 214.133 63.284 212.133 66.797 211.977 72.016 213.532 80.2 200.972 79.205 200.11 51.113 200.979 50.56 207.675 48.712 212.342 47.965 216.461 48.78 220.314 50.237 221.643 55.159 219.329 58.953 214.989 62.656 212.486 66.592 211.709 72.277 213.568 79.834 201.423 79.466 200.169 76.582 200.1 51.026 201.22 50.605 206.852 48.131 214.935 48.296 218.296 49.458 221.547 52.324 220.94 54.83 219.473 61.028 213.381 63.491 212.032 66.541 211.998 72.142 213.629 80.169 200.967 79.448 200.207 75.223 200.109 51.409 200.797 50.781 201.465 50.359 207.75 47.98 214.851 48.272 219.068 49.128 221.34 50.108 221.488 55.379 219.101 59.45 214.52 63.46 211.757 67.231 211.767 70.878 213.308 72.365 213.171 80.137 200.999 79.066 200.079 51.158 200.885 50.435 207.878 47.974 215.892 48.476 219.696 50.041 221.352 53.661 220.405 60.179 213.775 63.126 212.132 66.448 211.621 70.85 213.375 72.299 213.246 80.111 201.09 79.215 200.062 50.954 201.035 50.307 208.272 47.984 215.489 48.224 218.422 49.418 221.461 52.207 220.789 56.424 218.141 58.858 214.8 63.471 211.849 66.289 211.706 72.143 213.648 80.195 200.718 79.014 200.074 50.999 201.212 50.487 207.34 48.008 216.628 48.738 219.961 50.201 222.363 55.137 220.424 60.158 215.158 62.782 213.779"><title>2020-09-16 24.0km</title></polyline><polyline fill="none" stroke="#4dd2ff" stroke-linecap="round" stroke-linejoin="round" stroke-width=".5" points="95.824 214.741 98.371 212.82 101.642 212.265 105.385 212.943 107.935 214.216 116.2 201.424 114.539 200.468 107.711 200.399 87.02 201.273 86.685 207.206 84.692 212.245 83.8 217.185 85.079 221.525 86.432 222.062 91.682 219.222 94.846 215.472 98.751 212.683 103.202 212.339 107.922 214.125 116.148 201.579 115.179 200.535 110.845 200.338 86.996 201.457 86.749 207.269 83.967 216.107 84.759 220.512 86.038 222.033 90.685 219.771 93.787 217.258 95.277 215.11 98.708 212.748 101.907 212.265 108.237 213.793 116.148 201.289 115.571 200.593 113.688 200.366 87.264 201.392 86.546 208.51 84.012 216.081 84.604 219.991 86.174 222.009"><title>2020-09-18 6.3km</title></polyline><polyline fill="none" stroke="#4dd2ff" stroke-linecap="round" stroke-linejoin="round" stroke-width=".5" points="131.343 215.04 134.706 212.835 137.568 212.292 144.145 214.036 152.07 201.947 151.955 201.042 151.25 200.333 123.44 201.314 122.547 207.94 120.215 213.641 119.825 217.159 121.738 222.009 123.676 221.702 126.6 219.997 131.053 215.442 134.803 212.97 138.661 212.3 144.117 214.026 152.2 201.062 151.376 200.483 148.543 200.447 123.189 201.193 122.523 207.629 119.8 215.813 120.435 219.768 122.068 222.067 126.602 219.988 131.134 215.313 134.905 212.862 137.832 212.405 144.131 213.863 152.116 201.491 151.772 200.62 150.258 200.444 123.326 201.258 122.691 201.895 122.755 206.411 120.381 213.69 120.026 217.681"><title>2020-09-20 6.1km</title></polyline><polyline fill="none" stroke="#4dd2ff" stroke-linecap="round" stroke-linejoin="round" stroke-width=".5" points="167.124 215.158 173.59 212.162 180.642 213.69 188.132 201.132 186.782 200.446 158.86 201.517 158.558 206.652 155.8 216.016 156.241 219.491 157.609 221.978 160.146 221.603 163.526 219.661 166.98 215.336 171.646 212.368 174.546 211.991 179.473 213.873 180.505 213.569 188.2 201.489 187.101 200.465 159.382 201.239 158.79 201.966 158.397 207.734 155.848 215.834 156.233 219.484 157.765 221.866 160.749 221.202 163.318 219.58 167.754 214.554 171.862 212.325 174.94 212.187 180.108 213.973 188.083 201.124 187.351 200.422 159.28 201.302 158.662 201.992 158.332 208.012 156.115 214.164 155.836 217.474"><title>2020-09-22 6.1km</title></polyline><polyline fill="none" stroke="#4dd2ff" stroke-linecap="round" stroke-linejoin="round" stroke-width=".5" points="23.544 255.896 27.594 253.336 29.475 253.06 35.967 255.08 44.152 242.063 43.47 241.286 38.707 241.005 27.26 242.072 14.923 242.256 14.451 248.87 11.804 255.804 12.276 260.679 13.813 262.876 18.822 260.691 22.723 256.455 26.04 254.007 30.436 253.211 36.131 254.98 44.2 242.287 43.175 241.267 14.93 242.097 14.268 249.132 11.828 256.718 12.41 260.934 13.718 262.83 17.761 261.391 26.046 253.939 31.211 253.151 36.009 254.808 44.077 242.319 43.062 241.352 36.739 241.336 14.979 242.363 14.38 248.916 12.247 254.334 11.8 257.598 12.475 261.15 13.863 262.995"><title>2020-09-26 6.2km</title></polyline></svg>