<?xml version="1.0" encoding="utf-8" ?>
<svg baseProfile="full" height="300mm" version="1.1" viewBox="0,0,200,300" width="200mm" xmlns="http://www.w3.org/2000/svg" xmlns:ev="http://www.w3.org/2001/xml-events" xmlns:xlink="http://www.w3.org/1999/xlink"><defs /><rect fill="#222222" height="300" width="200" x="0" y="0" /><text fill="#FFFFFF" style="font-size:12px; font-family:Arial; font-weight:bold;" x="10" y="20">Picked Over 5km Runs</text><text fill="#FFFFFF" style="font-size:4px; font-family:Arial" x="10" y="280">ATHLETE</text><text fill="#FFFFFF" style="font-size:9px; font-family:Arial" x="10" y="290">DuanFei</text><text fill="#FFFFFF" style="font-size:4px; font-family:Arial" x="120" y="280">STATISTICS</text><text fill="#FFFFFF" style="font-size:3px; font-family:Arial" x="120" y="285">Number: 26</text><text fill="#FFFFFF" style="font-size:3px; font-family:Arial" x="120" y="290">Weekly: 2.0</text><text fill="#FFFFFF" style="font-size:3px; font-family:Arial" x="141" y="285">Total: 199.6 km</text><text fill="#FFFFFF" style="font-size:3px; font-family:Arial" x="141" y="290">Avg: 7.7 km</text><text fill="#FFFFFF" style="font-size:3px; font-family:Arial" x="167" y="285">Min: 5.0 km</text><text fill="#FFFFFF" style="font-size:3px; font-family:Arial" x="167" y="290">Max: 24.0 km</text><polyline fill="none" points="23.325825138017535,33.422444465977605 23.727512040175498,32.658941957575735 30.3370874307584,32.51578508486273 33.84271857701242,33.39858503328287 36.50845892797224,32.61122300539864 41.36521874507889,34.30524253559997 38.99161432310939,61.86193815921433 35.9241870699916,64.20000000001164 14.342645325697958,56.54160676556057 17.446589569794014,32.42034714308102 34.5000244169496,32.94525555858854 36.54497591895051,34.44839880694053 41.438252727501094,34.32910191765404 39.02813131408766,61.694933251070324 37.7500366254244,63.38883714139229 35.595534150255844,64.10456915566465 14.598264263477176,56.23145086807199 17.702208507573232,32.110173684486654 29.35112867085263,32.68280143159791 41.65735467406921,34.5199769246974 39.210716269677505,60.90762351639569 38.15172352781519,63.245690594339976 35.85115308780223,64.1522845804866 14.74433222785592,56.23145086807199 17.702208507573232,32.253330693463795 21.609526556218043,31.800000000017462 23.289308146806434,32.53964456691756" stroke="#4dd2ff" stroke-linecap="round" stroke-linejoin="round" stroke-width="0.5"><title>2020-06-12 5.6km</title></polyline><polyline fill="none" points="59.735767216654494,32.80878413884784 73.22691748826765,32.85682141938014 77.45438964455388,34.4420486659219 76.05748580163345,54.71322599222185 74.32973631145433,63.16727275465382 72.52846556692384,64.20000000001164 70.54339168500155,63.983847991592484 55.69209819776006,59.03633890597848 50.50884972838685,56.39444174786331 51.060259140096605,49.789627653954085 53.633503060787916,32.28037369536469 73.4842418807093,33.0009332295449 77.52791089913808,34.2739187811967 75.28551262523979,61.55813464894891 73.0431143513415,63.983847991592484 70.2125460379757,63.839746592217125 58.66970902075991,59.97300762706436 50.47208910086192,56.41845906802337 52.75124800228514,35.40278959964053 53.412939296104014,32.376448369876016 54.58927937457338,31.79999999998836 65.39690384292044,32.20831767539494 68.92592407739721,33.14504499107716 73.74156627245247,32.80878413884784 77.67495340900496,34.51410431045224 75.35903388005681,60.933691369893495 74.44001819402911,62.95112022550893 72.52846556692384,64.10393245419255 63.88971811765805,62.11052602250129 50.32504659099504,56.274355126719456 52.310120473150164,40.80691725021461" stroke="#4dd2ff" stroke-linecap="round" stroke-linejoin="round" stroke-width="0.5"><title>2020-06-16 5.3km</title></polyline><polyline fill="none" points="95.51310992287472,33.401221435691696 100.19821602734737,32.529969351919135 107.04567879531533,33.11865339009091 113.10027745342813,35.12017295448459 110.72168512339704,62.2692560031428 108.81160340388305,63.893907030898845 106.97360023995861,64.1529087885865 86.8276439907495,56.47697081879596 89.56662909802981,32.71834833393223 94.14361736923456,31.800000000017462 111.62266706652008,34.3431135493156 113.06423817574978,34.95534229159239 113.20839528669603,37.75745477291639 111.80286345514469,53.48661349742906 110.72168512339704,61.63352128365659 108.70348557061516,64.03518073674059 106.07261829660274,63.823270160268294 86.89972254633904,56.47697081879596 89.20623632078059,34.15473529527662 89.85494331992231,32.64770622551441 94.75628509069793,32.17675853346009 107.80250362772495,33.3305794421467 113.02819889783859,34.908247804502025 110.90188151202165,60.809419290395454 110.07297812448815,62.95208111291868 107.80250362772495,64.20000000001164 86.79160471330397,56.21796433310374 89.35039343172684,35.732400565437274" stroke="#4dd2ff" stroke-linecap="round" stroke-linejoin="round" stroke-width="0.5"><title>2020-07-10 5.3km</title></polyline><polyline fill="none" points="132.4761073978152,32.34876867281855 136.16432659793645,31.847719043085817 147.70370548125356,33.350866163906176 149.42000550497323,34.25752376773744 147.0463990890421,61.6233596985694 146.0239224792458,63.38883714124677 143.43121393281035,64.20000000001164 131.41711376607418,60.215744063491 122.72606258187443,56.01672742186929 125.39180517196655,32.658941957663046 127.43675839202479,31.800000000017462 140.69243729882874,33.13613118568901 144.01548628113233,32.658941957663046 149.60259061376564,34.37682067728019 147.302018241724,60.59747079695808 145.84133737022057,63.36497938676621 143.46773095428944,64.15228458039928 133.4620669861324,60.382749551325105 131.41711376607418,60.740618233947316 122.47044342965819,56.040585587819805 125.4283221939113,32.49192560141091 126.41428178199567,31.800000000017462 131.30756270093843,31.847719043085817 133.64465209492482,32.73052037585876 145.1475139562972,33.04069338279078 149.60259061376564,34.42453943181317 146.93684802367352,62.14823213493219 143.90593521599658,64.17614229093306 135.54353722766973,61.40863897019881 133.64465209492482,60.00102262568544 131.67273291875608,60.19188613133156 122.36089236428961,55.73042932560202 125.31877112854272,33.47016332732164 126.0125945424661,31.99087614027667 135.6165712713264,32.0385951618664 149.6391076357104,34.23366438184166 146.8638139802497,61.265491757687414 145.76830332679674,63.054828456486575 143.43121393281035,63.88984967759461 131.709249940468,60.239601994340774 122.57999449502677,55.945152915723156 125.39180517196655,32.229471195314545 126.70641795615666,32.0385951618664" stroke="#4dd2ff" stroke-linecap="round" stroke-linejoin="round" stroke-width="0.5"><title>2020-07-18 7.3km</title></polyline><polyline fill="none" points="168.31616696878336,33.165479844174115 179.58019489096478,33.096048774488736 184.75172972329892,34.85496560970205 182.66186290746555,61.098967071360676 181.52837582095526,63.0429008823121 179.36766606243327,63.899154541111784 159.0003199763596,56.4705164321349 161.97572357859462,32.72574953947333 169.48507552663796,32.33230623861891 182.8743917364627,34.13751359417802 184.85799413756467,34.99382714624517 185.0351014949847,35.85013892385177 183.83077146555297,54.34141173117678 182.5555984931998,61.35353035264416 181.3866899353452,63.158610939921346 180.04067401983775,63.899154541111784 177.24237777502276,63.48259892873466 159.10658439062536,56.516801195044536 159.42537763365544,51.101448748027906 162.08198799286038,32.61003096046625 171.2207276278641,32.33230623861891 184.82257266622037,35.0401143146737 183.86619293689728,54.10998664612998 182.5201770218555,61.28410401887959 180.6074175632093,63.621450846112566 177.41948513220996,63.66773480823031 159.0357414477039,56.35480450213072 161.6569303353317,34.32266262063058 162.4007812361233,32.56374351971317 171.57494234247133,32.216587549453834 184.71630825195462,34.80867842040607 182.8743917364627,61.44609877973562 181.1033181634266,63.66773480823031 179.296823119279,64.20000000001164 158.9648985050153,56.100238141574664 161.7986162211746,33.39691665864666 162.4007812361233,32.58688724061358 166.50967192463577,31.892575047328137 171.68120675673708,31.800000000017462 176.85274158907123,33.46634767780779 180.99705374916084,33.44320400612196 185.0351014949847,35.06325789692346 184.0433002943173,52.559435233823024 182.5910199645441,61.12210919443169 180.7845249203965,63.5983088631765 178.51755074737594,63.899154541111784 159.07116291928105,56.14652294613188 161.8340376925189,33.30434194832924 162.57788859307766,32.51745607389603 166.65135781024583,31.962006319197826 181.67006170679815,33.83664624913945 184.8934156091418,35.0401143146737 182.48475555027835,61.33038824269897 181.52837582095526,63.01975886701257 179.1551372334361,63.899154541111784 159.0003199763596,56.44737404875923 162.32993829296902,32.7720369619492" stroke="#ffaf00" stroke-linecap="round" stroke-linejoin="round" stroke-width="0.5"><title>2020-07-31 11.0km</title></polyline><polyline fill="none" points="25.018668186385185,73.10815915689454 37.94394524139352,73.64051572789322 41.388216777471825,74.87461252900539 40.61047804355621,94.13574498210801 38.90685986448079,102.77393881743774 37.01806579600088,104.83062618254917 34.72188477218151,104.80642991754576 14.537712866906077,96.70060487452429 17.241280846996233,72.60000000000582 37.6476638186723,73.30174344044644 41.0549001772888,74.77782075043069 41.46228713286109,78.3349043688795 38.86982468655333,103.01590254489565 36.3884677735623,104.87901870862697 33.166407304117456,104.2741117439873 14.833994289394468,96.91837529613986 14.722888755844906,94.2567292812455 17.574597447179258,72.60000000000582 27.648165810853243,72.62419806842809 41.42525195516646,74.92300841026008 39.61052824277431,98.92669734536321 38.86982468655333,102.87072432480636 37.27731204079464,104.80642991754576 35.240377261303365,105.0 14.908064645016566,96.96676870825468 15.167310889577493,90.48200318266754" stroke="#4dd2ff" stroke-linecap="round" stroke-linejoin="round" stroke-width="0.5"><title>2020-08-02 5.0km</title></polyline><polyline fill="none" points="61.24096252117306,73.12183515811921 73.18469055462629,73.9757458482054 77.21433739853092,75.61240319171338 76.08894053194672,94.13702582524274 74.41899679484777,103.03140307890135 72.67644680826925,104.83397410690668 70.7523811981082,104.95256403708481 52.96385008492507,98.47750525860465 50.785662601701915,97.00696529611014 53.653609454631805,73.33531299195602 62.438965637236834,72.81347809702856 70.31674370146357,74.28410206310218 73.54772180155851,73.76226833704277 77.32324677263387,75.94447782300995 75.32657491299324,99.07046347670257 73.36620617797598,104.43076809565537 71.33323119371198,105.0 64.79866874380969,103.17371159681352 50.74935947707854,97.55248878113343 51.3665125973057,88.01758581539616 53.58100320515223,73.05067585635697 63.528059378731996,72.59999999997672 77.10542802419513,75.3040479439369 75.29027178813703,99.28392823188915 74.3826936702244,103.17371159681352 72.13189993752167,105.0 50.96717822528444,97.03068372304551 53.435790706425905,73.54879071839969 58.91756253922358,72.59999999997672 73.69293430051766,74.35526115767425 77.25064052338712,75.65984244065476 74.99984679045156,101.20510618772823 73.94705617357977,103.79038128891261 72.02299056341872,104.97628201925545 64.0363031248562,102.79422210942721 50.676753227366135,97.19671267503873 52.41930321394466,82.06409227242693" stroke="#4dd2ff" stroke-linecap="round" stroke-linejoin="round" stroke-width="0.5"><title>2020-08-07 7.1km</title></polyline><polyline fill="none" points="96.37277945131063,73.75550138566177 109.4379917755723,74.13280727388337 113.08325819741003,75.68919048862881 112.21705627534539,95.16707572029554 110.5929276717361,102.92496554952231 109.32971653528512,104.41050261637429 107.01984474319033,104.76420114550274 87.09720053616911,96.77054187090835 89.73189804889262,73.66117486084113 95.00129307457246,72.95372525052517 105.21525740553625,74.2978784936131 109.4379917755723,73.80266464027227 113.08325819741003,75.47695675271098 113.22762518445961,79.72161114716437 111.31476260651834,99.27005045759142 110.73729465855286,102.54768546010018 109.36580828181468,104.3633427900786 107.59731269115582,104.9528402396827 102.40010115900077,103.32582527439808 86.77237481530756,96.88844355280162 89.69580630213022,73.47252174775349 100.5233303278219,72.60000000000582 105.75663360673934,74.15638888045214 111.6395883273799,74.39220487573766 113.19153343746439,76.11365763971116 112.0726892882958,94.27101844735444 110.3763771909289,103.27866532644839 107.30857871705666,105.0 92.69142128247768,99.74165418746998 87.06110878917389,96.67622050154023 89.6236228083726,73.80266464027227 94.71255910070613,72.62358169246 101.17298176931217,73.04805193413631 103.59112880169414,74.2978784936131" stroke="#4dd2ff" stroke-linecap="round" stroke-linejoin="round" stroke-width="0.5"><title>2020-08-09 5.6km</title></polyline><polyline fill="none" points="131.66086865402758,74.53074287757045 144.74972593714483,74.72364584886236 149.12217067647725,75.72709197268705 147.85886424360797,94.21399850558373 146.3865151165519,102.96927448676433 144.63599293679,104.65705520124175 142.19481436605565,104.65415449475404 128.59478393848985,99.40569080165005 123.47117268526927,97.10961802885868 122.83944030757993,96.00618742706138 125.77566479775123,73.8026651511027 143.45131923793815,74.69457174788113 149.05717959115282,76.02644894490368 147.23653342481703,99.71629204595229 146.17352882795967,103.34704830439296 143.55112825380638,104.82377665897366 123.26378105161712,96.9862428602064 125.69147175457329,73.40162280047662 136.0776863724459,73.94272029865533 149.0691600877326,76.05286339312443 147.1200147040654,99.55591780148097 145.5110467541963,104.14215393352788 143.93593513825908,104.89095725596417 141.4747799965553,104.6001911732601 123.34958276129328,97.12860522931442 123.16098414780572,95.96038958779536 125.97474509640597,73.50146288916585 137.12419978692196,72.60000000000582 141.71890386356972,74.45831252384232 147.3198504236061,74.82128550935886 149.16055969242007,76.35693798723514 147.69802252645604,96.21305813701474 146.59188537299633,102.84419579309179 143.73407803103328,105.0 123.3368205751758,97.25441610874259 125.56959156738594,75.43169943831163" stroke="#4dd2ff" stroke-linecap="round" stroke-linejoin="round" stroke-width="0.5"><title>2020-08-14 7.2km</title></polyline><polyline fill="none" points="167.33831033366732,73.77517237694701 172.77083057467826,73.12762881303206 185.47118194866925,74.75847739796154 183.6358710564673,98.62091919107479 182.7549218281638,102.69778630515793 180.258899014676,105.0 158.4186993977055,97.08608857460786 161.13495951821096,74.18288448895328 161.64884656807408,72.81584822927834 166.7143046304118,72.59999999997672 181.91067881765775,74.01500307812239 185.58130060206167,75.11822257313179 183.0485715707764,101.73852694639936 182.05750368908048,103.87287609154009 180.33231145050377,104.88009334218805 166.97124815522693,100.77926543887588 158.4186993977055,96.94219792232616 161.13495951821096,74.44669800164411 161.53872791444883,72.88779761482147 163.15380149963312,72.62398314190796 180.00195548962802,73.63127389192232 185.43447573063895,75.31008654314792 182.93845291715115,101.97834198747296 181.87397259962745,104.01676441525342 179.85513061843812,104.97601867115009 170.0545704541728,101.33084106829483 167.11807302664965,101.0190810172644 158.67564292275347,96.91821614225046 161.06154708261602,74.71051135179005" stroke="#4dd2ff" stroke-linecap="round" stroke-linejoin="round" stroke-width="0.5"><title>2020-08-20 5.4km</title></polyline><polyline fill="none" points="24.097586542833596,114.1456844934437 35.473489922937006,114.53055340278661 41.43755577271804,116.1421882151335 40.259468691190705,135.1205372903205 38.713229396846145,143.972002695431 37.240620544878766,145.51136936369585 35.289413816295564,145.79999999998836 14.70970511296764,137.4777388322982 17.470846709795296,113.68865221561282 22.477716805879027,113.39999999999418 41.143034002278,115.73326652182732 40.443544797599316,134.47110193927074 38.676414175424725,144.18847646645736 37.019729217281565,145.55947448327788 34.88444638205692,145.67973725835327 14.599259448703378,137.67016287677689 17.507661931216717,113.4240543586784 41.17984922369942,115.73326652182732 40.038577363593504,134.92811210354557 38.3082619626075,145.05437046001316 35.547120365547016,145.75189490735647 22.551347248256207,141.42241451572045 14.7465203339234,137.57395086521865 14.67288989154622,134.85595263604773 17.654922816203907,113.44810871602385 41.17984922369942,115.85353764850879 38.786859839456156,144.3808975048305 35.65756602934562,145.79999999998836 14.562444227514789,137.79042786092032 17.618107595015317,113.76081523904577 23.582173444563523,113.39999999999418 41.06940355966799,115.56488688808167 41.29029488749802,121.62651212225319 39.30227293772623,142.36047230378608 37.97692497097887,145.05437046001316 35.289413816295564,145.58352704095887" stroke="#4dd2ff" stroke-linecap="round" stroke-linejoin="round" stroke-width="0.5"><title>2020-08-21 8.2km</title></polyline><polyline fill="none" points="59.2246957346797,114.20456049928907 77.04984651482664,115.90524857066339 75.67973668198101,132.85607316109235 77.67668213602155,134.72603269293904 75.28057632199489,136.93720510340063 74.09191861585714,143.92336705641355 71.39005103497766,145.79999999998836 50.388451556209475,137.897390211554 53.39035233971663,113.726569392893 58.05008945195004,113.39999999999418 75.20131806354038,115.3827218231163 77.06522018020041,116.69286758851376 75.43366233725101,135.94412264661514 74.40055068489164,142.93814643716905 73.10930847097188,145.1545925225364 69.99244586122222,145.54568063563784 58.527725893072784,141.2011683556484 50.538098628865555,138.0373665370571 50.323317864211276,136.29635833142675 52.91326445690356,113.72925692840363 76.5144237705972,115.93451229741913 76.92956697568297,120.19160544683109 74.24249294912443,143.59638103141333 71.19170331512578,145.6654308710131 50.6728470926173,138.36500541711575 50.420044305035844,133.63694344542455" stroke="#4dd2ff" stroke-linecap="round" stroke-linejoin="round" stroke-width="0.5"><title>2020-08-27 5.1km</title></polyline><polyline fill="none" points="94.92711830837652,133.50443166823243 99.43711667042226,130.84270600567106 105.18070757668465,131.19451581750764 107.79200500040315,132.33919765678002 115.58161246683449,120.91682699142257 115.89651355333626,119.49389934833744 115.1276730869431,118.8885555229208 104.65719521255232,118.91528665891383 87.15448749088682,119.79683759663021 86.42939866962843,126.03480123210466 83.8036994128488,133.445658095181 84.20380401867442,137.8588088522083 85.66450407844968,140.24807214052998 87.55791079485789,139.91586753138108 91.46817884128541,137.78977330593625 94.66251267702319,133.96060310376924 98.8844169578515,131.21141230795183 103.69603848364204,130.74322863304405 107.02252743882127,132.44562804655288 107.89035915979184,132.29016241207137 116.05146324657835,120.22372300896677 115.663263495313,119.1903669651947 114.21988305449486,118.84181667672237 87.27611492667347,119.85502662905492 86.7046307483688,120.70173019249341 86.46304766647518,125.92057999031385 84.30366706522182,132.18620748622925 83.80000000004657,135.92972078194725 85.61629723175429,140.35818332328927 90.34163704072125,138.63173220222234 96.77328520640731,132.20802534653922 99.15124862617813,131.0576881035522 104.1023180608172,130.78762480532168 107.84159923670813,132.35530542343622 116.19999999995343,119.58910547135747 115.51858923607506,118.91266501924838 110.6060432381928,118.86142014650977 86.8830794673413,119.78311329768621 86.71769387507811,125.03528263617773 84.47681102110073,131.55335862495122 83.82618085085414,135.8628800373117 85.07252355990931,139.593545627431 86.18543873913586,140.311902697169" stroke="#4dd2ff" stroke-linecap="round" stroke-linejoin="round" stroke-width="0.5"><title>2020-09-02 6.2km</title></polyline><polyline fill="none" points="131.09497945569456,133.59186581181712 135.34767221007496,130.85573814756935 139.7673391532153,130.65744666822138 142.83409644290805,132.27266789998976 144.26875909161754,132.06843910654425 151.8370894100517,119.5263250861608 150.16469098068774,118.7489573545754 146.316635255469,118.72838506766129 123.06408660905436,119.62959152509575 122.23353047389537,126.96321809507208 119.80000000004657,135.3848409515922 120.6217389376834,138.83477852860233 121.79539366904646,140.37427886939258 127.27690947055817,138.25136150346952 131.69524499657564,132.95731084325234 133.8593738710042,131.60801550283213 139.36189255095087,130.7410893565393 143.96666685887612,132.2753832032904 152.15323219425045,119.87483847062686 151.42061340715736,119.08534286016948 147.67160918284208,118.57088485523127 136.06985557358712,119.68380814776174 127.42679191706702,119.34947597768041 122.64378637145273,119.99935161747271 122.5958190257661,125.67772613558918 119.80432228022255,134.30008317466127 120.63878313056193,139.111829122965 121.93940270273015,140.57256269958452 126.48144084680825,138.74967640952673 131.9175325150136,132.66847968372167 134.97706783865578,130.9093330364267 138.838741323445,130.7143720019667 143.9129933777731,132.38114371860866 152.1264400803484,119.63679610841791 150.88725269702263,118.96737311469042 145.95358852134086,118.77882399005466 122.8891330419574,119.84883094709949 122.31156548927538,126.47056807111949 119.83425755891949,134.81486556280288 120.47371239005588,138.3462357384269 122.01299815950915,140.48753261441016 126.60788355069235,138.6032540241722 131.90095867961645,132.9025898509717 135.85481410566717,130.84756106694113 139.79627339867875,130.9023178894713 144.04538791207597,132.44609363746713 152.19999999995343,119.81313859586953 151.4199023616966,119.05083586511319 147.03690564865246,118.85107092108228 123.07871017116122,119.87367267117952 122.45230747829191,126.02965532374219 120.0135714430362,133.40833928686334 120.19238904956728,137.27819393054233 121.78452490479685,140.62911514480948 126.37176537094638,138.83151176557294 131.03546962537803,133.49381356558297 135.24606270948425,131.11563814475085 138.9968524328433,130.6076388990332 143.1394531170372,132.33824274502695 144.0883524972014,132.1676255770144 151.87773960153572,120.26416938490001 151.61197339184582,119.28176679980243 150.26858524628915,118.94527825800469 123.03037584782578,119.8853942026617 122.64474432752468,126.06975161086302 119.96254061162472,133.9331105016754 120.57010892219841,138.64983996527735 121.92169197252952,140.50479064855608 127.54284691927023,137.9975974066474" stroke="#ffb200" stroke-linecap="round" stroke-linejoin="round" stroke-width="0.5"><title>2020-09-04 10.7km</title></polyline><polyline fill="none" points="166.77871067658998,133.82280481397174 170.4095961258281,131.30608430271968 173.94971215515397,130.7633646414033 180.42904229578562,132.39195370170637 183.67348790820688,126.2828328969772 188.19999999995343,119.88853819775977 187.11942528607324,118.90444108730298 184.34475243091583,118.84033047841513 159.06961650424637,119.71921423019376 158.35416426463053,126.46798006247263 155.85339748417027,134.65852156907204 156.10907759470865,137.71526664597332 157.65768459415995,140.4691738061956 162.26574783213437,138.52819678006927 168.18142494163476,132.64972374614445 170.75385100021958,131.30239530018298 174.0680946111679,130.7024782927474 180.24880719766952,132.1683016397874 187.868164624786,119.98025372991106 187.07535727345385,118.922283040185 179.12250711256638,118.73082619384513 171.25162877212279,119.52374073889223 159.16466747177765,119.57400149057503 158.60337917529978,120.35737321723718 158.5575522161089,125.87584581959527 155.80000000004657,134.88462510122918 156.57344367727637,139.2339903229731 157.83802004298195,140.3726359140128 163.12651484133676,137.99275991358445 166.58156180288643,134.0853548637533 171.1293248361908,131.01368430137518 175.04027107427828,130.67905218558735 178.92674537119456,132.25116988114314 180.33883972186595,132.0177192669653 187.69942825334147,119.45829540168052 186.96750082122162,118.93690658797277 177.55780725576915,118.79671666951617 159.0890132091008,119.74473884337931 158.2322162494529,126.99719965594704 156.10919668641873,132.38535299932119 155.98542777751572,137.57455673255026" stroke="#4dd2ff" stroke-linecap="round" stroke-linejoin="round" stroke-width="0.5"><title>2020-09-05 6.1km</title></polyline><polyline fill="none" points="24.60139531432651,172.748587440321 28.0778405086603,171.25632394399145 31.585986799793318,171.46946958781336 34.40538129187189,172.86772256420227 36.30889370595105,173.00526065946906 44.08730157162063,160.94309308443917 43.83211128087714,159.9549818355008 39.956498307874426,159.4986018926138 14.955297838430852,160.44578607100993 14.09832093049772,168.07596684372402 12.18089458742179,172.696295497939 11.865758606698364,175.5858085997461 12.50094014685601,179.26537332928274 13.848734105704352,181.07431216925033 18.13473621220328,179.5528412173444 25.86714016762562,172.24101777988835 29.0885888626799,171.31578587394324 35.99930091947317,172.99171486942214 44.028321381192654,160.8383069074771 43.366193152964115,159.73136402841192 39.47274939552881,159.44919449731242 15.166195311583579,160.45995069068158 14.294341835193336,167.5700935445784 11.889584685210139,173.8782200778369 12.541772804921493,179.42690642847447 14.05300978035666,181.2029359768785 19.729673898778856,178.2656243830279 24.14672104176134,173.3057333243196 26.72946468833834,171.80048344359966 30.56891151657328,171.2905325308093 35.968939114362,173.05555324137094 44.199999999953434,160.61582746755448 43.66880300315097,159.81199947927962 42.192141028121114,159.6280632779235 14.95576837589033,160.50821888702922 14.04526076395996,167.97056433098624 11.854456560919061,175.16949054494034 12.298812511144206,178.7296220062126 13.649896618211642,181.35080550270504 18.403670066501945,179.45351309530088 23.379445673897862,174.11488437253865 26.7818954216782,171.70645703544142 30.254065768094733,171.3448253837414 35.95357860554941,173.18359005177626 44.00221596402116,160.41434713455965 43.396174440626055,159.63931922602933 41.52122079045512,159.50076617210289 20.592990113887936,159.9363119249465 14.701275032712147,160.6183425883646 14.396193869877607,166.3948676107393 11.867508721072227,174.9385577068606 12.46863560937345,179.3062137188681 13.755797392688692,181.1488463737769 19.091210218379274,178.98388993021217 26.145363515941426,172.20865548728034 29.05311885336414,171.45894301318913 31.87950056931004,171.74844133897568 35.918729616794735,173.36843783274526 44.13187592709437,160.72582164112828 43.73878297931515,159.88866243773373 42.39826173661277,159.5854003180866 24.174607335589826,159.7532597630634 15.086046528303996,160.4913687223161 14.367830246919766,167.4449778618582 12.44673265889287,171.99688100159983 11.800000000046566,176.13695404530154 12.671088451053947,179.94980562920682 13.965975844999775,181.19568811592762 18.79283700371161,178.97486241618753 24.869688383303583,172.61129545688163 27.569821171928197,171.4370654602244 31.891216956777498,171.60339602912427 36.180499779758975,173.2357546914718 43.507459791144356,161.78111430988065 43.787121407687664,159.92574025929207 15.134527266025543,160.42442618845962 14.24079581676051,167.44754574800027 11.97029350977391,173.5811509792693 12.249981231754646,178.81155552421114 13.629605465335771,181.13506136494107 17.280353101203218,179.9862991704431 24.588980020489544,173.0396624013083 26.633616976207122,171.90961745308596 30.31601827009581,171.3122370207857 35.55234569264576,173.1670690200699 36.463945334544405,172.95195118064294 43.96917707216926,160.94273502280703 43.80772989988327,159.98738299219985 15.14500450133346,160.48959996338817 14.528165082912892,167.06337269663345 11.848661738680676,173.9289339238021 12.074882759014145,178.31008561095223 13.321117951534688,180.88818134908797 14.696499621495605,181.15916400472634 18.55061500822194,179.2077774524805 24.98345187935047,173.21769869735" stroke="#ff7600" stroke-linecap="round" stroke-linejoin="round" stroke-width="0.5"><title>2020-09-06 15.2km</title></polyline><polyline fill="none" points="59.021783818723634,174.002756721864 62.23071298748255,171.81145578395808 65.52441590512171,171.27742553703138 72.11553627345711,173.1614149218949 79.31985115283169,162.08696356366272 79.92686928692274,159.8348257918551 71.92777512106113,159.53950856509618 50.98824665509164,160.41878488019574 50.29205919895321,167.1893217532488 47.800000000046566,174.74801133852452 48.25966159906238,178.81283396470826 49.69485403038561,181.29230289891711 52.542862594127655,180.483225002361 55.92432402307168,178.17273381786072 59.79733928432688,173.69291166504263 62.19893410964869,172.0093909537827 66.95582838635892,171.42056073670392 72.25284250825644,173.0469594762253 80.19999999995343,160.6567822113866 79.72160948440433,159.64849779070937 78.65656235371716,159.50769710107124 50.752633473137394,160.5456706119876 50.407861246028915,166.8610940943181 47.859125598100945,174.95181793914526 48.039786998415366,177.9494388466701 49.238687072880566,181.17672506938106 54.76865882030688,179.131872590282 59.858424161793664,173.50797522591893 63.60446469252929,171.52115567572764 67.9376601150725,171.55668069358217 72.10759952501394,173.18003950823913 80.07806445425376,160.30996390146902 79.54237890522927,159.54071383932023 50.884596420452,160.6278303701547 49.95717272628099,168.44679776759585 48.02626904845238,173.33180703272228 47.90263374289498,177.61236274591647" stroke="#4dd2ff" stroke-linecap="round" stroke-linejoin="round" stroke-width="0.5"><title>2020-09-08 6.1km</title></polyline><polyline fill="none" points="95.13234732765704,174.15139428072143 97.36600952921435,172.3932471772132 101.48390383343212,171.27258284404525 108.29803112521768,173.03570870574913 116.19999999995343,160.51503412454622 115.5072848496493,159.77589710289612 110.1714370814152,159.64162746228976 87.17542029335164,160.4436660289357 86.5412967116572,161.8364966044319 86.44229846913368,166.9704550858296 84.55025867326185,171.5748119726195 83.85308245290071,175.53622177240322 84.31540763797238,179.0149262358609 85.55125104961917,181.12865422983305 91.35449122195132,178.62634461268317 95.44221655954607,173.84981006654561 99.53965952270664,171.52172193402657 102.476457367884,171.44941586189088 108.05279240501113,173.0313915158331 116.16607392393053,160.81435078874347 115.36922446731478,159.69720251805848 113.89812936657108,159.63175508895074 86.9250909469556,160.45796195365256 86.14357927371748,167.9104336517339 83.80000000004657,174.6480333864165 84.27175296214409,178.73068039445207 85.86729331570677,181.1843424323015 90.78766211518086,179.00246181566035 95.41565980785526,174.0622239037766 99.38603349518962,171.73086955366307 102.47130437660962,171.367759652494 108.00411770725623,173.07157084241044 115.88662800658494,160.2526198757114 115.1203714183066,159.6314633222355 86.91511431103572,160.48545195773477 86.59563213773072,166.05886163012474 84.56652709050104,171.67048758131568 83.92214324045926,176.42020159284584 84.69234477519058,179.73664178015315 86.09670267347246,181.12243884033523 90.3127873907797,179.30594894531532 95.25343201402575,174.16563421298633 100.11472470872104,171.52083813672652 108.41736572934315,173.00487333672936 116.03010711399838,160.5834295974928 115.44606626266614,159.75023489020532 112.49936257326044,159.56727536968538 86.78545596613549,160.70963298768038 86.17280823551118,167.80568878242048 83.90446697291918,175.0687938616611 84.46903043659404,179.15016334370011 85.91560222348198,181.23272463030298 90.77611711551435,178.96178729701205 95.61384037067182,173.69992189775803 99.39661194942892,171.27924798917957 104.33916696091183,171.61794843350071 107.966552763246,173.034732081549 116.12482249015011,160.5434327297262 115.05308315623552,159.57704313335125 86.86602849001065,160.74453446266125 86.20183509332128,167.85881510097533 83.96926963073201,174.85105885312078 84.47001716471277,179.12730019490118" stroke="#ffb500" stroke-linecap="round" stroke-linejoin="round" stroke-width="0.5"><title>2020-09-09 10.5km</title></polyline><polyline fill="none" points="131.4959682840854,173.8096196516999 131.9340803651139,172.93484380329028 134.04386593704112,171.97875162833952 137.65201572841033,171.20956313118222 144.07680465257727,173.11395575141069 152.11885448521934,160.36323763761902 149.7993661663495,159.6424742307281 122.79800437227823,160.64948706701398 122.1789403904695,167.63938994612545 120.12002704874612,173.24505081542884 119.80000000004657,177.07561869581696 121.29200238129124,180.854912532639 122.19288479792885,181.1812316722062 127.28697226685472,178.65687949338462 130.76207887311466,175.3701987969398 131.84960577450693,173.43289428079152 133.9728016324807,172.0973049608001 136.32591345882975,171.4332848865597 140.06831991579384,171.53849015416927 143.99627046613023,173.39668133389205 151.9654353542719,160.76674698278657 151.7980167369824,159.83837694724207 150.41574082849547,159.61876832778216 123.25663848337717,160.45658669195836 121.98721505119465,168.5842654853186 119.87006974685937,174.20159069186775 120.39430040214211,179.18739694802207 121.45209867088124,180.9458763427101 123.74604660156183,180.71170529403025 126.66678538220003,179.04035037965514 132.50891161710024,173.09252970438683 135.00849453755654,171.6456151251623 140.04448136826977,171.532067357708 143.96245740586892,173.46593516413122 152.19999999995343,160.3708720226423 150.9397906246595,159.64312007234548 138.03897874848917,160.1763972576009" stroke="#4dd2ff" stroke-linecap="round" stroke-linejoin="round" stroke-width="0.5"><title>2020-09-10 5.4km</title></polyline><polyline fill="none" points="167.07834640331566,174.68417854668223 170.5519949432928,172.1765277789964 172.7062952434644,171.43436049684533 175.30764215206727,171.45825155780767 180.2520118597895,173.0400121837156 186.23086266801693,164.2197478757589 188.19999999995343,160.19848587163142 181.94825170305558,159.59595785895362 158.8352515429724,160.6396259063913 158.28643262735568,168.2207073974132 155.83784797880799,175.37805197038688 156.32870335387997,178.81740955539863 157.75353837409057,181.30128882441204 162.8532527773641,179.05102521297522 168.03048404701985,173.71421940263826 170.86539450194687,172.02305612742202 174.90650698565878,171.28944539107033 180.2825104985386,173.31605189736 188.15665093902498,160.95339564190363 187.60831325571053,159.5751185058907 180.6183462953195,159.41007757023908 169.0408155072946,160.1706833341741 165.7583076597657,159.72177956197993 158.64242991665378,160.82443260145374 158.71714087598957,166.10951950674644 155.80000000004657,175.3662503878877 156.654142848216,179.79095458064694 157.8900930865202,181.38992242974928 162.5563866100274,179.2473311831418 167.88170216348954,173.7450931610365 171.95684206765145,171.54254289602977 176.4928123417776,171.5263554858102 180.39346747030504,172.9816730800958 188.13474181178026,160.3697165789199 187.5254153017886,159.6706945534097 179.32836285000667,159.49172157395515 158.99570511002094,160.62145199457882 158.57004344463348,167.1634524372057 156.01801574975252,174.48846378183225 156.34755448787473,178.92616614847793 158.00235208356753,181.2576662497886 160.83957300079055,180.25878832451417 164.11122797615826,177.94518793327734" stroke="#4dd2ff" stroke-linecap="round" stroke-linejoin="round" stroke-width="0.5"><title>2020-09-13 6.4km</title></polyline><polyline fill="none" points="22.965269775129855,215.42006155487616 26.270683279493824,213.11496794281993 28.863998460350558,212.31079032772686 32.1296958650928,212.48943769509788 36.275662382133305,213.91288691942464 44.200000000186265,201.20458872470772 43.43985357647762,200.55429942841874 36.635522928321734,200.44160539653967 15.110755137866363,201.2542274229345 14.559146923478693,201.94831451404025 14.556866452330723,206.58232961426256 11.800000000046566,215.88852475519525 12.520101164001971,220.27739096817095 14.038619209313765,222.0083283179265 17.790174534311518,220.54468164368882 22.938749057706445,215.35831906207022 27.158232036046684,212.75113370348117 30.73896673019044,212.18363194860285 35.09524680580944,213.8748143800767 36.16187138482928,213.69020754058147 44.03995993221179,201.45132827752968 43.031886694952846,200.44518516928656 35.08061435702257,200.4023706279113 14.88997060758993,201.5288722809928 14.416323370533064,207.53066695973394 12.104062422644347,214.12015491441707 11.814064389327541,217.1650499489042 12.445813012309372,220.22589529750985 13.130311116576195,221.6297633117647 14.02972032292746,221.85564704603166 18.18841312499717,220.16184746453655 21.94943981268443,216.85922382844728 22.958094217116013,215.12778481232817 28.563201824668795,212.07037881261203 31.638970411848277,212.22088178663398 35.236968361306936,213.89951782859862 36.22149464045651,213.70060999892303 44.01102489349432,201.69982128954143 42.979076428571716,200.33440943688038 15.286222469294444,201.2028440957074 14.63022547075525,201.95414824376348 14.28759966767393,207.91647975839442 11.865203923778608,215.79764937108848 12.413796070497483,220.20821648079436 13.655128819867969,222.0655905631138" stroke="#4dd2ff" stroke-linecap="round" stroke-linejoin="round" stroke-width="0.5"><title>2020-09-15 6.2km</title></polyline><polyline fill="none" points="58.89931480679661,215.1249109490018 63.796283721225336,212.17043047593324 68.74939927854575,212.4024849856214 72.12963474169374,213.6591986938729 79.88788296841085,200.48536731721833 51.02453786903061,201.16913422368816 50.62369591719471,207.19165730351233 48.456766117597,212.66613056932692 47.85878476919606,216.6129093064228 48.32914970978163,219.07941624720115 49.779013306833804,221.6298619834124 54.190881826449186,220.0361673218431 60.20775160915218,213.74028967061895 63.76499790372327,211.91877605451737 66.77953491196968,211.9029202798847 72.31276820739731,213.42106132744811 80.19123510061763,200.9925689419324 79.52581505896524,200.1290888954245 51.0888886610046,200.96905405743746 50.562592801172286,207.15969066342223 47.800000000046566,215.67031108328956 48.164368454832584,218.56586924832663 49.71583808469586,221.66037017735653 53.88719426654279,220.18399477563798 59.43554491456598,214.55045965276076 63.372074202634394,211.9791307291598 68.56497059995309,212.3130497484235 72.36169067607261,213.6809859413479 80.0398918138817,201.17133311237558 79.66392565052956,200.22280483413488 77.65929631283507,200.12073049214086 51.04934591241181,201.11146010670927 50.49307570233941,207.23065101349493 48.0285844381433,215.04721395339584 48.25718513526954,218.42080787505256 49.540311065269634,221.6063071768731 54.87551027163863,219.48709931757185 59.21488765301183,214.75896004168317 63.42540060658939,212.0765777741326 68.4660330703482,212.23161958018318 72.14517604443245,213.68983495328575 79.90805022325367,201.10618517058901 79.37954793986864,200.1905979756848 78.35446467273869,200.1707877284498 51.09223850397393,201.04435951902997 50.543768180767074,206.82893273650552 47.91142039233819,215.4646569514298 48.494620078010485,219.5822891574353 49.945780482608825,221.59671920639812 54.607434360310435,219.49517670235946 58.76825246331282,215.90380557029857 59.769808972021565,214.26033703421126 63.51111131720245,212.0448833682749 66.61466220789589,211.7602033886651 71.92210889142007,213.63276279787533 80.13892140146345,201.24941438244423 79.80764478747733,200.41319715816644 78.44174496713094,200.03664414348896 51.001796536613256,201.08153465701616 50.440980402519926,207.71814786366303 47.91536548733711,216.51791428899742 49.52814181125723,221.6611573715927 55.40311876917258,219.17214147988125 59.848845339147374,214.13292831671424 63.28415510733612,212.13281549324165 66.79712998308241,211.97653484810144 72.01552427071147,213.5319531497953 80.20000000018626,200.97180581756402 79.20489262323827,200.11029910764773 51.113237546989694,200.97872302346514 50.55980089469813,207.6751589452615 48.71216034935787,212.3421233377594 47.965382360620424,216.46142148354556 48.77959056477994,220.31411812474835 50.236826793057844,221.6432305702765 55.15931525779888,219.32885700909537 58.95282348222099,214.98850933092763 62.65641618077643,212.48561756880372 66.59227258781902,211.70879826703458 72.27746454789303,213.56768808342167 79.83404273632914,201.42337571200915 79.46584842167795,200.16911298767081 76.58235742431134,200.10006687126588 51.026249225018546,201.2204601658159 50.605197510216385,206.85246395363356 48.13103237748146,214.9350723644311 48.29571710061282,218.29625999575364 49.45758272707462,221.5467615214875 52.32393530476838,220.94040326672257 54.82983537064865,219.47267047321657 61.027940560597926,213.38067181632505 63.4907866823487,212.03192366071744 66.54115858930163,211.9977504782437 72.14152872213162,213.62897364620585 80.1691999626346,200.96658776397817 79.44837977574207,200.20691689042724 75.22297412110493,200.10934974861448 51.40947572700679,200.79724044341128 50.78086490975693,201.46451825345866 50.35940706729889,207.7504064842069 47.980172815267,214.85142465957324 48.27158804819919,219.06823613808956 49.12766106403433,221.34044098950108 50.108217149507254,221.48833746067248 55.37884547607973,219.1005833656527 59.45025345403701,214.51954285328975 63.46027001529001,211.75731665920466 67.23089204938151,211.76712101500016 70.87811323441565,213.30793444055598 72.36509846919216,213.17094183870358 80.13656715583056,200.99943641442223 79.06625860347413,200.07905239704996 51.158415240002796,200.88453983265208 50.43459702958353,207.87774324871134 47.97421343787573,215.89231283243862 48.476148606976494,219.69581761967856 50.0405181387905,221.35226332678576 53.661320206709206,220.40477189829107 60.179420572472736,213.77520623861346 63.12571959476918,212.132219977997 66.44836928439327,211.62063762472826 70.84998358297162,213.37459001119714 72.29942518635653,213.24604841612745 80.11052686325274,201.09009675003472 79.21479212492704,200.06247620275826 50.9537054086104,201.03486263231025 50.30748072499409,208.27214108977932 47.98381809843704,215.4892908690963 48.22370027960278,218.4220959309896 49.41837438149378,221.46067140161176 52.20659707626328,220.7893559798831 56.424268286442384,218.1414216805424 58.85792252118699,214.79959876695648 63.47080906829797,211.8493144499953 66.28928102809004,211.70589002181077 72.1430179302115,213.64843566250056 80.19518615119159,200.71846065905993 79.0136391853448,200.0743157909892 50.99917481956072,201.21155880443985 50.486790258437395,207.33955936241546 48.00781345088035,216.62797236972256 48.73804838722572,219.960673120484 50.200946076540276,222.36335585650522 55.13748796773143,220.42415992624592 60.15802232734859,215.15775015496183 62.78191919019446,213.77873018701212" stroke="red" stroke-linecap="round" stroke-linejoin="round" stroke-width="0.5"><title>2020-09-16 24.0km</title></polyline><polyline fill="none" points="95.82376486854628,214.74131259776186 98.3711961582303,212.819746546651 101.64184338692576,212.26473112028907 105.38457111432217,212.94311615868355 107.9349000742659,214.21615726716118 116.20000000018626,201.42410818004282 114.53853117814288,200.46846909885062 107.71060390933417,200.3992098266899 87.02006616839208,201.27282410956104 86.68461365113035,207.20614563595154 84.69239284680225,212.2445322322601 83.80000000004657,217.1850432267238 85.07918092282489,221.52521479164716 86.43202071962878,222.06195234353072 91.68238910683431,219.22210114708287 94.84590796777047,215.47168531393982 98.75106332823634,212.6825947278121 103.20231962716207,212.3387015897315 107.92191034881398,214.1252669657406 116.14820383372717,201.57868196617346 115.17856457829475,200.5353118996427 110.84504778124392,200.33804765646346 86.99592646001838,201.45675116346683 86.74869288899936,207.26900545228273 83.96664884942584,216.10681532535818 84.75938337971456,220.51191286588437 86.03792624711059,222.03338342468487 90.68514215573668,219.77148235987988 93.78654673951678,217.25763252776233 95.27658859756775,215.1104748128855 98.70848531881347,212.74835617281497 101.90692543773912,212.26498345154687 108.23742504417896,213.79335159942275 116.14788974286057,201.28857687325217 115.57092677149922,200.5927923922427 113.68802599329501,200.36597794477711 87.26400229567662,201.39225031118258 86.54598427889869,208.51025481204852 84.0117446584627,216.08065388753312 84.60405932064168,219.99056720521185 86.17358715157025,222.00871326265042" stroke="#4dd2ff" stroke-linecap="round" stroke-linejoin="round" stroke-width="0.5"><title>2020-09-18 6.3km</title></polyline><polyline fill="none" points="131.34260022407398,215.04021383920917 134.70631124265492,212.83488938587834 137.56786785810255,212.29200102903997 144.14450181811117,214.0362529644044 152.06970270653255,201.94712315284414 151.9550140928477,201.0420133539883 151.25042219669558,200.33294915256556 123.44013902940787,201.31433262265637 122.54741994244978,207.93984420443303 120.21477435319684,213.64134313698742 119.82461836119182,217.15939518224332 121.73770551360212,222.00860014508362 123.67644121916965,221.70161689154338 126.60004939441569,219.99733814632054 131.05263231974095,215.4415346486494 134.8032851126045,212.97016064243508 138.66143787652254,212.30044010677375 144.11685360828415,214.02561289820005 152.19999999995343,201.06157308482216 151.37590672355145,200.48333160957554 148.54302122676745,200.4465465071262 123.18949389760382,201.1931875848677 122.5234840172343,207.62925407543662 119.80000000004657,215.8130707683158 120.43465653830208,219.76796633319464 122.06806929875165,222.06705084742862 126.60242416616529,219.98755625332706 131.13398459856398,215.3131878549466 134.90456694364548,212.86197631052346 137.8321025716141,212.40493764576968 144.13132793689147,213.86267756312736 152.1161563510541,201.49070101586403 151.77201507682912,200.6195644219115 150.2581479321234,200.44429179321742 123.32559012318961,201.25795429898426 122.69096622010693,201.89476692886092 122.7553136702627,206.41061279189307 120.38070617476478,213.69045655694208 120.02609625807963,217.6806988902681" stroke="#4dd2ff" stroke-linecap="round" stroke-linejoin="round" stroke-width="0.5"><title>2020-09-20 6.1km</title></polyline><polyline fill="none" points="167.12371862237342,215.15758783282945 173.58950387849472,212.16240435512736 180.64211813919246,213.69044420321006 188.13192837918177,201.13242524160887 186.78186749271117,200.44584014613065 158.86028605117463,201.5168442975555 158.5576859214343,206.65162189022521 155.80000000004657,216.01571752163 156.2409337379504,219.49109988388955 157.60937625076622,221.97772192806588 160.14580290578306,221.60303736734204 163.52568957209587,219.66093611263204 166.98044497077353,215.33563841704745 171.64580464549363,212.36822356647463 174.54643710306846,211.99052408192074 179.47280220710672,213.873227010743 180.5049824230373,213.569261398894 188.20000000018626,201.48889425068046 187.1005213188473,200.4648059104802 159.381686975481,201.23880940210074 158.7898537979927,201.96573972515762 158.39737656502984,207.73426145355916 155.84801307390444,215.83376937478897 156.23264362709597,219.48397582161124 157.76502164965495,221.86587999941548 160.74896543077193,221.2015276790189 163.31837297254242,219.57973002799554 167.75435990677215,214.55421936011408 171.86190777923912,212.32498151547043 174.94049795228057,212.18663587979972 180.10830531828105,213.97299155182554 188.08342001098208,201.12351281772135 187.3507624126505,200.4222780719574 159.27955072070472,201.30194522551028 158.66216280893423,201.99213214067277 158.3322378261946,208.01189432109823 156.1148451482877,214.16369383982965 155.83592231897637,217.4740075871523" stroke="#4dd2ff" stroke-linecap="round" stroke-linejoin="round" stroke-width="0.5"><title>2020-09-22 6.1km</title></polyline><polyline fill="none" points="23.543971575563774,255.89592844527215 27.594312104629353,253.33604952099267 29.47484940290451,253.05962148483377 35.967038662405685,255.07951374651748 44.15208923188038,242.0631550999824 43.46976374066435,241.28559411264723 38.70704542379826,241.00504357228056 27.260390041628852,242.0718198636314 14.922695599962026,242.25619530904805 14.450725224800408,248.8697814924817 11.804020113544539,255.8039359691029 12.276008872780949,260.67856894031866 13.812901168363169,262.8759706164419 18.821914358064532,260.69073548863526 22.722508114762604,256.45453846250894 26.03954224102199,254.00681608344894 30.43570216721855,253.21112575437292 36.13121405756101,254.9802457858168 44.200000000186265,242.28738603065722 43.17521368502639,241.26718742304365 14.929913610918447,242.0967576430412 14.26836113492027,249.1320999233867 11.827518538804725,256.7184469324711 12.409522007219493,260.93433892479516 13.717603887664154,262.8296133109543 17.761324028484523,261.3912071775994 26.0457728151232,253.93890824104892 31.210594977717847,253.15140197318397 36.008815065724775,254.8078838076035 44.07678007171489,242.31869887409266 43.06189148873091,241.35184385225875 36.7388955343049,241.33619081307552 14.978780038189143,242.36256187787512 14.380238026380539,248.91641914716456 12.246923576109111,254.33366517157992 11.800000000046566,257.5977044448373 12.475433634128422,261.149513579061 13.863125327741727,262.99495642771944" stroke="#4dd2ff" stroke-linecap="round" stroke-linejoin="round" stroke-width="0.5"><title>2020-09-26 6.2km</title></polyline></svg>