<svg xmlns="http://www.w3.org/2000/svg" xmlns:ev="http://www.w3.org/2001/xml-events" xmlns:xlink="http://www.w3.org/1999/xlink" width="200mm" height="300mm" baseProfile="full" version="1.1" viewBox="0 0 200 300"><rect width="200" height="300" x="0" y="0" fill="#222"/><text style="font-size:12px;font-family:Arial;font-weight:700" x="10" y="20" fill="#FFF">Over 10km Runs</text><text style="font-size:4px;font-family:Arial" x="10" y="280" fill="#FFF">ATHLETE</text><text style="font-size:9px;font-family:Arial" x="10" y="290" fill="#FFF">DuanFei</text><text style="font-size:4px;font-family:Arial" x="120" y="280" fill="#FFF">STATISTICS</text><text style="font-size:3px;font-family:Arial" x="120" y="285" fill="#FFF">Number: 31</text><text style="font-size:3px;font-family:Arial" x="120" y="290" fill="#FFF">Weekly: 2.2</text><text style="font-size:3px;font-family:Arial" x="141" y="285" fill="#FFF">Total: 232.3 km</text><text style="font-size:3px;font-family:Arial" x="141" y="290" fill="#FFF">Avg: 7.5 km</text><text style="font-size:3px;font-family:Arial" x="167" y="285" fill="#FFF">Min: 5.2 km</text><text style="font-size:3px;font-family:Arial" x="167" y="290" fill="#FFF">Max: 23.6 km</text><polyline fill="none" stroke="#4dd2ff" stroke-linecap="round" stroke-linejoin="round" stroke-width=".5" points="22.675 33.263 23.086 32.548 29.377 32.429 32.705 33.263 35.257 32.489 39.862 34.097 37.628 60.367 34.71 62.571 14.15 55.304 17.114 32.31 33.343 32.846 35.303 34.276 39.953 34.157 37.628 60.189 36.443 61.797 34.391 62.512 14.378 55.006 17.342 32.012 28.419 32.548 40.135 34.335 37.81 59.474 36.807 61.678 34.619 62.512 14.515 55.006 17.342 32.131 21.08 31.714 22.675 32.429"><title>2020-06-12 5.5km</title></polyline><polyline fill="none" stroke="#4dd2ff" stroke-linecap="round" stroke-linejoin="round" stroke-width=".5" points="59.506 32.675 72.369 32.675 76.412 34.236 75.08 53.567 73.426 61.611 71.726 62.571 69.797 62.391 55.646 57.649 50.731 55.128 51.236 48.824 53.671 32.135 72.599 32.855 76.458 34.056 74.345 60.05 72.186 62.391 69.475 62.271 58.495 58.549 50.685 55.188 52.844 35.136 53.487 32.255 54.59 31.714 64.927 32.074 68.281 32.975 72.875 32.675 76.596 34.296 74.391 59.45 73.518 61.371 71.726 62.511 63.457 60.59 50.547 55.007 52.43 40.299"><title>2020-06-16 5.2km</title></polyline><polyline fill="none" stroke="#4dd2ff" stroke-linecap="round" stroke-linejoin="round" stroke-width=".5" points="95.749 33.243 100.202 32.42 106.724 32.949 112.482 34.888 110.188 60.749 108.389 62.278 106.634 62.513 87.473 55.225 90.082 32.596 94.445 31.714 111.087 34.124 112.437 34.712 112.572 37.357 111.222 52.345 110.188 60.103 108.299 62.395 105.78 62.219 87.518 55.225 89.722 33.948 90.352 32.537 95.03 32.067 107.444 33.184 112.392 34.653 110.368 59.339 109.603 61.396 107.444 62.571 87.428 54.99 89.857 35.476"><title>2020-07-10 5.3km</title></polyline><polyline fill="none" stroke="#4dd2ff" stroke-linecap="round" stroke-linejoin="round" stroke-width=".5" points="133.055 32.25 136.565 31.774 147.552 33.204 149.193 34.038 146.959 60.129 145.956 61.797 143.495 62.571 132.052 58.759 123.755 54.768 126.308 32.548 128.268 31.714 140.896 32.965 144.042 32.548 149.375 34.157 147.187 59.116 145.774 61.797 143.54 62.512 134.012 58.938 132.052 59.295 123.527 54.828 126.354 32.37 127.265 31.714 131.961 31.774 134.195 32.608 145.136 32.906 149.375 34.216 146.823 60.606 143.951 62.571 135.973 59.891 134.195 58.58 132.28 58.759 123.436 54.53 126.263 33.323 126.901 31.893 136.064 31.953 149.421 34.038 146.777 59.772 145.728 61.499 143.495 62.274 132.326 58.819 123.618 54.708 126.308 32.131 127.585 31.953"><title>2020-07-18 7.2km</title></polyline><polyline fill="none" stroke="#ffb100" stroke-linecap="round" stroke-linejoin="round" stroke-width=".5" points="169.342 33.043 180.087 32.986 184.996 34.661 183.006 59.625 181.945 61.474 179.866 62.283 160.453 55.233 163.283 32.639 170.447 32.234 183.227 33.968 185.084 34.777 185.261 35.586 184.112 53.211 182.918 59.856 181.812 61.589 180.53 62.283 177.832 61.936 160.586 55.291 160.895 50.09 163.416 32.523 172.127 32.234 185.084 34.835 184.156 52.979 182.873 59.798 181.06 62.051 178.009 62.109 160.497 55.117 163.018 34.141 163.725 32.466 172.437 32.119 184.952 34.604 183.227 59.971 181.502 62.109 179.822 62.571 160.453 54.886 163.151 33.275 163.725 32.466 167.617 31.83 172.57 31.714 177.478 33.332 181.414 33.275 185.261 34.835 184.333 51.477 182.918 59.682 181.237 61.994 179.07 62.283 160.541 54.944 163.151 33.159 163.858 32.408 167.75 31.888 182.077 33.679 185.129 34.835 182.829 59.856 181.945 61.474 179.645 62.283 160.453 55.233 163.637 32.639"><title>2020-07-31 10.8km</title></polyline><polyline fill="none" stroke="#4dd2ff" stroke-linecap="round" stroke-linejoin="round" stroke-width=".5" points="24.514 66.474 35.891 67.303 39.698 68.843 38.655 86.493 37.069 94.962 35.392 96.679 33.579 96.798 16.627 90.639 14.543 89.217 17.262 66.711 25.647 66.178 33.126 67.599 36.208 67.125 39.834 69.198 37.93 91.231 36.072 96.324 34.123 96.857 27.868 95.14 14.497 89.75 15.086 80.689 17.217 66.415 26.69 66 39.607 68.547 37.885 91.408 37.024 95.14 34.893 96.857 14.724 89.276 17.081 66.888 22.293 66 36.344 67.658 39.743 68.902 37.613 93.244 36.616 95.732 34.757 96.857 27.143 94.784 14.452 89.454 16.084 75.003"><title>2020-08-07 7.0km</title></polyline><polyline fill="none" stroke="#4dd2ff" stroke-linecap="round" stroke-linejoin="round" stroke-width=".5" points="60.124 67.119 72.562 67.472 76.032 68.944 75.221 87.494 73.689 94.914 72.472 96.327 70.264 96.68 51.291 89.025 53.815 67.001 58.817 66.353 68.551 67.649 72.562 67.178 76.032 68.768 76.167 72.772 74.365 91.44 73.824 94.561 72.517 96.268 70.804 96.857 65.847 95.267 50.976 89.143 53.77 66.824 64.09 66 69.047 67.472 74.68 67.708 76.167 69.357 75.086 86.67 73.463 95.267 70.534 96.857 56.609 91.852 51.246 88.966 53.68 67.178 58.547 66.059 64.721 66.412 67.019 67.649"><title>2020-08-09 5.6km</title></polyline><polyline fill="none" stroke="#4dd2ff" stroke-linecap="round" stroke-linejoin="round" stroke-width=".5" points="95.856 67.863 108.332 68.038 112.475 68.969 111.272 86.611 109.891 94.936 108.243 96.508 105.881 96.508 92.96 91.559 88.059 89.347 87.48 88.299 90.287 67.164 107.084 68.038 112.431 69.26 110.693 91.85 109.668 95.285 107.173 96.682 87.881 89.23 90.198 66.757 100.089 67.281 112.431 69.319 110.604 91.676 109.045 96.042 107.574 96.741 105.213 96.508 87.97 89.347 87.792 88.241 90.465 66.873 101.069 66 105.436 67.805 110.782 68.154 112.52 69.61 111.139 88.474 110.069 94.819 107.352 96.857 87.926 89.463 90.064 68.736"><title>2020-08-14 7.1km</title></polyline><polyline fill="none" stroke="#4dd2ff" stroke-linecap="round" stroke-linejoin="round" stroke-width=".5" points="132.012 67.136 137.138 66.538 149.22 68.093 147.481 90.758 146.657 94.645 144.277 96.857 123.5 89.322 126.109 67.495 126.566 66.239 131.417 66 145.833 67.375 149.357 68.392 146.931 93.748 145.97 95.781 144.369 96.738 131.646 92.791 123.5 89.143 126.109 67.794 126.475 66.299 128.031 66.06 144.048 67.017 149.22 68.572 146.84 93.927 145.833 95.9 143.911 96.797 134.575 93.329 131.784 93.03 123.729 89.143 126.017 68.033"><title>2020-08-20 5.3km</title></polyline><polyline fill="none" stroke="#4dd2ff" stroke-linecap="round" stroke-linejoin="round" stroke-width=".5" points="169.159 66.72 179.955 67.081 185.652 68.642 184.504 86.712 183.033 95.116 181.655 96.617 179.771 96.857 160.2 88.933 162.819 66.3 167.597 66 185.376 68.221 184.687 86.051 183.033 95.356 181.425 96.617 179.404 96.737 160.108 89.113 162.865 66.06 185.422 68.221 184.32 86.532 182.666 96.137 180.047 96.797 167.643 92.715 160.246 89.053 160.154 86.472 163.003 66.06 185.422 68.341 183.125 95.536 180.139 96.857 160.062 89.233 162.957 66.36 168.653 66 185.285 68.101 185.514 73.865 183.631 93.615 182.344 96.137 179.771 96.677"><title>2020-08-21 8.1km</title></polyline><polyline fill="none" stroke="#4dd2ff" stroke-linecap="round" stroke-linejoin="round" stroke-width=".5" points="22.292 119.437 26.6 116.879 32.099 117.199 34.586 118.295 42.011 107.424 42.291 106.054 41.556 105.506 31.574 105.506 14.902 106.374 14.201 112.312 11.714 119.346 12.1 123.548 13.466 125.831 15.287 125.512 19 123.502 22.047 119.848 26.075 117.245 30.663 116.788 33.85 118.432 34.656 118.249 42.431 106.739 42.081 105.78 40.715 105.46 15.007 106.42 14.481 107.196 14.236 112.175 12.17 118.158 11.714 121.721 13.431 125.968 17.949 124.324 24.078 118.204 26.32 117.108 31.048 116.833 34.621 118.341 42.571 106.145 41.941 105.506 37.248 105.46 14.621 106.328 14.481 111.352 12.345 117.564 11.714 121.675 12.905 125.237 13.956 125.923"><title>2020-09-02 6.1km</title></polyline><polyline fill="none" stroke="#ffb500" stroke-linecap="round" stroke-linejoin="round" stroke-width=".5" points="58.894 119.493 62.943 116.898 67.167 116.716 70.064 118.264 71.425 118.081 78.651 106.11 77.045 105.381 73.38 105.336 51.25 106.201 50.447 113.211 48.143 121.222 48.911 124.5 50.028 125.956 55.264 123.953 59.452 118.901 61.512 117.626 66.748 116.807 71.146 118.264 78.93 106.428 78.232 105.7 74.672 105.199 63.641 106.246 55.403 105.928 50.831 106.565 50.796 111.982 48.143 120.175 48.946 124.773 50.167 126.184 54.496 124.409 59.662 118.628 62.594 116.943 66.259 116.761 71.111 118.355 78.93 106.201 77.743 105.563 73.031 105.427 51.075 106.428 50.516 112.71 48.178 120.676 48.771 124.044 50.237 126.093 54.601 124.272 59.662 118.855 63.432 116.898 67.167 116.943 71.216 118.4 79 106.383 78.232 105.654 74.078 105.472 51.25 106.428 50.656 112.3 48.352 119.356 48.492 123.043 50.028 126.229 54.391 124.5 58.824 119.402 62.838 117.171 66.434 116.67 70.378 118.309 71.251 118.173 78.686 106.838 78.441 105.882 77.15 105.563 51.215 106.474 50.831 112.346 48.282 119.857 48.876 124.318 50.167 126.093 55.508 123.726"><title>2020-09-04 10.6km</title></polyline><polyline fill="none" stroke="#4dd2ff" stroke-linecap="round" stroke-linejoin="round" stroke-width=".5" points="95.02 119.725 98.48 117.355 101.835 116.808 108.02 118.358 111.095 112.57 115.429 106.463 114.38 105.552 111.759 105.461 87.682 106.327 86.983 112.752 84.606 120.545 84.851 123.461 86.319 126.059 90.722 124.236 96.348 118.631 98.794 117.355 101.974 116.763 107.845 118.175 115.114 106.555 114.345 105.552 106.762 105.37 99.284 106.099 87.786 106.144 87.227 106.919 87.192 112.16 84.571 120.727 85.305 124.874 86.493 125.968 91.526 123.689 94.845 119.998 99.179 117.082 102.883 116.763 106.587 118.221 107.95 118.039 114.939 106.053 114.24 105.552 105.294 105.415 87.682 106.327 86.878 113.254 84.851 118.358 84.746 123.325"><title>2020-09-05 6.0km</title></polyline><polyline fill="none" stroke="#ff7800" stroke-linecap="round" stroke-linejoin="round" stroke-width=".5" points="133.189 117.93 136.516 116.514 139.844 116.742 142.54 118.067 144.362 118.204 151.752 106.694 151.507 105.78 147.829 105.323 124.012 106.237 123.207 113.499 121.385 117.884 121.07 120.624 121.701 124.141 122.961 125.877 127.059 124.415 134.415 117.473 137.462 116.559 144.047 118.158 151.717 106.602 151.087 105.552 147.374 105.278 124.222 106.237 123.382 112.997 121.105 119.026 121.736 124.278 123.172 126.014 128.565 123.182 132.768 118.478 135.22 117.062 138.898 116.559 144.012 118.249 151.857 106.374 151.367 105.643 149.966 105.46 124.012 106.283 123.137 113.408 121.07 120.259 121.49 123.639 122.786 126.151 127.305 124.324 132.033 119.254 135.29 116.971 138.583 116.605 144.012 118.341 151.682 106.191 151.087 105.46 149.3 105.323 129.371 105.734 123.767 106.374 123.487 111.901 121.07 120.031 121.665 124.187 122.891 125.923 127.97 123.867 134.66 117.427 137.427 116.696 140.124 116.971 143.976 118.523 151.787 106.511 151.437 105.689 150.141 105.415 132.803 105.552 124.152 106.283 123.452 112.905 121.63 117.245 121 121.173 121.841 124.781 123.066 125.968 127.69 123.867 133.469 117.793 136.026 116.696 140.159 116.833 144.222 118.386 151.192 107.516 151.472 105.734 124.187 106.191 123.347 112.905 121.175 118.752 121.455 123.73 122.751 125.923 126.219 124.826 133.189 118.204 135.15 117.153 138.653 116.559 143.626 118.341 144.502 118.158 151.647 106.694 151.507 105.78 124.187 106.283 123.627 112.54 121.07 119.072 121.28 123.228 122.471 125.694 123.767 125.968 127.445 124.096 133.574 118.386"><title>2020-09-06 14.9km</title></polyline><polyline fill="none" stroke="#4dd2ff" stroke-linecap="round" stroke-linejoin="round" stroke-width=".5" points="168.125 119.133 171.186 117.068 174.317 116.563 180.58 118.353 187.441 107.8 188.039 105.643 180.404 105.368 160.454 106.194 159.786 112.663 157.429 119.867 157.851 123.721 159.223 126.107 161.932 125.327 165.169 123.124 168.864 118.857 171.151 117.252 175.69 116.701 180.721 118.261 188.286 106.423 187.828 105.459 186.808 105.322 160.243 106.331 159.892 112.342 157.464 120.05 157.64 122.895 158.801 125.969 164.079 124.042 168.899 118.674 172.488 116.793 176.604 116.839 180.58 118.353 188.18 106.102 187.652 105.368 160.349 106.423 159.469 113.856 157.64 118.536 157.534 122.574"><title>2020-09-08 6.0km</title></polyline><polyline fill="none" stroke="#ffb800" stroke-linecap="round" stroke-linejoin="round" stroke-width=".5" points="22.5 153.573 24.63 151.889 28.574 150.842 35.032 152.526 42.571 140.6 41.908 139.917 36.812 139.781 14.926 140.509 14.332 141.875 14.228 146.746 12.447 151.115 11.784 154.893 12.203 158.216 13.39 160.219 18.905 157.852 22.814 153.3 26.724 151.07 29.516 151.024 34.822 152.526 42.537 140.873 41.769 139.826 40.372 139.781 14.716 140.555 13.948 147.656 11.714 154.074 12.168 157.943 13.704 160.265 18.381 158.216 22.78 153.482 26.549 151.297 29.482 150.933 34.752 152.572 42.257 140.327 41.524 139.781 14.681 140.555 14.402 145.881 12.447 151.206 11.854 155.758 12.587 158.899 13.913 160.219 17.928 158.489 22.64 153.573 27.248 151.07 35.171 152.481 42.397 140.646 41.838 139.872 39.046 139.69 14.577 140.782 13.983 147.519 11.819 154.438 12.378 158.353 13.739 160.31 18.381 158.171 22.954 153.164 26.584 150.842 31.262 151.161 34.718 152.526 42.502 140.646 41.489 139.69 14.646 140.828 14.018 147.61 11.889 154.256 12.378 158.307"><title>2020-09-09 10.3km</title></polyline><polyline fill="none" stroke="#4dd2ff" stroke-linecap="round" stroke-linejoin="round" stroke-width=".5" points="59.3 153.228 59.719 152.41 61.706 151.501 65.158 150.773 71.294 152.592 78.93 140.452 76.734 139.77 51.002 140.725 50.409 147.363 48.457 152.728 48.143 156.366 49.572 159.958 50.444 160.276 55.291 157.866 58.603 154.729 59.649 152.91 61.671 151.637 63.903 151 67.459 151.091 71.19 152.865 78.791 140.815 78.616 139.952 77.326 139.724 51.455 140.543 50.235 148.272 48.213 153.638 48.736 158.366 49.747 160.048 51.908 159.821 54.698 158.23 60.277 152.546 62.647 151.182 67.424 151.091 71.155 152.91 79 140.452 77.815 139.77 65.541 140.27"><title>2020-09-10 5.3km</title></polyline><polyline fill="none" stroke="#4dd2ff" stroke-linecap="round" stroke-linejoin="round" stroke-width=".5" points="95.326 154.056 98.629 151.673 100.668 150.986 103.163 150.986 107.872 152.498 113.566 144.111 115.429 140.261 109.489 139.711 87.453 140.673 86.926 147.915 84.607 154.744 85.063 157.998 86.434 160.381 91.284 158.227 96.204 153.14 98.911 151.535 102.776 150.848 107.908 152.773 115.393 140.994 114.866 139.665 108.224 139.528 97.188 140.261 94.061 139.803 87.278 140.857 87.348 145.898 84.571 154.698 85.38 158.914 86.575 160.472 91.003 158.41 96.064 153.185 99.965 151.077 104.288 151.077 108.013 152.452 115.358 140.444 114.796 139.757 106.994 139.574 87.594 140.673 87.207 146.907 84.782 153.873 85.099 158.089 86.68 160.335 89.351 159.372 92.479 157.173"><title>2020-09-13 6.3km</title></polyline><polyline fill="none" stroke="#4dd2ff" stroke-linecap="round" stroke-linejoin="round" stroke-width=".5" points="131.648 154.042 134.765 151.85 137.252 151.074 140.369 151.256 144.327 152.581 151.857 140.477 151.122 139.883 144.642 139.746 124.152 140.523 123.627 141.208 123.627 145.593 121 154.453 121.701 158.655 123.137 160.3 126.709 158.929 131.613 153.951 135.641 151.485 139.038 150.936 143.171 152.535 144.187 152.398 151.717 140.705 150.736 139.746 143.171 139.746 123.942 140.797 123.487 146.506 121.28 152.809 121 155.687 121.63 158.61 122.261 159.934 123.137 160.163 127.094 158.564 130.667 155.413 131.613 153.768 136.971 150.845 139.879 150.982 143.311 152.581 144.257 152.398 151.682 140.979 150.701 139.655 124.327 140.477 123.697 141.208 123.382 146.871 121.07 154.408 121.595 158.61 122.751 160.345"><title>2020-09-15 6.1km</title></polyline><polyline fill="none" stroke="red" stroke-linecap="round" stroke-linejoin="round" stroke-width=".5" points="168.005 153.733 172.648 150.911 177.395 151.138 180.606 152.322 188.006 139.804 160.5 140.441 160.116 146.177 158.022 151.411 157.463 155.144 157.917 157.511 159.314 159.923 163.502 158.421 169.227 152.413 172.613 150.683 175.51 150.683 180.781 152.094 188.286 140.259 187.657 139.439 160.535 140.259 160.047 146.131 157.429 154.233 157.778 157.01 159.244 159.969 163.223 158.558 168.494 153.187 172.264 150.728 177.22 151.047 180.816 152.367 188.146 140.441 187.797 139.531 185.877 139.439 160.5 140.395 159.977 146.222 157.638 153.642 157.847 156.874 159.069 159.923 164.165 157.875 168.284 153.369 172.299 150.82 177.116 150.956 180.606 152.367 188.006 140.395 187.518 139.485 186.54 139.485 160.535 140.304 160.012 145.812 157.533 154.051 158.092 157.966 159.453 159.923 163.886 157.92 167.866 154.461 168.808 152.913 172.403 150.82 175.335 150.546 180.397 152.322 188.251 140.532 187.937 139.713 186.61 139.348 160.465 140.35 159.942 146.677 157.533 155.053 159.069 159.969 164.654 157.602 168.913 152.777 172.159 150.865 175.51 150.728 180.502 152.231 188.286 140.259 187.343 139.439 160.57 140.259 160.047 146.632 158.266 151.093 157.568 155.007 158.336 158.694 159.732 159.969 164.41 157.738 168.04 153.596 171.566 151.229 175.335 150.501 180.746 152.231 187.937 140.669 187.588 139.485 184.83 139.394 160.5 140.486 160.081 145.858 157.743 153.551 157.882 156.737 158.999 159.832 161.722 159.286 164.131 157.875 170.03 152.094 172.368 150.774 175.266 150.774 180.606 152.322 188.251 140.259 187.588 139.531 183.538 139.439 160.849 140.077 160.256 140.714 159.837 146.723 157.568 153.46 157.847 157.511 158.685 159.65 159.628 159.787 164.619 157.511 168.529 153.141 172.334 150.546 175.929 150.546 179.42 152.003 180.816 151.866 188.216 140.259 187.204 139.394 160.605 140.168 159.907 146.814 157.568 154.461 158.057 158.103 159.558 159.65 163.014 158.785 169.227 152.458 172.019 150.865 175.196 150.41 179.385 152.049 180.781 151.958 188.216 140.35 187.343 139.394 160.431 140.304 159.802 147.223 157.603 154.097 157.813 156.874 158.964 159.787 161.617 159.149 165.632 156.6 167.935 153.414 172.334 150.592 175.021 150.455 180.606 152.322 188.286 139.986 187.169 139.394 160.465 140.486 159.977 146.313 157.603 155.189 158.301 158.33 159.697 160.652 164.41 158.785 169.192 153.778 171.705 152.458"><title>2020-09-16 23.6km</title></polyline><polyline fill="none" stroke="#4dd2ff" stroke-linecap="round" stroke-linejoin="round" stroke-width=".5" points="23.173 187.669 25.61 185.807 28.71 185.308 32.297 185.944 34.7 187.17 42.571 174.953 41.004 174.044 34.491 173.999 14.779 174.816 14.466 180.494 12.55 185.262 11.714 189.986 12.933 194.118 14.222 194.618 19.237 191.939 22.232 188.351 25.959 185.717 30.208 185.353 34.7 187.079 42.537 175.134 41.631 174.135 37.487 173.953 14.744 174.998 14.535 180.539 11.888 188.941 12.62 193.165 13.839 194.618 18.262 192.438 21.222 190.076 22.65 188.033 25.924 185.762 28.954 185.308 35.014 186.761 42.537 174.862 41.979 174.18 40.203 173.953 15.023 174.953 14.326 181.72 11.923 188.941 12.48 192.665 13.978 194.573"><title>2020-09-18 6.1km</title></polyline><polyline fill="none" stroke="#4dd2ff" stroke-linecap="round" stroke-linejoin="round" stroke-width=".5" points="59.126 187.946 62.334 185.855 65.053 185.309 71.329 186.991 78.861 175.488 78.756 174.624 78.093 173.942 51.595 174.897 50.758 181.171 48.526 186.627 48.178 189.947 49.991 194.584 51.839 194.266 54.628 192.675 58.847 188.31 62.438 185.991 66.099 185.354 71.294 186.991 79 174.624 78.198 174.078 75.513 174.033 51.351 174.76 50.723 180.898 48.143 188.674 48.736 192.447 50.305 194.63 54.628 192.675 58.917 188.219 62.508 185.855 65.297 185.445 71.294 186.809 78.895 175.033 78.582 174.215 77.152 174.033 51.49 174.806 50.897 175.442 50.967 179.716 48.701 186.673 48.352 190.447"><title>2020-09-20 6.0km</title></polyline><polyline fill="none" stroke="#4dd2ff" stroke-linecap="round" stroke-linejoin="round" stroke-width=".5" points="95.349 188.04 101.492 185.201 108.232 186.666 115.358 174.718 114.059 174.031 87.485 175.084 87.169 179.937 84.571 188.864 84.993 192.16 86.292 194.54 88.714 194.174 91.908 192.343 95.208 188.223 99.631 185.385 102.405 185.018 107.109 186.849 108.092 186.529 115.429 175.038 114.375 174.077 87.977 174.81 87.415 175.496 87.029 180.99 84.607 188.681 84.958 192.16 86.432 194.449 89.275 193.808 91.733 192.251 95.945 187.49 99.842 185.339 102.791 185.201 107.706 186.941 115.288 174.672 114.621 174.031 87.871 174.855 87.275 175.496 86.959 181.264 84.852 187.124 84.607 190.237"><title>2020-09-22 6.0km</title></polyline><polyline fill="none" stroke="#4dd2ff" stroke-linecap="round" stroke-linejoin="round" stroke-width=".5" points="132.173 188.008 136.061 185.542 137.847 185.268 144.012 187.232 151.822 174.808 151.157 174.077 146.638 173.803 135.711 174.808 123.977 174.991 123.522 181.294 121 187.917 121.455 192.53 122.926 194.631 127.69 192.53 131.402 188.511 134.555 186.181 138.758 185.451 144.187 187.095 151.857 175.037 150.876 174.077 123.977 174.854 123.347 181.568 121.035 188.785 121.595 192.804 122.821 194.585 126.674 193.215 134.555 186.136 139.493 185.359 144.047 186.958 151.752 175.082 150.771 174.123 144.747 174.123 124.047 175.082 123.452 181.34 121.42 186.501 121 189.607 121.665 192.987 122.961 194.768"><title>2020-09-26 6.1km</title></polyline><polyline fill="none" stroke="#4dd2ff" stroke-linecap="round" stroke-linejoin="round" stroke-width=".5" points="188.254 180.886 188.265 180.893 188.254 180.9 188.286 180.927 188.112 180.955 187.796 180.968 187.769 180.975 187.764 180.989 187.743 180.975 187.68 180.996 187.596 180.996 187.475 181.016 187.406 181.003 187.338 181.003 187.295 181.023 186.985 181.03 186.853 181.065 186.821 181.065 186.7 181.113 186.611 181.113 186.611 181.133 186.563 181.14 186.421 181.147 186.337 181.161 186.094 181.168 185.963 181.154 185.815 181.147 185.715 181.161 185.42 181.168 185.273 181.195 185.199 181.188 185.073 181.223 185.062 181.25 184.972 181.229 184.709 181.209 184.514 181.216 184.483 181.229 184.414 181.223 184.351 181.236 184.319 181.223 184.188 181.257 184.093 181.243 184.035 181.257 183.898 181.271 183.829 181.257 183.666 181.264 183.603 181.277 183.545 181.298 183.382 181.284 183.324 181.305 183.197 181.305 183.118 181.326 183.029 181.319 182.981 181.346 182.929 181.353 182.771 181.353 182.628 181.367 182.581 181.353 182.539 181.36 182.407 181.346 182.376 181.339 182.36 181.319 182.333 181.305 182.291 181.298 182.207 181.312 182.112 181.346 181.98 181.346 181.923 181.367 181.749 181.38 181.759 181.394 181.701 181.394 181.675 181.415 181.654 181.415 181.585 181.442 181.364 181.484 181.043 181.511 180.974 181.525 180.5 181.573 180.063 181.587 179.989 181.607 179.942 181.6 179.916 181.621 179.784 181.635 179.663 181.669 179.315 181.703 179.22 181.751 179.178 181.731 179.11 181.724 179.015 181.724 178.941 181.731 178.92 181.745 178.836 181.738 178.799 181.751 178.773 181.751 178.757 181.765 178.683 181.799 178.678 181.793 178.657 181.745 178.646 181.745 178.483 181.758 178.435 181.772 178.409 181.765 178.378 181.779 178.225 181.779 178.162 181.806 178.114 181.813 178.088 181.82 178.098 181.827 178.083 181.841 178.046 181.841 177.998 181.854 177.93 181.848 177.93 181.861 177.798 181.889 177.608 181.889 177.54 181.896 177.387 181.882 177.187 181.889 177.124 181.903 177.061 181.923 176.95 181.937 176.929 181.951 176.808 181.951 176.634 181.964 176.502 181.964 176.328 181.992 176.265 182.019 176.218 182.019 176.102 182.019 175.928 182.047 175.412 182.088 175.006 182.102 174.927 182.115 174.78 182.109 174.732 182.115 174.516 182.109 174.406 182.129 174.322 182.129 174.295 182.143 174.179 182.129 174.079 182.143 174.053 182.136 173.874 182.143 173.816 182.157 173.779 182.157 173.753 182.164 173.689 182.164 173.6 182.177 173.431 182.184 173.416 182.205 173.347 182.232 173.315 182.218 173.236 182.232 173.189 182.218 173.126 182.225 173.105 182.246 173.036 182.26 173.01 182.253 172.989 182.267 172.889 182.239 172.652 182.253 172.536 182.232 172.399 182.253 172.278 182.232 172.162 182.253 172.014 182.246 171.872 182.267 171.761 182.253 171.54 182.28 171.456 182.246 171.235 182.267 170.971 182.225 170.803 182.246 170.46 182.198 170.065 182.184 169.892 182.191 169.523 182.225 169.465 182.205 169.375 182.205 169.317 182.218 169.228 182.212 169.201 182.225 169.038 182.225 169.007 182.218 168.806 182.225 168.738 182.218 168.701 182.225 168.596 182.212 168.301 182.198 168.216 182.212 168.085 182.212 167.995 182.239 167.916 182.225 167.879 182.232 167.795 182.28 167.653 182.232 167.4 182.225 167.216 182.205 167.047 182.205 166.994 182.184 166.715 182.205 166.641 182.232 166.468 182.232 166.378 182.225 166.262 182.239 166.173 182.218 166.094 182.232 166.057 182.225 165.862 182.232 165.799 182.232 165.62 182.246 165.593 182.253 165.535 182.246 165.472 182.26 165.409 182.253 165.272 182.267 165.246 182.28 165.177 182.267 165.019 182.26 164.93 182.246 164.545 182.28 164.334 182.267 164.303 182.273 164.15 182.253 163.628 182.308 163.571 182.301 163.518 182.315 163.328 182.321 163.081 182.315 162.87 182.342 162.765 182.328 162.744 182.342 162.67 182.342 162.622 182.363 162.528 182.349 162.501 182.356 162.48 182.342 162.449 182.342 162.417 182.349 162.354 182.404 162.301 182.418 162.206 182.411 162.143 182.39 162.117 182.404 162.085 182.404 162.048 182.39 161.959 182.383 161.853 182.397 161.832 182.418 161.801 182.418 161.685 182.411 161.632 182.425 161.6 182.418 161.574 182.425 161.49 182.404 161.39 182.404 161.2 182.431 161.053 182.425 160.826 182.452 160.636 182.438 160.378 182.459 160.262 182.486 160.036 182.493 159.941 182.521 159.878 182.528 159.615 182.493 159.515 182.507 159.409 182.541 159.23 182.541 159.083 182.569 158.903 182.582 158.756 182.569 158.624 182.596 158.377 182.596 158.361 182.617 158.219 182.624 158.171 182.644 158.155 182.665 158.155 182.713 158.166 182.761 158.134 182.802 157.94 182.857 157.766 182.857 157.724 182.878 157.718 182.981 157.739 183.056 157.687 183.187 157.681 183.214 157.708 183.317 157.681 183.462 157.676 183.64 157.697 183.86 157.692 184.114 157.702 184.183 157.702 184.251 157.713 184.293 157.724 184.361 157.724 184.437 157.708 184.533 157.724 184.581 157.718 184.684 157.745 184.808 157.75 184.973 157.76 184.993 157.75 185.199 157.766 185.247 157.771 185.337 157.787 185.412 157.797 185.68 157.808 185.714 157.95 185.969 158.029 186.085 158.045 186.202 158.071 186.278 158.066 186.429 158.082 186.511 158.082 186.573 158.098 186.628 158.098 186.751 158.119 186.861 158.098 187.136 158.108 187.218 158.103 187.232 158.103 187.267 158.119 187.28 158.113 187.301 158.124 187.349 158.108 187.411 158.113 187.596 158.103 187.631 158.034 187.658 157.945 187.651 157.813 187.665 157.66 187.644 157.645 187.679 157.618 187.685 157.581 187.672 157.55 187.644 157.555 187.603 157.529 187.596 157.523 187.576 157.502 187.555 157.497 187.541 157.502 187.239 157.497 187.17 157.481 187.157 157.492 187.067 157.508 187.047 157.497 187.054 157.476 186.999 157.476 186.964 157.444 186.951 157.429 186.958"><title>2020-10-10 6.1km</title></polyline><polyline fill="none" stroke="#4dd2ff" stroke-linecap="round" stroke-linejoin="round" stroke-width=".5" points="11.729 222.17 11.714 222.133 11.714 222.152 11.772 222.177 11.786 222.158 11.926 222.164 12.084 222.145 12.123 222.152 12.166 222.145 12.238 222.152 12.377 222.145 12.411 222.12 12.454 222.133 12.469 222.145 12.469 222.17 12.488 222.233 12.478 222.433 12.497 222.715 12.497 222.815 12.517 222.828 12.613 222.797 12.699 222.784 12.867 222.815 12.915 222.809 12.939 222.753 12.949 222.728 12.944 222.678 12.959 222.646 12.959 222.402 12.973 222.339 12.978 222.258 12.973 222.133 12.987 221.982 12.978 221.957 12.987 221.826 12.978 221.801 12.987 221.757 12.978 221.713 12.983 221.682 12.978 221.632 12.978 221.569 12.959 221.531 12.954 221.5 12.93 221.462 12.925 221.437 12.915 221.425 12.911 221.394 12.891 221.343 12.834 221.312 12.824 221.287 12.781 221.25 12.723 221.162 12.69 221.087 12.666 221.018 12.661 220.955 12.656 220.936 12.666 220.855 12.661 220.817 12.641 220.78 12.651 220.654 12.637 220.56 12.646 220.535 12.651 220.467 12.646 220.423 12.651 220.391 12.651 220.36 12.656 220.291 12.651 220.185 12.656 220.16 12.641 220.103 12.646 220.053 12.637 219.959 12.641 219.884 12.627 219.79 12.632 219.702 12.617 219.389 12.617 219.283 12.603 219.195 12.608 219.088 12.598 219.045 12.603 219.02 12.603 218.85 12.593 218.744 12.617 218.662 12.622 218.55 12.613 218.518 12.641 218.456 12.666 218.437 12.93 218.424 13.117 218.381 13.266 218.374 13.41 218.356 13.492 218.33 13.66 218.324 13.713 218.305 13.79 218.305 13.9 218.287 14.164 218.274 14.381 218.28 14.457 218.274 14.587 218.28 14.693 218.262 14.775 218.274 15.015 218.28 15.087 218.255 15.289 218.255 15.418 218.237 15.495 218.243 15.668 218.237 15.731 218.211 15.956 218.205 16.153 218.205 16.245 218.186 16.307 218.193 16.326 218.186 16.451 218.18 16.682 218.186 16.86 218.149 16.917 218.161 16.936 218.149 16.989 218.143 17.114 218.168 17.225 218.161 17.278 218.149 17.282 218.168 17.551 218.168 17.59 218.149 17.638 218.149 17.71 218.143 17.974 218.092 18.123 218.074 18.234 218.074 18.262 218.067 18.344 218.074 18.402 218.067 18.431 218.08 18.483 218.055 18.618 218.042 18.719 218.055 18.839 218.061 18.93 218.055 18.978 218.042 19.026 218.036 19.122 218.061 19.161 218.042 19.223 218.03 19.329 218.036 19.502 218.03 19.55 218.036 19.579 218.024 19.67 218.03 19.752 218.049 19.891 218.049 19.949 218.036 20.088 218.049 20.222 218.042 20.304 218.024 20.564 218.055 20.708 218.067 20.847 218.042 20.876 218.055 20.938 218.042 21.188 218.055 21.212 218.042 21.279 218.036 21.371 218.042 21.467 218.024 21.669 218.042 21.688 218.049 22.019 218.049 22.062 218.067 22.067 218.08 22.106 218.099 22.235 218.074 22.687 218.055 22.788 218.036 22.956 218.049 23.119 218.024 23.206 218.024 23.263 218.005 23.384 218.005 23.456 218.017 23.581 218.005 23.643 218.011 23.715 217.998 23.874 218.005 23.946 218.03 24.003 218.011 24.21 218.024 24.383 218.017 24.441 217.961 24.474 217.948 24.484 217.93 24.589 217.998 24.662 217.992 24.753 218.011 24.844 218.005 24.998 218.03 25.027 218.017 25.051 218.024 25.176 217.992 25.238 218.005 25.267 218.017 25.435 218.011 25.536 218.042 25.651 218.017 25.709 218.024 25.738 218.011 25.766 217.986 25.819 217.98 25.872 217.992 25.901 218.011 25.92 217.992 25.978 217.986 26.002 217.973 26.035 217.973 26.06 217.992 26.132 217.967 26.256 217.955 26.276 217.961 26.353 217.967 26.367 217.986 26.492 218.011 26.526 217.998 26.679 217.98 26.737 217.986 26.799 217.973 26.972 217.998 27.112 218.011 27.188 217.992 27.371 217.998 27.472 217.986 27.587 217.992 27.755 217.967 27.842 217.98 27.972 217.98 28.111 217.992 28.274 217.98 28.385 217.961 28.558 217.955 28.668 217.936 28.774 217.948 29.033 217.911 29.192 217.904 29.394 217.879 29.49 217.873 29.581 217.836 29.639 217.842 29.749 217.811 30.316 217.779 30.436 217.767 30.609 217.723 30.868 217.71 30.993 217.692 31.138 217.685 31.195 217.673 31.286 217.673 31.416 217.66 31.426 217.692 31.45 217.71 31.536 217.685 31.834 217.635 31.993 217.629 32.036 217.616 32.07 217.554 32.122 217.56 32.295 217.516 32.387 217.529 32.43 217.529 32.555 217.504 32.612 217.504 32.752 217.466 32.809 217.472 32.886 217.453 32.949 217.46 33.035 217.453 33.126 217.435 33.242 217.435 33.424 217.403 33.472 217.385 33.746 217.347 33.871 217.353 33.905 217.366 33.924 217.359 33.924 217.372 33.934 217.378 34.121 217.316 34.241 217.297 34.299 217.297 34.496 217.247 34.645 217.259 34.803 217.234 34.928 217.234 35.082 217.253 35.178 217.24 35.413 217.234 35.562 217.222 35.658 217.197 35.846 217.19 35.999 217.159 36.009 217.147 36.153 217.115 36.432 217.121 36.585 217.096 36.686 217.103 36.811 217.096 36.96 217.115 37.148 217.071 37.181 217.046 37.239 217.04 37.296 217.046 37.325 217.065 37.407 217.078 37.638 217.071 37.71 217.078 37.729 217.065 37.786 217.065 37.911 217.084 37.998 217.065 38.022 217.053 38.113 217.034 38.142 217.04 38.353 217.027 38.507 217.027 38.949 216.977 39.012 216.984 39.117 216.971 39.209 216.984 39.377 216.965 39.415 216.971 39.497 216.965 39.607 216.94 39.867 216.94 39.944 216.915 40.193 216.921 40.318 216.89 40.352 216.896 40.376 216.877 40.405 216.877 40.453 216.865 40.573 216.865 40.693 216.883 40.722 216.871 40.842 216.871 40.895 216.858 41.034 216.871 41.053 216.865 41.063 216.814 41.116 216.802 41.356 216.796 41.414 216.814 41.539 216.821 41.529 216.827 41.543 216.796 41.515 216.733 41.505 216.67 41.529 216.614 41.524 216.439 41.505 216.407 41.5 216.363 41.481 216.32 41.471 216.288 41.476 216.263 41.438 216.194 41.442 216.176 41.39 216.113 41.39 216.094 41.366 216.063 41.356 216.006 41.361 215.988 41.342 215.956 41.337 215.925 41.265 215.837 41.245 215.737 41.279 215.706 41.284 215.693 41.303 215.687 41.418 215.656 41.471 215.668 41.668 215.587 41.707 215.555 41.736 215.555 41.793 215.524 41.817 215.449 41.913 215.424 41.923 215.43 42.043 215.386 42.11 215.349 42.11 215.33 42.125 215.311 42.153 215.311 42.226 215.248 42.245 215.255 42.25 215.242 42.293 215.236 42.312 215.217 42.322 215.198 42.317 215.179 42.326 215.173 42.317 215.154 42.307 215.098 42.341 215.079 42.331 215.054 42.379 215.017 42.384 214.985 42.413 214.966 42.432 214.904 42.432 214.872 42.447 214.854 42.519 214.791 42.547 214.772 42.562 214.747 42.557 214.728 42.571 214.71 42.571 214.691 42.557 214.691 42.514 214.659 42.475 214.647 42.437 214.647 42.427 214.628 42.413 214.628 42.427 214.603 42.427 214.578 42.413 214.572 42.413 214.553 42.432 214.503 42.432 214.465 42.447 214.453 42.456 214.428 42.447 214.409 42.456 214.384 42.475 214.378 42.514 214.352 42.538 214.352 42.567 214.315"><title>2020-10-10 7.1km</title></polyline><polyline fill="none" stroke="#4dd2ff" stroke-linecap="round" stroke-linejoin="round" stroke-width=".5" points="48.143 221.809 48.191 221.784 48.332 221.784 48.41 221.765 48.561 221.759 48.604 221.752 48.639 221.721 48.702 221.733 48.741 221.727 48.794 221.727 48.823 221.759 48.843 221.841 48.847 221.999 48.886 222.164 48.891 222.253 48.906 222.291 48.906 222.424 48.925 222.443 48.969 222.443 49.032 222.5 49.168 222.5 49.178 222.481 49.222 222.468 49.299 222.481 49.372 222.475 49.377 222.462 49.367 222.437 49.377 222.373 49.367 222.246 49.377 222.183 49.372 222.12 49.397 221.98 49.382 221.866 49.392 221.822 49.387 221.784 49.397 221.759 49.387 221.74 49.397 221.733 49.387 221.721 49.382 221.695 49.397 221.435 49.382 221.334 49.397 221.277 49.363 221.214 49.348 221.074 49.231 220.922 49.158 220.859 49.149 220.84 49.149 220.815 49.139 220.808 49.1 220.739 49.081 220.694 49.086 220.574 49.066 220.504 49.052 220.485 49.061 220.447 49.047 220.333 49.056 220.219 49.071 220.181 49.061 220.086 49.056 219.915 49.052 219.896 49.037 219.636 49.042 219.573 49.027 219.224 49.032 219.142 49.018 219.015 49.022 218.977 49.013 218.958 49.018 218.838 49.008 218.8 49.013 218.762 49.022 218.749 49.013 218.705 49.008 218.515 49.018 218.337 49.032 218.28 49.052 218.109 49.047 218.052 49.056 218.027 49.076 218.02 49.426 217.995 49.615 217.976 49.664 217.957 49.805 217.957 49.887 217.938 49.941 217.944 50.111 217.938 50.218 217.919 50.33 217.925 50.373 217.913 50.48 217.913 50.563 217.9 50.786 217.9 50.888 217.881 51.209 217.887 51.355 217.868 51.506 217.881 51.646 217.875 51.68 217.868 51.802 217.862 51.865 217.849 51.919 217.856 52.079 217.83 52.2 217.837 52.278 217.824 52.302 217.837 52.405 217.837 52.511 217.818 52.594 217.83 52.72 217.811 53.08 217.811 53.129 217.792 53.41 217.761 53.692 217.773 53.862 217.729 54.12 217.742 54.334 217.704 54.441 217.71 54.514 217.678 54.62 217.685 54.669 217.672 54.722 217.685 54.961 217.678 55.199 217.691 55.325 217.678 55.413 217.653 55.485 217.697 55.67 217.697 55.753 217.697 55.85 217.678 55.898 217.659 55.991 217.666 56.078 217.653 56.258 217.672 56.331 217.659 56.491 217.659 56.569 217.672 56.647 217.659 56.705 217.672 56.812 217.653 57.002 217.678 57.118 217.659 57.259 217.672 57.356 217.666 57.526 217.685 57.609 217.666 57.701 217.672 57.973 217.647 58.041 217.653 58.071 217.647 58.197 217.653 58.221 217.647 58.454 217.647 58.6 217.628 58.809 217.647 58.945 217.64 58.979 217.647 59.373 217.608 59.528 217.628 59.737 217.634 59.873 217.628 60.019 217.647 60.199 217.647 60.364 217.628 60.602 217.634 60.651 217.628 60.68 217.64 60.768 217.628 60.923 217.634 61.011 217.615 61.147 217.621 61.195 217.608 61.249 217.621 61.341 217.615 61.39 217.621 61.462 217.608 61.637 217.615 61.715 217.602 61.958 217.615 62.138 217.608 62.177 217.628 62.327 217.608 62.425 217.583 62.614 217.577 62.697 217.564 62.77 217.577 62.847 217.564 62.983 217.583 63.338 217.558 63.518 217.57 63.601 217.589 63.863 217.596 63.916 217.608 63.994 217.602 64.038 217.583 64.203 217.608 64.339 217.577 64.587 217.577 64.67 217.596 64.743 217.596 64.791 217.583 64.893 217.577 64.956 217.564 65.044 217.558 65.083 217.545 65.496 217.545 65.593 217.526 65.821 217.507 65.894 217.488 66.215 217.469 66.322 217.437 66.448 217.431 66.55 217.412 66.745 217.406 66.988 217.368 67.017 217.374 67.07 217.368 67.381 217.298 67.493 217.298 67.614 217.273 67.872 217.273 68.037 217.247 68.047 217.279 68.032 217.266 68.105 217.266 68.12 217.254 68.164 217.26 68.261 217.241 68.664 217.197 68.824 217.146 68.985 217.146 69.063 217.121 69.15 217.114 69.199 217.095 69.262 217.102 69.378 217.064 69.524 217.057 69.709 217.019 69.772 217.026 69.874 217.019 70 216.994 70.146 216.988 70.234 216.962 70.321 216.962 70.443 216.937 70.525 216.95 70.676 216.931 70.763 216.931 70.933 216.886 71.167 216.886 71.434 216.842 71.58 216.842 71.594 216.848 71.589 216.854 71.599 216.867 71.614 216.842 71.609 216.861 71.91 216.848 71.954 216.829 72.464 216.759 72.624 216.721 72.736 216.734 72.799 216.715 72.969 216.734 73.222 216.702 73.246 216.715 73.319 216.702 73.523 216.728 73.718 216.696 73.762 216.696 73.8 216.683 73.859 216.69 73.922 216.671 73.975 216.683 74.077 216.664 74.325 216.664 74.593 216.639 74.612 216.645 74.986 216.601 75.117 216.595 75.21 216.576 75.355 216.582 75.744 216.55 75.827 216.569 75.924 216.557 76.07 216.563 76.143 216.557 76.172 216.538 76.172 216.525 76.182 216.519 76.182 216.525 76.191 216.525 76.22 216.538 76.254 216.544 76.318 216.525 76.347 216.512 76.507 216.519 76.595 216.506 76.731 216.525 76.774 216.5 76.804 216.5 76.974 216.512 77.027 216.5 77.163 216.506 77.192 216.493 77.255 216.5 77.285 216.474 77.338 216.487 77.455 216.474 77.537 216.436 77.596 216.455 77.703 216.462 77.732 216.436 77.78 216.455 78.072 216.449 78.227 216.43 78.247 216.424 78.271 216.405 78.281 216.36 78.276 216.24 78.281 216.208 78.295 216.164 78.339 216.126 78.349 216.1 78.344 216.081 78.329 215.986 78.3 215.91 78.3 215.872 78.305 215.847 78.281 215.809 78.252 215.714 78.208 215.625 78.179 215.593 78.164 215.536 78.14 215.403 78.15 215.277 78.101 215.169 78.096 215.125 78.208 215.106 78.446 214.992 78.495 214.992 78.558 214.941 78.582 214.941 78.65 214.871 78.844 214.763 78.883 214.732 78.908 214.732 78.937 214.713 78.932 214.738 79 214.643"><title>2020-10-12 6.8km</title></polyline><polyline fill="none" stroke="#4dd2ff" stroke-linecap="round" stroke-linejoin="round" stroke-width=".5" points="115.381 215.247 115.392 215.185 115.413 215.157 115.402 215.157 115.429 215.157 115.429 215.178 115.008 215.219 114.934 215.205 114.786 215.205 114.534 215.226 114.502 215.219 114.486 215.24 114.381 215.233 114.344 215.247 114.234 215.253 114.155 215.281 114.044 215.267 113.971 215.274 113.876 215.295 113.75 215.295 113.592 215.322 113.465 215.315 113.144 215.343 112.592 215.37 112.502 215.384 112.387 215.384 112.355 215.391 112.287 215.384 111.881 215.418 111.792 215.418 111.592 215.432 111.492 215.453 111.329 215.453 111.171 215.473 111.139 215.48 111.108 215.473 110.913 215.487 110.697 215.487 110.418 215.528 110.25 215.528 109.887 215.542 109.781 215.549 109.718 215.569 109.613 215.562 109.513 215.583 109.108 215.59 109.076 215.597 108.802 215.624 108.681 215.658 108.645 215.652 108.581 215.665 108.555 215.652 108.466 215.679 108.418 215.713 108.355 215.713 108.102 215.754 107.987 215.782 107.955 215.775 107.723 215.816 107.292 215.823 107.234 215.837 107.087 215.844 106.771 215.892 106.539 215.947 106.418 215.96 106.35 215.953 106.281 215.967 106.181 215.967 106.008 215.995 105.729 216.008 105.676 215.988 105.608 215.981 105.266 216.015 105.208 216.036 105.171 216.098 105.124 216.098 105.108 216.111 105.087 216.118 105.092 216.132 105.076 216.139 105.039 216.125 105.013 216.139 104.955 216.139 104.939 216.159 104.918 216.153 104.834 216.159 104.618 216.111 104.545 216.111 104.471 216.132 104.45 216.118 104.392 216.111 104.303 216.125 104.203 216.159 104.155 216.159 104.097 216.18 103.734 216.207 103.681 216.221 103.587 216.214 103.55 216.228 103.397 216.235 103.397 216.249 103.371 216.249 103.35 216.269 103.15 216.276 103.039 216.297 102.829 216.303 102.582 216.338 102.271 216.338 102.113 216.372 101.966 216.365 101.85 216.372 101.787 216.358 101.676 216.379 101.55 216.372 101.329 216.393 100.966 216.393 100.808 216.42 100.75 216.413 100.687 216.441 100.655 216.427 100.576 216.434 100.513 216.448 100.45 216.454 100.271 216.448 100.145 216.434 100.108 216.441 99.961 216.441 99.934 216.461 99.771 216.489 99.618 216.461 99.592 216.489 99.429 216.468 99.308 216.489 99.218 216.482 99.197 216.509 99.134 216.509 99.076 216.489 99.008 216.496 98.976 216.482 98.855 216.475 98.829 216.509 98.792 216.503 98.761 216.516 98.54 216.448 98.418 216.434 98.297 216.454 98.271 216.482 98.176 216.489 98.082 216.489 97.966 216.454 97.94 216.475 97.913 216.475 97.787 216.454 97.755 216.482 97.724 216.482 97.566 216.454 97.534 216.461 97.503 216.454 97.355 216.461 97.318 216.448 97.192 216.454 97.029 216.441 96.866 216.454 96.571 216.441 96.513 216.441 96.466 216.461 96.25 216.448 96.05 216.461 96.019 216.448 95.961 216.448 95.855 216.468 95.403 216.454 95.329 216.468 95.313 216.441 95.303 216.441 95.134 216.475 95.103 216.489 94.982 216.496 94.897 216.482 94.64 216.482 94.519 216.461 94.24 216.468 94.129 216.454 94.045 216.468 93.929 216.461 93.782 216.482 93.755 216.475 93.676 216.475 93.471 216.503 93.413 216.496 93.25 216.503 93.05 216.489 92.629 216.503 92.603 216.489 92.503 216.523 92.34 216.503 92.24 216.523 92.155 216.523 92.124 216.509 92.034 216.503 91.834 216.523 91.577 216.503 91.392 216.516 91.208 216.503 90.992 216.516 90.971 216.53 90.94 216.523 90.855 216.551 90.824 216.544 90.803 216.557 90.719 216.551 90.603 216.564 90.519 216.551 90.434 216.557 90.382 216.571 90.261 216.564 90.229 216.578 90.034 216.557 89.834 216.592 89.803 216.585 89.692 216.599 89.661 216.585 89.603 216.592 89.582 216.612 89.529 216.612 89.471 216.626 89.466 216.688 89.44 216.708 89.382 216.702 89.345 216.681 89.308 216.674 89.287 216.688 89.256 216.688 89.187 216.715 89.15 216.715 89.071 216.75 89.019 216.736 88.998 216.75 88.977 216.798 88.95 216.804 88.813 216.77 88.745 216.736 88.619 216.722 88.55 216.695 88.503 216.722 88.408 216.722 88.198 216.681 87.992 216.708 87.924 216.708 87.835 216.688 87.745 216.688 87.692 216.702 87.492 216.702 87.335 216.736 87.166 216.722 86.845 216.77 86.645 216.763 86.466 216.798 86.377 216.804 86.166 216.811 85.903 216.811 85.619 216.846 85.44 216.839 85.408 216.852 85.15 216.818 84.85 216.866 84.777 216.887 84.75 216.935 84.756 217.003 84.777 217.017 84.745 217.072 84.75 217.12 84.74 217.202 84.761 217.36 84.75 217.45 84.771 217.676 84.761 217.765 84.761 217.848 84.771 217.875 84.766 217.971 84.777 218.287 84.798 218.506 84.792 218.534 84.803 218.63 84.803 218.685 84.819 218.822 84.829 219.151 84.85 219.234 84.84 219.44 84.866 219.536 84.871 219.611 84.871 219.694 84.856 219.865 84.898 219.961 84.919 220.057 84.95 220.133 85.114 220.366 85.14 220.469 85.161 220.613 85.156 220.846 85.161 220.915 85.182 220.977 85.198 221.217 85.208 221.244 85.219 221.382 85.208 221.498 85.219 221.629 85.219 221.684 85.203 221.704 85.192 221.8 85.192 221.903 85.14 221.937 85.108 221.937 84.908 221.917 84.866 221.924 84.877 221.944 84.882 221.985 84.835 221.937 84.729 221.924 84.65 221.855 84.619 221.649 84.624 221.622 84.592 221.546 84.577 221.464 84.571 221.409 84.587 221.375 84.571 221.299 84.577 221.279"><title>2020-10-13 6.2km</title></polyline><polyline fill="none" stroke="#4dd2ff" stroke-linecap="round" stroke-linejoin="round" stroke-width=".5" points="121 221.864 121.01 221.889 121.135 221.901 121.217 221.895 121.357 221.87 121.463 221.864 121.588 221.876 121.679 221.857 121.713 221.864 121.737 221.883 121.756 221.939 121.747 222.021 121.752 222.046 121.752 222.102 121.761 222.146 121.756 222.197 121.766 222.385 121.761 222.542 121.8 222.555 121.843 222.536 121.959 222.561 122.079 222.555 122.137 222.567 122.219 222.555 122.253 222.536 122.253 222.479 122.262 222.467 122.253 222.435 122.258 222.404 122.262 222.171 122.272 222.09 122.262 222.014 122.262 221.769 122.253 221.751 122.258 221.732 122.243 221.581 122.248 221.556 122.243 221.487 122.248 221.38 122.262 221.33 122.248 221.279 122.248 221.21 122.224 221.147 122.152 221.06 122.128 221.047 122.079 220.978 122.07 220.984 122.06 220.972 121.978 220.821 121.959 220.758 121.949 220.651 121.94 220.607 121.944 220.538 121.92 220.368 121.93 220.287 121.92 220.237 121.93 220.073 121.92 219.948 121.925 219.822 121.92 219.684 121.901 219.552 121.906 219.52 121.896 219.338 121.901 219.175 121.882 218.729 121.887 218.672 121.882 218.603 121.872 218.584 121.882 218.559 121.877 218.459 121.901 218.345 121.887 218.239 121.891 218.201 121.896 218.188 121.925 218.176 122.007 218.157 122.195 218.126 122.325 218.126 122.446 218.113 122.552 218.088 122.672 218.082 122.725 218.063 122.923 218.05 122.985 218.038 123.014 218.044 123.091 218.038 123.192 218.05 123.298 218.044 123.607 218 123.915 218 123.968 218.012 124.103 217.994 124.358 218.012 124.633 217.981 125.129 217.981 125.211 217.962 125.293 217.956 125.428 217.95 125.515 217.962 125.592 217.943 125.664 217.956 125.693 217.937 125.862 217.943 126.194 217.906 126.532 217.899 126.575 217.906 126.585 217.912 126.585 217.918 126.613 217.918 126.797 217.893 126.864 217.899 126.975 217.887 127.095 217.881 127.235 217.849 127.558 217.83 127.654 217.843 127.683 217.843 127.712 217.824 128.045 217.824 128.102 217.837 128.131 217.824 128.199 217.837 128.343 217.811 128.469 217.818 128.55 217.805 128.83 217.811 128.912 217.818 128.936 217.811 129.018 217.818 129.172 217.805 129.288 217.824 129.394 217.799 129.562 217.799 129.625 217.786 130.044 217.793 130.232 217.805 130.555 217.799 130.608 217.786 130.786 217.786 130.858 217.799 131.027 217.78 131.114 217.793 131.523 217.767 131.726 217.786 131.938 217.786 132.02 217.767 132.087 217.78 132.145 217.774 132.492 217.78 132.511 217.767 132.632 217.774 132.685 217.767 132.858 217.78 133.186 217.761 133.33 217.761 133.417 217.755 133.446 217.742 133.485 217.755 133.629 217.749 133.769 217.761 133.798 217.749 133.827 217.755 133.933 217.736 134.077 217.761 134.106 217.749 134.125 217.761 134.188 217.749 134.304 217.767 134.545 217.761 134.636 217.78 134.776 217.755 134.834 217.767 134.935 217.774 135.002 217.761 135.089 217.774 135.176 217.755 135.234 217.73 135.287 217.736 135.446 217.73 135.605 217.705 135.985 217.723 136.067 217.711 136.101 217.723 136.115 217.711 136.173 217.705 136.347 217.742 136.453 217.742 136.751 217.711 136.944 217.717 137.065 217.705 137.204 217.723 137.551 217.711 137.599 217.717 137.725 217.705 137.754 217.717 137.927 217.686 138.168 217.673 138.221 217.679 138.515 217.648 138.631 217.648 138.9 217.591 139.016 217.591 139.353 217.548 139.397 217.554 139.508 217.535 139.787 217.516 139.907 217.478 140.057 217.466 140.105 217.441 140.225 217.422 140.307 217.428 140.548 217.403 140.683 217.409 140.789 217.397 140.847 217.409 140.992 217.372 141.218 217.365 141.237 217.346 141.261 217.353 141.3 217.334 141.324 217.302 141.435 217.296 141.454 217.277 141.493 217.271 141.517 217.277 141.599 217.265 141.632 217.24 141.676 217.252 141.791 217.233 141.84 217.252 142.008 217.215 142.158 217.202 142.23 217.177 142.307 217.183 142.389 217.171 142.495 217.139 142.615 217.145 142.9 217.114 142.986 217.114 143.145 217.083 143.208 217.095 143.285 217.089 143.377 217.07 143.401 217.076 143.516 217.051 143.632 217.051 143.719 217.026 143.868 217.026 143.892 217.013 143.921 217.026 144.172 216.988 144.273 216.995 144.297 217.013 144.287 217.02 144.302 217.007 144.297 217.013 144.307 217.02 144.345 217.02 144.442 217.013 144.538 216.988 144.649 216.995 144.793 216.976 145.029 216.938 145.164 216.938 145.386 216.9 145.564 216.913 145.632 216.9 145.762 216.907 145.786 216.894 145.902 216.882 146.234 216.856 146.287 216.863 146.388 216.844 146.514 216.844 146.538 216.838 146.721 216.831 146.764 216.819 146.812 216.825 146.832 216.812 146.88 216.825 146.971 216.825 147.145 216.806 147.275 216.812 147.41 216.787 147.94 216.762 148.031 216.75 148.292 216.737 148.398 216.731 148.426 216.718 148.72 216.699 148.783 216.68 148.831 216.687 148.841 216.687 148.836 216.699 148.86 216.674 148.855 216.68 148.846 216.668 148.836 216.674 148.841 216.662 148.841 216.668 148.826 216.668 148.86 216.668 148.846 216.687 148.846 216.68 148.879 216.699 149.034 216.706 149.053 216.718 149.26 216.706 149.318 216.68 149.549 216.668 149.626 216.649 149.882 216.662 149.968 216.643 150.151 216.636 150.18 216.649 150.253 216.643 150.378 216.649 150.633 216.611 150.826 216.611 150.889 216.586 150.908 216.561 150.893 216.523 150.893 216.498 150.884 216.454 150.889 216.417 150.869 216.341 150.865 216.297 150.889 216.241 150.874 216.184 150.879 216.153 150.86 216.021 150.865 215.996 150.845 215.92 150.763 215.788 150.763 215.751 150.744 215.694 150.662 215.524 150.672 215.487 150.648 215.449 150.638 215.386 150.595 215.304 150.595 215.286 150.638 215.267 150.706 215.26 150.72 215.273 150.744 215.273 150.932 215.235 151.101 215.198 151.202 215.147 151.298 215.085 151.443 214.984 151.65 214.789 151.674 214.789 151.679 214.808 151.717 214.789 151.732 214.77 151.742 214.72 151.77 214.689 151.804 214.638 151.833 214.613 151.828 214.588 151.857 214.576"><title>2020-10-13 6.9km</title></polyline><polyline fill="none" stroke="#4dd2ff" stroke-linecap="round" stroke-linejoin="round" stroke-width=".5" points="188.281 215.262 188.286 215.255 188.26 215.288 188.214 215.295 187.91 215.315 187.586 215.322 187.488 215.335 187.319 215.322 187.026 215.376 186.907 215.369 186.825 215.376 186.799 215.389 186.635 215.409 186.609 215.402 186.496 215.416 186.47 215.409 186.259 215.443 186.233 215.429 186.12 215.443 186.033 215.443 185.981 215.449 185.945 215.476 185.853 215.476 185.709 215.49 185.57 215.476 185.488 215.483 185.338 215.476 185.138 215.496 184.875 215.496 184.299 215.557 184.058 215.557 183.847 215.57 183.821 215.584 183.749 215.584 183.662 215.597 183.533 215.604 183.415 215.597 183.132 215.617 182.9 215.624 182.813 215.644 182.751 215.637 182.715 215.651 182.566 215.644 182.55 215.637 182.442 215.624 182.329 215.651 181.887 215.691 181.316 215.818 181.09 215.845 180.863 215.879 180.555 215.906 180.174 215.912 180.035 215.946 179.912 215.946 179.788 215.979 179.14 216.02 178.945 216.053 178.934 216.04 178.924 216.053 178.919 216.046 178.862 216.06 178.688 216.06 178.559 216.087 178.487 216.093 178.451 216.107 178.389 216.1 178.322 216.113 178.117 216.14 178.003 216.167 177.87 216.181 177.762 216.187 177.525 216.227 177.453 216.221 177.33 216.227 176.995 216.274 176.882 216.268 176.697 216.288 176.666 216.281 176.584 216.308 176.404 216.315 176.378 216.335 176.352 216.328 176.183 216.355 175.714 216.402 175.344 216.422 175.272 216.435 175.19 216.429 175.005 216.429 174.866 216.456 174.758 216.462 174.459 216.435 174.362 216.449 174.058 216.449 173.909 216.462 173.616 216.456 173.498 216.489 173.266 216.476 173.143 216.502 173.045 216.489 172.957 216.496 172.813 216.482 172.484 216.496 172.371 216.482 172.289 216.489 172.181 216.476 172.047 216.482 171.975 216.476 171.893 216.496 171.79 216.489 171.764 216.502 171.63 216.516 171.61 216.529 171.548 216.523 171.527 216.543 171.497 216.543 171.476 216.556 171.358 216.576 171.286 216.556 171.26 216.563 171.203 216.536 171.08 216.529 171.049 216.536 170.998 216.536 170.859 216.516 170.699 216.523 170.648 216.509 170.103 216.496 169.969 216.509 169.696 216.509 169.65 216.523 169.501 216.509 169.239 216.516 169.002 216.496 168.678 216.502 168.642 216.496 168.601 216.516 168.549 216.529 168.354 216.536 168.251 216.529 168.174 216.536 168.05 216.516 167.839 216.502 167.814 216.516 167.613 216.523 167.515 216.509 167.356 216.509 167.032 216.543 166.908 216.529 166.785 216.536 166.698 216.529 166.543 216.543 166.337 216.536 166.219 216.549 165.916 216.549 165.391 216.57 164.676 216.549 164.465 216.556 164.085 216.603 163.966 216.596 163.426 216.63 163.22 216.616 163.056 216.637 162.881 216.643 162.778 216.67 162.557 216.704 162.511 216.724 162.356 216.737 162.238 216.724 162.135 216.73 162.104 216.724 161.878 216.717 161.749 216.744 161.636 216.73 160.926 216.784 160.721 216.771 160.366 216.818 160.324 216.831 160.227 216.831 159.635 216.871 159.378 216.871 158.848 216.925 158.776 216.918 158.725 216.925 158.632 216.918 158.468 216.945 158.462 216.938 158.457 216.925 158.416 216.918 158.375 216.985 158.38 217.019 158.365 217.059 158.385 217.099 158.38 217.173 158.334 217.509 158.344 217.609 158.334 217.763 158.339 217.898 158.36 218.065 158.354 218.119 158.375 218.287 158.396 218.769 158.406 218.863 158.432 219.407 158.426 219.5 158.452 219.682 158.447 219.742 158.473 219.916 158.596 220.178 158.612 220.191 158.699 220.339 158.725 220.426 158.73 220.473 158.72 220.54 158.72 220.634 158.73 220.828 158.756 220.942 158.771 221.11 158.797 221.197 158.771 221.378 158.781 221.425 158.761 221.633 158.766 221.707 158.756 221.754 158.761 221.814 158.751 221.841 158.735 221.861 158.699 221.881 158.488 221.875 158.385 221.888 158.329 221.875 158.272 221.848 158.252 221.828 158.246 221.801 158.252 221.754 158.241 221.673 158.226 221.633 158.221 221.586 158.226 221.479 158.21 221.338 158.205 221.304 158.21 221.304 158.174 221.278 158.174 221.264 158.2 221.244 158.195 221.197 158.169 221.157 157.979 221.13 157.922 221.144 157.907 221.123 157.902 221.137 157.835 221.13 157.737 221.157 157.675 221.164 157.645 221.15 157.48 221.17 157.429 221.164"><title>2020-10-14 6.2km</title></polyline><polyline fill="none" stroke="#4dd2ff" stroke-linecap="round" stroke-linejoin="round" stroke-width=".5" points="42.571 249.538 42.535 249.525 42.519 249.525 42.498 249.504 42.477 249.525 42.42 249.607 42.409 249.593 42.414 249.579 42.388 249.559 42.404 249.559 42.425 249.491 42.31 249.511 42.148 249.511 42.048 249.525 41.944 249.525 41.923 249.538 41.677 249.532 41.677 249.545 41.624 249.552 41.488 249.545 41.269 249.573 41.206 249.566 41.033 249.573 40.657 249.6 40.51 249.593 40.358 249.627 40.353 249.613 40.285 249.634 40.154 249.648 40.092 249.668 39.976 249.668 39.767 249.709 39.495 249.716 39.448 249.723 39.411 249.716 39.202 249.716 39.16 249.729 38.789 249.736 38.26 249.798 38.083 249.798 37.994 249.825 37.889 249.818 37.674 249.832 37.47 249.839 37.449 249.825 37.136 249.866 37.026 249.852 36.895 249.873 36.738 249.88 36.728 249.866 36.665 249.886 36.591 249.886 36.508 249.907 36.476 249.9 36.393 249.914 36.361 249.9 36.131 249.927 35.995 249.955 35.911 249.955 35.89 249.975 35.749 249.982 35.509 250.036 35.221 250.091 35.006 250.105 34.964 250.098 34.902 250.118 34.75 250.118 34.666 250.146 34.384 250.159 34.227 250.193 34.091 250.193 33.913 250.241 33.719 250.262 33.552 250.268 33.526 250.282 33.363 250.275 32.992 250.35 32.767 250.33 32.605 250.35 32.547 250.343 32.469 250.364 32.411 250.364 32.343 250.384 32.275 250.391 32.244 250.405 32.202 250.398 31.914 250.412 31.323 250.48 31.182 250.507 30.517 250.569 30.266 250.609 30.083 250.623 29.79 250.657 29.539 250.664 29.471 250.678 29.393 250.671 29.366 250.678 29.251 250.685 29.032 250.671 28.707 250.698 28.587 250.691 28.524 250.705 28.508 250.691 28.121 250.712 28.048 250.705 27.687 250.712 27.572 250.739 27.472 250.725 27.289 250.739 27.221 250.732 27.059 250.753 26.902 250.739 26.73 250.76 26.573 250.746 26.546 250.732 26.374 250.753 26.301 250.746 26.107 250.753 26.055 250.773 26.013 250.766 25.793 250.76 25.678 250.814 25.652 250.821 25.636 250.841 25.573 250.848 25.521 250.882 25.458 250.882 25.38 250.855 25.301 250.876 25.265 250.862 25.129 250.848 24.888 250.773 24.809 250.773 24.741 250.76 24.595 250.766 24.469 250.746 24.271 250.746 24.072 250.746 24.019 250.732 23.868 250.746 23.716 250.732 23.7 250.746 23.564 250.725 23.156 250.76 22.921 250.746 22.46 250.78 22.434 250.773 22.183 250.773 21.979 250.746 21.744 250.766 21.493 250.753 20.812 250.787 20.504 250.773 20.284 250.773 20.028 250.787 19.886 250.787 19.729 250.814 19.426 250.835 19.217 250.807 18.934 250.828 18.782 250.848 18.646 250.848 18.531 250.882 18.421 250.889 18.369 250.91 18.27 250.903 18.186 250.862 18.113 250.855 18.034 250.855 17.992 250.869 17.794 250.889 17.741 250.889 17.715 250.876 17.647 250.882 17.506 250.862 17.438 250.862 17.26 250.876 17.166 250.903 17.056 250.896 16.972 250.923 16.894 250.93 16.873 250.944 16.768 250.957 16.742 250.971 16.679 250.964 16.627 250.978 16.501 250.978 16.439 250.957 16.287 250.985 16.266 250.998 16.062 250.998 15.999 251.019 15.963 250.998 15.9 251.005 15.863 250.998 15.806 251.012 15.69 251.012 15.638 251.032 15.602 251.026 15.481 251.019 15.256 251.08 15.141 251.039 15.042 251.046 14.859 251.087 14.827 251.107 14.686 251.073 14.576 251.067 14.545 251.053 14.471 251.067 14.351 251.073 14.294 251.06 14.226 251.08 14.147 251.067 14.084 251.087 13.927 251.094 13.661 251.121 13.258 251.128 13.017 251.114 12.185 251.169 12.164 251.183 12.128 251.21 12.133 251.23 12.128 251.244 12.117 251.298 12.128 251.333 12.154 251.374 12.149 251.408 12.154 251.674 12.128 251.769 12.154 251.919 12.143 252.124 12.169 252.363 12.169 252.472 12.164 252.547 12.18 252.683 12.175 252.758 12.196 252.922 12.185 252.977 12.201 253.147 12.196 253.209 12.211 253.263 12.206 253.318 12.217 253.4 12.211 253.461 12.222 253.577 12.217 253.727 12.232 253.788 12.227 253.884 12.243 254.007 12.237 254.082 12.253 254.198 12.274 254.259 12.373 254.43 12.462 254.566 12.515 254.743 12.53 254.839 12.546 255.078 12.551 255.091 12.551 255.207 12.567 255.255 12.578 255.337 12.572 255.364 12.588 255.432 12.588 255.453 12.567 255.453 12.557 255.507 12.583 255.712 12.583 255.78 12.593 255.869 12.588 255.964 12.572 255.992 12.562 256.114 12.546 256.135 12.536 256.19 12.515 256.224 12.478 256.224 12.342 256.203 12.321 256.19 12.149 256.19 12.054 256.162 12.007 256.087 11.992 256.005 11.965 255.951 11.929 255.794 11.918 255.617 11.924 255.589 11.934 255.582 11.924 255.582 11.929 255.569 11.913 255.535 11.918 255.494 11.908 255.48 11.798 255.48 11.714 255.46"><title>2020-10-15 6.2km</title></polyline></svg>