<?xml version="1.0" encoding="utf-8" ?>
<svg baseProfile="full" height="300mm" version="1.1" viewBox="0,0,200,300" width="200mm" xmlns="http://www.w3.org/2000/svg" xmlns:ev="http://www.w3.org/2001/xml-events" xmlns:xlink="http://www.w3.org/1999/xlink"><defs /><rect fill="#222222" height="300" width="200" x="0" y="0" /><text fill="#FFFFFF" style="font-size:12px; font-family:Arial; font-weight:bold;" x="10" y="20">Picked Over 5km Runs</text><text fill="#FFFFFF" style="font-size:4px; font-family:Arial" x="10" y="280">ATHLETE</text><text fill="#FFFFFF" style="font-size:9px; font-family:Arial" x="10" y="290">DuanFei</text><text fill="#FFFFFF" style="font-size:4px; font-family:Arial" x="120" y="280">STATISTICS</text><text fill="#FFFFFF" style="font-size:3px; font-family:Arial" x="120" y="285">Number: 18</text><text fill="#FFFFFF" style="font-size:3px; font-family:Arial" x="120" y="290">Weekly: 1.6</text><text fill="#FFFFFF" style="font-size:3px; font-family:Arial" x="141" y="285">Total: 132.9 km</text><text fill="#FFFFFF" style="font-size:3px; font-family:Arial" x="141" y="290">Avg: 7.4 km</text><text fill="#FFFFFF" style="font-size:3px; font-family:Arial" x="167" y="285">Min: 5.0 km</text><text fill="#FFFFFF" style="font-size:3px; font-family:Arial" x="167" y="290">Max: 15.2 km</text><polyline fill="none" points="26.65728142298758,34.27805558248656 27.159390050685033,33.32367744698422 35.42135928873904,33.14473135606386 39.803398221731186,34.24823129165452 43.13557366025634,33.264028756762855 49.20652343169786,35.38155316951452 46.2395179043524,69.82742269901792 42.40523383789696,72.75 15.428306657355279,63.17700845695799 19.30823696264997,33.025433928880375 40.625030521303415,33.681569448206574 43.181219899095595,35.56049850868294 49.2978159096092,35.41137739707483 46.28516414295882,69.61866656382335 44.687545782187954,71.73604642675491 41.99441768811084,72.63071144459536 15.747830329695717,62.789313585089985 19.62776063475758,32.63771710562287 34.188910838682204,33.35350178950466 49.57169334287755,35.6499711558572 46.51339533738792,68.63452939549461 45.18965441011824,71.5571132429177 42.31394135998562,72.69035572558641 15.930415285052732,62.789313585089985 19.62776063475758,32.81666336680064 24.511908195447177,32.25 26.611635183915496,33.174555708654225" stroke="#4dd2ff" stroke-linecap="round" stroke-linejoin="round" stroke-width="0.5"><title>2020-06-12 5.6km</title></polyline><polyline fill="none" points="72.16970902099274,33.51098017353797 89.03364686039276,33.57102677418152 94.31798705551773,35.552560832351446 92.57185725215822,60.89153249026276 90.41217038943432,71.45909094327362 88.16058195871301,72.75 85.67923960648477,72.47980998945422 67.1151227473747,66.29542363248765 60.636062160367146,62.99305218481459 61.325323925120756,54.73703456739895 64.5418788259849,32.85046711919131 89.35530235082842,33.75116653688019 94.4098886239808,35.342398476437666 91.60689078154974,69.44766831118613 88.80389293911867,72.47980998945422 85.26568254758604,72.2996832402423 70.8371362760663,67.46625953383045 60.590111376252025,63.02307383500738 63.439060003031045,36.753486999543384 64.26617412036285,32.97056046233047 65.73659921833314,32.25 79.24612980382517,32.76039709424367 83.65740509680472,33.931306238810066 89.67695784056559,33.51098017353797 94.59369176137261,35.64263038802892 91.69879235024564,68.66711421235232 90.55002274271101,71.18890028184978 88.16058195871301,72.62991556769703 77.36214764718898,70.13815752812661 60.40630823886022,62.842943908355664 62.88765059155412,43.50864656275371" stroke="#4dd2ff" stroke-linecap="round" stroke-linejoin="round" stroke-width="0.5"><title>2020-06-16 5.3km</title></polyline><polyline fill="none" points="116.89138740394264,34.25152679462917 122.74777003447525,33.162461689906195 131.307098494377,33.89831673761364 138.8753468170762,36.40021619311301 135.90210640453734,70.33657000394305 133.51450425502844,72.36738378863083 131.21700030006468,72.69113598571857 106.03455498884432,63.096213523473125 109.45828637294471,33.39793541742256 115.17952171177603,32.25 137.02833383344114,35.42889193666633 138.83029771992005,36.194177864526864 139.01049410854466,39.69681846612366 137.25357931945473,59.358266871771775 135.90210640453734,69.54190160456346 133.37935696355999,72.54397592094028 130.09077287092805,72.27908770029899 106.12465318315662,63.096213523473125 109.00779540138319,35.19341911911033 109.81867915019393,33.309632781893015 115.94535636366345,32.720948166796006 132.253129534889,34.16322430269793 138.78524862253107,36.13530975562753 136.1273518903181,68.51177411299432 135.0912226557266,71.19010139111197 132.253129534889,72.75 105.98950589168817,62.77245541638695 109.1879917900078,37.16550070681842" stroke="#4dd2ff" stroke-linecap="round" stroke-linejoin="round" stroke-width="0.5"><title>2020-07-10 5.3km</title></polyline><polyline fill="none" points="163.09513424756005,32.93596084101591 167.7054082476534,32.30964880384272 182.12963185156696,34.18858270486817 184.27500688144937,35.32190470962087 181.30799886141904,69.52919962321175 180.02990309917368,71.73604642652208 176.78901741607115,72.75 161.77139220782556,67.76968007936375 150.90757822757587,62.520909277314786 154.2397564649582,33.323677447100636 156.7959479901474,32.25 173.36554662371054,33.920163982140366 177.51935785170645,33.323677447100636 184.50323826726526,35.47102584654931 181.6275228022132,68.24683849618305 179.80167171289213,71.70622423343593 176.83466369309463,72.69035572547 164.32758373278193,67.97843693912728 161.77139220782556,68.42577279242687 150.58805428724736,62.55073198478203 154.28540274244733,33.11490700178547 155.5178522276692,32.25 161.63445337628946,32.30964880384272 164.55581511883065,33.413150469830725 178.9343924454879,33.80086672847392 184.50323826726526,35.53067428973736 181.17106002988294,70.18529016867978 177.38241901993752,72.72017786366632 166.9294215347618,69.26079871272668 164.55581511883065,67.50127828208497 162.09091614861973,67.73985766415717 150.45111545547843,62.16303665697342 154.14846391091123,34.33770415914478 155.01574317808263,32.48859517532401 167.0207140892744,32.54824395227479 184.5488845447544,35.29208047728753 181.07976747537032,69.08186469710199 179.71037915861234,71.31853557057912 176.78901741607115,72.36231209698599 162.1365624256432,67.79950249288231 150.72499311878346,62.4314411446685 154.2397564649582,32.78683899412863 155.88302244548686,32.54824395227479" stroke="#4dd2ff" stroke-linecap="round" stroke-linejoin="round" stroke-width="0.5"><title>2020-07-18 7.3km</title></polyline><polyline fill="none" points="27.89520871080458,82.70684980519582 41.975243613589555,82.62006096809637 48.439662154065445,84.81870701210573 45.82732863421552,117.62370883917902 44.410469776252285,120.05362610286102 41.709582577925175,121.12394317635335 16.250399970449507,111.83814554015407 19.96965447301045,82.15718692430528 29.356344408122823,81.66538279823726 46.09298967034556,83.92189199267887 48.572492671897635,84.99228393280646 48.79387686867267,86.06267365475651 47.28846433199942,109.17676466394914 45.69449811638333,117.94191294076154 44.23336241906509,120.19826367485803 42.55084252473898,121.12394317635335 39.05297221872024,120.60324866091833 16.383230488281697,111.89600149379112 16.781722042011097,105.12681093497667 20.10248499107547,82.01253870053915 31.525909534888342,81.66538279823726 48.52821583254263,85.05014289333485 47.3327411711216,108.8874833076261 45.65022127726115,117.85513002355583 43.25927195395343,120.77681355760433 39.274356415262446,120.83466851024423 16.294676809571683,111.69350562762702 19.57116291904822,84.15332827577367 20.5009765450377,81.95467939961236 31.96867792797275,81.52073443681002 48.39538531471044,84.7608480254421 46.09298967034556,118.05762347462587 43.87914770422503,120.83466851024423 41.62102889921516,121.5 16.2061231310945,111.3752976769465 19.748270276468247,82.99614582327195 20.5009765450377,81.98360905074514 25.63708990556188,81.11571880913107 32.10150844603777,81.0 38.56592698628083,83.08293459721608 43.746317186392844,83.0540050076088 48.79387686867267,85.07907237112522 47.5541253676638,106.94929404224968 45.738774955505505,117.65263649303233 43.48065615049563,120.74788607895607 40.646938434103504,121.12394317635335 16.33895364915952,111.4331536826212 19.792547115590423,82.88042743538972 20.722360741347075,81.89682009234093 25.814197262749076,81.20250789896818 44.58757713320665,83.54580781143159 48.61676951125264,85.05014289333485 45.605944437673315,117.91298530332278 44.410469776252285,120.02469858370023 41.443921541795135,121.12394317635335 16.250399970449507,111.80921756091993 20.412422866094857,82.21504620241467" stroke="#ff6a00" stroke-linecap="round" stroke-linejoin="round" stroke-width="0.5"><title>2020-07-31 11.0km</title></polyline><polyline fill="none" points="73.77333523333073,81.63519894616911 89.92993155191652,82.30064465984469 94.23527097189799,83.84326566127129 93.26309755444527,107.91968122764956 91.13357483060099,118.71742352179717 88.77258224529214,121.28828272817191 85.90235596522689,121.25803739693947 60.67214108374901,111.12575609318446 64.0516010588035,81.0 89.5595797735732,81.87717930058716 93.81862522172742,83.72227593802381 94.32785891625099,88.1686304610921 91.08728085830808,119.01987818116322 87.98558471701108,121.34877338580554 83.95800913032144,120.59263968002051 61.0424928618595,111.3979691201821 60.903610944980755,108.07091160159325 64.46824680897407,81.0 77.06020726379938,81.03024758555694 94.2815649441909,83.9037605128251 92.01316030346788,113.90837168169674 91.08728085830808,118.83840540598612 89.09664005110972,121.25803739693947 86.55047157686204,121.5 61.13508080644533,111.4584608853329 61.459138612030074,103.35250397835625" stroke="#4dd2ff" stroke-linecap="round" stroke-linejoin="round" stroke-width="0.5"><title>2020-08-02 5.0km</title></polyline><polyline fill="none" points="119.05120315146632,81.65229394764174 133.98086319305003,82.7196823102422 139.0179217478726,84.765503989649 137.6111756649334,107.92128228157526 135.52374599361792,119.03925384860486 133.34555851039477,121.29246763361152 130.94047649763525,121.44070504634874 108.70481260609813,113.34688157326309 105.9820782521274,111.50870662013767 109.56701181805693,81.9191412399523 120.54870704631321,81.26684762124205 130.39592962665483,83.10512757889228 134.43465225188993,82.45283542131074 139.1540584655013,85.18059727875516 136.65821864129975,114.08807934587821 134.20775772235356,120.78846011956921 131.66653899196535,121.5 123.49833592982031,119.21713949606055 105.93669934617355,112.19061097642407 106.7081407464575,100.2719822692452 109.47625400614925,81.56334482046077 121.91007422329858,81.0 138.88178503024392,84.38005992991384 136.61283973511308,114.35491028986871 135.47836708743125,119.21713949606055 132.66487492178567,121.5 106.20897278143093,111.53835465380689 109.29473838279955,82.18598839803599 116.14695317391306,81.0 134.61616787547246,83.19407644710736 139.06330065405928,84.82480305078207 136.24980848794803,116.7563827346894 134.9338202169165,119.98797661112621 132.52873820415698,121.47035252407659 122.54537890572101,118.74277763679856 105.84594153426588,111.7458908437984 108.02412901748903,92.83011534053367" stroke="#4dd2ff" stroke-linecap="round" stroke-linejoin="round" stroke-width="0.5"><title>2020-08-07 7.1km</title></polyline><polyline fill="none" points="162.9659743141383,82.44437673210632 179.29748971946537,82.91600909235422 183.85407274658792,84.86148811079329 182.77132034418173,109.20884465036215 180.7411595894955,118.90620693692472 179.16214566933922,120.76312827045331 176.2748059288133,121.20525143184932 151.3715006702114,111.21317733864998 154.66487256111577,82.32646857603686 161.2516163433902,81.44215656316373 174.0190717568621,83.12234811700182 179.29748971946537,82.50333080033306 183.85407274658792,84.59619594085962 184.03453148063272,89.90201393398456 181.64345325832255,114.337563071982 180.92161832330748,118.43460682511795 179.20726035232656,120.70417848759098 176.99664086382836,121.44105029961793 170.50012644869275,119.40728159301216 150.96546851913445,111.36055444099475 154.6197578778956,82.09065218467731 168.15416290960275,81.0 174.695792008657,82.94548610056518 182.0494854093995,83.2402560946648 183.9894167969469,85.39207204960985 182.5908616106026,108.08877305919304 180.47047148877755,119.34833165805321 176.63572339643724,121.5 158.36427660332993,114.9270677343593 151.32638598652557,111.09527562692529 154.52952851052396,82.50333080033306 160.89069887576625,81.0294771156041 168.96622721175663,81.56006491766311 171.98891100217588,83.12234811700182" stroke="#4dd2ff" stroke-linecap="round" stroke-linejoin="round" stroke-width="0.5"><title>2020-08-09 5.6km</title></polyline><polyline fill="none" points="27.076085817534477,132.1634285969776 43.43715742160566,132.4045573110925 48.90271334559657,133.6588649658952 47.323580304393545,156.76749813201604 45.483143895631656,167.71159310848452 43.29499117098749,169.82131900155218 40.24351795739494,169.81769311847165 23.243479922879487,163.25711350206984 16.838965856703,160.38702253607335 16.04930038447492,159.0077342838631 19.71958099724725,131.2533314388711 41.814149047480896,132.36821468482958 48.821474488824606,134.03306118113687 46.54566678102128,163.6453650574549 45.21691103489138,168.1838103805203 41.93891031737439,170.02972082374617 16.57972631440498,160.2328035752871 19.614339693216607,130.75202850060305 32.59710796573199,131.42840037331916 48.836450109723955,134.06607924145646 46.40001838025637,163.44489725184394 44.38880844274536,169.17769241693895 42.41991892270744,170.1136965699843 39.34347499557771,169.75023896660423 16.686978451674804,160.41075653670123 16.451230184640735,158.9504869847442 19.968431370565668,130.87682861147914 33.90524973347783,129.75 39.64862982952036,132.07289065484656 46.64981302944943,132.52660688670585 48.95069961552508,134.4461724840803 47.12252815789543,159.26632267126115 45.73985671647824,167.55524474137928 42.16759753902443,170.25 16.671025719027966,160.56802013597917 19.461989459116012,133.2896242979332" stroke="#4dd2ff" stroke-linecap="round" stroke-linejoin="round" stroke-width="0.5"><title>2020-08-14 7.2km</title></polyline><polyline fill="none" points="71.67288791737519,131.2189654711401 78.46353821852244,130.40953601623187 94.33897743583657,132.44809674745193 92.04483882058412,162.2761489888071 90.94365228526294,167.37223288143286 87.82362376851961,170.25 60.5233742473647,160.35761071823072 63.918699397705495,131.7286056111334 64.56105821020901,130.01981028658338 70.89288078830577,129.75 89.8883485221304,131.51875384763116 94.4766257526353,132.89777821640018 91.3107144634705,166.1731586829992 90.07187961158343,168.84109511441784 87.91538931312971,170.1001166777569 71.2140601943247,164.97408179857302 60.5233742473647,160.17774740286404 63.918699397705495,132.05837250204058 64.42340989317745,130.10974701849045 66.4422518745996,129.7799789273995 87.50244436226785,131.03909236489562 94.2930946634151,133.13760817889124 91.17306614667177,166.4729274843121 89.84246574970894,169.02095551905222 87.31891327328049,170.22002333891578 75.06821306794882,165.66355133533943 71.39759128331207,165.27385127154412 60.84455365338363,160.1477701778058 63.82693385332823,132.38813918974483" stroke="#4dd2ff" stroke-linecap="round" stroke-linejoin="round" stroke-width="0.5"><title>2020-08-20 5.4km</title></polyline><polyline fill="none" points="117.62198317819275,130.682105616841 131.841862403322,131.1631917534978 139.29694471578114,133.17773526895326 137.82433586358093,156.900671612937 135.89153674594127,167.96500336931786 134.05077568092383,169.88921170466347 131.61176727013662,170.25 105.8871313908603,159.8471735403873 109.33855838701129,130.1108152695815 115.59714600723237,129.75 138.92879250249825,132.66658315231325 138.0544309967663,156.08887742413208 135.8455177191645,168.2355955831008 133.77466152142733,169.94934310414828 131.10555797745474,170.0996715729707 105.74907431076281,160.08770359598566 109.38457741378807,129.78006794839166 138.97481152927503,132.66658315231325 137.54822170431726,156.66014012950473 135.38532745302655,169.31796307506738 131.93390045664273,170.18986863427563 115.68918406032026,164.77801814471604 105.93315041717142,159.96743858157424 105.84111236408353,156.56994079507422 109.56865351996385,129.8101358950953 138.97481152927503,132.81692206067964 135.98357479902916,168.4761218810454 132.0719575365074,170.25 105.70305528421886,160.2380348261795 109.5226344934199,130.20101904886542 116.9777168056462,129.75 138.83675444941036,132.45610861014575 139.1128686091397,140.0331401528092 136.62784117180854,165.95059037976898 134.97115621343255,169.31796307506738 131.61176727013662,169.97940880124224" stroke="#4dd2ff" stroke-linecap="round" stroke-linejoin="round" stroke-width="0.5"><title>2020-08-21 8.2km</title></polyline><polyline fill="none" points="161.53086966834962,130.75570062414045 183.81230814335868,132.88156071328558 182.09967085230164,154.07009145134361 184.59585267002694,156.4075408661738 181.60072040255181,159.17150637926534 180.11489826976322,167.90420882048784 176.73756379378028,170.25 150.48556444537826,160.3717377644498 154.23794042458758,130.1582117411308 160.06261181505397,129.75 181.5016475794837,132.22840227885172 183.8315252251923,133.86608448566403 181.7920779217966,157.93015330826165 180.50068835611455,166.67268304649042 178.88663558871485,169.4432406531414 174.99055732646957,169.93210079451092 160.65965736634098,164.5014604445314 150.67262328602374,160.5467081713141 150.4041473302059,158.3704479142907 153.64158057118766,130.1615711604827 183.1430297133047,132.91814037179574 183.66195871960372,138.23950680851704 180.30311618652195,167.49547628924483 176.48962914384902,170.0817885887227 150.84105886588804,160.95625677140197 150.5250553812366,155.04617930675158" stroke="#4dd2ff" stroke-linecap="round" stroke-linejoin="round" stroke-width="0.5"><title>2020-08-27 5.1km</title></polyline><polyline fill="none" points="26.158897885354236,203.63053958528326 31.79639583802782,200.30338250705972 38.97588447108865,200.74314477187 42.240006250562146,202.17399707096047 51.97701558377594,187.89603373923455 52.37064194167033,186.11737418538542 51.40959135862067,185.36069440364372 38.3214940156322,185.39410832361318 16.44310936355032,186.4960469957732 15.53674833709374,194.29350154011627 12.254624266177416,203.55707261897624 12.7547550231684,209.07351106524584 14.580630098236725,212.0600901756261 16.947388493688777,211.6448344141827 21.83522355160676,208.98721663240576 25.828140846220776,204.20075387970428 31.10552119719796,200.7642653849034 37.12004810431972,200.17903579131234 41.27815929846838,202.30703505815472 42.362948949914426,202.11270301506738 52.56432905816473,187.02965376118664 52.07907936931588,185.73795870647882 50.27485381811857,185.30227084588842 16.59514365834184,186.56878328628954 15.880788435461,187.62716274059494 15.578809583093971,194.15072498787777 12.879583831643686,201.9827593577793 12.25,206.66215097741224 14.520371539518237,212.19772915411158 20.42704630107619,210.0396652527561 28.466606508009136,202.01003168316674 31.43906078278087,200.57211012940388 37.62789757596329,200.23453100663028 42.30199904600158,202.19413177928072 52.75,186.2363818392041 51.898236545035616,185.39083127403865 45.757554047508165,185.3267751831154 16.10384933417663,186.4788916221005 15.897117343964055,193.04410329522216 13.096013776259497,201.19169828115264 12.282726063625887,206.57860004660324 13.840654449770227,211.24193203425966 15.231798423919827,212.1398783714685" stroke="#4dd2ff" stroke-linecap="round" stroke-linejoin="round" stroke-width="0.5"><title>2020-09-02 6.2km</title></polyline><polyline fill="none" points="71.3687243196182,203.73983226472046 76.6845902625937,200.31967268441804 82.20917394151911,200.0718083352258 86.04262055363506,202.09083487495081 87.83594886446372,201.83554888312938 97.29636176256463,186.15790635766461 95.20586372585967,185.18619669319014 90.39579406939447,185.1604813345184 61.33010826120153,186.2869894063333 60.291913092369214,195.45402261879644 57.25,205.98105118941749 58.277173672104254,210.29347316070925 59.74424208630808,212.21784858667525 66.59613683819771,209.56420187928597 72.11905624577776,202.9466385540145 74.82421733881347,201.26001937850378 81.7023656887468,200.17636169563048 87.45833357353695,202.0942290040839 97.69154024287127,186.5935480882472 96.7757667589467,185.6066785751609 92.08951147878543,184.96360606898088 77.5873194669839,186.35476018465124 66.78348989621736,185.93684497204958 60.804732964374125,186.74918952179723 60.744773782091215,193.84715766942827 57.25540285045281,204.62510396828293 58.298478913260624,210.6397864036553 59.9242533785291,212.46570337441517 65.60180105874315,210.1870955118502 72.39691564370878,202.5855996045866 76.22133479826152,200.38666629549698 81.04842665418983,200.142965002422 87.39124172227457,202.22642964823171 97.65805010055192,186.29599513547146 96.10906587145291,185.45921639332664 89.94198565161787,185.22352998750284 61.111416302388534,186.56103868383798 60.3894568614196,194.83821008887026 57.29282194864936,205.26858195348177 58.09214048739523,209.68279467298998 60.016247699502856,212.35941576797632 65.75985443848185,210.00406753015704 72.3761983497534,202.87823731367826 77.31851763208397,200.30945133362547 82.24534174823202,200.3778973617882 87.55673489021137,202.30761704678298 97.75,186.51642324478598 96.77487795217894,185.5635448313551 91.29613206069916,185.31383865131647 61.3483877137769,186.59209083893802 60.5653843479231,194.28706915461225 57.51696430402808,203.51042410853552 57.7404863119591,208.34774241314153 59.73065613093786,212.53639393099002 65.46470671379939,210.28938970691524 71.29433703189716,203.6172669569496 76.55757838697173,200.64454768088763 81.2460655409377,200.0095486237551 86.42431639647111,202.17280343125458 87.61044062161818,201.95953197122435 97.34717450174503,187.08021173108136 97.01496673980728,185.85220849970938 95.33573155780323,185.4315978224622 61.28796980972402,186.60674275329802 60.80593040958047,194.33718951354967 57.4531757645309,204.1663881270215 58.21263615274802,210.06229995653848 59.9021149657201,212.38098831064417 66.92855864902958,209.24699675827287" stroke="#ff7000" stroke-linecap="round" stroke-linejoin="round" stroke-width="0.5"><title>2020-09-04 10.7km</title></polyline><polyline fill="none" points="115.9733883459121,204.02850601743557 120.51199515722692,200.8826053783705 124.9371401942335,200.2042058017105 133.03630286967382,202.23994212708203 137.0918598852586,194.60354112120694 142.75,186.61067274719244 141.39928160770796,185.38055135909235 137.93094053887762,185.30041309798253 106.33702063048258,186.3990177877131 105.44270533090457,194.8349750780617 102.31674685538746,205.07315196131822 102.6363469932694,208.89408330744482 104.57210574275814,212.33646725772996 110.33218479016796,209.91024597504293 117.72678117710166,202.56215468264418 120.94231375050731,200.87799412521417 125.08511826419272,200.12809786590515 132.8110089970287,201.96037704971968 142.3352057810407,186.72531716237427 141.34419659199193,185.4028538001876 131.4031338908244,185.16353274227004 121.56453596521169,186.1546759235789 106.45583433983847,186.21750186319696 105.75422396929935,187.19671652151737 105.69694027025253,194.09480727446498 102.25,205.35578137650737 103.21680459659547,210.79248790370184 104.79752505361103,212.21579489248688 111.40814355155453,209.2409498919733 115.72695225360803,204.3566935796698 121.4116560453549,200.51710537669715 126.30033884290606,200.09881523193326 131.15843171416782,202.06396235141438 132.92354965233244,201.77214908367023 142.12428531679325,186.07286925206427 141.20937602664344,185.4211332349223 129.44725906965323,185.24589583685156 106.36126651149243,186.4309235541732 105.29027031199075,195.49649956991198 102.6364958579652,202.23169124909327 102.48178472206928,208.71819591562962" stroke="#4dd2ff" stroke-linecap="round" stroke-linejoin="round" stroke-width="0.5"><title>2020-09-05 6.1km</title></polyline><polyline fill="none" points="163.25174414273351,201.6857343003794 167.59730063588358,199.82040492998203 171.98248349968344,200.08683698475943 175.50672661466524,201.83465320520918 177.88611713261344,202.0065758243145 187.609126964584,186.9288663555344 187.29013910121284,185.69372729436145 182.44562288490124,185.12325236573815 151.19412229792215,186.30723258876242 150.12290116306394,195.8449585546332 147.72611823445186,201.62036937242374 147.33219825848937,205.23226074967533 148.12617518333718,209.83171666160342 149.81091763195582,212.09289021155564 155.16842026542872,210.19105152165866 164.83392520970665,201.05127222486772 168.86073607834987,199.89473234239267 177.49912614934146,201.9896435867704 187.53540172660723,186.7978836343391 186.70774144120514,185.4142050355149 181.8409367443528,185.06149312161142 151.45774413947947,186.32493836333742 150.3679272942245,195.21261693071574 147.3619808566291,203.0977750972961 148.17721600597724,210.03363303557853 150.06626222538762,212.2536699710763 157.16209237347357,208.5820304787485 162.68340130220167,202.38216665538494 165.91183086065575,200.50060430448502 170.71113939560018,199.86316566349706 177.46117389318533,202.06944155172096 187.75,186.51978433440672 187.08600375405513,185.5149993490777 185.2401762851514,185.28507909737527 151.1947104698047,186.38527360875742 150.05657595489174,195.71320541371824 147.31807070132345,204.71186318117543 147.87351563898847,209.16202750775847 149.56237077270634,212.43850687838858 155.50458758324385,210.06689136911882 161.72430709237233,203.3936054656515 165.97736927703954,200.38307129428722 170.3175822100602,199.93103172964766 177.44197325687855,202.22948756473488 187.50276995496824,186.26793391819228 186.74521805089898,185.29914903250756 184.40152598824352,185.12595771512133 158.2412376422435,185.670389906154 150.8765937909484,186.5229282354412 150.49524233746342,193.7435845134023 147.3343859014567,204.4231971335539 148.0857945117168,209.88276714857784 149.69474674086086,212.18605796722113 156.36401277291588,209.47986241275794 165.181704394985,201.01081935910042 168.8163985668216,200.07367876646458 172.34937571175396,200.43555167369777 177.39841202110983,202.46054729091702 187.66484490898438,186.65727705138852 187.17347872420214,185.6108280471817 185.49782717064954,185.23175039759371 162.71825916948728,185.4415747038147 151.3575581603218,186.36421090285876 150.45978780882433,195.05622232731548 148.0584158236161,200.74610125197796 147.25,205.92119255661964 148.33886056393385,210.68725703650853 149.95746980630793,212.24461014490225 155.99104625475593,209.46857802022714 163.5871104793623,201.51411932110204 166.96227646502666,200.04633182525868 172.36402119603008,200.25424503639806 177.7256247245241,202.2946933643252 186.88432473898865,187.97639288732898 187.23390175960958,185.65717532410054 151.41815908253193,186.28053273557452 150.30099477106705,195.05943218499306 147.46286688745022,202.72643872408662 147.81247653975151,209.2644444052421 149.53700683172792,212.1688267061545 154.10044137667865,210.7328739630466 163.23622502549551,202.04957800160628 165.79202122008428,200.63702181633562 170.39502283767797,199.89029627596028 176.9404321159236,202.20883627509465 178.07993166823871,201.93993897578912 187.4614713403862,186.92841877849423 187.25966237508692,185.73422874024254 151.4312556264922,186.3619999542425 150.6602063535247,194.5792158707918 147.31082717352547,203.1611674047308 147.59360344870947,208.63760701366118 149.15139743941836,211.8602266863454 150.8706245268695,212.19895500587882 155.68826876021922,209.7597218155861 163.72931484901346,202.27212337165838" stroke="#ff0000" stroke-linecap="round" stroke-linejoin="round" stroke-width="0.5"><title>2020-09-06 15.2km</title></polyline><polyline fill="none" points="26.277229773579165,252.00344590231543 30.288391234586015,249.26431972993305 34.40551988151856,248.59678192128194 42.64442034182139,250.95176865236135 51.649813941214234,237.10870445455657 52.40858660871163,234.29353223979706 42.40971890138462,233.92438570634113 16.235308318864554,235.02348110021558 15.365073998691514,243.48665219155373 12.25,252.93501417315565 12.824576998827979,258.0160424558562 14.618567537982017,261.11537862365367 18.17857824265957,260.1040312529367 22.40540502918884,257.2159172723186 27.246674105525017,251.61613958128146 30.24866763711907,249.51173869220656 36.19478548318148,248.77570092087262 42.816053135320544,250.80869934527436 52.75,235.32097776420414 52.15201185573824,234.06062223837944 50.82070294232108,233.88462137634633 15.940791841363534,235.18208826496266 15.509826557710767,243.0763676178758 12.32390699768439,253.18977242390974 12.54973374819383,256.9367985583085 14.048358841100708,260.9709063367045 20.96082352567464,258.4148407378234 27.323030202416703,251.38496903239866 32.00558086577803,248.90144459463772 37.42207514401525,248.94585086696316 42.634499406442046,250.9750493852771 52.59758056793362,234.88745487682172 51.92797363153659,233.92589229912846 16.105745525565,235.28478796267882 14.946465908084065,245.05849720948027 12.532836310565472,251.16475879089558 12.378292178735137,256.5154534323665" stroke="#4dd2ff" stroke-linecap="round" stroke-linejoin="round" stroke-width="0.5"><title>2020-09-08 6.1km</title></polyline><polyline fill="none" points="71.41543415980414,252.1892428509018 74.20751191163436,249.99155897152377 79.35487979184836,248.59072855504928 87.8725389065221,250.7946358821937 97.75,235.14379265569733 96.88410606211983,234.21987137862016 90.21429635188542,234.05203432787675 61.46927536674775,235.05458253619145 60.67662088945508,236.7956207555253 60.552873086417094,243.21306885729427 58.18782334169373,248.96851496578893 57.316353066125885,253.9202772155113 57.894259547581896,258.2686577948043 59.439063812140375,260.91081778728403 66.69311402738094,257.78293076585396 71.80277069960721,251.81226258320385 76.9245744033251,248.90215241751866 80.59557170979679,248.81176982735633 87.56599050643854,250.78923939479864 97.70759240491316,235.51793848592206 96.7115305843763,234.12150314758765 94.87266170815565,234.03969386118115 61.156363683985546,235.07245244208025 60.17947409232147,244.38804206467466 57.25,252.8100417330279 57.83969120285474,257.9133504930651 59.834116644691676,260.98042804037686 65.98457764391787,258.2530772695609 71.76957475976087,252.0777798797062 76.73254186892882,249.16358694207156 80.58913047076203,248.70969956560293 87.50514713395387,250.83946355301305 97.35828500823118,234.81577484466834 96.40046427305788,234.0393291528162 61.14389288891107,235.1068149471539 60.7445401721634,242.0735770376632 58.208158863009885,249.08810947663733 57.40267905080691,255.0252519910573 58.36543096904643,259.17080222518416 60.12087834207341,260.90304855038994 65.39098423859105,258.6324361816514 71.56679001776502,252.2070427662402 77.6434058859013,248.9010476708936 88.02170716179535,250.75609167088987 97.5376338926144,235.22928699688055 96.80758282844909,234.1877936127712 93.12420321675017,233.95909421209944 60.9818199579604,235.38704123461503 60.21601029438898,244.25711097801104 57.38058371609077,253.33599232707638 58.086288045858964,258.4377041796397 59.894502779468894,261.04090578787145 65.97014639456756,258.20223412127234 72.0173004635144,251.62490237221937 76.74576493678614,248.59905998647446 82.92395870108157,249.0224355418759 87.4581909540575,250.79341510191443 97.65602811286226,235.1792909121432 96.3163539452944,233.9713039166818 61.08253561262973,235.43066807833384 60.25229386659339,244.32351887621917 57.46158703858964,253.0638235663937 58.08752145594917,258.40912524363375" stroke="#ff7600" stroke-linecap="round" stroke-linejoin="round" stroke-width="0.5"><title>2020-09-09 10.5km</title></polyline></svg>