<?xml version="1.0" encoding="utf-8" ?>
<svg baseProfile="full" height="300mm" version="1.1" viewBox="0,0,200,300" width="200mm" xmlns="http://www.w3.org/2000/svg" xmlns:ev="http://www.w3.org/2001/xml-events" xmlns:xlink="http://www.w3.org/1999/xlink"><defs /><rect fill="#222222" height="300" width="200" x="0" y="0" /><text fill="#FFFFFF" style="font-size:12px; font-family:Arial; font-weight:bold;" x="10" y="20">Over 10km Runs</text><text fill="#FFFFFF" style="font-size:4px; font-family:Arial" x="10" y="280">ATHLETE</text><text fill="#FFFFFF" style="font-size:9px; font-family:Arial" x="10" y="290">DuanFei</text><text fill="#FFFFFF" style="font-size:4px; font-family:Arial" x="120" y="280">STATISTICS</text><text fill="#FFFFFF" style="font-size:3px; font-family:Arial" x="120" y="285">Number: 24</text><text fill="#FFFFFF" style="font-size:3px; font-family:Arial" x="120" y="290">Weekly: 2.0</text><text fill="#FFFFFF" style="font-size:3px; font-family:Arial" x="141" y="285">Total: 186.9 km</text><text fill="#FFFFFF" style="font-size:3px; font-family:Arial" x="141" y="290">Avg: 7.8 km</text><text fill="#FFFFFF" style="font-size:3px; font-family:Arial" x="167" y="285">Min: 5.2 km</text><text fill="#FFFFFF" style="font-size:3px; font-family:Arial" x="167" y="290">Max: 23.6 km</text><polyline fill="none" points="24.78783024311997,33.807015065685846 25.266498894430697,32.973008969507646 32.60608487855643,32.834007810393814 36.488619493553415,33.807015065685846 39.4670022118371,32.903508395073004 44.838728185975924,34.78002032090444 42.232643307419494,65.42866221364238 38.82877734396607,68.0 14.842159380437806,59.521481970878085 18.299210749799386,32.69500661091297 37.23321517324075,33.32051168792532 39.52018761751242,34.98852118675131 44.94509899709374,34.84952061975491 42.232643307419494,65.22017475377652 40.849822759628296,67.09655858532642 38.45647950377315,67.93050456792116 15.108086408814415,59.17399848467903 18.565137778408825,32.3475034328585 31.489191359374672,32.973008969507646 45.157840619795024,35.05802145504276 42.44538493035361,64.38622399736778 41.27530600503087,66.95756744561368 38.72240653214976,67.93050456792116 15.26764262584038,59.17399848467903 18.565137778408825,32.486504734813934 22.926341044250876,32.0 24.78783024311997,32.834007810393814" stroke="#4dd2ff" stroke-linecap="round" stroke-linejoin="round" stroke-width="0.5"><title>2020-06-12 5.5km</title></polyline><polyline fill="none" points="71.9231272332836,33.12066353339469 86.93093560962006,33.12066353339469 91.64767538523301,34.94173616042826 90.09329523169436,57.494444118929096 88.16371986921877,66.87941839397536 86.18054519081488,68.0 83.92937393463217,67.78989114941214 67.42078472068533,62.25699144884129 61.68565794848837,59.31542371161049 62.27525042020716,51.9614250214363 65.11601414857432,32.49029061978217 87.19893218763173,33.33078765295795 91.70127470069565,34.73161275059101 89.23570618173108,65.05846767072217 86.71653834707104,67.78989114941214 83.55417872499675,67.6498185309465 70.74394228961319,63.30754695966607 61.632058632792905,59.38546124941786 64.15122646722011,35.99235182185657 64.90161688625813,32.630373561463784 66.18800046131946,32.0 78.24784647766501,32.42024913363275 82.16059651854448,33.47087034769356 87.52052808157168,33.12066353339469 91.86207264754921,35.01177727672621 89.28930549742654,64.35810015760944 88.27091850014403,66.59927258119569 86.18054519081488,67.92996372687048 76.53266837773845,65.68879755365197 61.47126068593934,59.17534860508749 63.66883262642659,42.01583695420413" stroke="#4dd2ff" stroke-linecap="round" stroke-linejoin="round" stroke-width="0.5"><title>2020-06-16 5.2km</title></polyline><polyline fill="none" points="118.3743286554236,33.782922447513556 123.56947641307488,32.822888129157946 131.1785312097054,33.44005327485502 137.89548992644995,35.7029851647967 135.2192016877234,65.87436279165559 133.12015208881348,67.65715594333597 131.0735787297599,67.93143120891182 108.71870049950667,59.42882308870321 111.7623224183917,33.028609935048735 116.8525176960975,32.0 136.2687264874112,34.811528456397355 137.84301368659362,35.497264536854345 138.00044240662828,38.58306444072514 136.42615520721301,56.0688788286061 135.2192016877234,65.12010210208246 133.015199608868,67.79429359617643 130.07653017016128,67.58858710178174 108.77117673959583,59.42882308870321 111.34251249860972,34.605807435757015 112.07717985822819,32.96003600995755 117.5347088156268,32.411444245808525 132.01815104926936,33.71434863319155 137.7905374467373,35.42869097401854 135.42910664784722,64.2287015353213 134.5370105681941,66.62862226300058 132.01815104926936,68.0 108.66622425988317,59.15454283048166 111.49994121841155,36.38871993633802" stroke="#4dd2ff" stroke-linecap="round" stroke-linejoin="round" stroke-width="0.5"><title>2020-07-10 5.3km</title></polyline><polyline fill="none" points="166.06427651271224,32.62550599564565 170.15955635742284,32.0695007070899 182.9772504172288,33.73751461363281 184.8919267083984,34.71052001154749 182.28583953436464,65.15067891322542 181.1157595787663,67.09655858526821 178.24374514212832,68.0 164.89419655688107,63.55227177115739 155.21444419608451,58.89601151170791 158.1928295379039,32.97300896933302 160.47980399685912,32.0 175.21217434760183,33.45951270413934 178.88197057228535,32.97300896933302 185.1046685182955,34.84952061960939 182.55176679696888,63.96924806779134 180.90301776863635,67.09655858526821 178.2969305946026,67.93050456765923 167.18117101537064,63.760759965283796 164.89419655688107,64.17773607806885 154.94851693348028,58.9655082700192 158.24601499037817,32.76450721579022 159.30972404102795,32.0 164.78782565169968,32.0695007070899 167.39391282573342,33.042509533581324 180.15842143329792,33.3900122011255 185.1046685182955,34.919020908215316 182.12628317670897,65.70664535003016 178.7755996673368,68.0 169.46814547432587,64.87269545020536 167.39391282573342,63.343783485062886 165.1601238194853,63.55227177115739 154.84214602876455,58.61802437581355 158.1396440854296,33.87651550717419 158.88424042076804,32.20850209053606 169.57451637950726,32.278002766834106 185.15785397100262,34.71052001154749 182.07309772423469,64.73370365743176 180.84983231592923,66.74908065906493 178.24374514212832,67.65252273686929 165.2133092719596,63.621767846052535 155.05488783842884,58.82651474294835 158.1928295379039,32.486504734668415 159.68202220881358,32.278002766834106" stroke="#4dd2ff" stroke-linecap="round" stroke-linejoin="round" stroke-width="0.5"><title>2020-07-18 7.2km</title></polyline><polyline fill="none" points="25.89845028426498,73.55061995959841 38.435262623475865,73.48320180925657 44.16195467929356,75.43832414754434 41.84032276459038,104.56191964438767 40.60211907699704,106.71914954236127 38.17730352142826,107.66293443649192 15.528494398808107,99.43845802312717 18.830370899755508,73.07869270010269 27.188245792407542,72.60676495553344 42.09828186617233,74.62930901712389 44.265138319926336,75.57315986393951 44.47150560119189,76.51700877066469 43.130118272965774,97.07894989527995 41.737139123957604,104.83157393577858 40.447343616047874,106.8539760747226 38.951180826406926,107.66293443649192 35.80407978664152,107.25845543370815 15.683269859757274,99.5058723630791 16.04441260220483,93.43854214568273 18.985146360704675,72.9438562511641 29.148734964895993,72.60676495553344 44.265138319926336,75.64057770741056 43.18171009304933,96.80929105175892 41.685547303874046,104.76416037767194 39.57028267043643,107.39328180751181 36.01044706790708,107.46069497955614 15.580086219357327,99.30362931388663 18.520819977857172,74.83156293336651 19.3462891029194,72.87643801196828 29.509877706877887,72.47192836814793 44.11036285897717,75.37090627444559 42.09828186617233,104.96640102210222 40.08620087360032,107.46069497955614 38.1257117013447,108.0 15.528494398808107,99.0339717764873 18.67559543880634,73.82029246166348 19.3462891029194,72.87643801196828 23.886369291692972,72.13483672597795 29.664653168059886,72.0 35.39134522387758,73.88771056223777 39.98301723296754,73.82029246166348 44.47150560119189,75.64057770741056 43.38807737454772,95.05650470836554 41.737139123957604,104.6293332320929 39.776649951701984,107.32586862560129 37.24865075573325,107.66293443649192 15.631678039673716,99.10138617575285 18.67559543880634,73.68545623042155 19.501064563868567,72.80901976264431 24.04114475264214,72.20225507425494 40.75689453794621,74.29221895887167 44.316730140242726,75.64057770741056 41.633955483557656,104.83157393577858 40.60211907699704,106.71914954236127 37.91934442007914,107.66293443649192 15.528494398808107,99.43845802312717 19.24310546228662,73.07869270010269" stroke="#ffb100" stroke-linecap="round" stroke-linejoin="round" stroke-width="0.5"><title>2020-07-31 10.8km</title></polyline><polyline fill="none" points="73.59967585862614,72.552803925646 86.87234297650866,73.52020923304372 91.31419173325412,75.31681381407543 90.09797124029137,95.90817658396554 88.24720092490315,105.78894692531321 86.29067230597138,107.7927142153494 84.17550623137504,107.93090474850032 64.39870343403891,100.74494322619285 61.96626244857907,99.08662883369834 65.13901156024076,72.82920564504457 74.92165465513244,72.2073015482747 83.64671471272595,73.86571064661257 87.242497039726,73.31290826323675 91.47282918868586,75.73141389738885 89.25190481031314,101.43590583201149 87.08385958406143,107.37814237247221 84.81005605380051,108.0 77.51273309648968,105.99623359224643 61.91338329645805,99.70849741567508 62.60081227053888,89.13661978379241 65.08613240835257,72.48370347035234 76.13787514809519,72.0 91.20843342947774,74.97131346585229 89.19902565865777,101.64319441607222 88.19432177301496,105.99623359224643 85.7090016354341,108.0 62.17777905566618,99.15572538328706 64.92749495292082,73.03650682789157 71.0085974172689,72.0 87.40113449515775,73.93481089896522 91.36707088490948,75.38591385356267 88.88175074732862,103.78517110491521 87.7184094064869,106.68718848962453 85.55036417976953,108.0 76.66666666674428,105.58166016690666 61.86050414456986,99.36301497148816 63.76415361184627,82.50316355959512" stroke="#4dd2ff" stroke-linecap="round" stroke-linejoin="round" stroke-width="0.5"><title>2020-08-07 7.0km</title></polyline><polyline fill="none" points="119.31123895919882,73.30539190029958 133.82232454512268,73.71762016479624 137.8707071179524,75.43523402512074 136.92433197097853,97.07662853848888 135.13673447119072,105.73290613488643 133.71717175119556,107.38170276224264 131.1409282956738,107.79390101143508 109.0062651373446,98.86285766115179 111.95054337219335,73.16798239786294 117.78652344481088,72.41222941453452 129.1430252075661,73.92373416101327 133.82232454512268,73.37409663622384 137.8707071179524,75.22912069479935 138.02843630919233,79.90100055816583 135.9253804271575,101.67958973301575 135.29446366243064,105.32070607031346 133.76974814780988,107.31300301864394 131.77184506016783,108.0 125.98844138439745,106.1451058362145 108.63823035778478,99.00025961874053 111.89796697511338,72.96186806913465 123.93796189967543,72.0 129.72136557521299,73.71762016479624 136.29341520625167,73.99243880607537 138.02843630919233,75.91616477628122 136.7666027797386,96.11481003343943 134.87385248602368,106.1451058362145 131.45638667792082,108.0 115.21027998905629,102.16049351438414 108.95368874026462,98.79415666707791 111.79281418095343,73.37409663622384 117.47106506233104,72.0687049276894 124.67403145832941,72.48093428162974 127.35542770777829,73.92373416101327" stroke="#4dd2ff" stroke-linecap="round" stroke-linejoin="round" stroke-width="0.5"><title>2020-08-09 5.6km</title></polyline><polyline fill="none" points="165.16575051192194,74.1736643628683 179.72048015380278,74.37744487333111 184.55472964188084,75.46427274664165 183.15123785519972,96.04559365121531 181.53982135886326,105.75857233541319 179.61651779920794,107.59246850485215 176.86151540256105,107.59246850485215 161.78697398793884,101.81906709750183 156.0690444856882,99.23799375505769 155.39328918093815,98.01537504137377 158.66810335032642,73.35854142365861 178.26500718970783,74.37744487333111 184.50274846469983,75.80390593328048 182.47548255021684,102.1586809392029 181.27991547249258,106.16610544576542 178.36896954406984,107.79623429724597 155.86111977673136,99.10214739092044 158.56414099573158,72.88305237918394 170.10396235482767,73.49439534640987 184.50274846469983,75.87183254095726 182.371520195622,101.9549126639904 180.55217899032868,107.04909261979628 178.83680013986304,107.86415620797197 176.08179774321616,107.59246850485215 155.96508213109337,99.23799375505769 155.75715742213652,97.94745168479858 158.8760280595161,73.01890644154628 171.2475482551381,72.0 176.34170362958685,74.10573750626645 182.57944490481168,74.51329849727335 184.60671081929468,76.2114654283796 182.99529432295822,98.21914505129098 181.74774606805295,105.62272788537666 178.57689425349236,108.0 155.91310095391236,99.37384007961373 158.40819746395573,75.19256601747475" stroke="#4dd2ff" stroke-linecap="round" stroke-linejoin="round" stroke-width="0.5"><title>2020-08-14 7.1km</title></polyline><polyline fill="none" points="24.847712335176766,113.3256297558255 30.827569521265104,112.6279303454503 44.92294717440382,114.44194668205455 42.89406705764122,140.88393717838335 41.93301858147606,145.41869540896732 39.1566563162487,148.0 14.916878079529852,139.20955397057696 17.960198254557326,113.74424891039962 18.494114074856043,112.27908025615034 24.153621768811718,112.0 40.97197010507807,113.60470923333196 45.08312192070298,114.79079518359504 42.253368073375896,144.37221658075578 41.1321448511444,146.74423195037525 39.26343948044814,147.86047038075048 24.42057967884466,143.25596995771048 14.916878079529852,139.00025565488613 17.960198254557326,114.09309792437125 18.3873309106566,112.34885029445286 20.202644699253142,112.06977007945534 38.88969840598293,113.18608995564864 44.92294717440382,115.0001041618234 42.146584909409285,144.58151253091637 40.97197010507807,146.883761897363 38.729523660149425,147.93023519570124 27.83764092810452,143.88385900578578 24.58075442467816,143.5350318591518 15.183835989562795,139.00025565488613 17.853415090357885,114.37217695088475" stroke="#4dd2ff" stroke-linecap="round" stroke-linejoin="round" stroke-width="0.5"><title>2020-08-20 5.3km</title></polyline><polyline fill="none" points="72.35192049155012,112.84049789677374 84.94776336289942,113.26074628991773 91.59408045210876,115.08181838219753 90.25409716786817,136.16372386718285 88.5389185640961,145.96894390086527 86.93093862337992,147.719854844996 84.73336603725329,148.0 61.90005087549798,138.75512303831056 64.95521276327781,112.35020763697685 70.52954322518781,112.0 91.27248446387239,114.5915304258524 90.46849449328147,135.39330518289353 88.5389185640961,146.24909008370014 86.66294196643867,147.719854844996 84.30457138642669,147.85992744294344 61.792852212442085,138.96523586774128 65.00881209480576,112.07004154808237 91.32608379540034,114.5915304258524 90.03969984245487,135.95360980392434 88.11012391326949,147.15956404202734 85.05496202548966,147.92996372660855 70.58314255671576,143.1674730248924 61.95365020656027,138.895198268292 61.84645154397003,135.88357176221325 65.16961008869112,112.07004154808237 91.32608379540034,114.7316127504746 88.64611722691916,146.4591996128729 85.1621606880799,148.0 61.7392528813798,139.10531103616813 65.116010757396,112.42024913339992 71.76232784660533,112.0 91.16528580128215,114.45144806010649 91.4332824582234,121.17535522190155 89.23570987186395,144.21802653124905 87.734928593738,147.15956404202734 84.73336603725329,147.78989114923752" stroke="#4dd2ff" stroke-linecap="round" stroke-linejoin="round" stroke-width="0.5"><title>2020-08-21 8.1km</title></polyline><polyline fill="none" points="117.6738554672338,134.34306584106525 122.69996216404252,131.35901370766805 129.1153991674073,131.73202155934996 132.0166477484163,133.0109027264116 140.6795308359433,120.32846624814556 141.00643208436668,118.72980850670137 140.14831630699337,118.09034344812972 128.50245932652615,118.09034344812972 109.05183503590524,119.10282927309163 108.23458191426471,126.03028846674715 105.33333333325572,134.23649297104566 105.78282255027443,139.13881277194014 107.3764661368914,141.80308937950758 109.50132425269112,141.43009182583774 113.83276579622179,139.085527041374 117.38781687477604,134.822643371328 122.08702232316136,131.7853083642549 127.44003026839346,131.2524399656977 131.15853197104298,133.1707625571289 132.09837306081317,132.95761610072805 141.16988270892762,119.52913825312862 140.76125614810735,118.41007611757959 139.16761256125756,118.0370546427439 109.1744230040349,119.15611792274285 108.56148316315375,120.06202377780573 108.27544457046315,125.87042550672777 105.86454786220565,132.85104282578686 105.33333333325572,137.0073774754419 107.33560348069295,141.9629453572561 112.60688611422665,140.04466900174157 119.75785092683509,132.90432946712826 122.3730609153863,131.62544792634435 127.88951948541217,131.30572684051003 132.05751040461473,133.0641893443826 141.33333333325572,118.83638590731425 140.59780552401207,118.09034344812972 135.12220960995182,118.0370546427439 108.72493378748186,119.04954061558237 108.56148316315375,124.9112462758203 106.06886114249937,132.1583157799323 105.33333333325572,136.95409143334837 106.7226636398118,141.11037933340413 107.94854332203977,141.90966003914946" stroke="#4dd2ff" stroke-linecap="round" stroke-linejoin="round" stroke-width="0.5"><title>2020-09-02 6.1km</title></polyline><polyline fill="none" points="164.5429864253383,134.4079971142346 169.26696832594462,131.38096626740298 174.19457013579085,131.1685421037837 177.57466063369066,132.97414353923523 179.16289592767134,132.76172030638554 187.5927601812873,118.79462036004406 185.71945701353252,117.94489354078542 181.443438913906,117.89178554867976 155.62443438917398,118.90083607262932 154.68778280564584,127.07935275844648 152.0,136.4260036762571 152.89592760195956,140.24956433768966 154.1990950226318,141.9489117236517 160.30769230774604,139.6123070201429 165.19457013579085,133.71762387658237 167.59728506789543,132.23066168121295 173.70588235300966,131.27475420100382 178.8371040725615,132.97414353923523 187.91855203639716,119.1663752188615 187.10407239827327,118.31664926855592 182.95022624451667,117.73246152570937 170.08144796383567,118.95394391746959 160.47058823541738,118.58218884142116 155.1357466063928,119.32569861333468 155.09502262459137,125.64547027752269 152.0,135.2045799899497 152.93665158376098,140.5681925776007 154.36199095030315,142.2144340351515 159.41176470578648,140.1433548622881 165.43891402706504,133.39898963240557 168.8597285069991,131.4340722890338 173.1357466063928,131.22164815629367 178.79638009052724,133.08035510897753 187.91855203639716,118.90083607262932 186.5339366516564,118.15732543176273 181.03619909496047,117.99800152523676 155.42081447970122,119.1663752188615 154.76923076924868,126.49517909708084 152.04072398180142,135.7887396562146 152.7330316742882,139.71851665046415 154.44343891413882,142.1082251337357 159.5339366516564,139.98404059110908 165.43891402706504,133.66451818856876 169.8371040725615,131.38096626740298 174.19457013579085,131.4340722890338 178.91855203616433,133.13346088220715 188.0,119.11326740519144 187.10407239827327,118.26354133072891 182.25791855202988,118.05110950188828 155.62443438917398,119.1663752188615 154.93212669692002,126.01721813049517 152.24434389150701,134.24868032967788 152.40723981917836,138.55020900836098 154.1990950226318,142.26753847426153 159.28959276038222,140.24956433768966 164.46153846150264,134.30178593221353 169.14479638030753,131.69960228036507 173.33936651586555,131.11543604335748 177.94117647083476,133.02724932794808 178.95927601819858,132.86793193829362 187.6334841628559,119.64434519296628 187.34841628954746,118.52908094236045 185.84162895940244,118.15732543176273 155.58371040713973,119.21948302470264 155.1357466063928,126.0703249356302 152.16289592790417,134.832841531781 152.85520362015814,140.03714535574545 154.36199095030315,142.1082251337357 160.59276018105447,139.34678280778462" stroke="#ffb500" stroke-linecap="round" stroke-linejoin="round" stroke-width="0.5"><title>2020-09-04 10.6km</title></polyline><polyline fill="none" points="24.19026047573425,174.678809915873 28.226500566350296,171.91418411489576 32.14043035102077,171.27619056304684 39.35673839179799,173.0838360550406 42.944507361156866,166.33170261609484 48.0,159.20726852107327 46.77689694217406,158.14390818722313 43.71913929772563,158.03757198288804 15.628539071418345,159.04776466925978 14.81313703279011,166.54437014690484 12.040770102059469,175.63579087727703 12.326160815544426,179.03836947242962 14.038505096454173,182.06876425250084 19.175537938950583,179.9421740648686 25.739524348871782,173.40283138657105 28.59343148372136,171.91418411489576 32.30351075879298,171.2230243833037 39.15288788243197,172.87117234565085 47.633069082628936,159.3136043836421 46.736126840347424,158.14390818722313 37.88901472254656,157.93123574752826 29.164212910691276,158.78192476043478 15.75084937713109,158.8350927576248 15.098527746507898,159.73894752308843 15.05775764444843,165.85320021756343 12.0,175.84845297134598 12.856172140454873,180.68648204379133 14.242355606053025,181.96243503838195 20.113250283058733,179.30419458530378 23.986409965902567,174.99780384925543 29.0419026047457,171.5951874788152 33.363533408846706,171.2230243833037 37.68516421271488,172.9243382847344 39.27519818791188,172.71167448197957 47.429218573262915,158.72875675544492 46.61381653463468,158.14390818722313 36.176670441636816,157.98440386910806 15.628539071418345,159.04776466925978 14.690826727077365,167.12920521569322 12.326160815544426,173.0838360550406 12.203850509598851,178.87887431139825" stroke="#4dd2ff" stroke-linecap="round" stroke-linejoin="round" stroke-width="0.5"><title>2020-09-05 6.0km</title></polyline><polyline fill="none" points="72.88687098002993,172.584616177337 76.76882330677472,170.93272546937806 80.65077563375235,171.1991599604371 83.79720015148632,172.74447617144324 85.92205826728605,172.90433609546744 94.54407869861461,159.47585824786802 94.25804010592401,158.41008486325154 89.96746121835895,157.87719700316666 62.18085508910008,158.94297194489627 61.24101399932988,167.41577194814454 59.116155883762985,172.53132949690917 58.74839197914116,175.7285165351932 59.48391978838481,179.83153217830113 60.95497540687211,181.85638003388885 65.73590616742149,180.1512457448116 74.31706394255161,172.05174902442377 77.87211502087303,170.98601238327683 85.55429436266422,172.85104946186766 94.50321604241617,159.3692810497305 93.76768823293969,158.1436410304741 89.43624668940902,157.82390817429405 62.42603102559224,158.94297194489627 61.44532727985643,166.82960973112495 58.78925463510677,173.86349416847224 59.52478244435042,179.99138899648096 61.20015134336427,182.01623596483842 67.49300037859939,178.71253248880384 72.39651910727844,173.22405573326978 75.25690503208898,171.57216792108375 79.54748391965404,170.98601238327683 85.51343170646578,172.95762272115098 94.66666666674428,159.10283791748225 94.0945894815959,158.2502185870253 92.4600832387805,158.0370634428691 62.18085508910008,158.99626061032177 61.15928868716583,167.3091970696114 58.74839197914116,175.30222654924728 59.23874385189265,179.24538991201553 60.75066212657839,182.17609182573506 66.02194475987926,180.04467458702857 71.53840332967229,174.12992651894456 75.33863034448586,171.46559425696614 79.17972001526505,171.03929928917205 85.51343170646578,173.0641959492641 94.46235338645056,158.88968327172915 93.76768823293969,158.0370634428691 91.68369277333841,157.87719700316666 68.43284146813676,158.356796112319 61.894816496642306,159.10283791748225 61.56791524798609,165.55070707923733 58.74839197914116,175.03579505489324 59.44305713218637,179.88481779230642 60.873250094940886,181.9096653519955 66.79833522532135,179.51181833154988 74.60310253524221,171.9984622662596 77.83125236490741,171.14587307788315 80.97767688240856,171.46559425696614 85.47256905050017,173.27734231227078 94.5849413543474,159.2627038200735 94.17631479375996,158.30350735364482 92.66439651930705,157.9837746374833 72.43738176324405,158.1436410304741 62.344305713428184,158.99626061032177 61.52705259202048,166.72303468143218 59.402194475987926,171.78531515586656 58.66666666674428,176.36795058028656 59.64737041271292,180.57753006435814 61.077563375234604,181.96295066238963 66.47143397666514,179.51181833154988 73.21377222868614,172.42475611314876 76.19674612209201,171.14587307788315 81.018539538607,171.30573370240745 85.75860764295794,173.1174825518683 93.89027620130219,160.4350516317645 94.2171774499584,158.356796112319 62.385168369626626,158.88968327172915 61.40446462365799,166.72303468143218 58.870979947270826,173.54377509100595 59.19788119569421,179.35196130318218 60.70979947037995,181.9096653519955 64.75520242145285,180.63081556913676 72.88687098002993,172.90433609546744 75.17517972015776,171.67874155408936 79.2614453274291,170.98601238327683 85.0639424896799,173.0641959492641 86.08550889161415,172.85104946186766 94.42149073025212,159.47585824786802 94.25804010592401,158.41008486325154 62.385168369626626,158.99626061032177 61.7313658723142,166.2967341710755 58.74839197914116,173.91678065407905 58.99356791540049,178.76581826616894 60.382898221956566,181.64323868363863 61.894816496642306,181.96295066238963 66.18539538420737,179.77824655664153 73.33636019704863,173.1174825518683" stroke="#ff7800" stroke-linecap="round" stroke-linejoin="round" stroke-width="0.5"><title>2020-09-06 14.9km</title></polyline><polyline fill="none" points="117.81223869253881,173.9881710636837 121.38350437092595,171.5793350263266 125.03686811076477,170.9905060311139 132.34359559090808,173.07816819945583 140.34815659443848,160.7661426202103 141.04599011782557,158.25015605252702 132.13835043716244,157.92896503437078 108.86354998103343,158.8925372439844 108.08361839596182,166.44043188926298 105.33333333325572,174.84464228339493 105.82592170266435,179.34108334453776 107.42683390318416,182.1245668293268 110.58760927384719,181.2145841702586 114.36412010644563,178.6452091699175 118.67426833882928,173.66699384033564 121.34245534008369,171.79345442639897 126.63778031151742,171.15109585088794 132.50779171427712,172.9711088904878 141.33333333325572,159.160195741395 140.79969593300484,158.03602873836644 139.60927404020913,157.8754331706732 108.6172557962127,159.05313236583606 108.20676548802294,166.06571738314233 105.37438236409798,175.05875977536198 105.57962751784362,178.37756490477477 106.93424553377554,181.96398181846598 113.0916001519654,179.71578427604982 118.71531736967154,173.45287553494563 122.90231850999407,171.25815569152473 127.70505511201918,171.3116856002598 132.34359559090808,173.07816819945583 141.21018624096178,158.78547379025258 140.59445077902637,157.92896503437078 108.74040288850665,159.160195741395 107.71417711884715,167.83222527158796 105.57962751784362,173.29228672376485 105.45648042554967,178.00286260509165" stroke="#4dd2ff" stroke-linecap="round" stroke-linejoin="round" stroke-width="0.5"><title>2020-09-08 6.0km</title></polyline><polyline fill="none" points="164.58371040737256,174.16901301188045 167.0678733033128,172.20410026074387 171.6696832580492,170.98266265756683 179.20361990947276,172.94758201015065 188.0,159.033600087394 187.22624434391037,158.2369819507585 181.28054298646748,158.0776581139653 155.74660633481108,158.9273844366253 155.05429864255711,160.52061593800317 154.93212669692002,166.20308476052014 152.8552036199253,171.30129894960555 152.0814479640685,175.70907233841717 152.57013574661687,179.5857445212023 153.95475113135763,181.9223488837306 160.3891402715817,179.16090575113776 164.95022624451667,173.850379233103 169.5113122172188,171.24819292023312 172.76923076901585,171.1950868832064 178.95927601796575,172.94758201015065 187.95927601796575,159.3522468531737 187.06334841647185,158.13076606742106 185.43438914022408,158.0776581139653 155.50226244330406,158.9804922658659 154.60633484181017,167.26521861267975 152.0,174.75317421398358 152.52941176481545,179.2671154899872 154.32126696850173,181.9754533537198 159.77828054316342,179.5857445212023 164.90950226248242,174.06280178314773 169.30769230774604,171.51372298927163 172.72850678744726,171.08887478598626 178.8778280543629,173.0006877911801 187.6334841628559,158.71495304224663 186.77828054316342,158.0776581139653 155.46153846150264,158.9804922658659 155.13574660615996,165.19405472648214 152.8552036199253,171.40751098498004 152.16289592767134,176.71807318754145 153.01809954759665,180.38231587750488 154.56561085977592,181.9223488837306 159.24886877834797,179.90437327331165 164.74660633481108,174.16901301188045 170.1221719456371,171.24819292023312 179.3665158371441,172.8944762214378 187.79638009052724,159.08670790106407 187.14479638030753,158.18387401293148 183.88687782827765,157.97144218409085 155.33936651586555,159.24603129553725 154.6470588236116,167.10589873278514 152.1221719456371,175.17801813516417 152.77375565632246,179.74505893219612 154.36199095030315,182.02855781593826 159.77828054316342,179.53263970234548 165.11312217195518,173.6910622389987 169.34841628954746,170.98266265756683 174.80542986420915,171.35440497123636 178.83710407232866,172.94758201015065 187.91855203616433,159.08670790106407 186.73755656112917,157.97144218409085 155.42081447970122,159.29913907812443 154.687782805413,167.21211199386744 152.2036199097056,174.9655962366669 152.77375565632246,179.69195413641864" stroke="#ffb800" stroke-linecap="round" stroke-linejoin="round" stroke-width="0.5"><title>2020-09-09 10.3km</title></polyline><polyline fill="none" points="25.016949152341112,213.7664588916814 25.50508474581875,212.8116358568077 27.823728813556954,211.75071842904435 31.850847457535565,210.9019822552509 39.0101694916375,213.02381897025043 47.91864406783134,198.8603240585653 45.355932203354314,198.06460570674972 15.335593220312148,199.17861091092345 14.644067796645686,206.9235049963463 12.366101694758981,213.1829562241619 12.0,217.42659060034202 13.667796610156074,221.61713088178658 14.684745762497187,221.98844224525965 20.33898305078037,219.1770753332239 24.203389830421656,215.5169612680911 25.423728813417256,213.3951391208102 27.783050847239792,211.90985624081804 30.386440678033978,211.16721252261777 34.53559322026558,211.27330457538483 38.888135593151674,213.3420934083697 47.75593220326118,199.28470646645292 47.552542372839525,198.27679743783665 46.04745762725361,198.01155775471125 15.864406779641286,198.9664197070815 14.440677965991199,207.98443652744754 12.081355932168663,214.2438694674929 12.691525423666462,219.76056836894713 13.87118644057773,221.72321988156182 16.393220338737592,221.45799732409068 19.64745762711391,219.60143399756635 26.15593220316805,212.97077320356038 28.92203389829956,211.3793965971563 34.49491525418125,211.27330457538483 38.84745762706734,213.3951391208102 48.0,198.8603240585653 46.616949152434245,198.06460570674972 32.29830508469604,198.64813266857527" stroke="#4dd2ff" stroke-linecap="round" stroke-linejoin="round" stroke-width="0.5"><title>2020-09-10 5.3km</title></polyline><polyline fill="none" points="71.21336370543577,214.73219185473863 75.06757782842033,211.95182217107504 77.44570994679816,211.14978852987406 80.35687167802826,211.14978852987406 85.85117691732012,212.91426022091764 92.49354593758471,203.12935545569053 94.66666666674428,198.63783616444562 87.73728170082904,197.99618605195428 62.02885345485993,199.11907301060273 61.41381928650662,207.56735014219885 58.7076689444948,215.5342176463455 59.24069855734706,219.33044921478722 60.83978739543818,222.1107628509344 66.49810174643062,219.5977879819984 72.23842065315694,213.66282139884424 75.39559605158865,211.79141558351694 79.9058466211427,210.98938159062527 85.89217919507064,213.2350723418058 94.62566438876092,199.4933678979287 94.01063022017479,197.94271515848232 86.26119969622232,197.78230243109283 73.3864844343625,198.63783616444562 69.73728170082904,198.10312781549874 61.823842065408826,199.33295585034648 61.90584662090987,205.21468496200396 58.66666666674428,215.48074931497104 59.60971905849874,220.3998031123483 61.00379650713876,222.21769756893627 66.17008352326229,219.81165885538212 72.07441154145636,213.71628999590757 76.62566438876092,211.25672645011218 81.6689445709344,211.25672645011218 86.01518602878787,212.8607915067696 94.5846621110104,198.85171928533236 93.92862566420808,198.0496569375391 84.82611996959895,197.83577334799338 62.19286256656051,199.11907301060273 61.74183750967495,206.39101944249705 58.91268033417873,214.51831801357912 59.28170083533041,219.437384745077 61.126803340855986,222.05729548024829 64.24297646153718,220.93447888985975 67.89217919507064,218.3680280354456" stroke="#4dd2ff" stroke-linecap="round" stroke-linejoin="round" stroke-width="0.5"><title>2020-09-13 6.3km</title></polyline><polyline fill="none" points="117.75558077939786,214.71607415218023 121.39235716988333,212.15831929072738 124.29360575112514,211.25244347643456 127.93038214137778,211.46559092929238 132.54786227783188,213.01090623720665 141.33333333325572,198.88967810667236 140.4752175558824,198.19692454629694 132.91562618222088,198.03705815330613 109.0109723797068,198.9429667875811 108.39803253859282,199.7422960670665 108.39803253859282,204.85796197751188 105.33333333325572,215.19565119207255 106.15058645466343,220.09795810317155 107.82595535344444,222.0162341785326 111.99394627287984,220.41767148292274 117.71471812319942,214.60950139106717 122.41392357158475,211.73202507011592 126.37760121072643,211.09258280519862 131.19939462747425,212.9576196115231 132.38441165350378,212.7977596874989 141.16988270916045,199.1561214333342 140.02572833909653,198.03705815330613 131.19939462747425,198.03705815330613 108.76579644321464,199.2626987095864 108.23458191449754,205.92371667842963 105.6602345816791,213.27733924929635 105.33333333325572,216.63437852880452 106.06886114249937,220.04467251259484 106.80438895174302,221.58995147800306 107.82595535344444,221.85637822418357 112.44343548989855,219.99138691448024 116.61142640910111,216.31466183334123 117.71471812319942,214.39635577533045 123.96670450246893,210.98600898540462 127.35830495646223,211.14586970349774 131.36284525156952,213.01090623720665 132.46613696566783,212.7977596874989 141.129020052962,199.4758531685511 139.9848656828981,197.9304805189895 109.21528566000052,198.88967810667236 108.4797578509897,199.7422960670665 108.11199394613504,206.35001768701477 105.41505864518695,215.1423648854834 106.02799848653376,220.04467251259484 107.37646613665856,222.0695194810105" stroke="#4dd2ff" stroke-linecap="round" stroke-linejoin="round" stroke-width="0.5"><title>2020-09-15 6.1km</title></polyline><polyline fill="none" points="164.33936651586555,214.35489184837206 169.75565610849299,211.06233414437156 175.29411764699034,211.32786409693654 179.04072398203425,212.70861672380124 187.6742081446573,198.10423678395455 155.58371040713973,198.84774666439625 155.1357466063928,205.5392671591253 152.69230769225396,211.64649978405214 152.04072398180142,216.0011595178512 152.5701357468497,218.76262402927387 154.19909502239898,221.57717204312212 159.08597285067663,219.82472017928376 165.76470588240772,212.81482824726845 169.71493212669156,210.79680399788776 173.09502262435853,210.79680399788776 179.24434389150701,212.44308777988772 188.0,198.63531542525743 187.26696832594462,197.67937331233406 155.62443438894115,198.63531542525743 155.05429864255711,205.48616033859435 152.0,214.9390521973255 152.40723981894553,218.17846982419724 154.11764705879614,221.6302765131113 158.76018099533394,219.98403433404746 164.9095022622496,213.71762494253926 169.30769230774604,210.8499100425979 175.09049773751758,211.22165213915287 179.2850678730756,212.76172248952207 187.83710407232866,198.84774666439625 187.42986425338313,197.7855892268126 185.1900452489499,197.67937331233406 155.58371040713973,198.79463886629674 154.97285067872144,205.59237397208926 152.24434389127418,214.24868077493738 152.4886877827812,218.0191548781586 153.91402714932337,221.57717204312212 159.85972850676626,219.187462861737 164.6651583709754,213.93004736865987 169.34841628954746,210.95612210899708 174.9683257918805,211.1154401503445 179.04072398203425,212.76172248952207 187.6742081446573,198.79463886629674 187.10407239804044,197.73248127335683 185.96380090503953,197.73248127335683 155.62443438894115,198.68842324678553 155.01357466052286,205.11441237703548 152.1221719456371,214.7266303608485 152.77375565608963,219.29367249205825 154.36199095007032,221.57717204312212 159.5339366516564,219.2405676805938 164.17647058796138,215.2045793183206 165.2760180993937,213.39899107071687 169.47058823518455,210.95612210899708 172.89140271465294,210.63748581695836 178.79638009052724,212.70861672380124 187.95927601819858,198.95396223751595 187.59276018105447,197.9980209627247 186.04524886864237,197.57315736683086 155.5429864253383,198.7415310604556 154.9321266966872,206.12344167398987 152.1221719456371,215.89494892538642 153.91402714932337,221.6302765131113 160.42986425338313,218.86883378398488 165.39819004526362,213.23967403016286 169.18552036210895,211.0092281306279 173.09502262435853,210.8499100425979 178.91855203616433,212.60240516954218 188.0,198.63531542525743 186.9004524888005,197.67937331233406 155.6651583709754,198.63531542525743 155.05429864255711,206.07033493867493 152.9773755655624,211.27475812195917 152.16289592767134,215.84184361746884 153.05882352939807,220.1433484191948 154.687782805413,221.6302765131113 160.1447963800747,219.02814835761092 164.38009049766697,214.19557522673858 168.49321266962215,211.4340760235791 172.89140271465294,210.5843797409907 179.20361990947276,212.60240516954218 187.59276018105447,199.1132855390315 187.18552036210895,197.73248127335683 183.9683257918805,197.62626534348237 155.58371040713973,198.90085445492878 155.09502262459137,205.16751925187418 152.36651583691128,214.14246967056533 152.52941176481545,217.85983986215433 153.8325791854877,221.47096307965694 157.0090497736819,220.83370864763856 159.819004524732,219.187462861737 166.7013574661687,212.44308777988772 169.42986425338313,210.90301607962465 172.8099547510501,210.90301607962465 179.04072398203425,212.70861672380124 187.95927601819858,198.63531542525743 187.18552036210895,197.7855892268126 182.46153846150264,197.67937331233406 155.9909502263181,198.42288406184525 155.2986425338313,199.16639329056488 154.8099547510501,206.176548401505 152.16289592767134,214.0362585351104 152.4886877827812,218.76262402927387 153.46606334857643,221.25854505979805 154.56561085954309,221.41785858635558 160.38914027134888,218.76262402927387 164.95022624428384,213.66451931672054 169.3891402715817,210.63748581695836 173.58371040713973,210.63748581695836 177.65610859706067,212.33687614797964 179.2850678730756,212.17755864173523 187.91855203616433,198.63531542525743 186.73755656089634,197.62626534348237 155.70588235300966,198.52909975906368 154.89140271488577,206.28276183325215 152.16289592767134,215.2045793183206 152.73303167405538,219.4529868797108 154.48416289594024,221.25854505979805 158.51583710405976,220.2495577703521 165.76470588240772,212.867933997215 169.0226244344376,211.0092281306279 172.72850678744726,210.47816756606335 177.61538461549208,212.3899819678627 179.24434389150701,212.28377032026765 187.91855203616433,198.7415310604556 186.9004524888005,197.62626534348237 155.5022624435369,198.68842324678553 154.76923076924868,206.76072189217666 152.2036199097056,214.7797358315438 152.44796380097978,218.0191548781586 153.79185520368628,221.41785858635558 156.88687782804482,220.67439486499643 161.57013574661687,217.7005247763882 164.25791855202988,213.9831529558287 169.3891402715817,210.69059188495157 172.52488687774166,210.53127365742694 179.04072398203425,212.70861672380124 188.0,198.31666833354393 186.6968325788621,197.62626534348237 155.5429864253383,198.90085445492878 154.97285067872144,205.6985875745013 152.2036199097056,216.05426480234019 153.01809954736382,219.7185107038822 154.64705882337876,222.42684263316914 160.1447963800747,220.2495577703521 165.7239819006063,214.4079973733751 168.6561085972935,212.867933997215" stroke="red" stroke-linecap="round" stroke-linejoin="round" stroke-width="0.5"><title>2020-09-16 23.6km</title></polyline><polyline fill="none" points="25.367945823818445,253.94766034834902 28.21218961616978,251.77523798975744 31.828442437807098,251.19239075286896 36.01354401814751,251.93419616448227 38.81715575628914,253.3648166024068 48.0,239.11134621937526 46.17155756196007,238.05158627335913 38.573363431263715,237.99859819485573 15.575620767427608,238.9523824249336 15.209932279773057,245.5758148370951 12.975169300101697,251.1394045940251 12.0,256.649923660676 13.422121895942837,261.4715591715649 14.925507900537923,262.0543898913893 20.77652370207943,258.92828688948066 24.27088036108762,254.7424457653542 28.61851015803404,251.66926583458553 33.57562076742761,251.2453769040585 38.81715575628914,253.2588449115865 47.95936794602312,239.32329783710884 46.902934537269175,238.1575624073157 42.067720090504736,237.9456101085816 15.5349887132179,239.16433413530467 15.291196388192475,245.62880180869251 12.203160270815715,255.4312583845749 13.056433408521116,260.3588797422999 14.478555304696783,262.0543898913893 19.638826185138896,259.5111216956575 23.092550789937377,256.7558943607437 24.75846501113847,254.3715461208485 28.577878103824332,251.72225191592588 32.11286681727506,251.19239075286896 39.18284424394369,252.88794375004363 47.95936794602312,239.0053703642625 47.309255079133436,238.21055046268157 45.23702031606808,237.9456101085816 15.860045146662742,239.11134621937526 15.04740406316705,247.00646035399404 12.243792324792594,255.4312583845749 12.89390519191511,259.77604629829875 14.64108352130279,262.00140531908255" stroke="#4dd2ff" stroke-linecap="round" stroke-linejoin="round" stroke-width="0.5"><title>2020-09-18 6.1km</title></polyline><polyline fill="none" points="71.48022598866373,254.27039583041915 75.22259887028486,251.83029038048699 78.39548022602685,251.19373843618087 85.7175141244661,253.15643668090343 94.50395480217412,239.73561261812574 94.38192090392113,238.7277046200761 93.609039548086,237.93198580332682 62.69378531072289,239.04599165858235 61.717514124466106,246.3665165413695 59.11412429390475,252.73207039173576 58.70734463306144,256.60439439615584 60.82259887014516,262.0149697394809 62.97853107354604,261.64365832170006 66.23276836168952,259.787095537642 71.15480225998908,254.6947603218141 75.34463276830502,251.98942819226068 79.61581920902245,251.2467844740604 85.67683615814894,253.15643668090343 94.66666666674428,238.7277046200761 93.731073446339,238.0911297062121 90.5988700564485,238.0380817463738 62.40903954813257,238.88684817412286 61.676836158381775,246.048235919734 58.66666666674428,255.119124317338 59.35819209041074,259.5218715079245 61.18870056513697,262.0680141966732 66.23276836168952,259.787095537642 71.23615819215775,254.58866924553877 75.42598870070651,251.83029038048699 78.68022598885,251.35287652682746 85.67683615814894,252.94425359831075 94.54463276849128,239.20513507310534 94.17853107326664,238.25027353924816 92.5107344633434,238.0380817463738 62.571751412702724,238.93989601006615 61.88022598880343,239.68256489848136 61.961581920972094,244.6690166683693 59.31751412455924,252.78511620505014 58.910734463483095,257.18789169364027" stroke="#4dd2ff" stroke-linecap="round" stroke-linejoin="round" stroke-width="0.5"><title>2020-09-20 6.0km</title></polyline><polyline fill="none" points="117.9067121730186,254.37965159394662 125.07394766784273,251.06836053932784 132.9374288963154,252.7774177316751 141.25142207043245,238.83768684155075 139.73606370855123,238.03653673114604 108.73265073960647,239.26496618243982 108.36405005678535,244.9263703073957 105.33333333325572,255.34098854081822 105.82480091019534,259.18631105162785 107.34015927184373,261.96346326885396 110.1660978384316,261.53621045447653 113.89306029584259,259.39993889426114 117.74288964737207,254.59328224507044 122.90329920360819,251.28199312533252 126.13879408407956,250.85472782867146 131.62684869160876,252.99104931906913 132.7736063709017,252.61719395936234 141.33333333325572,239.2115562921972 140.10466439113952,238.08994679310126 109.30602957913652,238.94450672360836 108.6507394767832,239.7456548443297 108.20022753137164,246.1547766085132 105.37428896478377,255.1273583266593 105.78384527866729,259.18631105162785 107.50398179725744,261.8566501120804 110.82138794078492,261.1089571410557 113.68828213890083,259.2931249885005 118.60295790666714,253.73875889155897 123.14903299207799,251.22858499060385 126.58930602949113,251.06836053932784 132.32309442549013,253.09786506585078 141.16951080760919,238.7842768888513 140.39135381113738,238.03653673114604 109.1831626847852,238.99791665293742 108.48691695113666,239.7456548443297 108.11831626854837,246.47522974744788 105.6609783845488,253.31149646599079 105.37428896478377,256.94321116854553" stroke="#4dd2ff" stroke-linecap="round" stroke-linejoin="round" stroke-width="0.5"><title>2020-09-22 6.0km</title></polyline><polyline fill="none" points="165.0351872870233,254.3430753108987 169.5709421110805,251.46559646801325 171.65493757091463,251.14587519539054 178.8467650397215,253.43720478983596 187.95913734380156,238.9429704970389 187.18274687835947,238.0903505437018 181.9114642450586,237.7706175473577 169.16231555049308,238.9429704970389 155.47332576615736,239.15612517404952 154.94211123720743,246.50988525158027 152.0,254.23650242516305 152.53121452894993,259.61839423776837 154.2474460839294,262.0695265686081 159.80476730992086,259.61839423776837 164.13620885345154,254.92922562573222 167.8138478999026,252.2116116808902 172.7173666288145,251.35902274146792 179.05107832001522,253.27734505271656 188.0,239.20941382370074 186.85584562970325,238.0903505437018 155.47332576615736,238.99625917794765 154.7377979569137,246.82961058765068 152.04086265619844,255.24894358220627 152.6946651530452,259.9381080845196 154.12485811579973,262.016241258214 158.61975028389134,260.4176783291041 167.8138478999026,252.15832493064227 173.5754824061878,251.25244898410165 178.88762769568712,253.1174852453405 187.87741203140467,239.26270246561035 186.7332576615736,238.1436393490876 179.70488081709482,238.1436393490876 155.5550510783214,239.26270246561035 154.86038592504337,246.56317282709642 152.4903518727515,252.58461871522013 152.0,256.20809577053296 152.7763904654421,260.15125049324706 154.28830874012783,262.2293824526714" stroke="#4dd2ff" stroke-linecap="round" stroke-linejoin="round" stroke-width="0.5"><title>2020-09-26 6.1km</title></polyline></svg>