<svg xmlns="http://www.w3.org/2000/svg" xmlns:ev="http://www.w3.org/2001/xml-events" xmlns:xlink="http://www.w3.org/1999/xlink" width="200mm" height="300mm" baseProfile="full" version="1.1" viewBox="0 0 200 300"><rect width="200" height="300" x="0" y="0" fill="#222"/><text style="font-size:12px;font-family:Arial;font-weight:700" x="10" y="20" fill="#FFF">Over 5km Runs</text><text style="font-size:4px;font-family:Arial" x="10" y="280" fill="#FFF">ATHLETE</text><text style="font-size:9px;font-family:Arial" x="10" y="290" fill="#FFF">DuanFei</text><text style="font-size:4px;font-family:Arial" x="120" y="280" fill="#FFF">STATISTICS</text><text style="font-size:3px;font-family:Arial" x="120" y="285" fill="#FFF">Number: 9</text><text style="font-size:3px;font-family:Arial" x="120" y="290" fill="#FFF">Weekly: 1.1</text><text style="font-size:3px;font-family:Arial" x="141" y="285" fill="#FFF">Total: 126.7 km</text><text style="font-size:3px;font-family:Arial" x="141" y="290" fill="#FFF">Avg: 14.1 km</text><text style="font-size:3px;font-family:Arial" x="167" y="285" fill="#FFF">Min: 10.5 km</text><text style="font-size:3px;font-family:Arial" x="167" y="290" fill="#FFF">Max: 24.0 km</text><polyline fill="none" stroke="#4dd2ff" stroke-linecap="round" stroke-linejoin="round" stroke-width=".5" points="34.002 35.225 35.086 34.82 40.348 35.023 44.218 35.832 46.617 35.933 52.73 35.124 55.207 35.629 57.683 36.641 58.844 36.843 60.701 37.854 61.398 38.056 61.552 38.461 61.707 39.674 61.552 41.697 61.63 43.618 61.166 49.585 60.392 53.427 60.314 56.158 60.16 57.27 60.16 59.192 59.85 60.102 59.618 63.338 59.386 64.349 59.463 68.697 59.231 70.214 59.231 71.225 58.689 73.652 58.38 74.36 58.612 75.068 58.767 76.686 58.38 78.304 57.915 81.843 57.219 83.36 55.981 85.079 54.665 86.09 54.123 86.292 52.421 86.494 46.307 84.371 45.611 84.27 45.224 84.472 44.837 84.472 42.67 83.663 41.741 83.461 37.794 81.742 36.247 80.731 31.216 79.517 28.74 78.203 22.007 75.675 18.834 74.36 18.448 74.057 18.834 70.618 18.912 68.495 19.608 61.517 19.918 60.506 20.15 57.877 20.537 55.652 21.388 49.585 22.162 42.304 22.549 40.079 22.936 35.832 23.4 34.517 23.71 34.214 24.639 34.112 29.204 34.214 30.83 33.91 33.616 34.112 35.937 33.91 39.187 34.214 41.973 34.82 44.914 35.023 47.545 35.933 48.629 36.135 50.176 36.135 51.415 35.832 54.897 36.034 58.225 36.843 58.999 37.551 61.552 38.259 61.862 38.562 61.63 43.416 61.398 45.641 61.398 47.259 60.624 50.899 60.469 52.113 60.701 52.922 61.011 53.225 61.088 54.236 60.701 56.36 60.469 59.09 60.546 60.607 59.927 65.158 60.005 68.798 59.85 70.517 59.153 73.551 58.612 77.394 58.07 78.809 57.76 79.922 57.838 81.034 57.683 82.247 57.374 83.259 56.832 84.169 55.748 85.281 54.588 86.09 53.504 86.494 51.879 86.393 50.409 85.888 48.861 85.787 44.218 84.169 41.509 83.461 40.116 82.854 38.723 82.146 37.717 81.843 35.705 80.528 33.151 80.124 31.603 79.618 29.746 78.607 27.579 78.101 18.602 74.158 18.37 73.854 18.912 69.809 19.067 65.663 19.918 60.81 20.073 57.675 20.614 55.045 20.769 51.607 21.156 49.888 21.775 44.63 22.472 40.787 23.091 35.124 23.555 34.315 24.097 34.112 29.204 33.607 32.068 33.91 33.77 34.214 35.937 33.809 38.8 33.91 42.206 34.517 44.914 34.618 46.539 35.225 47.855 35.933 50.254 36.438 51.956 36.337 54.742 36.539 56.909 37.146 58.38 37.348 61.475 38.36 61.63 39.371 61.398 41.798 61.398 43.517 61.243 45.135 61.32 45.742 61.088 46.753 60.701 49.989 60.779 52.315 61.166 53.225 60.856 54.843 60.392 61.012 60.005 64.45 60.005 69 59.927 70.113 59.386 72.337 58.844 74.259 58.844 75.371 58.612 75.978 58.534 77.596 57.993 79.82 57.915 81.034 57.683 82.146 56.754 83.966 55.671 85.079 54.433 85.989 52.962 86.393 50.486 85.989 49.17 86.09 47.7 85.382 42.979 83.966 39.574 82.348 38.646 82.045 37.175 81.337 31.913 79.517 29.437 78.405 27.424 77.899 24.484 76.382 18.757 74.259 18.525 73.854 19.067 68.293 19.144 66.776 19.531 64.147 19.531 63.135 20.227 59.495 21.62 47.158 22.007 45.135 22.007 43.517 22.781 39.371 22.859 37.146 23.246 35.225 23.71 34.416 24.639 34.214 26.109 34.214 27.192 34.011 29.978 33.91 33.074 34.416 34.544 34.416 39.42 33.708 43.444 34.214 45.456 34.82 46.075 34.82 47.004 35.326 48.01 35.528 49.557 35.629 51.802 35.528 54.665 35.832 58.07 36.843 59.386 37.652 61.32 37.955 61.707 38.259 61.785 39.27 61.398 42.809 61.32 46.753 60.856 48.371 60.624 51.203 60.624 52.214 61.088 53.023 60.779 55.045 60.469 61.416 60.082 64.248 59.618 65.461 58.689 72.337 58.147 74.36 58.457 76.686 58.534 78.405 58.38 81.337 58.07 82.854 57.141 84.27 56.445 85.079 55.284 86.09 53.891 86.798 52.808 87 51.802 86.899 50.409 86.292 49.325 86.191 48.474 85.888 44.45 83.865 41.509 83.056 35.473 80.023 33.77 79.82 31.603 79.012 24.793 76.18 20.847 74.764 18.834 73.854 18.37 73.45 18.215 72.944 18.138 71.832 18.989 70.012 18.989 67.585 19.299 66.27 19.376 64.753 20.382 57.978 20.692 54.742 21.311 50.495 21.93 44.63 22.394 42.708 22.472 41.191 23.091 35.629 23.478 34.82 24.097 34.315 24.561 34.214 27.734 34.011 30.984 33.101 33.074 33.607 35.395 33.607 39.574 33 41.741 33.303 42.825 33.809 44.914 34.416 48.164 35.73 49.79 35.933 52.111 35.629 54.665 35.629 56.135 36.034 57.219 36.641 58.302 36.843 61.63 37.955 61.862 38.461 61.862 38.967 61.63 44.528 61.166 47.158 60.856 48.169 60.546 51.405 60.624 52.315 61.011 53.023 61.011 53.529 60.392 59.293 60.392 60.81 60.16 62.427 60.16 67.585 59.85 69.809 59.153 71.832 58.767 74.663 58.302 76.079 58.225 77.596 57.76 81.843 57.451 82.854 56.832 84.169 55.671 85.281 54.742 85.989 53.272 86.494 50.95 86.494 46.617 84.978 45.146 84.27 40.89 82.955 39.574 82.146 38.181 81.438 36.943 80.629 35.86 80.124 34.312 79.922 32.919 79.416 24.252 75.877 22.24 75.27 21.311 74.663 18.834 73.854 18.525 73.551 18.834 72.034 18.834 71.124 19.221 68.293 19.144 67.281 19.299 66.371 19.144 64.753 19.299 63.641 19.763 62.225 20.305 59.596 20.537 56.967 21.001 54.843 21.001 53.225 21.543 49.484 21.698 46.652 22.704 40.281 23.168 35.528 23.632 34.719 24.406 34.214 27.966 33.91 31.216 33.202 32.764 33.708 33.616 34.214 35.628 34.517 37.253 34.618 39.42 34.315 44.682 34.921 47.7 35.933 49.712 36.135 51.879 36.135 56.213 36.337 57.838 36.843 59.695 37.753 61.63 38.36 61.785 38.764 61.862 40.483 61.011 47.866 60.933 49.888 60.469 52.214 60.314 54.742 60.082 56.158 59.927 60.203 59.308 64.854 59.386 66.371 58.844 69.708 58.767 71.023 59.153 72.337 58.921 73.753 58.921 74.764 58.921 75.27 58.38 76.686 58.38 77.495 57.838 78.809 57.606 82.146 56.909 84.068 55.981 84.978 54.51 86.09 54.046 86.292 53.04 86.494 52.034 86.494 48.938 86.09 44.837 84.169 41.354 83.056 39.729 81.944 37.949 81.034 34.002 80.023 32.764 79.315 28.895 78.203 23.013 75.675 22.007 75.472 18.448 74.057 18.834 72.135 18.912 70.214 19.221 68.293 19.763 61.113 20.073 60.102 20.227 58.079 20.769 54.236 20.769 52.517 21.466 49.888 21.543 48.978 21.543 46.955 21.698 45.439 21.93 44.427 22.007 43.012 22.781 39.068 22.781 37.753 23.168 35.933 23.168 35.023 23.555 34.618 24.019 34.618"><title>2020-07-31 11.0km</title></polyline><polyline fill="none" stroke="#4dd2ff" stroke-linecap="round" stroke-linejoin="round" stroke-width=".5" points="91.814 66.652 93.219 65.457 95.235 64.262 95.785 63.545 97.251 62.749 98.9 62.111 99.695 62.111 103.848 61.633 106.292 61.793 111.423 64.421 113.011 64.501 113.805 64.103 115.455 61.155 116.86 59.164 118.02 56.933 118.692 56.535 118.814 55.739 120.83 53.11 121.624 51.756 122.846 50.322 126.695 43.869 126.389 43.232 125.106 42.276 123.64 41.878 121.136 42.196 118.081 42.116 117.226 41.878 116.371 42.196 115.699 41.957 112.584 42.196 111.729 41.957 111.057 42.276 110.262 42.355 109.529 42.196 107.086 42.355 105.07 42.116 104.337 42.435 103.604 42.196 102.016 42.674 98.656 42.276 97.984 42.674 94.808 42.993 93.952 42.833 91.387 43.072 89.738 42.913 87.905 42.993 86.5 42.833 85.889 43.311 84.301 43.311 82.59 42.993 81.735 43.232 80.147 42.993 79.292 43.072 78.437 43.391 77.948 43.949 78.07 44.745 77.765 46.498 77.948 50.561 77.704 51.278 77.093 55.579 76.238 57.013 75.871 58.686 75.382 60.199 74.833 60.916 73.489 65.377 73.183 67.05 73.244 68.803 73 69.679 73.244 70.475 73.855 73.741 74.771 76.131 75.749 77.565 76.36 77.963 78.07 77.565 81.124 76.45 83.262 75.255 84.057 75.096 85.462 74.379 86.928 72.387 88.577 70.635 88.943 69.758 89.676 69.44 91.081 67.528 92.853 65.616 93.464 65.059 95.052 64.342 95.724 63.704 96.457 63.306 97.251 63.306 97.862 62.988 98.717 62.908 100.977 62.032 101.771 61.872 102.505 62.191 103.238 61.872 104.093 61.793 104.765 61.952 105.62 61.872 107.086 62.271 109.468 63.147 111.667 64.421 113.317 64.421 113.867 63.864 114.722 62.589 116.31 59.483 118.265 57.013 118.692 56.216 119.242 55.579 122.113 51.278 123.701 48.569 124.74 47.215 125.962 44.984 126.939 43.789 125.717 42.435 124.923 42.276 120.219 42.037 119.486 41.639 117.654 41.957 115.943 42.037 115.027 41.878 114.294 42.116 112.462 41.957 110.812 42.276 107.452 42.355 106.719 42.674 105.803 42.594 104.215 42.913 103.421 42.833 101.771 42.993 100.122 43.471 99.45 43.152 96.274 42.913 91.998 43.391 91.204 43.471 90.471 43.152 89.554 43.152 88.088 43.471 85.706 42.913 84.851 43.152 84.118 43.55 82.652 43.471 81.796 43.789 78.437 43.63 77.765 44.028 77.826 45.781 77.581 48.171 77.765 50.879 77.704 53.428 77.093 55.739 75.871 59.005 74.833 61.394 74.649 62.35 73.855 63.784 73.183 66.333 73 67.847 73.428 71.113 74.161 74.936 74.405 75.812 75.688 78.123 76.604 78.282 79.475 77.246 81.124 76.928 84.179 75.255 87.111 72.387 88.455 71.511 89.86 69.679 90.165 68.882 92.425 66.572 93.219 65.138 93.952 64.899 95.235 63.943 95.724 63.306 98.29 62.191 102.993 61.713 106.353 62.111 108.002 62.749 108.735 63.227 110.262 63.704 111.729 64.581 112.462 64.74 113.195 64.66 113.805 64.182 114.233 63.386 114.722 62.828 115.516 61.474 115.76 60.757 117.654 58.208 117.959 57.411 119.548 55.261 119.792 54.623 120.891 53.269 121.624 51.835 126.023 45.462 126.695 44.188 126.878 43.391 125.717 42.435 124.801 42.276 121.441 42.276 118.998 42.037 117.165 42.355 116.615 41.957 114.905 42.196 112.278 42.276 111.606 42.594 109.957 42.276 109.163 42.355 107.452 42.196 105.986 42.594 103.482 42.754 100.122 43.311 97.495 43.072 96.64 42.833 92.364 43.311 90.593 42.993 88.76 43.152 87.844 42.913 86.989 42.913 82.163 43.471 78.925 43.391 78.192 43.71 77.765 44.586 78.07 47.294 78.009 48.888 77.52 52.313 77.215 53.11 77.032 55.5 76.115 57.81 75.688 58.367 75.688 59.164 74.833 60.677 74.771 61.394 73.977 63.704 73.855 64.581 73.428 65.298 73.061 68.643 73.672 73.024 74.161 74.538 75.382 77.485 75.932 78.123 78.376 77.884 79.719 77.167 80.575 77.167 84.362 75.016 87.538 72.228 88.455 70.953 89.066 70.396 89.432 69.679 90.043 69.201 90.898 67.847 93.158 65.457 95.907 63.545 96.762 63.306 99.756 62.032 104.032 61.872 106.353 62.191 108.857 62.988 111.667 64.581 112.584 64.82 113.439 64.74 114.05 64.342 114.294 63.625 115.943 60.757 116.921 59.403 118.02 57.172 118.692 56.615 119.548 54.942 121.686 52.313 122.357 50.64 127 43.71 125.717 42.435 124.007 42.355 123.274 42.196 120.158 42.276 118.387 42.037 115.088 42.515 113.439 42.355 111.057 42.674 109.468 42.594 107.758 42.833 106.109 42.674 104.52 42.993 101.038 43.072 98.534 43.471 97.801 43.072 96.029 43.072 95.296 43.232 92.67 42.913 88.271 43.471 87.538 43.152 86.561 43.152 81.735 43.949 78.498 43.789 77.948 44.347 77.704 46.02 78.07 48.33 77.826 49.127 77.459 54.066 76.054 58.606 73.977 63.067 73.367 66.333 73.367 71.113 73.672 72.785 74.1 74.299 75.382 77.246 75.749 77.884 76.299 78.361 77.887 77.963 80.086 77.167 80.758 76.689 82.407 76.211 83.995 75.414 87.477 72.228 87.844 71.511 88.516 70.953 90.043 68.882 90.776 68.564 91.326 67.926 91.753 66.493 93.036 65.616 93.586 64.979 95.785 63.784 96.579 63.625 98.778 62.51 99.572 62.669 100.916 61.952 105.009 61.633 107.391 62.111 108.063 62.669 108.98 62.828 111.912 64.581 113.5 64.262 115.638 60.996 116.249 60.598 117.287 58.447 118.631 56.216 120.158 54.305 122.113 51.357 122.296 50.561 123.885 48.649 126.511 44.427 126.45 43.63 126.023 42.754 125.351 42.355 123.824 42.196 119.914 42.515 119.181 42.355 118.326 42.594 116.738 42.355 116.005 42.594 115.21 42.515 114.538 42.116 113.805 42.355 112.095 42.276 111.301 42.435 107.147 42.515 105.498 42.833 104.643 42.754 103.848 42.913 102.199 42.913 99.756 43.072 98.9 43.232 96.579 42.993 95.602 43.232 94.808 43.072 91.448 43.391 89.738 43.152 88.943 43.471 88.21 43.471 86.622 43.152 83.201 43.71 81.613 43.391 79.109 43.471 78.376 43.789 78.131 44.427 78.07 47.693 78.253 49.206 77.948 51.039 77.765 54.145 77.276 54.862 76.36 57.81 75.932 58.527 75.81 59.323 75.321 60.04 75.138 61.554 74.344 63.067 73.305 67.209 73.183 69.52 73.428 71.352 74.283 74.299 74.283 75.096 75.26 77.167 75.749 77.884 76.543 78.202 77.276 77.884 78.864 77.565 79.475 77.087 81.002 76.529 81.613 76.051 83.262 75.494 85.156 74.14 85.95 73.98"><title>2020-09-04 10.7km</title></polyline><polyline fill="none" stroke="#4dd2ff" stroke-linecap="round" stroke-linejoin="round" stroke-width=".5" points="154.367 63.952 155.224 63.793 156.633 62.914 157.367 62.835 159.388 61.637 160.122 61.477 166 61.797 168.571 62.675 170.714 64.112 172.306 64.591 173.837 64.352 175.98 60.759 176.224 59.96 176.898 59.242 180.449 53.413 181.551 52.136 186.816 44.312 186.939 43.353 186.388 42.635 185.714 42.076 184.98 41.996 179.898 41.916 178.367 42.236 173.408 42.156 171.694 42.635 170.898 42.395 170.163 42.555 168.633 42.236 166.184 42.795 164.592 42.475 160.612 42.715 156.571 42.635 154.245 43.034 150.02 42.715 147.388 43.114 146.592 42.954 145.857 43.353 144.265 43.433 143.531 43.194 141.816 43.114 138.327 43.433 137.837 44.312 137.653 45.988 137.898 49.421 136.857 56.128 136.673 56.926 135.755 58.204 133.673 63.873 133.184 68.663 133.184 70.978 134.224 74.81 135.755 77.605 136.49 77.764 139 77.365 142.857 75.768 143.592 75.289 146.837 72.495 147.571 72.096 149.653 69.621 151 68.583 151.551 68.104 151.551 67.306 151.918 66.667 152.653 66.188 153.143 65.469 155.041 63.873 156.449 63.074 159.02 62.515 161.837 61.557 166.49 62.036 168.878 62.755 171.939 64.591 173.347 64.352 175.306 61.877 178.184 56.926 181.673 51.577 182.776 50.22 183.327 48.783 184 48.304 186.694 44.072 186.265 42.635 185.592 42.236 179.102 41.757 174.265 42.395 171.878 42.236 166.673 42.715 160.98 42.635 158.653 43.034 153.878 42.874 148.98 42.954 143.959 43.433 141.082 43.194 138.694 43.513 138.082 43.912 137.837 44.711 137.776 52.136 137.224 55.33 133.184 65.789 133.245 70.978 134.286 75.05 135.449 77.285 136 77.844 136.796 78.004 139.122 77.365 140.531 76.647 141.204 76.168 143.531 75.13 146.286 73.134 148.918 70.02 150.816 68.583 151.367 67.944 151.98 66.427 152.653 66.028 153.633 64.831 157.918 62.356 160.184 61.877 160.98 61.877 161.776 61.557 164.286 61.477 168.449 62.435 168.939 62.914 171.816 64.511 173.286 64.431 173.837 64.032 176.653 59.96 180.388 53.254 183.571 49.262 187 43.753 186.082 42.395 185.347 42.156 183.633 42.076 173.714 42.315 171.327 42.555 168.327 42.395 165.082 42.635 161.776 43.114 161.102 42.715 159.51 42.954 152.714 42.635 151.122 43.114 149.531 42.954 148.857 43.274 144.878 43.034 138.327 43.593 137.653 45.03 138.02 48.942 136.796 55.968 135.204 59.721 134.347 63.074 133.49 64.751 133.122 67.944 133.245 70.579 133.918 73.852 135.082 76.966 136.122 78.243 137.041 78.243 141.02 76.727 144.082 75.05 145.98 73.533 147.755 71.697 148.98 69.621 149.592 68.982 151 68.184 152.347 66.188 155.714 63.553 157.98 62.196 159.633 61.877 160.429 62.116 163.796 61.557 167.898 62.515 171.51 64.272 173.286 64.671 173.898 64.112 176.347 59.721 186.633 44.232 186.633 43.433 185.653 42.076 184.184 42.076 182.531 41.916 179.408 42.156 177.816 41.996 175.245 42.475 172.98 42.395 169.673 42.795 168.082 42.635 161.347 42.715 159.755 43.034 158.959 42.874 154.98 42.874 154.184 43.114 153.388 42.795 150.878 43.034 147.694 42.635 145 43.034 144.204 43.433 143.347 43.353 142.49 43.593 139.367 43.194 138.571 43.353 137.898 43.753 137.837 49.421 137.347 51.896 137.408 53.334 136.429 57.405 134.163 62.755 133.184 67.545 133.245 70.02 134.163 74.81 135.02 77.046 136.306 77.924 137.163 77.924 137.898 77.365 140.163 76.886 145.184 74.331 147.02 72.894 148.735 69.94 152.469 66.667 153.388 65.469 154.673 64.192 156.939 62.994 160 62.515 161.776 61.797 165.633 62.435 166.49 62.276 168.755 63.234 170.347 63.713 172.429 64.831 173.224 64.99 176.898 58.683 178.796 55.729 183.082 49.9 186.878 43.912 186.204 42.555 184 41.996 176.837 42.076 171.02 42.715 168.633 42.395 166.918 42.795 166.184 42.635 165.51 42.076 163.857 42.475 161.592 42.475 160.735 42.715 158.286 42.715 156.694 42.475 154.306 42.715 153.633 42.315 151.306 42.795 149.776 42.475 148.122 42.635 144.082 43.513 142.429 43.274 138.51 43.513 138.082 44.232 138.02 49.661 137.592 51.178 137.347 55.09 134.163 62.675 133.122 68.743 133.184 70.419 134.041 74.331 134.531 75.928 135.755 78.004 138.204 77.685 140.592 76.647 141.204 76.088 144.694 74.331 147.02 72.176 150.51 68.503 151.306 68.024 151.367 67.306 151.735 66.667 154.796 63.713 156.327 62.914 158.653 62.196 159.327 61.717 163.306 61.398 166.49 62.036 169.49 63.074 170.837 64.112 172.857 65.07 173.653 64.751 174.327 63.234 178.306 57.166 179.347 55.01 185.837 45.669 186.694 43.433 186.327 42.635 184.735 42.156 180.082 42.156 173.469 42.635 168.02 42.555 167.286 42.874 165.755 42.715 165.02 42.954 162.694 43.034 160.061 43.513 157.061 42.795 153.143 42.795 151.49 43.114 150.02 42.954 148.367 43.353 146.714 43.034 144.265 43.513 143.469 43.194 142.551 43.194 141.878 43.513 139.429 43.274 138.633 43.433 138.082 43.992 137.837 44.87 138.02 45.589 137.653 46.387 137.898 49.581 137.469 51.178 137.102 55.09 136.673 56.847 135.388 59.641 134.592 62.036 133.98 62.356 133.857 63.873 133.367 65.31 133.245 70.1 133.796 74.012 135.388 77.525 136.122 77.924 137.714 77.764 139.306 77.285 142.184 76.008 146.163 72.974 148.49 70.898 150.449 68.344 151.245 68.104 151.306 67.306 151.796 66.747 154.367 64.431 157.735 62.515 159.939 61.797 163.857 61.557 167.959 62.595 172.612 64.591 173.469 64.671 174.082 64.272 174.265 63.553 175.918 60.679 177.327 58.843 180.02 54.611 180.755 52.934 183.755 48.863 186.571 44.312 186.327 42.715 185.776 42.156 178.612 42.156 177.082 42.395 173.224 42.475 168.204 42.395 165.939 42.795 163.429 42.715 161.898 43.034 161.102 43.433 157.735 42.795 156.082 43.194 153.694 42.954 153.02 43.513 152.286 43.513 149.163 43.034 144.02 43.433 141.633 43.274 140.163 43.513 139.429 43.274 138.633 43.513 138.143 44.072 137.898 45.669 137.592 54.451 133.122 65.869 133 69.94 133.49 73.214 134.347 75.449 135.571 77.445 136.245 77.924 137.898 77.924 142 75.689 144.327 74.651 146.286 73.214 148.918 70.419 149.898 69.222 151.673 67.944 151.673 67.146 152.286 66.587 154.245 64.99 154.98 64.751"><title>2020-09-06 15.2km</title></polyline><polyline fill="none" stroke="#4dd2ff" stroke-linecap="round" stroke-linejoin="round" stroke-width=".5" points="31.897 156.261 35.627 153.31 36.361 153.15 38.502 152.273 40.031 151.874 40.826 151.954 42.477 151.396 43.211 151.555 44.067 151.476 45.779 152.034 46.574 152.034 47.43 152.353 48.225 152.752 49.815 153.15 51.222 154.187 52.139 154.506 53.852 154.347 54.463 152.752 54.952 152.193 56.298 149.881 58.683 146.372 60.028 143.66 61.068 142.304 61.863 140.949 62.475 140.39 63.82 138.476 64.37 137.679 64.676 136.881 67 133.452 66.45 132.734 65.899 132.256 64.921 132.096 63.331 132.256 56.971 132.016 51.772 132.256 50.855 132.495 49.265 132.256 47.063 132.655 46.268 132.495 44.678 132.894 43.088 132.894 42.293 132.655 40.764 133.053 40.031 132.894 38.563 133.053 36.912 132.655 35.199 132.814 34.282 132.814 33.548 132.575 32.753 132.974 31.897 132.814 31.102 132.974 30.185 132.814 29.145 133.053 28.228 133.053 26.515 132.814 25.598 133.053 24.619 132.974 23.763 133.133 22.907 132.974 21.195 133.293 19.421 133.213 18.626 133.372 17.954 133.931 17.587 135.685 17.954 137.36 17.892 140.709 17.403 144.218 16.608 146.85 15.874 148.206 15.018 150.519 14.223 151.954 13.612 154.347 13.061 158.573 13.061 160.168 13.428 162.88 13.856 164.315 15.202 167.585 15.935 167.904 17.648 167.665 20.277 166.229 21.929 165.99 22.785 165.591 23.396 164.873 24.681 163.996 25.598 163.677 27.983 161.444 29.818 158.892 31.163 157.776 31.224 156.899 32.386 155.702 33.242 155.543 34.527 154.347 36.055 153.469 37.584 152.592 38.563 152.433 39.236 151.874 42.599 151.635 44.128 151.715 44.862 152.034 46.513 152.193 48.225 152.672 51.772 154.426 53.424 154.347 55.258 151.795 55.625 151.077 56.176 150.519 57.399 148.525 58.255 146.93 59.784 145.016 61.618 141.826 61.863 141.108 62.536 140.47 63.514 138.875 67 134.01 66.817 133.213 65.655 132.096 63.208 132.016 60.518 132.096 59.845 132.256 58.989 132.096 56.604 132.335 55.014 132.256 53.24 132.495 49.815 132.415 48.959 132.655 48.225 132.495 45.718 132.495 44.984 132.814 43.516 132.734 41.682 132.974 40.153 132.974 39.358 132.814 37.829 132.894 36.851 132.734 31.958 133.053 29.573 133.053 28.595 132.974 27.005 133.053 26.21 132.974 23.824 133.213 23.091 133.452 22.296 133.372 21.562 133.532 20.767 133.372 18.198 133.372 17.648 133.931 17.831 138.237 16.914 145.813 14.529 151.316 13.489 154.506 13 157.058 13 158.813 13.489 162.242 13.795 162.959 13.795 163.837 15.263 167.106 15.752 167.665 16.425 167.984 17.342 167.744 18.076 167.665 19.727 167.027 21.256 166.07 22.663 165.591 23.335 165.192 23.886 164.554 24.619 164.315 25.904 162.959 27.861 161.285 28.166 160.647 30.552 158.494 31.224 158.175 31.163 157.457 32.386 156.101 35.933 153.629 37.401 152.752 38.257 152.592 38.991 152.193 40.092 151.795 40.887 151.874 42.538 151.635 44.128 151.555 44.74 152.193 45.535 152.512 47.308 152.512 48.898 152.911 50.427 153.31 51.161 153.709 51.65 154.347 52.445 154.506 53.362 154.426 54.586 153.15 55.258 151.795 56.176 150.439 56.42 149.721 57.888 147.807 58.255 147.01 60.212 144.139 61.007 142.623 61.496 142.065 61.68 141.347 62.108 140.55 63.147 138.955 64.187 137.599 64.431 136.881 66.266 133.851 66.511 133.053 65.899 132.335 65.227 132.016 62.597 132.335 59.356 132.176 56.909 132.415 54.586 132.176 50.243 132.495 48.531 132.335 47.002 132.575 46.207 132.415 45.473 132.495 44.801 132.734 42.11 132.734 39.847 133.053 37.401 132.894 34.343 133.133 33.548 133.053 32.875 133.452 29.757 133.133 29.206 133.612 27.555 133.372 26.821 133.532 26.087 133.293 25.292 133.691 24.558 133.771 22.907 133.612 21.256 133.691 18.198 133.452 17.648 134.01 17.587 136.562 17.77 137.44 17.648 139.194 17.77 140.071 17.648 142.703 16.792 145.973 15.14 149.801 14.712 151.316 14.284 152.114 13.55 155.224 13.183 160.009 13.856 164.076 14.468 165.591 15.935 167.665 16.792 167.824 20.828 166.628 22.173 165.591 23.029 165.352 23.824 164.873 27.066 162.242 27.616 161.444 29.757 159.291 30.185 158.733 30.98 158.334 31.469 156.819 33.487 155.144 34.955 154.107 37.156 152.991 38.807 152.512 40.214 151.874 41.009 152.034 42.721 151.874 44.617 152.034 45.29 152.433 50.06 153.31 51.589 154.347 52.384 154.506 54.035 154.347 54.463 153.629 54.952 152.034 55.442 151.396 58.316 146.292 60.334 143.58 62.169 140.63 62.841 139.912 63.147 139.114 66.022 135.047 66.755 133.612 66.327 132.814 65.777 132.176 65.043 132.096 61.68 132.176 60.884 131.937 57.521 132.016 56.726 132.256 52.445 132.176 48.225 132.575 45.718 132.575 44.128 132.814 40.826 133.053 39.969 132.974 39.174 133.053 36.728 132.575 34.221 132.974 31.775 132.814 31.041 133.053 30.062 132.974 29.206 133.053 27.433 133.612 23.947 133.293 23.091 133.452 20.461 133.213 18.81 133.452 17.954 133.851 17.648 141.427 16.975 145.654 15.569 148.844 15.079 149.562 14.468 151.874 13.489 154.347 13.183 157.776 13.122 159.371 13.367 161.125 13.612 162.88 14.101 164.554 14.712 165.352 15.874 167.585 16.547 168.063 17.22 167.744 17.954 167.665 20.216 166.867 21.745 166.229 24.619 164.235 26.943 162.002 27.677 161.524 29.328 159.61 31.041 157.935 31.041 157.138 32.692 155.463 34.282 154.745 35.505 153.549 36.912 152.592 37.584 152.273 38.379 152.114 38.991 151.476 40.581 151.316 41.376 151.476 42.11 151.396 47.247 152.034 49.571 152.831 51.65 154.187 53.301 154.347 54.463 153.15 55.136 151.476 55.931 150.12 57.093 148.764 57.704 147.329 58.989 145.255 60.028 143.979 61.741 141.108 62.964 139.673 64.126 137.679 66.878 133.532 65.838 132.176 65.104 131.937 54.219 132.415 50.916 132.415 49.999 132.575 48.225 132.415 46.513 132.655 45.779 132.495 45.106 132.495 42.538 133.053 41.682 132.734 40.948 133.133 39.358 133.293 36.912 132.734 36.117 132.974 34.465 133.053 33.67 132.894 32.019 132.974 28.595 132.814 27.922 132.974 25.231 132.974 24.558 133.213 22.907 133.133 19.727 133.532 18.81 133.452 18.076 133.851 17.77 134.569 17.831 139.354 17.709 141.826 16.975 145.734 14.773 151.077 13.245 157.377 13.306 161.364 14.101 164.554"><title>2020-09-09 10.5km</title></polyline><polyline fill="none" stroke="red" stroke-linecap="round" stroke-linejoin="round" stroke-width=".5" points="91.488 156.485 94.478 154.257 99.664 151.631 103.875 151.393 107.902 151.95 111.075 153.78 113.515 154.098 116.261 149.006 125.841 134.603 126.451 132.137 125.78 131.739 121.142 131.58 112.783 131.818 107.108 132.455 105.705 132.057 103.203 132.375 89.169 132.296 84.593 132.773 83.983 133.171 78.369 133.251 78.003 134.206 77.698 143.277 76.783 146.459 74.098 152.427 73.122 159.031 73.915 163.089 75.502 166.988 76.295 167.386 80.566 166.431 83.678 164.681 84.166 163.805 87.034 161.975 91.122 157.838 91.305 156.406 93.685 154.178 99.603 151.154 104.607 151.154 112.356 153.859 113.82 153.7 116.444 148.528 120.471 143.277 127 133.012 125.841 131.5 114.492 132.137 113.698 131.818 108.207 132.137 105.827 131.818 104.241 132.137 101.556 131.978 99.054 132.614 97.407 132.216 84.959 133.012 83.312 132.694 78.492 132.932 77.82 133.489 78.186 138.343 77.637 143.277 75.319 149.722 74.708 150.438 73 157.44 73.61 162.294 76.173 167.386 79.346 166.749 83.129 164.919 85.753 163.01 89.353 159.429 91.183 156.803 92.403 155.53 98.932 151.313 103.692 151.313 107.597 151.87 110.403 152.905 111.624 153.78 113.942 154.098 115.651 150.279 118.885 145.107 121.386 141.844 126.695 133.251 126.085 131.659 122.729 131.5 105.034 132.137 104.363 132.455 102.715 132.216 100.275 132.614 98.627 132.216 96.125 132.614 90.268 132.535 89.536 132.932 86.119 132.932 85.447 133.33 79.102 132.932 78.431 133.171 77.759 134.603 78.064 137.07 77.515 143.356 76.905 145.902 74.525 150.836 73.366 156.406 73.793 162.055 75.929 167.306 77.576 167.227 80.505 166.192 84.776 163.805 87.949 160.304 91 157.997 91.427 156.485 92.037 155.928 99.054 151.472 104.79 151.313 107.414 151.711 112.783 154.257 113.576 154.098 120.41 142.799 125.963 134.683 126.512 133.171 125.597 131.659 123.888 131.58 105.766 132.137 99.176 132.853 97.529 132.455 96.003 132.455 92.037 132.773 91.366 132.455 89.108 132.932 86.668 132.375 78.492 133.092 77.759 134.365 77.576 142.72 75.929 148.449 74.281 152.188 73.183 157.122 74.342 163.248 74.159 163.965 75.319 165.954 75.319 166.67 75.868 167.227 76.6 167.306 81.42 165.556 84.349 163.805 87.827 160.623 88.559 160.384 89.902 158.474 91.305 157.838 91.244 157.042 92.953 155.053 97.102 152.188 99.176 151.393 102.715 150.915 104.363 150.915 108.207 151.95 110.892 153.462 113.21 154.019 126.878 133.41 126.329 131.978 124.071 131.421 107.719 132.296 104.546 132.137 100.336 132.535 98.932 133.092 95.82 132.216 94.234 132.535 89.292 132.455 87.827 132.535 85.631 133.092 78.369 133.092 77.881 134.603 78.247 137.707 77.393 144.152 74.403 152.188 73.183 158.872 74.037 162.93 75.868 167.386 80.566 166.192 85.692 163.248 87.034 161.18 91.427 157.599 91.366 156.724 93.075 154.894 98.81 151.552 104.668 151.313 108.634 152.268 111.685 153.7 113.332 153.859 127 132.932 126.085 131.739 125.353 131.5 101.739 131.978 99.42 132.853 98.566 132.455 93.746 132.216 87.156 132.535 85.692 132.137 78.553 132.932 77.942 134.524 77.576 144.072 74.525 151.87 73.305 158.713 74.037 163.726 76.234 167.386 78.675 166.909 85.264 163.567 88.925 159.986 90.268 157.917 91.183 157.758 91.61 156.326 96.919 152.427 99.298 151.552 104.302 150.836 109.061 152.268 111.197 153.541 113.759 153.939 115.102 151.154 126.39 133.728 126.39 132.057 125.78 131.58 120.959 131.5 117.664 131.898 104.18 132.057 99.42 133.012 97.224 132.455 92.342 132.853 89.841 132.614 87.4 133.251 83.983 132.853 79.041 132.932 78.369 133.33 77.698 142.72 76.417 147.573 73.854 153.78 73.549 156.246 73.854 161.816 75.136 166.67 75.746 167.227 80.566 166.192 84.715 163.805 88.01 161.021 90.451 157.917 91.244 157.758 91.976 156.406 95.027 153.621 99.176 151.393 104.241 151.313 108.268 152.268 111.929 154.178 113.576 154.019 126.939 132.932 125.719 131.659 118.702 131.5 109.305 131.739 106.864 132.137 105.461 131.818 103.081 132.137 102.41 131.818 99.359 132.614 85.386 132.375 83.739 132.694 79.041 132.614 77.942 133.728 77.942 139.378 77.271 144.232 73.305 156.087 73.183 159.27 73.793 163.089 75.197 166.909 75.99 167.147 82.092 165.238 85.631 163.169 90.146 158.395 90.939 158.236 91.366 157.599 91.305 156.724 92.403 155.53 94.905 153.223 95.759 153.064 99.115 150.915 105.4 150.915 107.841 151.711 111.441 153.462 113.942 153.302 117.542 147.016 122.668 139.855 126.878 133.012 126.451 132.216 125.108 131.421 114.919 131.5 110.281 132.137 101.556 132.137 99.176 132.614 93.563 132.216 90.268 132.455 88.803 132.853 84.166 132.455 78.614 132.773 77.881 134.206 77.393 144.47 74.342 152.745 73.305 157.838 74.159 164.124 75.929 166.829 80.81 166.192 82.763 165.317 86.912 162.055 90.085 158.634 91.305 156.406 93.624 154.257 98.566 151.552 104.058 150.677 107.902 151.791 111.38 153.621 113.82 153.382 117.42 147.016 120.837 142.322 123.583 137.468 126.817 133.171 126.695 132.375 125.353 131.421 122.912 131.421 117.664 131.5 114.369 131.978 104.79 132.057 100.092 132.853 96.369 132.137 90.329 132.375 88.071 132.853 83.19 132.614 78.247 133.012 78.186 138.741 77.21 145.107 74.22 152.586 73.305 157.122 73.732 162.055 75.685 167.068 80.322 165.954 80.749 165.317 82.885 164.522 87.4 161.578 89.841 158.634 91.427 156.008 93.929 153.859 99.115 151.075 103.814 150.836 109.183 152.427 111.929 153.939 113.576 154.098 117.786 146.698 126.39 134.046 127 132.535 126.451 131.978 124.986 131.421 106.193 131.978 103.753 132.375 99.908 132.216 99.115 132.614 97.59 132.216 96.186 132.694 90.329 132.535 86.485 132.694 81.542 133.251 79.041 133.012 78.308 133.33 77.942 134.046 78.064 139.537 77.454 143.515 76.783 146.778 75.624 148.926 74.159 153.462 73.366 159.031 74.586 164.601 75.563 166.749 77.027 168.579 80.81 167.784 85.203 165.317 87.339 163.805 90.146 160.941 93.624 156.565 95.759 155.053 97.956 154.257"><title>2020-09-16 24.0km</title></polyline><polyline fill="none" stroke="#4dd2ff" stroke-linecap="round" stroke-linejoin="round" stroke-width=".5" points="152.953 156.167 155.21 154.178 156.858 153.621 157.59 153.143 158.383 152.984 160.031 152.348 160.58 151.711 161.434 151.87 163.142 151.552 165.705 151.95 166.376 152.268 167.169 152.268 168.817 152.745 171.807 154.416 172.722 154.496 173.393 154.257 174.247 152.825 175.407 151.472 175.59 150.677 176.688 149.165 178.397 146.221 180.044 144.152 186.695 133.728 185.719 132.375 184.925 132.216 183.4 132.216 176.261 132.535 174.614 132.375 173.088 132.614 172.173 132.535 170.586 132.694 168.939 132.455 168.024 132.694 164.668 132.853 162.288 132.455 161.495 132.535 159.908 133.171 158.322 133.171 156.736 132.694 155.942 132.932 153.441 132.932 152.647 133.171 149.475 132.932 148.681 133.092 146.973 133.012 146.241 133.251 144.532 133.41 142.946 133.251 138.736 133.569 138.003 133.887 137.881 135.479 137.637 136.354 137.698 139.616 137.515 141.208 136.722 146.3 135.99 148.608 134.403 151.87 133.854 153.462 133.488 155.132 133.122 157.758 133.061 161.1 133.305 162.691 134.586 166.67 135.197 167.465 135.868 167.863 140.566 166.749 141.237 166.192 143.312 164.999 144.593 164.124 145.936 163.328 146.912 162.294 148.803 160.782 149.475 160.145 150.024 159.429 151 157.201 151.732 156.803 152.159 156.008 153.441 154.973 154.966 154.337 156.369 153.223 157.956 152.427 159.42 151.95 160.092 151.552 160.824 151.791 161.678 151.552 164.058 151.552 165.949 152.029 167.414 152.188 170.464 153.621 171.197 154.178 171.99 154.416 172.844 154.416 173.454 153.939 174.431 152.586 177.237 148.29 177.481 147.653 180.349 143.356 180.959 142.799 182.18 140.492 182.668 139.935 184.498 137.07 185.536 135.717 186.939 133.33 185.719 132.296 184.986 132.216 182.363 132.375 179.068 132.296 178.275 132.375 177.42 132.216 176.566 132.375 175.712 132.375 174.858 132.535 172.295 132.375 171.38 132.535 168.756 132.455 167.231 132.853 165.766 132.694 164.119 132.853 162.532 132.773 161.678 132.932 158.261 133.33 157.468 133.092 156.736 133.012 155.82 133.171 154.234 133.012 152.647 133.012 151.854 133.251 149.231 133.012 148.376 133.41 145.936 133.092 145.203 133.251 143.495 133.092 141.908 133.489 140.322 133.41 138.797 133.41 138.247 133.887 137.881 134.763 137.942 135.479 137.759 138.821 138.003 139.616 137.698 142.958 137.393 143.674 137.332 144.55 136.783 147.016 136.173 148.528 135.807 149.404 134.281 152.348 133.732 154.894 133.366 155.61 133.183 158.077 133 160.543 133.732 163.487 135.258 167.465 136.112 167.704 136.844 167.625 137.576 167.386 138.308 167.306 139.895 166.829 141.359 166.272 143.739 165.078 146.241 163.01 149.108 160.066 149.597 159.27 150.939 158.474 151.793 157.042 153.014 155.928 153.258 155.292 153.807 154.655 155.942 153.223 156.614 153.064 157.346 152.507 158.078 152.268 159.664 152.268 160.336 151.95 161.068 152.029 161.861 151.711 162.715 151.631 164.424 151.631 165.095 151.95 165.949 152.029 168.329 152.745 171.014 154.257 172.6 154.655 173.332 154.496 175.407 150.995 176.322 149.881 177.237 148.369 177.786 147.733 178.153 146.857 180.532 143.356 180.959 142.561 184.864 136.195 186.39 134.444 186.817 133.649 187 132.853 186.512 132.137 185.841 131.978 184.986 132.137 183.278 132.216 179.861 132.137 179.007 132.296 174.919 132.455 174.003 132.694 170.831 132.773 167.597 132.535 165.766 132.614 165.034 132.853 162.715 132.853 161.129 133.092 160.336 133.251 159.542 133.649 158.932 133.251 157.346 132.853 155.759 133.012 154.966 132.853 153.319 132.853 152.586 133.33 151.793 133.171 151 133.33 150.268 133.171 147.766 133.41 145.203 133.092 142.58 133.251 141.908 133.012 141.176 133.251 139.407 133.251 138.614 133.41 138.125 134.126 137.82 135.877 137.759 141.367 136.844 145.186 136.844 145.902 136.356 147.494 135.014 150.438 134.159 152.666 133.305 155.928 133.183 157.599 133.366 161.816 133.671 163.487 134.586 165.954 135.319 167.465 136.051 167.943 137.759 167.386 138.492 167.227 140.81 166.352 143.007 165.317 145.264 163.885 147.461 161.498 148.742 160.543 149.658 159.111 150.878 157.997 151.793 156.724 152.953 155.53 155.271 153.462 156.064 153.302 158.139 152.188 158.932 152.268 159.786 152.109 160.275 151.552 161.068 151.791 161.983 151.87 162.837 151.711 164.607 151.711 165.4 152.029 166.254 152.109 167.047 152.586 169.671 153.223 171.014 154.257 171.746 154.576 173.271 154.655 173.759 154.098 174.797 151.95 175.834 150.677 176.2 149.961 176.688 149.404 177.725 147.096 180.166 143.674 180.471 142.958 184.254 137.866 185.414 135.877 186.817 133.887 186.634 133.092 186.024 132.614 185.292 132.375 183.827 132.535 178.458 132.455 177.603 132.614 176.749 132.455 172.966 132.694 172.295 132.455 171.38 132.694 170.647 132.535 168.024 132.694 166.376 132.614 163.814 133.012 162.105 132.853 159.481 133.251 158.566 133.251 157.041 132.853 156.064 133.092 154.356 132.932 151.915 133.251 149.597 132.853 148.742 132.853 147.278 133.171 145.631 133.092 144.044 133.33 142.397 133.33 140.627 133.649 138.858 133.569 138.125 133.808 137.881 134.603 137.82 137.627 138.186 139.935 137.515 143.993 137.149 145.505 135.868 148.528 134.22 153.064 133.915 154.814 133.427 156.406 133.183 159.509 133.549 161.18 133.854 163.646 135.441 167.545 136.173 168.022 140.2 166.988 140.749 166.352 141.481 166.192 143.068 165.476 143.8 165.397 147.278 161.816 148.437 160.782 149.902 158.713 150.756 158.315 150.817 157.599 153.685 154.576 155.942 153.382 156.614 152.825 159.725 152.109 160.397 151.631 161.312 151.87 162.837 151.791 165.034 152.109 166.681 152.507 168.085 152.984 170.403 154.019 172.844 154.814 173.454 154.337 174.308 152.905 175.041 151.313 176.993 148.687 177.298 147.892 180.227 143.913 181.508 141.685 184.01 138.184 186.512 134.206 186.634 133.33 186.085 132.853 185.353 132.455 181.447 132.137 179.739 132.296 174.675 132.535 173.088 132.296 171.624 132.535 170.037 132.535 169.244 132.853 166.742 132.932 165.949 132.773 162.654 132.853 161.861 132.932 161.129 133.251 160.275 133.171 159.603 133.489 158.749 133.489 158.017 133.171 156.553 132.932 153.99 133.092 153.136 133.41 151.488 133.489 146.79 133.489 145.997 133.171 145.142 133.33 143.434 133.33 140.993 133.808 138.614 133.569 138.003 134.126 137.881 134.922 138.003 141.526 137.332 145.505 137.088 146.38 135.502 150.199 135.014 150.915 135.014 151.711 134.159 153.223 133.61 155.53 133.366 157.122 133.305 160.384 133.854 163.805 134.708 166.192 135.563 167.625"><title>2020-10-11 10.5km</title></polyline><polyline fill="none" stroke="#4dd2ff" stroke-linecap="round" stroke-linejoin="round" stroke-width=".5" points="25.594 229.105 25.041 229.746 22.522 229.826 22.584 230.627 23.198 231.188 23.505 231.909 23.874 233.591 23.014 236.075 22.829 238.799 22.952 240.401 23.444 242.083 23.997 242.644 25.717 245.208 27.068 246.169 27.744 246.169 29.157 246.65 29.894 246.409 31.184 247.371 32.474 246.489 32.966 245.848 36.468 243.525 38.802 242.644 40.276 242.404 42.918 241.603 45.56 241.843 49.061 242.964 51.334 244.006 52.133 244.166 53.608 244.086 55.205 241.442 57.355 238.718 58.031 237.357 59.444 235.354 63.314 229.025 63.928 228.384 65.833 225.66 66.939 223.497 66.017 222.135 64.42 221.975 58.768 222.135 54.59 222.135 52.072 222.375 43.962 222.375 42.242 222.455 41.444 222.856 39.846 222.536 35.608 222.696 33.887 222.375 32.167 222.776 29.771 222.776 29.034 223.096 28.174 223.257 26.638 222.696 24.611 223.337 23.689 223.176 22.891 223.176 22.031 223.497 18.222 223.657 17.73 224.458 17.792 227.663 18.038 228.464 17.177 234.072 16.44 236.475 16.502 237.357 13.799 243.285 13.061 248.332 13.184 250.735 13.614 253.219 14.352 255.382 14.413 256.103 15.212 257.625 15.949 257.705 19.266 257.064 20.003 256.663 23.075 255.782 25.102 254.5 26.761 252.578 28.604 251.136 29.464 249.614 31.246 247.931 31.43 247.13 32.167 246.73 35.915 243.445 38.188 242.243 39.908 242.083 40.522 241.603 41.997 241.763 43.655 241.522 44.331 241.763 46.788 242.003 48.324 242.804 49.246 242.964 49.922 243.525 52.256 244.567 53.177 244.406 53.853 244.006 57.724 237.677 58.338 237.036 61.102 232.95 62.761 230.066 64.666 227.503 66.816 223.978 66.939 223.096 65.771 222.135 61.778 222.295 60.181 222.055 51.273 222.455 49.614 222.295 47.771 222.536 45.314 222.455 44.454 222.696 42.857 222.536 40.338 223.016 37.942 222.616 35.239 222.936 31.799 223.176 30.263 222.936 28.543 223.096 26.884 223.016 25.348 223.337 22.706 223.016 21.109 223.417 18.529 223.497 17.976 224.058 17.792 224.779 17.73 228.704 18.222 229.265 18.099 230.948 17.423 234.072 16.87 236.395 16.072 238.558 14.229 242.404 13.43 245.608 13 249.053 13.799 254.02 15.089 256.984 15.457 257.545 16.133 258.025 19.328 257.304 22.952 255.302 24.181 254.18 24.98 253.86 26.945 252.498 27.314 251.777 28.543 250.735 29.956 248.572 31.737 246.97 33.334 244.967 35.423 243.766 36.099 243.525 36.775 242.964 38.311 242.324 39.171 242.404 40.584 241.362 41.259 241.683 44.577 241.763 45.314 242.243 48.754 243.045 51.765 244.567 53.423 244.406 56.556 239.6 58.952 235.514 60.365 233.511 67 223.497 66.14 222.215 65.341 222.055 61.041 221.895 57.908 222.055 57.048 222.295 52.993 222.135 48.201 222.536 46.42 222.375 43.962 222.776 40.584 222.856 38.188 222.536 34.87 222.776 33.212 222.696 31.553 223.016 30.693 222.936 28.85 223.337 18.529 223.257 18.038 223.817 17.915 224.699 17.73 226.141 17.853 230.948 17.116 233.912 16.87 236.315 14.536 241.603 14.29 243.125 13.491 245.368 13.184 248.732 13.307 251.857 13.86 254.18 15.027 257.144 15.519 257.865 16.317 257.945 17.853 257.384 19.451 257.064 23.259 255.542 23.935 255.862 24.795 254.5 27.314 252.337 27.805 251.536 29.034 250.415 29.771 249.053 31 248.011 31.184 247.21 31.676 246.569 33.396 244.807 36.16 243.125 37.696 242.484 38.495 242.324 39.232 242.484 39.846 241.843 40.584 242.003 43.041 241.763 45.56 241.923 46.174 242.564 50.167 243.445 51.519 244.487 53.177 244.967 54.222 243.766 55.389 241.763 55.573 240.962 56.986 239.039 57.969 237.036 65.096 226.782 66.816 224.058 67 223.337 65.894 222.215 65.157 221.975 56.065 222.215 54.468 221.975 52.809 222.135 52.072 221.895 49.737 222.135 48.263 222.616 45.068 222.616 41.014 222.856 40.154 223.096 37.573 222.536 36.775 222.616 35.976 222.455 32.106 223.016 26.392 222.856 24.611 223.016 21.969 222.936 20.433 223.497 18.898 223.497 18.038 223.817 17.669 225.259 17.915 229.425 17.423 233.271 15.949 238.478 14.72 240.641 14.229 242.324 13.184 248.172 13.43 252.418 13.799 253.86 15.396 257.705 16.072 258.025 16.87 258.025 19.266 257.465 24.488 254.741 25.778 253.699 26.515 253.459 26.823 252.738 27.928 251.456 28.666 251.056 29.526 249.453 30.509 248.252 32.659 246.009 33.273 245.608 33.765 244.967 35.239 244.326 36.59 243.365 39.601 242.243 40.154 241.763 43.471 241.763 45.805 242.083 46.604 242.324 47.218 242.884 49.614 243.365 51.887 244.727 53.485 244.967 56.802 239.52 57.785 237.276 58.399 236.876 59.444 235.514 61.901 231.268 62.515 230.627 65.956 225.179 67 223.897 66.816 223.176 66.201 222.455 65.587 222.135 60.795 222.055 52.809 222.215 47.894 222.776 46.113 222.455 44.515 222.455 43.594 222.696 41.321 222.616 39.724 222.856 38.003 222.616 34.686 222.616 33.089 222.856 30.693 222.696 26.515 222.856 23.812 223.257 22.952 223.016 20.556 223.417 19.02 223.337 18.16 223.577 17.73 224.138 18.038 225.9 17.669 232.229 17.239 233.751 16.87 236.315 16.01 238.558 13.922 243.205 13.43 245.688 13.123 249.854 13.553 253.058 14.29 255.462 15.396 257.625 16.133 258.105 17.792 257.785 19.328 257.224 24.611 254.661 27.805 252.097 29.096 249.854 30.693 248.092 31.553 246.81 32.966 246.169 33.396 245.528 34.686 244.647 35.362 244.406 36.16 244.406 37.451 243.285 39.109 242.884 42.427 242.484 43.84 242.003 47.096 242.163 49.123 243.045 49.799 243.525 51.887 244.647 52.625 244.807 53.423 244.567 55.143 241.683 56.556 239.84 57.724 237.677 60.672 233.751 61.348 232.229 66.816 223.897 66.693 223.016 65.464 222.215 56.679 222.375 55.143 222.055 51.027 222.536 50.167 222.375 47.771 222.696 44.208 222.776 41.997 222.536 40.461 222.856 39.724 222.696 38.925 222.856 36.529 222.455 30.017 222.856 29.096 222.616 26.515 222.616 24.918 223.257 20.003 223.257 18.529 223.417 17.915 223.897 18.099 225.34 17.792 226.942 17.792 231.188 17.177 235.194 14.536 242.163 13.799 243.766 13.123 247.611 13.061 250.094 13.676 253.539 15.273 257.384 15.887 257.865"><title>2020-10-16 13.1km</title></polyline><polyline fill="none" stroke="#4dd2ff" stroke-linecap="round" stroke-linejoin="round" stroke-width=".5" points="80.727 231.641 80.683 231.126 80.332 231.756 79.893 232.042 79.849 232.615 80.068 233.073 80.507 234.103 80.902 234.504 81.034 236.107 80.42 236.164 80.024 236.68 80.112 237.882 79.893 238.454 79.849 239.027 79.98 240.802 80.551 241.202 80.902 241.661 80.946 242.176 81.517 242.348 82.746 243.779 83.888 243.893 84.678 244.809 85.293 245.038 85.688 245.382 85.907 244.809 86.785 244.065 87.971 242.691 89.551 242.061 90.385 241.432 91.659 241.317 92.141 241.031 92.756 240.859 93.415 240.916 94.073 240.744 95.39 240.973 95.961 240.744 97.102 241.031 97.805 241.088 101.976 243.321 103.029 244.008 104.215 245.267 106.19 247.099 108.078 249.275 108.649 249.676 109.878 250.821 110.405 250.935 110.932 251.336 112.644 253.168 113.259 253.225 113.785 252.996 114.356 252.08 116.156 250.592 116.639 250.248 117.429 249.389 117.912 249.16 119.493 247.443 119.8 246.412 120.678 245.783 121.029 245.325 121.512 244.981 122.215 243.893 125.112 240.973 126.649 238.912 126.605 238.34 126.078 237.481 124.717 236.451 123.093 234.79 122.522 234.447 121.205 233.187 117.473 229.981 116.376 229.294 115.146 228.092 114.093 227.462 113.566 227.519 111.195 226.718 105.62 226.603 102.546 226.832 97.761 226.775 97.19 226.89 93.59 226.89 92.537 227.29 91.351 227.29 90.122 226.947 89.551 226.89 87.18 227.233 84.81 227.119 83.712 227.519 82.483 227.348 81.341 227.577 80.727 227.462 80.156 227.634 79.541 227.577 77.829 227.691 77.259 227.577 76.688 227.863 76.512 228.378 76.468 233.187 75.941 236.05 75.239 237.767 75.063 238.855 74.712 239.485 73.659 242.462 73.044 245.439 73.044 246.584 73.307 248.359 73.571 248.874 73.746 250.019 74.537 252.252 75.063 252.424 77.215 251.794 77.741 251.794 78.971 251.336 79.454 250.992 80.507 250.477 81.429 249.676 81.912 249.447 83.712 247.729 84.502 246.699 84.678 246.183 85.161 245.897 85.82 244.924 87.971 242.748 88.541 242.348 89.068 242.29 89.551 241.89 91.088 241.317 91.483 240.916 92.668 240.916 93.239 240.802 93.898 240.916 95.127 240.744 95.741 240.744 96.224 241.088 97.498 241.26 99.166 241.832 100.702 242.634 101.229 242.748 101.712 243.149 102.195 243.378 103.073 244.065 103.38 244.58 104.302 245.267 104.654 245.725 105.137 246.069 107.068 248.302 109.351 250.305 109.922 250.649 111.941 252.309 112.776 253.339 113.39 253.397 113.917 253.11 114.751 252.309 115.059 251.737 116.727 249.905 117.254 249.561 118.044 248.645 118.615 248.302 118.79 247.786 119.449 246.928 119.624 246.412 120.151 246.183 120.59 245.725 122.083 243.893 124.673 241.26 127 238.454 126.254 237.481 124.893 236.508 124.059 235.649 123.62 235.363 122.302 233.989 120.502 232.672 119.141 231.47 116.946 230.439 116.595 229.809 115.585 228.893 114.751 227.92 112.337 227.348 110.712 226.603 109.527 226.832 108.429 226.603 107.815 226.718 104.741 226.603 103.117 226.832 97.761 227.004 95.961 226.947 92.844 227.348 92.229 227.176 91.088 227.405 90.561 227.29 87.532 227.176 87.005 227.405 85.073 227.462 82.088 227.233 80.42 227.691 79.278 227.577 76.82 227.691 76.512 228.206 76.468 228.836 76.512 231.756 76.38 232.958 76.468 233.588 76.38 234.218 75.678 237.138 75.327 237.653 73.834 241.661 73.351 243.321 73.044 245.725 73 246.756 73.176 248.015 73.878 250.305 74.624 251.966 75.151 252.366 78.18 251.737 78.839 251.508 80.946 250.134 81.254 249.733 81.737 249.504 83.493 248.015 84.107 247.042 85.38 245.668 85.863 244.638 86.785 243.722 87.4 243.493 88.585 242.348 89.156 242.29 89.683 241.947 90.868 241.661 91.571 241.661 94.293 240.802 97.278 241.088 98.332 241.432 98.859 241.775 99.956 242.119 101.493 243.206 103.073 243.951 105.576 246.47 107.2 248.416 109.746 250.992 110.405 251.221 111.283 251.851 112.556 253.282 113.171 253.282 114.093 252.71 114.795 251.966 115.322 251.794 115.585 251.221 117.429 249.561 118.527 248.302 119.229 247.214 119.449 246.641 121.556 244.58 121.82 244.122 122.654 243.149 124.585 241.603 126.78 238.397 126.298 237.367 123.883 235.706 122.039 233.932 121.776 233.474 119.8 231.985 118.527 230.725 116.595 229.466 115.717 228.493 114.137 227.577 113.039 227.462 111.239 226.89 109.966 226.718 105.751 226.775 103.951 226.661 98.463 227.061 97.366 226.947 96.268 227.176 94.468 227.233 92.141 227.519 90.912 227.405 90.341 227.176 88.541 227.29 88.015 227.176 84.459 227.634 82.527 227.634 81.868 227.806 79.98 227.806 79.41 227.691 76.951 227.806 76.512 228.951 76.424 232.958 75.854 236.737 73.746 241.832 73 245.611 73 246.928 73.571 249.332 74.624 251.908 74.932 252.366 75.546 252.595 77.961 251.851 79.19 250.878 80.332 250.649 81.693 249.561 84.59 246.813 86.522 244.237 87.971 242.977 89.507 242.176 91.79 241.317 92.273 241.546 92.58 241.031 93.107 240.916 94.337 240.859 95.522 241.031 96.093 240.973 97.322 241.145 99.078 241.775 100.176 242.577 102.985 244.008 106.015 247.214 107.771 248.76 108.517 249.618 110.624 251.393 112.776 253.397 113.346 253.225 113.873 252.824 114.576 251.908 117.298 249.618 118.483 248.302 118.922 248.015 119.844 246.412 120.722 245.496 121.249 245.096 122.083 244.065 123.927 242.405 124.498 241.432 126.605 238.683 126.649 238.168 126.341 237.538 125.463 236.622 124.454 236.05 122.083 233.932 121.512 233.588 120.327 232.443 119.449 231.87 117.605 230.267 116.024 229.237 114.356 227.577 113.873 227.29 111.546 227.004 110.317 226.661 107.946 226.775 107.288 226.661 106.015 226.832 103.644 226.775 100.615 226.832 97.629 227.119 96.093 227.405 94.863 227.348 92.976 227.577 92.449 227.348 91.878 227.519 91.22 227.519 90.078 227.29 87.927 227.29 87.356 227.519 85.512 227.577 85.029 227.92 84.371 227.92 83.8 227.806 83.141 227.92 81.254 227.92 80.112 227.748 79.585 227.977 77.215 227.92 76.732 228.378 76.6 229.58 76.468 230.783 76.556 233.645 76.337 234.848 73.922 241.775 73.307 244.294"><title>2020-10-23 11.5km</title></polyline><polyline fill="none" stroke="#ff4300" stroke-linecap="round" stroke-linejoin="round" stroke-width=".5" points="139.915 232.189 140.84 235.463 140.003 238.277 139.959 240.173 140.179 240.689 141.457 242.068 141.985 243.159 142.91 244.021 144.144 244.423 145.509 245.399 147.579 243.389 149.121 242.355 149.693 242.298 151.719 241.092 154.01 240.747 158.106 241.436 163.524 244.136 169.162 250.109 171.1 251.488 173.258 253.498 174.976 251.775 178.675 248.444 182.287 243.734 184.137 242.011 186.912 238.909 186.56 237.76 186.163 237.358 185.194 236.784 179.028 231.27 175.9 229.144 175.152 228.283 169.998 226.445 161.674 226.847 161.101 226.674 158.062 227.077 156.785 226.904 152.732 227.479 150.398 227.134 147.976 227.249 147.491 227.536 145.597 227.306 143.263 227.249 137.052 227.593 136.612 227.996 136.524 228.57 136.656 231.04 136.347 231.672 136.392 233.452 135.907 236.497 134.013 240.919 133.176 243.734 133 246.203 133.881 250.339 134.63 252.177 135.246 252.464 137.14 252.177 140.4 250.684 142.69 248.731 143.395 247.869 144.364 247.237 145.729 245.457 146.522 244.71 147.051 244.538 147.535 243.446 149.517 242.355 149.869 241.896 151.675 241.436 152.16 241.034 155.067 240.747 158.502 241.494 163.876 244.48 166.034 247.18 168.589 249.592 172.993 253.498 173.522 253.326 174.315 252.521 175.856 251.603 178.675 248.846 179.909 246.835 185.37 241.034 186.868 239.081 186.868 238.507 186.251 237.53 175.108 228.11 172.729 227.823 171.76 227.077 170.527 226.674 160.925 226.847 158.018 226.674 156.168 227.134 153.701 227.019 151.235 227.249 150.618 227.019 145.817 227.019 137.052 227.479 136.656 227.881 136.568 228.57 136.436 232.763 136.039 236.037 133.705 241.723 133.132 245.227 133.264 248.903 134.806 252.292 135.334 252.521 137.713 252.177 138.814 251.43 142.029 249.535 144.1 247.525 146.39 244.653 148.945 242.7 149.429 242.642 150.486 241.838 151.631 241.494 152.512 240.747 154.847 240.689 157.798 241.321 159.56 242.011 163.832 244.308 164.449 245.342 166.607 247.582 172.905 253.326 173.39 253.498 178.499 248.788 179.909 246.778 185.855 240.804 186.868 239.368 187 238.737 186.427 237.645 175.196 228.168 172.993 227.708 170.791 226.732 164.14 226.732 163.127 226.904 160.22 226.732 155.419 226.789 152.072 227.306 150.398 227.077 149.209 227.249 148.108 227.077 146.258 227.306 142.602 227.077 142.029 227.364 136.788 227.593 136.524 228.225 136.48 232.533 135.863 236.152 135.246 238.392 133.749 241.666 133.22 244.653 133.308 248.788 134.63 252.119 135.29 252.349 136.568 252.292 140.444 250.741 142.514 249.248 144.011 247.41 145.377 246.261 145.949 245.17 148.68 242.757 150.398 242.125 151.631 241.781 153.261 241.838 155.463 241.321 156.608 241.666 158.414 241.781 161.321 242.93 163.347 244.193 164.537 245.457 165.462 246.089 169.073 250.052 173.126 253.498 176.209 250.856 179.512 247.008 180.922 245.974 181.406 245.055 185.723 240.747 187 238.794 186.471 237.76 185.591 236.956 184.622 236.267 181.847 233.567 175.24 228.225 174.183 227.708 171.98 227.364 170.967 226.674 167.047 226.789 164.449 226.56 156.036 226.56 152.644 227.191 150.927 227.019 147.315 227.249 145.465 227.134 144.408 227.421 142.558 227.191 139.034 227.593 137.316 227.479 136.788 227.651 136.524 228.225 136.568 232.361 135.951 236.209 133.793 241.723 133.088 245.227 133.264 248.214 134.542 251.947 135.026 252.407 136.171 252.579 137.405 252.349 140.62 250.741 143.747 247.927 146.39 244.595 147.051 244.71 149.121 243.504 150.75 242.987 151.411 243.044 151.94 242.011 153.79 241.781 154.274 241.379 154.847 241.436 155.904 241.034 157.005 240.977 158.723 241.551 163.436 244.193 168.237 249.075 173.302 253.44 174.315 252.809 174.623 252.292 175.284 252.062 176.209 251.143 181.362 244.768 184.181 241.953 185.15 241.264 186.824 238.794 186.383 237.588 175.46 228.398 174.447 227.823 173.39 228.11 172.905 227.938 170.967 226.674 161.806 226.56 156.3 227.077 153.878 227.019 152.732 227.249 149.605 226.904 144.32 227.479 141.985 227.306 136.876 227.651 136.524 228.11 136.392 230.006 136.612 231.844 136.436 234.142 135.907 236.382 133.925 241.608 133.22 244.595 133.22 247.582 133.617 249.362 134.674 252.062 135.775 252.579 138.55 251.775 141.545 250.052 143.263 248.099 144.672 246.95 146.918 244.078 149.693 242.585 150.002 242.183 150.618 242.413 152.468 240.862 154.67 240.919 155.816 241.206 156.829 240.862 159.119 241.896 163.303 244.308 169.25 250.109 171.055 251.717 172.905 253.326 173.522 253.383 174.007 253.096 179.424 247.639 179.644 247.065 181.582 244.768 184.049 242.183 185.326 241.034 186.78 238.909 186.868 238.392 186.295 237.473 185.414 236.669 183.124 235.061 180.834 233.108 178.984 231.04 175.064 227.996 174.447 227.766 173.214 227.881 170.879 226.789 164.889 226.56 161.145 226.732 157.445 227.306 155.728 227.134 152.688 227.536 150.354 227.191 149.825 227.421 145.333 227.364 142.778 227.593 142.162 227.479 139.915 227.881 136.964 227.881 136.612 228.34 136.48 233.739 136.127 235.577 134.542 239.713 133.264 244.308 133.308 247.008 133.749 249.362 134.542 251.717 135.555 252.521 138.021 251.89 140.796 250.339 144.628 247.008 146.786 244.078 148.152 242.815 150.09 241.723 150.75 241.666 151.719 241.149 152.821 240.919 155.595 241.551 156.168 241.379 157.357 241.608 159.868 242.298 161.894 243.274 163.876 244.595 164.669 245.399 167.091 248.214 172.421 252.981 173.302 253.555 175.9 251.258 176.914 249.937 177.883 249.248 179.644 246.663 180.922 245.514 182.375 243.619 184.533 241.723 186.824 238.794 186.56 237.588 178.279 230.408 175.152 228.053 174.579 227.823 173.346 227.881 170.615 226.56 161.101 226.674 152.821 227.306 150.354 227.134 147.799 227.191 147.315 227.479 144.936 227.077 143.835 227.364 143.175 227.191 140.752 227.593 137.449 227.708 136.832 227.938 136.612 228.513 136.656 233.395 136.127 235.922 133.925 241.608 133.396 243.849 133.132 246.548 133.573 248.96 134.85 252.005 135.246 252.407 136.392 252.292 138.682 251.603 140.091 250.798 143.175 248.271 144.672 246.548"><title>2020-10-27 20.4km</title></polyline></svg>