<?xml version="1.0" encoding="utf-8" ?>
<svg baseProfile="full" height="300mm" version="1.1" viewBox="0,0,200,300" width="200mm" xmlns="http://www.w3.org/2000/svg" xmlns:ev="http://www.w3.org/2001/xml-events" xmlns:xlink="http://www.w3.org/1999/xlink"><defs /><rect fill="#222222" height="300" width="200" x="0" y="0" /><text fill="#FFFFFF" style="font-size:12px; font-family:Arial; font-weight:bold;" x="10" y="20">Picked Over 10km Runs</text><text fill="#FFFFFF" style="font-size:4px; font-family:Arial" x="10" y="280">ATHLETE</text><text fill="#FFFFFF" style="font-size:9px; font-family:Arial" x="10" y="290">DuanFei</text><text fill="#FFFFFF" style="font-size:4px; font-family:Arial" x="120" y="280">STATISTICS</text><text fill="#FFFFFF" style="font-size:3px; font-family:Arial" x="120" y="285">Number: 30</text><text fill="#FFFFFF" style="font-size:3px; font-family:Arial" x="120" y="290">Weekly: 2.3</text><text fill="#FFFFFF" style="font-size:3px; font-family:Arial" x="141" y="285">Total: 149.7 km</text><text fill="#FFFFFF" style="font-size:3px; font-family:Arial" x="141" y="290">Avg: 5.0 km</text><text fill="#FFFFFF" style="font-size:3px; font-family:Arial" x="167" y="285">Min: 2.0 km</text><text fill="#FFFFFF" style="font-size:3px; font-family:Arial" x="167" y="290">Max: 11.0 km</text><polyline fill="none" points="24.742789547657594,33.16300156796933 30.415459436364472,32.87605423113564 35.429367661243305,33.712983424717095 37.991218579001725,32.99561564481701 41.32162477192469,33.97601797533571 40.95564606948756,47.103627414791845 38.72317598410882,62.57408073343686 36.05153145547956,64.20000000001164 14.67837522807531,56.1659856919141 14.934560319874436,48.0839973508555 17.167030405253172,31.89564937495743 23.681451310170814,32.20650969495182 24.8525831582956,33.09126475182711 28.58556592394598,32.708668195438804 27.52422768669203,31.800000000017462 25.328355471603572,32.13477271804004" stroke="#ffff00" stroke-linecap="round" stroke-linejoin="round" stroke-width="0.5"><title>2020-06-06 2.0km</title></polyline><polyline fill="none" points="59.323084235191345,32.52757151678088 59.21172909787856,31.94551440118812 78.14210243267007,33.52191727931495 75.09839534736238,61.96893998954329 73.79925207933411,63.44823106308468 71.349439059617,64.20000000001164 64.371183790965,62.33270055803587 49.85789756756276,56.100227254180936 50.08060784218833,49.21287616391783 53.309906822862104,31.79999999998836 75.50669751735404,33.47341266099829" stroke="#fffb00" stroke-linecap="round" stroke-linejoin="round" stroke-width="0.5"><title>2020-06-07 2.2km</title></polyline><polyline fill="none" points="95.04099066369236,33.26405284224893 95.62872510356829,32.376021387201035 104.66514211636968,33.50406102757552 111.02002074755728,33.19205036046333 113.6280923243612,34.7281006827252 110.90982054010965,61.68008784644189 109.73435166035779,63.64802050974686 107.05281327851117,64.20000000001164 95.88585892110132,60.64811954519246 86.18824066314846,55.70423693815246 89.01671265484765,32.496025745465886 90.85338277951814,31.79999999998836 100.33060062257573,32.52002661302686 112.08528941986151,33.93607542288373 113.81175933685154,34.89610585264745" stroke="#fff900" stroke-linecap="round" stroke-linejoin="round" stroke-width="0.5"><title>2020-06-08 2.2km</title></polyline><polyline fill="none" points="131.36916117719375,32.87209829947096 136.1458531911485,32.30031287611928 144.67826488032006,32.919747050036676 149.41849359683692,34.51597711068462 147.23069572774693,58.93516791117145 145.62631062371656,63.532966054743156 143.43851275462657,64.20000000001164 136.00000000023283,62.175072291633114 122.83674948778935,56.0764082611131 125.06101065478288,32.610030075738905 126.70185905648395,31.800000000017462 133.44756915257312,32.157366400031606 143.5843659460079,32.919747050036676 149.2361771077849,34.27773419843288 147.01191594079137,60.91246543065063 146.1003334952984,63.12798064915114 143.83960903063416,64.15235475284862 135.7447569151409,61.88919936833554 122.58150640316308,56.433754267694894 124.73284097434953,37.255761012726" stroke="#ffd500" stroke-linecap="round" stroke-linejoin="round" stroke-width="0.5"><title>2020-06-09 3.5km</title></polyline><polyline fill="none" points="167.1189377969131,33.44916034996277 167.78706798446365,32.40630968226469 172.46397929708473,32.47906678717118 182.33745873440057,33.06112318561645 185.71522801578976,34.12822455097921 182.74576051556505,62.720711494475836 181.29814510955475,64.03024583787192 179.14528117212467,64.20000000001164 158.28477198421024,56.24573349079583 161.5140678905882,31.84850480570458 182.78287885943428,33.01261851558229 185.4925179532729,33.934206316334894 185.67810967192054,34.88004438820644 182.74576051556505,62.47820469996077 181.00119835953228,64.07874703392736 179.3679912344087,64.20000000001164 161.92236967175268,58.28281565985526 158.35900867171586,56.05172516530729 161.14288445329294,32.33355256530922 165.78267742181197,31.800000000017462" stroke="#ffd000" stroke-linecap="round" stroke-linejoin="round" stroke-width="0.5"><title>2020-06-10 3.7km</title></polyline><polyline fill="none" points="23.28505731304176,73.66312585782725 37.96609454229474,73.71144969831221 41.55314897862263,74.91954394881031 39.11247276421636,102.39069411274977 37.892134656896815,104.34767500750604 35.63635815563612,105.0 22.212638976285234,100.69946890539723 14.409871078794822,96.83378639482544 16.48074786644429,75.93434050490032 17.51618626061827,72.60000000000582 39.55623207590543,73.97723072362714 41.51616903627291,74.89538209699094 38.96455299365334,102.97054122941336 38.18797419825569,104.20271376427263 35.74729798361659,104.95167966393637 22.43451863201335,100.94107291239197 14.409871078794822,97.0029107289738 17.18336677667685,72.76913383443025 32.788902572356164,74.21884969552048 37.33743551746011,73.7356116164301 41.59012892143801,74.89538209699094" stroke="#ffc600" stroke-linecap="round" stroke-linejoin="round" stroke-width="0.5"><title>2020-06-11 4.0km</title></polyline><polyline fill="none" points="59.325825138017535,74.22244446590776 59.7275120401755,73.4589419575641 66.3370874307584,73.31578508485109 69.84271857701242,74.19858503332944 72.50845892797224,73.4112230053288 77.36521874507889,75.10524253558833 74.99161432310939,102.66193815920269 71.9241870699916,105.0 50.34264532569796,97.34160676554893 53.446589569794014,73.22034714306938 70.5000244169496,73.7452555585769 72.54497591895051,75.24839880692889 77.4382527275011,75.1291019176424 75.02813131408766,102.49493325105868 73.7500366254244,104.18883714138065 71.59553415025584,104.90456915568211 50.598264263477176,97.03145086806035 53.70220850757323,72.91017368447501 65.35112867085263,73.48280143158627 77.65735467406921,75.31997692468576 75.2107162696775,101.70762351638405 74.1517235278152,104.04569059432833 71.85115308780223,104.95228458047495 50.74433222785592,97.03145086806035 53.70220850757323,73.05333069345215 57.60952655621804,72.60000000000582 59.289308146806434,73.33964456699323" stroke="red" stroke-linecap="round" stroke-linejoin="round" stroke-width="0.5"><title>2020-06-12 5.6km</title></polyline><polyline fill="none" points="95.53689109743573,73.58403606788488 110.52412099274807,74.4720666774374 113.49952692794614,75.40809694936615 111.14858890511096,103.5120536624745 109.16498494846746,104.95200181161636 107.0344473652076,105.0 92.34108472289518,100.17615519702667 86.39027285249904,96.72023300064029 89.18201175471768,72.91201168080443 108.54051703610457,74.08805366672459 113.60972714773379,75.43209769864916 111.0383886853233,101.83210804057308 109.75271945423447,104.08803350260132 106.48344626603648,104.64001345646102 92.12068428308703,99.96016087627504 86.46373966569081,96.84023076604353 87.0882075780537,86.92830210123793 89.36567878746428,72.62400090653682 90.13708032644354,72.60000000000582" stroke="#ffd200" stroke-linecap="round" stroke-linejoin="round" stroke-width="0.5"><title>2020-06-13 3.6km</title></polyline><polyline fill="none" points="130.2157171932049,74.86278363552992 132.20521573815495,73.32216628422611 145.5422245033551,74.11654779550736 149.70543442177586,75.32015334861353 148.34225949272513,96.93633525757468 147.236982522998,102.66516337957 146.1685481192544,104.20567556269816 143.47904082690366,104.87964790689875 133.45786297041923,101.41349316562992 130.6209854152985,101.293140068301 122.29456557845697,96.93633525757468 125.20512826461345,73.41845503047807 125.97882214351557,72.60000000000582 141.2316443223972,74.23690850252751 145.68959476565942,73.92397059421637 149.63174929027446,75.32015334861353 147.34751022001728,101.91897580612567 146.05802042223513,104.2778869359172 143.6632536551915,105.0 133.34733527339995,101.5819874452136 130.39993002125993,101.3653519306099 122.44193584099412,97.05668957473245 125.38934109313414,73.08144432431436 131.06309620314278,73.24994971044362 131.46836442523636,74.69427888171049" stroke="#ffcc00" stroke-linecap="round" stroke-linejoin="round" stroke-width="0.5"><title>2020-06-14 3.8km</title></polyline><polyline fill="none" points="167.65715451072901,73.57009508399642 180.72280931589194,73.5943474333908 185.73378488025628,75.29200850604684 183.8778680046089,98.28253452191711 182.69008120382205,103.39945811440703 181.35382105363533,104.75749403401278 179.42366750282235,105.0 166.5064860477578,100.7803768144804 158.3033334570937,96.77897202118766 161.2356821205467,72.84252397465752 167.50868116063066,72.91528114062385 180.35162594076246,73.69135681676562 185.54819319257513,74.97672909573885 184.95429979241453,87.58772646600846 182.91279122885317,103.22970332484692 181.4280577285681,104.78174463676987 179.2009574775584,104.97574940961204 167.58291783579625,101.14413905344554 158.2662151195109,96.80322307063034 161.1985637829639,72.60000000000582 166.84055108530447,73.0122906761535 167.3973261481151,75.80130553015624" stroke="#ffce00" stroke-linecap="round" stroke-linejoin="round" stroke-width="0.5"><title>2020-06-15 3.7km</title></polyline><polyline fill="none" points="23.735767216654494,114.40878413882456 37.226917488267645,114.45682141935686 41.454389644553885,116.04204866589862 40.05748580163345,136.31322599219857 38.329736311454326,144.76727275463054 36.52846556692384,145.79999999998836 34.54339168500155,145.5838479915692 19.69209819776006,140.6363389059552 14.50884972838685,137.99444174784003 15.060259140096605,131.3896276539308 17.633503060787916,113.8803736953414 37.484241880709305,114.60093322946341 41.52791089913808,115.87391878117342 39.28551262523979,143.1581346488383 37.0431143513415,145.5838479915692 34.2125460379757,145.43974659219384 22.66970902075991,141.57300762701198 14.472089100861922,138.01845906800008 16.751248002285138,117.00278959961724 17.412939296104014,113.97644836985273 18.58927937457338,113.39999999996508 29.396903842920437,113.80831767537165 32.92592407739721,114.74504499105387 37.741566272452474,114.40878413882456 41.67495340900496,116.11410431042896 39.35903388005681,142.5336913697829 38.44001819402911,144.55112022548565 36.52846556692384,145.70393245422747 27.88971811765805,143.710526022478 14.325046590995044,137.87435512669617 16.310120473150164,122.40691725019133" stroke="red" stroke-linecap="round" stroke-linejoin="round" stroke-width="0.5"><title>2020-06-16 5.3km</title></polyline><polyline fill="none" points="59.22758520557545,115.76795758469962 59.65817902167328,114.94737974030431 64.00000000023283,114.40814199537272 72.5759935034439,114.61914815212367 76.02074403176084,115.53350693624816 77.31252548005432,116.49475376083865 76.8819316639565,124.27842723624781 74.94425949151628,143.104003026383 73.11423577321693,145.51867938780924 71.32009487319738,145.79999999998836 52.94809205480851,139.61090286713443 50.50806043040939,137.82917612511665 53.306920234812424,114.12680028725299 58.438163209240884,113.39999999999418 68.30593816074543,114.94737974030431 72.50422786734998,114.61914815212367 77.49193956982344,116.63542384293396 75.55426739761606,138.86070305792964 74.3342515854165,144.15896043143584 71.42774332733825,145.63589633247466 57.14638176141307,140.64242540980922" stroke="#ffe100" stroke-linecap="round" stroke-linejoin="round" stroke-width="0.5"><title>2020-07-05 3.1km</title></polyline><polyline fill="none" points="95.40034406050108,114.99658039305359 100.75463105225936,113.86958309967304 104.09656857093796,114.71483135368908 108.6602896982804,114.40960301421 113.0443367655389,116.38184374858974 111.13979172799736,140.42365153567516 110.4929651117418,144.25049179355847 109.37898593908176,145.2834979009349 107.58224533754401,145.79999999998836 105.13867811951786,145.1191561903106 86.84785879822448,137.84110155983944 88.24931646720506,122.39242495107464 89.39923045202158,114.48004034295445 91.48344954941422,113.51739582422306 97.48456315812655,114.2922074397793 101.00617473665625,113.39999999999418 103.91689451085404,114.73831044751569 108.33687639026903,114.85570589691633 113.15214120177552,116.5931547054497 111.28353097639047,140.44712918970617 110.63670435990207,143.73398778564297 108.26500676618889,145.75304529009736 95.04099594033323,141.64448780476232 86.88379361014813,137.91153495191247 88.75240383530036,119.8802003210294" stroke="#ffd500" stroke-linecap="round" stroke-linejoin="round" stroke-width="0.5"><title>2020-07-08 3.5km</title></polyline><polyline fill="none" points="131.51310992287472,115.00122143566841 136.19821602734737,114.12996935189585 143.04567879531533,114.71865339006763 149.10027745342813,116.7201729544613 146.72168512339704,143.86925600311952 144.81160340388305,145.49390703087556 142.9736002399586,145.75290878856322 122.8276439907495,138.07697081877268 125.56662909802981,114.31834833396715 130.14361736923456,113.39999999999418 147.62266706652008,115.94311354929232 149.06423817574978,116.5553422915691 149.20839528669603,119.3574547728931 147.8028634551447,135.08661349740578 146.72168512339704,143.233521283546 144.70348557061516,145.6351807367173 142.07261829660274,145.423270160245 122.89972254633904,138.07697081877268 125.20623632078059,115.75473529534065 125.85494331992231,114.24770622549113 130.75628509069793,113.7767585334368 143.80250362772495,114.93057944212342 149.0281988978386,116.50824780447874 146.90188151202165,142.40941929037217 146.07297812448815,144.5520811128954 143.80250362772495,145.79999999998836 122.79160471330397,137.81796433308045 125.35039343172684,117.33240056535578" stroke="red" stroke-linecap="round" stroke-linejoin="round" stroke-width="0.5"><title>2020-07-10 5.3km</title></polyline><polyline fill="none" points="167.524364692159,115.6458572333504 172.64449148415588,113.77431037742645 176.0817794003524,115.13118268389371 181.20190619211644,114.78026785477414 184.85402460303158,116.23071390602854 184.46016869600862,131.88117432463332 183.1353806448169,143.20341392763657 182.1686434186995,144.7941172203864 180.02033847104758,145.79999999998836 158.85953473695554,138.38448168931063 161.86716166348197,114.42935273080366 171.4987288452685,113.39999999996508 180.66482995520346,114.33577531471383 185.14046526281163,116.88575240742648 184.10211787139997,133.84621312314994 182.347668830771,144.74733191585983 179.5190673165489,145.58946659538196 165.34025466209278,140.6068117157265" stroke="#ffe200" stroke-linecap="round" stroke-linejoin="round" stroke-width="0.5"><title>2020-07-12 3.1km</title></polyline><polyline fill="none" points="24.64009469957091,155.16264478847734 36.03143138764426,155.35047766013304 41.3497841632925,157.04096971827676 40.235804865835235,177.23243123138673 38.72654259135015,184.62789765250636 36.60638844454661,186.48261321516475 34.41436466528103,186.435658491886 14.650215836940333,178.64110155965318 17.525001120986417,155.1861239018035 21.513765702955425,154.20000000001164 25.82594362879172,154.85741619230248 29.8506430266425,154.29391666210722 40.63108784216456,156.14876642584568 39.912391521269456,175.98810183780733 38.5828033273574,184.5809427216882 37.36101958155632,186.08349790080683 34.809647641843185,186.60000000000582 14.758020285051316,178.68805715593044 17.30939222476445,155.397435864812 21.72937459894456,154.38783330316073 35.09712617029436,155.23308212510892 40.88263155450113,156.87661662290338 39.33743446436711,177.34982060617767" stroke="#ffbb00" stroke-linecap="round" stroke-linejoin="round" stroke-width="0.5"><title>2020-07-15 4.4km</title></polyline><polyline fill="none" points="60.47610739781521,154.74876867272542 64.16432659793645,154.24771904299268 75.70370548125356,155.75086616381304 77.42000550497323,156.6575237676443 75.0463990890421,184.02335969853448 74.02392247924581,185.78883714124095 71.43121393257752,186.60000000000582 59.41711376607418,182.61574406345608 50.72606258187443,178.41672742183437 53.39180517196655,155.0589419575699 55.436758391791955,154.20000000001164 68.69243729882874,155.53613118559588 72.01548628113233,155.0589419575699 77.60259061376564,156.77682067712885 75.30201824149117,182.99747079686495 73.84133737022057,185.7649793867604 71.46773095428944,186.55228458030615 61.46206698613241,182.78274955131928 59.41711376607418,183.1406182339415 50.47044342942536,178.44058558778488 53.42832219367847,154.89192560125957 54.41428178176284,154.20000000001164 59.3075627007056,154.24771904299268 61.64465209492482,155.13052037576563 73.14751395629719,155.44069338275585 77.60259061376564,156.82453943169094 74.93684802367352,184.54823213492637 71.90593521576375,186.57614229098544 63.54353722766973,183.808638970193 61.64465209492482,182.4010226256505 59.67273291875608,182.59188613132574 50.36089236428961,178.1304293255671 53.31877112854272,155.87016332725761 54.01259454223327,154.39087614015443 63.61657127109356,154.43859516174416 77.63910763571039,156.63366438171943 74.86381398001686,183.6654917576816 73.76830332679674,185.45482845642255 71.43121393257752,186.2898496775888 59.70924994023517,182.63960199433495 50.57999449479394,178.34515291568823 53.39180517196655,154.6294711951923 54.706417956156656,154.43859516174416" stroke="red" stroke-linecap="round" stroke-linejoin="round" stroke-width="0.5"><title>2020-07-18 7.3km</title></polyline><polyline fill="none" points="95.31201559514739,155.4443585118861 99.96337512205355,154.4871599781036 107.14185124193318,154.9657595131721 113.36808052961715,156.64085366361542 110.8775888143573,184.27895909367362 109.33934393152595,186.1214358964644 107.54472490167245,186.50428722208017 86.63191947061568,178.4164800499566 89.70840923627838,154.20000000001164 100.21974926930852,154.51108996770927 113.33145565120503,156.6887133999262 110.91421369276941,184.08753247687127 108.27722246502526,186.60000000000582 86.70516922697425,178.46433734724997 88.35328874434344,156.61692379339365" stroke="#ffd400" stroke-linecap="round" stroke-linejoin="round" stroke-width="0.5"><title>2020-07-21 3.5km</title></polyline><polyline fill="none" points="132.31616696878336,155.5654798441683 143.58019489096478,155.49604877448292 148.75172972329892,157.25496560969623 146.66186290746555,183.49896707135485 145.52837582095526,185.44290088230628 143.36766606243327,186.29915454110596 123.0003199763596,178.87051643212908 125.97572357859462,155.1257495394675 133.48507552663796,154.7323062386131 146.8743917364627,156.5375135941722 148.85799413756467,157.39382714623935 149.0351014949847,158.25013892384595 147.83077146555297,176.74141173117096 146.5555984931998,183.75353035263834 145.3866899353452,185.55861093991552 144.04067401983775,186.29915454110596 141.24237777502276,185.88259892872884 123.10658439062536,178.91680119503872 123.42537763365544,173.50144874802209 126.08198799286038,155.01003096046043 135.2207276278641,154.7323062386131 148.82257266622037,157.44011431466788 147.86619293689728,176.50998664612416 146.5201770218555,183.68410401878646 144.6074175632093,186.02145084610675 141.41948513220996,186.0677348082245 123.03574144770391,178.7548045021249 125.65693033533171,156.72266262062476 126.4007812361233,154.96374351970735 135.57494234247133,154.616587549448 148.71630825195462,157.20867842040025 146.8743917364627,183.8460987797298 145.1033181634266,186.0677348082245 143.296823119279,186.60000000000582 122.9648985050153,178.50023814156884 125.7986162211746,155.79691665864084 126.4007812361233,154.98688724060776 130.50967192463577,154.29257504732232 135.68120675673708,154.20000000001164 140.85274158907123,155.86634767780197 144.99705374916084,155.84320400611614 149.0351014949847,157.46325789691764 148.0433002943173,174.9594352338172 146.5910199645441,183.52210919442587 144.7845249203965,185.99830886311247 142.51755074737594,186.29915454110596 123.07116291928105,178.54652294612606 125.8340376925189,155.70434194832342 126.57788859307766,154.917456073832 130.65135781024583,154.362006319192 145.67006170679815,156.23664624913363 148.8934156091418,157.44011431466788 146.48475555027835,183.73038824269315 145.52837582095526,185.41975886700675 143.1551372334361,186.29915454110596 123.0003199763596,178.8473740487534 126.32993829296902,155.17203696194338" stroke="red" stroke-linecap="round" stroke-linejoin="round" stroke-width="0.5"><title>2020-07-31 11.0km</title></polyline><polyline fill="none" points="169.01866818638518,154.70815915687126 181.94394524139352,155.24051572784083 185.38821677747183,156.4746125289821 184.6104780435562,175.73574498211383 182.9068598644808,184.37393881744356 181.01806579600088,186.430626182555 178.7218847721815,186.40642991755158 158.53771286690608,178.3006048744428 161.2412808467634,154.20000000001164 181.6476638186723,154.90174344042316 185.0549001772888,156.3778207503783 185.4622871328611,159.93490436885622 182.86982468655333,184.61590254493058 180.38846777332947,186.479018708691 177.16640730411746,185.87411174399313 158.83399428916164,178.51837529614568 158.7228887558449,175.85672928125132 161.57459744694643,154.20000000001164 171.64816581085324,154.2241980684048 185.42525195516646,156.5230084102368 183.6105282427743,180.52669734536903 182.86982468655333,184.47072432481218 181.27731204079464,186.40642991755158 179.24037726130337,186.60000000000582 158.90806464501657,178.5667687082605 159.16731088934466,172.08200318255695" stroke="red" stroke-linecap="round" stroke-linejoin="round" stroke-width="0.5"><title>2020-08-02 5.0km</title></polyline><polyline fill="none" points="25.24096252117306,195.5218351581134 37.184690554626286,196.37574584811227 41.214337398530915,198.01240319170756 40.08894053194672,216.53702582523692 38.41899679484777,225.43140307889553 36.67644680826925,227.23397410695907 34.752381198108196,227.352564037079 16.96385008492507,220.87750525859883 14.785662601701915,219.40696529610432 17.653609454631805,195.7353129919502 26.438965637236834,195.21347809696454 34.316743701463565,196.68410206309636 37.54772180155851,196.16226833703695 41.323246772633865,198.34447782300413 39.32657491299324,221.47046347669675 37.36620617797598,226.83076809564955 35.33323119371198,227.39999999999418 28.798668743809685,225.5737115968077 14.749359477078542,219.9524887811276 15.3665125973057,210.41758581539034 17.58100320515223,195.45067585635115 27.528059378731996,194.9999999999709 41.105428024195135,197.70404794393107 39.290271788137034,221.68392823188333 38.3826936702244,225.5737115968077 36.131899937521666,227.39999999999418 14.967178225284442,219.4306837230397 17.435790706425905,195.94879071836476 22.91756253922358,194.9999999999709 37.69293430051766,196.75526115763932 41.25064052338712,198.05984244059073 38.999846790451556,223.6051061877224 37.94705617357977,226.1903812889068 36.022990563418716,227.37628201924963 28.036303124856204,225.1942221094214 14.676753227366135,219.5967126750329 16.41930321394466,204.4640922724211" stroke="red" stroke-linecap="round" stroke-linejoin="round" stroke-width="0.5"><title>2020-08-07 7.1km</title></polyline><polyline fill="none" points="60.372779451310635,196.15550138565595 73.4379917755723,196.53280727379024 77.08325819741003,198.089190488623 76.21705627534539,217.56707572028972 74.5929276717361,225.3249655495165 73.32971653528512,226.81050261636847 71.01984474319033,227.16420114549692 51.09720053616911,219.1705418708152 53.73189804889262,196.0611748608353 59.00129307457246,195.35372525057755 69.21525740553625,196.69787849357817 73.4379917755723,196.20266464026645 77.08325819741003,197.87695675270515 77.22762518445961,202.12161114715855 75.31476260651834,221.6700504575856 74.73729465855286,224.94768546009436 73.36580828181468,226.76334279007278 71.59731269115582,227.35284023967688 66.40010115900077,225.72582527439226 50.77237481530756,219.2884435527958 53.69580630213022,195.87252174774767 64.5233303278219,195.0 69.75663360673934,196.55638888044632 75.6395883273799,196.79220487573184 77.19153343746439,198.51365763970534 76.0726892882958,216.67101844734862 74.3763771909289,225.67866532644257 71.30857871705666,227.39999999999418 56.69142128247768,222.14165418743505 51.061108789173886,219.0762205015344 53.6236228083726,196.20266464026645 58.71255910070613,195.02358169245417 65.17298176931217,195.4480519341305 67.59112880169414,196.69787849357817" stroke="red" stroke-linecap="round" stroke-linejoin="round" stroke-width="0.5"><title>2020-08-09 5.6km</title></polyline><polyline fill="none" points="95.66086865402758,196.93074287756463 108.74972593714483,197.12364584885654 113.12217067647725,198.12709197268123 111.85886424360797,216.6139985055779 110.38651511655189,225.3692744867585 108.63599293678999,227.05705520123593 106.19481436605565,227.0541544946318 92.59478393848985,221.80569080164423 87.47117268526927,219.50961802885286 86.83944030757993,218.40618742705556 89.77566479775123,196.20266515103867 107.45131923793815,197.0945717478753 113.05717959115282,198.42644894489786 111.23653342481703,222.11629204594647 110.17352882795967,225.74704830438714 107.55112825380638,227.22377665896784 87.26378105161712,219.38624286020058 89.69147175457329,195.8016228004708 100.0776863724459,196.3427202986495 113.0691600877326,198.4528633931186 111.1200147040654,221.95591780147515 109.51104675419629,226.54215393352206 107.93593513825908,227.29095725595835 105.4747799965553,227.00019117325428 87.34958276129328,219.528605229425 87.16098414780572,218.36038958778954 89.97474509640597,195.90146288916003 101.12419978692196,195.0 105.71890386356972,196.8583125238365 111.31985042360611,197.22128550935304 113.16055969242007,198.75693798722932 111.69802252645604,218.61305813700892 110.59188537299633,225.24419579308596 107.73407803103328,227.39999999999418 87.3368205751758,219.65441610873677 89.56959156738594,197.8316994382767" stroke="red" stroke-linecap="round" stroke-linejoin="round" stroke-width="0.5"><title>2020-08-14 7.2km</title></polyline><polyline fill="none" points="131.33831033366732,196.1751723769412 136.77083057467826,195.52762881302624 149.47118194866925,197.15847739795572 147.6358710564673,221.02091919106897 146.7549218281638,225.0977863051521 144.258899014676,227.39999999999418 122.4186993977055,219.48608857460204 125.13495951821096,196.58288448894746 125.64884656807408,195.21584822927252 130.7143046304118,194.9999999999709 145.91067881765775,196.41500307811657 149.58130060206167,197.51822257312597 147.0485715707764,224.13852694639354 146.05750368908048,226.27287609153427 144.33231145050377,227.28009334218223 130.97124815522693,223.17926543887006 122.4186993977055,219.34219792232034 125.13495951821096,196.8466980016383 125.53872791444883,195.28779761481564 127.15380149963312,195.02398314190214 144.00195548962802,196.0312738920038 149.43447573063895,197.7100865431421 146.93845291715115,224.37834198746714 145.87397259962745,226.4167644152476 143.85513061843812,227.37601867114427 134.0545704541728,223.730841068289 131.11807302664965,223.41908101720037 122.67564292275347,219.31821614224464 125.06154708261602,197.11051135184243" stroke="red" stroke-linecap="round" stroke-linejoin="round" stroke-width="0.5"><title>2020-08-20 5.4km</title></polyline><polyline fill="none" points="168.0975865428336,195.74568449344952 179.473489922937,196.13055340279243 185.43755577271804,197.74218821516843 184.2594686911907,216.72053729032632 182.71322939684615,225.57200269543682 181.24062054487877,227.11136936370167 179.28941381629556,227.39999999999418 158.70970511296764,219.07773883230402 161.4708467097953,195.28865221561864 166.47771680587903,195.0 185.143034002278,197.33326652183314 184.44354479759932,216.07110193927656 182.67641417542472,225.78847646646318 181.01972921728157,227.1594744833419 178.88444638205692,227.2797372583591 158.59925944870338,219.2701628767827 161.50766193121672,195.02405435868423 185.17984922369942,197.33326652183314 184.0385773635935,216.5281121035514 182.3082619626075,226.65437046001898 179.54712036554702,227.3518949073623 166.5513472482562,223.02241451572627 158.7465203339234,219.17395086522447 158.67288989154622,216.45595263605355 161.6549228162039,195.04810871602967 185.17984922369942,197.4535376485146 182.78685983945616,225.98089750483632 179.65756602934562,227.39999999999418 158.5624442275148,219.39042786092614 161.61810759501532,195.360815239168 167.58217344456352,195.0 185.069403559668,197.1648868880875 185.29029488749802,203.226512122259 183.30227293772623,223.9604723037919 181.97692497097887,226.65437046001898 179.28941381629556,227.1835270410229" stroke="red" stroke-linecap="round" stroke-linejoin="round" stroke-width="0.5"><title>2020-08-21 8.2km</title></polyline><polyline fill="none" points="23.2246957346797,236.60456049931236 41.04984651482664,238.30524857068667 39.67973668198101,255.25607316111564 41.676682136021554,257.1260326929623 39.280576321994886,259.3372051034239 38.09191861585714,266.32336705646594 35.39005103497766,268.20000000001164 14.388451556209475,260.2973902115773 17.390352339716628,236.1265693930036 22.050089451950043,235.80000000001746 39.201318063540384,237.78272182313958 41.06522018020041,239.09286758850794 39.43366233725101,258.34412264672574 38.40055068489164,265.33814643719234 37.10930847097188,267.5545925225597 33.99244586122222,267.9456806356611 22.527725893072784,263.6011683556717 14.538098628865555,260.4373665370804 14.323317864211276,258.69635833145 16.913264456903562,236.1292569284269 40.514423770597205,238.33451229744242 40.929566975682974,242.59160544685437 38.242492949124426,265.9963810314366 35.19170331512578,268.06543087097816 14.672847092617303,260.76500541713904 14.420044305035844,256.03694344544783" stroke="red" stroke-linecap="round" stroke-linejoin="round" stroke-width="0.5"><title>2020-08-27 5.1km</title></polyline><polyline fill="none" points="58.907694559311494,256.34178220349713 63.49886237317696,253.21565825934522 69.05751984659582,253.4662608600338 71.23490382428281,254.74449249054305 72.62135191680863,254.3956340388977 74.18233768665232,250.9919714567077 80.20000000018626,242.21566628367873 79.9434156306088,240.93376865095343 50.90850672242232,241.97379729067325 50.25722303544171,248.78551086891093 47.99493749556132,254.7803472672822 47.800000000046566,258.4092068001919 48.50267328810878,261.7248930679634 49.73988419561647,263.0662313490466 52.984285306418315,261.97857258387376 58.152837538858876,257.4819294773333 58.123599828453735,256.18796969606774" stroke="#fffb00" stroke-linecap="round" stroke-linejoin="round" stroke-width="0.5"><title>2020-09-01 2.2km</title></polyline><polyline fill="none" points="94.92711830837652,255.9044316682557 99.43711667042226,253.24270600569434 105.18070757668465,253.59451581753092 107.79200500040315,254.7391976567742 115.58161246683449,243.31682699144585 115.89651355333626,241.89389934833162 115.1276730869431,241.2885555230314 104.65719521255232,241.3152866589371 87.15448749088682,242.1968375966535 86.42939866962843,248.43480123212794 83.8036994128488,255.84565809520427 84.20380401867442,260.2588088522316 85.66450407844968,262.64807214055327 87.55791079485789,262.31586753140436 91.46817884128541,260.18977330595953 94.66251267702319,256.3606031037925 98.8844169578515,253.61141230797512 103.69603848364204,253.14322863306734 107.02252743882127,254.84562804657617 107.89035915979184,254.69016241209465 116.05146324657835,242.62372300899005 115.663263495313,241.5903669652762 114.21988305449486,241.24181667674566 87.27611492667347,242.2550266290782 86.7046307483688,243.1017301925167 86.46304766647518,248.32057999033714 84.30366706522182,254.58620748631074 83.80000000004657,258.32972078197054 85.61629723175429,262.75818332325434 90.34163704072125,261.0317322022456 96.77328520640731,254.6080253465334 99.15124862617813,253.4576881035464 104.1023180608172,253.18762480534497 107.84159923670813,254.7553054234595 116.19999999995343,241.98910547138075 115.51858923607506,241.31266501927166 110.6060432381928,241.26142014647485 86.8830794673413,242.1831132977677 86.71769387507811,247.435282636201 84.47681102110073,253.9533586250036 83.82618085085414,258.262880037335 85.07252355990931,261.9935456274543 86.18543873913586,262.7119026971923" stroke="red" stroke-linecap="round" stroke-linejoin="round" stroke-width="0.5"><title>2020-09-02 6.2km</title></polyline><polyline fill="none" points="131.09497945569456,255.9918658118113 135.34767221007496,253.25573814756353 139.7673391532153,253.05744666821556 142.83409644290805,254.67266789998394 144.26875909161754,254.46843910653843 151.8370894100517,241.92632508615497 150.16469098068774,241.14895735456957 146.316635255469,241.12838506765547 123.06408660905436,242.02959152508993 122.23353047389537,249.36321809506626 119.80000000004657,257.78484095149906 120.6217389376834,261.2347785285965 121.79539366904646,262.77427886938676 127.27690947055817,260.6513615034637 131.69524499657564,255.3573108431592 133.8593738710042,254.0080155028263 139.36189255095087,253.14108935653348 143.96666685887612,254.67538320328458 152.15323219425045,242.27483847062103 151.42061340715736,241.48534286016366 147.67160918284208,240.97088485522545 136.06985557358712,242.08380814775592 127.42679191706702,241.7494759776746 122.64378637145273,242.3993516174669 122.5958190257661,248.07772613558336 119.80432228022255,256.70008317465545 120.63878313056193,261.51182912295917 121.93940270273015,262.9725626995787 126.48144084680825,261.1496764095209 131.9175325150136,255.06847968371585 134.97706783865578,253.30933303639176 138.838741323445,253.11437200196087 143.9129933777731,254.78114371860283 152.1264400803484,242.0367961084121 150.88725269702263,241.3673731146846 145.95358852134086,241.17882399004884 122.8891330419574,242.24883094709367 122.31156548927538,248.87056807108456 119.83425755891949,257.21486556279706 120.47371239005588,260.7462357384211 122.01299815950915,262.88753261440434 126.60788355069235,261.00325402407907 131.90095867961645,255.3025898509659 135.85481410566717,253.2475610669353 139.79627339867875,253.30231788946548 144.04538791207597,254.84609363751952 152.19999999995343,242.2131385958637 151.4199023616966,241.45083586510736 147.03690564865246,241.25107092107646 123.07871017116122,242.2736726712319 122.45230747829191,248.42965532373637 120.0135714430362,255.80833928685752 120.19238904956728,259.6781939305365 121.78452490479685,263.02911514480365 126.37176537094638,261.2315117655671 131.03546962537803,255.89381356557715 135.24606270948425,253.51563814474503 138.9968524328433,253.00763889902737 143.1394531170372,254.73824274502113 144.0883524972014,254.56762557692127 151.87773960153572,242.6641693848942 151.61197339184582,241.6817667997966 150.26858524628915,241.34527825799887 123.03037584782578,242.28539420265588 122.64474432752468,248.4697516108572 119.96254061162472,256.3331105016696 120.57010892219841,261.0498399652133 121.92169197252952,262.90479064855026 127.54284691927023,260.3975974065834" stroke="red" stroke-linecap="round" stroke-linejoin="round" stroke-width="0.5"><title>2020-09-04 10.7km</title></polyline><polyline fill="none" points="166.77871067658998,256.2228048139659 170.4095961258281,253.70608430271386 173.94971215515397,253.1633646413975 180.42904229578562,254.79195370170055 183.67348790820688,248.68283289697138 188.19999999995343,242.28853819775395 187.11942528607324,241.30444108729716 184.34475243091583,241.240330478322 159.06961650424637,242.11921423018794 158.35416426463053,248.8679800624668 155.85339748417027,257.0585215690662 156.10907759470865,260.1152666460548 157.65768459415995,262.8691738061898 162.26574783213437,260.92819678009255 168.18142494163476,255.04972374613862 170.75385100021958,253.70239530017716 174.0680946111679,253.10247829274158 180.24880719766952,254.56830163978157 187.868164624786,242.38025372990523 187.07535727345385,241.32228304017917 179.12250711256638,241.1308261938393 171.25162877212279,241.9237407388864 159.16466747177765,241.9740014905692 158.60337917529978,242.75737321723136 158.5575522161089,248.27584581958945 155.80000000004657,257.28462510122336 156.57344367727637,261.6339903229673 157.83802004298195,262.77263591397787 163.12651484133676,260.39275991357863 166.58156180288643,256.4853548637475 171.1293248361908,253.41368430136936 175.04027107427828,253.07905218558153 178.92674537119456,254.65116988113732 180.33883972186595,254.41771926695947 187.69942825334147,241.85829540158738 186.96750082122162,241.33690658802516 177.55780725576915,241.19671666942304 159.0890132091008,242.1447388433735 158.2322162494529,249.39719965594122 156.10919668641873,254.78535299925716 155.98542777751572,259.97455673254444" stroke="red" stroke-linecap="round" stroke-linejoin="round" stroke-width="0.5"><title>2020-09-05 6.1km</title></polyline></svg>