<?xml version="1.0" encoding="utf-8" ?>
<svg baseProfile="full" height="300mm" version="1.1" viewBox="0,0,200,300" width="200mm" xmlns="http://www.w3.org/2000/svg" xmlns:ev="http://www.w3.org/2001/xml-events" xmlns:xlink="http://www.w3.org/1999/xlink"><defs /><rect fill="#222222" height="300" width="200" x="0" y="0" /><text fill="#FFFFFF" style="font-size:12px; font-family:Arial; font-weight:bold;" x="10" y="20">Picked Over 5km Runs</text><text fill="#FFFFFF" style="font-size:4px; font-family:Arial" x="10" y="280">ATHLETE</text><text fill="#FFFFFF" style="font-size:9px; font-family:Arial" x="10" y="290">DuanFei</text><text fill="#FFFFFF" style="font-size:4px; font-family:Arial" x="120" y="280">STATISTICS</text><text fill="#FFFFFF" style="font-size:3px; font-family:Arial" x="120" y="285">Number: 16</text><text fill="#FFFFFF" style="font-size:3px; font-family:Arial" x="120" y="290">Weekly: 1.6</text><text fill="#FFFFFF" style="font-size:3px; font-family:Arial" x="141" y="285">Total: 116.3 km</text><text fill="#FFFFFF" style="font-size:3px; font-family:Arial" x="141" y="290">Avg: 7.3 km</text><text fill="#FFFFFF" style="font-size:3px; font-family:Arial" x="167" y="285">Min: 5.0 km</text><text fill="#FFFFFF" style="font-size:3px; font-family:Arial" x="167" y="290">Max: 15.2 km</text><polyline fill="none" points="26.65728142298758,34.27805558242835 27.159390050685033,33.32367744698422 35.42135928873904,33.14473135606386 39.803398221731186,34.24823129171273 43.13557366025634,33.26402875670465 49.20652343169786,35.38155316951452 46.2395179043524,69.82742269901792 42.40523383789696,72.75 15.428306657355279,63.17700845695799 19.30823696264997,33.025433928880375 40.625030521303415,33.681569448206574 43.181219899095595,35.56049850868294 49.2978159096092,35.41137739707483 46.28516414295882,69.61866656382335 44.687545782187954,71.73604642675491 41.99441768811084,72.63071144465357 15.747830329695717,62.789313585089985 19.62776063475758,32.63771710562287 34.188910838682204,33.35350178950466 49.57169334287755,35.6499711558572 46.51339533738792,68.63452939549461 45.18965441011824,71.5571132429177 42.31394135998562,72.69035572558641 15.930415285052732,62.789313585089985 19.62776063475758,32.81666336680064 24.511908195447177,32.25 26.611635183915496,33.17455570877064" stroke="#4dd2ff" stroke-linecap="round" stroke-linejoin="round" stroke-width="0.5"><title>2020-06-12 5.6km</title></polyline><polyline fill="none" points="72.16970902099274,33.51098017353797 89.03364686039276,33.57102677418152 94.31798705551773,35.552560832351446 92.57185725215822,60.89153249026276 90.41217038943432,71.45909094327362 88.16058195871301,72.75 85.67923960648477,72.47980998945422 67.1151227473747,66.29542363248765 60.636062160367146,62.99305218481459 61.325323925120756,54.73703456739895 64.5418788259849,32.85046711919131 89.35530235082842,33.751166536821984 94.4098886239808,35.342398476437666 91.60689078154974,69.44766831106972 88.80389293911867,72.47980998945422 85.26568254758604,72.2996832402423 70.8371362760663,67.46625953377225 60.590111376252025,63.02307383500738 63.439060003031045,36.753486999543384 64.26617412036285,32.97056046233047 65.73659921833314,32.25 79.24612980382517,32.76039709424367 83.65740509680472,33.931306238810066 89.67695784056559,33.51098017353797 94.59369176137261,35.64263038802892 91.69879235024564,68.6671142122359 90.55002274271101,71.18890028184978 88.16058195871301,72.62991556775523 77.36214764718898,70.13815752812661 60.40630823886022,62.842943908355664 62.88765059155412,43.50864656275371" stroke="#4dd2ff" stroke-linecap="round" stroke-linejoin="round" stroke-width="0.5"><title>2020-06-16 5.3km</title></polyline><polyline fill="none" points="116.89138740394264,34.25152679462917 122.74777003447525,33.162461689906195 131.307098494377,33.89831673761364 138.8753468170762,36.40021619311301 135.90210640453734,70.33657000394305 133.51450425502844,72.36738378863083 131.21700030006468,72.69113598571857 106.03455498884432,63.096213523473125 109.45828637294471,33.39793541748077 115.17952171177603,32.25 137.02833383344114,35.42889193666633 138.83029771992005,36.194177864526864 139.01049410854466,39.69681846612366 137.25357931945473,59.358266871771775 135.90210640453734,69.54190160444705 133.37935696355999,72.54397592094028 130.09077287092805,72.27908770029899 106.12465318315662,63.096213523473125 109.00779540138319,35.193419119226746 109.81867915019393,33.309632781893015 115.94535636366345,32.720948166796006 132.253129534889,34.16322430269793 138.78524862253107,36.13530975562753 136.1273518903181,68.51177411299432 135.0912226557266,71.19010139111197 132.253129534889,72.75 105.98950589168817,62.77245541638695 109.1879917900078,37.16550070676021" stroke="#4dd2ff" stroke-linecap="round" stroke-linejoin="round" stroke-width="0.5"><title>2020-07-10 5.3km</title></polyline><polyline fill="none" points="163.0951342470944,32.9359608408995 167.70540824742056,32.309648803726304 182.12963185133412,34.18858270475175 184.27500688121654,35.32190470950445 181.3079988611862,69.52919962315354 180.02990309894085,71.73604642652208 176.78901741583832,72.75 161.77139220759273,67.76968007930554 150.90757822734304,62.52090927725658 154.23975646472536,33.32367744698422 156.79594798968174,32.25 173.3655466234777,33.92016398202395 177.51935785147361,33.32367744698422 184.50323826703243,35.47102584637469 181.62752280198038,68.24683849606663 179.8016717126593,71.70622423343593 176.8346636928618,72.69035572535358 164.3275837325491,67.97843693912728 161.77139220759273,68.42577279242687 150.5880542867817,62.550731984723825 154.2854027422145,33.114907001610845 155.51785222720355,32.25 161.6344533758238,32.309648803726304 164.555815118365,33.41315046971431 178.93439244525507,33.80086672841571 184.50323826703243,35.53067428962095 181.1710600296501,70.18529016867978 177.38241901970468,72.72017786372453 166.92942153429613,69.26079871272668 164.555815118365,67.50127828208497 162.09091614815407,67.73985766415717 150.4511154552456,62.16303665697342 154.14846391044557,34.33770415908657 155.0157431778498,32.48859517520759 167.02071408880875,32.54824395215837 184.54888454452157,35.29208047717111 181.0797674751375,69.08186469710199 179.7103791583795,71.31853557052091 176.78901741583832,72.36231209698599 162.13656242541037,67.79950249288231 150.72499311855063,62.43144114461029 154.23975646472536,32.786838994012214 155.8830224450212,32.54824395215837" stroke="#4dd2ff" stroke-linecap="round" stroke-linejoin="round" stroke-width="0.5"><title>2020-07-18 7.3km</title></polyline><polyline fill="none" points="27.89520871080458,98.95684980519582 41.975243613589555,98.87006096809637 48.439662154065445,101.06870701210573 45.82732863421552,133.87370883917902 44.410469776252285,136.30362610286102 41.709582577925175,137.37394317635335 16.250399970449507,128.08814554015407 19.96965447301045,98.40718692430528 29.356344408122823,97.91538279823726 46.09298967034556,100.17189199267887 48.572492671897635,101.24228393280646 48.79387686867267,102.31267365475651 47.28846433199942,125.42676466394914 45.69449811638333,134.19191294076154 44.23336241906509,136.44826367485803 42.55084252473898,137.37394317635335 39.05297221872024,136.85324866091833 16.383230488281697,128.14600149379112 16.781722042011097,121.37681093497667 20.10248499107547,98.26253870053915 31.525909534888342,97.91538279823726 48.52821583254263,101.30014289333485 47.3327411711216,125.1374833076261 45.65022127726115,134.10513002343941 43.25927195395343,137.02681355760433 39.274356415262446,137.08466851024423 16.294676809571683,127.94350562762702 19.57116291904822,100.40332827577367 20.5009765450377,98.20467939961236 31.96867792797275,97.77073443681002 48.39538531471044,101.0108480254421 46.09298967034556,134.30762347462587 43.87914770422503,137.08466851024423 41.62102889921516,137.75 16.2061231310945,127.6252976769465 19.748270276468247,99.24614582327195 20.5009765450377,98.23360905074514 25.63708990556188,97.36571880913107 32.10150844603777,97.25 38.56592698628083,99.33293459721608 43.746317186392844,99.3040050076088 48.79387686867267,101.32907237112522 47.5541253676638,123.19929404224968 45.738774955505505,133.90263649303233 43.48065615049563,136.99788607889786 40.646938434103504,137.37394317635335 16.33895364915952,127.6831536826212 19.792547115590423,99.13042743538972 20.722360741347075,98.14682009228272 25.814197262749076,97.45250789896818 44.58757713320665,99.79580781143159 48.61676951125264,101.30014289333485 45.605944437673315,134.16298530332278 44.410469776252285,136.27469858370023 41.443921541795135,137.37394317635335 16.250399970449507,128.05921756091993 20.412422866094857,98.46504620241467" stroke="#ff6a00" stroke-linecap="round" stroke-linejoin="round" stroke-width="0.5"><title>2020-07-31 11.0km</title></polyline><polyline fill="none" points="73.77333523333073,97.8851989460527 89.92993155214936,98.55064465978649 94.23527097213082,100.09326566121308 93.2630975546781,124.16968122759135 91.13357483083382,134.96742352173897 88.77258224552497,137.5382827281719 85.90235596545972,137.50803739693947 60.67214108374901,127.37575609300984 64.0516010588035,97.25 89.55957977380604,98.12717930047074 93.81862522196025,99.9722759379656 94.32785891648382,104.4186304610339 91.08728085854091,135.269878181105 87.98558471701108,137.59877338586375 83.95800913055427,136.8426396799623 61.0424928618595,127.64796912012389 60.903610945213586,124.32091160153504 64.4682468092069,97.25 77.06020726379938,97.28024758544052 94.28156494442374,100.1537605127669 92.01316030370072,130.15837168169674 91.08728085854091,135.08840540598612 89.09664005134255,137.50803739693947 86.55047157686204,137.75 61.13508080644533,127.70846088527469 61.459138612030074,119.60250397818163" stroke="#4dd2ff" stroke-linecap="round" stroke-linejoin="round" stroke-width="0.5"><title>2020-08-02 5.0km</title></polyline><polyline fill="none" points="119.05120315146632,97.90229394764174 133.98086319305003,98.96968231012579 139.0179217478726,101.015503989649 137.6111756649334,124.17128228157526 135.52374599361792,135.28925384860486 133.34555851039477,137.54246763366973 130.94047649763525,137.69070504634874 108.70481260609813,129.5968815732631 105.9820782521274,127.75870662013767 109.56701181805693,98.1691412399523 120.54870704631321,97.51684762118384 130.39592962665483,99.35512757889228 134.43465225188993,98.70283542131074 139.1540584655013,101.43059727875516 136.65821864129975,130.3380793458782 134.20775772235356,137.0384601195692 131.66653899196535,137.75 123.49833592982031,135.46713949606055 105.93669934617355,128.44061097642407 106.7081407464575,116.5219822692452 109.47625400614925,97.81334482046077 121.91007422329858,97.25 138.88178503024392,100.63005992991384 136.61283973511308,130.6049102898687 135.47836708743125,135.46713949606055 132.66487492178567,137.75 106.20897278143093,127.78835465380689 109.29473838279955,98.43598839791957 116.14695317391306,97.25 134.61616787547246,99.44407644704916 139.06330065405928,101.07480305072386 136.24980848794803,133.0063827346894 134.9338202169165,136.23797661112621 132.52873820415698,137.7203525240766 122.54537890572101,134.99277763679856 105.84594153426588,127.9958908437984 108.02412901748903,109.08011534053367" stroke="#4dd2ff" stroke-linecap="round" stroke-linejoin="round" stroke-width="0.5"><title>2020-08-07 7.1km</title></polyline><polyline fill="none" points="162.9659743141383,98.69437673210632 179.29748971946537,99.1660090922378 183.85407274658792,101.11148811079329 182.77132034418173,125.45884465036215 180.7411595894955,135.15620693692472 179.16214566933922,137.0131282704533 176.2748059288133,137.45525143184932 151.3715006702114,127.46317733853357 154.66487256111577,98.57646857603686 161.2516163433902,97.69215656322194 174.0190717568621,99.37234811694361 179.29748971946537,98.75333080033306 183.85407274658792,100.84619594085962 184.03453148063272,106.15201393398456 181.64345325832255,130.587563071982 180.92161832330748,134.68460682511795 179.20726035232656,136.95417848759098 176.99664086382836,137.69105029961793 170.50012644869275,135.65728159301216 150.96546851913445,127.61055444099475 154.6197578778956,98.34065218467731 168.15416290960275,97.25 174.695792008657,99.19548610056518 182.0494854093995,99.4902560946648 183.9894167969469,101.64207204960985 182.5908616106026,124.33877305919304 180.47047148877755,135.5983316580532 176.63572339643724,137.75 158.36427660332993,131.1770677343011 151.32638598652557,127.34527562692529 154.52952851052396,98.75333080033306 160.89069887576625,97.2794771156041 168.96622721175663,97.81006491766311 171.98891100217588,99.37234811694361" stroke="#4dd2ff" stroke-linecap="round" stroke-linejoin="round" stroke-width="0.5"><title>2020-08-09 5.6km</title></polyline><polyline fill="none" points="27.076085817534477,164.6634285969776 43.43715742160566,164.9045573110925 48.90271334559657,166.1588649658952 47.323580304393545,189.26749813201604 45.483143895631656,200.21159310848452 43.29499117098749,202.32131900155218 40.24351795739494,202.31769311835524 23.243479922879487,195.75711350206984 16.838965856703,192.88702253607335 16.04930038447492,191.5077342838631 19.71958099724725,163.7533314388129 41.814149047480896,164.86821468482958 48.821474488824606,166.53306118113687 46.54566678102128,196.1453650574549 45.21691103489138,200.6838103805203 41.93891031737439,202.52972082374617 16.57972631440498,192.7328035752871 19.614339693216607,163.25202850060305 32.59710796573199,163.92840037331916 48.836450109723955,166.56607924145646 46.40001838025637,195.94489725184394 44.38880844274536,201.67769241693895 42.41991892270744,202.6136965699843 39.34347499557771,202.25023896660423 16.686978451674804,192.91075653681764 16.451230184640735,191.4504869847442 19.968431370565668,163.37682861147914 33.90524973347783,162.25 39.64862982952036,164.57289065484656 46.64981302944943,165.02660688670585 48.95069961552508,166.9461724840803 47.12252815789543,191.76632267126115 45.73985671647824,200.05524474137928 42.16759753902443,202.75 16.671025719027966,193.06802013597917 19.461989459116012,165.78962429787498" stroke="#4dd2ff" stroke-linecap="round" stroke-linejoin="round" stroke-width="0.5"><title>2020-08-14 7.2km</title></polyline><polyline fill="none" points="71.67288791737519,163.7189654711401 78.46353821852244,162.90953601623187 94.33897743583657,164.94809674745193 92.04483882058412,194.7761489888071 90.94365228526294,199.87223288143286 87.82362376851961,202.75 60.5233742473647,192.85761071823072 63.918699397705495,164.2286056111334 64.56105821020901,162.51981028658338 70.89288078830577,162.25 89.8883485221304,164.01875384763116 94.4766257526353,165.39777821640018 91.3107144634705,198.6731586829992 90.07187961158343,201.34109511441784 87.91538931312971,202.6001166777569 71.2140601943247,197.47408179857302 60.5233742473647,192.67774740286404 63.918699397705495,164.55837250204058 64.42340989317745,162.60974701849045 66.4422518745996,162.2799789273995 87.50244436226785,163.53909236501204 94.2930946634151,165.63760817889124 91.17306614667177,198.9729274843121 89.84246574970894,201.52095551905222 87.31891327328049,202.72002333891578 75.06821306794882,198.16355133533943 71.39759128331207,197.7738512714859 60.84455365338363,192.6477701778058 63.82693385332823,164.88813918980304" stroke="#4dd2ff" stroke-linecap="round" stroke-linejoin="round" stroke-width="0.5"><title>2020-08-20 5.4km</title></polyline><polyline fill="none" points="117.62198317819275,163.182105616841 131.841862403322,163.6631917534978 139.29694471578114,165.67773526901146 137.82433586358093,189.400671612937 135.89153674594127,200.46500336931786 134.05077568092383,202.38921170466347 131.61176727013662,202.75 105.8871313908603,192.3471735403873 109.33855838701129,162.6108152695815 115.59714600723237,162.25 138.92879250249825,165.16658315231325 138.0544309967663,188.58887742413208 135.8455177191645,200.7355955831008 133.77466152142733,202.4493431042065 131.10555797745474,202.5996715729707 105.74907431076281,192.58770359598566 109.38457741378807,162.28006794839166 138.97481152927503,165.16658315231325 137.54822170431726,189.16014012950473 135.38532745302655,201.81796307506738 131.93390045664273,202.68986863427563 115.68918406032026,197.27801814471604 105.93315041717142,192.46743858157424 105.84111236408353,189.06994079507422 109.56865351996385,162.3101358950953 138.97481152927503,165.31692206067964 135.98357479902916,200.9761218810454 132.0719575365074,202.75 105.70305528421886,192.7380348261795 109.5226344934199,162.70101904898183 116.9777168056462,162.25 138.83675444941036,164.95610861014575 139.1128686091397,172.5331401528092 136.62784117180854,198.45059037976898 134.97115621343255,201.81796307506738 131.61176727013662,202.47940880130045" stroke="#4dd2ff" stroke-linecap="round" stroke-linejoin="round" stroke-width="0.5"><title>2020-08-21 8.2km</title></polyline><polyline fill="none" points="161.53086966834962,163.25570062414045 183.81230814335868,165.38156071328558 182.09967085230164,186.57009145134361 184.59585267002694,188.9075408661738 181.60072040255181,191.67150637926534 180.11489826976322,200.40420882054605 176.73756379378028,202.75 150.48556444537826,192.8717377644498 154.23794042458758,162.65821174124721 160.06261181505397,162.25 181.5016475794837,164.72840227885172 183.8315252251923,166.36608448560582 181.7920779217966,190.43015330837807 180.50068835611455,199.17268304649042 178.88663558871485,201.9432406531414 174.99055732646957,202.43210079451092 160.65965736634098,197.0014604445314 150.67262328602374,193.0467081713141 150.4041473302059,190.8704479142907 153.64158057118766,162.6615711604827 183.1430297133047,165.41814037179574 183.66195871960372,170.73950680851704 180.30311618652195,199.99547628924483 176.48962914384902,202.5817885886645 150.84105886588804,193.45625677140197 150.5250553812366,187.54617930675158" stroke="#4dd2ff" stroke-linecap="round" stroke-linejoin="round" stroke-width="0.5"><title>2020-08-27 5.1km</title></polyline><polyline fill="none" points="26.158897885354236,252.38053958531236 31.79639583802782,249.05338250708883 38.97588447108865,249.4931447718991 42.240006250562146,250.92399707093136 51.97701558377594,236.64603373926366 52.37064194167033,234.86737418538542 51.40959135862067,234.11069440376014 38.3214940156322,234.14410832364229 16.44310936355032,235.24604699580232 15.53674833709374,243.04350154014537 12.254624266177416,252.30707261900534 12.7547550231684,257.82351106527494 14.580630098236725,260.8100901756552 16.947388493688777,260.3948344142118 21.83522355160676,257.73721663243487 25.828140846220776,252.95075387973338 31.10552119719796,249.51426538493251 37.12004810431972,248.92903579134145 41.27815929846838,251.05703505818383 42.362948949914426,250.86270301509649 52.56432905816473,235.77965376121574 52.07907936931588,234.48795870659524 50.27485381811857,234.05227084591752 16.59514365834184,235.31878328631865 15.880788435461,236.37716274062404 15.578809583093971,242.90072498790687 12.879583831643686,250.7327593578375 12.25,255.41215097744134 14.520371539518237,260.9477291540534 20.42704630107619,258.7896652527852 28.466606508009136,250.76003168313764 31.43906078278087,249.32211012940388 37.62789757596329,248.98453100665938 42.30199904600158,250.94413177930983 52.75,234.98638183923322 51.898236545035616,234.14083127406775 45.757554047508165,234.07677518305718 16.10384933417663,235.2288916221878 15.897117343964055,241.79410329525126 13.096013776259497,249.94169828123995 12.282726063625887,255.32860004663235 13.840654449770227,259.99193203428877 15.231798423919827,260.8898783714976" stroke="#4dd2ff" stroke-linecap="round" stroke-linejoin="round" stroke-width="0.5"><title>2020-09-02 6.2km</title></polyline><polyline fill="none" points="71.3687243196182,252.48983226472046 76.6845902625937,249.06967268441804 82.20917394151911,248.8218083352258 86.04262055363506,250.84083487495081 87.83594886446372,250.58554888312938 97.29636176256463,234.90790635766461 95.20586372585967,233.93619669319014 90.39579406939447,233.9104813345184 61.33010826120153,235.0369894063333 60.291913092369214,244.20402261879644 57.25,254.73105118933017 58.277173672104254,259.04347316070925 59.74424208630808,260.96784858667525 66.59613683819771,258.314201879286 72.11905624577776,251.6966385539272 74.82421733881347,250.01001937850378 81.7023656887468,248.92636169563048 87.45833357353695,250.8442290040839 97.69154024287127,235.3435480882472 96.7757667589467,234.3566785751609 92.08951147878543,233.71360606898088 77.5873194669839,235.10476018465124 66.78348989621736,234.68684497204958 60.804732964374125,235.49918952179723 60.744773782091215,242.59715766942827 57.25540285045281,253.37510396828293 58.298478913260624,259.3897864036553 59.9242533785291,261.21570337441517 65.60180105874315,258.9370955118502 72.39691564370878,251.3355996045866 76.22133479826152,249.13666629543877 81.04842665418983,248.892965002422 87.39124172227457,250.97642964823171 97.65805010055192,235.04599513547146 96.10906587145291,234.20921639332664 89.94198565161787,233.97352998750284 61.111416302388534,235.31103868383798 60.3894568614196,243.58821008881205 57.29282194864936,254.01858195348177 58.09214048739523,258.43279467299 60.016247699502856,261.1094157679763 65.75985443848185,258.75406753006973 72.3761983497534,251.62823731367826 77.31851763208397,249.05945133362547 82.24534174823202,249.1278973617882 87.55673489021137,251.0576170468703 97.75,235.26642324478598 96.77487795217894,234.3135448313551 91.29613206069916,234.06383865131647 61.3483877137769,235.34209083899623 60.5653843479231,243.03706915461225 57.51696430402808,252.26042410853552 57.7404863119591,257.09774241314153 59.73065613093786,261.28639393099 65.46470671379939,259.03938970691524 71.29433703189716,252.3672669569496 76.55757838697173,249.39454768088763 81.2460655409377,248.7595486237551 86.42431639647111,250.92280343125458 87.61044062161818,250.70953197113704 97.34717450174503,235.83021173108136 97.01496673980728,234.60220849970938 95.33573155780323,234.1815978224622 61.28796980972402,235.35674275329802 60.80593040958047,243.08718951354967 57.4531757645309,252.9163881270215 58.21263615274802,258.8122999565094 59.9021149657201,261.13098831064417 66.92855864902958,257.99699675818556" stroke="#ff7000" stroke-linecap="round" stroke-linejoin="round" stroke-width="0.5"><title>2020-09-04 10.7km</title></polyline><polyline fill="none" points="115.9733883459121,252.77850601743557 120.51199515722692,249.6326053783705 124.9371401942335,248.9542058017105 133.03630286967382,250.98994212708203 137.0918598852586,243.35354112120694 142.75,235.36067274719244 141.39928160770796,234.13055135909235 137.93094053887762,234.05041309789522 106.33702063048258,235.1490177877131 105.44270533090457,243.5849750780617 102.31674685538746,253.82315196131822 102.6363469932694,257.6440833075321 104.57210574275814,261.08646725772996 110.33218479016796,258.66024597510113 117.72678117710166,251.31215468264418 120.94231375050731,249.62799412521417 125.08511826419272,248.87809786590515 132.8110089970287,250.71037704971968 142.3352057810407,235.47531716237427 141.34419659199193,234.1528538001876 131.4031338908244,233.91353274227004 121.56453596521169,234.9046759235789 106.45583433983847,234.96750186319696 105.75422396929935,235.94671652151737 105.69694027025253,242.84480727446498 102.25,254.10578137650737 103.21680459659547,259.54248790370184 104.79752505361103,260.9657948924578 111.40814355155453,257.9909498919733 115.72695225360803,253.1066935796698 121.4116560453549,249.26710537669715 126.30033884290606,248.84881523193326 131.15843171416782,250.81396235141438 132.92354965233244,250.52214908367023 142.12428531679325,234.82286925197695 141.20937602664344,234.17113323500962 129.44725906965323,233.99589583676425 106.36126651149243,235.1809235541732 105.29027031199075,244.24649956991198 102.6364958579652,250.98169124906417 102.48178472206928,257.4681959156296" stroke="#4dd2ff" stroke-linecap="round" stroke-linejoin="round" stroke-width="0.5"><title>2020-09-05 6.1km</title></polyline><polyline fill="none" points="163.25174414273351,250.435734300263 167.59730063588358,248.57040492992382 171.98248349968344,248.83683698475943 175.50672661466524,250.58465320520918 177.88611713261344,250.7565758243145 187.609126964584,235.6788663555344 187.29013910121284,234.44372729436145 182.44562288490124,233.87325236573815 151.19412229792215,235.05723258876242 150.12290116306394,244.5949585546332 147.72611823445186,250.37036937242374 147.33219825848937,253.98226074967533 148.12617518333718,258.5817166616034 149.81091763195582,260.84289021155564 155.16842026542872,258.94105152157135 164.83392520970665,249.80127222486772 168.86073607834987,248.64473234239267 177.49912614934146,250.7396435867704 187.53540172660723,235.5478836343391 186.70774144120514,234.1642050355149 181.8409367443528,233.81149312161142 151.45774413947947,235.07493836333742 150.3679272942245,243.96261693071574 147.3619808566291,251.8477750972961 148.17721600597724,258.78363303557853 150.06626222538762,261.0036699710763 157.16209237347357,257.3320304786612 162.68340130220167,251.13216665538494 165.91183086065575,249.25060430448502 170.71113939560018,248.61316566349706 177.46117389318533,250.81944155172096 187.75,235.26978433440672 187.08600375405513,234.2649993490777 185.2401762851514,234.03507909737527 151.1947104698047,235.13527360875742 150.05657595489174,244.46320541371824 147.31807070132345,253.46186318111722 147.87351563898847,257.91202750775847 149.56237077270634,261.1885068784177 155.50458758324385,258.8168913691188 161.72430709237233,252.1436054656515 165.97736927703954,249.13307129428722 170.3175822100602,248.68103172964766 177.44197325687855,250.97948756467667 187.50276995496824,235.01793391819228 186.74521805089898,234.04914903250756 184.40152598824352,233.87595771512133 158.2412376422435,234.4203899061249 150.8765937909484,235.2729282354412 150.49524233746342,242.49358451348962 147.3343859014567,253.17319713361212 148.0857945117168,258.63276714851963 149.69474674086086,260.93605796722113 156.36401277291588,258.22986241275794 165.181704394985,249.76081935910042 168.8163985668216,248.82367876646458 172.34937571175396,249.18555167369777 177.39841202110983,251.21054729091702 187.66484490898438,235.40727705138852 187.17347872420214,234.3608280471817 185.49782717064954,233.9817503975064 162.71825916948728,234.1915747038147 151.3575581603218,235.11421090285876 150.45978780882433,243.80622232731548 148.0584158236161,249.49610125197796 147.25,254.67119255656144 148.33886056393385,259.4372570365085 149.95746980630793,260.99461014481494 155.99104625475593,258.21857802022714 163.5871104793623,250.26411932118936 166.96227646502666,248.79633182517136 172.36402119603008,249.00424503639806 177.7256247245241,251.0446933643252 186.88432473898865,236.72639288732898 187.23390175960958,234.40717532410054 151.41815908253193,235.03053273557452 150.30099477106705,243.80943218505126 147.46286688745022,251.47643872408662 147.81247653975151,258.0144444052421 149.53700683172792,260.9188267061545 154.10044137667865,259.4828739630175 163.23622502549551,250.79957800160628 165.79202122008428,249.38702181633562 170.39502283767797,248.64029627596028 176.9404321159236,250.95883627509465 178.07993166823871,250.68993897578912 187.4614713403862,235.67841877846513 187.25966237508692,234.48422874027165 151.4312556264922,235.1119999542425 150.6602063535247,243.3292158707918 147.31082717352547,251.9111674047308 147.59360344870947,257.3876070137194 149.15139743941836,260.6102266864036 150.8706245268695,260.9489550058497 155.68826876021922,258.5097218155861 163.72931484901346,251.02212337165838" stroke="#ff0000" stroke-linecap="round" stroke-linejoin="round" stroke-width="0.5"><title>2020-09-06 15.2km</title></polyline></svg>