<svg xmlns="http://www.w3.org/2000/svg" xmlns:ev="http://www.w3.org/2001/xml-events" xmlns:xlink="http://www.w3.org/1999/xlink" width="200mm" height="300mm" baseProfile="full" version="1.1" viewBox="0 0 200 300"><rect width="200" height="300" x="0" y="0" fill="#222"/><text style="font-size:12px;font-family:Arial;font-weight:700" x="10" y="20" fill="#FFF">Over 5km Runs</text><text style="font-size:4px;font-family:Arial" x="10" y="280" fill="#FFF">ATHLETE</text><text style="font-size:9px;font-family:Arial" x="10" y="290" fill="#FFF">DuanFei</text><text style="font-size:4px;font-family:Arial" x="120" y="280" fill="#FFF">STATISTICS</text><text style="font-size:3px;font-family:Arial" x="120" y="285" fill="#FFF">Number: 72</text><text style="font-size:3px;font-family:Arial" x="120" y="290" fill="#FFF">Weekly: 3.0</text><text style="font-size:3px;font-family:Arial" x="141" y="285" fill="#FFF">Total: 517.6 km</text><text style="font-size:3px;font-family:Arial" x="141" y="290" fill="#FFF">Avg: 7.2 km</text><text style="font-size:3px;font-family:Arial" x="167" y="285" fill="#FFF">Min: 5.0 km</text><text style="font-size:3px;font-family:Arial" x="167" y="290" fill="#FFF">Max: 23.6 km</text><polyline fill="none" stroke="#4dd2ff" stroke-linecap="round" stroke-linejoin="round" stroke-width=".5" points="18.318 32.141 18.587 31.672 22.716 31.594 24.9 32.141 26.575 31.633 29.597 32.689 28.131 49.929 26.216 51.375 12.724 46.606 14.668 31.516 25.319 31.868 26.605 32.806 29.657 32.728 28.131 49.811 27.353 50.867 26.007 51.336 12.873 46.41 14.818 31.32 22.088 31.672 29.776 32.845 28.251 49.342 27.592 50.789 26.156 51.336 12.963 46.41 14.818 31.399 17.271 31.125 18.318 31.594"><title>2020-06-12 5.5km</title></polyline><polyline fill="none" stroke="#4dd2ff" stroke-linecap="round" stroke-linejoin="round" stroke-width=".5" points="41.082 31.755 49.524 31.755 52.177 32.78 51.302 45.466 50.217 50.745 49.102 51.375 47.835 51.257 38.549 48.145 35.323 46.49 35.655 42.353 37.253 31.401 49.674 31.874 52.207 32.662 50.82 49.72 49.403 51.257 47.624 51.178 40.418 48.735 35.293 46.529 36.71 33.371 37.132 31.48 37.856 31.125 44.639 31.361 46.84 31.952 49.855 31.755 52.297 32.819 50.85 49.326 50.277 50.587 49.102 51.336 43.675 50.075 35.203 46.411 36.439 36.759"><title>2020-06-16 5.2km</title></polyline><polyline fill="none" stroke="#4dd2ff" stroke-linecap="round" stroke-linejoin="round" stroke-width=".5" points="63.461 32.128 66.383 31.588 70.663 31.935 74.441 33.208 72.936 50.179 71.755 51.182 70.604 51.336 58.029 46.554 59.741 31.704 62.605 31.125 73.526 32.706 74.412 33.092 74.5 34.828 73.615 44.664 72.936 49.755 71.696 51.259 70.043 51.144 58.059 46.554 59.505 32.591 59.918 31.665 62.988 31.356 71.135 32.089 74.382 33.054 73.054 49.254 72.552 50.604 71.135 51.375 58 46.399 59.594 33.594"><title>2020-07-10 5.3km</title></polyline><polyline fill="none" stroke="#4dd2ff" stroke-linecap="round" stroke-linejoin="round" stroke-width=".5" points="86.536 31.477 88.84 31.164 96.05 32.102 97.127 32.65 95.661 49.772 95.003 50.867 93.387 51.375 85.878 48.873 80.433 46.254 82.108 31.672 83.395 31.125 91.682 31.946 93.746 31.672 97.246 32.728 95.81 49.108 94.883 50.867 93.417 51.336 87.164 48.99 85.878 49.225 80.284 46.293 82.138 31.555 82.737 31.125 85.818 31.164 87.284 31.711 94.464 31.907 97.246 32.767 95.571 50.085 93.686 51.375 88.451 49.616 87.284 48.756 86.028 48.873 80.224 46.098 82.079 32.181 82.497 31.242 88.511 31.281 97.276 32.65 95.541 49.538 94.853 50.671 93.387 51.18 86.057 48.912 80.343 46.215 82.108 31.399 82.946 31.281"><title>2020-07-18 7.2km</title></polyline><polyline fill="none" stroke="#ffaf00" stroke-linecap="round" stroke-linejoin="round" stroke-width=".5" points="108.943 31.997 115.995 31.959 119.216 33.059 117.91 49.441 117.214 50.655 115.85 51.185 103.11 46.559 104.967 31.732 109.668 31.466 118.055 32.604 119.274 33.135 119.39 33.666 118.636 45.232 117.852 49.593 117.127 50.73 116.285 51.185 114.515 50.958 103.197 46.597 103.4 43.184 105.054 31.656 110.771 31.466 119.274 33.173 118.665 45.08 117.823 49.555 116.633 51.034 114.631 51.072 103.139 46.483 104.793 32.718 105.257 31.618 110.974 31.39 119.187 33.021 118.055 49.669 116.923 51.072 115.821 51.375 103.11 46.332 104.88 32.149 105.257 31.618 107.811 31.201 111.061 31.125 114.283 32.187 116.865 32.149 119.39 33.173 118.781 44.094 117.852 49.479 116.749 50.996 115.327 51.185 103.168 46.37 104.88 32.073 105.344 31.58 107.898 31.239 117.301 32.414 119.303 33.173 117.794 49.593 117.214 50.655 115.705 51.185 103.11 46.559 105.199 31.732"><title>2020-07-31 10.8km</title></polyline><polyline fill="none" stroke="#4dd2ff" stroke-linecap="round" stroke-linejoin="round" stroke-width=".5" points="132.025 31.436 139.491 31.98 141.989 32.991 141.305 44.573 140.264 50.131 139.164 51.258 137.974 51.336 126.849 47.294 125.481 46.361 127.266 31.591 132.768 31.242 137.676 32.174 139.699 31.864 142.078 33.224 140.829 47.683 139.61 51.025 138.331 51.375 134.226 50.248 125.451 46.711 125.838 40.764 127.236 31.397 133.453 31.125 141.93 32.796 140.799 47.799 140.234 50.248 138.836 51.375 125.6 46.4 127.147 31.708 130.567 31.125 139.788 32.213 142.019 33.03 140.621 49.004 139.967 50.637 138.747 51.375 133.75 50.015 125.422 46.517 126.492 37.033"><title>2020-08-07 7.0km</title></polyline><polyline fill="none" stroke="#4dd2ff" stroke-linecap="round" stroke-linejoin="round" stroke-width=".5" points="153.988 31.859 162.15 32.091 164.427 33.057 163.895 45.231 162.889 50.1 162.091 51.027 160.642 51.259 148.191 46.235 149.847 31.782 153.13 31.357 159.518 32.207 162.15 31.898 164.427 32.941 164.516 35.569 163.333 47.82 162.978 49.868 162.12 50.989 160.997 51.375 157.743 50.332 147.984 46.313 149.818 31.666 156.59 31.125 159.843 32.091 163.54 32.246 164.516 33.328 163.806 44.69 162.742 50.332 160.819 51.375 151.681 48.09 148.161 46.197 149.758 31.898 152.952 31.164 157.004 31.396 158.512 32.207"><title>2020-08-09 5.6km</title></polyline><polyline fill="none" stroke="#4dd2ff" stroke-linecap="round" stroke-linejoin="round" stroke-width=".5" points="176.031 32.348 184.218 32.462 186.937 33.074 186.148 44.651 185.241 50.114 184.159 51.146 182.61 51.146 174.13 47.898 170.914 46.446 170.534 45.759 172.376 31.889 183.399 32.462 186.908 33.265 185.767 48.089 185.095 50.343 183.458 51.26 170.797 46.37 172.317 31.622 178.808 31.966 186.908 33.303 185.709 47.975 184.686 50.84 183.721 51.299 182.171 51.146 170.855 46.446 170.738 45.72 172.493 31.698 179.452 31.125 182.317 32.309 185.826 32.539 186.966 33.494 186.06 45.873 185.358 50.038 183.575 51.375 170.826 46.523 172.23 32.921"><title>2020-08-14 7.1km</title></polyline><polyline fill="none" stroke="#4dd2ff" stroke-linecap="round" stroke-linejoin="round" stroke-width=".5" points="18.352 59.058 21.716 58.666 29.644 59.686 28.503 74.56 27.962 77.111 26.401 78.563 12.766 73.618 14.478 59.294 14.778 58.469 17.961 58.313 27.422 59.215 29.734 59.882 28.143 76.522 27.512 77.856 26.461 78.484 18.112 75.894 12.766 73.5 14.478 59.49 14.718 58.509 15.739 58.352 26.25 58.98 29.644 60 28.082 76.64 27.422 77.935 26.16 78.523 20.034 76.247 18.202 76.051 12.916 73.5 14.418 59.647"><title>2020-08-20 5.3km</title></polyline><polyline fill="none" stroke="#4dd2ff" stroke-linecap="round" stroke-linejoin="round" stroke-width=".5" points="41.323 58.785 48.408 59.022 52.147 60.046 51.393 71.905 50.428 77.42 49.524 78.405 48.288 78.563 35.444 73.362 37.162 58.509 40.298 58.313 51.966 59.77 51.514 71.471 50.428 77.578 49.373 78.405 48.046 78.484 35.383 73.48 37.192 58.352 51.996 59.77 51.272 71.786 50.187 78.09 48.468 78.523 40.328 75.844 35.474 73.441 35.414 71.747 37.283 58.352 51.996 59.849 50.488 77.696 48.529 78.563 35.353 73.559 37.253 58.549 40.991 58.313 51.905 59.691 52.056 63.474 50.82 76.435 49.976 78.09 48.288 78.444"><title>2020-08-21 8.1km</title></polyline><polyline fill="none" stroke="#4dd2ff" stroke-linecap="round" stroke-linejoin="round" stroke-width=".5" points="63.067 70.88 65.894 69.202 69.502 69.412 71.134 70.131 76.007 62.997 76.191 62.098 75.708 61.738 69.158 61.738 58.217 62.308 57.757 66.205 56.125 70.821 56.378 73.578 57.274 75.077 58.469 74.867 60.906 73.548 62.906 71.15 65.549 69.442 68.56 69.142 70.652 70.221 71.18 70.101 76.283 62.548 76.053 61.918 75.157 61.708 58.286 62.338 57.941 62.847 57.78 66.115 56.424 70.041 56.125 72.379 57.251 75.167 60.216 74.088 64.239 70.071 65.71 69.352 68.813 69.172 71.157 70.161 76.375 62.158 75.961 61.738 72.881 61.708 58.033 62.278 57.941 65.575 56.539 69.652 56.125 72.349 56.906 74.687 57.596 75.137"><title>2020-09-02 6.1km</title></polyline><polyline fill="none" stroke="#ffb300" stroke-linecap="round" stroke-linejoin="round" stroke-width=".5" points="85.68 70.917 88.338 69.214 91.109 69.095 93.011 70.11 93.904 69.991 98.646 62.134 97.592 61.657 95.187 61.627 80.664 62.194 80.137 66.795 78.625 72.052 79.129 74.203 79.862 75.159 83.298 73.844 86.047 70.529 87.398 69.692 90.835 69.155 93.721 70.11 98.829 62.344 98.371 61.866 96.035 61.537 88.796 62.224 83.39 62.015 80.389 62.433 80.366 65.988 78.625 71.365 79.152 74.382 79.954 75.308 82.794 74.143 86.184 70.349 88.109 69.244 90.514 69.125 93.698 70.17 98.829 62.194 98.05 61.776 94.958 61.686 80.549 62.344 80.183 66.466 78.648 71.694 79.037 73.904 79.999 75.248 82.863 74.054 86.184 70.499 88.658 69.214 91.109 69.244 93.767 70.2 98.875 62.314 98.371 61.836 95.645 61.716 80.664 62.344 80.274 66.197 78.762 70.827 78.854 73.247 79.862 75.338 82.725 74.203 85.635 70.857 88.269 69.394 90.628 69.065 93.217 70.14 93.79 70.051 98.669 62.612 98.508 61.985 97.661 61.776 80.641 62.373 80.389 66.227 78.717 71.156 79.106 74.083 79.954 75.248 83.458 73.695"><title>2020-09-04 10.6km</title></polyline><polyline fill="none" stroke="#4dd2ff" stroke-linecap="round" stroke-linejoin="round" stroke-width=".5" points="107.982 71.069 110.252 69.514 112.454 69.155 116.513 70.172 118.531 66.374 121.375 62.367 120.687 61.768 118.967 61.709 103.166 62.277 102.707 66.494 101.148 71.608 101.308 73.522 102.272 75.226 105.161 74.03 108.853 70.352 110.459 69.514 112.546 69.125 116.398 70.053 121.169 62.426 120.664 61.768 115.688 61.649 110.78 62.127 103.235 62.157 102.868 62.666 102.845 66.105 101.125 71.727 101.607 74.449 102.386 75.166 105.689 73.671 107.867 71.249 110.711 69.335 113.142 69.125 115.573 70.082 116.467 69.963 121.054 62.097 120.595 61.768 114.724 61.679 103.166 62.277 102.639 66.823 101.308 70.172 101.24 73.432"><title>2020-09-05 6.0km</title></polyline><polyline fill="none" stroke="#f70" stroke-linecap="round" stroke-linejoin="round" stroke-width=".5" points="131.624 69.891 133.807 68.962 135.991 69.112 137.761 69.981 138.956 70.071 143.806 62.518 143.645 61.918 141.232 61.618 125.602 62.218 125.073 66.984 123.878 69.861 123.671 71.66 124.085 73.968 124.912 75.107 127.601 74.148 132.428 69.592 134.428 68.992 138.749 70.041 143.783 62.458 143.369 61.768 140.933 61.588 125.74 62.218 125.188 66.654 123.694 70.611 124.108 74.058 125.05 75.197 128.59 73.338 131.348 70.251 132.957 69.322 135.37 68.992 138.726 70.101 143.875 62.308 143.553 61.828 142.634 61.708 125.602 62.248 125.027 66.924 123.671 71.42 123.947 73.638 124.797 75.287 127.762 74.088 130.865 70.761 133.003 69.262 135.164 69.022 138.726 70.161 143.76 62.188 143.369 61.708 142.197 61.618 129.118 61.888 125.441 62.308 125.257 65.935 123.671 71.27 124.062 73.998 124.866 75.137 128.199 73.788 132.589 69.562 134.405 69.082 136.175 69.262 138.703 70.281 143.829 62.398 143.599 61.858 142.749 61.678 131.371 61.768 125.694 62.248 125.234 66.594 124.039 69.442 123.625 72.019 124.177 74.387 124.981 75.167 128.015 73.788 131.808 69.801 133.486 69.082 136.198 69.172 138.864 70.191 143.438 63.057 143.622 61.888 125.717 62.188 125.165 66.594 123.74 70.431 123.924 73.698 124.774 75.137 127.05 74.417 131.624 70.071 132.911 69.382 135.21 68.992 138.473 70.161 139.048 70.041 143.737 62.518 143.645 61.918 125.717 62.248 125.349 66.354 123.671 70.641 123.809 73.368 124.59 74.987 125.441 75.167 127.854 73.938 131.877 70.191"><title>2020-09-06 14.9km</title></polyline><polyline fill="none" stroke="#4dd2ff" stroke-linecap="round" stroke-linejoin="round" stroke-width=".5" points="153.144 70.681 155.153 69.326 157.208 68.995 161.318 70.169 165.821 63.243 166.213 61.828 161.203 61.648 148.111 62.19 147.672 66.435 146.125 71.163 146.402 73.692 147.303 75.258 149.081 74.746 151.205 73.3 153.629 70.5 155.13 69.446 158.109 69.085 161.411 70.109 166.375 62.34 166.075 61.708 165.405 61.617 147.972 62.28 147.741 66.224 146.148 71.283 146.264 73.15 147.026 75.167 150.489 73.903 153.652 70.38 156.008 69.145 158.709 69.175 161.318 70.169 166.306 62.129 165.959 61.648 148.041 62.34 147.464 67.218 146.264 70.289 146.194 72.939"><title>2020-09-08 6.0km</title></polyline><polyline fill="none" stroke="#ffb600" stroke-linecap="round" stroke-linejoin="round" stroke-width=".5" points="175.703 70.783 177.101 69.677 179.689 68.99 183.927 70.096 188.875 62.269 188.44 61.821 185.095 61.731 170.732 62.209 170.343 63.105 170.274 66.302 169.106 69.169 168.671 71.649 168.946 73.829 169.725 75.144 173.344 73.591 175.91 70.603 178.475 69.14 180.308 69.11 183.79 70.096 188.852 62.448 188.348 61.761 187.432 61.731 170.595 62.239 170.091 66.899 168.625 71.111 168.923 73.65 169.931 75.174 173 73.829 175.887 70.723 178.361 69.289 180.285 69.05 183.744 70.125 188.669 62.09 188.188 61.731 170.572 62.239 170.389 65.734 169.106 69.229 168.717 72.216 169.198 74.278 170.068 75.144 172.702 74.009 175.795 70.783 178.819 69.14 184.019 70.066 188.76 62.299 188.394 61.791 186.561 61.671 170.503 62.388 170.114 66.81 168.694 71.35 169.06 73.919 169.954 75.204 173 73.8 176.001 70.514 178.383 68.99 181.453 69.199 183.721 70.096 188.829 62.299 188.165 61.671 170.549 62.418 170.137 66.869 168.74 71.231 169.06 73.889"><title>2020-09-09 10.3km</title></polyline><polyline fill="none" stroke="#4dd2ff" stroke-linecap="round" stroke-linejoin="round" stroke-width=".5" points="18.447 97.744 18.722 97.207 20.026 96.61 22.291 96.132 26.318 97.326 31.329 89.359 29.888 88.911 13.001 89.538 12.612 93.894 11.331 97.415 11.125 99.802 12.063 102.16 12.635 102.368 15.816 100.787 17.989 98.728 18.676 97.535 20.003 96.699 21.467 96.282 23.801 96.341 26.25 97.505 31.238 89.598 31.123 89.031 30.277 88.882 13.299 89.419 12.498 94.491 11.171 98.012 11.514 101.115 12.178 102.219 13.596 102.07 15.427 101.026 19.088 97.296 20.644 96.401 23.778 96.341 26.227 97.535 31.375 89.359 30.597 88.911 22.543 89.24"><title>2020-09-10 5.3km</title></polyline><polyline fill="none" stroke="#4dd2ff" stroke-linecap="round" stroke-linejoin="round" stroke-width=".5" points="40.683 98.287 42.851 96.723 44.188 96.272 45.826 96.272 48.916 97.264 52.653 91.76 53.875 89.234 49.977 88.873 35.516 89.504 35.17 94.257 33.648 98.738 33.948 100.873 34.847 102.437 38.03 101.024 41.259 97.685 43.035 96.633 45.572 96.182 48.939 97.445 53.852 89.715 53.506 88.843 49.147 88.753 41.905 89.234 39.852 88.933 35.401 89.625 35.447 92.933 33.625 98.708 34.155 101.475 34.94 102.497 37.846 101.144 41.167 97.715 43.727 96.332 46.564 96.332 49.009 97.234 53.829 89.354 53.46 88.903 48.34 88.783 35.608 89.504 35.355 93.595 33.763 98.167 33.971 100.934 35.009 102.407 36.762 101.776 38.814 100.332"><title>2020-09-13 6.3km</title></polyline><polyline fill="none" stroke="#4dd2ff" stroke-linecap="round" stroke-linejoin="round" stroke-width=".5" points="63.113 98.278 65.158 96.839 66.79 96.329 68.836 96.449 71.433 97.319 76.375 89.375 75.892 88.986 71.64 88.896 58.194 89.405 57.849 89.855 57.849 92.733 56.125 98.548 56.585 101.305 57.527 102.384 59.872 101.485 63.09 98.218 65.733 96.599 67.962 96.24 70.675 97.289 71.341 97.199 76.283 89.525 75.639 88.896 70.675 88.896 58.056 89.585 57.757 93.332 56.309 97.469 56.125 99.357 56.539 101.275 56.952 102.144 57.527 102.294 60.124 101.245 62.469 99.177 63.09 98.098 66.606 96.18 68.514 96.27 70.767 97.319 71.387 97.199 76.26 89.705 75.616 88.836 58.309 89.375 57.895 89.855 57.688 93.572 56.171 98.518 56.516 101.275 57.274 102.414"><title>2020-09-15 6.1km</title></polyline><polyline fill="none" stroke="red" stroke-linecap="round" stroke-linejoin="round" stroke-width=".5" points="85.566 98.075 88.613 96.223 91.728 96.372 93.835 97.149 98.692 88.934 80.641 89.352 80.389 93.116 79.014 96.551 78.648 99.001 78.946 100.554 79.862 102.137 82.611 101.151 86.368 97.208 88.59 96.073 90.491 96.073 93.95 96.999 98.875 89.232 98.463 88.695 80.664 89.232 80.343 93.086 78.625 98.403 78.854 100.225 79.816 102.167 82.428 101.241 85.887 97.716 88.361 96.103 91.613 96.312 93.973 97.178 98.783 89.352 98.554 88.754 97.294 88.695 80.641 89.322 80.297 93.146 78.762 98.015 78.9 100.136 79.702 102.137 83.046 100.793 85.749 97.836 88.383 96.163 91.545 96.252 93.835 97.178 98.692 89.322 98.371 88.725 97.73 88.725 80.664 89.262 80.32 92.877 78.694 98.284 79.06 100.853 79.954 102.137 82.863 100.823 85.474 98.553 86.093 97.537 88.452 96.163 90.376 95.984 93.698 97.149 98.852 89.412 98.646 88.874 97.775 88.635 80.618 89.292 80.274 93.444 78.694 98.941 79.702 102.167 83.367 100.614 86.161 97.447 88.292 96.193 90.491 96.103 93.767 97.089 98.875 89.232 98.257 88.695 80.687 89.232 80.343 93.415 79.175 96.342 78.717 98.911 79.221 101.331 80.137 102.167 83.206 100.703 85.589 97.985 87.902 96.432 90.376 95.954 93.927 97.089 98.646 89.501 98.417 88.725 96.607 88.665 80.641 89.382 80.366 92.907 78.831 97.955 78.923 100.046 79.656 102.077 81.443 101.719 83.023 100.793 86.895 96.999 88.429 96.133 90.331 96.133 93.835 97.149 98.852 89.232 98.417 88.754 95.76 88.695 80.87 89.113 80.48 89.531 80.206 93.474 78.717 97.895 78.9 100.554 79.45 101.958 80.068 102.048 83.344 100.554 85.91 97.686 88.406 95.984 90.766 95.984 93.057 96.939 93.973 96.85 98.829 89.232 98.165 88.665 80.71 89.173 80.251 93.534 78.717 98.553 79.037 100.942 80.022 101.958 82.29 101.39 86.368 97.238 88.2 96.193 90.285 95.894 93.034 96.969 93.95 96.91 98.829 89.292 98.257 88.665 80.595 89.262 80.183 93.803 78.74 98.314 78.877 100.136 79.633 102.048 81.374 101.629 84.008 99.957 85.52 97.866 88.406 96.013 90.17 95.924 93.835 97.149 98.875 89.053 98.142 88.665 80.618 89.382 80.297 93.205 78.74 99.031 79.198 101.092 80.114 102.615 83.206 101.39 86.345 98.104 87.994 97.238"><title>2020-09-16 23.6km</title></polyline><polyline fill="none" stroke="#4dd2ff" stroke-linecap="round" stroke-linejoin="round" stroke-width=".5" points="108.644 97.846 110.244 96.624 112.278 96.296 114.633 96.713 116.21 97.518 121.375 89.5 120.347 88.904 116.073 88.874 103.136 89.411 102.931 93.136 101.674 96.266 101.125 99.366 101.925 102.078 102.771 102.406 106.062 100.647 108.027 98.293 110.473 96.564 113.261 96.326 116.21 97.458 121.352 89.619 120.758 88.964 118.038 88.844 103.113 89.53 102.976 93.166 101.239 98.68 101.719 101.452 102.519 102.406 105.422 100.975 107.365 99.425 108.302 98.084 110.45 96.594 112.438 96.296 116.415 97.249 121.352 89.441 120.986 88.993 119.821 88.844 103.296 89.5 102.839 93.941 101.262 98.68 101.628 101.124 102.611 102.376"><title>2020-09-18 6.1km</title></polyline><polyline fill="none" stroke="#4dd2ff" stroke-linecap="round" stroke-linejoin="round" stroke-width=".5" points="130.833 98.027 132.938 96.655 134.722 96.296 138.841 97.4 143.783 89.851 143.715 89.284 143.28 88.837 125.89 89.463 125.341 93.581 123.877 97.162 123.648 99.34 124.838 102.383 126.05 102.175 127.881 101.13 130.65 98.266 133.006 96.744 135.409 96.326 138.818 97.4 143.875 89.284 143.349 88.926 141.587 88.896 125.73 89.374 125.318 93.402 123.625 98.505 124.014 100.981 125.044 102.413 127.881 101.13 130.695 98.206 133.052 96.655 134.883 96.386 138.818 97.281 143.806 89.553 143.6 89.016 142.662 88.896 125.822 89.404 125.433 89.821 125.478 92.626 123.991 97.192 123.762 99.668"><title>2020-09-20 6.0km</title></polyline><polyline fill="none" stroke="#4dd2ff" stroke-linecap="round" stroke-linejoin="round" stroke-width=".5" points="153.198 98.089 157.229 96.226 161.652 97.187 166.329 89.346 165.477 88.896 148.037 89.587 147.83 92.771 146.125 98.629 146.401 100.792 147.254 102.354 148.843 102.114 150.94 100.912 153.105 98.209 156.008 96.346 157.828 96.106 160.915 97.307 161.56 97.097 166.375 89.557 165.684 88.926 148.36 89.406 147.991 89.857 147.738 93.462 146.148 98.509 146.378 100.792 147.346 102.294 149.212 101.874 150.825 100.852 153.589 97.728 156.146 96.316 158.081 96.226 161.307 97.368 166.283 89.316 165.845 88.896 148.291 89.436 147.899 89.857 147.692 93.642 146.309 97.488 146.148 99.531"><title>2020-09-22 6.0km</title></polyline><polyline fill="none" stroke="#4dd2ff" stroke-linecap="round" stroke-linejoin="round" stroke-width=".5" points="175.957 98.068 178.509 96.449 179.681 96.27 183.726 97.558 188.852 89.405 188.415 88.926 185.45 88.746 178.279 89.405 170.579 89.525 170.28 93.662 168.625 98.008 168.924 101.035 169.889 102.414 173.015 101.035 175.452 98.398 177.52 96.869 180.279 96.389 183.841 97.469 188.875 89.555 188.231 88.926 170.579 89.435 170.165 93.842 168.648 98.578 169.016 101.215 169.82 102.384 172.349 101.485 177.52 96.839 180.761 96.33 183.749 97.379 188.806 89.585 188.162 88.956 184.209 88.956 170.625 89.585 170.234 93.692 168.901 97.079 168.625 99.117 169.062 101.335 169.912 102.504"><title>2020-09-26 6.1km</title></polyline><polyline fill="none" stroke="#4dd2ff" stroke-linecap="round" stroke-linejoin="round" stroke-width=".5" points="31.354 120.581 31.361 120.586 31.354 120.59 31.375 120.608 31.261 120.626 31.054 120.635 31.036 120.64 31.033 120.649 31.019 120.64 30.977 120.654 30.922 120.654 30.843 120.667 30.798 120.658 30.753 120.658 30.725 120.672 30.521 120.676 30.435 120.699 30.414 120.699 30.334 120.73 30.276 120.73 30.276 120.744 30.245 120.748 30.151 120.753 30.096 120.762 29.937 120.766 29.851 120.757 29.754 120.753 29.688 120.762 29.494 120.766 29.398 120.784 29.349 120.78 29.266 120.802 29.259 120.82 29.201 120.807 29.028 120.793 28.9 120.798 28.879 120.807 28.834 120.802 28.793 120.811 28.772 120.802 28.686 120.825 28.623 120.816 28.585 120.825 28.495 120.834 28.451 120.825 28.343 120.829 28.302 120.838 28.264 120.852 28.157 120.843 28.119 120.856 28.036 120.856 27.984 120.87 27.925 120.865 27.894 120.883 27.859 120.888 27.756 120.888 27.662 120.897 27.631 120.888 27.604 120.892 27.517 120.883 27.496 120.879 27.486 120.865 27.469 120.856 27.441 120.852 27.386 120.861 27.324 120.883 27.237 120.883 27.199 120.897 27.085 120.906 27.092 120.915 27.054 120.915 27.037 120.928 27.023 120.928 26.978 120.947 26.833 120.974 26.622 120.992 26.577 121.001 26.266 121.032 25.979 121.041 25.931 121.055 25.899 121.05 25.882 121.064 25.796 121.073 25.716 121.095 25.488 121.118 25.426 121.149 25.398 121.136 25.353 121.131 25.291 121.131 25.243 121.136 25.229 121.145 25.173 121.14 25.149 121.149 25.132 121.149 25.122 121.158 25.073 121.181 25.07 121.176 25.056 121.145 25.049 121.145 24.942 121.154 24.911 121.163 24.893 121.158 24.873 121.167 24.772 121.167 24.731 121.185 24.7 121.19 24.683 121.194 24.69 121.199 24.679 121.208 24.655 121.208 24.624 121.217 24.579 121.212 24.579 121.221 24.492 121.24 24.368 121.24 24.323 121.244 24.223 121.235 24.091 121.24 24.05 121.249 24.009 121.262 23.936 121.271 23.922 121.28 23.843 121.28 23.729 121.289 23.642 121.289 23.528 121.307 23.487 121.325 23.455 121.325 23.379 121.325 23.265 121.343 22.927 121.37 22.66 121.379 22.609 121.388 22.512 121.384 22.481 121.388 22.339 121.384 22.266 121.397 22.211 121.397 22.194 121.406 22.118 121.397 22.052 121.406 22.035 121.402 21.917 121.406 21.879 121.415 21.855 121.415 21.838 121.42 21.796 121.42 21.737 121.429 21.627 121.433 21.616 121.447 21.571 121.465 21.551 121.456 21.499 121.465 21.468 121.456 21.426 121.46 21.412 121.474 21.368 121.483 21.35 121.478 21.336 121.487 21.271 121.469 21.115 121.478 21.039 121.465 20.949 121.478 20.87 121.465 20.794 121.478 20.697 121.474 20.604 121.487 20.531 121.478 20.386 121.496 20.33 121.474 20.185 121.487 20.012 121.46 19.902 121.474 19.677 121.442 19.418 121.433 19.304 121.438 19.062 121.46 19.024 121.447 18.965 121.447 18.927 121.456 18.868 121.451 18.851 121.46 18.744 121.46 18.723 121.456 18.592 121.46 18.547 121.456 18.523 121.46 18.453 121.451 18.26 121.442 18.205 121.451 18.118 121.451 18.059 121.469 18.008 121.46 17.983 121.465 17.928 121.496 17.835 121.465 17.669 121.46 17.548 121.447 17.437 121.447 17.403 121.433 17.219 121.447 17.171 121.465 17.057 121.465 16.998 121.46 16.922 121.469 16.863 121.456 16.811 121.465 16.787 121.46 16.659 121.465 16.618 121.465 16.5 121.474 16.483 121.478 16.445 121.474 16.404 121.483 16.362 121.478 16.272 121.487 16.255 121.496 16.21 121.487 16.106 121.483 16.047 121.474 15.795 121.496 15.657 121.487 15.636 121.492 15.536 121.478 15.194 121.514 15.156 121.51 15.121 121.519 14.997 121.523 14.834 121.519 14.696 121.537 14.627 121.528 14.613 121.537 14.565 121.537 14.533 121.551 14.471 121.542 14.454 121.546 14.44 121.537 14.419 121.537 14.399 121.542 14.357 121.578 14.323 121.587 14.26 121.582 14.219 121.569 14.202 121.578 14.181 121.578 14.157 121.569 14.098 121.564 14.029 121.573 14.015 121.587 13.994 121.587 13.918 121.582 13.884 121.591 13.863 121.587 13.846 121.591 13.79 121.578 13.725 121.578 13.6 121.596 13.503 121.591 13.355 121.609 13.23 121.6 13.061 121.614 12.985 121.632 12.836 121.636 12.774 121.654 12.732 121.659 12.56 121.636 12.494 121.645 12.425 121.668 12.307 121.668 12.21 121.686 12.093 121.695 11.996 121.686 11.91 121.704 11.747 121.704 11.737 121.717 11.644 121.722 11.612 121.735 11.602 121.749 11.602 121.78 11.609 121.812 11.588 121.839 11.46 121.875 11.346 121.875 11.319 121.889 11.315 121.956 11.329 122.006 11.294 122.091 11.291 122.109 11.308 122.177 11.291 122.272 11.287 122.389 11.301 122.533 11.298 122.7 11.305 122.745 11.305 122.79 11.312 122.817 11.319 122.862 11.319 122.912 11.308 122.975 11.319 123.006 11.315 123.074 11.332 123.155 11.336 123.263 11.343 123.277 11.336 123.412 11.346 123.444 11.35 123.502 11.36 123.552 11.367 123.728 11.374 123.75 11.467 123.917 11.519 123.993 11.529 124.07 11.547 124.12 11.543 124.219 11.554 124.273 11.554 124.313 11.564 124.35 11.564 124.431 11.578 124.503 11.564 124.683 11.571 124.737 11.567 124.746 11.567 124.769 11.578 124.778 11.574 124.791 11.581 124.823 11.571 124.863 11.574 124.985 11.567 125.008 11.523 125.026 11.464 125.021 11.377 125.03 11.277 125.017 11.267 125.039 11.249 125.044 11.225 125.035 11.205 125.017 11.208 124.99 11.191 124.985 11.187 124.971 11.173 124.958 11.17 124.949 11.173 124.751 11.17 124.706 11.16 124.697 11.166 124.638 11.177 124.624 11.17 124.629 11.156 124.593 11.156 124.57 11.135 124.561 11.125 124.566"><title>2020-10-10 6.1km</title></polyline><polyline fill="none" stroke="#4dd2ff" stroke-linecap="round" stroke-linejoin="round" stroke-width=".5" points="33.634 125.174 33.625 125.15 33.625 125.162 33.663 125.178 33.672 125.166 33.764 125.17 33.868 125.158 33.893 125.162 33.921 125.158 33.969 125.162 34.06 125.158 34.082 125.141 34.111 125.15 34.12 125.158 34.12 125.174 34.133 125.215 34.126 125.347 34.139 125.532 34.139 125.598 34.152 125.606 34.215 125.585 34.271 125.577 34.382 125.598 34.413 125.594 34.429 125.557 34.435 125.54 34.432 125.507 34.442 125.487 34.442 125.326 34.451 125.285 34.454 125.232 34.451 125.15 34.46 125.051 34.454 125.034 34.46 124.948 34.454 124.932 34.46 124.903 34.454 124.874 34.457 124.854 34.454 124.821 34.454 124.78 34.442 124.755 34.438 124.734 34.423 124.71 34.419 124.693 34.413 124.685 34.41 124.665 34.397 124.632 34.36 124.611 34.353 124.595 34.325 124.57 34.287 124.512 34.265 124.463 34.249 124.418 34.246 124.377 34.243 124.364 34.249 124.311 34.246 124.286 34.233 124.262 34.24 124.179 34.23 124.118 34.237 124.101 34.24 124.056 34.237 124.027 34.24 124.007 34.24 123.986 34.243 123.941 34.24 123.871 34.243 123.855 34.233 123.818 34.237 123.785 34.23 123.723 34.233 123.674 34.224 123.612 34.227 123.555 34.218 123.349 34.218 123.279 34.208 123.222 34.211 123.152 34.205 123.123 34.208 123.107 34.208 122.996 34.202 122.926 34.218 122.872 34.221 122.798 34.215 122.778 34.233 122.737 34.249 122.724 34.423 122.716 34.546 122.687 34.643 122.683 34.738 122.671 34.792 122.654 34.902 122.65 34.937 122.638 34.987 122.638 35.059 122.626 35.233 122.617 35.375 122.621 35.425 122.617 35.51 122.621 35.58 122.609 35.633 122.617 35.791 122.621 35.838 122.605 35.971 122.605 36.056 122.593 36.106 122.597 36.22 122.593 36.261 122.576 36.409 122.572 36.538 122.572 36.598 122.56 36.639 122.564 36.652 122.56 36.734 122.556 36.885 122.56 37.002 122.535 37.039 122.543 37.052 122.535 37.087 122.531 37.169 122.547 37.241 122.543 37.276 122.535 37.279 122.547 37.456 122.547 37.481 122.535 37.512 122.535 37.56 122.531 37.733 122.498 37.831 122.486 37.903 122.486 37.922 122.482 37.976 122.486 38.014 122.482 38.033 122.49 38.067 122.473 38.155 122.465 38.222 122.473 38.301 122.478 38.36 122.473 38.392 122.465 38.423 122.461 38.487 122.478 38.512 122.465 38.553 122.457 38.622 122.461 38.736 122.457 38.767 122.461 38.786 122.453 38.846 122.457 38.9 122.469 38.991 122.469 39.029 122.461 39.12 122.469 39.208 122.465 39.262 122.453 39.432 122.473 39.527 122.482 39.618 122.465 39.637 122.473 39.678 122.465 39.842 122.473 39.858 122.465 39.902 122.461 39.962 122.465 40.025 122.453 40.157 122.465 40.17 122.469 40.388 122.469 40.416 122.482 40.419 122.49 40.444 122.502 40.529 122.486 40.826 122.473 40.892 122.461 41.002 122.469 41.11 122.453 41.166 122.453 41.204 122.441 41.283 122.441 41.33 122.449 41.412 122.441 41.453 122.445 41.501 122.436 41.605 122.441 41.652 122.457 41.69 122.445 41.825 122.453 41.939 122.449 41.977 122.412 41.999 122.404 42.005 122.391 42.074 122.436 42.122 122.432 42.182 122.445 42.241 122.441 42.342 122.457 42.361 122.449 42.377 122.453 42.459 122.432 42.5 122.441 42.519 122.449 42.629 122.445 42.695 122.465 42.771 122.449 42.809 122.453 42.828 122.445 42.847 122.428 42.881 122.424 42.916 122.432 42.935 122.445 42.948 122.432 42.985 122.428 43.001 122.42 43.023 122.42 43.039 122.432 43.086 122.416 43.168 122.408 43.181 122.412 43.231 122.416 43.241 122.428 43.323 122.445 43.345 122.436 43.446 122.424 43.484 122.428 43.525 122.42 43.638 122.436 43.73 122.445 43.78 122.432 43.9 122.436 43.966 122.428 44.042 122.432 44.152 122.416 44.209 122.424 44.294 122.424 44.385 122.432 44.492 122.424 44.565 122.412 44.678 122.408 44.751 122.395 44.82 122.404 44.991 122.379 45.095 122.375 45.227 122.358 45.29 122.354 45.35 122.33 45.388 122.334 45.46 122.313 45.832 122.293 45.911 122.284 46.025 122.256 46.195 122.247 46.277 122.235 46.371 122.231 46.409 122.223 46.469 122.223 46.554 122.214 46.561 122.235 46.576 122.247 46.633 122.231 46.829 122.198 46.933 122.194 46.961 122.186 46.983 122.145 47.018 122.149 47.131 122.12 47.191 122.128 47.22 122.128 47.302 122.112 47.339 122.112 47.431 122.087 47.469 122.091 47.519 122.079 47.56 122.083 47.617 122.079 47.677 122.066 47.752 122.066 47.872 122.046 47.904 122.034 48.083 122.009 48.165 122.013 48.187 122.021 48.2 122.017 48.2 122.025 48.206 122.03 48.329 121.988 48.408 121.976 48.446 121.976 48.575 121.943 48.673 121.951 48.777 121.935 48.859 121.935 48.96 121.947 49.023 121.939 49.177 121.935 49.275 121.927 49.338 121.91 49.461 121.906 49.562 121.886 49.568 121.877 49.663 121.857 49.846 121.861 49.947 121.845 50.013 121.849 50.095 121.845 50.193 121.857 50.316 121.828 50.338 121.812 50.375 121.808 50.413 121.812 50.432 121.824 50.486 121.832 50.637 121.828 50.684 121.832 50.697 121.824 50.735 121.824 50.817 121.836 50.874 121.824 50.889 121.816 50.949 121.803 50.968 121.808 51.107 121.799 51.208 121.799 51.498 121.766 51.539 121.771 51.608 121.762 51.668 121.771 51.778 121.758 51.804 121.762 51.857 121.758 51.93 121.742 52.1 121.742 52.15 121.725 52.314 121.729 52.396 121.709 52.418 121.713 52.434 121.701 52.453 121.701 52.485 121.692 52.563 121.692 52.642 121.705 52.661 121.697 52.74 121.697 52.775 121.688 52.866 121.697 52.879 121.692 52.885 121.66 52.92 121.651 53.077 121.647 53.115 121.66 53.197 121.664 53.191 121.668 53.2 121.647 53.181 121.606 53.175 121.565 53.191 121.528 53.188 121.413 53.175 121.392 53.172 121.364 53.159 121.335 53.153 121.314 53.156 121.298 53.131 121.253 53.134 121.24 53.099 121.199 53.099 121.187 53.084 121.166 53.077 121.129 53.081 121.117 53.068 121.096 53.065 121.076 53.017 121.018 53.005 120.952 53.027 120.932 53.03 120.924 53.043 120.92 53.118 120.899 53.153 120.907 53.282 120.854 53.308 120.833 53.326 120.833 53.364 120.813 53.38 120.763 53.443 120.747 53.449 120.751 53.528 120.722 53.572 120.697 53.572 120.685 53.582 120.673 53.601 120.673 53.648 120.632 53.661 120.636 53.664 120.628 53.692 120.623 53.705 120.611 53.711 120.599 53.708 120.586 53.714 120.582 53.708 120.57 53.702 120.533 53.724 120.521 53.717 120.504 53.749 120.48 53.752 120.459 53.771 120.447 53.784 120.406 53.784 120.385 53.793 120.373 53.84 120.332 53.859 120.319 53.869 120.303 53.866 120.29 53.875 120.278 53.875 120.266 53.866 120.266 53.837 120.245 53.812 120.237 53.787 120.237 53.78 120.225 53.771 120.225 53.78 120.208 53.78 120.192 53.771 120.188 53.771 120.175 53.784 120.142 53.784 120.118 53.793 120.11 53.799 120.093 53.793 120.081 53.799 120.064 53.812 120.06 53.837 120.044 53.853 120.044 53.872 120.019"><title>2020-10-10 7.1km</title></polyline><polyline fill="none" stroke="#4dd2ff" stroke-linecap="round" stroke-linejoin="round" stroke-width=".5" points="63.005 125.429 65.252 123.934 67.408 123.426 71.376 124.442 76.352 116.667 75.687 116.069 70.298 116.069 58.028 116.757 57.662 121.033 56.171 125.1 56.331 127.642 57.111 129.556 60.001 128.569 61.95 126.955 63.211 125.22 66.514 123.336 68.647 123.485 71.169 124.532 76.375 116.278 68.371 116.099 66.009 116.577 63.67 116.308 58.051 116.577 57.616 121.123 56.125 125.908 56.4 128.121 57.455 129.467 60.299 128.24 63.395 125.041 66.261 123.456 67.752 123.366 71.33 124.353 76.146 116.816 75.916 116.188 74.999 116.099 58.028 116.697 57.822 120.046 56.194 125.31 56.675 128.629"><title>2020-10-10 6.1km</title></polyline><polyline fill="none" stroke="#ffb600" stroke-linecap="round" stroke-linejoin="round" stroke-width=".5" points="86.087 125.103 88.934 123.456 90.885 123.516 93.778 124.414 98.783 116.69 98.599 116.42 97.52 116.091 89.599 116.211 80.439 116.72 79.98 121.42 78.625 125.732 78.694 127.588 79.635 129.504 81.403 129.115 83.423 127.827 86.27 124.654 88.773 123.396 91.528 123.606 93.548 124.444 98.875 116.54 98.416 116.151 95.27 116.121 80.76 116.57 80.393 117.049 80.209 120.732 78.625 125.851 78.855 127.887 79.727 129.474 82.597 128.456 86.408 124.534 88.015 123.636 90.38 123.426 93.755 124.504 98.645 116.929 98.714 116.061 88.566 116.66 86.844 116.331 80.691 116.54 80.003 121.271 78.648 125.672 78.809 127.857 79.704 129.564 83.194 128.037 86.087 124.893 88.015 123.636 90.472 123.456 93.732 124.564 98.806 116.75 98.255 116.181 80.508 116.72 80.255 120.552 78.625 126.36 78.878 127.947 79.773 129.564 82.643 128.606 86.339 124.534 87.441 123.875 89.806 123.456 93.548 124.624 98.737 116.54 96.809 116.061 80.691 116.6 80.186 121.121 78.717 125.492 78.901 127.977 79.52 129.444"><title>2020-10-11 10.4km</title></polyline><polyline fill="none" stroke="#4dd2ff" stroke-linecap="round" stroke-linejoin="round" stroke-width=".5" points="101.125 124.937 101.157 124.921 101.249 124.921 101.3 124.908 101.399 124.904 101.428 124.9 101.45 124.879 101.492 124.887 101.517 124.883 101.552 124.883 101.571 124.904 101.584 124.958 101.587 125.062 101.613 125.17 101.616 125.228 101.626 125.253 101.626 125.341 101.638 125.353 101.667 125.353 101.709 125.391 101.798 125.391 101.804 125.378 101.833 125.37 101.884 125.378 101.932 125.374 101.935 125.366 101.929 125.349 101.935 125.307 101.929 125.224 101.935 125.183 101.932 125.141 101.948 125.05 101.938 124.975 101.945 124.946 101.941 124.921 101.948 124.904 101.941 124.892 101.948 124.887 101.941 124.879 101.938 124.862 101.948 124.692 101.938 124.626 101.948 124.588 101.925 124.547 101.916 124.455 101.839 124.355 101.791 124.314 101.785 124.301 101.785 124.285 101.779 124.28 101.753 124.235 101.74 124.206 101.744 124.127 101.731 124.081 101.721 124.068 101.728 124.043 101.718 123.969 101.725 123.894 101.734 123.869 101.728 123.806 101.725 123.694 101.721 123.682 101.712 123.511 101.715 123.47 101.705 123.241 101.709 123.187 101.699 123.104 101.702 123.079 101.696 123.066 101.699 122.987 101.693 122.962 101.696 122.937 101.702 122.929 101.696 122.9 101.693 122.775 101.699 122.659 101.709 122.621 101.721 122.509 101.718 122.472 101.725 122.455 101.737 122.451 101.967 122.434 102.091 122.422 102.123 122.409 102.216 122.409 102.27 122.397 102.305 122.401 102.417 122.397 102.487 122.384 102.56 122.388 102.589 122.38 102.659 122.38 102.713 122.372 102.86 122.372 102.927 122.359 103.137 122.364 103.233 122.351 103.332 122.359 103.424 122.355 103.447 122.351 103.526 122.347 103.568 122.339 103.603 122.343 103.708 122.326 103.788 122.33 103.839 122.322 103.855 122.33 103.922 122.33 103.992 122.318 104.046 122.326 104.129 122.314 104.365 122.314 104.397 122.301 104.582 122.28 104.767 122.289 104.878 122.26 105.047 122.268 105.188 122.243 105.258 122.247 105.306 122.226 105.376 122.23 105.408 122.222 105.443 122.23 105.599 122.226 105.755 122.235 105.838 122.226 105.896 122.21 105.944 122.239 106.065 122.239 106.119 122.239 106.183 122.226 106.215 122.214 106.275 122.218 106.333 122.21 106.451 122.222 106.498 122.214 106.604 122.214 106.655 122.222 106.706 122.214 106.744 122.222 106.814 122.21 106.939 122.226 107.015 122.214 107.108 122.222 107.171 122.218 107.283 122.23 107.337 122.218 107.398 122.222 107.576 122.206 107.621 122.21 107.64 122.206 107.723 122.21 107.739 122.206 107.892 122.206 107.988 122.193 108.125 122.206 108.214 122.201 108.236 122.206 108.495 122.181 108.597 122.193 108.734 122.197 108.823 122.193 108.919 122.206 109.037 122.206 109.145 122.193 109.302 122.197 109.333 122.193 109.353 122.201 109.41 122.193 109.512 122.197 109.569 122.185 109.659 122.189 109.691 122.181 109.726 122.189 109.786 122.185 109.818 122.189 109.866 122.181 109.981 122.185 110.032 122.176 110.191 122.185 110.309 122.181 110.335 122.193 110.434 122.181 110.497 122.164 110.622 122.16 110.676 122.151 110.724 122.16 110.775 122.151 110.864 122.164 111.097 122.147 111.215 122.156 111.269 122.168 111.441 122.172 111.476 122.181 111.527 122.176 111.556 122.164 111.665 122.181 111.754 122.16 111.916 122.16 111.971 122.172 112.019 122.172 112.05 122.164 112.117 122.16 112.159 122.151 112.216 122.147 112.242 122.139 112.513 122.139 112.577 122.127 112.726 122.114 112.774 122.102 112.985 122.089 113.055 122.068 113.138 122.064 113.205 122.052 113.332 122.048 113.492 122.023 113.511 122.027 113.546 122.023 113.75 121.977 113.824 121.977 113.903 121.96 114.072 121.96 114.181 121.944 114.187 121.964 114.177 121.956 114.225 121.956 114.235 121.948 114.264 121.952 114.327 121.939 114.592 121.91 114.697 121.877 114.803 121.877 114.854 121.86 114.911 121.856 114.943 121.844 114.984 121.848 115.061 121.823 115.156 121.819 115.278 121.794 115.319 121.798 115.386 121.794 115.469 121.777 115.565 121.773 115.622 121.756 115.679 121.756 115.759 121.74 115.813 121.748 115.912 121.736 115.97 121.736 116.081 121.707 116.234 121.707 116.41 121.677 116.505 121.677 116.515 121.682 116.512 121.686 116.518 121.694 116.528 121.677 116.525 121.69 116.722 121.682 116.751 121.669 117.086 121.623 117.191 121.598 117.264 121.607 117.306 121.594 117.417 121.607 117.583 121.586 117.599 121.594 117.647 121.586 117.781 121.603 117.909 121.582 117.937 121.582 117.963 121.573 118.001 121.578 118.043 121.565 118.078 121.573 118.145 121.561 118.307 121.561 118.483 121.544 118.495 121.549 118.741 121.519 118.827 121.515 118.888 121.503 118.983 121.507 119.238 121.486 119.293 121.499 119.356 121.49 119.452 121.494 119.5 121.49 119.519 121.478 119.519 121.47 119.525 121.465 119.525 121.47 119.532 121.47 119.551 121.478 119.573 121.482 119.615 121.47 119.634 121.461 119.739 121.465 119.796 121.457 119.886 121.47 119.914 121.453 119.934 121.453 120.045 121.461 120.08 121.453 120.17 121.457 120.189 121.449 120.23 121.453 120.249 121.436 120.284 121.445 120.361 121.436 120.415 121.411 120.453 121.424 120.524 121.428 120.543 121.411 120.575 121.424 120.766 121.42 120.868 121.407 120.881 121.403 120.897 121.391 120.903 121.361 120.9 121.282 120.903 121.262 120.913 121.232 120.941 121.208 120.948 121.191 120.944 121.178 120.935 121.116 120.916 121.066 120.916 121.041 120.919 121.025 120.903 121 120.884 120.937 120.855 120.879 120.836 120.858 120.826 120.821 120.811 120.733 120.817 120.65 120.785 120.58 120.782 120.551 120.855 120.538 121.011 120.463 121.043 120.463 121.085 120.43 121.101 120.43 121.145 120.384 121.273 120.313 121.298 120.293 121.314 120.293 121.334 120.28 121.33 120.297 121.375 120.234"><title>2020-10-12 6.8km</title></polyline><polyline fill="none" stroke="#4dd2ff" stroke-linecap="round" stroke-linejoin="round" stroke-width=".5" points="143.844 120.631 143.851 120.59 143.865 120.572 143.858 120.572 143.875 120.572 143.875 120.586 143.599 120.613 143.55 120.604 143.454 120.604 143.288 120.617 143.267 120.613 143.257 120.626 143.188 120.622 143.164 120.631 143.091 120.635 143.039 120.653 142.967 120.644 142.918 120.649 142.856 120.662 142.773 120.662 142.67 120.68 142.587 120.676 142.376 120.694 142.013 120.712 141.955 120.721 141.879 120.721 141.858 120.725 141.813 120.721 141.547 120.743 141.488 120.743 141.357 120.752 141.292 120.766 141.184 120.766 141.081 120.779 141.06 120.784 141.039 120.779 140.912 120.788 140.77 120.788 140.587 120.815 140.476 120.815 140.238 120.824 140.169 120.829 140.128 120.842 140.058 120.838 139.993 120.851 139.727 120.856 139.706 120.86 139.527 120.878 139.447 120.901 139.423 120.896 139.382 120.905 139.364 120.896 139.306 120.914 139.274 120.937 139.233 120.937 139.067 120.964 138.991 120.982 138.971 120.977 138.819 121.004 138.535 121.009 138.497 121.018 138.401 121.022 138.193 121.054 138.041 121.09 137.962 121.099 137.917 121.094 137.872 121.103 137.807 121.103 137.693 121.121 137.51 121.131 137.475 121.117 137.43 121.112 137.206 121.135 137.168 121.149 137.143 121.189 137.112 121.189 137.102 121.198 137.088 121.203 137.092 121.212 137.081 121.216 137.057 121.207 137.04 121.216 137.002 121.216 136.991 121.23 136.978 121.225 136.922 121.23 136.781 121.198 136.732 121.198 136.684 121.212 136.67 121.203 136.632 121.198 136.574 121.207 136.508 121.23 136.477 121.23 136.439 121.243 136.201 121.261 136.166 121.27 136.104 121.266 136.08 121.275 135.979 121.279 135.979 121.288 135.962 121.288 135.948 121.302 135.817 121.306 135.745 121.32 135.606 121.324 135.444 121.347 135.24 121.347 135.137 121.369 135.04 121.365 134.964 121.369 134.923 121.36 134.85 121.374 134.767 121.369 134.622 121.383 134.384 121.383 134.28 121.401 134.242 121.396 134.201 121.414 134.18 121.405 134.128 121.41 134.087 121.419 134.045 121.423 133.928 121.419 133.845 121.41 133.821 121.414 133.724 121.414 133.707 121.428 133.6 121.446 133.5 121.428 133.482 121.446 133.375 121.432 133.296 121.446 133.237 121.441 133.223 121.459 133.182 121.459 133.144 121.446 133.099 121.45 133.078 121.441 132.999 121.437 132.982 121.459 132.957 121.455 132.937 121.464 132.792 121.419 132.712 121.41 132.633 121.423 132.615 121.441 132.553 121.446 132.491 121.446 132.415 121.423 132.398 121.437 132.381 121.437 132.298 121.423 132.277 121.441 132.256 121.441 132.153 121.423 132.132 121.428 132.111 121.423 132.014 121.428 131.99 121.419 131.907 121.423 131.8 121.414 131.693 121.423 131.5 121.414 131.462 121.414 131.431 121.428 131.289 121.419 131.158 121.428 131.137 121.419 131.099 121.419 131.03 121.432 130.733 121.423 130.685 121.432 130.674 121.414 130.667 121.414 130.557 121.437 130.536 121.446 130.457 121.45 130.401 121.441 130.232 121.441 130.153 121.428 129.97 121.432 129.897 121.423 129.842 121.432 129.766 121.428 129.669 121.441 129.652 121.437 129.6 121.437 129.465 121.455 129.427 121.45 129.32 121.455 129.189 121.446 128.913 121.455 128.896 121.446 128.83 121.468 128.723 121.455 128.657 121.468 128.602 121.468 128.581 121.459 128.523 121.455 128.391 121.468 128.222 121.455 128.101 121.464 127.98 121.455 127.839 121.464 127.825 121.473 127.804 121.468 127.749 121.486 127.728 121.482 127.714 121.491 127.659 121.486 127.583 121.495 127.528 121.486 127.473 121.491 127.438 121.5 127.359 121.495 127.338 121.504 127.21 121.491 127.079 121.513 127.058 121.509 126.986 121.518 126.965 121.509 126.927 121.513 126.913 121.527 126.879 121.527 126.841 121.536 126.837 121.576 126.82 121.59 126.782 121.585 126.758 121.572 126.733 121.567 126.72 121.576 126.699 121.576 126.654 121.594 126.63 121.594 126.578 121.617 126.544 121.608 126.53 121.617 126.516 121.648 126.499 121.653 126.409 121.63 126.364 121.608 126.281 121.599 126.236 121.581 126.205 121.599 126.143 121.599 126.005 121.572 125.87 121.59 125.825 121.59 125.766 121.576 125.708 121.576 125.673 121.585 125.542 121.585 125.438 121.608 125.328 121.599 125.117 121.63 124.986 121.626 124.868 121.648 124.81 121.653 124.672 121.657 124.499 121.657 124.312 121.68 124.195 121.675 124.174 121.684 124.005 121.662 123.808 121.693 123.76 121.707 123.742 121.738 123.746 121.784 123.76 121.793 123.739 121.829 123.742 121.86 123.736 121.914 123.749 122.018 123.742 122.076 123.756 122.225 123.749 122.283 123.749 122.337 123.756 122.355 123.753 122.419 123.76 122.626 123.774 122.77 123.77 122.788 123.777 122.851 123.777 122.887 123.787 122.977 123.794 123.193 123.808 123.247 123.801 123.382 123.818 123.445 123.822 123.495 123.822 123.549 123.812 123.661 123.839 123.725 123.853 123.788 123.874 123.837 123.981 123.99 123.998 124.058 124.012 124.152 124.008 124.305 124.012 124.35 124.026 124.391 124.036 124.549 124.043 124.567 124.05 124.657 124.043 124.733 124.05 124.819 124.05 124.855 124.039 124.868 124.033 124.931 124.033 124.999 123.998 125.021 123.977 125.021 123.846 125.008 123.818 125.012 123.825 125.026 123.829 125.053 123.798 125.021 123.729 125.012 123.677 124.967 123.656 124.832 123.66 124.814 123.639 124.765 123.628 124.711 123.625 124.675 123.635 124.652 123.625 124.603 123.628 124.589"><title>2020-10-13 6.2km</title></polyline><polyline fill="none" stroke="#4dd2ff" stroke-linecap="round" stroke-linejoin="round" stroke-width=".5" points="146.125 124.973 146.131 124.99 146.214 124.998 146.267 124.994 146.359 124.977 146.429 124.973 146.511 124.981 146.571 124.969 146.593 124.973 146.609 124.985 146.621 125.023 146.615 125.076 146.618 125.093 146.618 125.13 146.625 125.159 146.621 125.192 146.628 125.315 146.625 125.418 146.65 125.427 146.678 125.414 146.754 125.431 146.833 125.427 146.871 125.435 146.925 125.427 146.947 125.414 146.947 125.377 146.953 125.369 146.947 125.348 146.95 125.328 146.953 125.175 146.96 125.121 146.953 125.072 146.953 124.911 146.947 124.899 146.95 124.886 146.941 124.788 146.944 124.771 146.941 124.726 146.944 124.656 146.953 124.623 146.944 124.59 146.944 124.544 146.928 124.503 146.881 124.445 146.865 124.437 146.833 124.392 146.827 124.396 146.821 124.388 146.767 124.289 146.754 124.247 146.748 124.177 146.742 124.148 146.745 124.103 146.729 123.992 146.735 123.938 146.729 123.905 146.735 123.798 146.729 123.716 146.732 123.633 146.729 123.542 146.716 123.456 146.719 123.435 146.713 123.316 146.716 123.208 146.704 122.916 146.707 122.879 146.704 122.833 146.697 122.821 146.704 122.804 146.7 122.738 146.716 122.664 146.707 122.594 146.71 122.569 146.713 122.561 146.732 122.553 146.786 122.54 146.909 122.52 146.995 122.52 147.074 122.512 147.143 122.495 147.222 122.491 147.257 122.479 147.387 122.47 147.428 122.462 147.447 122.466 147.497 122.462 147.564 122.47 147.633 122.466 147.836 122.437 148.038 122.437 148.073 122.446 148.161 122.433 148.329 122.446 148.509 122.425 148.835 122.425 148.889 122.413 148.942 122.409 149.031 122.404 149.088 122.413 149.138 122.4 149.186 122.409 149.205 122.396 149.316 122.4 149.534 122.376 149.755 122.371 149.784 122.376 149.79 122.38 149.79 122.384 149.809 122.384 149.929 122.367 149.973 122.371 150.046 122.363 150.125 122.359 150.217 122.338 150.429 122.326 150.492 122.334 150.511 122.334 150.53 122.322 150.748 122.322 150.786 122.33 150.805 122.322 150.849 122.33 150.944 122.314 151.026 122.318 151.08 122.31 151.263 122.314 151.317 122.318 151.333 122.314 151.387 122.318 151.488 122.31 151.564 122.322 151.633 122.305 151.744 122.305 151.785 122.297 152.06 122.301 152.184 122.31 152.395 122.305 152.43 122.297 152.547 122.297 152.595 122.305 152.705 122.293 152.762 122.301 153.031 122.285 153.164 122.297 153.303 122.297 153.357 122.285 153.401 122.293 153.439 122.289 153.667 122.293 153.679 122.285 153.758 122.289 153.793 122.285 153.907 122.293 154.122 122.281 154.217 122.281 154.274 122.277 154.293 122.268 154.318 122.277 154.413 122.272 154.505 122.281 154.524 122.272 154.542 122.277 154.612 122.264 154.707 122.281 154.726 122.272 154.739 122.281 154.78 122.272 154.856 122.285 155.014 122.281 155.074 122.293 155.165 122.277 155.203 122.285 155.27 122.289 155.314 122.281 155.371 122.289 155.428 122.277 155.466 122.26 155.501 122.264 155.605 122.26 155.709 122.244 155.959 122.256 156.013 122.248 156.035 122.256 156.044 122.248 156.082 122.244 156.196 122.268 156.266 122.268 156.462 122.248 156.588 122.252 156.667 122.244 156.759 122.256 156.987 122.248 157.018 122.252 157.101 122.244 157.12 122.252 157.233 122.231 157.392 122.223 157.426 122.227 157.619 122.207 157.695 122.207 157.872 122.169 157.948 122.169 158.169 122.141 158.198 122.145 158.271 122.132 158.454 122.12 158.533 122.095 158.631 122.087 158.663 122.07 158.742 122.058 158.795 122.062 158.954 122.046 159.042 122.05 159.112 122.042 159.15 122.05 159.244 122.025 159.393 122.021 159.406 122.009 159.422 122.013 159.447 122 159.463 121.98 159.535 121.976 159.548 121.963 159.573 121.959 159.589 121.963 159.643 121.955 159.665 121.939 159.694 121.947 159.769 121.934 159.801 121.947 159.912 121.922 160.01 121.914 160.057 121.897 160.108 121.901 160.162 121.893 160.231 121.873 160.31 121.877 160.497 121.856 160.554 121.856 160.658 121.835 160.699 121.844 160.75 121.84 160.81 121.827 160.826 121.831 160.901 121.815 160.977 121.815 161.034 121.798 161.132 121.798 161.148 121.79 161.167 121.798 161.331 121.774 161.398 121.778 161.414 121.79 161.407 121.794 161.417 121.786 161.414 121.79 161.42 121.794 161.445 121.794 161.509 121.79 161.572 121.774 161.645 121.778 161.739 121.765 161.894 121.741 161.983 121.741 162.128 121.716 162.245 121.724 162.29 121.716 162.375 121.72 162.391 121.712 162.467 121.703 162.685 121.687 162.72 121.691 162.786 121.679 162.868 121.679 162.884 121.675 163.004 121.671 163.033 121.662 163.064 121.666 163.077 121.658 163.109 121.666 163.169 121.666 163.282 121.654 163.368 121.658 163.456 121.642 163.804 121.625 163.864 121.617 164.035 121.609 164.105 121.605 164.124 121.596 164.316 121.584 164.358 121.572 164.389 121.576 164.396 121.576 164.392 121.584 164.408 121.567 164.405 121.572 164.399 121.563 164.392 121.567 164.396 121.559 164.396 121.563 164.386 121.563 164.408 121.563 164.399 121.576 164.399 121.572 164.421 121.584 164.522 121.588 164.535 121.596 164.671 121.588 164.709 121.572 164.86 121.563 164.911 121.551 165.079 121.559 165.135 121.547 165.256 121.543 165.275 121.551 165.322 121.547 165.404 121.551 165.572 121.526 165.698 121.526 165.739 121.51 165.752 121.493 165.743 121.468 165.743 121.452 165.736 121.423 165.739 121.398 165.727 121.349 165.724 121.32 165.739 121.283 165.73 121.246 165.733 121.225 165.72 121.139 165.724 121.122 165.711 121.073 165.657 120.986 165.657 120.961 165.645 120.924 165.591 120.813 165.597 120.788 165.581 120.763 165.575 120.722 165.547 120.669 165.547 120.656 165.575 120.644 165.619 120.64 165.629 120.648 165.645 120.648 165.768 120.623 165.879 120.598 165.945 120.565 166.008 120.524 166.103 120.458 166.239 120.33 166.255 120.33 166.258 120.343 166.283 120.33 166.293 120.318 166.299 120.285 166.318 120.264 166.34 120.231 166.359 120.215 166.356 120.198 166.375 120.19"><title>2020-10-13 6.9km</title></polyline><polyline fill="none" stroke="#4dd2ff" stroke-linecap="round" stroke-linejoin="round" stroke-width=".5" points="174.932 125.175 175.39 125.534 177.317 124.128 179.954 123.351 183.692 124.517 188.875 116.562 187.866 116.084 170.781 116.592 170.414 117.041 170.184 121.018 168.74 124.966 168.763 127.179 169.863 129.541 172.936 128.196 176.445 124.547 178.532 123.351 180.413 123.351 183.692 124.547 188.737 116.801 188.325 116.084 170.551 116.712 170.276 120.839 168.694 125.863 169.061 128.345 169.886 129.541 172.684 128.405 177.454 123.859 180.436 123.411 183.669 124.577 188.875 116.652 188.187 116.114 181.949 116.143 170.506 116.801 170.368 120.211 168.625 125.953 169.107 128.345 170.001 129.541 173.212 127.986 176.262 124.577 177.913 123.74 180.573 123.441 183.233 124.577 183.967 124.248 188.783 116.742 188.508 116.203 178.761 116.383 178.303 116.682"><title>2020-10-13 7.5km</title></polyline><polyline fill="none" stroke="#4dd2ff" stroke-linecap="round" stroke-linejoin="round" stroke-width=".5" points="31.372 147.828 31.375 147.824 31.358 147.846 31.328 147.85 31.129 147.863 30.916 147.868 30.852 147.876 30.74 147.868 30.548 147.903 30.47 147.898 30.416 147.903 30.399 147.912 30.291 147.925 30.275 147.92 30.2 147.929 30.183 147.925 30.045 147.947 30.028 147.938 29.954 147.947 29.897 147.947 29.863 147.951 29.839 147.969 29.778 147.969 29.684 147.978 29.593 147.969 29.539 147.973 29.441 147.969 29.309 147.982 29.137 147.982 28.759 148.022 28.6 148.022 28.462 148.03 28.445 148.039 28.398 148.039 28.34 148.048 28.256 148.052 28.178 148.048 27.993 148.061 27.841 148.066 27.783 148.079 27.743 148.074 27.719 148.083 27.621 148.079 27.611 148.074 27.54 148.066 27.466 148.083 27.176 148.11 26.801 148.193 26.653 148.211 26.504 148.233 26.302 148.25 26.052 148.255 25.961 148.277 25.88 148.277 25.799 148.299 25.373 148.325 25.245 148.347 25.238 148.339 25.231 148.347 25.228 148.343 25.191 148.352 25.076 148.352 24.992 148.369 24.945 148.374 24.921 148.383 24.88 148.378 24.837 148.387 24.702 148.405 24.627 148.422 24.539 148.431 24.469 148.435 24.313 148.462 24.266 148.457 24.185 148.462 23.966 148.493 23.891 148.488 23.77 148.501 23.75 148.497 23.696 148.515 23.577 148.519 23.561 148.532 23.544 148.528 23.432 148.545 23.125 148.576 22.882 148.589 22.835 148.598 22.781 148.594 22.659 148.594 22.568 148.611 22.497 148.616 22.301 148.598 22.237 148.607 22.038 148.607 21.94 148.616 21.748 148.611 21.67 148.633 21.518 148.625 21.437 148.642 21.373 148.633 21.316 148.638 21.221 148.629 21.005 148.638 20.931 148.629 20.877 148.633 20.806 148.625 20.718 148.629 20.671 148.625 20.617 148.638 20.55 148.633 20.533 148.642 20.445 148.651 20.431 148.66 20.391 148.655 20.377 148.669 20.357 148.669 20.344 148.677 20.266 148.691 20.219 148.677 20.202 148.682 20.165 148.664 20.084 148.66 20.063 148.664 20.03 148.664 19.939 148.651 19.834 148.655 19.8 148.647 19.442 148.638 19.355 148.647 19.176 148.647 19.145 148.655 19.047 148.647 18.875 148.651 18.72 148.638 18.507 148.642 18.484 148.638 18.457 148.651 18.423 148.66 18.295 148.664 18.227 148.66 18.177 148.664 18.096 148.651 17.957 148.642 17.94 148.651 17.809 148.655 17.744 148.647 17.64 148.647 17.427 148.669 17.346 148.66 17.265 148.664 17.208 148.66 17.106 148.669 16.971 148.664 16.894 148.673 16.695 148.673 16.35 148.686 15.881 148.673 15.743 148.677 15.493 148.708 15.415 148.704 15.061 148.726 14.926 148.717 14.818 148.73 14.703 148.735 14.636 148.752 14.49 148.774 14.46 148.787 14.359 148.796 14.281 148.787 14.214 148.792 14.193 148.787 14.045 148.783 13.96 148.801 13.886 148.792 13.42 148.827 13.285 148.818 13.052 148.849 13.025 148.858 12.961 148.858 12.573 148.884 12.404 148.884 12.057 148.92 12.009 148.915 11.976 148.92 11.915 148.915 11.807 148.933 11.803 148.928 11.8 148.92 11.773 148.915 11.746 148.959 11.749 148.981 11.739 149.008 11.753 149.034 11.749 149.082 11.719 149.302 11.726 149.368 11.719 149.47 11.722 149.558 11.736 149.668 11.733 149.703 11.746 149.813 11.76 150.13 11.766 150.192 11.783 150.548 11.78 150.61 11.797 150.728 11.793 150.768 11.81 150.883 11.891 151.054 11.901 151.063 11.959 151.16 11.976 151.217 11.979 151.248 11.972 151.292 11.972 151.353 11.979 151.481 11.996 151.556 12.006 151.666 12.023 151.723 12.006 151.842 12.013 151.873 11.999 152.009 12.003 152.058 11.996 152.088 11.999 152.128 11.993 152.146 11.982 152.159 11.959 152.172 11.82 152.168 11.753 152.176 11.716 152.168 11.679 152.15 11.665 152.137 11.662 152.119 11.665 152.088 11.658 152.036 11.648 152.009 11.645 151.978 11.648 151.908 11.638 151.816 11.635 151.794 11.638 151.794 11.614 151.776 11.614 151.767 11.631 151.754 11.628 151.723 11.611 151.697 11.486 151.679 11.449 151.688 11.439 151.675 11.436 151.684 11.392 151.679 11.328 151.697 11.287 151.701 11.267 151.692 11.159 151.706 11.125 151.701"><title>2020-10-14 6.2km</title></polyline><polyline fill="none" stroke="#4dd2ff" stroke-linecap="round" stroke-linejoin="round" stroke-width=".5" points="37.077 146.294 37.675 147.434 37.238 150.135 38.78 152.236 40.367 152.866 42.277 151.365 44.555 150.645 48.72 151.696 53.875 143.863 53.162 143.233 49.848 143.203 35.535 143.833 35.098 148.155 33.625 153.016 33.832 154.906 34.384 156.377 34.914 156.737 38.273 155.176 40.805 152.296 42.461 151.125 45.499 150.585 48.007 151.606 48.905 151.546 53.829 143.923 53.254 143.233 52.655 143.233 35.535 143.833 35.121 148.155 33.625 153.106 33.832 154.936 34.73 156.797 38.135 155.386 41.311 151.636 42.415 151.035 46.12 150.585 48.651 151.816 53.852 143.833 53.162 143.233 35.535 143.863 35.144 148.065 33.671 152.656 34.292 156.197"><title>2020-10-14 6.4km</title></polyline><polyline fill="none" stroke="#4dd2ff" stroke-linecap="round" stroke-linejoin="round" stroke-width=".5" points="76.375 147.822 76.351 147.813 76.341 147.813 76.327 147.8 76.313 147.813 76.275 147.867 76.269 147.858 76.272 147.849 76.255 147.836 76.265 147.836 76.279 147.791 76.203 147.804 76.097 147.804 76.032 147.813 75.963 147.813 75.949 147.822 75.788 147.818 75.788 147.827 75.754 147.831 75.664 147.827 75.52 147.844 75.479 147.84 75.366 147.844 75.118 147.862 75.022 147.858 74.923 147.88 74.919 147.871 74.875 147.885 74.789 147.894 74.748 147.907 74.672 147.907 74.535 147.934 74.356 147.938 74.325 147.943 74.301 147.938 74.164 147.938 74.136 147.947 73.893 147.952 73.546 147.992 73.429 147.992 73.371 148.01 73.302 148.006 73.161 148.015 73.027 148.019 73.014 148.01 72.808 148.037 72.736 148.028 72.65 148.041 72.547 148.046 72.54 148.037 72.499 148.05 72.451 148.05 72.396 148.064 72.375 148.059 72.32 148.068 72.3 148.059 72.149 148.077 72.059 148.095 72.004 148.095 71.991 148.109 71.898 148.113 71.74 148.149 71.551 148.185 71.41 148.194 71.383 148.189 71.342 148.203 71.242 148.203 71.187 148.221 71.002 148.229 70.899 148.252 70.81 148.252 70.693 148.283 70.566 148.297 70.456 148.301 70.439 148.31 70.332 148.306 70.089 148.355 69.941 148.341 69.834 148.355 69.797 148.35 69.745 148.364 69.707 148.364 69.663 148.377 69.618 148.382 69.598 148.391 69.57 148.386 69.381 148.395 68.993 148.44 68.901 148.458 68.465 148.498 68.3 148.525 68.18 148.534 67.987 148.556 67.822 148.561 67.778 148.57 67.726 148.565 67.709 148.57 67.634 148.574 67.489 148.565 67.277 148.583 67.198 148.579 67.156 148.588 67.146 148.579 66.892 148.592 66.844 148.588 66.607 148.592 66.532 148.61 66.466 148.601 66.346 148.61 66.302 148.606 66.195 148.619 66.092 148.61 65.979 148.623 65.876 148.615 65.859 148.606 65.745 148.619 65.697 148.615 65.57 148.619 65.536 148.632 65.508 148.628 65.364 148.623 65.289 148.659 65.271 148.664 65.261 148.677 65.22 148.682 65.186 148.704 65.144 148.704 65.093 148.686 65.041 148.7 65.017 148.691 64.928 148.682 64.77 148.632 64.719 148.632 64.674 148.623 64.578 148.628 64.496 148.615 64.365 148.615 64.235 148.615 64.2 148.606 64.101 148.615 64.001 148.606 63.991 148.615 63.902 148.601 63.634 148.623 63.479 148.615 63.177 148.637 63.16 148.632 62.995 148.632 62.861 148.615 62.707 148.628 62.542 148.619 62.096 148.641 61.893 148.632 61.749 148.632 61.581 148.641 61.488 148.641 61.385 148.659 61.186 148.673 61.048 148.655 60.863 148.668 60.763 148.682 60.674 148.682 60.599 148.704 60.527 148.709 60.492 148.722 60.427 148.717 60.372 148.691 60.324 148.686 60.273 148.686 60.245 148.695 60.115 148.709 60.08 148.709 60.063 148.7 60.018 148.704 59.926 148.691 59.881 148.691 59.764 148.7 59.703 148.717 59.63 148.713 59.576 148.731 59.524 148.735 59.51 148.744 59.442 148.753 59.424 148.762 59.383 148.758 59.349 148.767 59.267 148.767 59.225 148.753 59.126 148.771 59.112 148.78 58.978 148.78 58.937 148.794 58.913 148.78 58.872 148.785 58.848 148.78 58.81 148.789 58.734 148.789 58.7 148.803 58.676 148.798 58.597 148.794 58.449 148.834 58.374 148.807 58.309 148.811 58.188 148.838 58.168 148.852 58.075 148.829 58.003 148.825 57.982 148.816 57.934 148.825 57.855 148.829 57.818 148.82 57.773 148.834 57.722 148.825 57.68 148.838 57.577 148.843 57.402 148.861 57.138 148.865 56.98 148.856 56.434 148.892 56.42 148.901 56.396 148.919 56.4 148.932 56.396 148.941 56.389 148.977 56.396 149 56.413 149.026 56.41 149.049 56.413 149.223 56.396 149.286 56.413 149.385 56.407 149.519 56.424 149.676 56.424 149.747 56.42 149.796 56.431 149.886 56.427 149.935 56.441 150.043 56.434 150.078 56.444 150.19 56.441 150.231 56.451 150.266 56.448 150.302 56.455 150.356 56.451 150.396 56.458 150.472 56.455 150.571 56.465 150.611 56.461 150.674 56.472 150.754 56.468 150.804 56.479 150.88 56.492 150.92 56.558 151.032 56.616 151.121 56.65 151.238 56.661 151.301 56.671 151.457 56.674 151.466 56.674 151.542 56.685 151.574 56.692 151.627 56.688 151.645 56.698 151.69 56.698 151.703 56.685 151.703 56.678 151.739 56.695 151.874 56.695 151.918 56.702 151.976 56.698 152.039 56.688 152.057 56.681 152.138 56.671 152.151 56.664 152.187 56.65 152.209 56.626 152.209 56.537 152.196 56.523 152.187 56.41 152.187 56.348 152.169 56.317 152.12 56.307 152.066 56.29 152.03 56.266 151.927 56.259 151.811 56.262 151.793 56.269 151.788 56.262 151.788 56.266 151.78 56.255 151.757 56.259 151.73 56.252 151.721 56.18 151.721 56.125 151.708"><title>2020-10-15 6.2km</title></polyline><polyline fill="none" stroke="#4dd2ff" stroke-linecap="round" stroke-linejoin="round" stroke-width=".5" points="78.625 152.175 78.638 152.171 78.635 152.188 78.638 152.183 78.628 152.175 78.648 152.171 78.645 152.222 78.654 152.234 78.667 152.45 78.677 152.506 78.674 152.548 78.677 152.59 78.71 152.599 78.729 152.624 78.775 152.641 78.908 152.633 78.966 152.624 79.005 152.607 79.015 152.595 79.022 152.556 79.018 152.429 79.028 152.311 79.002 152.094 79.015 152.052 79.012 152.035 79.015 152.01 79.009 151.988 79.012 151.899 79.018 151.878 79.009 151.815 79.002 151.713 78.979 151.662 78.905 151.543 78.898 151.548 78.869 151.492 78.843 151.433 78.84 151.399 78.83 151.391 78.83 151.353 78.817 151.31 78.82 151.263 78.807 151.242 78.807 151.225 78.807 151.141 78.797 151.115 78.804 151.098 78.814 151.03 78.807 150.992 78.814 150.95 78.807 150.916 78.804 150.784 78.804 150.755 78.807 150.742 78.794 150.691 78.791 150.577 78.788 150.564 78.791 150.45 78.775 150.31 78.775 150.246 78.758 150.136 78.762 150.03 78.752 149.983 78.762 149.945 78.762 149.856 78.778 149.835 78.771 149.792 78.778 149.746 78.788 149.708 78.788 149.686 78.804 149.661 78.817 149.652 79.018 149.648 79.158 149.636 79.174 149.627 79.22 149.631 79.305 149.627 79.35 149.619 79.539 149.61 79.639 149.597 79.678 149.602 79.789 149.593 79.952 149.593 79.997 149.585 80.215 149.589 80.488 149.572 80.579 149.555 80.618 149.563 80.716 149.555 80.761 149.563 80.777 149.559 80.895 149.585 80.976 149.568 81.103 149.555 81.213 149.525 81.415 149.546 81.447 149.559 81.532 149.555 81.672 149.53 81.766 149.5 81.954 149.487 81.99 149.474 82.14 149.479 82.13 149.474 82.13 149.487 82.185 149.47 82.293 149.462 82.374 149.47 82.39 149.436 82.462 149.432 82.484 149.436 82.576 149.432 82.654 149.44 82.771 149.44 82.806 149.432 82.927 149.424 82.995 149.432 83.171 149.419 83.229 149.428 83.512 149.407 83.674 149.415 83.723 149.407 83.756 149.411 83.805 149.402 83.905 149.407 84.068 149.394 84.243 149.407 84.484 149.398 84.536 149.407 84.695 149.39 84.76 149.394 84.803 149.39 85.134 149.39 85.264 149.381 85.375 149.39 85.447 149.381 85.554 149.39 85.642 149.381 85.655 149.385 85.697 149.381 85.938 149.377 85.986 149.368 86.058 149.385 86.168 149.373 86.289 149.385 86.376 149.373 86.487 149.381 86.627 149.373 86.705 149.373 86.835 149.368 86.861 149.377 87.095 149.368 87.111 149.364 87.128 149.368 87.228 149.364 87.245 149.373 87.342 149.364 87.394 149.368 87.423 149.364 87.557 149.377 87.69 149.364 87.723 149.368 87.768 149.36 87.882 149.364 87.918 149.356 88.015 149.351 88.122 149.351 88.174 149.36 88.249 149.347 88.353 149.347 88.461 149.36 88.519 149.356 88.545 149.36 88.649 149.347 88.822 149.347 88.844 149.343 88.919 149.351 89.169 149.343 89.238 149.347 89.303 149.343 89.329 149.347 89.491 149.326 89.504 149.33 89.586 149.322 89.605 149.326 89.667 149.322 89.703 149.313 89.797 149.309 89.849 149.292 89.937 149.284 89.989 149.258 90.018 149.262 90.073 149.262 90.142 149.216 90.168 149.207 90.197 149.212 90.233 149.195 90.252 149.195 90.314 149.178 90.473 149.156 90.824 149.123 90.844 149.114 90.987 149.127 91.072 149.148 91.163 149.152 91.439 149.114 91.533 149.11 91.595 149.131 91.777 149.127 91.839 149.114 91.852 149.106 91.94 149.11 92.024 149.089 92.079 149.089 92.125 149.072 92.281 149.05 92.437 149.012 92.502 149.012 92.577 148.995 92.632 148.991 92.678 149 92.71 148.987 92.824 148.966 92.879 148.944 92.964 148.94 93.006 148.927 93.048 148.927 93.13 148.906 93.152 148.906 93.175 148.923 93.224 148.927 93.767 148.843 93.806 148.847 93.962 148.83 94.05 148.838 94.115 148.826 94.32 148.817 94.505 148.792 94.59 148.792 94.616 148.8 94.677 148.792 94.811 148.796 94.824 148.788 94.947 148.783 94.986 148.775 95.045 148.779 95.142 148.771 95.243 148.775 95.259 148.766 95.441 148.745 95.467 148.749 95.546 148.737 95.62 148.741 95.767 148.724 96.046 148.715 96.137 148.694 96.225 148.686 96.241 148.677 96.332 148.69 96.427 148.686 96.472 148.69 96.592 148.677 96.674 148.682 96.781 148.665 96.869 148.665 96.937 148.643 96.947 148.648 96.947 148.639 96.94 148.648 96.944 148.639 96.957 148.66 96.963 148.66 97.025 148.648 97.148 148.652 97.233 148.648 97.295 148.635 97.428 148.631 97.451 148.622 97.526 148.626 97.548 148.618 97.652 148.61 97.737 148.61 97.776 148.618 97.883 148.614 97.906 148.605 98.01 148.593 98.15 148.588 98.378 148.55 98.417 148.55 98.462 148.567 98.482 148.559 98.491 148.571 98.495 148.567 98.491 148.559 98.475 148.537 98.472 148.508 98.456 148.478 98.43 148.41 98.43 148.381 98.404 148.325 98.394 148.262 98.374 148.202 98.345 148.147 98.342 148.126 98.319 148.075 98.296 148.041 98.29 148.016 98.26 147.99 98.241 147.952 98.234 147.914 98.238 147.901 98.277 147.868 98.293 147.842 98.322 147.825 98.319 147.817 98.355 147.778 98.374 147.774 98.449 147.723 98.537 147.694 98.566 147.668 98.579 147.634 98.644 147.613 98.693 147.579 98.725 147.571 98.735 147.533 98.787 147.499 98.787 147.49 98.813 147.482 98.823 147.499 98.868 147.477 98.875 147.448 98.846 147.388 98.859 147.359"><title>2020-10-15 6.7km</title></polyline><polyline fill="none" stroke="#4dd2ff" stroke-linecap="round" stroke-linejoin="round" stroke-width=".5" points="105.533 146.782 105.395 146.392 105.143 146.063 105.097 145.734 105.005 145.973 104.844 145.943 104.684 146.093 104.661 146.482 104.798 146.752 105.005 147.051 105.143 147.44 105.097 147.53 105.12 147.859 105.005 148.249 105.051 148.428 104.89 149.087 104.89 149.267 104.753 149.506 104.753 149.746 104.707 149.925 104.776 150.404 105.051 150.734 105.143 150.973 105.327 151.183 105.648 151.662 105.671 151.782 106.13 152.35 106.245 152.38 106.888 152.38 107.14 152.56 107.416 152.38 107.485 152.47 107.531 152.62 107.668 152.71 107.898 152.59 107.921 152.47 108.059 152.32 108.403 152.051 108.61 151.662 108.793 151.572 109 151.512 109.23 151.332 109.505 151.332 109.918 151.093 110.102 151.123 110.515 150.943 110.837 150.913 111.273 150.644 111.686 150.554 111.847 150.644 112.145 150.644 112.49 150.554 112.765 150.614 113.133 150.644 113.339 150.794 113.844 150.853 114.097 151.003 114.327 151.033 114.418 151.123 114.946 151.332 115.314 151.602 116.003 151.602 116.278 151.662 116.324 151.602 116.347 151.452 116.531 151.273 116.921 150.614 117.311 150.165 117.954 149.207 118 148.937 118.138 148.847 118.344 148.368 118.574 148.159 118.597 148.039 118.712 147.8 119.538 146.662 119.86 146.153 119.906 146.003 120.043 145.853 120.204 145.584 120.457 145.225 121.122 144.117 121.237 143.997 121.26 143.877 121.329 143.728 121.26 143.608 120.824 143.249 120.02 143.338 119.653 143.278 119.515 143.308 119.033 143.278 118.781 143.338 117.793 143.219 117.128 143.308 116.76 143.219 116.416 143.308 116.324 143.278 115.015 143.428 114.487 143.398 113.638 143.488 113.362 143.428 112.628 143.518 112.306 143.458 111.388 143.548 111.089 143.488 110.699 143.638 110.148 143.488 109.849 143.518 109.712 143.578 108.908 143.608 108.656 143.728 108.242 143.758 107.737 143.638 107.393 143.728 107.255 143.698 107.026 143.758 106.497 143.758 106.406 143.698 106.176 143.698 105.946 143.608 105.786 143.638 105.625 143.758 105.441 143.817 105.212 143.758 104.684 143.728 104.592 143.787 104.293 143.787 103.995 143.817 103.145 143.817 103.031 143.907 102.87 144.207 102.87 144.506 102.916 144.716 102.87 144.925 102.893 145.734 102.939 145.913 102.893 146.632 102.824 146.752 102.824 147.051 102.778 147.38 102.686 147.65 102.686 147.859 102.663 148.009 102.594 148.069 102.571 148.338 102.411 148.638 102.319 148.937 102.227 149.057 102.112 149.656 101.929 150.015 101.86 150.225 101.791 150.314 101.791 150.554 101.538 151.003 101.332 151.782 101.24 151.991 101.194 152.32 101.24 152.41 101.125 152.979 101.125 153.608 101.24 154.476 101.355 154.805 101.378 155.075 101.699 155.853 101.791 156.243 101.906 156.482 102.089 156.662 102.296 156.781 102.663 156.722 102.87 156.662 102.939 156.692 103.26 156.632 103.513 156.512 103.696 156.362 104.179 156.183 104.523 155.943 104.73 155.883 105.235 155.434 105.625 155.284 105.923 155.045 106.061 154.746 106.543 154.267 106.865 154.027 107.117 153.668 107.393 153.458 107.554 153.219 107.599 153.099 107.76 152.919 107.829 152.62 108.357 152.171 108.61 152.051 108.61 151.811 108.793 151.632 109.092 151.452 109.253 151.332 109.758 151.243 110.033 151.003 110.332 151.033 110.699 150.913 110.997 150.734 111.112 150.584 111.204 150.554 111.434 150.704 111.778 150.644 112.077 150.674 112.26 150.614 112.605 150.704 113.087 150.764 113.339 150.883 113.569 150.853 113.684 150.913 113.776 150.883 114.281 151.063 115.222 151.572 115.406 151.632 115.842 151.722 116.209 151.692 116.324 151.602 116.462 151.422 116.508 151.273 116.577 151.213 116.829 150.794 117.151 150.135 117.311 149.985 117.38 149.776 117.518 149.626 117.633 149.386 117.908 149.057 118.069 148.728 118.735 147.859 118.804 147.71 119.125 147.171 119.355 146.901 119.906 146.123 120.02 145.794 120.48 145.225 120.732 144.716 121.306 143.967 121.375 143.728 121.054 143.428 120.847 143.308 119.63 143.278 118.597 143.338 117.908 143.278 117.311 143.338 116.852 143.278 116.209 143.398 115.773 143.368 115.314 143.428 114.832 143.398 114.533 143.488 114.281 143.488 113.936 143.548 113.844 143.518 113.5 143.488 113.087 143.638 112.834 143.638 112.398 143.518 112.099 143.518 111.962 143.608 111.135 143.578 110.676 143.668 110.079 143.548 110.01 143.608 109.138 143.578 108.816 143.698 108.426 143.638 107.898 143.698 107.714 143.638 107.393 143.638 107.301 143.698 106.084 143.698 105.602 143.787 105.166 143.758 104.11 143.817 103.168 143.787 103.031 143.877 102.939 144.027 102.893 145.494 102.824 145.794 102.87 145.973 102.847 146.392 102.87 146.632 102.732 147.47 102.755 147.71 102.617 148.039 102.594 148.219 102.342 148.817 102.273 149.147 102.181 149.386 102.089 149.746 101.906 150.135 101.814 150.494 101.584 150.973 101.584 151.153 101.492 151.362 101.469 151.512 101.332 151.722 101.217 152.201 101.217 152.65 101.125 153.069 101.125 153.548 101.194 154.117 101.378 154.895 101.722 155.883 101.906 156.332 102.135 156.632 102.25 156.692 102.663 156.632 102.87 156.542 102.939 156.452 103.054 156.482 103.605 156.302 103.811 156.272 104.27 156.153 104.362 156.033 104.454 156.033 104.523 155.913 104.615 155.913 104.936 155.644 105.12 155.584 105.235 155.434 105.625 155.075 105.717 155.135 105.855 155.075 106.084 154.895 106.199 154.746 106.406 154.596 106.52 154.356 106.911 153.937 106.98 153.728 107.209 153.398 107.554 153.129 107.76 153.009 107.921 152.68 107.99 152.68 108.128 152.5 108.196 152.261 108.541 152.081 108.564 151.782 108.656 151.692 109.023 151.512 109.436 151.392 109.666 151.392 109.712 151.332 109.758 151.183 109.872 151.063 110.033 151.003 110.309 150.973 110.791 150.823 110.814 150.584 110.929 150.494 111.273 150.524 111.686 150.644 112.031 150.584 112.306 150.614 112.467 150.584 112.788 150.674 113.615 150.734 114.533 151.063 114.809 151.213 115.222 151.572 115.543 151.752 115.704 151.811 116.255 151.782 116.37 151.692 116.714 151.063 116.829 150.764 117.242 150.045 117.564 149.596 117.633 149.416 117.908 149.087 118.276 148.518 118.849 147.5 119.033 147.291 119.102 147.141 119.217 147.021 119.515 146.512 120.388 145.434 121.031 144.296 121.237 144.057 121.375 143.758 121.214 143.668 121.099 143.488 120.847 143.308 120.434 143.368 119.745 143.278 119.401 143.338 119.332 143.278 119.148 143.278 118.964 143.338 118.597 143.278 118.115 143.368 118.046 143.308 117.885 143.338 117.61 143.249 116.806 143.308 116.393 143.428 116.003 143.398 115.934 143.338 115.452 143.458 114.992 143.488 114.51 143.428 114.212 143.518 114.028 143.488 113.638 143.488 113.316 143.578 113.247 143.638 112.949 143.668 112.26 143.638 112.008 143.668 111.87 143.758 111.273 143.638 111.227 143.578 111.181 143.638 110.837 143.728 110.699 143.698 110.561 143.578 110.24 143.518 110.01 143.548 109.689 143.638 109.413 143.608 108.587 143.638 108.403 143.578 108.105 143.638 107.944 143.578 107.852 143.638 107.622 143.608 107.416 143.698 106.911 143.728 106.36 143.698 105.992 143.758 105.763 143.847 105.441 143.758 105.212 143.787 104.821 143.698 104.569 143.787 104.133 143.728 103.26 143.817 103.054 143.937 102.985 144.147 102.939 144.506 102.985 144.746 102.985 145.135 102.893 145.524 102.916 145.764 102.893 146.063 102.939 146.662 102.755 147.201 102.434 147.77 102.411 148.009 102.434 148.428 102.365 148.578 102.365 148.758 102.319 148.877 102.296 149.207 101.791 150.225 101.745 150.524 101.584 150.823 101.584 150.973"><title>2020-10-15 6.5km</title></polyline><polyline fill="none" stroke="#ff9300" stroke-linecap="round" stroke-linejoin="round" stroke-width=".5" points="128.325 145.899 127.196 146.17 127.703 147.582 127.288 149.534 127.518 150.796 128.878 152.298 130.421 152.779 132.402 151.337 134.821 150.616 138.83 151.517 143.829 143.796 142.907 143.225 125.56 143.886 125.169 147.792 123.648 153.109 124.155 156.054 124.731 156.654 128.14 155.453 130.536 152.659 133.07 150.856 135.098 150.586 138.346 151.697 138.945 151.517 143.783 143.977 143.391 143.316 141.295 143.286 125.675 143.826 125.284 147.762 123.625 153.38 123.924 155.242 124.777 156.775 127.334 155.753 128.831 154.672 131.25 151.878 133.946 150.496 138.761 151.637 143.852 143.826 143.529 143.346 141.64 143.195 125.698 143.736 125.076 148.633 124.201 150.586 123.671 153.29 123.924 155.302 124.869 156.744 127.703 155.933 131.273 151.788 132.863 150.946 135.835 150.706 138.692 151.848 143.875 143.736 143.161 143.256 138.254 143.225 125.514 143.916 125.284 147.492 123.694 153.079 123.924 155.212 124.5 156.624 125.053 156.775 128.693 155.062 131.389 151.848 133.808 150.676 135.904 150.766 138.807 151.878 143.852 143.947 143.345 143.286 141.548 143.256 125.537 143.826 125.376 147.101 123.948 151.217 123.648 153.68 123.994 155.513 124.777 156.805 127.956 155.513 130.559 152.539 132.771 151.247 136.388 150.796 138.761 151.728 143.783 143.947 143.299 143.316 139.429 143.256 125.675 143.766 125.192 148.183 123.648 152.869 123.878 155.092 124.685 156.684"><title>2020-10-16 12.9km</title></polyline><polyline fill="none" stroke="#4dd2ff" stroke-linecap="round" stroke-linejoin="round" stroke-width=".5" points="152.745 147.159 152.628 148.804 153.252 149.652 154.163 150.043 155.125 149.347 156.491 148.804 157.154 148.787 158.975 149.364 161.875 145.005 161.511 144.649 146.307 145.107 146.125 146.328 146.372 151.535 146.684 151.874 148.232 151.84 150.066 152.315 151.093 152.298 152.277 151.891 155.437 149.127 156.92 148.754 157.583 148.804 159.261 149.669 160.861 151.382 162.59 152.705 164.268 151.111 165.061 149.669 166.375 148.177 164.086 145.972 162.746 144.988 162.239 145.039 161.615 144.649 153.226 144.751 146.333 145.107 146.151 145.904 146.372 149.178 146.19 150.5 146.671 155.351 151.327 155.046 151.314 154.249 150.69 152.705 151.015 152.688"><title>2020-10-18 6.6km</title></polyline><polyline fill="none" stroke="#4dd2ff" stroke-linecap="round" stroke-linejoin="round" stroke-width=".5" points="171.348 146.643 171.563 148.063 171.299 149.936 173.015 151.915 174.995 150.517 177.141 150.258 180.046 151.485 181.762 153.465 183.544 154.928 185.921 152.992 188.875 149.462 184.485 145.48 182.884 144.964 170.193 145.373 169.912 145.674 169.978 147.676 168.708 151.829 168.774 153.185 169.467 154.584 171.068 154.154 174.533 150.926 176.184 150.237 179.517 151.205 183.693 155.015 185.657 153.207 188.776 149.397 184.502 145.502 182.818 144.964 170.077 145.394 169.731 148.558 168.625 152.238 168.873 153.616 169.434 154.67 171.662 153.831 173.923 151.356 175.92 150.28 177.438 150.431 179.748 151.377 182.356 153.96 183.907 155.036 188.825 149.527 188.198 148.687 184.386 145.437 182.917 144.985 170.193 145.308 169.912 145.567 169.764 148.472 169.038 150.215 168.658 152.324"><title>2020-10-21 8.5km</title></polyline><polyline fill="none" stroke="#ffa900" stroke-linecap="round" stroke-linejoin="round" stroke-width=".5" points="14.006 174.053 13.693 174.418 14.121 175.706 13.759 175.921 13.743 177.488 14.78 178.583 15.866 179.184 16.723 178.175 17.645 177.703 20.41 177.574 22.386 178.69 25.975 182.125 27.951 180.623 31.227 176.758 31.029 176.221 26.913 172.722 25.448 172.207 12.722 172.507 12.426 172.829 12.212 175.706 11.141 179.227 11.405 180.945 11.882 181.846 13.364 181.438 14.467 180.73 16.937 178.068 18.056 177.51 19.406 177.445 22.073 178.454 26.255 182.211 31.375 176.586 26.765 172.658 25.251 172.164 12.557 172.572 12.376 175.019 11.125 179.313 11.438 181.031 11.915 181.825 14.088 180.988 16.953 178.068 19.093 177.467 20.608 177.724 22.386 178.669 24.905 181.31 26.189 182.168 27.786 180.773 31.293 176.565 27.127 172.872 25.465 172.25 12.607 172.615 12.179 175.942 11.125 179.292 11.323 180.666 12.063 181.889 13.858 181.159 16.739 178.304 19.126 177.51 20.888 177.853 22.353 178.69 26.024 182.211 28.346 180.193 31.21 176.694 30.782 175.921 26.452 172.4 23.983 172.164 12.689 172.636 12.36 175.234 11.224 178.776"><title>2020-10-23 11.3km</title></polyline><polyline fill="none" stroke="#4dd2ff" stroke-linecap="round" stroke-linejoin="round" stroke-width=".5" points="36.3 173.592 36.499 175 36.133 176.884 37.18 178.596 38.143 179.159 39.173 178.271 40.901 177.383 42.894 177.599 44.888 178.617 48.476 182.213 48.908 182.148 53.842 176.733 53.26 175.823 49.606 172.812 47.729 172.162 35.07 172.487 34.888 174.805 33.625 179.029 33.708 180.632 34.289 181.867 35.569 181.585 36.515 180.979 39.439 177.989 40.502 177.491 42.363 177.448 44.905 178.639 48.742 182.235 53.875 176.668 53.543 176.083 49.44 172.66 47.795 172.14 37.363 172.378 35.12 172.53 34.854 172.855"><title>2020-10-24 5.3km</title></polyline><polyline fill="none" stroke="#4dd2ff" stroke-linecap="round" stroke-linejoin="round" stroke-width=".5" points="58.883 174.334 59.049 175.475 58.751 177.241 59.759 178.577 60.931 179.029 61.724 178.254 63.161 177.478 65.358 177.521 67.324 178.534 71.156 182.174 72.708 180.86 76.375 176.574 76.193 176.164 72.081 172.783 70.528 172.18 62.286 172.223 57.529 172.567 57.265 175.626 56.125 179.115 56.422 180.925 57 181.765 58.322 181.506 59.561 180.666 62.583 177.715 64.615 177.349 67.621 178.728 71.304 182.174 76.358 176.531 71.932 172.718 70.264 172.18 57.579 172.546 57.232 175.82 56.175 178.792 56.505 181.226 57.149 181.786 59.346 180.774 62.451 177.758 64.367 177.328 67.621 178.706 70.132 181.334 71.42 182.195 76.342 176.552 72.031 172.718 70.429 172.201 57.727 172.503 57.446 172.804 57.331 175.604 56.125 179.288 56.455 180.838"><title>2020-10-25 8.5km</title></polyline><polyline fill="none" stroke="#4dd2ff" stroke-linecap="round" stroke-linejoin="round" stroke-width=".5" points="81.407 174.316 81.572 175.287 81.241 177.382 82.201 178.591 83.261 179.174 84.139 178.332 85.579 177.857 85.794 177.447 87.831 177.619 89.801 178.613 93.692 182.197 95.696 180.599 96.259 179.649 98.478 177.533 98.875 176.475 95.597 173.56 94.371 172.675 93.08 172.265 80.115 172.545 79.718 175.741 78.724 178.548 78.708 180.102 79.221 181.959 80.595 181.635 81.903 180.923 83.874 178.569 84.784 177.922 87.086 177.468 88.195 177.727 89.967 178.721 93.908 182.218 98.362 177.447 98.792 176.497 94.471 172.696 92.964 172.243 80.082 172.545 79.751 175.698 78.94 177.749 78.625 179.563 79.055 181.484 79.436 181.959 80.794 181.571 82.284 180.534 84.801 177.641 86.838 177.468 87.732 177.576 89.835 178.613 93.775 182.24 98.146 177.706 98.776 176.799 98.709 176.345 94.371 172.653 92.699 172.135 80.264 172.545 79.95 172.848 79.718 175.784 78.724 178.354 78.625 179.951 79.022 181.312 79.42 181.873 80.33 181.765 81.92 180.88 82.781 179.865"><title>2020-10-26 8.8km</title></polyline><polyline fill="none" stroke="red" stroke-linecap="round" stroke-linejoin="round" stroke-width=".5" points="103.716 174.271 104.079 175.477 103.749 177.241 104.855 178.705 105.829 179.221 108.156 177.586 110.532 177.715 112.562 178.748 116.226 182.234 121.325 176.768 121.045 176.208 116.919 172.808 115.005 172.119 102.643 172.528 102.214 175.864 101.505 177.543 101.125 179.501 101.455 181.051 101.967 181.847 103.914 181.18 107.462 177.887 109.41 177.478 110.697 177.758 112.694 178.877 116.127 182.234 118.239 180.491 121.309 176.854 121.078 176.251 116.903 172.722 115.203 172.184 102.643 172.485 102.264 175.692 101.191 179.157 101.241 180.513 102.016 181.868 102.891 181.739 104.525 180.749 107.099 178.21 108.453 177.457 109.311 177.435 111.077 177.93 112.694 178.812 116.275 182.256 120.946 177.5 121.358 176.703 116.936 172.765 115.302 172.205 102.561 172.55 102.214 175.735 101.224 178.942 101.241 180.47 102 181.825 103.931 181.223 107.017 178.231 109.558 177.672 110.648 177.866 112.513 178.769 116.176 182.234 121.375 176.746 116.952 172.786 115.368 172.205 102.742 172.485 102.445 172.786 102.231 175.778 101.158 179.157 101.34 180.663 101.884 181.825 102.775 181.804 103.98 181.201 106.159 178.92 108.024 178.339 108.222 177.93 110.136 177.564 112.546 178.769 116.226 182.213 117.315 181.373 121.309 176.725 121.127 176.294 117.051 172.829 115.351 172.205 102.577 172.55 102.429 175.003 101.208 178.92 101.373 180.706 101.769 181.696 102.165 181.912 104.343 180.965 106.357 178.726 107.512 177.995 108.436 177.521 110.053 177.521 112.48 178.791 116.308 182.191 120.748 177.564 121.309 176.574 116.886 172.7 115.335 172.248 102.627 172.636 102.313 175.541 101.224 178.791 101.422 180.685 102.082 181.868 104.046 181.072 106.802 178.231 108.552 177.521 111.951 178.404 116.226 182.256 121.292 176.725 121.193 176.294 116.936 172.722 115.236 172.162 102.792 172.593 102.495 172.872 102.313 175.67 101.307 178.447 101.34 180.556 101.835 181.675 102.396 181.804 103.782 181.244 105.498 179.652"><title>2020-10-27 20.2km</title></polyline><polyline fill="none" stroke="#4dd2ff" stroke-linecap="round" stroke-linejoin="round" stroke-width=".5" points="126.367 174.226 126.648 175.303 126.152 177.048 127.061 178.469 128.217 179.137 129.389 178.168 130.777 177.586 132.115 177.5 135.022 178.749 138.54 182.195 140.687 180.429 143.875 176.768 139.927 173.106 137.764 172.18 129.175 172.201 125.161 172.567 124.897 172.89 124.715 175.648 123.691 178.448 123.79 180.688 124.385 181.829 125.392 181.635 126.994 180.752 128.993 178.469 130.826 177.608 132.561 177.543 134.576 178.254 138.077 172.718 137.45 172.201 125.128 172.503 124.666 175.755 123.625 178.9 123.691 180.278 124.286 181.786"><title>2020-10-29 5.0km</title></polyline><polyline fill="none" stroke="#4dd2ff" stroke-linecap="round" stroke-linejoin="round" stroke-width=".5" points="148.704 174.083 148.985 175.269 148.72 177.317 149.696 178.567 150.572 179.149 153.365 177.274 154.903 177.489 157.25 178.567 161.135 182.21 166.375 176.735 161.829 172.682 160.325 172.143 147.547 172.553 147.199 175.614 146.125 178.826 146.307 180.723 146.935 181.844 149.051 181.003 152.01 178.05 153.167 177.468 154.242 177.468 155.498 177.727 157.515 178.697 161.135 182.232 166.292 176.67 166.144 176.239 161.879 172.661 160.325 172.143 147.679 172.51 147.431 172.811 147.315 175.204 146.142 178.74 146.142 180.076 146.571 181.413"><title>2020-11-03 5.7km</title></polyline><polyline fill="none" stroke="#4dd2ff" stroke-linecap="round" stroke-linejoin="round" stroke-width=".5" points="171.494 173.77 171.295 174.398 171.66 175.241 171.328 175.587 171.129 177.361 172.158 178.485 173.236 179.177 175.873 177.49 177.896 177.599 179.869 178.637 183.684 182.227 185.89 180.237 188.858 176.69 188.394 175.933 184.43 172.667 182.822 172.148 170.25 172.494 169.919 172.732 169.72 175.544 168.625 179.156 168.758 180.475 169.322 181.837 171.61 181.08 174.43 178.096 177.183 177.447 180.035 178.745 183.833 182.205 187.316 178.701 188.875 176.517 184.364 172.603 182.904 172.17 170.035 172.516 169.869 174.938 168.658 178.766 168.708 180.345 169.106 181.34"><title>2020-11-04 5.7km</title></polyline><polyline fill="none" stroke="#4dd2ff" stroke-linecap="round" stroke-linejoin="round" stroke-width=".5" points="13.768 200.993 14.015 202.243 13.652 204.16 14.676 205.581 15.865 206.184 18.128 204.698 20.507 204.849 22.489 205.947 26.04 209.307 26.998 208.747 31.358 203.88 26.816 199.744 26.189 199.809 25.478 199.356 12.562 199.744 12.281 202.781 11.125 206.4 11.241 207.714 12.033 209.049 14.082 208.231 16.923 205.431 18.26 204.784 19.813 204.612 21.977 205.517 26.156 209.415 28.369 207.412 31.375 203.944 27.048 199.873 25.247 199.335 12.529 199.766 12.38 202.2 11.208 205.538 11.175 207.24"><title>2020-11-05 5.7km</title></polyline><polyline fill="none" stroke="#4dd2ff" stroke-linecap="round" stroke-linejoin="round" stroke-width=".5" points="36.115 201.485 36.463 202.351 36.165 204.343 37.227 205.75 38.14 206.291 40.696 204.732 43.069 204.819 45.028 205.901 48.796 209.429 53.858 203.953 53.676 203.434 49.543 199.884 47.767 199.321 35.019 199.71 34.654 203.109 33.625 206.053 33.808 207.806 34.372 209.061 35.733 208.693 36.911 207.936 39.252 205.382 41.609 204.602 43.335 204.949 44.928 205.814 48.829 209.386 53.875 203.845 53.742 203.455 49.559 199.905 47.933 199.364 35.185 199.732 34.92 200.014 34.621 203.109 33.642 205.598 33.857 208.066"><title>2020-11-06 5.7km</title></polyline><polyline fill="none" stroke="#4dd2ff" stroke-linecap="round" stroke-linejoin="round" stroke-width=".5" points="58.675 201.406 59.006 202.486 58.691 204.429 59.321 205.314 60.645 206.264 62.814 204.839 64.155 204.559 65.132 204.688 67.417 205.703 71.126 209.309 75.249 205.293 76.375 203.781 71.855 199.7 71.226 199.787 70.48 199.355 57.648 199.679 57.4 199.765 57.118 203.198 56.125 206.308 56.307 207.927 56.854 208.899 57.516 208.899 59.122 208.186 61.986 205.206 63.228 204.688 64.321 204.623 65.795 204.882 67.335 205.66 71.275 209.395 76.325 203.932 72.02 199.851 71.375 199.873 70.365 199.355 57.599 199.636 57.234 202.982 56.191 205.811 56.257 207.668 56.953 209.05 59.155 208.164 62.069 205.142 63.41 204.645 64.453 204.602 65.579 204.839 67.169 205.66 71.308 209.395 76.358 203.76 72.136 199.981 70.447 199.355 57.665 199.614 57.234 202.961 56.191 206.07"><title>2020-11-07 8.4km</title></polyline><polyline fill="none" stroke="#4dd2ff" stroke-linecap="round" stroke-linejoin="round" stroke-width=".5" points="81.296 201.676 81.28 204.536 82.352 205.827 83.242 206.364 85.798 204.644 88.338 204.902 89.987 205.827 93.631 209.375 94.406 208.945 98.793 203.87 98.479 203.289 94.621 200.128 92.807 199.418 80.109 199.741 79.779 200.773 79.812 202.558 78.625 206.364 79.07 208.794 79.466 208.988 81.197 208.45 84.759 205.074 86.887 204.622 89.575 205.59 93.664 209.396 95.89 207.439 98.875 203.741 94.291 199.848 92.708 199.354 80.34 199.698 79.994 199.934 79.878 202.128 78.74 206.02 79.021 208.364 79.548 209.052 80.818 208.665 81.61 208.257 83.176 206.687"><title>2020-11-08 6.0km</title></polyline><polyline fill="none" stroke="#4dd2ff" stroke-linecap="round" stroke-linejoin="round" stroke-width=".5" points="104.082 201.23 103.735 201.316 104.082 202.393 103.702 204.267 104.742 205.667 105.799 206.271 107.616 205 108.624 204.72 110.953 205.064 112.489 205.797 116.09 209.243 116.932 208.92 118.138 207.821 121.358 203.987 121.243 203.535 117.807 200.649 116.849 199.938 115.28 199.356 105.832 199.313 102.645 199.679 102.182 203.104 101.125 206.572 101.934 209.027 103.949 208.403 107.451 205.021 109.697 204.677 112.241 205.732 116.222 209.437 121.375 203.858 116.816 199.809 115.214 199.313 102.711 199.615 102.314 202.415 101.175 205.84 101.257 207.606"><title>2020-11-09 5.7km</title></polyline><polyline fill="none" stroke="#4dd2ff" stroke-linecap="round" stroke-linejoin="round" stroke-width=".5" points="126.677 201.239 126.129 201.304 126.511 202.537 126.179 204.224 127.34 205.781 128.252 206.257 130.06 204.851 132.332 204.656 135.118 205.954 138.651 209.371 140.591 207.706 143.875 203.921 143.825 203.423 139.497 199.855 137.822 199.293 125.018 199.66 124.653 203.142 123.625 206.062 123.708 207.425 124.272 208.938 125.648 208.765 127.008 207.987 128.518 206.019 129.396 205.348 131.022 204.656 132.183 204.656 134.787 205.651 138.717 209.414 141.039 207.338 143.825 203.834 143.742 203.38 139.397 199.747 137.705 199.249 125.184 199.682 124.819 202.645 123.675 206.192 123.791 207.749 124.438 208.982 126.909 208.073 129.546 205.175 131.005 204.548 131.884 204.57 134.82 205.673 138.684 209.501 140.774 207.598 143.858 203.683 143.726 203.294 139.447 199.79 137.855 199.293 125.151 199.682 124.869 202.515 123.675 206.278 123.907 208.052 124.62 209.068"><title>2020-11-12 8.6km</title></polyline><polyline fill="none" stroke="#4dd2ff" stroke-linecap="round" stroke-linejoin="round" stroke-width=".5" points="148.826 201.836 149.025 202.441 148.71 204.472 149.771 205.899 150.251 205.899 150.715 206.352 151.892 205.293 153.284 204.667 154.858 204.645 157.642 206.071 161.288 209.334 163.11 207.692 166.375 203.759 161.868 199.805 160.343 199.351 147.683 199.718 147.186 203.154 146.125 206.115 146.307 207.865 146.954 209.075 149.439 208.016 151.544 205.337 152.521 204.84 155.04 204.71 156.929 205.466 161.288 209.442 163.442 207.411 166.292 203.802 161.901 199.805 159.051 199.308 147.65 199.74 147.401 200.064 147.103 203.219"><title>2020-11-15 5.4km</title></polyline><polyline fill="none" stroke="#4dd2ff" stroke-linecap="round" stroke-linejoin="round" stroke-width=".5" points="171.219 201.166 171.584 202.619 171.152 204.072 172.449 205.828 173.363 206.218 175.624 204.809 177.952 204.939 179.831 205.763 183.106 209.058 183.821 209.427 188.875 203.725 184.353 199.8 182.325 199.323 170.138 199.692 169.855 200.017 169.689 202.662 168.625 205.958 168.791 208.147 169.39 209.058 171.268 208.451 174.045 205.502 174.743 205.112 176.023 204.614 177.802 204.83 179.897 205.849 183.704 209.405 188.143 204.874 188.792 203.746 184.519 199.974 182.79 199.345 170.121 199.649 169.855 199.996 169.839 201.578"><title>2020-11-16 5.3km</title></polyline><polyline fill="none" stroke="#4dd2ff" stroke-linecap="round" stroke-linejoin="round" stroke-width=".5" points="14.046 228.586 13.665 228.76 14.063 229.604 13.814 231.725 14.876 233.153 15.64 233.543 17.15 232.179 18.345 231.812 20.486 232.071 22.661 233.197 26.097 236.595 27.972 234.95 31.375 230.946 26.86 227.006 25.267 226.508 12.602 226.92 12.187 230.08 11.125 233.37 11.258 235.08 12.021 236.249 13.93 235.426 16.951 232.353 19.125 231.812 20.204 231.941 21.881 232.677 26.113 236.617 27.79 235.123 31.325 231.011 30.977 230.383 27.126 227.201 25.2 226.508 18.196 226.855 14.279 226.66 12.42 227.093 12.37 229.192 11.125 233.586"><title>2020-11-19 5.6km</title></polyline><polyline fill="none" stroke="#4dd2ff" stroke-linecap="round" stroke-linejoin="round" stroke-width=".5" points="33.625 233.271 34.076 233.262 34.083 233.712 34.453 233.735 34.471 232.927 34.273 232.426 34.249 232.155 34.182 230.759 34.22 230.529 35.503 230.437 36.591 230.451 36.905 230.387 37.169 230.433 37.631 230.341 38.85 230.336 39.565 230.263 40.03 230.304 41.742 230.23 41.996 230.281 43.102 230.24 43.472 230.295 44.113 230.212 44.377 230.276 46.315 230.212 48.753 229.877 49.14 229.872 49.88 229.707 50.074 229.698 50.282 229.78 51.078 229.596 51.247 229.652 52.878 229.564 53.854 229.477 53.875 229.39"><title>2020-11-20 5.9km</title></polyline><polyline fill="none" stroke="#4dd2ff" stroke-linecap="round" stroke-linejoin="round" stroke-width=".5" points="56.125 233.205 56.396 233.186 56.466 233.673 56.786 233.686 56.786 232.81 56.579 232.228 56.501 230.737 56.575 230.48 58.528 230.338 59.101 230.37 62.081 230.205 62.732 230.255 64.234 230.173 65.23 230.228 68.013 230.177 70.38 229.943 71.393 229.764 71.583 229.796 71.949 229.691 72.375 229.696 72.632 229.595 72.716 229.673 72.906 229.677 74.275 229.512 74.609 229.553 74.866 229.494 75.228 229.521 76.375 229.439"><title>2020-11-23 5.9km</title></polyline><polyline fill="none" stroke="#4dd2ff" stroke-linecap="round" stroke-linejoin="round" stroke-width=".5" points="78.625 233.17 79.034 233.217 79.102 233.736 79.422 233.648 79.422 232.836 79.223 232.326 79.166 231.537 79.152 230.516 79.258 230.451 83.711 230.21 84.323 230.261 84.761 230.187 86.209 230.224 88.878 230.159 89.053 230.219 90.707 230.159 92.305 230.015 95.131 229.63 96.75 229.574 97.427 229.472 98.067 229.505 98.875 229.389"><title>2020-11-25 5.8km</title></polyline><polyline fill="none" stroke="#4dd2ff" stroke-linecap="round" stroke-linejoin="round" stroke-width=".5" points="101.125 233.218 101.461 233.236 101.567 233.688 101.825 233.702 101.889 233.637 101.892 232.752 101.684 232.222 101.616 231.208 101.609 230.636 101.648 230.507 101.733 230.479 102.288 230.419 102.893 230.41 103.01 230.465 105.669 230.258 112.04 230.166 113.108 230.198 117.263 229.751 117.747 229.649 121.375 229.423"><title>2020-11-26 5.8km</title></polyline><polyline fill="none" stroke="#4dd2ff" stroke-linecap="round" stroke-linejoin="round" stroke-width=".5" points="123.625 233.194 124.001 233.199 124.051 233.707 124.192 233.769 124.42 233.689 124.409 232.803 124.239 232.403 124.188 232.017 124.12 230.76 124.163 230.421 128.259 230.171 135.54 230.138 137.493 229.964 140.271 229.601 143.875 229.356"><title>2020-11-27 5.8km</title></polyline><polyline fill="none" stroke="#4dd2ff" stroke-linecap="round" stroke-linejoin="round" stroke-width=".5" points="146.125 233.241 146.593 233.227 146.698 233.757 147.043 233.729 147.043 232.882 146.829 232.324 146.796 231.889 146.727 230.711 146.76 230.489 146.829 230.437 151.693 230.196 152.36 230.224 153.76 230.148 153.923 230.215 154.29 230.153 154.587 230.205 155.737 230.163 156.132 230.219 156.216 230.158 158.435 230.144 161.54 229.789 162.041 229.799 163.354 229.59 164.663 229.524 165.113 229.444 165.512 229.501 166.154 229.368 166.375 229.406"><title>2020-11-30 5.7km</title></polyline><polyline fill="none" stroke="#4dd2ff" stroke-linecap="round" stroke-linejoin="round" stroke-width=".5" points="168.625 233.216 169.13 233.207 169.225 233.678 169.548 233.664 169.544 232.722 169.393 232.397 169.327 231.986 169.305 230.49 173.501 230.27 180.856 230.202 184.168 229.831 185.143 229.658 186.034 229.658 187.002 229.534 188.875 229.447"><title>2020-12-07 5.9km</title></polyline><polyline fill="none" stroke="#4dd2ff" stroke-linecap="round" stroke-linejoin="round" stroke-width=".5" points="11.125 260.417 11.595 260.417 11.644 260.889 11.999 260.875 11.96 259.942 11.809 259.667 11.753 259.237 11.735 257.714 16.11 257.449 23.173 257.417 26.519 257.014 26.958 257.009 27.583 256.877 27.723 256.868 27.811 256.959 28.235 256.84 29.312 256.799 29.428 256.721 30.354 256.753 30.873 256.648 31.21 256.68 31.375 256.611"><title>2020-12-08 5.9km</title></polyline><polyline fill="none" stroke="#4dd2ff" stroke-linecap="round" stroke-linejoin="round" stroke-width=".5" points="33.625 260.358 33.935 260.395 33.966 260.822 34.051 260.927 34.343 260.836 34.329 259.982 34.111 259.372 34.075 257.656 38.204 257.38 38.471 257.435 39.629 257.357 41.265 257.417 41.814 257.339 42.715 257.399 43.894 257.311 45.527 257.348 49.87 256.834 53.875 256.573"><title>2020-12-09 5.9km</title></polyline><polyline fill="none" stroke="#4dd2ff" stroke-linecap="round" stroke-linejoin="round" stroke-width=".5" points="56.125 260.434 56.251 260.467 56.283 260.911 56.645 260.916 56.652 260.023 56.451 259.592 56.408 259.237 56.355 257.885 56.369 257.688 56.459 257.66 61.808 257.389 62.486 257.431 68.141 257.361 72.418 256.846 76.375 256.584"><title>2020-12-10 5.8km</title></polyline><polyline fill="none" stroke="#4dd2ff" stroke-linecap="round" stroke-linejoin="round" stroke-width=".5" points="78.625 260.474 78.655 260.962 79.029 260.972 79.04 260.131 78.844 259.604 78.784 259.115 78.773 257.621 83.242 257.34 83.435 257.389 84.351 257.316 86.065 257.345 86.543 257.282 87.804 257.355 88.472 257.292 89.581 257.326 89.877 257.258 90.089 257.316 91.061 257.278 93.527 257.021 94.298 256.828 94.525 256.881 95.437 256.692 95.889 256.746 96.42 256.654 98.875 256.528"><title>2020-12-11 5.6km</title></polyline><polyline fill="none" stroke="#4dd2ff" stroke-linecap="round" stroke-linejoin="round" stroke-width=".5" points="101.125 260.424 101.342 260.466 101.364 260.928 101.317 260.918 101.722 260.857 101.747 260.061 101.541 259.518 101.497 258.901 101.447 257.897 101.468 257.689 101.555 257.638 102.839 257.515 103.233 257.553 103.612 257.491 103.978 257.548 105.261 257.435 105.568 257.341 105.652 257.402 106.118 257.411 107.036 257.308 107.347 257.402 110.127 257.322 111.729 257.35 111.982 257.293 112.438 257.35 113.309 257.322 115.5 257.11 116.274 256.954 117.976 256.77 121.375 256.572"><title>2020-12-14 5.8km</title></polyline><polyline fill="none" stroke="#4dd2ff" stroke-linecap="round" stroke-linejoin="round" stroke-width=".5" points="123.882 261.105 123.979 260.978 123.967 260.253 123.932 259.909 123.753 259.538 123.695 259.057 123.625 257.779 123.676 257.475 128.443 257.191 136.32 257.14 138.735 256.907 140.03 256.664 140.702 256.669 141.247 256.537 141.701 256.562 143.875 256.395"><title>2020-12-15 5.3km</title></polyline><polyline fill="none" stroke="#4dd2ff" stroke-linecap="round" stroke-linejoin="round" stroke-width=".5" points="146.125 260.366 146.721 260.371 146.848 260.71 146.804 260.757 146.833 260.945 146.974 260.95 147.18 260.846 147.14 259.862 146.981 259.598 146.931 259.174 146.866 257.855 146.905 257.629 146.996 257.577 148.463 257.506 148.65 257.44 150.345 257.417 151.223 257.323 151.678 257.351 152.036 257.276 152.823 257.351 158.781 257.29 162.856 256.795 166.375 256.55"><title>2020-12-21 5.8km</title></polyline><polyline fill="none" stroke="#4dd2ff" stroke-linecap="round" stroke-linejoin="round" stroke-width=".5" points="168.625 260.397 169.117 260.388 169.145 260.869 169.525 260.841 169.518 259.93 169.31 259.375 169.24 257.896 169.296 257.662 173.414 257.437 180.663 257.378 185.14 256.869 188.875 256.631"><title>2020-12-22 5.9km</title></polyline></svg>