<?xml version="1.0" encoding="utf-8" ?>
<svg baseProfile="full" height="300mm" version="1.1" viewBox="0,0,200,300" width="200mm" xmlns="http://www.w3.org/2000/svg" xmlns:ev="http://www.w3.org/2001/xml-events" xmlns:xlink="http://www.w3.org/1999/xlink"><defs /><rect fill="#222222" height="300" width="200" x="0" y="0" /><text fill="#FFFFFF" style="font-size:12px; font-family:Arial; font-weight:bold;" x="10" y="20">Picked Over 5km Runs</text><text fill="#FFFFFF" style="font-size:4px; font-family:Arial" x="10" y="280">ATHLETE</text><text fill="#FFFFFF" style="font-size:9px; font-family:Arial" x="10" y="290">DuanFei</text><text fill="#FFFFFF" style="font-size:4px; font-family:Arial" x="120" y="280">STATISTICS</text><text fill="#FFFFFF" style="font-size:3px; font-family:Arial" x="120" y="285">Number: 24</text><text fill="#FFFFFF" style="font-size:3px; font-family:Arial" x="120" y="290">Weekly: 2.0</text><text fill="#FFFFFF" style="font-size:3px; font-family:Arial" x="141" y="285">Total: 187.2 km</text><text fill="#FFFFFF" style="font-size:3px; font-family:Arial" x="141" y="290">Avg: 7.8 km</text><text fill="#FFFFFF" style="font-size:3px; font-family:Arial" x="167" y="285">Min: 5.0 km</text><text fill="#FFFFFF" style="font-size:3px; font-family:Arial" x="167" y="290">Max: 24.0 km</text><polyline fill="none" points="24.80647237575613,33.80271607328905 25.252791156060994,32.95437995286193 32.59676381223835,32.79531676095212 36.49190953024663,33.776205592555925 39.45384325343184,32.90135889488738 44.8502430501394,34.7836028173333 42.21290480368771,65.40215351025108 38.80465230019763,68.0 14.825161473127082,59.49067418396589 18.27398841106333,32.689274603442755 37.22224935214035,33.272506176203024 39.49441768787801,34.94266534107737 44.9313919194974,34.810113241837826 42.25347923813388,65.21659250120865 40.83337402832694,67.09870793487062 38.43948238925077,67.89396572852274 15.109182515181601,59.14605652008322 18.558009453117847,32.344637427217094 31.501254078699276,32.9808904795791 45.17483852687292,35.02219658301328 42.456351411063224,64.34180390709662 41.27969280886464,66.93965621595271 38.72350343107246,67.94698286720086 15.271480253199115,59.14605652008322 18.558009453117847,32.50370077052503 22.89947395143099,32.0 24.765897941077128,32.821827296575066" stroke="#4dd2ff" stroke-linecap="round" stroke-linejoin="round" stroke-width="0.5"><title>2020-06-12 5.6km</title></polyline><polyline fill="none" points="71.92863024049439,33.120871265389724 86.9187972091604,33.17424602154642 91.61598849366419,34.935609628795646 90.06387311290018,57.459139991377015 88.14415145711973,66.85252528294222 86.1427395187784,68.0 83.9371018721722,67.75983110177913 67.43566466402262,62.262598784436705 61.67649969807826,59.32715749763884 62.28917682217434,51.98847517106333 65.14833673415706,32.533748550427845 87.20471320068464,33.33437025506282 91.69767877669074,34.748798645770876 89.20612513879314,65.06459405439091 86.7145715013612,67.75983110177913 83.56949559762143,67.59971843581297 70.74412113404833,63.30334180785576 61.63565455656499,59.35384340892779 64.16805333574302,36.003099555149674 64.90326588461176,32.64049818876083 66.2103104160633,32.0 78.21878204750828,32.45368630599114 82.13991564139724,33.49449443453341 87.49062919151038,33.120871265389724 91.86105934320949,35.01567145608715 89.28781542205252,64.37076818876085 88.26668688212521,66.6123558061372 86.1427395187784,67.8932582824491 76.5441312417388,65.67836224724306 61.47227399004623,59.19372791858041 63.677911636652425,42.00768583358149" stroke="#4dd2ff" stroke-linecap="round" stroke-linejoin="round" stroke-width="0.5"><title>2020-06-16 5.3km</title></polyline><polyline fill="none" points="118.34789991448633,33.77913492851076 123.55357336392626,32.81107705767499 131.16186532820575,33.465170433424646 137.8891971707344,35.689081060525496 135.2463168038521,65.85472889238736 133.1240037821699,67.65989670096315 131.08177804434672,67.94767643173691 108.69738221215084,59.41885646531591 111.74069899809547,33.020387037686305 116.8262415213976,32.0 136.24740785197355,34.82568172144238 137.84915352868848,35.50593587954063 138.00932809640653,38.61939419209375 136.4476260615047,56.09623721934622 135.2463168038521,65.14835698180832 133.00387285649776,67.81686748523498 130.0806869964581,67.58141128916759 108.77746949600987,59.41885646531591 111.34026257880032,34.61637255028472 112.06104813329875,32.94189580611419 117.50698343408294,32.418620592710795 132.00278180860914,33.70064382458804 137.80910988664255,35.45360867166892 135.44653501338325,64.23268810042646 134.5255312495865,66.61342345876619 132.00278180860914,68.0 108.65733857033774,59.13107148121344 111.50043714651838,36.3693339615711" stroke="#4dd2ff" stroke-linecap="round" stroke-linejoin="round" stroke-width="0.5"><title>2020-07-10 5.3km</title></polyline><polyline fill="none" points="166.08456377545372,32.609742969769286 170.18258510902524,32.053021158935735 183.00411720154807,33.72318462652038 184.91111722798087,34.7305819641042 182.27377676567994,65.13706633169204 181.13769164378755,67.09870793466689 178.2569043696858,68.0 164.90790418465622,63.573048959398875 155.25118064670824,58.907474913139595 158.2131168579217,32.954379952920135 160.48528710217215,32.0 175.21381922112778,33.48459020629525 178.90609586820938,32.954379952920135 185.11398957087658,34.86313408581191 182.55779804638587,63.997189774381695 180.93481930019334,67.07219931858708 178.29747883835807,67.94698286708444 167.1800744291395,63.75861061253818 164.90790418465622,64.15624248213135 154.96715936646797,58.93398398644058 158.25369132659398,32.768806223757565 159.34920198004693,32.0 164.78618077887222,32.053021158935735 167.38294677226804,33.033911528706085 180.1639043961186,33.37854820306529 185.11398957087658,34.91615492416895 182.15205335989594,65.72025792766362 178.78437246219255,67.97349143432803 169.49281914206222,64.89848774462007 167.38294677226804,63.33446958404966 165.19192546536215,63.54654014587868 154.84543596045114,58.58936591728707 158.13196792080998,33.85573703030241 158.90288282488473,32.21208460026537 169.57396807940677,32.26510573536507 185.1545640397817,34.70407153532142 182.0709044225514,64.73943528629025 180.85367036308162,66.7275871738093 178.2569043696858,67.65538853063481 165.23249993403442,63.59955777146388 155.08888277225196,58.827947684098035 158.2131168579217,32.47719021697412 159.6737977291923,32.26510573536507" stroke="#4dd2ff" stroke-linecap="round" stroke-linejoin="round" stroke-width="0.5"><title>2020-07-18 7.3km</title></polyline><polyline fill="none" points="25.90685218735598,73.51719982683426 38.42243876773864,73.44005419386667 44.168588581262156,75.39440623298287 41.846514341654256,104.55440785703831 40.5870842456352,106.7143343136704 38.18629562482238,107.66572726788581 15.555911084869877,99.4116849245911 18.86191508732736,73.02861059940187 27.205639473861083,72.5914513762109 42.08265748480335,74.59723732684506 44.28666015295312,75.5486968291516 44.48344610561617,76.50015435981913 43.14530162839219,97.04601303464733 41.728442770196125,104.83725594735006 40.42965548369102,106.84290104435058 38.93408224429004,107.66572726788581 35.8248641944956,107.20288769857143 15.673982656328008,99.4631124389125 16.0281973707024,93.44605416443665 18.979986658785492,72.90003440048895 29.134141808841377,72.5914513762109 44.247302962467074,75.60012701631058 43.18465881887823,96.7888740512135 41.68908557971008,104.76011557652964 39.56379729229957,107.35716760676587 36.02165014692582,107.40859423135407 15.59526827535592,99.2831161134527 18.507700372720137,74.80295846733497 19.334201373392716,72.84860391076654 29.527713713934645,72.46287505491637 44.12923139100894,75.34297602262814 42.08265748480335,104.9401097552327 40.11479795933701,107.40859423135407 38.10758124385029,108.0 15.516553894383833,99.00026460172376 18.665129134664312,73.77435184293427 19.334201373392716,72.87431915622437 23.89963547163643,72.10286116367206 29.645785285392776,72.0 35.39193509891629,73.85149741976056 39.99672638787888,73.82578222898883 44.48344610561617,75.62584210769273 43.38144477130845,95.06603914865991 41.76779996068217,104.58012132713338 39.76058324496262,107.3314542924054 37.24172305269167,107.66572726788581 15.634625465841964,99.05169216234935 18.704486324917525,73.67149105368298 19.530987325822935,72.7971734154271 24.057064233580604,72.18000702132122 40.74451300757937,74.26294027682161 44.32601734343916,75.60012701631058 41.64972838922404,104.81154249186511 40.5870842456352,106.6886209633085 37.950152481673285,107.66572726788581 15.555911084869877,99.38597116529127 19.255486992187798,73.08004106883891" stroke="#ffaf00" stroke-linecap="round" stroke-linejoin="round" stroke-width="0.5"><title>2020-07-31 11.0km</title></polyline><polyline fill="none" points="73.3540757629089,72.56462128544808 87.71549471281469,73.15612858653185 91.54246308631264,74.52734725445043 90.67830893723294,95.9286055356788 88.78539984952658,105.52659868603223 86.68673977348953,107.81180686948937 84.13542752456851,107.78492213058053 61.7085698521696,98.77844986060518 64.71253427444026,72.0 87.38629313209094,72.77971493382938 91.17211130820215,74.41980083379894 91.62476348108612,78.37211596543784 88.74424965167418,105.79544727210305 85.98718641512096,107.86557634291239 82.40711922687478,107.1934574933257 62.03777143266052,99.02041699571419 61.914320840034634,96.06303253473016 65.08288605231792,72.0 76.27573978994042,72.02688674270757 91.58361328369938,74.5811204558413 89.5672536031343,101.25188593927305 88.74424965167418,105.63413813867373 86.97479115659371,107.78492213058053 84.71153029054403,108.0 62.120071827899665,99.07418745360337 62.40812321077101,91.86889242517645" stroke="#4dd2ff" stroke-linecap="round" stroke-linejoin="round" stroke-width="0.5"><title>2020-08-02 5.0km</title></polyline><polyline fill="none" points="120.267736134585,72.57981684239348 133.53854506043717,73.52860649803188 138.01593044260517,75.34711465748842 136.76548947999254,95.93002869474003 134.9099964387715,105.81267008767463 132.9738297869917,107.8155267854745 130.8359791089315,107.94729337457102 111.0709445385728,100.75278362067183 108.65073622413911,99.11885032904684 111.8373438382987,72.81701443550992 121.59885070775636,72.23719788558083 130.35193744581193,73.87122451458708 133.94191311276518,73.29140926338732 138.13694085832685,75.71608647002722 135.91841656994075,101.41162608526065 133.74022908648476,107.36752010631608 131.4813679929357,108.0 124.2207430487033,105.970790663152 108.61039941874333,99.72498753463151 109.29612510791048,89.13065090603777 111.75667022773996,72.50075095152715 122.80895486520603,72.0 137.89492002688348,75.00449771550484 135.87807976454496,101.6488091465726 134.8696596333757,105.970790663152 132.36877770815045,108.0 108.8524202501867,99.14520413675928 111.59532300685532,73.05421190935886 117.68618059903383,72.0 134.1032603336498,73.95029017524212 138.05626724800095,75.39982493408024 135.55538532254286,103.78345131973037 134.38561797048897,106.65597920992877 132.24776729242876,107.97364668807131 123.37367013841867,105.54913567716721 108.5297258081846,99.3296807500883 110.46589245996438,82.51565808049054" stroke="#4dd2ff" stroke-linecap="round" stroke-linejoin="round" stroke-width="0.5"><title>2020-08-07 7.1km</title></polyline><polyline fill="none" points="165.96975494618528,73.28389042854542 180.48665752867237,73.70311919323285 184.5369535528589,75.43243387626717 183.5745069726836,97.07452857811586 181.76991963526234,105.69440616614884 180.36635170620866,107.34500290709548 177.79982749256305,107.73800127280992 155.66355615132488,98.85615763437818 158.5909978323616,73.17908317872207 164.44588119420223,72.39302805616171 175.79473045072518,73.88653165960568 180.48665752867237,73.3362940447696 184.5369535528589,75.19661861413624 184.69736131629907,79.91290127465618 182.5719584519975,101.63338939734967 181.93032739846967,105.27520606681355 180.40645364671946,107.29260310012614 178.44145854585804,107.94760026634322 172.6667790657375,106.13980586046819 155.30263868370093,98.98715950312908 158.55089589161798,72.96946860864409 170.58147814217955,72.0 176.39625956327654,73.72932097830926 182.93287591962144,73.99133875084226 184.6572593753226,75.90406404415262 183.41409920947626,96.07890938597848 181.5293079901021,106.08740591828246 178.12064301921055,108.0 161.87935698078945,102.15739354165271 155.62345421034843,98.75135611285805 158.47069200966507,73.3362940447696 164.12506566755474,72.02620188053697 171.30331307719462,72.49783548238338 173.9901431130711,73.88653165960568" stroke="#4dd2ff" stroke-linecap="round" stroke-linejoin="round" stroke-width="0.5"><title>2020-08-09 5.6km</title></polyline><polyline fill="none" points="25.178742949152365,114.14526986397686 39.72191770840436,114.35960649873596 44.58018964086659,115.47454663630924 43.176515826489776,136.01555389509303 41.54057235177606,145.7436383186141 39.59554770775139,147.6189502235793 36.88312707352452,147.61572721638368 21.771982154110447,141.78410089071258 16.079080761643127,139.23290892093792 15.377155897440389,138.0068749189668 18.639627553522587,113.3362946123234 38.27924359799363,114.32730194207397 44.50797732360661,115.80716549433419 42.485037138918415,142.12921338438173 41.30392092000693,146.16338700489723 38.390142504591495,147.80419628776144 15.848645613063127,139.09582540023257 18.54607972758822,112.89069200051017 30.086318191839382,113.49191144292126 44.521288986550644,115.83651488125906 42.35557189374231,141.95101977940067 40.5678297271952,147.04683770393603 38.81770570925437,147.87884139551898 36.08308888529427,147.55576797027607 15.94398084632121,139.2540058103623 15.734426831128076,137.95598843088374 18.86082788510248,113.00162543240003 31.249110874487087,112.0 36.35433762636967,114.06479169314844 42.57761158212088,114.46809501037933 44.62284410279244,116.17437554136268 42.99780280725099,138.23673126334324 41.76876152586192,145.6046619923145 38.59342003474012,148.0 15.92980063939467,139.3937956763839 18.41065729735419,115.14633270923514" stroke="#4dd2ff" stroke-linecap="round" stroke-linejoin="round" stroke-width="0.5"><title>2020-08-14 7.2km</title></polyline><polyline fill="none" points="71.4870114820078,113.30574708548374 77.52314508310519,112.58625423669582 91.63464660965838,114.3983082199702 89.59541228506714,140.91213243451784 88.6165798092261,145.44198478350881 85.84322112752125,148.0 61.57633266435005,139.20676508289762 64.59439946478233,113.75876054327819 65.16538507584482,112.23983136587776 70.793671811698,112.0 87.6785320197232,113.57222564236145 91.7570006691385,114.79802508125431 88.94285730086267,144.37614105155808 87.84167076577432,146.74764010170475 85.92479050066322,147.8667703802348 71.07916461699642,143.31029493210372 61.57633266435005,139.04688658035593 64.59439946478233,114.05188666848699 65.04303101613186,112.31977512757294 66.83755722199567,112.02664793544682 85.55772832199,113.14585987990722 91.59386192308739,115.01120727014495 88.82050324138254,144.6426022083033 87.63774733315222,146.907516016945 85.39458957617171,147.97335407906212 74.50507828267291,143.9231567425595 71.24230336304754,143.5767566858558 61.861825469881296,139.02024015807547 64.51283009187318,114.34501261310652" stroke="#4dd2ff" stroke-linecap="round" stroke-linejoin="round" stroke-width="0.5"><title>2020-08-20 5.4km</title></polyline><polyline fill="none" points="118.99731838074513,112.82853832605178 131.63721102522686,113.25617044753744 138.263950858498,115.04687579459278 136.95496521238238,136.13393032256863 135.236921552103,145.96889188382193 133.60068949428387,147.67929929302773 131.43268201802857,148.0 108.56633901409805,138.7530431470077 111.63427412183955,112.32072468404658 117.19746311753988,112.0 137.93670444679447,114.59251835758914 137.15949421958067,135.41233548810123 135.19601575052366,146.20941829608637 133.35525468573906,147.7327494258643 130.98271820228547,147.8663747315295 108.44362160959281,138.96684764086967 111.67517992341891,112.02672706521116 137.97761024837382,114.59251835758914 136.70953040383756,135.92012455951772 134.78695773612708,147.17152273334796 131.71902262815274,147.94654989708215 117.27927472023293,143.13601612858474 108.60724481544457,138.8599454057985 108.52543321251869,135.83994737337343 111.83880312903784,112.05345412893803 137.97761024837382,114.72615294280695 135.31873315479606,146.42321944981813 131.84174003242515,148.0 108.40271580824628,139.1004754010355 111.79789732769132,112.40090582118137 118.42463716072962,112.0 137.8548928441014,114.40542987565277 138.10032765264623,121.1405690247193 135.8914143750444,144.17830255976878 134.41880552307703,147.17152273334796 131.43268201802857,147.7594744899834" stroke="#4dd2ff" stroke-linecap="round" stroke-linejoin="round" stroke-width="0.5"><title>2020-08-21 8.2km</title></polyline><polyline fill="none" points="164.69410637160763,112.89395611034706 184.49982946063392,114.78360952297226 182.97748520202003,133.6178590678901 185.1963134841062,135.69559188105632 182.5339736910537,138.15245011489606 181.21324290637858,145.91485228491365 178.21116781653836,148.0 154.87605728465132,139.2193224572984 158.21150259952992,112.36285488100839 163.38898827997036,112.0 182.44590895948932,114.20302424789406 184.51691131130792,115.6587417650444 182.70406926353462,137.04902516290895 181.55616742745042,144.82016270799795 180.12145385658368,147.2828805806057 176.65827317885123,147.71742292848649 163.91969543648884,142.89018706182833 155.04233180964366,139.37485170783475 154.80368651566096,137.44039814604912 157.68140495195985,112.36584103156929 183.90491530066356,114.81612477492308 184.36618552845903,119.54622827426647 181.38054772117175,145.55153447936755 177.99078146112151,147.8504787455604 155.192052325001,139.73889490793226 154.91116033867002,134.48549271715456" stroke="#4dd2ff" stroke-linecap="round" stroke-linejoin="round" stroke-width="0.5"><title>2020-08-27 5.1km</title></polyline><polyline fill="none" points="24.363464786903933,174.33825740913744 29.37457407801412,171.38078445071005 35.75634175189771,171.77168424168485 38.6577833336778,173.04355295194546 47.312902740901336,160.35202999043395 47.66279283678159,158.77099927590461 46.808525652159005,158.09839502544492 35.17466134717688,158.12809628766263 15.72720832307823,159.1075973295956 14.921554077183828,166.03866803567507 12.00411045877263,174.27295343909645 12.448671131627634,179.17645428021206 14.071671198355034,181.83119126723614 16.175456438679248,181.46207503482583 20.520198712591082,179.0997481177037 24.069458529818803,174.84511455972097 28.760463286424056,171.7904581199109 34.106709426036105,171.27025403670268 37.80280826520175,173.16180894058198 38.76706573320553,172.98906934674596 47.834959162632,159.58191445440752 47.40362610598095,158.43374107242562 45.79987006029114,158.04646297413274 15.86234991857782,159.1722518100578 15.227367498213425,160.11303354718257 14.958941851509735,165.91175554477377 12.559630072442815,172.8735638735816 12.0,177.0330230910331 14.018108035204932,181.95353702586726 19.268485600827262,180.0352580024628 26.414761340478435,172.89780594059266 29.05694291810505,171.61965344837517 34.558131178608164,171.31958311700146 38.712888040812686,173.06145047047175 48.0,158.87678385706386 47.24287692899816,158.12518335468485 41.784492486622185,158.0682446072169 15.425643852679059,159.09234810853377 15.241882083471864,164.92809181797202 12.752012245589867,172.1703984721389 12.029089834308252,176.95875559697743 13.413915066514164,181.103939586028 14.650487487670034,181.902114107972" stroke="#4dd2ff" stroke-linecap="round" stroke-linejoin="round" stroke-width="0.5"><title>2020-09-02 6.2km</title></polyline><polyline fill="none" points="71.21664383984171,174.43540645754547 75.94185801153071,171.39526460837806 80.85259905946441,171.17494074243587 84.26010715891607,172.96963099995628 85.85417676856741,172.74271011832752 94.26343267783523,158.80702787349583 92.40521220094524,157.9432859494991 88.12959472835064,157.92042785292142 62.29342956561595,158.9217683611787 61.37058941554278,167.0702423278126 58.66666666674428,176.4276010572794 59.57970993104391,180.26086503174156 60.88377074361779,181.97142096594325 66.97434385633096,179.6126238926954 71.88360555190593,173.73034538136562 74.28819319023751,172.23112833645428 80.40210283454508,171.26787706278265 85.51851873216219,172.97264800363337 94.61470243823715,159.19426496731467 93.80068156379275,158.31704762237496 89.63512131455354,157.7454276168719 76.74428397091106,158.98200905302656 67.14087990787812,158.61052886405378 61.82642930187285,159.33261290827068 61.7731322508771,165.64191792838392 58.6714692004025,175.22231463849312 59.59864792320877,180.56869902546168 61.04378078086302,182.19173633283935 66.09048983012326,180.1663071216608 72.1305916835554,173.40942187074688 75.53007537638769,171.4548144848959 79.82082369294949,171.2381911132543 85.45888153114356,173.0901596873009 94.58493342273869,158.92977345376858 93.20805855258368,158.18597012740793 87.72620946820825,157.97647110003163 62.0990367133636,159.16536771898973 61.45729498821311,166.52285341234528 58.704730621073395,175.79429506976157 59.41523598902859,179.71803970931796 61.125553510850295,182.09725846041692 66.23098172317259,180.00361558236182 72.11217631096952,173.66954427881865 76.50534900650382,171.38617896323558 80.88474822090939,171.44701987714507 85.60598656930961,173.1623262638168 94.66666666674428,159.12570955092087 93.79989151307382,158.2787065167795 88.92989516537637,158.05674546785303 62.30967796803452,159.1929696346342 61.613674976164475,166.03295035965857 58.9039682704024,174.23148809646955 59.10265449946746,178.5313265894656 60.87169433874078,182.254572383099 65.96862819022499,180.25723529502284 71.15052180620842,174.326459517295 75.82895856630057,171.68404238301446 79.99650270328857,171.11959877668414 84.5993923523929,173.04249193888973 85.65372499707155,172.85291730775498 94.30859955726191,159.6268548720691 94.01330376905389,158.53529644416994 92.52065027365461,158.16142028663307 62.25597316445783,159.2059935584839 61.82749369740486,166.07750178981223 58.84726734645665,174.81456722403527 59.52234324719757,180.0553777391615 61.02410219190642,182.11643405392533 67.26982991048135,179.33066378513467" stroke="#ffb200" stroke-linecap="round" stroke-linejoin="round" stroke-width="0.5"><title>2020-09-04 10.7km</title></polyline><polyline fill="none" points="117.53190075187013,174.6920053488575 121.5662179174833,171.89564922524733 125.499680172652,171.2926273793273 132.69893588428386,173.1021707796608 136.30387545377016,166.31425877442234 141.33333333325572,159.20948688639328 140.13269476243295,158.11604565253947 137.04972492344677,158.04481164267054 108.9662405604031,159.02134914466296 108.17129362747073,166.51997784720152 105.39266387140378,175.62057952117175 105.67675288300961,179.01696293996065 107.39742732676677,182.0768597846618 112.51749759120867,179.92021864451817 119.09047215734608,173.38858194014756 121.94872333365493,171.89155033353018 125.63121623476036,171.2249758808175 132.49867466418073,172.85366848864942 140.96462736092508,159.31139303324744 140.08373030391522,158.13587004461442 131.2472301251255,157.9231402153673 122.50180974695832,158.8041563765437 109.07185274665244,158.8600016561977 108.44819908379577,159.73041468582232 108.3972802401986,165.86205091065494 105.33333333325572,175.87180566805182 106.19271519687027,180.70443369218265 107.59780004783534,181.96959546001744 113.47390537918545,179.32528879286838 117.31284644757397,174.9837276263861 122.36591648473404,171.570760334871 126.71141230477951,171.1989468728716 131.02971707913093,172.94574431239744 132.5987108021509,172.68635474107577 140.7771425039973,158.7314393351844 139.9638898014091,158.152118431055 129.50867472868413,157.9963518549921 108.98779245465994,159.04970982595114 108.03579583298415,167.10799961772864 105.67688520718366,173.0948366658995 105.53936419729143,178.86061859171605" stroke="#4dd2ff" stroke-linecap="round" stroke-linejoin="round" stroke-width="0.5"><title>2020-09-05 6.1km</title></polyline><polyline fill="none" points="166.22377257142216,172.60954160033725 170.0864894541446,170.95147104887292 173.98442977759987,171.18829954200191 177.11709032417275,172.74191396019887 179.23210411774926,172.89473406606703 187.8747795240488,159.49232564936392 187.59123475663364,158.3944242616417 183.28499811980873,157.88733543621493 155.50588648719713,158.93976230113185 154.55368992267177,167.4177409374679 152.4232162083499,172.55143944214797 152.07306511863135,175.7620095552702 152.77882238524035,179.85041481032385 154.27637122850865,181.8603468547226 159.03859579144046,180.16982357480447 167.6301557419356,172.045575311 171.20954318065196,171.017539859924 178.8881121329032,172.87968318825006 187.80924597918056,159.3758965638408 187.07354794768617,158.14596003157203 182.74749932833947,157.83243833031156 155.7402170128189,158.95550076739164 154.77149092801847,166.85565949397278 152.09953853930347,173.86468897538725 152.82419200544246,180.0298960316286 154.50334420031868,182.00326219652197 160.81074877642095,178.7395826477732 165.718578935368,173.22859258257085 168.58829409838654,171.55609271509456 172.8543461295776,170.9894805897784 178.85437679383904,172.95061471263762 188.0,159.12869718615548 187.40978111466393,158.23555497694178 185.7690455869306,158.03118141990853 155.5064093065448,159.00913209666032 154.49473418225534,167.30062703441945 152.0605072900653,175.29943393880967 152.55423612357117,179.2551355624455 154.05544068687595,182.16756166965934 159.33741118502803,180.05945899477229 164.86605074862018,174.1276493027981 168.64655046840198,171.45161892825854 172.5045175200794,171.04980598189286 178.83730956166983,173.09287783529726 187.7802399599459,158.90483014952042 187.10686048981734,158.0436880289053 185.02357865613885,157.88974019122543 161.7699890153017,158.3736799165781 155.22363892546855,159.13149176482693 154.8846598553937,165.54985290078912 152.075009690132,175.04284189650207 152.74292845488526,179.89579302095808 154.1731082140468,181.9431626375299 160.10134468693286,179.53765547799412 167.93929279549047,172.00961720809573 171.1701320593711,171.17660334796528 174.31055618822575,171.49826815439155 178.79858846310526,173.29826425859937 187.92430658568628,159.2509129345708 187.4875366438646,158.32073604193283 185.9980685962364,157.9837781311944 165.74956370610744,158.17028862563893 155.65116280922666,158.9904096914397 154.85314471903257,166.7166420687281 152.71859184326604,171.77431222397718 152.0,176.3743933836522 152.96787605667487,180.6108951435599 154.406639827881,181.9952090176812 159.76981889316812,179.52762490685564 166.5218759814743,172.456994952081 169.52202352439053,171.15229495579842 174.3235743965488,171.33710669900756 179.08944419957697,173.15083854607656 187.23051087907515,160.4234603442892 187.5412460085936,158.3619336214324 155.7050302955322,158.91602909829817 154.7119953520596,166.71949527555262 152.18921501096338,173.53461219917517 152.4999791465234,179.34617280465318 154.03289496153593,181.92784596103593 158.08928122371435,180.65144352271454 166.2099778004922,172.93295822365326 168.48179664020427,171.6773527256155 172.5733536335174,171.013596689736 178.3914952140767,173.07452113341424 179.40438370523043,172.83550131181255 187.74353008018807,159.4919278031157 187.56414433335885,158.43042554685962 155.71667166799307,158.98844440374523 155.031294536544,166.2926363295992 152.05406859866343,173.92103769310052 152.30542528769,178.78898401214974 153.6901310570538,181.6535348323232 155.2183329127729,181.95462667191168 159.5006833425723,179.78641939163208 166.648279865738,173.130776330363" stroke="#ff7600" stroke-linecap="round" stroke-linejoin="round" stroke-width="0.5"><title>2020-09-06 15.2km</title></polyline><polyline fill="none" points="24.468648687470704,214.00306302428362 28.034125541802496,211.56828420440434 31.693795450031757,210.97491726337466 39.017262525856495,213.06823880210868 47.022056836634874,200.7632928485109 47.69652142981067,198.2609175464895 38.80863902322017,197.93278729455778 15.542496283305809,198.90976097798557 14.768954665400088,206.43257972583524 12.0,214.83112370947492 12.510735110146925,219.34759329410736 14.105393367120996,222.10255877659074 17.269847326679155,221.2035833359696 21.027026692405343,218.6363709087309 25.330376982456073,213.65879073893302 27.998815677361563,211.78821217088262 33.28425376256928,211.13395637413487 39.16982500907034,212.94106608469156 48.0,199.17420245707035 47.46845498285256,198.05388643412152 46.28506928193383,197.89744122340926 15.280703858938068,199.0507451244339 14.897623606724665,206.06788232701365 12.06569510884583,215.05757548793918 12.266429998213425,218.38826538517606 13.598541192011908,221.97413896597573 19.742954244837165,219.70208065587212 25.398249068763107,213.4533058065863 29.560516325058416,211.24572852856363 34.375177905661985,211.28520077065332 39.008443916682154,213.08893278692267 47.8645160603337,198.7888487794262 47.26930989464745,197.93412648810772 15.427329356083646,199.1420337446325 14.396858584834263,207.8297752973158 12.251410053810105,213.2575633696979 12.11403749207966,218.0137363843387" stroke="#4dd2ff" stroke-linecap="round" stroke-linejoin="round" stroke-width="0.5"><title>2020-09-08 6.1km</title></polyline><polyline fill="none" points="71.25816369755194,214.1682158674812 73.7400105879642,212.21471908583771 78.31544870394282,210.96953649341594 85.88670125021599,212.92856522864895 94.66666666674428,199.01670458287117 93.89698316622525,198.1954412254563 87.96826342400163,198.04625273591955 62.417133659357205,198.937406698853 61.71255190181546,200.48499622716918 61.60255385469645,206.1893945398624 59.50028741476126,211.30534663627623 58.725647169863805,215.7069130804739 59.23934182012454,219.57214026208385 60.61250116629526,221.92072692207876 67.0605458021164,219.14038290301687 71.60246284399182,213.8331222962006 76.1551772474777,211.24635770451277 79.41828596428968,211.16601762434584 85.6142137835268,212.92376835097093 94.62897102651186,199.34927865417558 93.74358274159022,198.1080027979042 92.10903262952343,198.0352834321966 62.138989941217005,198.9532910596463 61.270643637748435,207.23381516864174 58.66666666674428,214.7200370960636 59.19083662470803,219.25631154942675 60.963659239700064,221.98260270259925 66.4307356835343,219.55829090630868 71.57295534200966,214.06913767088554 75.98448166134767,211.47874394853716 79.41256041848101,211.0752885027905 85.56013078591786,212.96841204716475 94.31847556284629,198.72513319528662 93.46707935375161,198.03495924698655 62.12790479022078,198.98383550863946 61.772924597375095,205.17651292242226 59.518363433890045,211.41165286817704 58.80238137836568,216.6891128809657 59.65816086134873,220.37404642242473 61.218558526365086,221.91382093372522 65.90309710102156,219.89549882817664 71.39270223793574,214.1840380144713 76.79413856519386,211.24537570751272 86.01929525495507,212.89430370749324 94.4778967932798,199.09269955282798 93.82896251417696,198.16692765583866 90.55484730377793,197.9636392996763 61.983839962631464,199.23292554190266 61.3031202617567,207.11743198049953 58.78274108096957,215.1875487352081 59.41003381856717,219.72240371524822 61.01733580394648,222.03636070035282 66.41790790623054,219.51309699669946 71.79315596749075,213.66657988645602 75.99623549939133,210.9769422102254 81.48796328995377,211.35327603726182 85.51839195913635,212.92748009064235 94.58313610032201,199.04825858862023 93.39231461822055,197.97449237044202 62.07336498890072,199.27170495854807 61.33537232596427,207.17646122333826 58.854744034353644,214.945620947954 59.41113018314354,219.69700021660537" stroke="#ffb500" stroke-linecap="round" stroke-linejoin="round" stroke-width="0.5"><title>2020-09-09 10.5km</title></polyline><polyline fill="none" points="118.32885364885442,213.78846627965686 118.81564485002309,212.81649311474757 121.1598510411568,211.75416847591987 125.16890636482276,210.8995145901863 132.30756072490476,213.01550639045308 141.24317165021785,198.84804181958316 138.6659624071326,198.0471935896785 108.66444930247962,199.16609674112988 107.97660043369979,206.93265549567877 105.68891894305125,213.161167572689 105.33333333325572,217.41735410646652 106.99111375701614,221.61656948071322 107.99209421989508,221.97914630244486 113.65219140751287,219.1743105482019 117.51342097017914,215.52244310770766 118.72178419400007,213.36988253419986 121.0808907027822,211.88589440088253 123.69545939844102,211.14809431837057 127.85368879535235,211.26498906020424 132.21807829570025,213.32964592654025 141.072705949191,199.296385536436 140.88668526313268,198.26486327470047 139.35082314279862,198.02085369752604 109.17404275923036,198.95176299105515 107.76357227913104,207.98251720590633 105.41118860756978,214.22398965762113 105.99366711336188,219.76377438669442 107.16899852314964,221.71764038078254 109.71782955736853,221.45745032670675 112.96309486916289,219.60038931071176 119.45434624119662,212.9916996715474 122.23166059702635,211.38401680573588 127.82720152009279,211.2578526196594 132.18050822871737,213.40659462678013 141.33333333325572,198.85652446959284 139.933100694092,198.04791119150468 125.59886527620256,198.6404413973214" stroke="#4dd2ff" stroke-linecap="round" stroke-linejoin="round" stroke-width="0.5"><title>2020-09-10 5.4km</title></polyline><polyline fill="none" points="164.53149600350298,214.76019838522188 168.3911054925993,211.97391975446953 170.78477249271236,211.14928944094572 173.67515794676729,211.17583506423398 179.16890206630342,212.93334687079187 185.81206963094883,203.13305319528445 188.0,198.66498430180945 181.05361300334334,197.99550873215776 155.37250171415508,199.15513989597093 154.76270291907713,207.5785637749068 152.0420533097349,215.53116885598865 152.58744817087427,219.35267728377949 154.1705981933046,222.11254313820973 159.8369475302752,219.61225023664883 165.58942671888508,213.68246600290877 168.73932722443715,211.80339569714852 173.2294522060547,210.9882726567448 179.20278944261372,213.24005766375922 187.95183437666856,199.5037729354517 187.34257028414868,197.97235389545676 179.57594032795168,197.7889750780305 166.71201723022386,198.63409259353648 163.0647862884216,198.13531062443508 155.15825546276756,199.36048066828516 155.2412676399108,205.23279945194372 152.0,215.51805598655483 152.94904760899954,220.43439397850307 154.32232565176673,222.2110249219404 159.5070962330792,219.8303679812525 165.42411351483315,213.71677017892944 169.95204674173146,211.26949210671592 174.9920137131121,211.25150609534467 179.326074966928,212.86852564453147 187.92749090190046,198.85524064322817 187.25046144635417,198.07854950378533 178.14262538892217,197.8796906377247 155.55078345537186,199.13494666063343 155.07782604941167,206.40383604133967 152.2422397218179,214.54273753537564 152.60839387518354,219.4735179427662 154.4470578704495,222.06407361084712 157.59952555620112,220.95420924943755 161.23469775123522,218.38354214810533" stroke="#4dd2ff" stroke-linecap="round" stroke-linejoin="round" stroke-width="0.5"><title>2020-09-13 6.4km</title></polyline><polyline fill="none" points="24.40585530572571,254.68895728318603 28.07853697729297,252.12774215868558 30.959998289123178,251.23421147526824 34.58855096111074,251.43270855009905 39.19518042472191,253.01431879936717 48.0,238.89398747190717 47.15539286285639,238.1714438093477 39.59502547583543,238.0462282183871 15.678616819903255,238.94914158101892 15.065718803787604,239.72034946005442 15.063184947008267,244.8692551269487 12.0,255.20947195022018 12.800112404394895,260.08598996463115 14.487354676937684,262.0092536865559 18.655749482568353,260.38297960409545 24.3763878417667,254.6203545134049 29.064702262403443,251.72348189275363 33.04329636669718,251.09292438731063 37.88360756216571,252.97201597786625 39.06874598306604,252.76689726728364 47.82217770232819,239.16814253057237 46.702096327673644,238.0502057436388 37.86734928563237,238.00263403099962 15.433300675125793,239.25430253442028 14.90702596725896,245.92296328858356 12.337847136193886,253.244616571581 12.015627099201083,256.6278332765505 12.71757001359947,260.0287725527887 13.478123462758958,261.58862590196077 14.477467025397345,261.839607828937 19.09823680552654,259.95760829391656 23.277155347401276,256.28802647604607 24.397882463410497,254.36420534702484 30.62577980500646,250.96708756955923 34.043300457531586,251.1343130962632 38.041075957007706,252.9994642540114 39.13499404489994,252.77845555433305 47.79002765961923,239.44424587726826 46.64341825386509,237.9271215965273 15.87358052143827,238.89204899521428 15.144694967428222,239.7268313819368 14.763999630697072,246.35164417600026 12.072448804043233,255.10849930119002 12.681995633756742,260.00912942309515 14.061254244064912,262.0728784034727" stroke="#4dd2ff" stroke-linecap="round" stroke-linejoin="round" stroke-width="0.5"><title>2020-09-15 6.2km</title></polyline><polyline fill="none" points="70.99923867429607,254.36101216558018 76.44031524588354,251.07825608437997 81.94377697608434,251.3360944284941 85.6995941575151,252.73244299323414 94.31986996508203,238.0948525747226 62.24948652135208,238.85459358189837 61.8041065747384,245.54628589280765 59.39640679722652,251.62903396593174 58.731983077013865,256.014343673829 59.25461078854278,258.7549069413508 60.86557034100406,261.58873553716694 65.76764647383243,259.81796369093354 72.4530573436059,252.82254407848814 76.40555322635919,250.7986400606169 79.75503879133612,250.7810225332214 85.90307578584179,252.4678459194256 94.65692788967863,238.65840993548045 93.9175722876098,237.69898766159895 62.320987401064485,238.6322822860675 61.73621422355063,245.5107674038154 58.66666666674428,254.96701231479528 59.07152050547302,258.18429916483 60.79537564958446,261.6226335304382 65.4302158516366,259.9822164174111 71.59504990512505,253.72273294752813 75.96897133649327,250.86570081018726 81.7388562222477,251.23672194272513 85.95743408449925,252.75665104595828 94.48876868211664,238.85703679153812 94.07102850079536,237.8031164823915 91.84366256999783,237.68970054684905 62.27705101389438,238.79051122971578 61.658973002573475,245.589612237236 58.920649375766516,254.27468217044952 59.174650150118396,258.02311986120185 60.60034562810324,261.5625635298784 66.5283447462134,259.20788813065155 71.34987517003901,253.9544000463502 76.0282228961587,250.97397530460148 81.62892563361675,251.1462439780007 85.71686227153987,252.76648328147712 94.34227802581154,238.78465018956922 93.75505326641724,237.7673310841201 92.61607185867615,237.74531969829695 62.324709448963404,238.71595502115088 61.71529797883704,245.14325859613018 58.790467102779076,254.7385077238141 59.43846675334498,259.3136546193855 61.050867202924564,261.5519102293474 66.23048262251541,259.2168630026281 70.85361384809949,255.22645063369418 71.96645441325381,253.40037448250223 76.12345701921731,250.93875929809292 79.57184689771384,250.62244820967317 85.46900987927802,252.7030697754235 94.59880155720748,238.9437937582843 94.2307164305821,238.01466350912233 92.71304996334948,237.59627127056592 62.22421837411821,238.75726073005353 61.60108933597803,246.13127540409914 58.79485054151155,255.90879365446744 60.58682423457503,261.62350819067797 67.11457641003653,258.85793497765553 72.05427259905264,253.25880924079684 75.87128345249221,251.03646165918326 79.77458887011744,250.86281649791636 85.57280474505387,252.59105905535398 94.66666666674428,238.63533979732892 93.56099180341698,237.67811011962476 62.3480417188257,238.64302558163763 61.7331121051684,246.08350993919885 59.68017816590145,251.26902593087289 58.850424845237285,255.84602387063205 59.75510062742978,260.12679791639675 61.37425199220888,261.603589522565 66.8436836199835,259.03206334344577 71.05869275820442,254.20945481216768 75.17379575641826,251.42846396536333 79.54696954204701,250.56533140785177 85.86384949763305,252.63076453714166 94.26004748488776,239.1370841244643 93.85094269062392,237.74345887522213 90.64706380479038,237.66674096809584 62.251388027798384,238.91162240650738 61.78355278936215,245.16940439294558 59.034480419475585,254.15008040494286 59.217463445151225,257.88473332865397 60.50842525227927,261.49640169058694 63.69326144969091,260.8226702963875 66.47759485640563,259.1918560813647 73.36437840084545,252.42296868484118 76.10087409149855,250.9243596230226 79.49017621041276,250.88638942028047 85.71280969120562,252.69885960692773 94.63244440313429,238.6295419599919 93.83153308415785,237.7854632115923 89.13663791236468,237.67705527626094 62.67719525215216,238.44137827047962 61.97873878851533,239.18279805942439 61.510452297050506,246.1671183158178 58.86685868375935,254.05713851065957 59.19065338699147,258.7424845978967 60.14184562675655,261.26715665502707 61.231352388393134,261.43148606744944 67.08760608453304,258.7784259618493 71.61139272688888,253.68838094812236 76.06696668360382,250.6192407324561 80.25654672156088,250.63013446112745 84.30901470500976,252.3421493784408 85.96122052147985,252.1899353763729 94.59618572867475,238.66604046049179 93.40695400396362,237.6433915522939 62.39823915553279,238.53837759187445 61.593996699666604,246.30860360967927 58.860237153247,255.21368092496414 59.41794289671816,259.43979735524044 61.15613126545213,261.2802925853466 65.17924467404373,260.2275243314507 72.42157841380686,252.861340265139 75.69524399423972,251.03579997559427 79.38707698276266,250.4673751385999 84.27775953663513,252.41621112357825 85.88825020729564,252.2733871290693 94.56725207041018,238.76677416672464 93.57199124991894,237.62497355864616 62.17078378750011,238.70540292482474 61.45275636110455,246.74682343311724 58.87090899818577,254.76587874346296 59.13744475529529,258.02455103446846 60.464860423933715,261.4007460018038 63.56288564042188,260.65483997768024 68.24918698496185,257.71269075619057 70.95324724563397,253.9995541855169 76.07867674273439,250.72146050003357 79.21031225356273,250.5621000242536 85.71446436690167,252.72048406946124 94.66131794569083,238.35384517675266 93.34848798369057,237.63812865669024 62.22130535496399,238.9017320049461 61.6519891761709,245.71062151380465 58.897570500848815,256.0310804108158 59.70894265244715,259.7340812449984 61.334384529618546,262.4037287294632 66.8194310751278,260.24906658474356 72.39780258596875,254.39750017219922 75.31324354466051,252.8652557633759" stroke="red" stroke-linecap="round" stroke-linejoin="round" stroke-width="0.5"><title>2020-09-16 24.0km</title></polyline><polyline fill="none" points="118.69307207595557,253.9347917753039 121.52355128666386,251.79971838515485 125.15760376281105,251.18303457810543 129.31619012681767,251.93679573189002 132.14988897112198,253.35128585243365 141.33333333325572,239.1378979778383 139.48725686431862,238.07607677651686 131.90067101013847,237.99912202966516 108.91118463128805,238.96980456617894 108.53845961205661,245.5623840399494 106.32488094060682,251.16059136920376 105.33333333325572,256.65004802972544 106.75464546959847,261.472460879595 108.25780079932883,262.0688359372725 114.0915434518829,258.9134457189939 117.60656440840103,254.74631701549515 121.94562592008151,251.64732747536618 126.89146625227295,251.2652239885938 132.13545594294555,253.25029662862653 141.2757820370607,239.3096466290881 140.1984050865285,238.15034655516502 135.38338642334566,237.93116406275658 108.88436273299158,239.1741679593979 108.60965876514092,245.6322282803303 105.5184987212997,255.45201702817576 106.39931486616842,260.34656985101174 107.81991805206053,262.03709269408137 112.98349128384143,259.5238692887651 116.42949637700804,256.7307028086507 118.08509844145738,254.34497201433987 121.89831702061929,251.72039574757218 125.45213937480003,251.18331494618906 132.48602782632224,252.8815017771558 141.27543304720894,238.9873076369695 140.63436307921074,238.21421376918443 138.54225110355765,237.96219771640608 109.18222477287054,239.10250034576165 108.38442697632127,247.01139423562563 105.56860517570749,255.42294876393862 106.2267325783614,259.7672968946863 107.97065239050426,262.00968140293844" stroke="#4dd2ff" stroke-linecap="round" stroke-linejoin="round" stroke-width="0.5"><title>2020-09-18 6.3km</title></polyline><polyline fill="none" points="164.82511136005633,254.26690426579444 168.56256804731674,251.81654376210645 171.74207539763302,251.21333447672077 179.04944646451622,253.1513921826845 187.85522522963583,239.71902572538238 187.72779343649745,238.71334817109164 186.94491355167702,237.92549905841588 156.04459892143495,239.01592513627838 155.0526888249442,246.37760467160842 152.46086039254442,252.71260348553187 152.0273537344765,256.6215502024861 154.15300612617284,262.00955571676604 156.3071569101885,261.6684632128454 159.5556104381103,259.77482016259455 164.5029247996863,254.7128162762965 168.6703167918604,251.96684515828383 172.95715319598094,251.22271122975508 179.01872623129748,253.13956988690188 188.0,238.73508120537736 187.08434080402367,238.0925906773191 183.93669025204144,238.05171834127395 155.76610433054157,238.88131953877746 155.02609335258603,246.03250452826614 152.0,255.12563418704667 152.7051739313174,259.5199625924579 154.52007699850947,262.0745009416132 159.55824907356873,259.7639513926115 164.5933162206784,254.57020872773137 168.78285215958022,251.8466403450293 172.03566952398978,251.3388196064334 179.03480881871656,252.95853062570677 187.9068403900601,239.21189001764287 187.52446119650267,238.243960468797 185.84238659124821,238.04921310360078 155.91732235904783,238.9532825544593 155.21218468877487,239.66085214319173 155.28368185600266,244.67845865769777 152.64522908302024,252.7671739521611 152.25121806468815,257.2007765447488" stroke="#4dd2ff" stroke-linecap="round" stroke-linejoin="round" stroke-width="0.5"><title>2020-09-20 6.1km</title></polyline></svg>