<svg xmlns="http://www.w3.org/2000/svg" xmlns:ev="http://www.w3.org/2001/xml-events" xmlns:xlink="http://www.w3.org/1999/xlink" width="200mm" height="300mm" baseProfile="full" version="1.1" viewBox="0 0 200 300"><rect width="200" height="300" x="0" y="0" fill="#222"/><text style="font-size:12px;font-family:Arial;font-weight:700" x="10" y="20" fill="#FFF">Over 5km Runs</text><text style="font-size:4px;font-family:Arial" x="10" y="280" fill="#FFF">ATHLETE</text><text style="font-size:9px;font-family:Arial" x="10" y="290" fill="#FFF">DuanFei</text><text style="font-size:4px;font-family:Arial" x="120" y="280" fill="#FFF">STATISTICS</text><text style="font-size:3px;font-family:Arial" x="120" y="285" fill="#FFF">Number: 14</text><text style="font-size:3px;font-family:Arial" x="120" y="290" fill="#FFF">Weekly: 1.2</text><text style="font-size:3px;font-family:Arial" x="141" y="285" fill="#FFF">Total: 233.3 km</text><text style="font-size:3px;font-family:Arial" x="141" y="290" fill="#FFF">Avg: 16.7 km</text><text style="font-size:3px;font-family:Arial" x="167" y="285" fill="#FFF">Min: 10.5 km</text><text style="font-size:3px;font-family:Arial" x="167" y="290" fill="#FFF">Max: 29.1 km</text><polyline fill="none" stroke="#4dd2ff" stroke-linecap="round" stroke-linejoin="round" stroke-width=".5" points="29.202 34.18 30.069 33.856 34.279 34.018 37.374 34.665 39.293 34.746 44.184 34.099 46.165 34.503 48.146 35.312 49.075 35.474 50.561 36.283 51.118 36.445 51.242 36.769 51.366 37.74 51.242 39.358 51.304 40.895 50.932 45.668 50.313 48.742 50.251 50.926 50.128 51.816 50.128 53.353 49.88 54.081 49.694 56.67 49.509 57.479 49.57 60.958 49.385 62.171 49.385 62.98 48.951 64.922 48.704 65.488 48.889 66.054 49.013 67.349 48.704 68.643 48.332 71.474 47.775 72.688 46.784 74.063 45.732 74.872 45.299 75.034 43.937 75.196 39.046 73.497 38.488 73.416 38.179 73.578 37.869 73.578 36.136 72.93 35.393 72.769 32.236 71.393 30.997 70.584 26.973 69.614 24.992 68.562 19.606 66.54 17.068 65.488 16.758 65.245 17.068 62.495 17.129 60.796 17.687 55.214 17.934 54.405 18.12 52.302 18.43 50.522 19.111 45.668 19.73 39.843 20.039 38.063 20.349 34.665 20.72 33.614 20.968 33.371 21.711 33.29 25.364 33.371 26.664 33.128 28.892 33.29 30.75 33.128 33.35 33.371 35.579 33.856 37.931 34.018 40.036 34.746 40.903 34.908 42.141 34.908 43.132 34.665 45.918 34.827 48.58 35.474 49.199 36.041 51.242 36.607 51.49 36.85 51.304 40.733 51.118 42.513 51.118 43.807 50.499 46.719 50.375 47.69 50.561 48.337 50.809 48.58 50.871 49.389 50.561 51.088 50.375 53.272 50.437 54.486 49.942 58.126 50.004 61.039 49.88 62.414 49.323 64.841 48.889 67.915 48.456 69.047 48.208 69.937 48.27 70.827 48.146 71.798 47.899 72.607 47.465 73.335 46.599 74.225 45.67 74.872 44.803 75.196 43.503 75.115 42.327 74.71 41.089 74.629 37.374 73.335 35.207 72.769 34.093 72.283 32.978 71.717 32.174 71.474 30.564 70.423 28.521 70.099 27.283 69.695 25.797 68.886 24.063 68.481 16.882 65.326 16.696 65.083 17.129 61.848 17.253 58.531 17.934 54.648 18.058 52.14 18.491 50.036 18.615 47.286 18.925 45.91 19.42 41.704 19.977 38.629 20.473 34.099 20.844 33.452 21.277 33.29 25.364 32.885 27.654 33.128 29.016 33.371 30.75 33.047 33.04 33.128 35.764 33.614 37.931 33.694 39.231 34.18 40.284 34.746 42.203 35.151 43.565 35.07 45.794 35.232 47.527 35.717 48.704 35.879 51.18 36.688 51.304 37.497 51.118 39.438 51.118 40.814 50.994 42.108 51.056 42.594 50.871 43.403 50.561 45.991 50.623 47.852 50.932 48.58 50.685 49.875 50.313 54.809 50.004 57.56 50.004 61.2 49.942 62.09 49.509 63.87 49.075 65.407 49.075 66.297 48.889 66.782 48.827 68.077 48.394 69.856 48.332 70.827 48.146 71.717 47.404 73.173 46.537 74.063 45.546 74.791 44.37 75.115 42.389 74.791 41.336 74.872 40.16 74.306 36.384 73.173 33.659 71.879 32.917 71.636 31.74 71.07 27.53 69.614 25.549 68.724 23.94 68.319 21.587 67.106 17.006 65.407 16.82 65.083 17.253 60.634 17.315 59.421 17.625 57.317 17.625 56.508 18.182 53.596 19.296 43.726 19.606 42.108 19.606 40.814 20.225 37.497 20.287 35.717 20.596 34.18 20.968 33.533 21.711 33.371 22.887 33.371 23.754 33.209 25.983 33.128 28.459 33.533 29.635 33.533 33.536 32.966 36.755 33.371 38.365 33.856 38.86 33.856 39.603 34.261 40.408 34.423 41.646 34.503 43.441 34.423 45.732 34.665 48.456 35.474 49.509 36.121 51.056 36.364 51.366 36.607 51.428 37.416 51.118 40.247 51.056 43.403 50.685 44.697 50.499 46.962 50.499 47.771 50.871 48.418 50.623 50.036 50.375 55.133 50.066 57.398 49.694 58.369 48.951 63.87 48.518 65.488 48.766 67.349 48.827 68.724 48.704 71.07 48.456 72.283 47.713 73.416 47.156 74.063 46.227 74.872 45.113 75.438 44.246 75.6 43.441 75.519 42.327 75.034 41.46 74.953 40.779 74.71 37.56 73.092 35.207 72.445 30.378 70.018 29.016 69.856 27.283 69.209 21.835 66.944 18.677 65.812 17.068 65.083 16.696 64.76 16.572 64.355 16.51 63.466 17.191 62.009 17.191 60.068 17.439 59.016 17.501 57.803 18.306 52.382 18.553 49.794 19.049 46.396 19.544 41.704 19.915 40.167 19.977 38.953 20.473 34.503 20.782 33.856 21.277 33.452 21.649 33.371 24.187 33.209 26.787 32.481 28.459 32.885 30.316 32.885 33.659 32.4 35.393 32.643 36.26 33.047 37.931 33.533 40.532 34.584 41.832 34.746 43.689 34.503 45.732 34.503 46.908 34.827 47.775 35.312 48.642 35.474 51.304 36.364 51.49 36.769 51.49 37.173 51.304 41.623 50.932 43.726 50.685 44.535 50.437 47.124 50.499 47.852 50.809 48.418 50.809 48.823 50.313 53.434 50.313 54.648 50.128 55.942 50.128 60.068 49.88 61.848 49.323 63.466 49.013 65.731 48.642 66.863 48.58 68.077 48.208 71.474 47.961 72.283 47.465 73.335 46.537 74.225 45.794 74.791 44.618 75.196 42.76 75.196 39.293 73.982 38.117 73.416 34.712 72.364 33.659 71.717 32.545 71.151 31.555 70.504 30.688 70.099 29.45 69.937 28.335 69.533 21.401 66.701 19.792 66.216 19.049 65.731 17.068 65.083 16.82 64.841 17.068 63.627 17.068 62.899 17.377 60.634 17.315 59.825 17.439 59.097 17.315 57.803 17.439 56.913 17.81 55.78 18.244 53.677 18.43 51.573 18.801 49.875 18.801 48.58 19.234 45.587 19.358 43.322 20.163 38.225 20.535 34.423 20.906 33.775 21.525 33.371 24.373 33.128 26.973 32.562 28.211 32.966 28.892 33.371 30.502 33.614 31.802 33.694 33.536 33.452 37.746 33.937 40.16 34.746 41.77 34.908 43.503 34.908 46.97 35.07 48.27 35.474 49.756 36.202 51.304 36.688 51.428 37.011 51.49 38.387 50.809 44.292 50.747 45.91 50.375 47.771 50.251 49.794 50.066 50.926 49.942 54.162 49.447 57.884 49.509 59.097 49.075 61.767 49.013 62.818 49.323 63.87 49.137 65.003 49.137 65.812 49.137 66.216 48.704 67.349 48.704 67.996 48.27 69.047 48.085 71.717 47.527 73.254 46.784 73.982 45.608 74.872 45.237 75.034 44.432 75.196 43.627 75.196 41.151 74.872 37.869 73.335 35.083 72.445 33.783 71.555 32.359 70.827 29.202 70.018 28.211 69.452 25.116 68.562 20.411 66.54 19.606 66.378 16.758 65.245 17.068 63.708 17.129 62.171 17.377 60.634 17.81 54.89 18.058 54.081 18.182 52.463 18.615 49.389 18.615 48.014 19.173 45.91 19.234 45.182 19.234 43.564 19.358 42.351 19.544 41.542 19.606 40.409 20.225 37.254 20.225 36.202 20.535 34.746 20.535 34.018 20.844 33.694 21.216 33.694"><title>2020-07-31 11.0km</title></polyline><polyline fill="none" stroke="#4dd2ff" stroke-linecap="round" stroke-linejoin="round" stroke-width=".5" points="93.452 59.321 94.576 58.366 96.188 57.41 96.628 56.836 97.801 56.199 99.12 55.689 99.756 55.689 103.079 55.307 105.033 55.434 109.138 57.537 110.409 57.601 111.044 57.282 112.364 54.924 113.488 53.331 114.416 51.547 114.954 51.228 115.052 50.591 116.664 48.488 117.3 47.404 118.277 46.257 121.356 41.095 121.111 40.585 120.085 39.821 118.912 39.502 116.909 39.757 114.465 39.693 113.781 39.502 113.097 39.757 112.559 39.566 110.067 39.757 109.383 39.566 108.845 39.821 108.21 39.884 107.624 39.757 105.669 39.884 104.056 39.693 103.47 39.948 102.883 39.757 101.613 40.139 98.925 39.821 98.387 40.139 95.846 40.394 95.162 40.267 93.11 40.458 91.79 40.33 90.324 40.394 89.2 40.267 88.711 40.649 87.441 40.649 86.072 40.394 85.388 40.585 84.118 40.394 83.433 40.458 82.749 40.713 82.358 41.159 82.456 41.796 82.212 43.198 82.358 46.448 82.163 47.022 81.674 50.463 80.99 51.61 80.697 52.949 80.306 54.16 79.866 54.733 78.791 58.302 78.547 59.64 78.595 61.042 78.4 61.743 78.595 62.38 79.084 64.993 79.817 66.905 80.599 68.052 81.088 68.371 82.456 68.052 84.9 67.16 86.61 66.204 87.245 66.076 88.369 65.503 89.542 63.91 90.862 62.508 91.155 61.807 91.741 61.552 92.865 60.022 94.282 58.493 94.771 58.047 96.042 57.473 96.579 56.964 97.166 56.645 97.801 56.645 98.29 56.39 98.974 56.326 100.782 55.625 101.417 55.498 102.004 55.753 102.59 55.498 103.274 55.434 103.812 55.562 104.496 55.498 105.669 55.816 107.575 56.517 109.334 57.537 110.653 57.537 111.093 57.091 111.777 56.071 113.048 53.586 114.612 51.61 114.954 50.973 115.394 50.463 117.69 47.022 118.961 44.855 119.792 43.772 120.769 41.987 121.551 41.032 120.574 39.948 119.938 39.821 116.176 39.629 115.589 39.311 114.123 39.566 112.755 39.629 112.022 39.502 111.435 39.693 109.969 39.566 108.65 39.821 105.962 39.884 105.376 40.139 104.643 40.076 103.372 40.33 102.737 40.267 101.417 40.394 100.098 40.777 99.56 40.522 97.019 40.33 93.598 40.713 92.963 40.777 92.376 40.522 91.643 40.522 90.471 40.777 88.565 40.33 87.881 40.522 87.294 40.84 86.121 40.777 85.437 41.032 82.749 40.904 82.212 41.223 82.261 42.625 82.065 44.537 82.212 46.703 82.163 48.743 81.674 50.591 80.697 53.204 79.866 55.115 79.719 55.88 79.084 57.027 78.547 59.067 78.4 60.277 78.742 62.89 79.329 65.949 79.524 66.65 80.55 68.498 81.283 68.625 83.58 67.797 84.9 67.542 87.343 66.204 89.689 63.91 90.764 63.209 91.888 61.743 92.132 61.106 93.94 59.258 94.576 58.111 95.162 57.919 96.188 57.155 96.579 56.645 98.632 55.753 102.395 55.37 105.082 55.689 106.402 56.199 106.988 56.581 108.21 56.964 109.383 57.665 109.969 57.792 110.556 57.728 111.044 57.346 111.386 56.709 111.777 56.263 112.413 55.179 112.608 54.606 114.123 52.566 114.367 51.929 115.638 50.208 115.833 49.699 116.713 48.615 117.3 47.468 120.818 42.37 121.356 41.35 121.502 40.713 120.574 39.948 119.841 39.821 117.153 39.821 115.198 39.629 113.732 39.884 113.292 39.566 111.924 39.757 109.823 39.821 109.285 40.076 107.966 39.821 107.33 39.884 105.962 39.757 104.789 40.076 102.786 40.203 100.098 40.649 97.996 40.458 97.312 40.267 93.891 40.649 92.474 40.394 91.008 40.522 90.275 40.33 89.591 40.33 85.73 40.777 83.14 40.713 82.554 40.968 82.212 41.669 82.456 43.836 82.407 45.11 82.016 47.851 81.772 48.488 81.625 50.4 80.892 52.248 80.55 52.694 80.55 53.331 79.866 54.542 79.817 55.115 79.182 56.964 79.084 57.665 78.742 58.238 78.449 60.915 78.938 64.42 79.329 65.63 80.306 67.988 80.746 68.498 82.7 68.307 83.776 67.733 84.46 67.733 87.49 66.013 90.031 63.782 90.764 62.763 91.252 62.317 91.546 61.743 92.034 61.361 92.719 60.277 94.527 58.366 96.726 56.836 97.41 56.645 99.805 55.625 103.225 55.498 105.082 55.753 107.086 56.39 109.334 57.665 110.067 57.856 110.751 57.792 111.24 57.473 111.435 56.9 112.755 54.606 113.537 53.522 114.416 51.738 114.954 51.292 115.638 49.954 117.348 47.851 117.886 46.512 121.6 40.968 120.574 39.948 119.205 39.884 118.619 39.757 116.127 39.821 114.71 39.629 112.071 40.012 110.751 39.884 108.845 40.139 107.575 40.076 106.206 40.267 104.887 40.139 103.616 40.394 100.831 40.458 98.827 40.777 98.241 40.458 96.824 40.458 96.237 40.585 94.136 40.33 90.617 40.777 90.031 40.522 89.249 40.522 85.388 41.159 82.798 41.032 82.358 41.478 82.163 42.816 82.456 44.664 82.261 45.301 81.967 49.253 80.843 52.885 79.182 56.454 78.693 59.067 78.693 62.89 78.938 64.228 79.28 65.439 80.306 67.797 80.599 68.307 81.039 68.689 82.31 68.371 84.069 67.733 84.606 67.351 85.926 66.969 87.196 66.331 89.982 63.782 90.275 63.209 90.813 62.763 92.034 61.106 92.621 60.851 93.061 60.341 93.403 59.194 94.429 58.493 94.869 57.983 96.628 57.027 97.263 56.9 99.023 56.008 99.658 56.135 100.733 55.562 104.007 55.307 105.913 55.689 106.451 56.135 107.184 56.263 109.529 57.665 110.8 57.41 112.51 54.797 112.999 54.478 113.83 52.758 114.905 50.973 116.127 49.444 117.69 47.086 117.837 46.448 119.108 44.919 121.209 41.541 121.16 40.904 120.818 40.203 120.281 39.884 119.059 39.757 115.931 40.012 115.345 39.884 114.661 40.076 113.39 39.884 112.804 40.076 112.168 40.012 111.631 39.693 111.044 39.884 109.676 39.821 109.041 39.948 105.718 40.012 104.398 40.267 103.714 40.203 103.079 40.33 101.759 40.33 99.805 40.458 99.12 40.585 97.263 40.394 96.481 40.585 95.846 40.458 93.158 40.713 91.79 40.522 91.155 40.777 90.568 40.777 89.298 40.522 86.561 40.968 85.29 40.713 83.287 40.777 82.7 41.032 82.505 41.541 82.456 44.154 82.603 45.365 82.358 46.831 82.212 49.316 81.821 49.89 81.088 52.248 80.746 52.821 80.648 53.459 80.257 54.032 80.11 55.243 79.475 56.454 78.644 59.768 78.547 61.616 78.742 63.081 79.426 65.439 79.426 66.076 80.208 67.733 80.599 68.307 81.234 68.562 81.821 68.307 83.091 68.052 83.58 67.67 84.802 67.223 85.29 66.841 86.61 66.395 88.125 65.312 88.76 65.184"><title>2020-09-04 10.7km</title></polyline><polyline fill="none" stroke="#4dd2ff" stroke-linecap="round" stroke-linejoin="round" stroke-width=".5" points="161.494 57.162 162.18 57.034 163.306 56.332 163.894 56.268 165.51 55.31 166.098 55.182 170.8 55.437 172.857 56.14 174.571 57.29 175.845 57.673 177.069 57.481 178.784 54.607 178.98 53.968 179.518 53.393 182.359 48.731 183.241 47.709 187.453 41.449 187.551 40.683 187.11 40.108 186.571 39.661 185.984 39.597 181.918 39.533 180.694 39.789 176.727 39.725 175.355 40.108 174.718 39.916 174.131 40.044 172.906 39.789 170.947 40.236 169.673 39.98 166.49 40.172 163.257 40.108 161.396 40.427 158.016 40.172 155.91 40.491 155.273 40.363 154.686 40.683 153.412 40.747 152.824 40.555 151.453 40.491 148.661 40.747 148.269 41.449 148.122 42.791 148.318 45.537 147.486 50.902 147.339 51.541 146.604 52.563 144.939 57.098 144.547 60.93 144.547 62.783 145.38 65.848 146.604 68.084 147.192 68.212 149.2 67.892 152.286 66.615 152.873 66.232 155.469 63.996 156.057 63.677 157.722 61.697 158.8 60.866 159.241 60.483 159.241 59.844 159.535 59.334 160.122 58.95 160.514 58.375 162.033 57.098 163.159 56.459 165.216 56.012 167.469 55.246 171.192 55.629 173.102 56.204 175.551 57.673 176.678 57.481 178.245 55.501 180.547 51.541 183.339 47.262 184.22 46.176 184.661 45.026 185.2 44.643 187.355 41.258 187.012 40.108 186.473 39.789 181.282 39.405 177.412 39.916 175.502 39.789 171.339 40.172 166.784 40.108 164.922 40.427 161.102 40.299 157.184 40.363 153.167 40.747 150.865 40.555 148.955 40.81 148.465 41.13 148.269 41.769 148.22 47.709 147.78 50.264 144.547 58.631 144.596 62.783 145.429 66.04 146.359 67.828 146.8 68.275 147.437 68.403 149.298 67.892 150.424 67.317 150.963 66.934 152.824 66.104 155.029 64.507 157.135 62.016 158.653 60.866 159.094 60.355 159.584 59.142 160.122 58.823 160.906 57.864 164.335 55.884 166.147 55.501 166.784 55.501 167.42 55.246 169.429 55.182 172.759 55.948 173.151 56.332 175.453 57.609 176.629 57.545 177.069 57.226 179.322 53.968 182.31 48.603 184.857 45.409 187.6 41.002 186.865 39.916 186.278 39.725 184.906 39.661 176.971 39.852 175.061 40.044 172.661 39.916 170.065 40.108 167.42 40.491 166.882 40.172 165.608 40.363 160.171 40.108 158.898 40.491 157.624 40.363 157.086 40.619 153.902 40.427 148.661 40.874 148.122 42.024 148.416 45.154 147.437 50.775 146.163 53.777 145.478 56.459 144.792 57.801 144.498 60.355 144.596 62.463 145.135 65.082 146.065 67.573 146.898 68.595 147.633 68.595 150.816 67.381 153.265 66.04 154.784 64.826 156.204 63.357 157.184 61.697 157.673 61.186 158.8 60.547 159.878 58.95 162.571 56.843 164.384 55.757 165.706 55.501 166.343 55.693 169.037 55.246 172.318 56.012 175.208 57.417 176.629 57.737 177.118 57.29 179.078 53.777 187.306 41.385 187.306 40.747 186.522 39.661 185.347 39.661 184.024 39.533 181.527 39.725 180.253 39.597 178.196 39.98 176.384 39.916 173.739 40.236 172.465 40.108 167.078 40.172 165.804 40.427 165.167 40.299 161.984 40.299 161.347 40.491 160.71 40.236 158.702 40.427 156.155 40.108 154 40.427 153.363 40.747 152.678 40.683 151.992 40.874 149.494 40.555 148.857 40.683 148.318 41.002 148.269 45.537 147.878 47.517 147.927 48.667 147.143 51.924 145.331 56.204 144.547 60.036 144.596 62.016 145.331 65.848 146.016 67.637 147.045 68.339 147.731 68.339 148.318 67.892 150.131 67.509 154.147 65.465 155.616 64.315 156.988 61.952 159.976 59.334 160.71 58.375 161.739 57.354 163.551 56.395 166 56.012 167.42 55.437 170.506 55.948 171.192 55.821 173.004 56.587 174.278 56.97 175.943 57.864 176.58 57.992 179.518 52.946 181.037 50.583 184.465 45.92 187.502 41.13 186.963 40.044 185.2 39.597 179.469 39.661 174.816 40.172 172.906 39.916 171.535 40.236 170.947 40.108 170.408 39.661 169.086 39.98 167.273 39.98 166.588 40.172 164.629 40.172 163.355 39.98 161.445 40.172 160.906 39.852 159.045 40.236 157.82 39.98 156.498 40.108 153.265 40.81 151.943 40.619 148.808 40.81 148.465 41.385 148.416 45.729 148.073 46.942 147.878 50.072 145.331 56.14 144.498 60.994 144.547 62.335 145.233 65.465 145.624 66.743 146.604 68.403 148.563 68.148 150.473 67.317 150.963 66.87 153.755 65.465 155.616 63.741 158.408 60.803 159.045 60.419 159.094 59.844 159.388 59.334 161.837 56.97 163.061 56.332 164.922 55.757 165.461 55.373 168.645 55.118 171.192 55.629 173.592 56.459 174.669 57.29 176.286 58.056 176.922 57.801 177.461 56.587 180.645 51.733 181.478 50.008 186.669 42.535 187.355 40.747 187.061 40.108 185.788 39.725 182.065 39.725 176.776 40.108 172.416 40.044 171.829 40.299 170.604 40.172 170.016 40.363 168.155 40.427 166.049 40.81 163.649 40.236 160.514 40.236 159.192 40.491 158.016 40.363 156.694 40.683 155.371 40.427 153.412 40.81 152.776 40.555 152.041 40.555 151.502 40.81 149.543 40.619 148.906 40.747 148.465 41.194 148.269 41.896 148.416 42.471 148.122 43.11 148.318 45.665 147.976 46.942 147.682 50.072 147.339 51.477 146.31 53.713 145.673 55.629 145.184 55.884 145.086 57.098 144.694 58.248 144.596 62.08 145.037 65.21 146.31 68.02 146.898 68.339 148.171 68.212 149.445 67.828 151.747 66.806 154.931 64.379 156.792 62.719 158.359 60.675 158.996 60.483 159.045 59.844 159.437 59.397 161.494 57.545 164.188 56.012 165.951 55.437 169.086 55.246 172.367 56.076 176.09 57.673 176.776 57.737 177.265 57.417 177.412 56.843 178.735 54.543 179.861 53.074 182.016 49.689 182.604 48.348 185.004 45.09 187.257 41.449 187.061 40.172 186.62 39.725 180.89 39.725 179.665 39.916 176.58 39.98 172.563 39.916 170.751 40.236 168.743 40.172 167.518 40.427 166.882 40.747 164.188 40.236 162.865 40.555 160.955 40.363 160.416 40.81 159.829 40.81 157.331 40.427 153.216 40.747 151.306 40.619 150.131 40.81 149.543 40.619 148.906 40.81 148.514 41.258 148.318 42.535 148.073 49.561 144.498 58.695 144.4 61.952 144.792 64.571 145.478 66.359 146.457 67.956 146.996 68.339 148.318 68.339 151.6 66.551 153.461 65.721 155.029 64.571 157.135 62.335 157.918 61.377 159.339 60.355 159.339 59.717 159.829 59.27 161.396 57.992 161.984 57.801"><title>2020-09-06 15.2km</title></polyline><polyline fill="none" stroke="#4dd2ff" stroke-linecap="round" stroke-linejoin="round" stroke-width=".5" points="27.518 107.008 30.502 104.648 31.089 104.52 32.801 103.819 34.024 103.5 34.66 103.563 35.981 103.117 36.569 103.244 37.253 103.181 38.623 103.627 39.259 103.627 39.944 103.882 40.58 104.201 41.852 104.52 42.978 105.35 43.711 105.605 45.081 105.477 45.571 104.201 45.962 103.755 47.038 101.905 48.946 99.097 50.023 96.928 50.854 95.844 51.49 94.759 51.98 94.312 53.056 92.781 53.496 92.143 53.741 91.505 55.6 88.762 55.16 88.187 54.719 87.805 53.937 87.677 52.665 87.805 47.576 87.613 43.418 87.805 42.684 87.996 41.412 87.805 39.651 88.124 39.015 87.996 37.743 88.315 36.471 88.315 35.835 88.124 34.612 88.443 34.024 88.315 32.85 88.443 31.529 88.124 30.159 88.251 29.426 88.251 28.839 88.06 28.202 88.379 27.518 88.251 26.882 88.379 26.148 88.251 25.316 88.443 24.582 88.443 23.212 88.251 22.478 88.443 21.696 88.379 21.011 88.506 20.326 88.379 18.956 88.634 17.537 88.57 16.901 88.698 16.363 89.144 16.069 90.548 16.363 91.888 16.314 94.568 15.923 97.375 15.287 99.48 14.699 100.565 14.014 102.415 13.378 103.563 12.889 105.477 12.449 108.859 12.449 110.135 12.742 112.304 13.085 113.452 14.161 116.068 14.748 116.323 16.118 116.132 18.222 114.983 19.543 114.792 20.228 114.473 20.717 113.899 21.745 113.197 22.478 112.942 24.386 111.155 25.854 109.114 26.93 108.221 26.979 107.519 27.909 106.562 28.594 106.434 29.621 105.477 30.844 104.776 32.067 104.074 32.85 103.946 33.388 103.5 36.079 103.308 37.302 103.372 37.889 103.627 39.21 103.755 40.58 104.138 43.418 105.541 44.739 105.477 46.207 103.436 46.5 102.862 46.94 102.415 47.919 100.82 48.604 99.544 49.827 98.013 51.295 95.461 51.49 94.887 52.029 94.376 52.811 93.1 55.6 89.208 55.453 88.57 54.524 87.677 52.567 87.613 50.414 87.677 49.876 87.805 49.191 87.677 47.283 87.868 46.011 87.805 44.592 87.996 41.852 87.932 41.167 88.124 40.58 87.996 38.574 87.996 37.987 88.251 36.813 88.187 35.345 88.379 34.122 88.379 33.486 88.251 32.263 88.315 31.48 88.187 27.566 88.443 25.658 88.443 24.876 88.379 23.604 88.443 22.968 88.379 21.06 88.57 20.472 88.762 19.836 88.698 19.249 88.825 18.613 88.698 16.559 88.698 16.118 89.144 16.265 92.59 15.531 98.651 13.623 103.053 12.791 105.605 12.4 107.646 12.4 109.05 12.791 111.793 13.036 112.368 13.036 113.069 14.21 115.685 14.602 116.132 15.14 116.387 15.874 116.195 16.461 116.132 17.782 115.621 19.005 114.856 20.13 114.473 20.668 114.154 21.108 113.644 21.696 113.452 22.723 112.368 24.289 111.028 24.533 110.517 26.441 108.795 26.979 108.54 26.93 107.965 27.909 106.881 30.747 104.903 31.921 104.201 32.606 104.074 33.193 103.755 34.073 103.436 34.709 103.5 36.03 103.308 37.302 103.244 37.792 103.755 38.428 104.01 39.846 104.01 41.118 104.329 42.342 104.648 42.929 104.967 43.32 105.477 43.956 105.605 44.69 105.541 45.668 104.52 46.207 103.436 46.94 102.351 47.136 101.777 48.31 100.246 48.604 99.608 50.169 97.311 50.805 96.099 51.197 95.652 51.344 95.078 51.686 94.44 52.518 93.164 53.349 92.079 53.545 91.505 55.013 89.081 55.209 88.443 54.719 87.868 54.181 87.613 52.077 87.868 49.484 87.741 47.528 87.932 45.668 87.741 42.195 87.996 40.825 87.868 39.602 88.06 38.966 87.932 38.379 87.996 37.841 88.187 35.688 88.187 33.878 88.443 31.921 88.315 29.475 88.506 28.839 88.443 28.3 88.762 25.805 88.506 25.365 88.889 24.044 88.698 23.457 88.825 22.87 88.634 22.234 88.953 21.647 89.017 20.326 88.889 19.005 88.953 16.559 88.762 16.118 89.208 16.069 91.25 16.216 91.952 16.118 93.355 16.216 94.057 16.118 96.163 15.433 98.778 14.112 101.841 13.77 103.053 13.427 103.691 12.84 106.179 12.547 110.007 13.085 113.261 13.574 114.473 14.748 116.132 15.433 116.259 18.662 115.302 19.739 114.473 20.424 114.281 21.06 113.899 23.653 111.793 24.093 111.155 25.805 109.433 26.148 108.986 26.784 108.667 27.175 107.455 28.79 106.115 29.964 105.286 31.725 104.393 33.046 104.01 34.171 103.5 34.807 103.627 36.177 103.5 37.694 103.627 38.232 103.946 42.048 104.648 43.271 105.477 43.907 105.605 45.228 105.477 45.571 104.903 45.962 103.627 46.353 103.117 48.653 99.034 50.267 96.864 51.735 94.504 52.273 93.93 52.518 93.292 54.817 90.038 55.404 88.889 55.062 88.251 54.622 87.741 54.034 87.677 51.344 87.741 50.708 87.549 48.017 87.613 47.381 87.805 43.956 87.741 40.58 88.06 38.574 88.06 37.302 88.251 34.66 88.443 33.976 88.379 33.34 88.443 31.383 88.06 29.377 88.379 27.42 88.251 26.833 88.443 26.05 88.379 25.365 88.443 23.946 88.889 21.157 88.634 20.472 88.762 18.369 88.57 17.048 88.762 16.363 89.081 16.118 95.142 15.58 98.523 14.455 101.075 14.063 101.649 13.574 103.5 12.791 105.477 12.547 108.221 12.498 109.497 12.694 110.9 12.889 112.304 13.281 113.644 13.77 114.281 14.699 116.068 15.238 116.451 15.776 116.195 16.363 116.132 18.173 115.494 19.396 114.983 21.696 113.388 23.555 111.602 24.142 111.219 25.463 109.688 26.833 108.348 26.833 107.71 28.154 106.37 29.426 105.796 30.404 104.839 31.529 104.074 32.067 103.819 32.704 103.691 33.193 103.181 34.465 103.053 35.101 103.181 35.688 103.117 39.798 103.627 41.657 104.265 43.32 105.35 44.641 105.477 45.571 104.52 46.109 103.181 46.745 102.096 47.674 101.011 48.164 99.863 49.191 98.204 50.023 97.183 51.393 94.887 52.371 93.738 53.301 92.143 55.502 88.825 54.67 87.741 54.083 87.549 45.375 87.932 42.733 87.932 41.999 88.06 40.58 87.932 39.21 88.124 38.623 87.996 38.085 87.996 36.03 88.443 35.345 88.187 34.758 88.506 33.486 88.634 31.529 88.187 30.893 88.379 29.572 88.443 28.936 88.315 27.615 88.379 24.876 88.251 24.337 88.379 22.185 88.379 21.647 88.57 20.326 88.506 17.782 88.825 17.048 88.762 16.461 89.081 16.216 89.655 16.265 93.483 16.167 95.461 15.58 98.587 13.819 102.862 12.596 107.902 12.645 111.092 13.281 113.644"><title>2020-09-09 10.5km</title></polyline><polyline fill="none" stroke="#ff4600" stroke-linecap="round" stroke-linejoin="round" stroke-width=".5" points="93.191 107.188 95.582 105.406 99.732 103.305 103.1 103.114 106.321 103.56 108.86 105.024 110.812 105.278 113.009 101.205 120.673 89.683 121.161 87.709 120.624 87.391 116.914 87.264 110.226 87.455 105.687 87.964 104.564 87.646 102.563 87.9 91.336 87.837 87.675 88.219 87.186 88.537 82.696 88.601 82.403 89.364 82.159 96.621 81.426 99.168 79.279 103.942 78.498 109.225 79.132 112.471 80.401 115.59 81.036 115.909 84.453 115.145 86.942 113.745 87.333 113.044 89.627 111.58 92.898 108.27 93.044 107.124 94.948 105.342 99.683 102.923 103.685 102.923 109.885 105.088 111.056 104.96 113.155 100.823 116.377 96.621 121.6 88.41 120.673 87.2 111.593 87.709 110.959 87.455 106.565 87.709 104.662 87.455 103.393 87.709 101.245 87.582 99.243 88.091 97.925 87.773 87.967 88.41 86.649 88.155 82.793 88.346 82.256 88.792 82.549 92.675 82.11 96.621 80.255 101.777 79.767 102.35 78.4 107.952 78.888 111.835 80.938 115.909 83.477 115.4 86.503 113.935 88.602 112.408 91.482 109.543 92.946 107.443 93.923 106.424 99.146 103.051 102.953 103.051 106.077 103.496 108.323 104.324 109.299 105.024 111.154 105.278 112.521 102.223 115.108 98.085 117.109 95.476 121.356 88.601 120.868 87.327 118.183 87.2 104.027 87.709 103.49 87.964 102.172 87.773 100.22 88.091 98.902 87.773 96.9 88.091 92.214 88.028 91.628 88.346 88.895 88.346 88.358 88.664 83.281 88.346 82.744 88.537 82.207 89.683 82.452 91.656 82.012 96.685 81.524 98.722 79.62 102.669 78.693 107.124 79.035 111.644 80.743 115.845 82.061 115.781 84.404 114.954 87.821 113.044 90.359 110.244 92.8 108.398 93.142 107.188 93.63 106.743 99.243 103.178 103.832 103.051 105.931 103.369 110.226 105.406 110.861 105.278 116.328 96.239 120.77 89.746 121.209 88.537 120.477 87.327 119.111 87.264 104.613 87.709 99.341 88.282 98.023 87.964 96.803 87.964 93.63 88.219 93.093 87.964 91.287 88.346 89.334 87.9 82.793 88.473 82.207 89.492 82.061 96.176 80.743 100.759 79.425 103.751 78.546 107.697 79.474 112.599 79.327 113.172 80.255 114.763 80.255 115.336 80.694 115.781 81.28 115.845 85.136 114.445 87.479 113.044 90.262 110.498 90.847 110.307 91.921 108.779 93.044 108.27 92.995 107.634 94.362 106.042 97.681 103.751 99.341 103.114 102.172 102.732 103.49 102.732 106.565 103.56 108.713 104.769 110.568 105.215 121.502 88.728 121.063 87.582 119.257 87.136 106.175 87.837 103.637 87.709 100.268 88.028 99.146 88.473 96.656 87.773 95.387 88.028 91.433 87.964 90.262 88.028 88.504 88.473 82.696 88.473 82.305 89.683 82.598 92.165 81.915 97.322 79.523 103.751 78.546 109.098 79.23 112.344 80.694 115.909 84.453 114.954 88.553 112.599 89.627 110.944 93.142 108.079 93.093 107.379 94.46 105.915 99.048 103.242 103.734 103.051 106.907 103.814 109.348 104.96 110.666 105.088 121.6 88.346 120.868 87.391 120.282 87.2 101.391 87.582 99.536 88.282 98.853 87.964 94.997 87.773 89.725 88.028 88.553 87.709 82.842 88.346 82.354 89.619 82.061 97.258 79.62 103.496 78.644 108.97 79.23 112.981 80.987 115.909 82.94 115.527 88.212 112.853 91.14 109.989 92.214 108.334 92.946 108.207 93.288 107.061 97.535 103.942 99.439 103.242 103.441 102.669 107.249 103.814 108.957 104.833 111.007 105.151 112.081 102.923 121.112 88.983 121.112 87.646 120.624 87.264 116.767 87.2 114.132 87.518 103.344 87.646 99.536 88.41 97.779 87.964 93.874 88.282 91.873 88.091 89.92 88.601 87.186 88.282 83.233 88.346 82.696 88.664 82.159 96.176 81.134 100.059 79.083 105.024 78.839 106.997 79.083 111.453 80.108 115.336 80.597 115.781 84.453 114.954 87.772 113.044 90.408 110.816 92.361 108.334 92.995 108.207 93.581 107.124 96.022 104.897 99.341 103.114 103.393 103.051 106.614 103.814 109.543 105.342 110.861 105.215 121.551 88.346 120.575 87.327 114.961 87.2 107.444 87.391 105.492 87.709 104.369 87.455 102.465 87.709 101.928 87.455 99.487 88.091 88.309 87.9 86.991 88.155 83.233 88.091 82.354 88.983 82.354 93.502 81.817 97.385 78.644 106.87 78.546 109.416 79.035 112.471 80.157 115.527 80.792 115.718 85.673 114.19 88.504 112.535 92.117 108.716 92.751 108.589 93.093 108.079 93.044 107.379 93.923 106.424 95.924 104.578 96.607 104.451 99.292 102.732 104.32 102.732 106.273 103.369 109.153 104.769 111.154 104.642 114.034 99.613 118.134 93.884 121.502 88.41 121.161 87.773 120.087 87.136 111.935 87.2 108.225 87.709 101.245 87.709 99.341 88.091 94.85 87.773 92.214 87.964 91.043 88.282 87.333 87.964 82.891 88.219 82.305 89.364 81.915 97.576 79.474 104.196 78.644 108.27 79.327 113.299 80.743 115.463 84.648 114.954 86.21 114.254 89.529 111.644 92.068 108.907 93.044 107.124 94.899 105.406 98.853 103.242 103.246 102.541 106.321 103.432 109.104 104.897 111.056 104.706 113.936 99.613 116.67 95.857 118.866 91.974 121.454 88.537 121.356 87.9 120.282 87.136 118.329 87.136 114.132 87.2 111.496 87.582 103.832 87.646 100.073 88.282 97.096 87.709 92.263 87.9 90.457 88.282 86.552 88.091 82.598 88.41 82.549 92.993 81.768 98.085 79.376 104.069 78.644 107.697 78.986 111.644 80.548 115.654 84.258 114.763 84.599 114.254 86.308 113.617 89.92 111.262 91.873 108.907 93.142 106.806 95.143 105.088 99.292 102.86 103.051 102.669 107.346 103.942 109.543 105.151 110.861 105.278 114.229 99.359 121.112 89.237 121.6 88.028 121.161 87.582 119.989 87.136 104.955 87.582 103.002 87.9 99.927 87.773 99.292 88.091 98.072 87.773 96.949 88.155 92.263 88.028 89.188 88.155 85.234 88.601 83.233 88.41 82.647 88.664 82.354 89.237 82.452 93.629 81.963 96.812 81.426 99.422 80.499 101.141 79.327 104.769 78.693 109.225 79.669 113.681 80.45 115.4 81.622 116.864 84.648 116.227 88.163 114.254 89.871 113.044 92.117 110.753 94.899 107.252 96.607 106.042 98.365 105.406"><title>2020-09-16 24.0km</title></polyline><polyline fill="none" stroke="#4dd2ff" stroke-linecap="round" stroke-linejoin="round" stroke-width=".5" points="160.362 106.934 162.168 105.342 163.486 104.897 164.072 104.515 164.706 104.387 166.024 103.878 166.464 103.369 167.147 103.496 168.514 103.242 170.564 103.56 171.101 103.814 171.736 103.814 173.054 104.196 175.445 105.533 176.178 105.597 176.715 105.406 177.398 104.26 178.325 103.178 178.472 102.541 179.351 101.332 180.717 98.977 182.035 97.322 187.356 88.983 186.575 87.9 185.94 87.773 184.72 87.773 179.009 88.028 177.691 87.9 176.471 88.091 175.738 88.028 174.469 88.155 173.151 87.964 172.419 88.155 169.734 88.282 167.831 87.964 167.196 88.028 165.927 88.537 164.658 88.537 163.388 88.155 162.754 88.346 160.753 88.346 160.118 88.537 157.58 88.346 156.945 88.473 155.578 88.41 154.993 88.601 153.626 88.728 152.357 88.601 148.988 88.855 148.403 89.11 148.305 90.383 148.11 91.083 148.159 93.693 148.012 94.966 147.378 99.04 146.792 100.886 145.523 103.496 145.083 104.769 144.791 106.106 144.498 108.207 144.449 110.88 144.644 112.153 145.669 115.336 146.157 115.972 146.694 116.291 150.453 115.4 150.99 114.954 152.649 113.999 153.675 113.299 154.748 112.662 155.529 111.835 157.043 110.625 157.58 110.116 158.019 109.543 158.8 107.761 159.386 107.443 159.727 106.806 160.753 105.979 161.973 105.469 163.096 104.578 164.365 103.942 165.536 103.56 166.073 103.242 166.659 103.432 167.342 103.242 169.246 103.242 170.759 103.623 171.931 103.751 174.372 104.897 174.957 105.342 175.592 105.533 176.275 105.533 176.763 105.151 177.544 104.069 179.79 100.632 179.985 100.122 182.279 96.685 182.767 96.239 183.744 94.393 184.134 93.948 185.599 91.656 186.428 90.574 187.551 88.664 186.575 87.837 185.989 87.773 183.89 87.9 181.254 87.837 180.62 87.9 179.936 87.773 179.253 87.9 178.569 87.9 177.886 88.028 175.836 87.9 175.104 88.028 173.005 87.964 171.784 88.282 170.613 88.155 169.295 88.282 168.026 88.219 167.342 88.346 164.609 88.664 163.974 88.473 163.388 88.41 162.656 88.537 161.387 88.41 160.118 88.41 159.483 88.601 157.384 88.41 156.701 88.728 154.748 88.473 154.163 88.601 152.796 88.473 151.527 88.792 150.258 88.728 149.037 88.728 148.598 89.11 148.305 89.81 148.354 90.383 148.207 93.057 148.403 93.693 148.159 96.367 147.915 96.94 147.866 97.64 147.426 99.613 146.938 100.823 146.645 101.523 145.425 103.878 144.986 105.915 144.693 106.488 144.546 108.461 144.4 110.435 144.986 112.79 146.206 115.972 146.889 116.163 147.475 116.1 148.061 115.909 148.647 115.845 149.916 115.463 151.087 115.018 152.991 114.063 154.993 112.408 157.287 110.053 157.677 109.416 158.751 108.779 159.435 107.634 160.411 106.743 160.606 106.233 161.045 105.724 162.754 104.578 163.291 104.451 163.877 104.005 164.462 103.814 165.732 103.814 166.268 103.56 166.854 103.623 167.489 103.369 168.172 103.305 169.539 103.305 170.076 103.56 170.759 103.623 172.663 104.196 174.811 105.406 176.08 105.724 176.666 105.597 178.325 102.796 179.058 101.905 179.79 100.695 180.229 100.186 180.522 99.486 182.426 96.685 182.767 96.048 185.892 90.956 187.112 89.555 187.454 88.919 187.6 88.282 187.209 87.709 186.673 87.582 185.989 87.709 184.622 87.773 181.889 87.709 181.205 87.837 177.935 87.964 177.203 88.155 174.664 88.219 172.077 88.028 170.613 88.091 170.027 88.282 168.172 88.282 166.903 88.473 166.268 88.601 165.634 88.919 165.146 88.601 163.877 88.282 162.607 88.41 161.973 88.282 160.655 88.282 160.069 88.664 159.435 88.537 158.8 88.664 158.214 88.537 156.213 88.728 154.163 88.473 152.064 88.601 151.527 88.41 150.941 88.601 149.525 88.601 148.891 88.728 148.5 89.301 148.256 90.701 148.207 95.094 147.475 98.149 147.475 98.722 147.085 99.995 146.011 102.35 145.327 104.133 144.644 106.743 144.546 108.079 144.693 111.453 144.937 112.79 145.669 114.763 146.255 115.972 146.841 116.354 148.207 115.909 148.793 115.781 150.648 115.081 152.405 114.254 154.212 113.108 155.969 111.198 156.994 110.435 157.726 109.289 158.702 108.398 159.435 107.379 160.362 106.424 162.217 104.769 162.852 104.642 164.511 103.751 165.146 103.814 165.829 103.687 166.22 103.242 166.854 103.432 167.586 103.496 168.27 103.369 169.685 103.369 170.32 103.623 171.003 103.687 171.638 104.069 173.737 104.578 174.811 105.406 175.397 105.66 176.617 105.724 177.007 105.278 177.837 103.56 178.667 102.541 178.96 101.968 179.351 101.523 180.18 99.677 182.133 96.94 182.377 96.367 185.403 92.293 186.331 90.701 187.454 89.11 187.307 88.473 186.819 88.091 186.233 87.9 185.062 88.028 180.766 87.964 180.083 88.091 179.399 87.964 176.373 88.155 175.836 87.964 175.104 88.155 174.518 88.028 172.419 88.155 171.101 88.091 169.051 88.41 167.684 88.282 165.585 88.601 164.853 88.601 163.633 88.282 162.852 88.473 161.485 88.346 159.532 88.601 157.677 88.282 156.994 88.282 155.822 88.537 154.504 88.473 153.235 88.664 151.917 88.664 150.502 88.919 149.086 88.855 148.5 89.046 148.305 89.683 148.256 92.102 148.549 93.948 148.012 97.194 147.719 98.404 146.694 100.823 145.376 104.451 145.132 105.851 144.742 107.124 144.546 109.607 144.839 110.944 145.083 112.917 146.353 116.036 146.938 116.418 150.16 115.59 150.599 115.081 151.185 114.954 152.454 114.381 153.04 114.317 155.822 111.453 156.75 110.625 157.921 108.97 158.605 108.652 158.654 108.079 160.948 105.66 162.754 104.706 163.291 104.26 165.78 103.687 166.317 103.305 167.049 103.496 168.27 103.432 170.027 103.687 171.345 104.005 172.468 104.387 174.323 105.215 176.275 105.851 176.763 105.469 177.447 104.324 178.033 103.051 179.595 100.95 179.839 100.313 182.182 97.131 183.207 95.348 185.208 92.547 187.209 89.364 187.307 88.664 186.868 88.282 186.282 87.964 183.158 87.709 181.791 87.837 177.74 88.028 176.471 87.837 175.299 88.028 174.03 88.028 173.395 88.282 171.394 88.346 170.759 88.219 168.123 88.282 167.489 88.346 166.903 88.601 166.22 88.537 165.683 88.792 164.999 88.792 164.414 88.537 163.242 88.346 161.192 88.473 160.508 88.728 159.191 88.792 155.432 88.792 154.797 88.537 154.114 88.664 152.747 88.664 150.795 89.046 148.891 88.855 148.403 89.301 148.305 89.937 148.403 95.221 147.866 98.404 147.671 99.104 146.401 102.159 146.011 102.732 146.011 103.369 145.327 104.578 144.888 106.424 144.693 107.697 144.644 110.307 145.083 113.044 145.767 114.954 146.45 116.1"><title>2020-10-11 10.5km</title></polyline><polyline fill="none" stroke="#4dd2ff" stroke-linecap="round" stroke-linejoin="round" stroke-width=".5" points="22.475 141.284 22.033 141.797 20.018 141.861 20.067 142.502 20.558 142.95 20.804 143.527 21.099 144.873 20.411 146.86 20.263 149.039 20.362 150.321 20.755 151.667 21.197 152.115 22.573 154.166 23.655 154.935 24.195 154.935 25.326 155.32 25.915 155.127 26.947 155.896 27.98 155.191 28.373 154.679 31.174 152.82 33.042 152.115 34.221 151.923 36.334 151.282 38.448 151.474 41.249 152.372 43.068 153.205 43.706 153.333 44.886 153.269 46.164 151.154 47.884 148.975 48.425 147.885 49.555 146.283 52.651 141.22 53.143 140.707 54.666 138.528 55.551 136.798 54.814 135.708 53.536 135.58 49.014 135.708 45.672 135.708 43.657 135.9 37.17 135.9 35.794 135.964 35.155 136.285 33.877 136.028 30.486 136.157 29.11 135.9 27.734 136.221 25.817 136.221 25.227 136.477 24.539 136.605 23.311 136.157 21.689 136.669 20.952 136.541 20.313 136.541 19.625 136.798 16.577 136.926 16.184 137.567 16.233 140.13 16.43 140.771 15.742 145.258 15.152 147.18 15.201 147.885 13.039 152.628 12.449 156.666 12.547 158.588 12.891 160.575 13.481 162.305 13.53 162.882 14.169 164.1 14.759 164.164 17.413 163.651 18.003 163.331 20.46 162.626 22.082 161.6 23.409 160.062 24.883 158.909 25.571 157.691 26.997 156.345 27.144 155.704 27.734 155.384 30.732 152.756 32.55 151.795 33.926 151.667 34.418 151.282 35.597 151.41 36.924 151.218 37.465 151.41 39.431 151.602 40.659 152.243 41.397 152.372 41.937 152.82 43.805 153.653 44.542 153.525 45.083 153.205 48.179 148.142 48.67 147.629 50.882 144.36 52.209 142.053 53.732 140.002 55.453 137.182 55.551 136.477 54.617 135.708 51.423 135.836 50.145 135.644 43.018 135.964 41.691 135.836 40.217 136.028 38.251 135.964 37.563 136.157 36.285 136.028 34.27 136.413 32.354 136.092 30.191 136.349 27.439 136.541 26.21 136.349 24.834 136.477 23.507 136.413 22.278 136.669 20.165 136.413 18.887 136.733 16.823 136.798 16.381 137.246 16.233 137.823 16.184 140.963 16.577 141.412 16.479 142.758 15.939 145.258 15.496 147.116 14.857 148.847 13.383 151.923 12.744 154.487 12.4 157.242 13.039 161.216 14.071 163.587 14.366 164.036 14.906 164.42 17.462 163.843 20.362 162.241 21.345 161.344 21.984 161.088 23.556 159.998 23.851 159.421 24.834 158.588 25.965 156.858 27.39 155.576 28.668 153.974 30.339 153.012 30.879 152.82 31.42 152.372 32.648 151.859 33.337 151.923 34.467 151.09 35.008 151.346 37.661 151.41 38.251 151.795 41.003 152.436 43.412 153.653 44.739 153.525 47.245 149.68 49.162 146.411 50.292 144.809 55.6 136.798 54.912 135.772 54.273 135.644 50.833 135.516 48.326 135.644 47.638 135.836 44.395 135.708 40.561 136.028 39.136 135.9 37.17 136.221 34.467 136.285 32.55 136.028 29.896 136.221 28.569 136.157 27.242 136.413 26.554 136.349 25.08 136.669 16.823 136.605 16.43 137.054 16.332 137.759 16.184 138.913 16.283 142.758 15.693 145.129 15.496 147.052 13.629 151.282 13.432 152.5 12.793 154.294 12.547 156.986 12.646 159.485 13.088 161.344 14.022 163.715 14.415 164.292 15.054 164.356 16.283 163.908 17.56 163.651 20.608 162.434 21.148 162.69 21.836 161.6 23.851 159.87 24.244 159.229 25.227 158.332 25.817 157.242 26.8 156.409 26.947 155.768 27.341 155.256 28.717 153.846 30.928 152.5 32.157 151.987 32.796 151.859 33.386 151.987 33.877 151.474 34.467 151.602 36.433 151.41 38.448 151.538 38.939 152.051 42.134 152.756 43.215 153.589 44.542 153.974 45.377 153.012 46.311 151.41 46.459 150.769 47.589 149.231 48.375 147.629 54.076 139.425 55.453 137.246 55.6 136.669 54.715 135.772 54.126 135.58 46.852 135.772 45.574 135.58 44.247 135.708 43.657 135.516 41.79 135.708 40.61 136.092 38.055 136.092 34.811 136.285 34.123 136.477 32.059 136.028 31.42 136.092 30.781 135.964 27.685 136.413 23.114 136.285 21.689 136.413 19.575 136.349 18.347 136.798 17.118 136.798 16.43 137.054 16.135 138.208 16.332 141.54 15.939 144.617 14.759 148.783 13.776 150.513 13.383 151.859 12.547 156.537 12.744 159.934 13.039 161.088 14.317 164.164 14.857 164.42 15.496 164.42 17.413 163.972 21.59 161.793 22.623 160.959 23.212 160.767 23.458 160.19 24.343 159.165 24.932 158.845 25.62 157.563 26.407 156.601 28.127 154.807 28.618 154.487 29.012 153.974 30.191 153.461 31.272 152.692 33.681 151.795 34.123 151.41 36.777 151.41 38.644 151.667 39.283 151.859 39.775 152.307 41.691 152.692 43.51 153.782 44.788 153.974 47.442 149.616 48.228 147.821 48.719 147.501 49.555 146.411 51.521 143.014 52.012 142.502 54.765 138.143 55.6 137.118 55.453 136.541 54.961 135.964 54.47 135.708 50.636 135.644 44.247 135.772 40.315 136.221 38.89 135.964 37.612 135.964 36.875 136.157 35.057 136.092 33.779 136.285 32.403 136.092 29.749 136.092 28.471 136.285 26.554 136.157 23.212 136.285 21.05 136.605 20.362 136.413 18.445 136.733 17.216 136.669 16.528 136.862 16.184 137.31 16.43 138.72 16.135 143.783 15.791 145.001 15.496 147.052 14.808 148.847 13.137 152.564 12.744 154.551 12.498 157.883 12.842 160.447 13.432 162.369 14.317 164.1 14.906 164.484 16.233 164.228 17.462 163.779 21.689 161.729 24.244 159.678 25.276 157.883 26.554 156.473 27.242 155.448 28.373 154.935 28.717 154.422 29.749 153.717 30.289 153.525 30.928 153.525 31.96 152.628 33.287 152.307 35.941 151.987 37.072 151.602 39.676 151.731 41.298 152.436 41.839 152.82 43.51 153.717 44.1 153.846 44.739 153.653 46.115 151.346 47.245 149.872 48.179 148.142 50.538 145.001 51.078 143.783 55.453 137.118 55.354 136.413 54.371 135.772 47.343 135.9 46.115 135.644 42.822 136.028 42.134 135.9 40.217 136.157 37.367 136.221 35.597 136.028 34.369 136.285 33.779 136.157 33.14 136.285 31.223 135.964 26.014 136.285 25.276 136.092 23.212 136.092 21.934 136.605 18.003 136.605 16.823 136.733 16.332 137.118 16.479 138.272 16.233 139.553 16.233 142.95 15.742 146.155 13.629 151.731 13.039 153.012 12.498 156.089 12.449 158.076 12.941 160.831 14.218 163.908 14.71 164.292"><title>2020-10-16 13.1km</title></polyline><polyline fill="none" stroke="#4dd2ff" stroke-linecap="round" stroke-linejoin="round" stroke-width=".5" points="84.581 143.313 84.546 142.901 84.265 143.405 83.914 143.634 83.879 144.092 84.055 144.458 84.406 145.283 84.722 145.603 84.827 146.886 84.336 146.932 84.02 147.344 84.09 148.306 83.914 148.764 83.879 149.222 83.984 150.641 84.441 150.962 84.722 151.328 84.757 151.741 85.214 151.878 86.197 153.023 87.11 153.115 87.742 153.847 88.234 154.031 88.55 154.305 88.726 153.847 89.428 153.252 90.377 152.153 91.641 151.649 92.308 151.145 93.327 151.054 93.713 150.825 94.205 150.687 94.732 150.733 95.259 150.596 96.312 150.779 96.769 150.596 97.682 150.825 98.244 150.87 101.58 152.657 102.423 153.206 103.372 154.214 104.952 155.679 106.462 157.42 106.919 157.74 107.902 158.656 108.324 158.748 108.745 159.069 110.115 160.534 110.607 160.58 111.028 160.397 111.485 159.664 112.925 158.473 113.311 158.198 113.943 157.511 114.33 157.328 115.594 155.954 115.84 155.13 116.542 154.626 116.823 154.26 117.21 153.985 117.772 153.115 120.09 150.779 121.319 149.13 121.284 148.672 120.862 147.985 119.774 147.161 118.474 145.832 118.018 145.557 116.964 144.55 113.979 141.985 113.1 141.435 112.117 140.473 111.274 139.97 110.853 140.015 108.956 139.374 104.496 139.283 102.037 139.466 98.209 139.42 97.752 139.512 94.872 139.512 94.029 139.832 93.081 139.832 92.098 139.557 91.641 139.512 89.744 139.786 87.848 139.695 86.97 140.015 85.986 139.878 85.073 140.061 84.581 139.97 84.125 140.107 83.633 140.061 82.263 140.153 81.807 140.061 81.35 140.29 81.21 140.702 81.175 144.55 80.753 146.84 80.191 148.214 80.051 149.084 79.77 149.588 78.927 151.97 78.435 154.351 78.435 155.267 78.646 156.687 78.857 157.099 78.997 158.015 79.629 159.801 80.051 159.939 81.772 159.435 82.193 159.435 83.177 159.069 83.563 158.794 84.406 158.382 85.143 157.74 85.53 157.557 86.97 156.183 87.602 155.359 87.742 154.947 88.129 154.718 88.656 153.939 90.377 152.199 90.833 151.878 91.255 151.832 91.641 151.512 92.87 151.054 93.186 150.733 94.135 150.733 94.591 150.641 95.118 150.733 96.101 150.596 96.593 150.596 96.98 150.87 97.998 151.008 99.333 151.466 100.562 152.107 100.983 152.199 101.37 152.519 101.756 152.702 102.459 153.252 102.704 153.664 103.442 154.214 103.723 154.58 104.109 154.855 105.655 156.641 107.481 158.244 107.938 158.519 109.553 159.847 110.22 160.672 110.712 160.717 111.134 160.488 111.801 159.847 112.047 159.389 113.381 157.924 113.803 157.649 114.435 156.916 114.892 156.641 115.032 156.229 115.559 155.542 115.7 155.13 116.121 154.947 116.472 154.58 117.666 153.115 119.739 151.008 121.6 148.764 121.003 147.985 119.914 147.206 119.247 146.519 118.896 146.29 117.842 145.191 116.402 144.138 115.313 143.176 113.557 142.351 113.276 141.848 112.468 141.115 111.801 140.336 109.869 139.878 108.57 139.283 107.621 139.466 106.743 139.283 106.252 139.374 103.793 139.283 102.494 139.466 98.209 139.603 96.769 139.557 94.275 139.878 93.783 139.741 92.87 139.924 92.449 139.832 90.025 139.741 89.604 139.924 88.059 139.97 85.67 139.786 84.336 140.153 83.422 140.061 81.456 140.153 81.21 140.565 81.175 141.069 81.21 143.405 81.104 144.367 81.175 144.87 81.104 145.374 80.542 147.71 80.261 148.122 79.067 151.328 78.681 152.657 78.435 154.58 78.4 155.405 78.54 156.412 79.102 158.244 79.7 159.572 80.121 159.893 82.544 159.389 83.071 159.206 84.757 158.107 85.003 157.786 85.389 157.603 86.794 156.412 87.286 155.634 88.304 154.534 88.691 153.71 89.428 152.977 89.92 152.794 90.868 151.878 91.325 151.832 91.746 151.557 92.695 151.328 93.257 151.328 95.434 150.641 97.822 150.87 98.665 151.145 99.087 151.42 99.965 151.695 101.194 152.565 102.459 153.16 104.46 155.176 105.76 156.733 107.797 158.794 108.324 158.977 109.026 159.481 110.045 160.626 110.537 160.626 111.274 160.168 111.836 159.572 112.258 159.435 112.468 158.977 113.943 157.649 114.821 156.641 115.383 155.771 115.559 155.313 117.245 153.664 117.456 153.298 118.123 152.519 119.668 151.283 121.424 148.718 121.038 147.893 119.106 146.565 117.631 145.145 117.42 144.779 115.84 143.588 114.821 142.58 113.276 141.573 112.574 140.794 111.309 140.061 110.431 139.97 108.991 139.512 107.973 139.374 104.601 139.42 103.161 139.328 98.771 139.649 97.893 139.557 97.015 139.741 95.575 139.786 93.713 140.015 92.73 139.924 92.273 139.741 90.833 139.832 90.412 139.741 87.567 140.107 86.021 140.107 85.495 140.244 83.984 140.244 83.528 140.153 81.561 140.244 81.21 141.161 81.14 144.367 80.683 147.39 78.997 151.466 78.4 154.489 78.4 155.542 78.857 157.466 79.7 159.527 79.945 159.893 80.437 160.076 82.369 159.481 83.352 158.702 84.265 158.519 85.354 157.649 87.672 155.45 89.218 153.389 90.377 152.382 91.606 151.741 93.432 151.054 93.819 151.237 94.064 150.825 94.486 150.733 95.469 150.687 96.418 150.825 96.874 150.779 97.858 150.916 99.262 151.42 100.14 152.061 102.388 153.206 104.812 155.771 106.217 157.008 106.814 157.695 108.5 159.114 110.22 160.717 110.677 160.58 111.099 160.259 111.66 159.527 113.838 157.695 114.786 156.641 115.138 156.412 115.875 155.13 116.578 154.397 116.999 154.076 117.666 153.252 119.141 151.924 119.598 151.145 121.284 148.947 121.319 148.535 121.073 148.031 120.371 147.298 119.563 146.84 117.666 145.145 117.21 144.87 116.261 143.954 115.559 143.496 114.084 142.214 112.82 141.39 111.485 140.061 111.099 139.832 109.237 139.603 108.254 139.328 106.357 139.42 105.83 139.328 104.812 139.466 102.915 139.42 100.492 139.466 98.103 139.695 96.874 139.924 95.891 139.878 94.38 140.061 93.959 139.878 93.502 140.015 92.976 140.015 92.062 139.832 90.341 139.832 89.885 140.015 88.41 140.061 88.023 140.336 87.497 140.336 87.04 140.244 86.513 140.336 85.003 140.336 84.09 140.199 83.668 140.382 81.772 140.336 81.385 140.702 81.28 141.664 81.175 142.626 81.245 144.916 81.069 145.878 79.138 151.42 78.646 153.435"><title>2020-10-23 11.5km</title></polyline><polyline fill="none" stroke="#f70" stroke-linecap="round" stroke-linejoin="round" stroke-width=".5" points="149.932 143.751 150.672 146.37 150.003 148.622 149.967 150.138 150.144 150.552 151.165 151.654 151.588 152.527 152.328 153.217 153.315 153.538 154.407 154.319 156.063 152.711 157.297 151.884 157.755 151.838 159.376 150.873 161.208 150.598 164.485 151.149 168.819 153.309 173.329 158.087 174.88 159.19 176.606 160.798 177.98 159.42 180.94 156.755 183.83 152.987 185.31 151.608 187.53 149.127 187.248 148.208 186.931 147.886 186.155 147.427 181.222 143.016 178.72 141.315 178.121 140.626 173.999 139.156 167.339 139.477 166.881 139.34 164.45 139.661 163.428 139.523 160.186 139.983 158.318 139.707 156.38 139.799 155.993 140.029 154.478 139.845 152.61 139.799 147.642 140.075 147.289 140.396 147.219 140.856 147.325 142.832 147.078 143.337 147.113 144.762 146.726 147.197 145.21 150.735 144.541 152.987 144.4 154.963 145.105 158.271 145.704 159.741 146.197 159.971 147.712 159.741 150.32 158.547 152.152 156.985 152.716 156.295 153.491 155.79 154.583 154.365 155.218 153.768 155.64 153.63 156.028 152.757 157.614 151.884 157.896 151.517 159.34 151.149 159.728 150.827 162.054 150.598 164.802 151.195 169.101 153.584 170.827 155.744 172.871 157.674 176.395 160.798 176.818 160.66 177.452 160.017 178.685 159.282 180.94 157.076 181.927 155.468 186.296 150.827 187.494 149.265 187.494 148.805 187.001 148.024 178.086 140.488 176.183 140.259 175.408 139.661 174.422 139.34 166.74 139.477 164.414 139.34 162.934 139.707 160.961 139.615 158.988 139.799 158.495 139.615 154.654 139.615 147.642 139.983 147.325 140.305 147.254 140.856 147.148 144.21 146.831 146.83 144.964 151.379 144.506 154.182 144.611 157.122 145.845 159.833 146.268 160.017 148.17 159.741 149.051 159.144 151.623 157.628 153.28 156.02 155.112 153.722 157.156 152.16 157.543 152.114 158.389 151.471 159.305 151.195 160.01 150.598 161.877 150.552 164.238 151.057 165.648 151.608 169.066 153.446 169.559 154.274 171.285 156.066 176.324 160.66 176.712 160.798 180.799 157.03 181.927 155.422 186.684 150.643 187.494 149.495 187.6 148.989 187.142 148.116 178.157 140.534 176.395 140.167 174.633 139.385 169.312 139.385 168.502 139.523 166.176 139.385 162.335 139.431 159.657 139.845 158.318 139.661 157.367 139.799 156.486 139.661 155.006 139.845 152.082 139.661 151.623 139.891 147.43 140.075 147.219 140.58 147.184 144.027 146.69 146.922 146.197 148.714 144.999 151.333 144.576 153.722 144.647 157.03 145.704 159.696 146.232 159.879 147.254 159.833 150.355 158.593 152.011 157.398 153.209 155.928 154.301 155.009 154.76 154.136 156.944 152.206 158.318 151.7 159.305 151.425 160.609 151.471 162.371 151.057 163.287 151.333 164.731 151.425 167.057 152.344 168.678 153.355 169.629 154.365 170.369 154.871 173.259 158.041 176.5 160.798 178.967 158.685 181.61 155.606 182.737 154.779 183.125 154.044 186.578 150.598 187.6 149.035 187.177 148.208 186.472 147.565 185.697 147.013 183.477 144.854 178.192 140.58 177.346 140.167 175.584 139.891 174.774 139.34 171.638 139.431 169.559 139.248 162.829 139.248 160.115 139.753 158.741 139.615 155.852 139.799 154.372 139.707 153.526 139.937 152.046 139.753 149.227 140.075 147.853 139.983 147.43 140.121 147.219 140.58 147.254 143.889 146.761 146.967 145.034 151.379 144.47 154.182 144.611 156.571 145.633 159.558 146.021 159.925 146.937 160.063 147.924 159.879 150.496 158.593 152.998 156.341 155.112 153.676 155.64 153.768 157.297 152.803 158.6 152.39 159.129 152.436 159.552 151.608 161.032 151.425 161.419 151.103 161.877 151.149 162.723 150.827 163.604 150.781 164.978 151.241 168.748 153.355 172.589 157.26 176.641 160.752 177.452 160.247 177.699 159.833 178.227 159.65 178.967 158.914 183.09 153.814 185.345 151.562 186.12 151.011 187.459 149.035 187.107 148.07 178.368 140.718 177.558 140.259 176.712 140.488 176.324 140.35 174.774 139.34 167.445 139.248 163.04 139.661 161.102 139.615 160.186 139.799 157.684 139.523 153.456 139.983 151.588 139.845 147.501 140.121 147.219 140.488 147.113 142.005 147.289 143.475 147.148 145.313 146.726 147.105 145.14 151.287 144.576 153.676 144.576 156.066 144.893 157.49 145.739 159.65 146.62 160.063 148.84 159.42 151.236 158.041 152.61 156.479 153.738 155.56 155.535 153.263 157.755 152.068 158.001 151.746 158.495 151.93 159.975 150.689 161.736 150.735 162.653 150.965 163.463 150.689 165.295 151.517 168.643 153.446 173.4 158.087 174.844 159.374 176.324 160.66 176.818 160.706 177.205 160.477 181.539 156.112 181.715 155.652 183.266 153.814 185.239 151.746 186.261 150.827 187.424 149.127 187.494 148.714 187.036 147.978 186.331 147.335 184.499 146.048 182.667 144.486 181.187 142.832 178.051 140.396 177.558 140.213 176.571 140.305 174.703 139.431 169.911 139.248 166.916 139.385 163.956 139.845 162.582 139.707 160.151 140.029 158.283 139.753 157.86 139.937 154.266 139.891 152.223 140.075 151.729 139.983 149.932 140.305 147.571 140.305 147.289 140.672 147.184 144.992 146.902 146.462 145.633 149.77 144.611 153.446 144.647 155.606 144.999 157.49 145.633 159.374 146.444 160.017 148.417 159.512 150.637 158.271 153.702 155.606 155.429 153.263 156.521 152.252 158.072 151.379 158.6 151.333 159.376 150.919 160.256 150.735 162.476 151.241 162.934 151.103 163.886 151.287 165.894 151.838 167.515 152.619 169.101 153.676 169.735 154.319 171.673 156.571 175.937 160.385 176.641 160.844 178.72 159.006 179.531 157.949 180.306 157.398 181.715 155.33 182.737 154.411 183.9 152.895 185.627 151.379 187.459 149.035 187.248 148.07 180.623 142.326 178.121 140.442 177.663 140.259 176.677 140.305 174.492 139.248 166.881 139.34 160.256 139.845 158.283 139.707 156.239 139.753 155.852 139.983 153.949 139.661 153.068 139.891 152.54 139.753 150.602 140.075 147.959 140.167 147.466 140.35 147.289 140.81 147.325 144.716 146.902 146.738 145.14 151.287 144.717 153.079 144.506 155.238 144.858 157.168 145.88 159.604 146.197 159.925 147.113 159.833 148.946 159.282 150.073 158.639 152.54 156.617 153.738 155.238"><title>2020-10-27 20.4km</title></polyline><polyline fill="none" stroke="#ff5e00" stroke-linecap="round" stroke-linejoin="round" stroke-width=".5" points="39.984 206.284 39.984 205.864 39.77 205.265 39.739 205.005 39.908 204.665 39.754 204.306 39.8 203.506 39.739 202.947 39.31 202.947 38.942 203.086 38.099 203.126 37.885 203.186 37.333 203.086 36.812 203.206 36.444 203.086 36.061 203.246 35.831 203.166 35.203 203.246 34.284 203.146 33.64 203.226 33.18 203.186 32.797 203.266 32.169 203.226 31.74 203.146 31.096 203.186 30.927 203.246 30.56 203.086 30.376 203.206 29.518 203.346 28.859 203.266 28.292 203.386 27.863 203.406 27.51 203.306 26.866 203.506 26.683 203.486 26.499 203.366 25.87 203.566 24.414 203.266 24.047 203.366 23.832 203.326 23.664 203.386 22.836 203.346 22.667 203.406 22.254 203.346 22.07 203.246 21.656 203.386 21.258 203.346 20.859 203.426 20.66 203.306 20.246 203.306 20.032 203.266 19.633 203.286 19.005 203.446 18.683 203.706 18.515 203.626 18.101 203.566 17.932 203.686 17.488 203.486 16.706 203.366 16.277 203.386 16.063 203.326 14.852 203.446 14.668 203.386 14.04 203.486 13.687 203.406 13.457 202.427 13.58 200.848 13.549 198.89 13.503 198.51 13.335 198.17 13.335 197.97 13.074 196.931 12.4 190.436 12.507 190.256 13.488 190.096 14.576 190.056 15.756 189.896 17.457 189.796 17.856 189.816 19.281 189.716 23.189 190.016 24.966 190.096 25.916 190.196 28.828 190.336 29.472 190.416 32.674 190.695 34.299 190.715 34.743 190.775 35.555 190.775 36.322 190.715 37.747 190.875 39.632 190.935 40.628 191.015 40.858 190.975 41.869 191.015 43.846 191.235 44.796 191.235 47.738 191.475 50.206 191.535 50.865 191.635 51.309 191.575 52.918 191.595 53.102 191.715 53.516 191.855 53.638 192.034 54.068 193.014 54.619 194.053 54.864 194.413 55.339 195.612 55.554 195.992 55.554 196.172 55.186 196.391 54.221 197.211 53.409 197.79 52.964 198.19 50.037 200.508 49.348 200.948 47.83 202.227 46.62 202.667 45.67 202.767 45.486 202.667 45.271 202.667 45.087 202.727 42.712 202.667 40.827 202.767 40.429 202.727 39.141 202.807 38.728 202.927 38.528 202.887 37.885 202.927 37.67 202.887 37.502 202.787 37.287 202.867 37.073 202.847 36.689 202.747 36.107 202.787 35.678 202.887 35.479 202.847 34.023 202.827 33.058 202.947 32.628 202.907 30.789 203.007 30.56 202.967 29.134 203.007 28.751 202.967 26.79 203.106 26.621 203.086 26.146 203.126 23.756 203.086 23.372 203.126 22.514 203.126 22.284 203.186 22.039 203.146 20.568 203.186 20.353 203.166 19.357 203.246 18.53 203.166 18.116 203.266 16.476 203.286 15.649 203.386 14.653 203.286 14.009 203.326 13.779 203.306 13.611 201.228 13.549 201.028 13.488 198.79 13.427 198.39 13.243 198.01 13.013 196.252 12.446 190.316 14.729 190.056 15.679 190.036 18.208 189.816 19.495 189.776 19.94 189.836 20.813 189.856 21.564 189.956 23.158 190.076 23.74 190.056 24.537 190.096 25.104 190.176 26.912 190.216 27.403 190.296 28.43 190.336 29.655 190.456 29.839 190.476 30.023 190.575 31.341 190.595 32.491 190.695 34.284 190.675 34.682 190.755 35.387 190.795 35.617 190.755 36.383 190.835 37.425 190.895 37.624 190.855 38.835 190.915 39.555 191.015 41.701 191.035 43.064 191.215 45.133 191.355 47.064 191.395 47.493 191.455 49.777 191.515 51.156 191.655 51.416 191.615 51.845 191.715 52.045 191.655 52.888 191.615 53.485 191.855 53.592 191.994 54.129 192.914 54.543 193.813 54.972 194.553 55.248 195.092 55.523 195.892 55.569 196.072 55.416 196.252 53.439 197.79 53.332 197.95 52.658 198.53 51.922 198.93 50.803 199.889 49.639 200.788 49.102 201.148 47.723 202.307 47.003 202.587 46.804 202.567 45.946 202.707 45.317 202.587 44.336 202.647 43.907 202.607 43.693 202.667 43.448 202.627 43.233 202.687 42.206 202.687 40.597 202.807 40.398 202.747 40.168 202.807 39.187 202.827 38.988 202.907 38.115 202.787 37.302 202.787 36.23 202.847 35.785 202.807 34.805 202.927 34.222 202.907 33.977 202.947 33.762 202.907 32.506 203.027 31.05 203.007 30.866 202.967 30.667 203.046 29.916 202.987 28.675 202.987 28.092 203.166 27.326 203.066 26.407 203.126 26.054 203.206 25.426 203.146 23.526 203.186 23.342 203.106 22.284 203.206 22.116 203.166 21.273 203.286 20.17 203.226 19.465 203.266 19.296 203.186 19.127 203.246 18.898 203.186 17.993 203.326 17.779 203.286 17.61 203.346 17.396 203.306 14.147 203.326 13.917 203.306 13.718 203.226 13.595 202.587 13.503 201.348 13.534 200.169 13.381 198.97 13.381 198.35 13.151 197.77 13.182 197.591 13.028 196.631 12.967 195.352 12.768 194.133 12.676 193.274 12.584 191.355 12.415 190.436 12.477 190.276 12.722 190.316 14.316 190.136 18.56 189.836 19.633 189.796 20.032 189.876 23.556 190.056 25.763 190.236 28.414 190.336 30.468 190.535 33.625 190.675 34.36 190.735 35.218 190.875 36.23 190.795 39.417 190.975 41.517 190.975 43.202 191.175 43.831 191.195 45.976 191.375 50.436 191.535 50.865 191.615 51.524 191.635 52.734 191.595 53.378 191.735 53.547 191.855 53.608 192.074 54.359 193.374 55.6 196.052 55.477 196.232 52.152 198.87 51.861 199.149 50.236 200.309 49.593 200.828 49.47 201.008 49.133 201.248 48.934 201.328 47.83 202.247 47.248 202.507 46.467 202.647 46.068 202.627 45.654 202.707 45.057 202.627 42.789 202.787 42.206 202.747 41.409 202.767 41.21 202.827 40.812 202.767 40.613 202.827 39.586 202.747 39.402 202.827 38.574 202.767 38.375 202.807 38.222 202.707 38.053 202.787 37.456 202.827 37.042 202.767 36.429 202.787 35.632 202.907 35.418 202.847 34.59 202.907 34.176 202.827 33.992 202.927 33.793 202.907 32.537 203.007 32.077 202.947 31.648 203.046 30.56 203.126 29.931 203.066 29.732 203.106 28.475 203.046 28.092 203.106 27.418 203.086 26.391 203.226 25.794 203.126 25.043 203.226 24.031 203.186 23.48 203.266 23.005 203.186 22.836 203.246 22.208 203.186 20.752 203.226 20.323 203.186 18.867 203.326 18.039 203.346 16.185 203.246 15.358 203.386 14.561 203.266 13.703 203.286 13.641 203.126 13.641 201.947 13.549 201.148 13.58 200.289 13.473 198.65 13.427 198.25 13.197 197.93 13.197 197.531 13.09 197.151 12.844 195.352 12.86 194.713 12.737 193.913 12.569 190.975 12.461 190.396 12.507 190.216 12.706 190.296 15.603 189.996 17.626 189.936 19.373 189.776 20.583 189.876 22.438 189.936 23.418 190.056 24.185 190.036 26.024 190.196 28.077 190.296 28.751 190.396 29.18 190.396 30.192 190.535 30.958 190.535 31.586 190.615 32.613 190.655 34.513 190.675 34.667 190.735 35.249 190.775 35.831 190.775 37.9 190.875 40.107 191.035 40.735 190.995 41.747 191.015 45.7 191.335 49.286 191.495 49.654 191.575 50.543 191.575 51.37 191.695 53.01 191.715 53.393 191.815 53.547 191.955 54.926 194.573"><title>2021-03-06 22.2km</title></polyline><polyline fill="none" stroke="#4dd2ff" stroke-linecap="round" stroke-linejoin="round" stroke-width=".5" points="105.455 207.38 105.624 207.28 105.838 206.921 105.899 206.721 105.869 206.462 105.976 205.863 105.96 205.484 105.991 205.105 105.915 204.706 105.884 203.868 105.823 203.488 105.838 203.289 105.777 202.67 105.685 202.491 105.762 202.111 105.762 201.892 105.685 201.712 105.287 201.652 105.104 201.692 104.43 201.712 104.231 201.692 104.032 201.632 103.16 201.752 102.793 201.732 102.609 201.792 102.41 201.752 101.752 201.832 100.849 201.772 100.65 201.792 100.436 201.752 100.222 201.812 99.793 201.772 98.738 201.872 98.508 201.932 98.125 201.872 97.712 201.912 97.498 201.852 97.115 201.832 95.799 201.912 95.417 201.972 95.233 201.892 95.019 201.952 94.789 201.892 94.162 201.932 93.948 201.892 93.075 201.872 90.933 202.071 90.55 202.071 90.336 202.012 89.663 202.071 89.265 202.032 88.837 202.052 88.607 202.032 87.781 202.111 87.337 202.091 87.138 202.032 84.919 202.191 84.751 202.171 84.521 202.231 84.353 202.171 83.863 202.211 83.679 202.251 83.098 202.211 82.639 202.251 82.44 202.191 81.139 202.211 80.91 202.131 80.466 202.111 80.068 202.111 79.869 202.131 79.731 201.992 79.655 201.792 79.624 201.193 79.578 201.014 79.594 199.337 79.517 198.918 79.532 198.499 79.471 198.12 79.441 197.322 79.226 196.923 79.18 196.324 79.089 195.945 79.058 195.526 78.905 194.667 78.936 194.248 78.874 193.61 78.89 193.41 78.737 192.392 78.691 191.534 78.522 190.337 78.538 190.137 78.461 189.498 78.4 189.279 78.522 189.139 78.752 189.139 78.92 189.079 80.451 188.9 80.91 188.94 81.598 188.82 83.435 188.76 83.878 188.7 84.338 188.7 84.98 188.66 85.194 188.62 85.608 188.62 86.434 188.72 86.878 188.74 87.077 188.72 87.872 188.8 88.515 188.8 89.143 188.86 90.229 188.86 90.642 188.92 91.652 188.979 92.509 189.079 92.922 189.059 93.963 189.119 94.361 189.199 95.417 189.219 95.876 189.299 96.519 189.319 97.391 189.438 97.62 189.419 97.835 189.478 98.248 189.458 98.462 189.498 98.646 189.478 98.86 189.518 99.503 189.538 100.176 189.518 101.002 189.658 101.783 189.618 102.211 189.658 102.38 189.638 103.191 189.658 103.405 189.718 104.094 189.698 104.706 189.738 104.905 189.718 105.119 189.778 105.593 189.798 105.807 189.838 106.863 189.858 107.307 189.818 107.95 189.878 108.791 190.017 110.49 190.097 110.919 190.177 111.133 190.137 111.745 190.217 113.612 190.317 114.454 190.337 115.311 190.396 116.397 190.377 117.009 190.496 117.208 190.496 117.621 190.536 118.096 190.496 118.295 190.516 118.723 190.496 118.937 190.516 119.488 190.676 119.641 190.856 119.901 191.454 120.33 192.173 120.36 192.392 120.468 192.592 120.513 192.771 121.202 194.009 121.6 194.967 121.263 195.166 120.835 195.586 120.513 195.785 120.391 195.945 119.84 196.264 119.718 196.424 119.381 196.683 118.754 197.282 117.744 198 117.407 198.3 116.55 198.858 115.907 199.417 115.081 200.016 114.943 200.136 114.806 200.315 114.148 200.774 114.025 200.914 113.673 201.173 113.321 201.333 112.495 201.533 112.311 201.493 112.128 201.533 111.929 201.513 111.684 201.553 111.271 201.493 109.97 201.553 109.327 201.632 108.302 201.612 108.088 201.573 106.863 201.652 106.664 201.612 106.481 201.652 106.312 201.553 105.869 201.632 104.522 201.672 104.338 201.712 104.109 201.712 103.91 201.672 103.466 201.712 103.252 201.692 103.053 201.752 102.64 201.792 102.058 201.752 101.079 201.832 100.681 201.772 99.334 201.832 99.151 201.792 98.477 201.792 97.62 201.872 97.406 201.832 97.223 201.852 97.039 201.812 96.626 201.892 96.213 201.892 95.784 201.952 95.6 202.012 95.401 202.012 95.203 202.071 95.019 202.012 94.805 202.071 94.147 201.892 93.535 201.912 93.29 201.952 92.877 201.932 92.678 201.972 92.249 201.972 91.622 202.071 91.178 202.032 90.979 202.052 90.367 201.992 89.984 202.052 89.801 202.012 89.586 202.052 88.99 202.032 88.561 202.091 87.98 202.071 87.796 202.012 87.138 202.111 86.312 202.071 85.883 202.151 85.669 202.111 85.026 202.211 84.812 202.291 83.756 202.231 83.373 202.231 83.006 202.271 82.792 202.231 81.522 202.251 80.864 202.171 80.405 202.171 79.991 202.231 79.777 202.211 79.67 201.772 79.594 201.193 79.594 199.058 79.532 198.479 79.502 197.242 79.456 197.062 79.333 196.923 79.242 196.743 79.196 196.164 78.844 193.53 78.706 191.734 78.691 190.836 78.599 190.436 78.568 189.798 78.477 189.199 78.645 189.079 78.844 189.119 79.058 189.059 79.869 188.92 80.451 188.94 80.665 188.9 80.894 188.92 82.042 188.78 83.113 188.76 83.542 188.7 84.016 188.72 85.485 188.62 86.082 188.7 87.322 188.76 87.505 188.76 88.699 188.9 89.342 188.9 89.739 188.959 90.382 188.959 91.821 189.059 93.121 189.059 93.963 189.159 94.391 189.159 95.83 189.259 96.243 189.319 96.916 189.299 97.1 189.379 98.523 189.498 100.268 189.558 100.467 189.578 100.666 189.678 100.88 189.698 101.538 189.638 102.196 189.638 102.594 189.658 102.808 189.698 103.833 189.718 104.247 189.778 104.92 189.778 106.159 189.878 107.628 189.878 108.853 190.017 109.48 190.037 110.306 190.117 110.505 190.097 110.689 190.137 112.525 190.197 113.076 190.277 113.643 190.297 114.025 190.277 114.989 190.396 116.351 190.416 116.78 190.456 116.948 190.536 117.545 190.496 118.371 190.516 118.601 190.476 118.8 190.496 119.014 190.516 119.565 190.716 119.794 191.295 120.207 192.033 120.269 192.213 120.835 193.31 121.156 193.869 121.539 194.787 121.585 195.007 121.386 195.107 119.641 196.563 119.106 196.903 118.647 197.282 118.31 197.501 118.172 197.641 117.82 197.861 117.529 198.12 117.361 198.22 117.254 198.38 117.086 198.459 116.443 198.998 116.106 199.218 115.816 199.517 114.53 200.455 114.117 200.834 113.765 201.074 113.214 201.353 111.837 201.553 111.24 201.513 110.628 201.593 109.832 201.573 108.455 201.672 107.904 201.652 107.705 201.672 107.475 201.652 107.047 201.672 106.649 201.632 106.251 201.712 105.869 201.692 105.67 201.752 105.471 201.732 105.272 201.732 105.058 201.812 104.843 201.852 104.66 201.752 104.231 201.812 104.048 201.892 103.833 201.892 103.665 201.832 103.481 201.892 103.237 201.852 103.022 201.852 102.823 201.832 102.624 201.752 101.813 201.812 101.416 201.792 101.171 201.752 100.39 201.892 99.61 201.812 99.166 201.812 98.768 201.912 98.6 201.832 98.202 201.912 98.003 201.912 97.819 201.972 97.62 201.932 97.406 201.992 97.024 201.992 96.61 202.091 95.616 202.131 95.386 202.111 95.004 202.131 94.636 202.111 94.453 202.151 94.238 202.151 94.055 202.091 93.427 201.952 93.03 201.932 92.463 202.012 91.882 202.052 91.698 202.111 91.331 202.191 91.147 202.131 90.964 202.171"><title>2021-03-13 12.7km</title></polyline><polyline fill="none" stroke="#ff3f00" stroke-linecap="round" stroke-linejoin="round" stroke-width=".5" points="169.61 204.115 169.549 204.314 169.595 204.733 169.488 205.172 169.809 205.811 169.58 206.748 169.595 206.968 169.396 207.486 169.427 207.666 169.595 207.765 169.702 207.905 169.901 207.885 170.268 207.406 170.421 207.307 171.354 206.748 171.737 206.688 171.859 206.529 171.798 205.511 171.874 204.474 171.737 204.274 171.691 204.055 171.782 202.28 171.691 201.302 171.538 201.182 170.314 201.142 169.748 201.242 169.58 201.142 168.845 201.342 168.448 201.282 167.637 201.302 167.224 201.162 164.639 201.202 164.424 201.282 163.583 201.282 162.925 201.342 162.711 201.402 160.401 201.362 159.162 201.482 157.923 201.402 157.112 201.502 156.684 201.462 155.062 201.482 154.466 201.561 153.64 201.462 153.456 201.521 152.232 201.521 150.947 201.641 150.519 201.601 150.32 201.661 149.708 201.741 149.158 201.641 147.261 201.681 146.404 201.581 145.991 201.641 145.792 201.621 145.67 201.242 145.608 200.624 145.563 198.469 145.471 196.813 145.44 196.614 145.241 196.275 145.088 195.497 144.92 194.459 144.844 192.963 144.645 191.387 144.675 191.008 144.4 188.713 144.584 188.594 146.052 188.414 151.177 188.095 154.955 188.354 156.837 188.414 157.663 188.454 158.305 188.534 159.59 188.574 161.059 188.654 162.788 188.873 166.184 188.993 167.01 189.212 168.126 189.152 170.834 189.272 171.645 189.372 173.542 189.372 175.087 189.531 178.727 189.751 181.007 189.831 181.603 189.791 182.016 189.811 182.842 189.97 184.693 189.97 185.137 190.07 185.489 190.23 187.034 193.202 187.539 194.359 187.539 194.539 186.835 195.018 185.091 196.434 184.25 197.033 183.959 197.332 181.787 198.988 181.099 199.427 179.691 200.624 178.896 200.943 178.498 201.023 178.116 200.983 177.733 201.043 176.066 201.063 174.658 201.162 173.419 201.103 172.241 201.202 171.584 201.202 170.605 201.342 170.023 201.262 168.386 201.242 166.948 201.362 166.306 201.302 163.399 201.442 163.002 201.382 162.16 201.442 161.518 201.442 161.151 201.502 160.11 201.422 158.198 201.521 157.602 201.482 155.98 201.561 155.567 201.521 154.94 201.521 154.313 201.621 153.487 201.521 153.318 201.601 152.905 201.621 151.284 201.581 150.488 201.681 149.479 201.641 147.995 201.741 146.771 201.661 146.113 201.741 145.716 201.641 145.608 200.604 145.624 199.945 145.486 199.387 145.44 198.569 145.44 196.913 145.41 196.714 145.241 196.335 145.042 195.337 145.073 195.157 144.752 192.743 144.66 190.748 144.4 188.973 144.415 188.753 144.599 188.634 146.006 188.494 151.498 188.155 152.951 188.314 153.777 188.294 155.384 188.434 156.424 188.434 158.244 188.594 159.468 188.614 162.191 188.873 165.052 189.092 166.26 189.112 166.673 189.192 167.101 189.212 169.044 189.212 171.431 189.372 172.456 189.372 173.067 189.332 174.689 189.511 176.402 189.551 176.815 189.651 179.018 189.811 181.037 189.89 182.521 189.871 182.888 189.99 183.546 189.97 184.984 190.01 185.55 190.27 186.697 192.484 187.554 194.359 187.478 194.579 185.978 195.776 185.152 196.354 184.556 196.893 182.016 198.788 181.114 199.507 180.487 200.025 180.288 200.125 179.814 200.564 179.064 200.903 178.452 200.923 178.314 201.043 178.116 201.083 177.519 201.043 176.249 201.103 175.041 201.083 173.832 201.242 172.241 201.202 171.094 201.402 170.742 201.262 170.13 201.282 169.473 201.202 169.258 201.242 168.876 201.422 167.407 201.322 165.587 201.302 164.394 201.342 163.384 201.482 162.986 201.462 162.788 201.541 161.931 201.661 160.508 201.781 160.279 201.781 160.141 201.661 159.713 201.561 159.529 201.442 158.933 201.442 157.938 201.601 157.326 201.601 155.506 201.761 154.68 201.721 154.313 201.621 153.747 201.581 152.752 201.661 151.911 201.641 151.054 201.741 150.641 201.701 150.182 201.761 149.158 201.661 148.117 201.781 147.062 201.701 145.792 201.761 145.67 201.621 145.624 201.402 145.547 199.926 145.578 198.509 145.471 196.614 145.257 196.295 145.241 195.896 145.119 195.517 144.859 193.781 144.859 192.903 144.706 191.526 144.645 190.11 144.415 188.773 144.599 188.654 146.251 188.494 148.087 188.354 148.484 188.374 149.463 188.314 149.678 188.254 151.513 188.135 152.905 188.274 154.94 188.394 158.535 188.614 159.759 188.634 161.747 188.793 161.961 188.873 163.185 188.953 164.593 188.993 164.96 189.072 166.214 189.053 166.811 189.152 167.866 189.112 168.218 189.212 168.631 189.172 171.691 189.372 173.893 189.312 175.316 189.531 178.865 189.791 180.41 189.831 181.007 189.91 182.429 189.89 183.041 189.99 183.256 189.95 185.091 189.99 185.428 190.17 185.565 190.329 186.3 191.806 186.805 192.644 187.309 193.721 187.6 194.459 186.055 195.756 185.367 196.195 184.097 197.252 183.408 197.691 181.405 199.327 180.441 199.985 179.844 200.544 179.278 200.803 178.376 201.023 177.779 201.103 177.397 201.023 176.769 201.023 176.326 201.103 173.419 201.142 173.022 201.202 172.639 201.122 171.844 201.122 171.431 201.242 170.666 201.322 170.452 201.282 170.008 201.322 169.457 201.162 169.044 201.222 168.065 201.502 167.851 201.521 167.316 201.422 166.918 201.262 166.52 201.302 166.153 201.222 165.725 201.322 164.44 201.422 164.225 201.502 162.604 201.482 161.977 201.402 160.738 201.502 160.187 201.402 159.131 201.362 158.917 201.402 158.259 201.382 157.908 201.502 157.724 201.482 157.51 201.581 156.347 201.521 155.751 201.601 154.971 201.541 154.19 201.661 153.012 201.601 151.819 201.801 150.993 201.781 150.198 201.861 148.515 201.761 147.704 201.861 147.276 201.841 146.664 201.721 146.037 201.681 145.853 201.721 145.67 201.661 145.593 197.97 145.471 197.372 145.517 196.973 145.394 196.614 145.272 196.454 145.073 195.297 144.935 193.242 144.553 190.409 144.461 189.312 144.461 188.713 144.859 188.614 146.327 188.434 147.72 188.394 149.081 188.254 150.672 188.155 151.697 188.115 155.674 188.454 157.127 188.474 160.508 188.634 162.114 188.893 163.109 188.873 164.792 188.973 166.275 188.993 166.872 189.212 167.071 189.152 167.851 189.112 170.299 189.292 170.88 189.272 171.721 189.352 173.465 189.312 173.893 189.332 174.873 189.491 178.926 189.751 184.127 189.97 184.739 189.93 185.152 189.99 185.336 190.13 185.535 190.17 186.866 192.823 187.585 194.479 186.162 195.616 185.183 196.335 184.418 196.993 184.097 197.192 183.194 197.931 181.879 198.948 181.053 199.527 180.762 199.826 180.227 200.205 179.798 200.584 179.278 200.823 178.743 200.983 178.376 201.023 177.626 200.963 175.653 201.103 175.01 201.063 174.215 201.043 173.786 201.122 173.404 201.003 172.593 201.122 172.15 201.162 171.752 201.122 170.758 201.322 170.559 201.242 169.09 201.322 168.493 201.242 168.31 201.322 168.111 201.262 167.882 201.342 167.683 201.302 165.816 201.342 165.587 201.382 165.403 201.342 164.608 201.382 164.21 201.462 163.43 201.422 162.283 201.521 161.487 201.422 160.921 201.442 160.722 201.502 159.468 201.521"><title>2021-03-14 24.5km</title></polyline><polyline fill="none" stroke="red" stroke-linecap="round" stroke-linejoin="round" stroke-width=".5" points="38.001 256.07 38.836 255.416 39.049 255.297 39.611 255.08 39.763 254.961 39.96 254.565 40.021 253.139 39.854 252.109 39.96 250.723 39.93 250.327 39.778 249.991 39.945 249.456 40.097 249.337 41.296 249.377 42.632 249.337 42.845 249.278 44.743 249.179 45.35 249.238 46.641 249.119 47.066 249.139 47.461 249.02 47.826 248.822 49.238 247.773 50.392 246.763 52.305 245.278 52.502 245.198 52.776 244.901 54.598 243.614 54.871 243.277 55.509 242.723 55.266 241.99 53.763 239.119 53.17 237.752 52.988 237.693 51.971 237.792 50.483 237.733 47.765 237.554 44.394 237.435 43.194 237.297 40.917 237.257 38.988 237.079 38.183 237.138 37.804 236.96 36.862 236.881 28.435 236.465 28.253 236.544 28.116 236.921 27.919 236.96 25.307 236.822 24.654 236.723 23.394 236.703 19.385 236.445 12.734 236.861 12.704 237.079 13.22 240.782 13.554 244.287 13.569 244.485 13.721 244.584 13.767 244.802 13.888 246.288 13.979 249.614 14.101 249.793 14.328 249.852 14.997 249.832 15.634 249.931 16.606 249.911 17.213 249.812 17.639 249.852 17.821 249.812 17.988 249.892 20.023 249.733 20.676 249.793 20.858 249.733 21.86 249.733 22.285 249.773 22.908 249.694 24.35 249.713 25.383 249.634 25.778 249.713 26.613 249.733 27.023 249.595 28.708 249.476 30.348 249.595 31.396 249.575 32.018 249.515 33.537 249.595 34.159 249.515 34.812 249.535 35.875 249.436 36.938 249.515 37.546 249.456 37.956 249.495 38.168 249.416 40.795 249.456 42.329 249.218 43.133 249.258 43.316 249.198 44.166 249.179 44.379 249.238 44.576 249.198 44.971 249.198 46.353 249.238 47.309 249.02 48.008 248.624 50.847 246.446 53.641 244.268 55.6 242.644 55.463 242.466 54.643 240.703 54.218 239.99 53.398 238.148 53.17 237.772 52.973 237.673 52.366 237.713 50.726 237.693 50.346 237.614 47.218 237.534 39.11 237.059 38.457 237.138 37.986 237.039 37.819 236.94 34.099 236.802 33.112 236.604 31.563 236.604 30.697 236.485 28.101 236.326 27.903 236.406 27.008 236.425 25.383 236.227 21.404 236.029 20.539 235.93 16.014 236.128 15.422 236.247 15.331 236.445 15.27 236.247 14.814 236.326 12.597 236.465 12.4 236.544 12.415 236.762 12.567 236.901 12.795 236.901 12.749 237.099 12.871 237.911 12.901 238.96 13.023 239.594 13.433 244.386 13.63 244.525 13.751 244.882 13.903 247.733 13.888 249.317 13.949 249.713 14.374 249.832 14.997 249.832 15.437 249.733 16.636 249.733 16.849 249.654 17.669 249.753 18.747 249.694 19.385 249.753 20.296 249.674 20.934 249.694 21.146 249.634 21.814 249.694 23.257 249.674 24.532 249.634 25.611 249.595 27.524 249.456 29.331 249.535 30.682 249.476 31.517 249.515 31.958 249.476 32.838 249.555 34.266 249.396 34.478 249.456 35.055 249.456 36.665 249.337 36.893 249.416 37.287 249.416 37.895 249.317 39.003 249.396 40.385 249.297 40.825 249.416 41.478 249.456 41.873 249.456 42.982 249.238 45.335 249.179 45.73 249.258 46.322 249.258 46.884 249.02 47.097 249.04 47.658 248.862 48.22 248.525 50.377 246.802 51.303 246.01 52.199 245.396 52.593 245 54.689 243.476 54.78 243.297 54.962 243.218 55.539 242.743 55.524 242.545 55.387 242.426 55.16 241.673 54.613 240.782 53.58 238.703 53.307 238.426 52.882 238.267 43.316 237.792 41.812 237.633 39.018 237.614 36.437 237.416 35.799 237.435 35.071 237.534 34.493 237.317 34.084 237.257 32.656 237.297 32.003 237.237 31.791 237.158 30.515 237.138 25.778 236.802 25.368 236.723 24.031 236.703 21.921 236.623 19.597 236.406 15.801 236.723 14.981 236.703 14.571 236.822 12.901 236.822 12.825 237 12.886 237.158 12.977 238.723 13.341 241.574 13.508 243.693 13.615 244.406 13.767 244.565 13.827 244.763 13.918 245.733 13.873 246.486 14.01 249.654 14.177 249.753 15.452 249.832 16.91 249.812 17.335 249.753 18.717 249.793 19.172 249.713 20.023 249.793 20.964 249.694 21.389 249.713 21.571 249.634 21.754 249.694 22.771 249.753 23.439 249.634 25.14 249.694 26.446 249.595 26.673 249.634 27.25 249.614 27.919 249.535 28.541 249.595 30.181 249.535 31.867 249.575 33.355 249.416 33.765 249.456 34.554 249.377 34.752 249.416 34.979 249.377 35.207 249.416 36.255 249.396 37.333 249.456 38.927 249.436 39.337 249.416 39.747 249.278 40.157 249.357 40.552 249.278 40.734 249.377 41.311 249.436 41.767 249.396 42.329 249.238 43.118 249.179 44.318 249.218 44.47 249.099 45.593 249.198 46.337 249.099 46.489 249.179 47.081 249.119 47.81 248.783 51.5 245.852 52.593 245.099 54.066 243.852 54.264 243.753 55.539 242.763 55.554 242.545 55.342 242.228 54.871 241.079 53.55 238.604 53.444 238.465 52.836 238.247 50.923 238.247 49.982 238.129 46.383 238.01 41.357 237.594 39.914 237.614 36.149 237.435 35.146 237.515 34.402 237.356 32.428 237.317 31.593 237.198 30.348 237.158 27.873 236.901 25.413 236.742 23.5 236.703 19.491 236.425 15.164 236.762 12.962 236.822 12.825 236.94 13.129 239.634 13.357 242.505 13.584 244.327 13.782 244.703 13.949 246.585 14.04 248.664 14.01 249.674 14.085 249.852 14.268 249.892 15.255 249.911 15.892 249.852 16.94 249.931 18.018 249.872 19.081 249.892 19.248 249.832 20.296 249.872 20.706 249.832 21.131 249.931 21.784 249.892 21.981 249.931 23.06 249.773 24.32 249.812 24.958 249.733 25.611 249.793 26.415 249.713 26.598 249.753 27.448 249.674 28.101 249.694 29.057 249.595 29.452 249.595 29.65 249.654 30.788 249.634 31.396 249.733 33.491 249.674 34.311 249.575 34.903 249.614 35.329 249.555 36.786 249.575 37.789 249.515 38.168 249.416 39.125 249.436 40.203 249.495 40.567 249.337 41.342 249.436 41.934 249.396 42.724 249.238 43.346 249.238 43.999 249.159 44.88 249.258 45.016 249.159 45.609 249.08 45.943 249.258 46.307 249.218 46.489 249.278 46.854 249.198 47.021 249.099 47.431 249.08 47.841 248.901 48.934 247.931 49.632 247.416 50.483 246.664 52.305 245.337 53.14 244.624 54.81 243.277 55.509 242.782 55.539 242.565 55.114 241.574 54.173 239.911 53.565 238.624 53.201 238.366 52.776 238.287 50.938 238.247 49.238 238.089 46.52 237.99 44.045 237.812 43.847 237.871 41.812 237.633 40.005 237.633 37.105 237.435 35.89 237.416 34.919 237.515 34.736 237.455 34.585 237.317 33.036 237.376 31.396 237.178 30.227 237.158 28.769 237.039 28.162 236.921 26.066 236.861 22.665 236.604 22.012 236.623 19.704 236.425 14.328 236.723 12.901 236.841 12.84 237.039 13.569 244.129 13.797 244.683 13.964 249.238 14.116 249.773 14.662 249.872 16.712 249.812 17.745 249.892 20.326 249.793 21.161 249.852 22.665 249.713 24.654 249.713 25.504 249.634 25.914 249.674 28.025 249.575 28.663 249.674 30.136 249.634 31.381 249.674 32.155 249.575 33.157 249.595"><title>2021-03-27 29.1km</title></polyline><polyline fill="none" stroke="#4dd2ff" stroke-linecap="round" stroke-linejoin="round" stroke-width=".5" points="104.219 255.666 104.372 255.526 104.786 255.406 104.985 255.247 105.505 254.987 105.842 254.767 105.766 254.328 105.827 254.128 105.781 253.549 105.72 253.33 105.857 253.19 106.041 253.11 105.919 252.75 105.934 252.531 105.842 252.331 105.812 251.892 105.75 251.712 105.674 251.053 105.766 250.893 105.781 250.654 105.597 249.715 105.628 249.515 105.919 249.276 106.103 249.335 106.24 249.475 106.409 249.535 107.113 249.495 107.542 249.495 110.237 249.256 110.452 249.296 110.666 249.236 111.11 249.236 112.366 249.316 112.948 249.156 113.162 249.116 113.53 248.976 113.729 248.896 114.035 248.577 114.847 247.918 115.98 247.099 118.491 245.102 120.191 243.843 120.635 243.424 121.294 242.945 121.477 242.785 121.493 242.565 121.278 242.226 120.819 241.167 120.482 240.668 120.421 240.488 119.87 239.41 119.808 239.19 119.563 238.811 119.395 238.431 118.828 238.251 117.205 238.171 116.791 238.191 116.363 238.131 114.908 238.092 114.096 238.012 113.086 237.992 111.922 237.932 111.738 237.892 110.559 237.852 108.752 237.732 107.848 237.592 107.037 237.632 106.547 237.552 105.536 237.592 104.311 237.472 102.688 237.432 101.876 237.353 101.478 237.353 101.325 237.452 100.681 237.373 100.283 237.253 99.732 237.293 98.109 237.233 96.302 237.093 96.087 237.033 95.674 237.033 94.786 236.913 94.556 236.933 92.335 236.773 91.968 236.793 91.187 236.674 90.988 236.693 89.548 236.614 88.063 236.594 86.991 236.494 86.195 236.474 85.414 236.334 84.311 236.374 81.325 236.614 80.222 236.634 78.967 236.753 78.768 236.733 78.538 236.753 78.4 236.913 78.477 237.932 78.553 238.351 78.553 238.771 78.66 239.41 78.89 241.527 78.951 243.384 79.074 243.784 79.15 244.443 79.288 244.582 79.334 244.802 79.518 248.117 79.533 249.555 79.625 249.715 80.268 249.755 81.095 249.915 81.692 249.875 82.336 249.895 82.535 249.875 82.948 249.895 83.132 249.995 83.316 249.935 83.499 249.955 83.867 249.915 84.081 249.975 84.311 249.895 86.026 249.915 87.374 249.815 87.741 249.875 87.925 249.815 88.323 249.875 89.38 249.835 90.728 249.755 91.141 249.675 91.524 249.695 93.147 249.675 93.53 249.855 93.714 249.795 94.127 249.735 94.556 249.795 95.199 249.735 95.965 249.775 96.149 249.775 96.332 249.695 97.205 249.715 97.389 249.675 97.986 249.715 98.829 249.695 99.64 249.615 100.498 249.595 100.681 249.635 100.865 249.575 101.539 249.635 102.335 249.535 102.519 249.575 103.392 249.555 103.821 249.495 104.005 249.535 104.204 249.515 104.816 249.555 105.245 249.535 105.597 249.455 106.24 249.495 106.623 249.415 106.807 249.435 107.22 249.455 108.047 249.395 108.43 249.435 109.671 249.296 110.298 249.316 110.498 249.355 112.81 249.256 113.208 249.136 113.744 248.876 115.168 247.638 115.72 247.298 116.776 246.42 117.726 245.761 118.323 245.201 118.507 245.122 119.027 244.742 120.115 243.823 120.298 243.744 121.278 242.965 121.554 242.665 121.217 242.086 121.064 241.667 120.681 240.928 119.747 239.15 119.625 238.751 119.38 238.431 119.165 238.391 118.844 238.251 117.312 238.151 116.317 238.171 113.652 238.032 112.856 237.932 110.39 237.852 108.813 237.732 107.588 237.572 107.22 237.572 106.654 237.532 105.796 237.572 104.035 237.452 102.994 237.452 101.57 237.333 101.325 237.412 101.126 237.412 100.942 237.353 100.482 237.333 100.299 237.273 99.518 237.333 98.813 237.293 98.384 237.233 96.103 237.053 95.429 237.053 94.219 236.893 93.423 236.873 92.228 236.773 90.973 236.753 90.36 236.654 89.518 236.614 87.068 236.534 85.046 236.334 80.023 236.693 78.752 236.733 78.553 236.773 78.415 236.893 78.538 238.491 78.492 238.87 78.614 239.49 78.89 242.685 79.104 244.303 79.349 244.682 79.319 245.461 79.411 246.34 79.441 247.778 79.487 248.437 79.441 248.617 79.518 249.615 79.64 249.775 80.085 249.775 80.697 249.935 80.896 249.935 81.08 250.014 81.555 249.975 81.815 250.014 82.045 249.955 82.428 250.074 82.596 250.014 83.224 249.955 83.668 250.034 83.852 249.995 84.28 250.054 85.291 249.895 86.087 249.995 87.711 249.855 88.277 249.935 88.706 249.935 89.579 249.895 89.778 249.835 91.646 249.795 92.213 249.815 93.025 249.735 93.208 249.675 93.622 249.655 94.081 249.695 94.954 249.695 95.169 249.655 96.026 249.715 96.455 249.695 96.685 249.755 97.649 249.655 98.461 249.695 99.058 249.635 99.671 249.635 100.1 249.575 100.528 249.655 101.371 249.595 101.738 249.635 101.922 249.595 102.351 249.575 102.733 249.635 103.193 249.595 103.591 249.655 104.173 249.615 104.602 249.655 104.786 249.615 105 249.615 105.184 249.515 105.367 249.595 106.853 249.495 107.052 249.455 107.634 249.475 108.706 249.355 109.272 249.375 109.9 249.316 110.543 249.335 111.171 249.276 112.182 249.296 112.932 249.236 113.346 249.136 113.897 248.816 114.862 247.977 115.015 247.818 116.991 246.26 117.863 245.661 118.889 244.802 120.007 243.983 120.13 243.804 120.88 243.304 121.6 242.665 121.171 241.946 121.11 241.706 120.987 241.567 120.911 241.327 120.329 240.229 120.069 239.849 119.41 238.491 118.828 238.271 117.94 238.191 116.945 238.211 116.301 238.131 116.056 238.171 113.239 238.032 112.81 238.052 112.396 237.972 108.92 237.752 107.358 237.592 104.954 237.592 104.311 237.512 103.851 237.512 101.753 237.393 101.294 237.472 100.651 237.452 100.482 237.353 100.069 237.293 99.028 237.293 98.645 237.253 98.048 237.253 97.251 237.133 95.827 237.093 94.617 236.893 92.29 236.853 90.299 236.674 86.302 236.494 85.276 236.374 85.031 236.434 84.801 236.414 81.187 236.594 80.391 236.674 78.523 236.793 78.461 236.993 78.477 237.412 78.691 239.729 78.829 240.788 78.813 241.407 79.058 243.744 79.058 244.123 79.104 244.323 79.334 244.642 79.426 245.681 79.579 249.515 79.594 249.715 79.717 249.895 80.375 249.955 80.743 250.074 81.907 250.114 82.902 250.054 83.254 250.114 83.79 250.074 83.974 250.134 84.954 250.154 85.352 250.234 86.731 250.054 86.899 250.114 87.343 249.975 87.986 249.935 88.614 249.995 89.288 249.915 89.931 249.975 90.115 249.895 90.544 249.955 91.156 249.875 92.228 249.855 92.672 249.715 93.101 249.655 93.652 249.715 94.296 249.695 94.878 249.895 95.061 249.895 95.49 249.875 96.348 249.715 96.746 249.795 97.603 249.735 97.787 249.795 97.833 249.975 97.787 249.795 97.971 249.795 98.323 249.675 98.507 249.715 99.548 249.615 100.314 249.635 100.513 249.575 101.11 249.535 101.707 249.655 102.305 249.615 102.488 249.675 103.224 249.675 103.438 249.615 103.668 249.655 104.035 249.635 104.25 249.695 105.168 249.695 105.383 249.755 105.995 249.615 106.593 249.675 106.975 249.595 107.542 249.555 108.185 249.435 108.614 249.435 109.058 249.375"><title>2021-04-10 18.0km</title></polyline></svg>