<svg xmlns="http://www.w3.org/2000/svg" xmlns:ev="http://www.w3.org/2001/xml-events" xmlns:xlink="http://www.w3.org/1999/xlink" width="200mm" height="300mm" baseProfile="full" version="1.1" viewBox="0 0 200 300"><rect width="200" height="300" x="0" y="0" fill="#222"/><text style="font-size:12px;font-family:Arial;font-weight:700" x="10" y="20" fill="#FFF">Over 10km Runs</text><text style="font-size:4px;font-family:Arial" x="10" y="280" fill="#FFF">ATHLETE</text><text style="font-size:9px;font-family:Arial" x="10" y="290" fill="#FFF">DuanFei</text><text style="font-size:4px;font-family:Arial" x="120" y="280" fill="#FFF">STATISTICS</text><text style="font-size:3px;font-family:Arial" x="120" y="285" fill="#FFF">Number: 45</text><text style="font-size:3px;font-family:Arial" x="120" y="290" fill="#FFF">Weekly: 2.8</text><text style="font-size:3px;font-family:Arial" x="141" y="285" fill="#FFF">Total: 358.0 km</text><text style="font-size:3px;font-family:Arial" x="141" y="290" fill="#FFF">Avg: 8.0 km</text><text style="font-size:3px;font-family:Arial" x="167" y="285" fill="#FFF">Min: 5.2 km</text><text style="font-size:3px;font-family:Arial" x="167" y="290" fill="#FFF">Max: 23.6 km</text><polyline fill="none" stroke="#4dd2ff" stroke-linecap="round" stroke-linejoin="round" stroke-width=".5" points="21.091 32.855 21.45 32.23 26.955 32.126 29.866 32.855 32.1 32.178 36.129 33.585 34.174 56.571 31.622 58.5 13.632 52.141 16.224 32.021 30.425 32.49 32.14 33.741 36.209 33.637 34.174 56.415 33.137 57.822 31.342 58.448 13.831 51.88 16.424 31.761 26.117 32.23 36.368 33.794 34.334 55.79 33.456 57.718 31.542 58.448 13.951 51.88 16.424 31.865 19.695 31.5 21.091 32.126"><title>2020-06-12 5.5km</title></polyline><polyline fill="none" stroke="#4dd2ff" stroke-linecap="round" stroke-linejoin="round" stroke-width=".5" points="51.442 32.34 62.698 32.34 66.236 33.706 65.07 50.621 63.623 57.66 62.135 58.5 60.447 58.342 48.066 54.193 43.764 51.987 44.206 46.471 46.337 31.868 62.899 32.498 66.276 33.549 64.427 56.294 62.537 58.342 60.166 58.237 50.558 54.981 43.724 52.039 45.613 34.494 46.176 31.973 47.141 31.5 56.186 31.815 59.12 32.603 63.14 32.34 66.397 33.759 64.467 55.769 63.703 57.449 62.135 58.447 54.9 56.767 43.603 51.882 45.252 39.012"><title>2020-06-16 5.2km</title></polyline><polyline fill="none" stroke="#4dd2ff" stroke-linecap="round" stroke-linejoin="round" stroke-width=".5" points="81.281 32.837 85.177 32.117 90.884 32.58 95.922 34.277 93.914 56.906 92.34 58.243 90.805 58.449 74.039 52.072 76.322 32.271 80.139 31.5 94.702 33.609 95.882 34.123 96 36.437 94.82 49.552 93.914 56.34 92.261 58.346 90.057 58.191 74.078 52.072 76.007 33.454 76.558 32.22 80.651 31.809 91.514 32.786 95.843 34.072 94.072 55.672 93.403 57.471 91.514 58.5 74 51.866 76.125 34.792"><title>2020-07-10 5.3km</title></polyline><polyline fill="none" stroke="#4dd2ff" stroke-linecap="round" stroke-linejoin="round" stroke-width=".5" points="112.048 31.969 115.12 31.552 124.733 32.803 126.169 33.533 124.214 56.363 123.337 57.822 121.183 58.5 111.171 55.164 103.911 51.672 106.145 32.23 107.86 31.5 118.909 32.595 121.661 32.23 126.329 33.637 124.414 55.477 123.177 57.822 121.223 58.448 112.886 55.321 111.171 55.633 103.711 51.724 106.185 32.073 106.982 31.5 111.091 31.552 113.045 32.282 122.619 32.543 126.329 33.689 124.095 56.78 121.582 58.5 114.601 56.155 113.045 55.008 111.37 55.164 103.632 51.464 106.105 32.907 106.663 31.656 114.681 31.709 126.368 33.533 124.055 56.05 123.137 57.562 121.183 58.239 111.41 55.216 103.791 51.62 106.145 31.865 107.262 31.709"><title>2020-07-18 7.2km</title></polyline><polyline fill="none" stroke="#ffb100" stroke-linecap="round" stroke-linejoin="round" stroke-width=".5" points="141.924 32.663 151.326 32.612 155.621 34.079 153.88 55.921 152.952 57.539 151.133 58.247 134.146 52.079 136.623 32.309 142.891 31.955 154.074 33.472 155.699 34.18 155.854 34.888 154.848 50.309 153.803 56.124 152.836 57.64 151.713 58.247 149.353 57.944 134.262 52.129 134.533 47.579 136.739 32.208 144.362 31.955 155.699 34.23 154.886 50.107 153.764 56.073 152.178 58.045 149.508 58.096 134.185 51.978 136.391 33.624 137.01 32.157 144.632 31.854 155.583 34.028 154.074 56.225 152.565 58.096 151.094 58.5 134.146 51.775 136.507 32.865 137.01 32.157 140.415 31.601 144.748 31.5 149.044 32.916 152.487 32.865 155.854 34.23 155.041 48.792 153.803 55.972 152.332 57.994 150.436 58.247 134.224 51.826 136.507 32.764 137.126 32.107 140.531 31.652 153.068 33.219 155.738 34.23 153.725 56.124 152.952 57.539 150.94 58.247 134.146 52.079 136.932 32.309"><title>2020-07-31 10.8km</title></polyline><polyline fill="none" stroke="#4dd2ff" stroke-linecap="round" stroke-linejoin="round" stroke-width=".5" points="172.7 31.915 182.654 32.64 185.986 33.988 185.073 49.431 183.685 56.842 182.218 58.345 180.632 58.448 165.799 53.059 163.975 51.815 166.354 32.122 173.691 31.655 180.235 32.899 182.932 32.485 186.105 34.299 184.439 53.577 182.813 58.034 181.108 58.5 175.635 56.997 163.935 52.281 164.451 44.352 166.315 31.863 174.603 31.5 185.906 33.728 184.399 53.732 183.646 56.997 181.782 58.5 164.133 51.867 166.196 32.277 170.756 31.5 183.051 32.951 186.025 34.039 184.161 55.339 183.289 57.515 181.663 58.5 175 56.686 163.895 52.022 165.323 39.377"><title>2020-08-07 7.0km</title></polyline><polyline fill="none" stroke="#4dd2ff" stroke-linecap="round" stroke-linejoin="round" stroke-width=".5" points="21.983 62.479 32.867 62.788 35.903 64.076 35.193 80.307 33.853 86.8 32.788 88.036 30.856 88.345 14.255 81.647 16.463 62.376 20.84 61.809 29.357 62.943 32.867 62.531 35.903 63.922 36.021 67.426 34.444 83.76 33.971 86.491 32.827 87.985 31.329 88.5 26.991 87.109 13.979 81.75 16.423 62.221 25.453 61.5 29.791 62.788 34.72 62.994 36.021 64.437 35.075 79.586 33.655 87.109 31.092 88.5 18.908 84.12 14.215 81.596 16.345 62.531 20.603 61.552 26.006 61.861 28.017 62.943"><title>2020-08-09 5.6km</title></polyline><polyline fill="none" stroke="#4dd2ff" stroke-linecap="round" stroke-linejoin="round" stroke-width=".5" points="51.374 63.13 62.29 63.283 65.916 64.098 64.863 79.534 63.655 86.819 62.212 88.194 60.146 88.194 48.84 83.864 44.552 81.928 44.045 81.012 46.501 62.519 61.199 63.283 65.877 64.353 64.357 84.119 63.46 87.125 61.277 88.347 44.396 81.827 46.423 62.162 55.078 62.621 65.877 64.404 64.279 83.966 62.914 87.787 61.628 88.398 59.561 88.194 44.474 81.928 44.318 80.961 46.657 62.264 55.936 61.5 59.756 63.079 64.435 63.385 65.955 64.659 64.746 81.164 63.811 86.717 61.433 88.5 44.435 82.03 46.306 63.894"><title>2020-08-14 7.1km</title></polyline><polyline fill="none" stroke="#4dd2ff" stroke-linecap="round" stroke-linejoin="round" stroke-width=".5" points="81.136 62.494 85.621 61.971 96.192 63.331 94.671 83.163 93.95 86.564 91.867 88.5 73.688 81.907 75.97 62.808 76.371 61.709 80.615 61.5 93.229 62.704 96.312 63.593 94.19 85.779 93.349 87.558 91.948 88.395 80.815 84.942 73.688 81.75 75.97 63.07 76.29 61.762 77.652 61.552 91.667 62.39 96.192 63.75 94.11 85.936 93.229 87.663 91.547 88.448 83.378 85.413 80.936 85.151 73.888 81.75 75.89 63.279"><title>2020-08-20 5.3km</title></polyline><polyline fill="none" stroke="#4dd2ff" stroke-linecap="round" stroke-linejoin="round" stroke-width=".5" points="111.764 62.13 121.211 62.446 126.196 63.811 125.191 79.623 123.904 86.977 122.698 88.29 121.05 88.5 103.925 81.566 106.216 61.763 110.397 61.5 125.954 63.444 125.351 79.045 123.904 87.187 122.497 88.29 120.728 88.395 103.845 81.724 106.257 61.553 125.995 63.444 125.03 79.465 123.583 87.87 121.291 88.447 110.437 84.876 103.965 81.671 103.885 79.413 106.377 61.553 125.995 63.549 123.985 87.344 121.372 88.5 103.804 81.829 106.337 61.815 111.322 61.5 125.874 63.339 126.075 68.382 124.427 85.664 123.301 87.87 121.05 88.342"><title>2020-08-21 8.1km</title></polyline><polyline fill="none" stroke="#4dd2ff" stroke-linecap="round" stroke-linejoin="round" stroke-width=".5" points="140.755 78.257 144.525 76.019 149.337 76.299 151.512 77.258 158.01 67.746 158.255 66.547 157.611 66.068 148.877 66.068 134.289 66.827 133.676 72.023 131.5 78.177 131.837 81.854 133.032 83.852 134.626 83.573 137.875 81.814 140.541 78.617 144.065 76.339 148.08 75.939 150.869 77.378 151.574 77.218 158.377 67.147 158.071 66.308 156.876 66.028 134.381 66.867 133.921 67.547 133.707 71.903 131.898 77.138 131.5 80.256 133.002 83.972 136.955 82.534 142.318 77.178 144.28 76.219 148.417 75.979 151.543 77.298 158.5 66.627 157.948 66.068 153.842 66.028 134.044 66.787 133.921 71.183 132.052 76.619 131.5 80.216 132.542 83.333 133.461 83.932"><title>2020-09-02 6.1km</title></polyline><polyline fill="none" stroke="#ffb500" stroke-linecap="round" stroke-linejoin="round" stroke-width=".5" points="170.907 78.306 174.45 76.036 178.146 75.876 180.681 77.231 181.872 77.071 188.195 66.596 186.79 65.959 183.583 65.919 164.218 66.676 163.516 72.81 161.5 79.82 162.172 82.687 163.149 83.962 167.731 82.209 171.396 77.788 173.198 76.673 177.779 75.956 181.628 77.231 188.439 66.875 187.828 66.237 184.713 65.799 175.061 66.715 167.853 66.437 163.852 66.994 163.821 71.734 161.5 78.903 162.202 82.926 163.271 84.161 167.059 82.608 171.579 77.549 174.145 76.076 177.352 75.916 181.597 77.31 188.439 66.676 187.4 66.118 183.277 65.999 164.066 66.875 163.577 72.371 161.531 79.342 162.05 82.289 163.333 84.081 167.15 82.488 171.579 77.748 174.878 76.036 178.146 76.076 181.689 77.35 188.5 66.835 187.828 66.198 184.193 66.038 164.218 66.875 163.699 72.013 161.683 78.187 161.805 81.413 163.149 84.201 166.967 82.687 170.846 78.226 174.359 76.275 177.505 75.837 180.956 77.27 181.719 77.151 188.225 67.233 188.011 66.397 186.881 66.118 164.188 66.915 163.852 72.053 161.622 78.625 162.141 82.528 163.271 84.081 167.945 82.01"><title>2020-09-04 10.6km</title></polyline><polyline fill="none" stroke="#4dd2ff" stroke-linecap="round" stroke-linejoin="round" stroke-width=".5" points="20.643 108.509 23.67 106.436 26.605 105.957 32.018 107.313 34.708 102.249 38.5 96.905 37.583 96.108 35.289 96.028 14.221 96.786 13.61 102.408 11.531 109.227 11.745 111.779 13.029 114.052 16.882 112.457 21.805 107.552 23.945 106.436 26.728 105.917 31.865 107.153 38.225 96.985 37.552 96.108 30.917 95.948 24.373 96.586 14.313 96.626 13.824 97.304 13.793 101.89 11.5 109.386 12.142 113.015 13.182 113.972 17.585 111.978 20.49 108.748 24.281 106.196 27.523 105.917 30.764 107.193 31.956 107.034 38.072 96.547 37.46 96.108 29.633 95.988 14.221 96.786 13.518 102.847 11.745 107.313 11.653 111.659"><title>2020-09-05 6.0km</title></polyline><polyline fill="none" stroke="#ff7800" stroke-linecap="round" stroke-linejoin="round" stroke-width=".5" points="52.165 106.938 55.077 105.7 57.988 105.899 60.348 107.058 61.942 107.178 68.408 97.107 68.194 96.308 64.976 95.908 44.136 96.707 43.431 103.062 41.837 106.898 41.561 109.296 42.113 112.374 43.216 113.892 46.802 112.613 53.238 106.539 55.904 105.74 61.666 107.138 68.377 97.027 67.826 96.108 64.577 95.868 44.32 96.707 43.584 102.622 41.592 107.898 42.144 112.494 43.4 114.012 48.12 111.534 51.797 107.418 53.943 106.179 57.161 105.74 61.635 107.218 68.5 96.827 68.071 96.188 66.845 96.028 44.136 96.747 43.369 102.982 41.561 108.977 41.929 111.934 43.063 114.132 47.016 112.534 51.154 108.097 54.004 106.099 56.885 105.779 61.635 107.298 68.347 96.667 67.826 96.028 66.263 95.908 48.825 96.268 43.921 96.827 43.676 101.663 41.561 108.777 42.082 112.414 43.155 113.932 47.599 112.134 53.452 106.499 55.873 105.859 58.233 106.099 61.604 107.458 68.439 96.947 68.132 96.228 66.998 95.988 51.828 96.108 44.258 96.747 43.645 102.542 42.052 106.339 41.5 109.776 42.236 112.933 43.308 113.972 47.354 112.134 52.41 106.819 54.648 105.859 58.264 105.979 61.819 107.338 67.918 97.826 68.163 96.268 44.289 96.667 43.553 102.542 41.653 107.658 41.898 112.014 43.032 113.932 46.066 112.973 52.165 107.178 53.881 106.259 56.946 105.74 61.298 107.298 62.064 107.138 68.316 97.107 68.194 96.308 44.289 96.747 43.799 102.223 41.561 107.938 41.745 111.574 42.787 113.732 43.921 113.972 47.139 112.334 52.502 107.338"><title>2020-09-06 14.9km</title></polyline><polyline fill="none" stroke="#4dd2ff" stroke-linecap="round" stroke-linejoin="round" stroke-width=".5" points="80.859 107.991 83.538 106.185 86.278 105.743 91.758 107.309 97.761 98.075 98.284 96.188 91.604 95.947 74.148 96.669 73.563 102.33 71.5 108.633 71.869 112.006 73.07 114.093 75.441 113.411 78.273 111.484 81.506 107.75 83.507 106.345 87.478 105.863 91.881 107.228 98.5 96.87 98.1 96.027 97.207 95.907 73.963 96.79 73.655 102.049 71.531 108.794 71.685 111.283 72.701 113.973 77.319 112.287 81.536 107.59 84.677 105.944 88.279 105.984 91.758 107.309 98.408 96.589 97.946 95.947 74.055 96.87 73.286 103.374 71.685 107.469 71.592 111.002"><title>2020-09-08 6.0km</title></polyline><polyline fill="none" stroke="#ffb800" stroke-linecap="round" stroke-linejoin="round" stroke-width=".5" points="110.938 108.127 112.801 106.653 116.252 105.737 121.903 107.211 128.5 96.775 127.92 96.178 123.46 96.058 104.31 96.696 103.791 97.89 103.699 102.152 102.141 105.976 101.561 109.282 101.928 112.189 102.966 113.942 107.792 111.871 111.213 107.888 114.633 105.936 117.077 105.896 121.719 107.211 128.469 97.014 127.798 96.098 126.576 96.058 104.127 96.735 103.455 102.949 101.5 108.565 101.897 111.95 103.241 113.982 107.334 112.189 111.182 108.047 114.481 106.135 117.046 105.817 121.658 107.251 128.225 96.536 127.584 96.058 104.096 96.735 103.852 101.396 102.141 106.056 101.622 110.039 102.264 112.787 103.424 113.942 106.937 112.428 111.06 108.127 115.092 105.936 122.025 107.171 128.347 96.815 127.859 96.138 125.415 95.979 104.005 96.935 103.485 102.829 101.592 108.884 102.08 112.309 103.271 114.021 107.334 112.149 111.335 107.768 114.511 105.737 118.604 106.016 121.628 107.211 128.439 96.815 127.553 95.979 104.066 96.974 103.516 102.909 101.653 108.724 102.08 112.269"><title>2020-09-09 10.3km</title></polyline><polyline fill="none" stroke="#4dd2ff" stroke-linecap="round" stroke-linejoin="round" stroke-width=".5" points="141.263 107.825 141.629 107.109 143.368 106.313 146.388 105.676 151.758 107.268 158.439 96.645 156.517 96.048 134.002 96.884 133.483 102.693 131.775 107.387 131.5 110.57 132.751 113.713 133.514 113.991 137.754 111.883 140.653 109.138 141.568 107.546 143.337 106.432 145.29 105.875 148.402 105.955 151.666 107.507 158.317 96.964 158.164 96.208 157.036 96.009 134.398 96.725 133.331 103.488 131.561 108.183 132.019 112.32 132.903 113.792 134.795 113.593 137.236 112.201 142.117 107.228 144.192 106.035 148.371 105.955 151.636 107.546 158.5 96.645 157.463 96.048 146.724 96.486"><title>2020-09-10 5.3km</title></polyline><polyline fill="none" stroke="#4dd2ff" stroke-linecap="round" stroke-linejoin="round" stroke-width=".5" points="170.91 108.549 173.801 106.464 175.584 105.862 177.768 105.862 181.888 107.186 186.87 99.847 188.5 96.478 183.303 95.997 164.022 96.839 163.56 103.176 161.531 109.151 161.931 111.998 163.13 114.083 167.374 112.198 171.679 107.747 174.047 106.344 177.429 105.742 181.919 107.426 188.469 97.12 188.008 95.957 182.196 95.837 172.54 96.478 169.803 96.077 163.868 97 163.929 101.411 161.5 109.111 162.207 112.8 163.253 114.163 167.128 112.359 171.556 107.787 174.969 105.943 178.752 105.943 182.011 107.146 188.438 96.639 187.946 96.037 181.12 95.877 164.145 96.839 163.806 102.293 161.685 108.389 161.961 112.078 163.345 114.043 165.682 113.201 168.419 111.276"><title>2020-09-13 6.3km</title></polyline><polyline fill="none" stroke="#4dd2ff" stroke-linecap="round" stroke-linejoin="round" stroke-width=".5" points="20.817 138.537 23.544 136.619 25.72 135.939 28.448 136.099 31.911 137.258 38.5 126.667 37.856 126.148 32.187 126.028 14.258 126.707 13.799 127.307 13.799 131.143 11.5 138.897 12.113 142.573 13.369 144.012 16.495 142.813 20.786 138.457 24.31 136.299 27.283 135.819 30.9 137.218 31.788 137.098 38.377 126.867 37.519 126.028 30.9 126.028 14.074 126.947 13.676 131.943 11.745 137.458 11.5 139.976 12.052 142.534 12.603 143.692 13.369 143.892 16.833 142.494 19.959 139.736 20.786 138.297 25.475 135.74 28.019 135.859 31.022 137.258 31.85 137.098 38.347 127.107 37.489 125.948 14.411 126.667 13.86 127.307 13.584 132.263 11.561 138.857 12.021 142.534 13.032 144.052"><title>2020-09-15 6.1km</title></polyline><polyline fill="none" stroke="red" stroke-linecap="round" stroke-linejoin="round" stroke-width=".5" points="50.755 138.266 54.817 135.797 58.971 135.996 61.781 137.031 68.256 126.078 44.188 126.636 43.852 131.654 42.019 136.235 41.531 139.501 41.928 141.572 43.149 143.683 46.814 142.369 51.824 137.111 54.786 135.598 57.321 135.598 61.933 136.832 68.5 126.476 67.95 125.76 44.218 126.476 43.791 131.615 41.5 138.704 41.805 141.134 43.088 143.723 46.57 142.488 51.182 137.788 54.481 135.637 58.818 135.916 61.964 137.071 68.378 126.636 68.072 125.839 66.393 125.76 44.188 126.596 43.73 131.694 41.683 138.187 41.867 141.014 42.936 143.683 47.395 141.891 50.999 137.948 54.511 135.717 58.726 135.837 61.781 137.071 68.256 126.596 67.828 125.799 66.973 125.799 44.218 126.516 43.76 131.336 41.592 138.545 42.08 141.97 43.271 143.683 47.15 141.93 50.632 138.903 51.457 137.549 54.603 135.717 57.169 135.478 61.597 137.031 68.469 126.715 68.195 125.999 67.034 125.68 44.157 126.556 43.699 132.093 41.592 139.421 42.936 143.723 47.822 141.652 51.549 137.43 54.389 135.757 57.321 135.637 61.689 136.952 68.5 126.476 67.675 125.76 44.249 126.476 43.791 132.053 42.233 135.956 41.622 139.381 42.294 142.608 43.516 143.723 47.609 141.771 50.785 138.147 53.87 136.076 57.169 135.438 61.903 136.952 68.195 126.835 67.889 125.799 65.476 125.72 44.188 126.676 43.821 131.376 41.775 138.107 41.897 140.895 42.874 143.603 45.257 143.125 47.364 141.891 52.526 136.832 54.572 135.677 57.107 135.677 61.781 137.031 68.469 126.476 67.889 125.839 64.346 125.76 44.493 126.317 43.974 126.875 43.607 132.132 41.622 138.027 41.867 141.572 42.6 143.444 43.424 143.563 47.792 141.572 51.213 137.748 54.542 135.478 57.688 135.478 60.742 136.753 61.964 136.633 68.439 126.476 67.553 125.72 44.279 126.397 43.669 132.212 41.622 138.903 42.05 142.09 43.363 143.444 46.387 142.687 51.824 137.151 54.267 135.757 57.046 135.359 60.712 136.792 61.933 136.713 68.439 126.556 67.675 125.72 44.127 126.516 43.577 132.571 41.653 138.585 41.836 141.014 42.844 143.563 45.165 143.006 48.678 140.775 50.693 137.987 54.542 135.518 56.894 135.398 61.781 137.031 68.5 126.238 67.523 125.72 44.157 126.676 43.73 131.774 41.653 139.541 42.264 142.289 43.485 144.32 47.609 142.687 51.793 138.306 53.992 137.151"><title>2020-09-16 23.6km</title></polyline><polyline fill="none" stroke="#4dd2ff" stroke-linecap="round" stroke-linejoin="round" stroke-width=".5" points="81.526 137.961 83.659 136.331 86.371 135.894 89.51 136.451 91.613 137.524 98.5 126.834 97.129 126.039 91.43 125.999 74.182 126.714 73.907 131.682 72.231 135.855 71.5 139.987 72.567 143.604 73.694 144.041 78.082 141.696 80.703 138.557 83.964 136.252 87.682 135.934 91.613 137.444 98.47 126.992 97.677 126.118 94.051 125.959 74.151 126.873 73.968 131.722 71.652 139.073 72.292 142.769 73.359 144.041 77.229 142.133 79.819 140.067 81.069 138.279 83.933 136.292 86.585 135.894 91.887 137.166 98.47 126.754 97.982 126.158 96.428 125.959 74.395 126.834 73.786 132.755 71.683 139.073 72.17 142.332 73.481 144.001"><title>2020-09-18 6.1km</title></polyline><polyline fill="none" stroke="#4dd2ff" stroke-linecap="round" stroke-linejoin="round" stroke-width=".5" points="111.11 138.203 113.917 136.373 116.297 135.895 121.788 137.367 128.378 127.302 128.286 126.546 127.707 125.949 104.52 126.784 103.788 132.275 101.836 137.049 101.531 139.953 103.117 144.011 104.734 143.733 107.175 142.34 110.866 138.521 114.008 136.492 117.212 135.935 121.758 137.367 128.5 126.546 127.798 126.068 125.449 126.029 104.307 126.665 103.758 132.036 101.5 138.839 102.019 142.141 103.392 144.051 107.175 142.34 110.927 138.442 114.069 136.373 116.51 136.015 121.758 137.208 128.408 126.904 128.134 126.188 126.883 126.029 104.429 126.705 103.91 127.262 103.971 131.002 101.988 137.089 101.683 140.391"><title>2020-09-20 6.0km</title></polyline><polyline fill="none" stroke="#4dd2ff" stroke-linecap="round" stroke-linejoin="round" stroke-width=".5" points="140.93 138.285 146.305 135.801 152.203 137.083 158.439 126.628 157.302 126.027 134.049 126.949 133.773 131.195 131.5 139.006 131.869 141.89 133.005 143.973 135.125 143.652 137.92 142.05 140.807 138.445 144.677 135.961 147.104 135.641 151.22 137.243 152.08 136.963 158.5 126.909 157.578 126.067 134.48 126.708 133.988 127.309 133.65 132.116 131.531 138.846 131.838 141.89 133.128 143.892 135.616 143.332 137.766 141.97 141.452 137.804 144.862 135.921 147.442 135.801 151.742 137.323 158.377 126.588 157.794 126.027 134.387 126.748 133.865 127.309 133.589 132.356 131.746 137.484 131.531 140.207"><title>2020-09-22 6.0km</title></polyline><polyline fill="none" stroke="#4dd2ff" stroke-linecap="round" stroke-linejoin="round" stroke-width=".5" points="171.276 138.257 174.678 136.099 176.241 135.859 181.635 137.578 188.469 126.707 187.887 126.068 183.934 125.828 174.372 126.707 164.105 126.867 163.707 132.382 161.5 138.177 161.898 142.214 163.186 144.052 167.354 142.214 170.602 138.697 173.36 136.659 177.038 136.019 181.788 137.458 188.5 126.907 187.642 126.068 164.105 126.747 163.553 132.622 161.531 138.937 162.021 142.454 163.094 144.012 166.465 142.813 173.36 136.619 177.682 135.939 181.666 137.338 188.408 126.947 187.55 126.108 182.279 126.108 164.166 126.947 163.645 132.422 161.868 136.938 161.5 139.656 162.082 142.613 163.216 144.172"><title>2020-09-26 6.1km</title></polyline><polyline fill="none" stroke="#4dd2ff" stroke-linecap="round" stroke-linejoin="round" stroke-width=".5" points="38.472 162.025 38.482 162.031 38.472 162.037 38.5 162.061 38.348 162.085 38.071 162.097 38.048 162.103 38.044 162.115 38.025 162.103 37.97 162.121 37.896 162.121 37.79 162.139 37.73 162.127 37.67 162.127 37.633 162.145 37.362 162.151 37.246 162.181 37.219 162.181 37.113 162.224 37.034 162.224 37.034 162.242 36.993 162.248 36.868 162.254 36.795 162.266 36.583 162.272 36.467 162.26 36.338 162.254 36.251 162.266 35.993 162.272 35.864 162.296 35.799 162.29 35.688 162.32 35.679 162.344 35.601 162.326 35.37 162.308 35.2 162.314 35.172 162.326 35.112 162.32 35.057 162.332 35.029 162.32 34.914 162.35 34.831 162.338 34.78 162.35 34.661 162.362 34.601 162.35 34.458 162.356 34.403 162.368 34.352 162.386 34.209 162.374 34.158 162.392 34.048 162.392 33.978 162.41 33.9 162.404 33.859 162.428 33.813 162.434 33.674 162.434 33.55 162.446 33.508 162.434 33.471 162.44 33.356 162.428 33.329 162.422 33.315 162.404 33.292 162.392 33.255 162.386 33.181 162.398 33.098 162.428 32.983 162.428 32.932 162.446 32.78 162.458 32.789 162.47 32.739 162.47 32.716 162.488 32.697 162.488 32.637 162.512 32.444 162.548 32.163 162.572 32.103 162.584 31.688 162.626 31.305 162.638 31.241 162.656 31.199 162.65 31.176 162.668 31.061 162.68 30.955 162.71 30.651 162.74 30.568 162.782 30.531 162.764 30.471 162.758 30.388 162.758 30.323 162.764 30.305 162.776 30.231 162.77 30.199 162.782 30.176 162.782 30.162 162.794 30.098 162.825 30.093 162.819 30.075 162.776 30.065 162.776 29.922 162.788 29.881 162.8 29.858 162.794 29.83 162.807 29.697 162.807 29.641 162.831 29.6 162.837 29.577 162.843 29.586 162.849 29.572 162.861 29.54 162.861 29.498 162.873 29.439 162.867 29.439 162.879 29.323 162.903 29.157 162.903 29.097 162.909 28.964 162.897 28.789 162.903 28.733 162.915 28.678 162.933 28.581 162.945 28.563 162.957 28.457 162.957 28.305 162.969 28.189 162.969 28.037 162.993 27.982 163.017 27.941 163.017 27.839 163.017 27.687 163.041 27.235 163.077 26.881 163.089 26.811 163.101 26.682 163.095 26.641 163.101 26.452 163.095 26.355 163.113 26.281 163.113 26.258 163.125 26.157 163.113 26.069 163.125 26.046 163.119 25.89 163.125 25.839 163.137 25.807 163.137 25.784 163.143 25.728 163.143 25.65 163.155 25.502 163.161 25.489 163.179 25.429 163.203 25.401 163.191 25.332 163.203 25.29 163.191 25.235 163.197 25.217 163.215 25.157 163.227 25.134 163.221 25.115 163.233 25.028 163.209 24.82 163.221 24.719 163.203 24.599 163.221 24.493 163.203 24.392 163.221 24.263 163.215 24.138 163.233 24.041 163.221 23.848 163.245 23.774 163.215 23.58 163.233 23.35 163.197 23.202 163.215 22.903 163.173 22.557 163.161 22.405 163.167 22.082 163.197 22.032 163.179 21.953 163.179 21.903 163.191 21.824 163.185 21.801 163.197 21.658 163.197 21.631 163.191 21.456 163.197 21.396 163.191 21.363 163.197 21.271 163.185 21.013 163.173 20.939 163.185 20.824 163.185 20.746 163.209 20.677 163.197 20.644 163.203 20.571 163.245 20.446 163.203 20.225 163.197 20.064 163.179 19.916 163.179 19.87 163.161 19.626 163.179 19.561 163.203 19.409 163.203 19.331 163.197 19.229 163.209 19.151 163.191 19.082 163.203 19.05 163.197 18.879 163.203 18.824 163.203 18.667 163.215 18.644 163.221 18.593 163.215 18.538 163.227 18.483 163.221 18.363 163.233 18.34 163.245 18.28 163.233 18.142 163.227 18.063 163.215 17.727 163.245 17.543 163.233 17.515 163.239 17.381 163.221 16.925 163.269 16.874 163.263 16.828 163.275 16.662 163.281 16.446 163.275 16.261 163.299 16.169 163.287 16.151 163.299 16.086 163.299 16.045 163.317 15.962 163.305 15.939 163.311 15.92 163.299 15.892 163.299 15.865 163.305 15.809 163.353 15.763 163.365 15.68 163.359 15.625 163.341 15.602 163.353 15.574 163.353 15.542 163.341 15.464 163.335 15.372 163.347 15.353 163.365 15.326 163.365 15.224 163.359 15.178 163.371 15.15 163.365 15.127 163.371 15.054 163.353 14.966 163.353 14.8 163.377 14.671 163.371 14.473 163.395 14.307 163.383 14.081 163.401 13.98 163.426 13.781 163.432 13.699 163.456 13.643 163.462 13.413 163.432 13.325 163.444 13.233 163.474 13.076 163.474 12.947 163.498 12.791 163.51 12.661 163.498 12.546 163.522 12.33 163.522 12.316 163.54 12.191 163.546 12.15 163.564 12.136 163.582 12.136 163.624 12.145 163.666 12.118 163.702 11.947 163.75 11.795 163.75 11.758 163.768 11.753 163.858 11.772 163.924 11.726 164.039 11.721 164.063 11.744 164.153 11.721 164.279 11.717 164.435 11.735 164.628 11.73 164.85 11.74 164.91 11.74 164.97 11.749 165.006 11.758 165.066 11.758 165.132 11.744 165.216 11.758 165.259 11.753 165.349 11.777 165.457 11.781 165.601 11.79 165.619 11.781 165.799 11.795 165.841 11.8 165.92 11.813 165.986 11.823 166.22 11.832 166.25 11.956 166.472 12.025 166.575 12.039 166.677 12.062 166.743 12.058 166.875 12.072 166.947 12.072 167.001 12.085 167.049 12.085 167.158 12.104 167.254 12.085 167.494 12.095 167.566 12.09 167.578 12.09 167.608 12.104 167.62 12.099 167.638 12.108 167.68 12.095 167.734 12.099 167.897 12.09 167.927 12.03 167.951 11.952 167.945 11.836 167.957 11.703 167.939 11.689 167.969 11.666 167.975 11.634 167.963 11.606 167.939 11.611 167.903 11.588 167.897 11.583 167.879 11.565 167.861 11.56 167.849 11.565 167.584 11.56 167.524 11.546 167.512 11.555 167.434 11.569 167.416 11.56 167.422 11.541 167.374 11.541 167.344 11.514 167.332 11.5 167.338"><title>2020-10-10 6.1km</title></polyline><polyline fill="none" stroke="#4dd2ff" stroke-linecap="round" stroke-linejoin="round" stroke-width=".5" points="41.513 168.149 41.5 168.116 41.5 168.133 41.55 168.154 41.563 168.138 41.685 168.144 41.824 168.127 41.857 168.133 41.895 168.127 41.958 168.133 42.08 168.127 42.11 168.105 42.147 168.116 42.16 168.127 42.16 168.149 42.177 168.204 42.168 168.379 42.185 168.626 42.185 168.714 42.202 168.724 42.286 168.697 42.362 168.686 42.509 168.714 42.551 168.708 42.572 168.659 42.58 168.637 42.576 168.593 42.589 168.566 42.589 168.352 42.601 168.297 42.606 168.226 42.601 168.116 42.614 167.985 42.606 167.963 42.614 167.848 42.606 167.826 42.614 167.787 42.606 167.749 42.61 167.722 42.606 167.678 42.606 167.623 42.589 167.59 42.585 167.563 42.564 167.53 42.559 167.508 42.551 167.497 42.547 167.469 42.53 167.426 42.479 167.398 42.471 167.376 42.433 167.343 42.383 167.267 42.353 167.201 42.332 167.141 42.328 167.086 42.324 167.069 42.332 166.998 42.328 166.965 42.311 166.932 42.32 166.823 42.307 166.74 42.316 166.719 42.32 166.658 42.316 166.62 42.32 166.592 42.32 166.565 42.324 166.505 42.32 166.412 42.324 166.39 42.311 166.34 42.316 166.296 42.307 166.214 42.311 166.148 42.299 166.066 42.303 165.99 42.29 165.715 42.29 165.622 42.278 165.546 42.282 165.452 42.273 165.414 42.278 165.392 42.278 165.244 42.269 165.151 42.29 165.08 42.294 164.981 42.286 164.954 42.311 164.899 42.332 164.882 42.564 164.871 42.727 164.833 42.858 164.828 42.984 164.811 43.055 164.789 43.202 164.784 43.249 164.767 43.316 164.767 43.413 164.751 43.644 164.74 43.833 164.745 43.9 164.74 44.014 164.745 44.106 164.729 44.178 164.74 44.388 164.745 44.451 164.723 44.628 164.723 44.741 164.707 44.808 164.712 44.96 164.707 45.014 164.685 45.212 164.68 45.384 164.68 45.464 164.663 45.519 164.669 45.535 164.663 45.645 164.658 45.847 164.663 46.002 164.63 46.053 164.641 46.069 164.63 46.116 164.625 46.225 164.647 46.322 164.641 46.368 164.63 46.372 164.647 46.607 164.647 46.641 164.63 46.683 164.63 46.746 164.625 46.977 164.581 47.108 164.564 47.204 164.564 47.23 164.559 47.301 164.564 47.351 164.559 47.377 164.57 47.423 164.548 47.541 164.537 47.629 164.548 47.734 164.553 47.814 164.548 47.856 164.537 47.898 164.532 47.982 164.553 48.016 164.537 48.07 164.526 48.163 164.532 48.314 164.526 48.356 164.532 48.381 164.521 48.461 164.526 48.533 164.543 48.655 164.543 48.705 164.532 48.827 164.543 48.945 164.537 49.016 164.521 49.243 164.548 49.369 164.559 49.491 164.537 49.516 164.548 49.571 164.537 49.79 164.548 49.811 164.537 49.869 164.532 49.949 164.537 50.033 164.521 50.21 164.537 50.227 164.543 50.517 164.543 50.555 164.559 50.559 164.57 50.592 164.586 50.706 164.564 51.101 164.548 51.189 164.532 51.337 164.543 51.479 164.521 51.555 164.521 51.606 164.504 51.711 164.504 51.774 164.515 51.883 164.504 51.938 164.51 52.001 164.499 52.139 164.504 52.202 164.526 52.253 164.51 52.434 164.521 52.585 164.515 52.635 164.466 52.665 164.455 52.673 164.438 52.766 164.499 52.829 164.493 52.909 164.51 52.989 164.504 53.123 164.526 53.148 164.515 53.169 164.521 53.279 164.493 53.333 164.504 53.358 164.515 53.506 164.51 53.594 164.537 53.695 164.515 53.745 164.521 53.77 164.51 53.796 164.488 53.842 164.482 53.888 164.493 53.913 164.51 53.93 164.493 53.981 164.488 54.002 164.477 54.031 164.477 54.052 164.493 54.115 164.471 54.224 164.46 54.241 164.466 54.309 164.471 54.321 164.488 54.43 164.51 54.46 164.499 54.594 164.482 54.645 164.488 54.699 164.477 54.851 164.499 54.973 164.51 55.04 164.493 55.2 164.499 55.288 164.488 55.389 164.493 55.536 164.471 55.612 164.482 55.725 164.482 55.847 164.493 55.99 164.482 56.087 164.466 56.238 164.46 56.335 164.444 56.427 164.455 56.654 164.422 56.793 164.416 56.969 164.395 57.053 164.389 57.133 164.356 57.184 164.362 57.28 164.334 57.777 164.307 57.882 164.296 58.033 164.257 58.26 164.247 58.369 164.23 58.495 164.225 58.546 164.214 58.626 164.214 58.739 164.203 58.748 164.23 58.769 164.247 58.844 164.225 59.105 164.181 59.244 164.175 59.281 164.164 59.311 164.109 59.357 164.115 59.508 164.077 59.588 164.088 59.626 164.088 59.735 164.066 59.786 164.066 59.908 164.033 59.958 164.038 60.025 164.022 60.08 164.027 60.156 164.022 60.236 164.005 60.337 164.005 60.496 163.978 60.538 163.961 60.778 163.929 60.887 163.934 60.917 163.945 60.933 163.94 60.933 163.951 60.942 163.956 61.106 163.901 61.211 163.885 61.261 163.885 61.434 163.841 61.564 163.852 61.703 163.83 61.812 163.83 61.947 163.846 62.031 163.835 62.237 163.83 62.367 163.819 62.451 163.797 62.615 163.792 62.749 163.764 62.758 163.753 62.884 163.726 63.128 163.731 63.262 163.709 63.351 163.715 63.46 163.709 63.59 163.726 63.754 163.687 63.784 163.665 63.834 163.66 63.884 163.665 63.91 163.682 63.981 163.693 64.183 163.687 64.246 163.693 64.263 163.682 64.313 163.682 64.422 163.698 64.498 163.682 64.519 163.671 64.599 163.655 64.624 163.66 64.809 163.649 64.944 163.649 65.33 163.605 65.385 163.611 65.478 163.6 65.557 163.611 65.705 163.594 65.738 163.6 65.81 163.594 65.906 163.572 66.133 163.572 66.201 163.55 66.419 163.556 66.528 163.528 66.558 163.534 66.579 163.517 66.604 163.517 66.646 163.507 66.751 163.507 66.856 163.523 66.882 163.512 66.987 163.512 67.033 163.501 67.155 163.512 67.172 163.507 67.18 163.463 67.226 163.452 67.436 163.446 67.487 163.463 67.596 163.468 67.588 163.474 67.6 163.446 67.575 163.391 67.567 163.337 67.588 163.287 67.584 163.134 67.567 163.106 67.563 163.068 67.546 163.03 67.537 163.002 67.542 162.98 67.508 162.92 67.512 162.904 67.466 162.849 67.466 162.832 67.445 162.805 67.436 162.756 67.441 162.739 67.424 162.712 67.42 162.684 67.357 162.608 67.34 162.52 67.369 162.492 67.373 162.481 67.39 162.476 67.491 162.449 67.537 162.46 67.71 162.388 67.743 162.361 67.769 162.361 67.819 162.333 67.84 162.268 67.924 162.246 67.933 162.251 68.038 162.213 68.096 162.18 68.096 162.164 68.109 162.147 68.134 162.147 68.197 162.092 68.214 162.098 68.218 162.087 68.256 162.081 68.273 162.065 68.281 162.048 68.277 162.032 68.286 162.027 68.277 162.01 68.269 161.961 68.298 161.944 68.29 161.922 68.332 161.889 68.336 161.862 68.361 161.846 68.378 161.791 68.378 161.763 68.391 161.747 68.454 161.692 68.479 161.676 68.492 161.654 68.487 161.637 68.5 161.621 68.5 161.604 68.487 161.604 68.45 161.577 68.416 161.566 68.382 161.566 68.374 161.55 68.361 161.55 68.374 161.528 68.374 161.506 68.361 161.5 68.361 161.484 68.378 161.44 68.378 161.407 68.391 161.396 68.399 161.374 68.391 161.358 68.399 161.336 68.416 161.33 68.45 161.308 68.471 161.308 68.496 161.276"><title>2020-10-10 7.1km</title></polyline><polyline fill="none" stroke="#4dd2ff" stroke-linecap="round" stroke-linejoin="round" stroke-width=".5" points="80.673 168.489 83.67 166.495 86.544 165.818 91.834 167.173 98.469 156.806 97.583 156.008 90.397 156.008 74.038 156.925 73.549 162.628 71.561 168.051 71.775 171.44 72.815 173.992 76.668 172.676 79.267 170.523 80.948 168.21 85.352 165.698 88.195 165.897 91.559 167.293 98.5 156.287 87.828 156.048 84.679 156.686 81.56 156.327 74.069 156.686 73.488 162.747 71.5 169.127 71.867 172.078 73.273 173.872 77.065 172.237 81.193 167.971 85.015 165.857 87.003 165.738 91.773 167.054 98.194 157.005 97.888 156.168 96.665 156.048 74.038 156.846 73.763 161.312 71.592 168.33 72.234 172.756"><title>2020-10-10 6.1km</title></polyline><polyline fill="none" stroke="#ffb700" stroke-linecap="round" stroke-linejoin="round" stroke-width=".5" points="111.449 168.054 115.245 165.858 117.847 165.938 121.704 167.136 128.378 156.836 128.133 156.477 126.694 156.038 116.133 156.198 103.918 156.876 103.306 163.144 101.5 168.892 101.592 171.367 102.847 173.922 105.204 173.403 107.898 171.687 111.694 167.455 115.031 165.779 118.704 166.058 121.398 167.176 128.5 156.637 127.888 156.118 123.694 156.078 104.347 156.677 103.857 157.315 103.612 162.226 101.5 169.052 101.806 171.767 102.969 173.882 106.796 172.525 111.878 167.296 114.02 166.098 117.173 165.819 121.673 167.256 128.194 157.156 128.286 155.998 114.755 156.796 112.459 156.357 104.255 156.637 103.337 162.944 101.531 168.812 101.745 171.727 102.939 174.002 107.592 171.966 111.449 167.775 114.02 166.098 117.296 165.858 121.643 167.335 128.408 156.916 127.673 156.158 104.01 156.876 103.673 161.986 101.5 169.731 101.837 171.846 103.031 174.002 106.857 172.725 111.786 167.296 113.255 166.417 116.408 165.858 121.398 167.415 128.316 156.637 125.745 155.998 104.255 156.717 103.582 162.745 101.622 168.573 101.867 171.886 102.694 173.842"><title>2020-10-11 10.4km</title></polyline><polyline fill="none" stroke="#4dd2ff" stroke-linecap="round" stroke-linejoin="round" stroke-width=".5" points="131.5 167.833 131.543 167.811 131.666 167.811 131.734 167.794 131.866 167.789 131.904 167.783 131.934 167.756 131.989 167.767 132.023 167.761 132.07 167.761 132.095 167.789 132.112 167.861 132.117 167.999 132.151 168.144 132.155 168.221 132.168 168.254 132.168 168.371 132.185 168.387 132.223 168.387 132.278 168.437 132.397 168.437 132.406 168.421 132.444 168.41 132.512 168.421 132.576 168.415 132.58 168.404 132.571 168.382 132.58 168.327 132.571 168.216 132.58 168.16 132.576 168.105 132.597 167.983 132.584 167.883 132.593 167.844 132.589 167.811 132.597 167.789 132.589 167.772 132.597 167.767 132.589 167.756 132.584 167.733 132.597 167.506 132.584 167.417 132.597 167.367 132.567 167.312 132.554 167.19 132.452 167.057 132.389 167.002 132.38 166.985 132.38 166.963 132.372 166.957 132.338 166.896 132.321 166.857 132.325 166.752 132.308 166.691 132.295 166.674 132.304 166.641 132.291 166.541 132.299 166.442 132.312 166.408 132.304 166.325 132.299 166.176 132.295 166.159 132.282 165.932 132.287 165.876 132.274 165.571 132.278 165.499 132.265 165.388 132.27 165.355 132.261 165.338 132.265 165.233 132.257 165.2 132.261 165.166 132.27 165.155 132.261 165.117 132.257 164.95 132.265 164.795 132.278 164.745 132.295 164.595 132.291 164.546 132.299 164.523 132.316 164.518 132.623 164.496 132.788 164.479 132.831 164.462 132.954 164.462 133.026 164.446 133.073 164.451 133.222 164.446 133.316 164.429 133.413 164.435 133.452 164.424 133.545 164.424 133.617 164.412 133.813 164.412 133.902 164.396 134.183 164.401 134.311 164.385 134.442 164.396 134.566 164.39 134.595 164.385 134.702 164.379 134.757 164.368 134.804 164.374 134.944 164.351 135.05 164.357 135.118 164.346 135.14 164.357 135.229 164.357 135.323 164.34 135.395 164.351 135.505 164.335 135.82 164.335 135.863 164.318 136.109 164.29 136.356 164.302 136.505 164.263 136.73 164.274 136.917 164.241 137.011 164.246 137.074 164.218 137.168 164.224 137.21 164.213 137.257 164.224 137.466 164.218 137.674 164.23 137.784 164.218 137.861 164.196 137.925 164.235 138.086 164.235 138.159 164.235 138.244 164.218 138.286 164.202 138.367 164.207 138.443 164.196 138.601 164.213 138.665 164.202 138.805 164.202 138.873 164.213 138.941 164.202 138.992 164.213 139.086 164.196 139.251 164.218 139.353 164.202 139.477 164.213 139.562 164.207 139.711 164.224 139.783 164.207 139.864 164.213 140.102 164.191 140.161 164.196 140.187 164.191 140.297 164.196 140.319 164.191 140.523 164.191 140.65 164.174 140.833 164.191 140.952 164.185 140.982 164.191 141.326 164.157 141.462 164.174 141.645 164.18 141.764 164.174 141.892 164.191 142.049 164.191 142.194 164.174 142.402 164.18 142.445 164.174 142.47 164.185 142.547 164.174 142.683 164.18 142.759 164.163 142.878 164.169 142.921 164.157 142.968 164.169 143.048 164.163 143.091 164.169 143.155 164.157 143.308 164.163 143.376 164.152 143.588 164.163 143.746 164.157 143.78 164.174 143.911 164.157 143.997 164.135 144.162 164.13 144.235 164.119 144.298 164.13 144.366 164.119 144.486 164.135 144.796 164.113 144.953 164.124 145.026 164.141 145.255 164.146 145.302 164.157 145.37 164.152 145.408 164.135 145.553 164.157 145.672 164.13 145.889 164.13 145.961 164.146 146.025 164.146 146.067 164.135 146.157 164.13 146.212 164.119 146.288 164.113 146.322 164.102 146.684 164.102 146.769 164.085 146.969 164.069 147.032 164.052 147.313 164.035 147.407 164.008 147.517 164.002 147.606 163.986 147.777 163.98 147.989 163.947 148.015 163.952 148.061 163.947 148.334 163.886 148.431 163.886 148.538 163.864 148.763 163.864 148.908 163.841 148.916 163.869 148.903 163.858 148.967 163.858 148.98 163.847 149.018 163.852 149.103 163.836 149.456 163.797 149.596 163.753 149.737 163.753 149.805 163.731 149.881 163.725 149.924 163.708 149.979 163.714 150.081 163.681 150.209 163.675 150.37 163.642 150.426 163.647 150.515 163.642 150.625 163.62 150.753 163.614 150.829 163.592 150.906 163.592 151.012 163.57 151.085 163.581 151.216 163.564 151.293 163.564 151.442 163.525 151.646 163.525 151.88 163.487 152.007 163.487 152.02 163.492 152.016 163.498 152.024 163.509 152.037 163.487 152.033 163.503 152.296 163.492 152.335 163.475 152.781 163.414 152.921 163.381 153.019 163.392 153.074 163.376 153.223 163.392 153.444 163.365 153.466 163.376 153.529 163.365 153.708 163.387 153.878 163.359 153.916 163.359 153.95 163.348 154.001 163.354 154.057 163.337 154.103 163.348 154.193 163.331 154.41 163.331 154.643 163.309 154.66 163.315 154.988 163.276 155.103 163.27 155.183 163.254 155.311 163.259 155.651 163.232 155.723 163.248 155.809 163.237 155.936 163.243 156 163.237 156.025 163.22 156.025 163.209 156.034 163.204 156.034 163.209 156.042 163.209 156.068 163.22 156.098 163.226 156.153 163.209 156.178 163.198 156.319 163.204 156.395 163.193 156.514 163.209 156.553 163.187 156.578 163.187 156.727 163.198 156.774 163.187 156.893 163.193 156.918 163.182 156.974 163.187 156.999 163.165 157.046 163.176 157.148 163.165 157.22 163.132 157.271 163.148 157.365 163.154 157.39 163.132 157.433 163.148 157.688 163.143 157.824 163.126 157.841 163.121 157.862 163.104 157.871 163.065 157.866 162.96 157.871 162.932 157.883 162.893 157.922 162.86 157.93 162.838 157.926 162.821 157.913 162.738 157.888 162.672 157.888 162.638 157.892 162.616 157.871 162.583 157.845 162.5 157.807 162.422 157.781 162.394 157.769 162.344 157.747 162.228 157.756 162.117 157.713 162.023 157.709 161.984 157.807 161.967 158.015 161.868 158.058 161.868 158.113 161.823 158.134 161.823 158.194 161.762 158.364 161.668 158.398 161.64 158.419 161.64 158.445 161.624 158.44 161.646 158.5 161.563"><title>2020-10-12 6.8km</title></polyline><polyline fill="none" stroke="#4dd2ff" stroke-linecap="round" stroke-linejoin="round" stroke-width=".5" points="188.459 162.091 188.468 162.037 188.486 162.013 188.477 162.013 188.5 162.013 188.5 162.031 188.132 162.067 188.067 162.055 187.938 162.055 187.717 162.073 187.689 162.067 187.676 162.085 187.584 162.079 187.551 162.091 187.455 162.097 187.386 162.121 187.289 162.109 187.224 162.115 187.141 162.133 187.031 162.133 186.893 162.157 186.782 162.151 186.501 162.175 186.018 162.199 185.94 162.211 185.838 162.211 185.811 162.217 185.751 162.211 185.396 162.241 185.318 162.241 185.143 162.253 185.055 162.271 184.913 162.271 184.774 162.289 184.747 162.295 184.719 162.289 184.549 162.301 184.36 162.301 184.116 162.337 183.969 162.337 183.651 162.349 183.559 162.355 183.503 162.373 183.411 162.367 183.324 162.385 182.969 162.391 182.942 162.397 182.702 162.421 182.596 162.451 182.564 162.445 182.509 162.457 182.486 162.445 182.407 162.469 182.366 162.499 182.311 162.499 182.09 162.535 181.988 162.559 181.961 162.553 181.758 162.589 181.38 162.595 181.33 162.607 181.201 162.613 180.925 162.655 180.722 162.703 180.616 162.715 180.556 162.709 180.496 162.721 180.409 162.721 180.257 162.745 180.013 162.757 179.967 162.739 179.907 162.733 179.607 162.763 179.557 162.781 179.525 162.835 179.483 162.835 179.469 162.847 179.451 162.853 179.455 162.865 179.442 162.871 179.409 162.859 179.386 162.871 179.336 162.871 179.322 162.889 179.304 162.883 179.23 162.889 179.041 162.847 178.977 162.847 178.912 162.865 178.894 162.853 178.843 162.847 178.765 162.859 178.677 162.889 178.636 162.889 178.585 162.907 178.267 162.931 178.221 162.943 178.138 162.937 178.106 162.949 177.973 162.956 177.973 162.968 177.95 162.968 177.931 162.986 177.756 162.992 177.659 163.01 177.475 163.016 177.259 163.046 176.987 163.046 176.849 163.076 176.72 163.07 176.619 163.076 176.563 163.064 176.467 163.082 176.356 163.076 176.163 163.094 175.845 163.094 175.707 163.118 175.656 163.112 175.601 163.136 175.573 163.124 175.504 163.13 175.449 163.142 175.394 163.148 175.237 163.142 175.127 163.13 175.094 163.136 174.965 163.136 174.942 163.154 174.8 163.178 174.666 163.154 174.643 163.178 174.5 163.16 174.394 163.178 174.316 163.172 174.298 163.196 174.242 163.196 174.192 163.178 174.132 163.184 174.104 163.172 173.998 163.166 173.975 163.196 173.943 163.19 173.915 163.202 173.722 163.142 173.616 163.13 173.51 163.148 173.487 163.172 173.404 163.178 173.321 163.178 173.22 163.148 173.197 163.166 173.174 163.166 173.064 163.148 173.036 163.172 173.008 163.172 172.87 163.148 172.842 163.154 172.815 163.148 172.686 163.154 172.654 163.142 172.543 163.148 172.4 163.136 172.258 163.148 172 163.136 171.949 163.136 171.908 163.154 171.719 163.142 171.544 163.154 171.516 163.142 171.466 163.142 171.373 163.16 170.977 163.148 170.913 163.16 170.899 163.136 170.89 163.136 170.743 163.166 170.715 163.178 170.609 163.184 170.535 163.172 170.31 163.172 170.204 163.154 169.96 163.16 169.863 163.148 169.789 163.16 169.688 163.154 169.559 163.172 169.536 163.166 169.467 163.166 169.287 163.19 169.237 163.184 169.094 163.19 168.919 163.178 168.55 163.19 168.527 163.178 168.44 163.208 168.297 163.19 168.21 163.208 168.136 163.208 168.108 163.196 168.03 163.19 167.855 163.208 167.629 163.19 167.468 163.202 167.307 163.19 167.118 163.202 167.1 163.214 167.072 163.208 166.999 163.232 166.971 163.226 166.952 163.238 166.879 163.232 166.778 163.244 166.704 163.232 166.63 163.238 166.584 163.25 166.478 163.244 166.451 163.256 166.28 163.238 166.105 163.268 166.078 163.262 165.981 163.274 165.953 163.262 165.903 163.268 165.884 163.286 165.838 163.286 165.787 163.298 165.783 163.352 165.76 163.37 165.709 163.364 165.677 163.346 165.645 163.34 165.626 163.352 165.599 163.352 165.539 163.376 165.506 163.376 165.437 163.406 165.391 163.394 165.373 163.406 165.355 163.448 165.331 163.454 165.212 163.424 165.152 163.394 165.041 163.382 164.981 163.358 164.94 163.382 164.857 163.382 164.673 163.346 164.493 163.37 164.433 163.37 164.355 163.352 164.277 163.352 164.231 163.364 164.056 163.364 163.918 163.394 163.77 163.382 163.489 163.424 163.314 163.418 163.158 163.448 163.08 163.454 162.895 163.46 162.665 163.46 162.416 163.49 162.26 163.484 162.232 163.496 162.007 163.466 161.744 163.508 161.68 163.526 161.657 163.568 161.661 163.628 161.68 163.64 161.652 163.688 161.657 163.73 161.647 163.802 161.666 163.94 161.657 164.018 161.675 164.217 161.666 164.295 161.666 164.367 161.675 164.391 161.67 164.475 161.68 164.751 161.698 164.943 161.693 164.967 161.703 165.051 161.703 165.099 161.716 165.219 161.726 165.507 161.744 165.58 161.735 165.76 161.758 165.844 161.762 165.91 161.762 165.982 161.749 166.132 161.786 166.216 161.804 166.3 161.832 166.366 161.974 166.57 161.997 166.66 162.016 166.786 162.011 166.991 162.016 167.051 162.034 167.105 162.048 167.315 162.057 167.339 162.066 167.459 162.057 167.561 162.066 167.675 162.066 167.723 162.053 167.741 162.043 167.825 162.043 167.915 161.997 167.945 161.97 167.945 161.795 167.927 161.758 167.933 161.767 167.951 161.772 167.987 161.73 167.945 161.638 167.933 161.569 167.873 161.541 167.693 161.546 167.669 161.518 167.603 161.505 167.531 161.5 167.483 161.514 167.453 161.5 167.387 161.505 167.369"><title>2020-10-13 6.2km</title></polyline><polyline fill="none" stroke="#4dd2ff" stroke-linecap="round" stroke-linejoin="round" stroke-width=".5" points="11.5 197.881 11.508 197.903 11.618 197.914 11.69 197.908 11.812 197.886 11.905 197.881 12.014 197.892 12.094 197.875 12.124 197.881 12.145 197.897 12.162 197.947 12.153 198.018 12.158 198.04 12.158 198.09 12.166 198.128 12.162 198.172 12.17 198.337 12.166 198.474 12.2 198.485 12.238 198.469 12.339 198.491 12.444 198.485 12.495 198.496 12.567 198.485 12.596 198.469 12.596 198.419 12.605 198.408 12.596 198.381 12.6 198.353 12.605 198.15 12.613 198.079 12.605 198.013 12.605 197.798 12.596 197.782 12.6 197.765 12.588 197.633 12.592 197.611 12.588 197.551 12.592 197.457 12.605 197.413 12.592 197.369 12.592 197.309 12.571 197.254 12.508 197.177 12.487 197.166 12.444 197.106 12.436 197.111 12.428 197.1 12.356 196.968 12.339 196.913 12.331 196.82 12.322 196.781 12.326 196.721 12.305 196.572 12.314 196.501 12.305 196.457 12.314 196.314 12.305 196.204 12.309 196.094 12.305 195.973 12.288 195.858 12.293 195.83 12.284 195.671 12.288 195.528 12.272 195.138 12.276 195.088 12.272 195.028 12.263 195.011 12.272 194.989 12.267 194.901 12.288 194.802 12.276 194.709 12.28 194.676 12.284 194.665 12.309 194.654 12.381 194.637 12.546 194.61 12.659 194.61 12.765 194.599 12.858 194.577 12.963 194.571 13.009 194.555 13.182 194.544 13.237 194.533 13.262 194.538 13.33 194.533 13.418 194.544 13.511 194.538 13.781 194.5 14.051 194.5 14.097 194.511 14.215 194.494 14.439 194.511 14.679 194.483 15.113 194.483 15.185 194.467 15.257 194.461 15.375 194.456 15.45 194.467 15.518 194.45 15.581 194.461 15.606 194.445 15.754 194.45 16.045 194.417 16.34 194.412 16.378 194.417 16.386 194.423 16.386 194.428 16.412 194.428 16.572 194.406 16.631 194.412 16.728 194.401 16.833 194.395 16.956 194.368 17.238 194.351 17.322 194.362 17.348 194.362 17.373 194.346 17.664 194.346 17.715 194.357 17.74 194.346 17.799 194.357 17.925 194.335 18.035 194.34 18.107 194.329 18.351 194.335 18.423 194.34 18.444 194.335 18.516 194.34 18.651 194.329 18.752 194.346 18.844 194.324 18.992 194.324 19.047 194.313 19.414 194.318 19.578 194.329 19.861 194.324 19.907 194.313 20.063 194.313 20.126 194.324 20.274 194.307 20.35 194.318 20.708 194.296 20.885 194.313 21.071 194.313 21.142 194.296 21.201 194.307 21.252 194.302 21.555 194.307 21.572 194.296 21.678 194.302 21.724 194.296 21.876 194.307 22.163 194.291 22.289 194.291 22.365 194.285 22.39 194.274 22.424 194.285 22.55 194.28 22.673 194.291 22.698 194.28 22.723 194.285 22.816 194.269 22.943 194.291 22.968 194.28 22.985 194.291 23.04 194.28 23.141 194.296 23.351 194.291 23.432 194.307 23.554 194.285 23.604 194.296 23.693 194.302 23.752 194.291 23.828 194.302 23.904 194.285 23.954 194.263 24.001 194.269 24.14 194.263 24.279 194.242 24.612 194.258 24.684 194.247 24.713 194.258 24.726 194.247 24.777 194.242 24.928 194.274 25.021 194.274 25.282 194.247 25.451 194.253 25.557 194.242 25.679 194.258 25.982 194.247 26.025 194.253 26.134 194.242 26.159 194.253 26.311 194.225 26.522 194.214 26.568 194.22 26.826 194.192 26.927 194.192 27.163 194.143 27.264 194.143 27.559 194.104 27.597 194.11 27.694 194.093 27.939 194.077 28.044 194.044 28.175 194.033 28.217 194.011 28.322 193.994 28.394 194 28.605 193.978 28.723 193.983 28.816 193.972 28.866 193.983 28.993 193.95 29.191 193.945 29.208 193.928 29.229 193.934 29.262 193.917 29.284 193.89 29.381 193.884 29.397 193.868 29.431 193.862 29.452 193.868 29.524 193.857 29.553 193.835 29.591 193.846 29.693 193.829 29.735 193.846 29.882 193.813 30.013 193.802 30.076 193.78 30.144 193.785 30.215 193.774 30.308 193.747 30.413 193.752 30.662 193.725 30.738 193.725 30.877 193.697 30.932 193.708 31 193.703 31.08 193.686 31.101 193.692 31.202 193.67 31.303 193.67 31.379 193.648 31.51 193.648 31.531 193.637 31.556 193.648 31.775 193.615 31.864 193.62 31.885 193.637 31.876 193.642 31.889 193.631 31.885 193.637 31.893 193.642 31.927 193.642 32.011 193.637 32.096 193.615 32.193 193.62 32.319 193.604 32.526 193.571 32.644 193.571 32.838 193.538 32.994 193.549 33.053 193.538 33.167 193.543 33.188 193.532 33.289 193.521 33.58 193.499 33.626 193.505 33.715 193.488 33.824 193.488 33.845 193.483 34.006 193.477 34.044 193.466 34.086 193.472 34.103 193.461 34.145 193.472 34.225 193.472 34.377 193.455 34.49 193.461 34.609 193.439 35.072 193.417 35.152 193.406 35.38 193.395 35.473 193.389 35.498 193.378 35.755 193.362 35.81 193.345 35.852 193.351 35.861 193.351 35.856 193.362 35.878 193.34 35.873 193.345 35.865 193.334 35.856 193.34 35.861 193.329 35.861 193.334 35.848 193.334 35.878 193.334 35.865 193.351 35.865 193.345 35.894 193.362 36.029 193.367 36.046 193.378 36.228 193.367 36.278 193.345 36.48 193.334 36.548 193.318 36.771 193.329 36.847 193.312 37.007 193.307 37.033 193.318 37.096 193.312 37.206 193.318 37.429 193.285 37.598 193.285 37.653 193.263 37.669 193.241 37.657 193.208 37.657 193.186 37.648 193.147 37.653 193.114 37.636 193.049 37.631 193.01 37.653 192.961 37.64 192.911 37.644 192.884 37.627 192.768 37.631 192.746 37.615 192.68 37.543 192.565 37.543 192.532 37.526 192.482 37.454 192.334 37.463 192.301 37.442 192.268 37.433 192.213 37.395 192.141 37.395 192.125 37.433 192.108 37.492 192.103 37.505 192.114 37.526 192.114 37.691 192.081 37.838 192.048 37.927 192.004 38.011 191.949 38.137 191.861 38.319 191.691 38.34 191.691 38.344 191.707 38.378 191.691 38.39 191.674 38.399 191.63 38.424 191.603 38.454 191.559 38.479 191.537 38.475 191.515 38.5 191.504"><title>2020-10-13 6.9km</title></polyline><polyline fill="none" stroke="#4dd2ff" stroke-linecap="round" stroke-linejoin="round" stroke-width=".5" points="49.909 198.15 50.52 198.629 53.089 196.755 56.605 195.718 61.589 197.273 68.5 186.666 67.155 186.028 44.374 186.706 43.885 187.304 43.579 192.608 41.653 197.871 41.683 200.822 43.151 203.972 47.249 202.178 51.927 197.313 54.71 195.718 57.217 195.718 61.589 197.313 68.317 186.985 67.766 186.028 44.069 186.866 43.702 192.368 41.592 199.067 42.081 202.377 43.182 203.972 46.912 202.457 53.272 196.396 57.247 195.798 61.559 197.353 68.5 186.786 67.583 186.068 59.266 186.108 44.007 186.985 43.824 191.531 41.5 199.187 42.142 202.377 43.335 203.972 47.616 201.898 51.682 197.353 53.884 196.236 57.431 195.838 60.978 197.353 61.956 196.914 68.378 186.905 68.011 186.188 55.015 186.427 54.404 186.826"><title>2020-10-13 7.5km</title></polyline><polyline fill="none" stroke="#4dd2ff" stroke-linecap="round" stroke-linejoin="round" stroke-width=".5" points="98.495 192.104 98.5 192.098 98.477 192.127 98.437 192.133 98.171 192.151 97.888 192.157 97.802 192.168 97.654 192.157 97.397 192.204 97.294 192.198 97.222 192.204 97.199 192.215 97.055 192.233 97.033 192.227 96.934 192.239 96.911 192.233 96.727 192.262 96.704 192.251 96.605 192.262 96.529 192.262 96.484 192.268 96.452 192.292 96.371 192.292 96.245 192.303 96.124 192.292 96.052 192.298 95.921 192.292 95.746 192.309 95.516 192.309 95.012 192.362 94.8 192.362 94.616 192.374 94.593 192.386 94.53 192.386 94.454 192.397 94.341 192.403 94.238 192.397 93.99 192.415 93.788 192.421 93.711 192.438 93.657 192.433 93.626 192.444 93.495 192.438 93.482 192.433 93.387 192.421 93.288 192.444 92.901 192.48 92.401 192.591 92.203 192.615 92.005 192.644 91.735 192.667 91.402 192.673 91.281 192.703 91.173 192.703 91.065 192.732 90.498 192.767 90.327 192.796 90.318 192.785 90.309 192.796 90.304 192.791 90.255 192.802 90.102 192.802 89.989 192.826 89.926 192.832 89.895 192.843 89.841 192.838 89.782 192.849 89.602 192.873 89.503 192.896 89.386 192.908 89.291 192.914 89.084 192.949 89.021 192.943 88.913 192.949 88.621 192.99 88.522 192.984 88.36 193.002 88.333 192.996 88.261 193.019 88.103 193.025 88.081 193.043 88.058 193.037 87.91 193.061 87.5 193.102 87.176 193.119 87.113 193.131 87.041 193.125 86.879 193.125 86.758 193.149 86.663 193.154 86.402 193.131 86.316 193.143 86.051 193.143 85.92 193.154 85.664 193.149 85.56 193.178 85.358 193.166 85.25 193.19 85.164 193.178 85.088 193.184 84.962 193.172 84.674 193.184 84.575 193.172 84.503 193.178 84.408 193.166 84.291 193.172 84.228 193.166 84.156 193.184 84.066 193.178 84.044 193.19 83.927 193.201 83.909 193.213 83.855 193.207 83.837 193.225 83.81 193.225 83.792 193.237 83.688 193.254 83.625 193.237 83.603 193.242 83.553 193.219 83.445 193.213 83.418 193.219 83.373 193.219 83.251 193.201 83.112 193.207 83.067 193.196 82.59 193.184 82.473 193.196 82.234 193.196 82.194 193.207 82.063 193.196 81.834 193.201 81.627 193.184 81.343 193.19 81.312 193.184 81.276 193.201 81.231 193.213 81.06 193.219 80.97 193.213 80.902 193.219 80.794 193.201 80.61 193.19 80.587 193.201 80.411 193.207 80.326 193.196 80.186 193.196 79.903 193.225 79.795 193.213 79.687 193.219 79.61 193.213 79.475 193.225 79.295 193.219 79.192 193.231 78.926 193.231 78.467 193.248 77.842 193.231 77.657 193.237 77.324 193.278 77.22 193.272 76.748 193.301 76.568 193.289 76.424 193.307 76.271 193.313 76.181 193.336 75.987 193.366 75.947 193.383 75.812 193.395 75.708 193.383 75.618 193.389 75.591 193.383 75.393 193.377 75.281 193.401 75.182 193.389 74.561 193.436 74.38 193.424 74.07 193.465 74.034 193.477 73.948 193.477 73.431 193.512 73.206 193.512 72.742 193.559 72.679 193.554 72.634 193.559 72.553 193.554 72.409 193.577 72.405 193.571 72.4 193.559 72.364 193.554 72.328 193.612 72.333 193.642 72.319 193.677 72.337 193.712 72.333 193.777 72.292 194.07 72.301 194.158 72.292 194.293 72.297 194.41 72.315 194.557 72.31 194.604 72.328 194.751 72.346 195.173 72.355 195.255 72.378 195.731 72.373 195.813 72.396 195.971 72.391 196.024 72.414 196.177 72.522 196.406 72.535 196.417 72.612 196.546 72.634 196.623 72.639 196.664 72.63 196.722 72.63 196.805 72.639 196.975 72.661 197.075 72.675 197.221 72.697 197.298 72.675 197.456 72.684 197.497 72.666 197.679 72.67 197.744 72.661 197.785 72.666 197.837 72.657 197.861 72.643 197.878 72.612 197.896 72.427 197.89 72.337 197.902 72.288 197.89 72.238 197.867 72.22 197.849 72.216 197.826 72.22 197.785 72.211 197.714 72.198 197.679 72.193 197.638 72.198 197.544 72.184 197.421 72.18 197.391 72.184 197.391 72.153 197.368 72.153 197.356 72.175 197.339 72.171 197.298 72.148 197.262 71.982 197.239 71.932 197.251 71.919 197.233 71.914 197.245 71.856 197.239 71.77 197.262 71.716 197.268 71.689 197.256 71.545 197.274 71.5 197.268"><title>2020-10-14 6.2km</title></polyline><polyline fill="none" stroke="#4dd2ff" stroke-linecap="round" stroke-linejoin="round" stroke-width=".5" points="106.102 190.059 106.9 191.579 106.317 195.18 108.373 197.981 110.49 198.821 113.036 196.821 116.074 195.86 121.627 197.261 128.5 186.818 127.549 185.978 123.131 185.938 104.047 186.778 103.464 192.539 101.5 199.021 101.776 201.542 102.512 203.502 103.218 203.982 107.698 201.902 111.073 198.061 113.282 196.501 117.332 195.78 120.676 197.141 121.873 197.061 128.439 186.898 127.672 185.978 126.874 185.978 104.047 186.778 103.494 192.539 101.5 199.141 101.776 201.582 102.973 204.062 107.514 202.182 111.748 197.181 113.22 196.381 118.16 195.78 121.535 197.421 128.469 186.778 127.549 185.978 104.047 186.818 103.525 192.419 101.561 198.541 102.39 203.262"><title>2020-10-14 6.4km</title></polyline><polyline fill="none" stroke="#4dd2ff" stroke-linecap="round" stroke-linejoin="round" stroke-width=".5" points="158.5 192.096 158.468 192.084 158.454 192.084 158.436 192.066 158.418 192.084 158.367 192.156 158.358 192.144 158.363 192.132 158.34 192.114 158.354 192.114 158.372 192.054 158.271 192.072 158.129 192.072 158.042 192.084 157.951 192.084 157.932 192.096 157.717 192.09 157.717 192.102 157.671 192.108 157.552 192.102 157.36 192.126 157.305 192.12 157.154 192.126 156.825 192.15 156.696 192.144 156.564 192.174 156.559 192.162 156.499 192.18 156.385 192.192 156.33 192.21 156.229 192.21 156.046 192.245 155.808 192.251 155.767 192.257 155.735 192.251 155.552 192.251 155.515 192.263 155.19 192.269 154.728 192.323 154.572 192.323 154.494 192.347 154.403 192.341 154.215 192.353 154.037 192.359 154.018 192.347 153.744 192.383 153.648 192.371 153.533 192.389 153.396 192.395 153.387 192.383 153.332 192.401 153.268 192.401 153.194 192.418 153.167 192.412 153.094 192.424 153.066 192.412 152.865 192.436 152.746 192.46 152.672 192.46 152.654 192.478 152.531 192.484 152.32 192.532 152.068 192.58 151.88 192.592 151.844 192.586 151.789 192.604 151.656 192.604 151.583 192.627 151.336 192.639 151.198 192.669 151.079 192.669 150.924 192.711 150.754 192.729 150.608 192.735 150.585 192.747 150.443 192.741 150.118 192.806 149.921 192.789 149.779 192.806 149.729 192.8 149.66 192.818 149.61 192.818 149.55 192.836 149.491 192.842 149.463 192.854 149.427 192.848 149.175 192.86 148.658 192.92 148.534 192.944 147.953 192.997 147.733 193.033 147.573 193.045 147.316 193.075 147.097 193.081 147.037 193.093 146.968 193.087 146.946 193.093 146.845 193.099 146.653 193.087 146.369 193.111 146.263 193.105 146.209 193.117 146.195 193.105 145.856 193.123 145.792 193.117 145.476 193.123 145.375 193.147 145.288 193.135 145.128 193.147 145.069 193.141 144.927 193.159 144.789 193.147 144.638 193.165 144.501 193.153 144.478 193.141 144.327 193.159 144.263 193.153 144.094 193.159 144.048 193.177 144.011 193.171 143.819 193.165 143.718 193.212 143.695 193.218 143.682 193.236 143.627 193.242 143.581 193.272 143.526 193.272 143.457 193.248 143.389 193.266 143.357 193.254 143.238 193.242 143.027 193.177 142.958 193.177 142.899 193.165 142.771 193.171 142.661 193.153 142.487 193.153 142.313 193.153 142.267 193.141 142.134 193.153 142.002 193.141 141.988 193.153 141.869 193.135 141.512 193.165 141.306 193.153 140.903 193.183 140.88 193.177 140.66 193.177 140.482 193.153 140.276 193.171 140.056 193.159 139.461 193.188 139.191 193.177 138.998 193.177 138.774 193.188 138.651 193.188 138.513 193.212 138.248 193.23 138.065 193.206 137.817 193.224 137.685 193.242 137.566 193.242 137.465 193.272 137.369 193.278 137.323 193.296 137.236 193.29 137.163 193.254 137.099 193.248 137.03 193.248 136.993 193.26 136.819 193.278 136.774 193.278 136.751 193.266 136.691 193.272 136.568 193.254 136.508 193.254 136.352 193.266 136.27 193.29 136.174 193.284 136.101 193.308 136.032 193.314 136.014 193.326 135.922 193.338 135.899 193.35 135.844 193.344 135.799 193.356 135.689 193.356 135.634 193.338 135.501 193.362 135.483 193.374 135.304 193.374 135.249 193.391 135.217 193.374 135.162 193.38 135.13 193.374 135.08 193.385 134.979 193.385 134.933 193.403 134.901 193.397 134.796 193.391 134.599 193.445 134.498 193.409 134.411 193.415 134.251 193.451 134.224 193.469 134.1 193.439 134.004 193.433 133.977 193.421 133.913 193.433 133.807 193.439 133.757 193.427 133.697 193.445 133.629 193.433 133.574 193.451 133.436 193.457 133.203 193.481 132.85 193.487 132.64 193.475 131.912 193.523 131.894 193.535 131.862 193.559 131.866 193.576 131.862 193.588 131.852 193.636 131.862 193.666 131.885 193.702 131.88 193.732 131.885 193.964 131.862 194.048 131.885 194.179 131.875 194.358 131.898 194.567 131.898 194.663 131.894 194.729 131.907 194.848 131.903 194.914 131.921 195.057 131.912 195.105 131.926 195.254 131.921 195.308 131.935 195.355 131.93 195.403 131.939 195.475 131.935 195.528 131.944 195.63 131.939 195.761 131.953 195.815 131.949 195.898 131.962 196.006 131.958 196.072 131.972 196.173 131.99 196.227 132.077 196.376 132.155 196.495 132.2 196.65 132.214 196.734 132.228 196.943 132.232 196.955 132.232 197.056 132.246 197.098 132.255 197.17 132.251 197.194 132.264 197.253 132.264 197.271 132.246 197.271 132.237 197.319 132.26 197.498 132.26 197.558 132.269 197.635 132.264 197.719 132.251 197.743 132.242 197.85 132.228 197.868 132.219 197.916 132.2 197.946 132.168 197.946 132.049 197.928 132.031 197.916 131.88 197.916 131.798 197.892 131.756 197.826 131.743 197.755 131.72 197.707 131.688 197.57 131.679 197.414 131.683 197.391 131.692 197.385 131.683 197.385 131.688 197.373 131.674 197.343 131.679 197.307 131.669 197.295 131.573 197.295 131.5 197.277"><title>2020-10-15 6.2km</title></polyline><polyline fill="none" stroke="#4dd2ff" stroke-linecap="round" stroke-linejoin="round" stroke-width=".5" points="161.5 197.9 161.517 197.894 161.513 197.917 161.517 197.911 161.504 197.9 161.53 197.894 161.526 197.962 161.539 197.979 161.556 198.267 161.569 198.341 161.565 198.397 161.569 198.454 161.613 198.465 161.639 198.499 161.699 198.522 161.877 198.51 161.955 198.499 162.007 198.476 162.02 198.46 162.029 198.409 162.025 198.239 162.038 198.081 162.003 197.793 162.02 197.736 162.016 197.713 162.02 197.679 162.012 197.651 162.016 197.533 162.025 197.504 162.012 197.419 162.003 197.284 161.973 197.216 161.873 197.058 161.864 197.063 161.825 196.99 161.79 196.911 161.786 196.866 161.773 196.854 161.773 196.803 161.756 196.747 161.76 196.685 161.743 196.656 161.743 196.634 161.743 196.521 161.73 196.487 161.738 196.464 161.751 196.374 161.743 196.323 161.751 196.266 161.743 196.221 161.738 196.046 161.738 196.006 161.743 195.989 161.725 195.922 161.721 195.769 161.717 195.752 161.721 195.599 161.699 195.413 161.699 195.328 161.678 195.181 161.682 195.04 161.669 194.978 161.682 194.927 161.682 194.808 161.704 194.78 161.695 194.723 161.704 194.661 161.717 194.61 161.717 194.582 161.738 194.548 161.756 194.537 162.025 194.531 162.211 194.514 162.233 194.503 162.293 194.508 162.406 194.503 162.467 194.491 162.718 194.48 162.853 194.463 162.905 194.469 163.052 194.457 163.269 194.457 163.329 194.446 163.62 194.452 163.984 194.429 164.105 194.407 164.158 194.418 164.288 194.407 164.348 194.418 164.37 194.412 164.526 194.446 164.634 194.424 164.803 194.407 164.951 194.367 165.22 194.395 165.263 194.412 165.376 194.407 165.562 194.373 165.688 194.333 165.939 194.316 165.987 194.299 166.186 194.305 166.173 194.299 166.173 194.316 166.247 194.294 166.39 194.282 166.499 194.294 166.52 194.248 166.616 194.243 166.646 194.248 166.767 194.243 166.871 194.254 167.027 194.254 167.075 194.243 167.236 194.231 167.327 194.243 167.561 194.226 167.639 194.237 168.016 194.209 168.233 194.22 168.298 194.209 168.341 194.214 168.406 194.203 168.54 194.209 168.757 194.192 168.991 194.209 169.312 194.197 169.382 194.209 169.594 194.186 169.681 194.192 169.737 194.186 170.179 194.186 170.353 194.175 170.5 194.186 170.595 194.175 170.738 194.186 170.855 194.175 170.873 194.18 170.929 194.175 171.25 194.169 171.315 194.158 171.41 194.18 171.558 194.164 171.718 194.18 171.835 194.164 171.983 194.175 172.169 194.164 172.273 194.164 172.447 194.158 172.481 194.169 172.793 194.158 172.815 194.152 172.837 194.158 172.971 194.152 172.993 194.164 173.123 194.152 173.192 194.158 173.231 194.152 173.409 194.169 173.587 194.152 173.63 194.158 173.691 194.147 173.842 194.152 173.89 194.141 174.02 194.135 174.163 194.135 174.233 194.147 174.332 194.13 174.471 194.13 174.614 194.147 174.692 194.141 174.727 194.147 174.866 194.13 175.095 194.13 175.126 194.124 175.225 194.135 175.559 194.124 175.65 194.13 175.737 194.124 175.772 194.13 175.988 194.101 176.006 194.107 176.114 194.096 176.14 194.101 176.223 194.096 176.27 194.084 176.396 194.079 176.465 194.056 176.582 194.045 176.652 194.011 176.691 194.017 176.764 194.017 176.855 193.954 176.89 193.943 176.929 193.949 176.977 193.926 177.003 193.926 177.085 193.904 177.298 193.875 177.766 193.83 177.792 193.819 177.983 193.836 178.095 193.864 178.217 193.87 178.585 193.819 178.711 193.813 178.793 193.841 179.036 193.836 179.118 193.819 179.136 193.807 179.253 193.813 179.366 193.785 179.439 193.785 179.5 193.762 179.708 193.734 179.916 193.683 180.003 193.683 180.103 193.66 180.176 193.655 180.237 193.666 180.28 193.649 180.432 193.621 180.506 193.593 180.618 193.587 180.675 193.57 180.731 193.57 180.84 193.542 180.87 193.542 180.9 193.564 180.965 193.57 181.689 193.457 181.741 193.463 181.949 193.44 182.066 193.451 182.153 193.434 182.426 193.423 182.673 193.389 182.786 193.389 182.821 193.4 182.903 193.389 183.081 193.395 183.098 193.383 183.263 193.378 183.315 193.366 183.393 193.372 183.523 193.361 183.658 193.366 183.679 193.355 183.922 193.327 183.957 193.333 184.061 193.316 184.16 193.321 184.355 193.299 184.728 193.287 184.85 193.259 184.967 193.248 184.988 193.236 185.11 193.253 185.236 193.248 185.296 193.253 185.457 193.236 185.565 193.242 185.708 193.219 185.825 193.219 185.916 193.191 185.929 193.197 185.929 193.186 185.921 193.197 185.925 193.186 185.942 193.214 185.951 193.214 186.033 193.197 186.198 193.203 186.311 193.197 186.393 193.18 186.571 193.174 186.601 193.163 186.701 193.169 186.731 193.157 186.87 193.146 186.983 193.146 187.035 193.157 187.178 193.152 187.208 193.14 187.347 193.123 187.533 193.118 187.837 193.067 187.889 193.067 187.949 193.089 187.975 193.078 187.988 193.095 187.993 193.089 187.988 193.078 187.967 193.05 187.962 193.01 187.941 192.971 187.906 192.88 187.906 192.841 187.871 192.767 187.858 192.682 187.832 192.603 187.793 192.53 187.789 192.502 187.759 192.434 187.728 192.388 187.72 192.355 187.681 192.321 187.655 192.27 187.646 192.219 187.65 192.202 187.702 192.157 187.724 192.123 187.763 192.1 187.759 192.089 187.806 192.038 187.832 192.032 187.932 191.965 188.049 191.925 188.088 191.891 188.105 191.846 188.192 191.818 188.257 191.772 188.301 191.761 188.314 191.71 188.383 191.665 188.383 191.654 188.418 191.642 188.431 191.665 188.491 191.637 188.5 191.597 188.461 191.518 188.478 191.478"><title>2020-10-15 6.7km</title></polyline><polyline fill="none" stroke="#4dd2ff" stroke-linecap="round" stroke-linejoin="round" stroke-width=".5" points="17.378 220.709 17.194 220.19 16.857 219.751 16.796 219.311 16.673 219.631 16.459 219.591 16.245 219.791 16.214 220.31 16.398 220.669 16.673 221.068 16.857 221.587 16.796 221.707 16.827 222.146 16.673 222.665 16.735 222.904 16.52 223.783 16.52 224.022 16.337 224.341 16.337 224.661 16.276 224.9 16.367 225.539 16.735 225.978 16.857 226.298 17.102 226.577 17.531 227.216 17.561 227.375 18.173 228.134 18.327 228.174 19.184 228.174 19.52 228.413 19.888 228.174 19.98 228.294 20.041 228.493 20.224 228.613 20.531 228.453 20.561 228.294 20.745 228.094 21.204 227.735 21.48 227.216 21.724 227.096 22 227.016 22.306 226.777 22.673 226.777 23.224 226.457 23.469 226.497 24.02 226.258 24.449 226.218 25.031 225.858 25.582 225.739 25.796 225.858 26.194 225.858 26.653 225.739 27.02 225.819 27.51 225.858 27.786 226.058 28.459 226.138 28.796 226.337 29.102 226.377 29.224 226.497 29.929 226.777 30.418 227.136 31.337 227.136 31.704 227.216 31.765 227.136 31.796 226.936 32.041 226.697 32.561 225.819 33.082 225.22 33.939 223.942 34 223.583 34.184 223.463 34.459 222.825 34.765 222.545 34.796 222.385 34.949 222.066 36.051 220.549 36.48 219.87 36.541 219.671 36.724 219.471 36.939 219.112 37.276 218.633 38.163 217.156 38.316 216.996 38.347 216.836 38.439 216.637 38.347 216.477 37.765 215.998 36.694 216.118 36.204 216.038 36.02 216.078 35.378 216.038 35.041 216.118 33.724 215.958 32.837 216.078 32.347 215.958 31.888 216.078 31.765 216.038 30.02 216.238 29.316 216.198 28.184 216.317 27.816 216.238 26.837 216.357 26.408 216.277 25.184 216.397 24.786 216.317 24.265 216.517 23.531 216.317 23.133 216.357 22.949 216.437 21.878 216.477 21.541 216.637 20.99 216.677 20.316 216.517 19.857 216.637 19.673 216.597 19.367 216.677 18.663 216.677 18.541 216.597 18.235 216.597 17.929 216.477 17.714 216.517 17.5 216.677 17.255 216.757 16.949 216.677 16.245 216.637 16.122 216.717 15.724 216.717 15.327 216.757 14.194 216.757 14.041 216.876 13.827 217.276 13.827 217.675 13.888 217.954 13.827 218.234 13.857 219.311 13.918 219.551 13.857 220.509 13.765 220.669 13.765 221.068 13.704 221.507 13.582 221.866 13.582 222.146 13.551 222.345 13.459 222.425 13.429 222.785 13.214 223.184 13.092 223.583 12.969 223.743 12.816 224.541 12.571 225.02 12.48 225.3 12.388 225.419 12.388 225.739 12.051 226.337 11.776 227.375 11.653 227.655 11.592 228.094 11.653 228.214 11.5 228.972 11.5 229.81 11.653 230.968 11.806 231.407 11.837 231.767 12.265 232.804 12.388 233.323 12.541 233.643 12.786 233.882 13.061 234.042 13.551 233.962 13.827 233.882 13.918 233.922 14.347 233.842 14.684 233.683 14.929 233.483 15.571 233.244 16.031 232.924 16.306 232.844 16.98 232.246 17.5 232.046 17.898 231.727 18.082 231.327 18.724 230.689 19.153 230.369 19.49 229.89 19.857 229.611 20.071 229.292 20.133 229.132 20.347 228.892 20.439 228.493 21.143 227.894 21.48 227.735 21.48 227.415 21.724 227.176 22.122 226.936 22.337 226.777 23.01 226.657 23.378 226.337 23.776 226.377 24.265 226.218 24.663 225.978 24.816 225.779 24.939 225.739 25.245 225.938 25.704 225.858 26.102 225.898 26.347 225.819 26.806 225.938 27.449 226.018 27.786 226.178 28.092 226.138 28.245 226.218 28.367 226.178 29.041 226.417 30.296 227.096 30.541 227.176 31.122 227.296 31.612 227.256 31.765 227.136 31.949 226.896 32.01 226.697 32.102 226.617 32.439 226.058 32.867 225.18 33.082 224.98 33.173 224.701 33.357 224.501 33.51 224.182 33.878 223.743 34.092 223.304 34.98 222.146 35.071 221.946 35.5 221.228 35.806 220.868 36.541 219.83 36.694 219.391 37.306 218.633 37.643 217.954 38.408 216.956 38.5 216.637 38.071 216.238 37.796 216.078 36.173 216.038 34.796 216.118 33.878 216.038 33.082 216.118 32.469 216.038 31.612 216.198 31.031 216.158 30.418 216.238 29.776 216.198 29.378 216.317 29.041 216.317 28.582 216.397 28.459 216.357 28 216.317 27.449 216.517 27.112 216.517 26.531 216.357 26.133 216.357 25.949 216.477 24.847 216.437 24.235 216.557 23.439 216.397 23.347 216.477 22.184 216.437 21.755 216.597 21.235 216.517 20.531 216.597 20.286 216.517 19.857 216.517 19.735 216.597 18.112 216.597 17.469 216.717 16.888 216.677 15.48 216.757 14.224 216.717 14.041 216.836 13.918 217.036 13.857 218.992 13.765 219.391 13.827 219.631 13.796 220.19 13.827 220.509 13.643 221.627 13.673 221.946 13.49 222.385 13.459 222.625 13.122 223.423 13.031 223.862 12.908 224.182 12.786 224.661 12.541 225.18 12.418 225.659 12.112 226.298 12.112 226.537 11.99 226.817 11.959 227.016 11.776 227.296 11.622 227.934 11.622 228.533 11.5 229.092 11.5 229.731 11.592 230.489 11.837 231.527 12.296 232.844 12.541 233.443 12.847 233.842 13 233.922 13.551 233.842 13.827 233.723 13.918 233.603 14.071 233.643 14.806 233.403 15.082 233.363 15.694 233.204 15.816 233.044 15.939 233.044 16.031 232.884 16.153 232.884 16.582 232.525 16.827 232.445 16.98 232.246 17.5 231.767 17.622 231.846 17.806 231.767 18.112 231.527 18.265 231.327 18.541 231.128 18.694 230.808 19.214 230.25 19.306 229.97 19.612 229.531 20.071 229.172 20.347 229.012 20.561 228.573 20.653 228.573 20.837 228.333 20.929 228.014 21.388 227.775 21.418 227.375 21.541 227.256 22.031 227.016 22.582 226.856 22.888 226.856 22.949 226.777 23.01 226.577 23.163 226.417 23.378 226.337 23.745 226.298 24.388 226.098 24.418 225.779 24.571 225.659 25.031 225.699 25.582 225.858 26.041 225.779 26.408 225.819 26.622 225.779 27.051 225.898 28.153 225.978 29.378 226.417 29.745 226.617 30.296 227.096 30.724 227.335 30.939 227.415 31.673 227.375 31.827 227.256 32.286 226.417 32.439 226.018 32.99 225.06 33.418 224.461 33.51 224.222 33.878 223.783 34.367 223.024 35.133 221.667 35.378 221.387 35.469 221.188 35.622 221.028 36.02 220.349 37.184 218.912 38.041 217.395 38.316 217.076 38.5 216.677 38.286 216.557 38.133 216.317 37.796 216.078 37.245 216.158 36.327 216.038 35.867 216.118 35.776 216.038 35.531 216.038 35.286 216.118 34.796 216.038 34.153 216.158 34.061 216.078 33.847 216.118 33.48 215.998 32.408 216.078 31.857 216.238 31.337 216.198 31.245 216.118 30.602 216.277 29.99 216.317 29.347 216.238 28.949 216.357 28.704 216.317 28.184 216.317 27.755 216.437 27.663 216.517 27.265 216.557 26.347 216.517 26.01 216.557 25.827 216.677 25.031 216.517 24.969 216.437 24.908 216.517 24.449 216.637 24.265 216.597 24.082 216.437 23.653 216.357 23.347 216.397 22.918 216.517 22.551 216.477 21.449 216.517 21.204 216.437 20.806 216.517 20.592 216.437 20.469 216.517 20.163 216.477 19.888 216.597 19.214 216.637 18.48 216.597 17.99 216.677 17.684 216.796 17.255 216.677 16.949 216.717 16.429 216.597 16.092 216.717 15.51 216.637 14.347 216.757 14.071 216.916 13.98 217.196 13.918 217.675 13.98 217.994 13.98 218.513 13.857 219.032 13.888 219.351 13.857 219.751 13.918 220.549 13.673 221.268 13.245 222.026 13.214 222.345 13.245 222.904 13.153 223.104 13.153 223.343 13.092 223.503 13.061 223.942 12.388 225.3 12.327 225.699 12.112 226.098 12.112 226.298"><title>2020-10-15 6.5km</title></polyline><polyline fill="none" stroke="#ff9500" stroke-linecap="round" stroke-linejoin="round" stroke-width=".5" points="47.766 219.532 46.261 219.893 46.937 221.776 46.384 224.379 46.691 226.062 48.503 228.064 50.561 228.705 53.203 226.783 56.428 225.821 61.773 227.023 68.439 216.728 67.21 215.967 44.08 216.849 43.558 222.056 41.531 229.146 42.206 233.071 42.974 233.872 47.52 232.27 50.715 228.545 54.094 226.142 56.797 225.781 61.128 227.263 61.927 227.023 68.377 216.969 67.855 216.087 65.06 216.047 44.234 216.768 43.712 222.016 41.5 229.506 41.899 231.99 43.036 234.033 46.445 232.671 48.442 231.229 51.667 227.504 55.261 225.661 61.681 227.183 68.469 216.768 68.039 216.128 65.52 215.927 44.265 216.648 43.435 223.178 42.268 225.781 41.561 229.386 41.899 232.07 43.159 233.993 46.937 232.911 51.698 227.383 53.817 226.262 57.78 225.941 61.589 227.464 68.5 216.648 67.548 216.007 61.005 215.967 44.019 216.889 43.712 221.655 41.592 229.106 41.899 231.95 42.667 233.832 43.404 234.033 48.258 231.75 51.852 227.464 55.077 225.901 57.872 226.022 61.742 227.504 68.469 216.929 67.794 216.047 65.398 216.007 44.049 216.768 43.834 221.135 41.93 226.622 41.531 229.907 41.991 232.35 43.036 234.073 47.275 232.35 50.746 228.385 53.695 226.662 58.517 226.062 61.681 227.303 68.377 216.929 67.732 216.087 62.572 216.007 44.234 216.688 43.589 222.577 41.531 228.825 41.838 231.79 42.913 233.913"><title>2020-10-16 12.9km</title></polyline><polyline fill="none" stroke="#4dd2ff" stroke-linecap="round" stroke-linejoin="round" stroke-width=".5" points="80.327 221.212 80.171 223.406 81.003 224.537 82.217 225.057 83.5 224.13 85.321 223.406 86.205 223.383 88.633 224.152 92.5 218.34 92.014 217.865 71.743 218.476 71.5 220.104 71.829 227.047 72.246 227.499 74.309 227.454 76.754 228.087 78.124 228.064 79.702 227.522 83.916 223.836 85.893 223.338 86.777 223.406 89.014 224.559 91.147 226.843 93.454 228.607 95.691 226.481 96.749 224.559 98.5 222.569 95.448 219.629 93.662 218.318 92.986 218.386 92.153 217.865 80.968 218.001 71.777 218.476 71.535 219.539 71.829 223.903 71.587 225.667 72.228 232.135 78.436 231.727 78.419 230.665 77.587 228.607 78.02 228.584"><title>2020-10-18 6.6km</title></polyline><polyline fill="none" stroke="#4dd2ff" stroke-linecap="round" stroke-linejoin="round" stroke-width=".5" points="105.131 220.524 105.417 222.418 105.065 224.914 107.353 227.554 109.994 225.689 112.855 225.344 116.727 226.98 119.016 229.62 121.392 231.571 124.561 228.989 128.5 224.283 122.647 218.974 120.512 218.285 103.59 218.83 103.216 219.232 103.304 221.901 101.61 227.439 101.698 229.247 102.622 231.112 104.757 230.538 109.378 226.234 111.578 225.316 116.023 226.607 121.59 231.686 124.209 229.276 128.368 224.197 122.669 219.003 120.424 218.285 103.436 218.859 102.974 223.078 101.5 227.984 101.83 229.821 102.578 231.227 105.549 230.108 108.564 226.808 111.226 225.373 113.251 225.574 116.331 226.837 119.808 230.28 121.877 231.715 128.434 224.369 127.598 223.25 122.515 218.917 120.556 218.314 103.59 218.744 103.216 219.089 103.018 222.963 102.05 225.287 101.544 228.099"><title>2020-10-21 8.5km</title></polyline><polyline fill="none" stroke="#ffab00" stroke-linecap="round" stroke-linejoin="round" stroke-width=".5" points="135.341 220.821 134.924 221.307 135.495 223.025 135.012 223.311 134.99 225.401 136.373 226.861 137.822 227.662 138.963 226.317 140.193 225.687 143.88 225.515 146.515 227.004 151.3 231.584 153.934 229.58 158.302 224.428 158.039 223.712 152.551 219.046 150.598 218.359 133.629 218.76 133.234 219.189 132.949 223.025 131.522 227.72 131.873 230.01 132.51 231.212 134.485 230.668 135.956 229.723 139.249 226.174 140.741 225.429 142.541 225.344 146.098 226.689 151.673 231.698 158.5 224.199 152.354 218.96 150.334 218.302 133.41 218.846 133.168 222.109 131.5 227.834 131.917 230.124 132.554 231.183 135.451 230.067 139.271 226.174 142.124 225.372 144.144 225.716 146.515 226.975 149.873 230.496 151.585 231.641 153.715 229.781 158.39 224.17 152.837 219.246 150.62 218.416 133.476 218.903 132.905 223.34 131.5 227.805 131.763 229.637 132.751 231.269 135.144 230.296 138.985 226.489 142.168 225.429 144.517 225.888 146.471 227.004 151.366 231.698 154.461 229.008 158.28 224.342 157.71 223.311 151.937 218.617 148.644 218.302 133.585 218.931 133.146 222.395 131.632 227.118"><title>2020-10-23 11.3km</title></polyline><polyline fill="none" stroke="#4dd2ff" stroke-linecap="round" stroke-linejoin="round" stroke-width=".5" points="165.066 220.205 165.332 222.083 164.845 224.596 166.24 226.878 167.525 227.629 168.898 226.444 171.201 225.26 173.859 225.549 176.517 226.906 181.301 231.701 181.877 231.614 188.456 224.394 187.68 223.18 182.808 219.165 180.305 218.299 163.427 218.732 163.183 221.823 161.5 227.455 161.611 229.593 162.386 231.239 164.091 230.863 165.354 230.055 169.252 226.069 170.67 225.404 173.151 225.347 176.539 226.935 181.656 231.73 188.5 224.307 188.057 223.527 182.586 218.963 180.393 218.27 166.484 218.588 163.493 218.79 163.139 219.223"><title>2020-10-24 5.3km</title></polyline><polyline fill="none" stroke="#4dd2ff" stroke-linecap="round" stroke-linejoin="round" stroke-width=".5" points="15.178 251.195 15.398 252.717 15.002 255.072 16.345 256.852 17.909 257.456 18.966 256.422 20.882 255.388 23.811 255.445 26.431 256.795 31.541 261.648 33.611 259.897 38.5 254.182 38.258 253.636 32.774 249.127 30.704 248.323 19.715 248.38 13.372 248.84 13.02 252.918 11.5 257.57 11.896 259.983 12.667 261.103 14.429 260.758 16.081 259.638 20.111 255.704 22.82 255.216 26.828 257.054 31.739 261.648 38.478 254.124 32.576 249.041 30.352 248.323 13.438 248.811 12.976 253.176 11.566 257.14 12.007 260.385 12.865 261.132 15.794 259.782 19.935 255.761 22.489 255.187 26.828 257.025 30.175 260.528 31.893 261.677 38.456 254.153 32.708 249.041 30.572 248.352 13.636 248.754 13.262 249.156 13.108 252.889 11.5 257.8 11.94 259.868"><title>2020-10-25 8.5km</title></polyline><polyline fill="none" stroke="#4dd2ff" stroke-linecap="round" stroke-linejoin="round" stroke-width=".5" points="45.209 251.171 45.43 252.467 44.988 255.259 46.269 256.871 47.682 257.649 48.852 256.526 50.772 255.893 51.059 255.346 53.775 255.576 56.402 256.9 61.59 261.679 64.261 259.549 65.012 258.282 67.97 255.461 68.5 254.05 64.129 250.163 62.495 248.983 60.773 248.436 43.487 248.81 42.957 253.071 41.632 256.814 41.61 258.887 42.295 261.362 44.127 260.931 45.871 259.981 48.498 256.843 49.713 255.979 52.781 255.374 54.26 255.72 56.623 257.044 61.877 261.708 67.816 255.346 68.39 254.079 62.628 249.012 60.619 248.407 43.443 248.81 43.001 253.014 41.919 255.749 41.5 258.167 42.074 260.729 42.582 261.362 44.392 260.844 46.379 259.462 49.735 255.605 52.45 255.374 53.642 255.518 56.446 256.9 61.7 261.737 67.529 255.691 68.368 254.482 68.279 253.877 62.495 248.954 60.265 248.263 43.686 248.81 43.266 249.213 42.957 253.129 41.632 256.555 41.5 258.685 42.03 260.499 42.56 261.247 43.774 261.103 45.893 259.923 47.041 258.57"><title>2020-10-26 8.8km</title></polyline><polyline fill="none" stroke="red" stroke-linecap="round" stroke-linejoin="round" stroke-width=".5" points="74.955 251.112 75.439 252.719 74.999 255.072 76.473 257.023 77.771 257.712 80.874 255.531 84.043 255.703 86.749 257.081 91.634 261.729 98.434 254.441 98.06 253.694 92.559 249.16 90.006 248.242 73.524 248.787 72.952 253.235 72.006 255.474 71.5 258.085 71.94 260.151 72.622 261.213 75.219 260.323 79.95 255.933 82.546 255.388 84.263 255.761 86.925 257.253 91.502 261.729 94.319 259.405 98.412 254.555 98.104 253.752 92.537 249.046 90.27 248.328 73.524 248.73 73.018 253.006 71.588 257.626 71.654 259.434 72.688 261.241 73.855 261.069 76.033 259.749 79.466 256.363 81.27 255.359 82.414 255.33 84.769 255.99 86.925 257.167 91.7 261.758 97.928 255.416 98.478 254.354 92.581 249.103 90.402 248.357 73.414 248.816 72.952 253.063 71.632 257.339 71.654 259.376 72.666 261.184 75.241 260.38 79.356 256.392 82.744 255.646 84.197 255.904 86.683 257.109 91.568 261.729 98.5 254.412 92.603 249.132 90.49 248.357 73.656 248.73 73.26 249.132 72.974 253.121 71.544 257.626 71.786 259.634 72.512 261.184 73.7 261.155 75.307 260.352 78.211 257.31 80.698 256.535 80.962 255.99 83.515 255.502 86.727 257.109 91.634 261.7 93.087 260.581 98.412 254.383 98.17 253.809 92.735 249.189 90.468 248.357 73.436 248.816 73.238 252.088 71.61 257.31 71.83 259.692 72.358 261.012 72.886 261.299 75.791 260.036 78.476 257.052 80.016 256.076 81.248 255.445 83.405 255.445 86.639 257.138 91.744 261.672 97.664 255.502 98.412 254.182 92.515 249.017 90.446 248.414 73.502 248.931 73.084 252.805 71.632 257.138 71.896 259.663 72.776 261.241 75.395 260.18 79.07 256.392 81.402 255.445 85.935 256.621 91.634 261.758 98.39 254.383 98.258 253.809 92.581 249.046 90.314 248.3 73.722 248.874 73.326 249.247 73.084 252.977 71.742 256.679 71.786 259.491 72.446 260.983 73.194 261.155 75.043 260.409 77.331 258.286"><title>2020-10-27 20.2km</title></polyline></svg>