<svg xmlns="http://www.w3.org/2000/svg" xmlns:ev="http://www.w3.org/2001/xml-events" xmlns:xlink="http://www.w3.org/1999/xlink" width="200mm" height="200mm" baseProfile="full" version="1.1" viewBox="0 0 200 200"><rect width="200" height="200" x="0" y="0" fill="#1a1a1a"/><text style="dominant-baseline:central;font-size:9px;font-family:Arial" x="100" y="100" fill="#e1ed5e" alignment-baseline="middle" text-anchor="middle">2017</text><line x1="100" x2="100" y1="15" y2="10" stroke="#e1ed5e" stroke-width=".3"/><path id="id1" fill="none" stroke="none" d="M 100.0 14.0 a86.0,86.0 0 0,1 42.46469731375804,11.215312516191453"/><text fill="#e1ed5e" text-anchor="middle" style="font-size:6.75px;font-family:Arial"><textPath startOffset="22.206" xlink:href="#id1">January</textPath></text><line x1="143.237" x2="145.78" y1="26.818" y2="22.514" stroke="#e1ed5e" stroke-width=".3"/><path id="id2" fill="none" stroke="none" d="M 143.74570117128098 25.957352633546492 a86.0,86.0 0 0,1 28.547481713284135,27.462654790039103"/><text fill="#e1ed5e" text-anchor="middle" style="font-size:6.75px;font-family:Arial"><textPath startOffset="19.986" xlink:href="#id2">February</textPath></text><line x1="172.234" x2="176.484" y1="55.198" y2="52.563" stroke="#e1ed5e" stroke-width=".3"/><path id="id3" fill="none" stroke="none" d="M 173.08426987136738 54.67131705675599 a86.0,86.0 0 0,1 12.851231095245387,41.99856678651699"/><text fill="#e1ed5e" text-anchor="middle" style="font-size:6.75px;font-family:Arial"><textPath startOffset="22.206" xlink:href="#id3">March</textPath></text><line x1="184.98" x2="189.979" y1="98.171" y2="98.064" stroke="#e1ed5e" stroke-width=".3"/><path id="id4" fill="none" stroke="none" d="M 185.9800911702706 98.14961562048488 a86.0,86.0 0 0,1 -9.607161424134198,41.387399972396054"/><text fill="#e1ed5e" text-anchor="middle" style="font-size:6.75px;font-family:Arial"><textPath startOffset="21.466" xlink:href="#id4">April</textPath></text><path fill="#ff4306" stroke="none" d="M 119.79798401119884 107.00284435728193 l 33.367898912981545 11.802727110242621 a56.393799529095645,56.393799529095645 0 0,0 -0.33158409864658006,0.9123770297716596 l -33.159790553329735 -12.375351937020412"/><line x1="174.801" x2="179.201" y1="140.371" y2="142.746" stroke="#e1ed5e" stroke-width=".3"/><path id="id5" fill="none" stroke="none" d="M 175.68104954172406 140.8457921977663 a86.0,86.0 0 0,1 -30.038265399797805,32.042727171017184"/><text fill="#e1ed5e" text-anchor="middle" style="font-size:6.75px;font-family:Arial"><textPath startOffset="22.206" xlink:href="#id5">May</textPath></text><path fill="#ff6709" stroke="none" d="M 117.55443506779139 111.5257021239791 l 30.644929012283324 20.120517808865106 a57.65988149278093,57.65988149278093 0 0,0 -0.5518789105921336,0.8249840914213545 l -30.29404699628047 -20.645038814492267"/><path fill="#ff4706" stroke="none" d="M 117.35343817320211 111.8261652097733 l 29.36421806275639 20.011371268330493 a56.53466311189782,56.53466311189782 0 0,0 -0.5549525794181361,0.7994505809710115 l -29.01540457617612 -20.513863111488522"/><path fill="#ff3605" stroke="none" d="M 112.04921762599082 117.19931262002967 l 20.046892025341847 28.61536522173003 a55.93876080585445,55.93876080585445 0 0,0 -0.7933797518452876,0.5456938277420073 l -19.551355388873674 -28.95619983883713"/><line x1="143.865" x2="146.446" y1="172.807" y2="177.09" stroke="#e1ed5e" stroke-width=".3"/><path id="id6" fill="none" stroke="none" d="M 144.38136562736335 173.6633856474863 a86.0,86.0 0 0,1 -40.68145358897372,12.25698825130547"/><text fill="#e1ed5e" text-anchor="middle" style="font-size:6.75px;font-family:Arial"><textPath startOffset="21.466" xlink:href="#id6">June</textPath></text><path fill="#ff4f07" stroke="none" d="M 110.21172684928248 118.3499491758327 l 17.41574082991926 31.295192654996193 a56.81476109048118,56.81476109048118 0 0,0 -0.8586528152024486,0.4682059773687154 l -16.874465202848164 -31.590339284124678"/><path fill="#ff960d" stroke="none" d="M 109.89434966115114 118.52300852407294 l 18.057273957734438 33.80465122977281 a59.32518215940082,59.32518215940082 0 0,0 -0.904875978806139,0.47338834503149124 l -17.4727070764018 -34.110468993749016"/><path fill="#ff9e0e" stroke="none" d="M 107.93186726928326 119.44442032107085 l 14.582862721043776 35.74887256756537 a59.6088302722685,59.6088302722685 0 0,0 -0.9533976081072653,0.37937658415008246 l -13.965344036894644 -35.994595996121525"/><path fill="#fff917" stroke="none" d="M 105.88484417918355 120.15858648285463 l 11.790453387006071 40.38830375743324 a63.07409977021326,63.07409977021326 0 0,0 -1.0448339719008402,0.29528051702363356 l -11.093488247000625 -40.5852730677954"/><path fill="#3cffa2" stroke="none" d="M 105.53697534728816 120.25689768951611 l 14.846904992873354 54.31706240012443 a77.30962489349773,77.30962489349773 0 0,0 -1.2866882268064583,0.3398260552268967 l -13.909726323255398 -54.56457980465491"/><path fill="#4dd2ff" stroke="none" d="M 105.18746579009965 120.34920634021253 l 15.562397370298964 61.04761902063758 a84.0,84.0 0 0,0 -1.4041868610271555,0.3451149667438802 l -14.509257224528598 -61.306455245695496"/><path fill="#56ff2a" stroke="none" d="M 103.06178313531738 120.77559828337769 l 7.232211035860916 49.073858121594995 a70.60391544430402,70.60391544430402 0 0,0 -1.2038687367079923,0.16684523723081596 l -6.386413707966094 -49.19107792431841"/><line x1="102.195" x2="102.324" y1="184.972" y2="189.97" stroke="#e1ed5e" stroke-width=".3"/><path id="id7" fill="none" stroke="none" d="M 102.22038585953345 185.97133177190398 a86.0,86.0 0 0,1 -42.740103519485714,-10.115201625700543"/><text fill="#e1ed5e" text-anchor="middle" style="font-size:6.75px;font-family:Arial"><textPath startOffset="22.206" xlink:href="#id7">July</textPath></text><path fill="#ff9c0e" stroke="none" d="M 98.01472825383883 120.90594882070398 l -3.642928462436115 38.36194019304409 a59.53452196611655,59.53452196611655 0 0,0 -1.0193654036039903,-0.10566139201721661 l 4.3027264626456985 -38.29354943257111"/><path fill="red" stroke="none" d="M 95.16358092515715 120.4354850818985 l -7.632593150826622 32.250253970182726 a54.14114300001332,54.14114300001332 0 0,0 -0.9050509719239427,-0.22243950911815785 l 8.186597407493775 -32.11409320275054"/><line x1="58.667" x2="56.235" y1="174.274" y2="178.643" stroke="#e1ed5e" stroke-width=".3"/><path id="id8" fill="none" stroke="none" d="M 58.180547188652646 175.14741091055294 a86.0,86.0 0 0,1 -31.652253787137756,-30.449443065178592"/><text fill="#e1ed5e" text-anchor="middle" style="font-size:6.75px;font-family:Arial"><textPath startOffset="22.206" xlink:href="#id8">August</textPath></text><line x1="26.633" x2="22.317" y1="142.922" y2="145.446" stroke="#e1ed5e" stroke-width=".3"/><path id="id9" fill="none" stroke="none" d="M 25.769776987707644 143.4266507060508 a86.0,86.0 0 0,1 -11.730757126820373,-40.83630448921669"/><text fill="#e1ed5e" text-anchor="middle" style="font-size:6.75px;font-family:Arial"><textPath startOffset="21.466" xlink:href="#id9">September</textPath></text><line x1="15.007" x2="10.008" y1="101.097" y2="101.162" stroke="#e1ed5e" stroke-width=".3"/><path id="id10" fill="none" stroke="none" d="M 14.007167355692545 101.11028546245083 a86.0,86.0 0 0,1 10.666146001902534,-42.60595125391555"/><text fill="#e1ed5e" text-anchor="middle" style="font-size:6.75px;font-family:Arial"><textPath startOffset="22.206" xlink:href="#id10">October</textPath></text><line x1="26.266" x2="21.929" y1="57.711" y2="55.224" stroke="#e1ed5e" stroke-width=".3"/><path id="id11" fill="none" stroke="none" d="M 25.398753493254645 57.213857153982495 a86.0,86.0 0 0,1 29.58750427330803,-30.492523968695096"/><text fill="#e1ed5e" text-anchor="middle" style="font-size:6.75px;font-family:Arial"><textPath startOffset="21.466" xlink:href="#id11">November</textPath></text><line x1="56.763" x2="54.22" y1="26.818" y2="22.514" stroke="#e1ed5e" stroke-width=".3"/><path id="id12" fill="none" stroke="none" d="M 56.25429882871897 25.957352633546506 a86.0,86.0 0 0,1 42.265352541879196,-11.944610805530505"/><text fill="#e1ed5e" text-anchor="middle" style="font-size:6.75px;font-family:Arial"><textPath startOffset="22.206" xlink:href="#id12">December</textPath></text></svg>