<?xml version="1.0" encoding="utf-8" ?>
<svg baseProfile="full" height="200mm" version="1.1" viewBox="0,0,200,200" width="200mm" xmlns="http://www.w3.org/2000/svg" xmlns:ev="http://www.w3.org/2001/xml-events" xmlns:xlink="http://www.w3.org/1999/xlink"><defs /><rect fill="#1a1a1a" height="200" width="200" x="0" y="0" /><text alignment-baseline="middle" fill="#e1ed5e" style="dominant-baseline: central; font-size:7.2px; " text-anchor="middle" x="100.0" y="100.0">2021</text><line stroke="#e1ed5e" stroke-width="0.3" x1="100.0" x2="100.0" y1="15.0" y2="10.0" /><path d="M 100.0 14.0 a86.0,86.0 0 0,1 42.46469731375804,11.215312516191453" fill="none" id="id25" stroke="none" /><text fill="#e1ed5e" style="font-size:5.4px;" text-anchor="middle"><textPath startOffset="22.20632615414155" xlink:href="#id25">January</textPath></text><path d="M 101.08401301168833 79.027996857942 l 0.7451548452771459 -14.416238170548056 a35.43548332178063,35.43548332178063 0 0,0 0.6088793904861631,0.036729267611615546 l -0.993196284602921 14.401275633556136" fill="#ffa50f" stroke="none" /><path d="M 101.44485096284872 79.0497635885617 l 0.9678433957516073 -14.03366054466094 a35.06699502813139,35.06699502813139 0 0,0 0.6018328113200265,0.04671380913097113 l -1.209266396433975 14.014921473341504" fill="#ffa00e" stroke="none" /><path d="M 103.59715602781102 79.31037775812273 l 2.3635321822215736 -13.594236009951889 a34.798171511858726,34.798171511858726 0 0,0 0.5892571222054765,0.10768297264631345 l -2.5971844255299508 13.551537555954837" fill="#ff9c0e" stroke="none" /><path d="M 103.95276090670814 79.375362276772 l 2.6788594883086336 -13.977700084018066 a35.232090071274136,35.232090071274136 0 0,0 0.5946398183780636,0.11927915348566945 l -2.9190657161538227 13.929516974455188" fill="#ffa20f" stroke="none" /><path d="M 104.66035177308747 79.52364482259891 l 3.161750974582806 -13.891898957481635 a35.24715851916285,35.24715851916285 0 0,0 0.5904340699485041,0.13973666819710068 l -3.4004087314938336 13.835416377143666" fill="#ffa20f" stroke="none" /><path d="M 105.71112130821622 79.79150937346287 l 1.080924031206312 -3.8247906100691944 a24.974596831392184,24.974596831392184 0 0,0 0.41268711470983754,0.12047468540960385 l -1.1466013636395767 3.805617595740887" fill="#ff1001" stroke="none" /><path d="M 106.40334571778207 80.00007090966166 l 4.162272079381855 -13.000258007491416 a34.65031930484216,34.65031930484216 0 0,0 0.5664785634351185,0.18675907596873215 l -4.385433465059391 12.926685207263448" fill="#ff9a0e" stroke="none" /><path d="M 106.74666289553966 80.11325718540242 l 4.814659092890782 -14.191888434737626 a35.98634843865561,35.98634843865561 0 0,0 0.5848946823886988,0.20405826997727494 l -5.058235779342755 14.106909311588144" fill="#ffac10" stroke="none" /><path d="M 107.08798089147638 80.2323363322302 l 4.784157239880223 -13.342531914187967 a35.17431897401151,35.17431897401151 0 0,0 0.5681786035665581,0.20926497475004704 l -5.013118169219357 13.258203671631597" fill="#ffa10e" stroke="none" /><path d="M 108.43124777332544 80.76684994638697 l 5.6597962866225835 -12.910984729672979 a35.09705007070329,35.09705007070329 0 0,0 0.5512207001135572,0.24731666044321077 l -5.881199105202921 12.811647738713237" fill="#ffa00e" stroke="none" /><path d="M 108.76106565485865 80.91482961587045 l 7.22842506238229 -15.746454753249315 a38.32630849830986,38.32630849830986 0 0,0 0.597200153385732,0.2803934795944018 l -7.49840342706762 15.61969629101491" fill="#ffcb13" stroke="none" /><path d="M 109.08828744355905 81.06846463323043 l 6.275647035106146 -13.072609612350512 a35.50092644578806,35.50092644578806 0 0,0 0.5486224133051169,0.2692066355678394 l -6.499740715421694 12.96264781664784" fill="#ffa60f" stroke="none" /><path d="M 109.41281617654863 81.2277094730956 l 7.0252494735791124 -14.010687308499572 a36.673336882188636,36.673336882188636 0 0,0 0.561869596522318,0.2878114304722592 l -7.265379557690186 13.887683352714813" fill="#ffb610" stroke="none" /><path d="M 109.73455568895987 81.39251694778311 l 7.4966422834624895 -14.329739198704576 a37.17223147957907,37.17223147957907 0 0,0 0.5644071494695253,0.30148675258921387 l -7.742194479460325 14.198573719613607" fill="#ffbc11" stroke="none" /><line stroke="#e1ed5e" stroke-width="0.3" x1="143.23703022742887" x2="145.7803849466894" y1="26.81831364943548" y2="22.513508569990506" /><path d="M 143.74570117128098 25.957352633546492 a86.0,86.0 0 0,1 28.547481713284135,27.462654790039103" fill="none" id="id26" stroke="none" /><text fill="#e1ed5e" style="font-size:5.4px;" text-anchor="middle"><textPath startOffset="19.985693538727396" xlink:href="#id26">February</textPath></text><path d="M 110.68208982089419 81.91981866633111 l 7.269585913405639 -12.304280692151725 a35.2913331324843,35.2913331324843 0 0,0 0.5203588319794032,0.3135103739328799 l -7.480306811602681 12.177323708760229" fill="#ffa30f" stroke="none" /><path d="M 110.99172775467656 82.1063720568725 l 7.353155903780426 -11.970332497916756 a35.048407805014165,35.048407805014165 0 0,0 0.511340994823944,0.32020168404824073 l -7.558116050976633 11.841986472545571" fill="#ffa00e" stroke="none" /><path d="M 111.2981086023043 82.29822771554956 l 1.548171508799261 -2.425660831446526 a23.87761454852307,23.87761454852307 0 0,0 0.34455735970549944,0.22410969123895252 l -1.5896958942890405 2.3986522160480455" fill="#ff0000" stroke="none" /><path d="M 112.19680574252982 82.90503203632743 l 3.418966216512072 -4.792002035118893 a26.886647050251483,26.886647050251483 0 0,0 0.3744345646375542,0.2720426351643537 l -3.5009460975034146 4.732440165137865" fill="#ff2d04" stroke="none" /><path d="M 112.48926042617603 83.11751280151076 l 3.656238283661263 -4.942357986960241 a27.147762264286083,27.147762264286083 0 0,0 0.37328670336503034,0.2811518059295903 l -3.7407711407846764 4.878689591524804" fill="#ff3104" stroke="none" /><path d="M 114.16331599549186 84.49514656593476 l 4.577544555160393 -5.011125744723631 a27.78714191570432,27.78714191570432 0 0,0 0.35037219576915535,0.3256327710260934 l -4.663124634724395 4.931588387622898" fill="#ff3a05" stroke="none" /><path d="M 116.15771136456269 86.58626213691792 l 8.030190876516402 -6.666468596805482 a31.436750886434,31.436750886434 0 0,0 0.34206404675087904,0.4193300752084158 l -8.14375341534369 6.527254351988966" fill="#ff6e0a" stroke="none" /><path d="M 116.38621287248628 86.86637796730983 l 11.865038457307499 -9.50988075855295 a36.20582025526021,36.20582025526021 0 0,0 0.38558495042082613,0.4896537302696688 l -12.02697748832229 9.304234634330243" fill="#ffaf10" stroke="none" /><path d="M 116.60985879189232 87.15038557335679 l 11.187796956538149 -8.65503307260263 a35.14483645110715,35.14483645110715 0 0,0 0.36604863374979596,0.4816770942761822 l -11.335121530512058 8.461171202445414" fill="#ffa10e" stroke="none" /><path d="M 116.82858285166822 87.43820079747576 l 11.120984535661254 -8.301327325224277 a34.87761983925673,34.87761983925673 0 0,0 0.3549833974374118,0.4841969551662637 l -11.262230545612292 8.10866792638652" fill="#ff9d0e" stroke="none" /><path d="M 117.04232023915458 87.72973835380427 l 11.936096332909196 -8.59384303215386 a35.70797517436672,35.70797517436672 0 0,0 0.3548477995831704,0.5019070475372988 l -12.08225675229625 8.387109484284768" fill="#ffa90f" stroke="none" /><path d="M 117.2510076193507 88.02491185347247 l 11.722860372780387 -8.137628212279665 a35.27047470272081,35.27047470272081 0 0,0 0.34191455874875293,0.5017174249232326 l -11.861199397197872 7.934632764086026" fill="#ffa30f" stroke="none" /><path d="M 117.45458315368197 88.32363383020206 l 9.088853233988836 -6.080052298540242 a31.935002929216516,31.935002929216516 0 0,0 0.30171485861957525,0.45953242914425235 l -9.192164727966336 5.922701805418315" fill="#ff750a" stroke="none" /><line stroke="#e1ed5e" stroke-width="0.3" x1="172.23445277983987" x2="176.4835382374775" y1="55.19839476539836" y2="52.563006222186495" /><path d="M 173.08426987136738 54.67131705675599 a86.0,86.0 0 0,1 12.851231095245387,41.99856678651699" fill="none" id="id27" stroke="none" /><text fill="#e1ed5e" style="font-size:5.4px;" text-anchor="middle"><textPath startOffset="22.20632615414155" xlink:href="#id27">March</textPath></text><path d="M 117.84615892207809 88.93136811851018 l 11.917742594932427 -7.391680541321645 a35.02389139233543,35.02389139233543 0 0,0 0.3133540892932826,0.5150717318880135 l -12.043212482511933 7.185441036226551" fill="#ff9f0e" stroke="none" /><path d="M 118.03404312379186 89.2402003453031 l 11.88528997140008 -7.091218427970254 a34.83999626074546,34.83999626074546 0 0,0 0.30284305994709787,0.5176569574698042 l -12.005592705817506 6.885582058146555" fill="#ff9d0e" stroke="none" /><path d="M 118.21658344932153 89.55222093294921 l 12.470462210117855 -7.152199225380532 a35.375895850120486,35.375895850120486 0 0,0 0.29840807772778927,0.5308346730096313 l -12.591727929138077 6.936481042436108" fill="#ffa40f" stroke="none" /><path d="M 118.3937258080291 89.86733742301442 l 11.745508248896789 -6.4703189078376475 a34.409772212607635,34.409772212607635 0 0,0 0.2813275807924884,0.5212572809537537 l -11.85514392890774 6.267180643551436" fill="#ff970d" stroke="none" /><path d="M 118.56541770881063 90.18545643968196 l 12.303028943008869 -6.503953499937159 a34.916390778569664,34.916390778569664 0 0,0 0.27632260835682754,0.5337673276256294 l -12.413160984525813 6.291213450051185" fill="#ff9e0e" stroke="none" /><path d="M 118.73160827565052 90.50648371742162 l 50.946229449558125 -25.820466224679155 a78.11580141420428,78.11580141420428 0 0,0 0.597548634633901,1.204621584510011 l -51.383138097145434 24.939685051670196" fill="#45fff3" stroke="none" /><path d="M 118.89224826269711 90.83032412892265 l 9.09013941455783 -4.4120546636570745 a31.104299131122154,31.104299131122154 0 0,0 0.22964127221787964,0.48368308511682334 l -9.164738880617467 4.25492916289971" fill="#ff6909" stroke="none" /><path d="M 119.04729006885535 91.15688171328212 l 13.186103923392833 -6.121935262916118 a35.537930665739594,35.537930665739594 0 0,0 0.25282307149422456,0.5570621250694388 l -13.289529311850405 5.894051129004616" fill="#ffa60f" stroke="none" /><path d="M 119.196687751892 91.48605970444005 l 12.40685015590044 -5.502573300588485 a34.572333760975525,34.572333760975525 0 0,0 0.23658883542246267,0.5460796515310978 l -12.499729701165583 5.288194504470784" fill="#ff990e" stroke="none" /><path d="M 119.7369772167798 92.82701384747503 l 30.735129325540864 -11.170031490979163 a53.70195373624011,53.70195373624011 0 0,0 0.3082669084475182,0.871512061849465 l -30.922849314798192 10.639321802703083" fill="#7aff26" stroke="none" /><path d="M 119.85752413597 93.16781622104841 l 59.57257240790998 -20.496551336854747 a84.0,84.0 0 0,0 0.45865082491291975,1.371307588310744 l -59.91656052659467 19.46807064562169" fill="#4dd2ff" stroke="none" /><path d="M 119.97218684219823 93.5106431181261 l 14.023329989577093 -4.556456120387195 a35.74500174206793,35.74500174206793 0 0,0 0.18509871057837163,0.5868134953173941 l -14.09968418392367 4.314392458643382" fill="#ffa90f" stroke="none" /><path d="M 120.08093135843002 93.85539295169968 l 3.887353541357732 -1.1894996075186728 a25.06527082391734,25.06527082391734 0 0,0 0.12269342990460981,0.4136612514671117 l -3.9072528683740444 1.1224089693050312" fill="#ff1202" stroke="none" /><path d="M 120.18372546131832 94.20196356495316 l 13.64123629881582 -3.918621724775071 a35.19291809255621,35.19291809255621 0 0,0 0.162244764463516,0.5836807414923805 l -13.706667833845698 3.683229679863739" fill="#ffa20e" stroke="none" /><path d="M 120.28053869075195 94.5502522615342 l 13.584206880726608 -3.6503222057336036 a35.06611278157729,35.06611278157729 0 0,0 0.15162531750556577,0.5842742002086208 l -13.645028530102477 3.415951579976132" fill="#ffa00e" stroke="none" /><path d="M 120.37134235888165 94.90015583598534 l 14.497941594038995 -3.6294732829105527 a35.94534665959701,35.94534665959701 0 0,0 0.14509458952324505,0.601510746157363 l -14.558268983823059 3.379377305093784" fill="#ffac0f" stroke="none" /><path d="M 120.6074358757038 95.95851677861258 l 13.74968608902459 -2.696557008028987 a35.01161258543308,35.01161258543308 0 0,0 0.11089390789850195,0.592399690237715 l -13.794065720832952 2.4594792403287093" fill="#ff9f0e" stroke="none" /><path d="M 120.67395015179393 96.31383870115 l 15.100780042471198 -2.692466150218204 a36.33893516060249,36.33893516060249 0 0,0 0.10449717374695713,0.6167482347003818 l -15.144889077738378 2.4321321272019847" fill="#ffb110" stroke="none" /><path d="M 120.78858239683441 97.02765380044208 l 13.952550582643273 -1.9949321173902843 a35.09444649194194,35.09444649194194 0 0,0 0.0803562570563454,0.5987474511169467 l -13.984822838757454 1.754466324208673" fill="#ffa00e" stroke="none" /><path d="M 120.83666639777658 97.38593545837742 l 9.812019030424185 -1.2309671105496394 a30.88893308100835,30.88893308100835 0 0,0 0.06164496578670594,0.5281364209143166 l -9.83175434921448 1.0618869513104703" fill="#ff6609" stroke="none" /><path d="M 120.87857604477298 97.74499172005257 l 37.31182969362569 -4.029895751447983 a58.52882485308681,58.52882485308681 0 0,0 0.09956275496160337,1.002583355179511 l -37.37566957426952 3.3870368655640366" fill="#47ff2c" stroke="none" /><path d="M 120.94382443527127 98.46500227214037 l 15.315802420240049 -1.1225133207201203 a36.35688249388609,36.35688249388609 0 0,0 0.040372429175206455,0.624543610080329 l -15.33285544041967 0.858710646386756" fill="#ffb110" stroke="none" /><path d="M 120.96714384426684 98.82574320788733 l 3.563424813358809 -0.19956823024388962 a24.569008809037033,24.569008809037033 0 0,0 0.020013670952479225,0.42245696201071203 l -3.566332092544785 0.1382001616101778" fill="#ff0a01" stroke="none" /><path d="M 120.98425023603335 99.18683210126433 l 14.072207946081786 -0.5453169704599262 a35.082769865194805,35.082769865194805 0 0,0 0.018190091315929947,0.6036405744435012 l -14.07950973185336 0.303006248591426" fill="#ffa00e" stroke="none" /><line stroke="#e1ed5e" stroke-width="0.3" x1="184.98032266829074" x2="189.97916517819016" y1="98.17113171792111" y2="98.06355123074" /><path d="M 185.9800911702706 98.14961562048488 a86.0,86.0 0 0,1 -9.607161424134198,41.387399972396054" fill="none" id="id28" stroke="none" /><text fill="#e1ed5e" style="font-size:5.4px;" text-anchor="middle"><textPath startOffset="21.466115282336823" xlink:href="#id28">April</textPath></text><path d="M 120.99513854157772 99.54816195383933 l 14.665657648303647 -0.31562078451389963 a35.66905350514696,35.66905350514696 0 0,0 0.007927010420302097,0.6139556929243805 l -14.668917665841663 0.06312883352905647" fill="#ffa80f" stroke="none" /><path d="M 120.9904718944345 100.63252640178507 l 12.775542658568709 0.3849779113740997 a33.78134180018494,33.78134180018494 0 0,0 -0.02251746355367072,0.581075680220173 l -12.767023062163835 -0.6048308386082789" fill="#ff8f0d" stroke="none" /><path d="M 120.95626037817324 101.35467743843564 l 13.705974254141895 0.8859965355843843 a34.734581177315455,34.734581177315455 0 0,0 -0.043705103240837886,0.596321409855041 l -13.68869259223672 -1.1217910819361956" fill="#ff9c0e" stroke="none" /><path d="M 120.92983693683757 101.71520430193887 l 13.9031942120105 1.139369532361736 a34.949801870569935,34.949801870569935 0 0,0 -0.054297685526836746,0.5991704352354837 l -13.881521930206588 -1.3785213561457903" fill="#ff9e0e" stroke="none" /><path d="M 120.89721153311464 102.0752229133903 l 13.464679369276 1.3371263005256342 a34.53090895915585,34.53090895915585 0 0,0 -0.063829067279578,0.5909778899324772 l -13.43966800049537 -1.568700512342903" fill="#ff990e" stroke="none" /><path d="M 120.8583938346157 102.4346265915055 l 13.858863241886313 1.6176296815692144 a34.95295008749051,34.95295008749051 0 0,0 -0.07489666672892004,0.5970001253172234 l -13.828965065910545 -1.8559475611738327" fill="#ff9e0e" stroke="none" /><path d="M 120.81339534386255 102.79330883721812 l 45.76134246849099 6.141504555521434 a67.17162053387348,67.17162053387348 0 0,0 -0.16366189092230402,1.144650883926683 l -45.648846526552084 -6.928300911428526" fill="#37ff7c" stroke="none" /><path d="M 120.70491114924044 103.5080841355445 l 13.433138727408808 2.2760098085192717 a34.62458941466811,34.62458941466811 0 0,0 -0.10462158956693138,0.5867734350591176 l -13.391970695502689 -2.5069019943116078" fill="#ff9a0e" stroke="none" /><path d="M 120.64145759157962 103.86396538481128 l 14.24814580234886 2.6671731845370625 a35.49563629515121,35.49563629515121 0 0,0 -0.11759208552976756,0.5995995106997009 l -14.200123783843429 -2.912036422304708" fill="#ffa60f" stroke="none" /><path d="M 120.5718875245553 104.21870165774334 l 12.896801666520316 2.6447625919203266 a34.16519131623929,34.16519131623929 0 0,0 -0.1231020020526931,0.5750915708234902 l -12.84936562574318 -2.8663679821599857" fill="#ff940d" stroke="none" /><path d="M 120.49622156327973 104.57218783832717 l 13.577240771965375 3.028738489382645 a34.91095696984887,34.91095696984887 0 0,0 -0.13588580312086995,0.5853924833828266 l -13.523094402913953 -3.261999630114036" fill="#ff9e0e" stroke="none" /><path d="M 120.32669344350535 105.2749913415812 l 4.8789351497103395 1.2661351312444453 a26.040546236832913,26.040546236832913 0 0,0 -0.11632922550419951,0.4329043236352251 l -4.856417847864363 -1.3499303880552185" fill="#ff2003" stroke="none" /><path d="M 120.23288151984713 105.62410040840565 l 52.84689159767321 14.689762519782162 a75.85055217975312,75.85055217975312 0 0,0 -0.360497314466404,1.254938444462136 l -52.58620164632071 -15.59725843974888" fill="#43ffdc" stroke="none" /><path d="M 119.79798401119884 107.00284435728193 l 12.160996861369844 4.301527276787116 a33.899340354265824,33.899340354265824 0 0,0 -0.19932124293706246,0.5484464554952749 l -12.085151357427554 -4.510221529288522" fill="#ff900d" stroke="none" /><path d="M 119.67450827220406 107.3425965602758 l 19.86207277363145 7.41259630024166 a42.20020091356184,42.20020091356184 0 0,0 -0.25984416097270796,0.6783711096821385 l -19.731534333065238 -7.7533909767569416" fill="#fffd17" stroke="none" /><path d="M 119.54520255179757 107.68017299344265 l 11.965824061702806 4.701900558944278 a33.8564697464672,33.8564697464672 0 0,0 -0.21780574062959054,0.5405759861238624 l -11.883115706815822 -4.907175912910954" fill="#ff900d" stroke="none" /><path d="M 119.41010516605496 108.01547362559984 l 21.251181132591356 8.775752651717937 a43.991879743386384,43.991879743386384 0 0,0 -0.2950577665410435,0.6974294014478098 l -21.096972384858002 -9.14025657883191" fill="#ebff1a" stroke="none" /><path d="M 119.12269723197855 108.67885076344098 l 6.272859003224686 2.846941855987405 a27.88867461894594,27.88867461894594 0 0,0 -0.20216019903325316,0.4354350837020276 l -6.222924187351601 -2.9544970069682637" fill="#ff3b05" stroke="none" /><line stroke="#e1ed5e" stroke-width="0.3" x1="174.80103733775053" x2="179.2010983576182" y1="140.37084112569926" y2="142.7455964860345" /><path d="M 175.68104954172406 140.8457921977663 a86.0,86.0 0 0,1 -30.038265399797805,32.042727171017184" fill="none" id="id29" stroke="none" /><text fill="#e1ed5e" style="font-size:5.4px;" text-anchor="middle"><textPath startOffset="22.206326154141568" xlink:href="#id29">May</textPath></text><path d="M 118.48025628344425 109.97397251340804 l 22.988621920098158 12.407180919758076 a47.12307172138886,47.12307172138886 0 0,0 -0.3913988270151752,0.7105025605069718 l -22.771646683631474 -12.801053998662852" fill="#c5ff1e" stroke="none" /><path d="M 118.30583269289576 110.29060199501025 l 12.818676852845517 7.206003890032104 a35.705270086633405,35.705270086633405 0 0,0 -0.30578674056767485,0.5331649570208092 l -12.692738116125462 -7.425588692911228" fill="#ffa90f" stroke="none" /><path d="M 118.12598468904814 110.60418214915192 l 47.85129266427976 27.994276293910225 a76.43848586372411,76.43848586372411 0 0,0 -0.674184257839639,1.1299715951452924 l -47.362327530741894 -28.813809982941624" fill="#43ffe2" stroke="none" /><path d="M 117.55443506779139 111.5257021239791 l 10.807009087795615 7.095549763695057 a33.92819677575995,33.92819677575995 0 0,0 -0.32473629480674937,0.4854366999370204 l -10.683269687578145 -7.280523377837884" fill="#ff910d" stroke="none" /><path d="M 117.35343817320211 111.8261652097733 l 16.84641329834477 11.480633685951867 a41.38643153790433,41.38643153790433 0 0,0 -0.40625530728666454,0.5852410700990188 l -16.64629708389597 -11.768916018237904" fill="#fff316" stroke="none" /><path d="M 117.14729908036423 112.12312394758627 l 17.57254756649241 12.423774218027916 a42.52079445088339,42.52079445088339 0 0,0 -0.42767862058428124,0.5940081981623433 l -17.356089153532526 -12.724416021641389" fill="#fdff18" stroke="none" /><line stroke="#e1ed5e" stroke-width="0.3" x1="143.8653032363475" x2="146.44561519142675" y1="172.8068346515853" y2="177.08958963109032" /><path d="M 144.38136562736335 173.6633856474863 a86.0,86.0 0 0,1 -40.68145358897372,12.25698825130547" fill="none" id="id30" stroke="none" /><text fill="#e1ed5e" style="font-size:5.4px;" text-anchor="middle"><textPath startOffset="21.466115282336833" xlink:href="#id30">June</textPath></text><line stroke="#e1ed5e" stroke-width="0.3" x1="102.19456741930631" x2="102.32365962044197" y1="184.97166512339345" y2="189.96999836594603" /><path d="M 102.22038585953345 185.97133177190398 a86.0,86.0 0 0,1 -42.740103519485714,-10.115201625700543" fill="none" id="id31" stroke="none" /><text fill="#e1ed5e" style="font-size:5.4px;" text-anchor="middle"><textPath startOffset="22.20632615414155" xlink:href="#id31">July</textPath></text><line stroke="#e1ed5e" stroke-width="0.3" x1="58.666819895761336" x2="56.23545636021788" y1="174.27360380694188" y2="178.64263932499728" /><path d="M 58.180547188652646 175.14741091055294 a86.0,86.0 0 0,1 -31.652253787137756,-30.449443065178592" fill="none" id="id32" stroke="none" /><text fill="#e1ed5e" style="font-size:5.4px;" text-anchor="middle"><textPath startOffset="22.20632615414155" xlink:href="#id32">August</textPath></text><line stroke="#e1ed5e" stroke-width="0.3" x1="26.63291911575756" x2="22.317208475507996" y1="142.92168965132927" y2="145.44649492493687" /><path d="M 25.769776987707644 143.4266507060508 a86.0,86.0 0 0,1 -11.730757126820373,-40.83630448921669" fill="none" id="id33" stroke="none" /><text fill="#e1ed5e" style="font-size:5.4px;" text-anchor="middle"><textPath startOffset="21.46611528233685" xlink:href="#id33">September</textPath></text><line stroke="#e1ed5e" stroke-width="0.3" x1="15.007084014347285" x2="10.007500721073583" y1="101.09737516637583" y2="101.16192664675087" /><path d="M 14.007167355692545 101.11028546245083 a86.0,86.0 0 0,1 10.666146001902534,-42.60595125391555" fill="none" id="id34" stroke="none" /><text fill="#e1ed5e" style="font-size:5.4px;" text-anchor="middle"><textPath startOffset="22.20632615414155" xlink:href="#id34">October</textPath></text><line stroke="#e1ed5e" stroke-width="0.3" x1="26.266209847984243" x2="21.928928074336255" y1="57.711370442889674" y2="55.22380399835377" /><path d="M 25.398753493254645 57.213857153982495 a86.0,86.0 0 0,1 29.58750427330803,-30.492523968695096" fill="none" id="id35" stroke="none" /><text fill="#e1ed5e" style="font-size:5.4px;" text-anchor="middle"><textPath startOffset="21.46611528233685" xlink:href="#id35">November</textPath></text><line stroke="#e1ed5e" stroke-width="0.3" x1="56.762969772571076" x2="54.21961505331055" y1="26.818313649435495" y2="22.513508569990535" /><path d="M 56.25429882871897 25.957352633546506 a86.0,86.0 0 0,1 42.265352541879196,-11.944610805530505" fill="none" id="id36" stroke="none" /><text fill="#e1ed5e" style="font-size:5.4px;" text-anchor="middle"><textPath startOffset="22.20632615414155" xlink:href="#id36">December</textPath></text></svg>