<?xml version="1.0" encoding="utf-8" ?>
<svg baseProfile="full" height="250mm" version="1.1" viewBox="0,0,200,250" width="200mm" xmlns="http://www.w3.org/2000/svg" xmlns:ev="http://www.w3.org/2001/xml-events" xmlns:xlink="http://www.w3.org/1999/xlink"><defs /><rect fill="#1a1a1a" height="250" width="200" x="0" y="0" /><text alignment-baseline="middle" fill="#e1ed5e" style="dominant-baseline: central; font-size:7.2px; " text-anchor="middle" x="100.0" y="125.0">2021</text><line stroke="#e1ed5e" stroke-width="0.3" x1="100.0" x2="100.0" y1="40.0" y2="35.0" /><path d="M 100.0 39.0 a86.0,86.0 0 0,1 42.46469731375804,11.215312516191453" fill="none" id="id25" stroke="none" /><text fill="#e1ed5e" style="font-size:5.4px;" text-anchor="middle"><textPath startOffset="22.20632615414155" xlink:href="#id25">January</textPath></text><path d="M 101.08401301168833 104.027996857942 l 0.3264563097840024 -6.315830788665125 a27.324262192006916,27.324262192006916 0 0,0 0.4695062279206205,0.028321897834064594 l -0.4351245865442348 6.309275621450757" fill="#ff4906" stroke="none" /><path d="M 101.44485096284872 104.0497635885617 l 0.42416111006695534 -6.150305990674868 a27.164914956933664,27.164914956933664 0 0,0 0.4662143740769794,0.036187208266327514 l -0.529965673506276 6.142093520220076" fill="#ff4606" stroke="none" /><path d="M 103.59715602781102 104.31037775812273 l 1.0371748262827922 -5.965478057851695 a27.05496986606744,27.05496986606744 0 0,0 0.4581371087041704,0.08372162827698414 l -1.1397070560898637 5.946740948223972" fill="#ff4506" stroke="none" /><path d="M 103.95276090670814 104.375362276772 l 1.1741274546726619 -6.126339023547617 a27.237836572984136,27.237836572984136 0 0,0 0.45971448642430557,0.09221440120736674 l -1.2794083505640927 6.105220666263042" fill="#ff4706" stroke="none" /><path d="M 104.66035177308747 104.52364482259891 l 1.3887554261600117 -6.101824657273926 a27.257867510726392,27.257867510726392 0 0,0 0.45660343496130223,0.10806328079002749 l -1.4935825480838374 6.077015464343029" fill="#ff4806" stroke="none" /><path d="M 105.71112130821622 104.79150937346287 l 0.4778259465404736 -1.690760997825021 a22.75698332005559,22.75698332005559 0 0,0 0.37604265843638524,0.10977716376622963 l -0.506858822700286 1.682285505140088" fill="#ff0701" stroke="none" /><path d="M 106.40334571778207 105.00007090966166 l 1.824465244060593 -5.69845470121477 a26.9833986503142,26.9833986503142 0 0,0 0.4411363938539825,0.14543573333606746 l -1.922284460156993 5.666205243619466" fill="#ff4406" stroke="none" /><path d="M 106.74666289553966 105.11325718540242 l 2.1153082843582 -6.235170257643997 a27.584214249223876,27.584214249223876 0 0,0 0.4483327965254469,0.15641450946250557 l -2.2223230849469204 6.197834895009284" fill="#ff4c07" stroke="none" /><path d="M 107.08798089147638 105.2323363322302 l 2.0956891454638833 -5.8446656126773195 a27.209028033309874,27.209028033309874 0 0,0 0.43951348606895924,0.16187652612608758 l -2.195984957305419 5.807725818744907" fill="#ff4706" stroke="none" /><path d="M 108.43124777332544 105.76684994638697 l 2.4808320894346876 -5.659211675034947 a27.17909416005459,27.17909416005459 0 0,0 0.4268643456124338,0.19152158907928352 l -2.577878553513902 5.615669755439132" fill="#ff4706" stroke="none" /><path d="M 108.76106565485865 105.91482961587045 l 3.17435539742645 -6.91503933497717 a28.608830474747872,28.608830474747872 0 0,0 0.44578250859874147,0.20930086507795728 l -3.292916117324789 6.85937348725921" fill="#ff5b08" stroke="none" /><path d="M 109.08828744355905 106.06846463323043 l 2.750427984232814 -5.729332944256574 a27.35532139884323,27.35532139884323 0 0,0 0.42274227590900076,0.20743779883899974 l -2.848641527152247 5.6811399852827416" fill="#ff4906" stroke="none" /><path d="M 109.41281617654863 106.2277094730956 l 3.0810220763437544 -6.144584197982123 a27.87376257962182,27.87376257962182 0 0,0 0.4270519419730626,0.2187525914660187 l -3.1863345059055725 6.090639081203604" fill="#ff5007" stroke="none" /><path d="M 109.73455568895987 106.39251694778311 l 3.2951504218762193 -6.298639361538085 a28.108507164623802,28.108507164623802 0 0,0 0.42678746400641693,0.22797508268634736 l -3.4030829324109475 6.240985552349984" fill="#ff5407" stroke="none" /><line stroke="#e1ed5e" stroke-width="0.3" x1="143.23703022742887" x2="145.7803849466894" y1="51.81831364943548" y2="47.513508569990506" /><path d="M 143.74570117128098 50.95735263354649 a86.0,86.0 0 0,1 28.547481713284135,27.462654790039103" fill="none" id="id26" stroke="none" /><text fill="#e1ed5e" style="font-size:5.4px;" text-anchor="middle"><textPath startOffset="19.985693538727396" xlink:href="#id26">February</textPath></text><path d="M 110.68208982089419 106.91981866633111 l 3.193670741437616 -5.40551026001308 a27.278461115259166,27.278461115259166 0 0,0 0.4022117303091127,0.2423280671334733 l -3.2862445379643663 5.349735583420991" fill="#ff4806" stroke="none" /><path d="M 110.99172775467656 107.1063720568725 l 3.2316426472507715 -5.260848200179109 a27.174142692298076,27.174142692298076 0 0,0 0.39645889864873113,0.24826252596262616 l -3.3217206982717657 5.204441332893539" fill="#ff4706" stroke="none" /><path d="M 111.2981086023043 107.29822771554956 l 0.6793589347545329 -1.0644133089656127 a22.262736811269054,22.262736811269054 0 0,0 0.3212544452428882,0.2089528274597338 l -0.6975804057817012 1.052561557346351" fill="#ff0000" stroke="none" /><path d="M 112.19680574252982 107.90503203632743 l 1.4954231900299846 -2.0959759518473065 a23.57476323338704,23.57476323338704 0 0,0 0.32831190111688285,0.2385325586117047 l -1.531280407500656 2.0699241584189267" fill="#ff1302" stroke="none" /><path d="M 112.48926042617603 108.11751280151076 l 1.5993447507886018 -2.1619308397612382 a23.689209658577365,23.689209658577365 0 0,0 0.32573097158753705,0.24533381468849652 l -1.636321876134522 2.1340804355668945" fill="#ff1502" stroke="none" /><path d="M 114.16331599549186 109.49514656593476 l 2.0009591927525694 -2.190488372994652 a23.96682945301643,23.96682945301643 0 0,0 0.3022013090282007,0.2808631816532655 l -2.038368385575617 2.1557206052667457" fill="#ff1902" stroke="none" /><path d="M 116.15771136456269 111.58626213691792 l 3.536211215325106 -2.9356762972566957 a25.595974878267487,25.595974878267487 0 0,0 0.278510421736118,0.34142084560552793 l -3.5862201291376326 2.8743712820430667" fill="#ff3004" stroke="none" /><path d="M 116.38621287248628 111.86637796730983 l 5.19585263537455 -4.164498849221428 a27.65882386564589,27.65882386564589 0 0,0 0.29456109967247546,0.37406268343603133 l -5.26676781564099 4.0744437718323585" fill="#ff4d07" stroke="none" /><path d="M 116.60985879189232 112.15038557335679 l 4.920527587106488 -3.8065875852503948 a27.22106910262685,27.22106910262685 0 0,0 0.28351917836030915,0.373078004977639 l -4.98532270569091 3.721324804391722" fill="#ff4706" stroke="none" /><path d="M 116.82858285166822 112.43820079747576 l 4.8736800460612795 -3.6379884542626226 a27.081752805295856,27.081752805295856 0 0,0 0.2756372901502717,0.37596895399755353 l -4.935579948725177 3.5535570565935752" fill="#ff4506" stroke="none" /><path d="M 117.04232023915458 112.72973835380427 l 5.228825215828953 -3.7646900539424375 a27.44309741816324,27.44309741816324 0 0,0 0.2727156240315863,0.3857369098407036 l -5.292853459664423 3.674126643769941" fill="#ff4a06" stroke="none" /><path d="M 117.2510076193507 113.02491185347247 l 5.139212337492346 -3.5674739761960064 a27.256066976996753,27.256066976996753 0 0,0 0.26422230469575736,0.3877136288210794 l -5.199859107856837 3.4784823241045206" fill="#ff4806" stroke="none" /><path d="M 117.45458315368197 113.32363383020206 l 3.9895236905261027 -2.668819933625278 a25.79988532314936,25.79988532314936 0 0,0 0.24375162169012018,0.3712504426715842 l -4.034871947574148 2.59975142697602" fill="#ff3304" stroke="none" /><line stroke="#e1ed5e" stroke-width="0.3" x1="172.23445277983987" x2="176.4835382374775" y1="80.19839476539836" y2="77.56300622218649" /><path d="M 173.08426987136738 79.67131705675598 a86.0,86.0 0 0,1 12.851231095245387,41.99856678651699" fill="none" id="id27" stroke="none" /><text fill="#e1ed5e" style="font-size:5.4px;" text-anchor="middle"><textPath startOffset="22.20632615414155" xlink:href="#id27">March</textPath></text><path d="M 117.84615892207809 113.93136811851018 l 5.227669798457095 -3.2423309043560735 a27.151523487319455,27.151523487319455 0 0,0 0.24292106265370747,0.399298355209957 l -5.282706659397026 3.151864775939035" fill="#ff4606" stroke="none" /><path d="M 118.03404312379186 114.2402003453031 l 5.203268914738303 -3.1044691801937194 a27.059021066959133,27.059021066959133 0 0,0 0.23520773876557102,0.4020462692590912 l -5.255936327974202 3.014443498580733" fill="#ff4506" stroke="none" /><path d="M 118.21658344932153 114.55222093294921 l 5.46493598768582 -3.134311325378799 a27.29995498665676,27.29995498665676 0 0,0 0.23028468661651355,0.40965076163492375 l -5.518078315594766 3.039777053809081" fill="#ff4806" stroke="none" /><path d="M 118.3937258080291 114.86733742301442 l 5.147761965422578 -2.8357786544528345 a26.877167160265365,26.877167160265365 0 0,0 0.21974247225566745,0.40714942799203574 l -5.195812536896711 2.7467482431283403" fill="#ff4206" stroke="none" /><path d="M 118.56541770881063 115.18545643968196 l 5.392100556949888 -2.8505152228643382 a27.099195475801757,27.099195475801757 0 0,0 0.21445860271563355,0.4142657596443532 l -5.440368592825638 2.75727674095964" fill="#ff4506" stroke="none" /><path d="M 118.73160827565052 115.50648371742162 l 22.31525790101009 -11.309774425966538 a46.01762843985896,46.01762843985896 0 0,0 0.3520129160235153,0.7096365585841121 l -22.506630829987014 10.923978278883475" fill="#c6ff1e" stroke="none" /><path d="M 118.89224826269711 115.83032412892265 l 3.9764451279962474 -1.930035665201698 a25.420085239553153,25.420085239553153 0 0,0 0.18767504420175402,0.39529150619238257 l -4.009078366039757 1.8613017433687749" fill="#ff2e04" stroke="none" /><path d="M 119.04729006885535 116.15688171328212 l 5.774877432501592 -2.6811123284362393 a27.366912334727797,27.366912334727797 0 0,0 0.19469301403216824,0.4289802488829081 l -5.820172763497107 2.581310070711268" fill="#ff4906" stroke="none" /><path d="M 119.196687751892 116.48605970444005 l 5.437805374018533 -2.411725965001738 a26.948625842660505,26.948625842660505 0 0,0 0.18441751859828243,0.42566105924886055 l -5.478513602459496 2.317765761166275" fill="#ff4306" stroke="none" /><path d="M 119.7369772167798 117.82701384747503 l 13.460097110123352 -4.89178708178641 a35.321445285566796,35.321445285566796 0 0,0 0.20275673383428353,0.5732205900649348 l -13.542306924767445 4.65936886529486" fill="#ffb510" stroke="none" /><path d="M 119.85752413597 118.16781622104841 l 26.07977348391241 -8.973012150732263 a48.58023807057092,48.58023807057092 0 0,0 0.2652543603039688,0.7930767750966238 l -26.230365137988148 8.522762272713326" fill="#a9ff21" stroke="none" /><path d="M 119.97218684219823 118.5106431181261 l 6.177409655423781 -2.0071620687465175 a27.495312896322837,27.495312896322837 0 0,0 0.142379261883449,0.45138116881242046 l -6.211044401075436 1.900530733507678" fill="#ff4b07" stroke="none" /><path d="M 120.08093135843002 118.85539295169968 l 1.7069907194209835 -0.5223257337381508 a22.785116659581234,22.785116659581234 0 0,0 0.11153217267746951,0.37603104065537746 l -1.7157287892101554 0.49286530633624354" fill="#ff0801" stroke="none" /><path d="M 120.18372546131832 119.20196356495316 l 5.992558379007034 -1.7214399733694477 a27.234910705673467,27.234910705673467 0 0,0 0.12555712660728474,0.45169578815144024 l -6.021302276180681 1.6180328817990557" fill="#ff4706" stroke="none" /><path d="M 120.28053869075195 119.5502522615342 l 5.947618620495265 -1.5982327501528186 a27.158613088879918,27.158613088879918 0 0,0 0.1174334137993098,0.45251884747308857 l -5.974248366164877 1.4956174771308797" fill="#ff4606" stroke="none" /><path d="M 120.37134235888165 119.90015583598534 l 6.369205710597875 -1.594492694706474 a27.565758778495056,27.565758778495056 0 0,0 0.11127010382565526,0.4612864159655968 l -6.39570861468435 1.4846210470814711" fill="#ff4c07" stroke="none" /><path d="M 120.6074358757038 120.95851677861258 l 6.028578860839579 -1.1823111066243701 a27.14342108553607,27.14342108553607 0 0,0 0.08597261924353776,0.4592691697312327 l -6.048037203992975 1.0783638594305747" fill="#ff4606" stroke="none" /><path d="M 120.67395015179393 121.31383870115 l 6.625011444878004 -1.1812382545784799 a27.72949481453431,27.72949481453431 0 0,0 0.0797396463254455,0.47062790641534796 l -6.6443629527236725 1.067024559847294" fill="#ff4e07" stroke="none" /><path d="M 120.73433829027371 121.67025291283417 l 7.8522370272898785 -1.260998205166691 a28.952844950467462,28.952844950467462 0 0,0 0.07478672412993262,0.4927510706700711 l -7.872779644859111 1.1256480221045377" fill="#ff5f08" stroke="none" /><path d="M 120.78858239683441 122.02765380044208 l 6.115215092823024 -0.8743518915171213 a27.17740615968305,27.17740615968305 0 0,0 0.06222849635179848,0.4636745779653927 l -6.129359588232658 0.7689589714870643" fill="#ff4706" stroke="none" /><path d="M 120.83666639777658 122.38593545837742 l 10.952989387694362 -1.3741075773135876 a32.03884722971452,32.03884722971452 0 0,0 0.06393984655091804,0.5477975578420211 l -10.97501958724887 1.1853662811467136" fill="#ff890c" stroke="none" /><path d="M 120.87857604477298 122.74499172005257 l 62.63572813431897 -6.7650248398422885 a84.0,84.0 0 0,0 0.1428914972710853,1.43889787718226 l -62.74289675727228 5.6858514319555935" fill="#4dd2ff" stroke="none" /><path d="M 120.94382443527127 123.46500227214037 l 6.717104851354073 -0.4923045796382449 a27.73512148243944,27.73512148243944 0 0,0 0.03079841149482033,0.4764377941252832 l -6.72458385385331 0.3766077212599265" fill="#ff4e07" stroke="none" /><path d="M 120.96714384426684 123.82574320788733 l 6.1561683197406305 -0.3447738288312888 a27.165815223798486,27.165815223798486 0 0,0 0.022129003708321073,0.4671082931831172 l -6.161190931682449 0.23875442902517185" fill="#ff4606" stroke="none" /><path d="M 120.98425023603335 124.18683210126433 l 6.166925828609236 -0.2389766639885833 a27.171554425061714,27.171554425061714 0 0,0 0.014088199366435305,0.46751875022100775 l -6.170125722431317 0.13278776634257647" fill="#ff4606" stroke="none" /><line stroke="#e1ed5e" stroke-width="0.3" x1="184.98032266829074" x2="189.97916517819016" y1="123.17113171792111" y2="123.06355123074" /><path d="M 185.9800911702706 123.14961562048488 a86.0,86.0 0 0,1 -9.607161424134198,41.387399972396054" fill="none" id="id28" stroke="none" /><text fill="#e1ed5e" style="font-size:5.4px;" text-anchor="middle"><textPath startOffset="21.466115282336823" xlink:href="#id28">April</textPath></text><path d="M 120.99513854157772 124.54816195383933 l 6.435867981218063 -0.13850682662668654 a27.43735821690001,27.43735821690001 0 0,0 0.006097616928902908,0.4722671509531518 l -6.437298605264681 0.027703417613072035" fill="#ff4a06" stroke="none" /><path d="M 120.9904718944345 125.63252640178507 l 8.328864352086319 0.2509818086070728 a29.33264503406367,29.33264503406367 0 0,0 -0.01955211753855417,0.5045532757888295 l -8.323310101696562 -0.39431233140990846" fill="#ff6509" stroke="none" /><path d="M 120.95626037817324 126.35467743843564 l 7.975472794031069 0.5155592104679202 a28.99211909244526,28.99211909244526 0 0,0 -0.036479598001703,0.4977351315576854 l -7.965416637365029 -0.6527674785223759" fill="#ff6008" stroke="none" /><path d="M 120.92983693683757 126.71520430193887 l 7.855278096983552 0.643741603220926 a28.881611334788527,28.881611334788527 0 0,0 -0.044870201426955844,0.4951389337728777 l -7.843033299279521 -0.7788619255423742" fill="#ff5e08" stroke="none" /><path d="M 120.89721153311464 127.0752229133903 l 5.918725291986062 0.5877661871072368 a26.947838109153786,26.947838109153786 0 0,0 -0.049812050234266464,0.4611977206515742 l -5.907730940250744 -0.6895602296436024" fill="#ff4306" stroke="none" /><path d="M 120.8583938346157 127.4346265915055 l 6.071704173863109 0.7086994595389211 a27.112924545490273,27.112924545490273 0 0,0 -0.058097175450054696,0.4630916506577554 l -6.058605489166206 -0.8131088644840715" fill="#ff4606" stroke="none" /><path d="M 120.81339534386255 127.79330883721812 l 20.0418816805698 2.6897660995673998 a41.22156925088509,41.22156925088509 0 0,0 -0.10043527187173434,0.7024440575477312 l -19.992612357681466 -3.0343556290955402" fill="#ffff18" stroke="none" /><path d="M 120.70491114924044 128.5080841355445 l 5.887005151531783 0.9974497948384103 a26.970907447564812,26.970907447564812 0 0,0 -0.08149523956611707,0.4570685826808624 l -5.868963469626477 -1.0986371282524912" fill="#ff4406" stroke="none" /><path d="M 120.64145759157962 128.86396538481128 l 6.2486945537258345 1.1697206628326908 a27.357234465930972,27.357234465930972 0 0,0 -0.0906306969235852,0.46212397105584346 l -6.227633923826585 -1.2771083609564793" fill="#ff4906" stroke="none" /><path d="M 120.5718875245553 129.21870165774334 l 5.658468839412569 1.1603889941856393 a26.77622473804735,26.77622473804735 0 0,0 -0.09647851353022381,0.4507154958622213 l -5.637656287157902 -1.2576183094640296" fill="#ff4106" stroke="none" /><path d="M 120.49622156327973 129.57218783832718 l 5.9471677800217995 1.32666248324629 a27.093343741180423,27.093343741180423 0 0,0 -0.10545688497395649,0.45430550040470086 l -5.92345032911729 -1.4288366409995559" fill="#ff4506" stroke="none" /><path d="M 120.32669344350535 130.2749913415812 l 4.25636459914054 1.1045715068946897 a25.397353501216433,25.397353501216433 0 0,0 -0.11345593275128632,0.4222117324104948 l -4.236720590047477 -1.177674172480733" fill="#ff2d04" stroke="none" /><path d="M 120.23288151984713 130.62410040840567 l 23.111247933614752 6.424195130817395 a44.98749807978794,44.98749807978794 0 0,0 -0.21381350268739527,0.7443128525511568 l -22.99724179404126 -6.821065458873134" fill="#d2ff1c" stroke="none" /><path d="M 119.79798401119884 132.00284435728193 l 10.60920773543524 3.7526361514030544 a32.253335810258044,32.253335810258044 0 0,0 -0.1896430702008665,0.5218162807350577 l -10.543040404229147 -3.934700229144243" fill="#ff8c0c" stroke="none" /><path d="M 119.67450827220406 132.34259656027578 l 11.856597808192056 4.424924530693325 a33.655388918858094,33.655388918858094 0 0,0 -0.20723020522445978,0.5410126737176881 l -11.77867332337409 -4.628360771244156" fill="#ff9f0e" stroke="none" /><path d="M 119.54520255179757 132.68017299344265 l 5.853883021516297 2.3002490851386472 a27.289601917711323,27.289601917711323 0 0,0 -0.17555970843044044,0.43572479877745596 l -5.813420698828464 -2.4006732517589167" fill="#ff4806" stroke="none" /><path d="M 119.41010516605496 133.01547362559984 l 12.864914550367653 5.3126133213540925 a34.91868839691766,34.91868839691766 0 0,0 -0.23420299994082663,0.553586709412345 l -12.771560569234516 -5.533274556432601" fill="#ffaf10" stroke="none" /><path d="M 119.12269723197855 133.67885076344098 l 2.7177994333313173 1.2334753513433363 a23.984609723596638,23.984609723596638 0 0,0 -0.1738603050057907,0.3744796296436367 l -2.696164511485695 -1.2800750482658036" fill="#ff1902" stroke="none" /><line stroke="#e1ed5e" stroke-width="0.3" x1="174.80103733775053" x2="179.2010983576182" y1="165.37084112569926" y2="167.7455964860345" /><path d="M 175.68104954172406 165.8457921977663 a86.0,86.0 0 0,1 -30.038265399797805,32.042727171017184" fill="none" id="id29" stroke="none" /><text fill="#e1ed5e" style="font-size:5.4px;" text-anchor="middle"><textPath startOffset="22.206326154141568" xlink:href="#id29">May</textPath></text><path d="M 118.48025628344425 134.97397251340806 l 10.056471446861819 5.427574610138401 a32.427649981958936,32.427649981958936 0 0,0 -0.2693403401382366,0.4889309525411945 l -9.961554697272073 -5.5998760810774" fill="#ff8e0d" stroke="none" /><path d="M 118.30583269289576 135.29060199501023 l 5.609523912680639 3.153387170925662 a27.435107549737957,27.435107549737957 0 0,0 -0.23495949181738823,0.40967167877812055 l -5.554412424710871 -3.2494786955620976" fill="#ff4a06" stroke="none" /><path d="M 118.12598468904814 135.60418214915194 l 20.947353712372298 12.254757913534048 a45.26871894168629,45.26871894168629 0 0,0 -0.3992682133639147,0.6691964914626451 l -20.733304623310154 -12.613516498882799" fill="#cfff1d" stroke="none" /><path d="M 117.55443506779139 136.5257021239791 l 4.7285916229775395 3.1046478170282117 a26.65671431174241,26.65671431174241 0 0,0 -0.2551388950768482,0.3813980304400169 l -4.67444962248997 -3.1855827616740355" fill="#ff3f05" stroke="none" /><path d="M 117.35343817320211 136.82616520977328 l 10.139148770352845 6.909711334888565 a33.26973710064055,33.26973710064055 0 0,0 -0.3265806392800126,0.4704637684179002 l -10.018707223910697 -7.0832163654934845" fill="#ff9a0e" stroke="none" /><path d="M 117.14729908036423 137.12312394758627 l 10.415662385764962 7.363863282902428 a33.7558812076437,33.7558812076437 0 0,0 -0.3395202017725233,0.47156386498601655 l -10.287362391616837 -7.542060753339576" fill="#ffa00e" stroke="none" /><path d="M 116.93607887273984 137.41649034213515 l 3.9770141449911893 2.915701922084246 a25.931324285413176,25.931324285413176 0 0,0 -0.26701698649507344,0.357712888702453 l -3.926235891801024 -2.983727690296014" fill="#ff3505" stroke="none" /><path d="M 116.71984013943494 137.70617746262582 l 10.486179458905925 7.9689312815584925 a34.170566632251706,34.170566632251706 0 0,0 -0.3599188757547535,0.4652436644657221 l -10.347453765933103 -8.148252940137468" fill="#ffa60f" stroke="none" /><path d="M 116.498646956653 137.99209946851258 l 9.574822901672318 7.539833530516054 a33.187137615793254,33.187137615793254 0 0,0 -0.35728654119530645,0.445769895458264 l -9.443618448422159 -7.703531259552568" fill="#ff990e" stroke="none" /><path d="M 116.0416608686014 138.55231037782056 l 2.5898058191625783 2.1879188549780815 a24.39029247955644,24.39029247955644 0 0,0 -0.27370262459842754,0.3183779869902276 l -2.551760684993372 -2.2321739411298367" fill="#ff1f03" stroke="none" /><line stroke="#e1ed5e" stroke-width="0.3" x1="143.8653032363475" x2="146.44561519142675" y1="197.8068346515853" y2="202.08958963109032" /><path d="M 144.38136562736335 198.6633856474863 a86.0,86.0 0 0,1 -40.68145358897372,12.25698825130547" fill="none" id="id30" stroke="none" /><text fill="#e1ed5e" style="font-size:5.4px;" text-anchor="middle"><textPath startOffset="21.466115282336833" xlink:href="#id30">June</textPath></text><line stroke="#e1ed5e" stroke-width="0.3" x1="102.19456741930631" x2="102.32365962044197" y1="209.97166512339345" y2="214.96999836594603" /><path d="M 102.22038585953345 210.97133177190398 a86.0,86.0 0 0,1 -42.740103519485714,-10.115201625700543" fill="none" id="id31" stroke="none" /><text fill="#e1ed5e" style="font-size:5.4px;" text-anchor="middle"><textPath startOffset="22.20632615414155" xlink:href="#id31">July</textPath></text><line stroke="#e1ed5e" stroke-width="0.3" x1="58.666819895761336" x2="56.23545636021788" y1="199.27360380694188" y2="203.64263932499728" /><path d="M 58.180547188652646 200.14741091055294 a86.0,86.0 0 0,1 -31.652253787137756,-30.449443065178592" fill="none" id="id32" stroke="none" /><text fill="#e1ed5e" style="font-size:5.4px;" text-anchor="middle"><textPath startOffset="22.20632615414155" xlink:href="#id32">August</textPath></text><line stroke="#e1ed5e" stroke-width="0.3" x1="26.63291911575756" x2="22.317208475507996" y1="167.92168965132927" y2="170.44649492493687" /><path d="M 25.769776987707644 168.4266507060508 a86.0,86.0 0 0,1 -11.730757126820373,-40.83630448921669" fill="none" id="id33" stroke="none" /><text fill="#e1ed5e" style="font-size:5.4px;" text-anchor="middle"><textPath startOffset="21.46611528233685" xlink:href="#id33">September</textPath></text><line stroke="#e1ed5e" stroke-width="0.3" x1="15.007084014347285" x2="10.007500721073583" y1="126.09737516637583" y2="126.16192664675087" /><path d="M 14.007167355692545 126.11028546245083 a86.0,86.0 0 0,1 10.666146001902534,-42.60595125391555" fill="none" id="id34" stroke="none" /><text fill="#e1ed5e" style="font-size:5.4px;" text-anchor="middle"><textPath startOffset="22.20632615414155" xlink:href="#id34">October</textPath></text><line stroke="#e1ed5e" stroke-width="0.3" x1="26.266209847984243" x2="21.928928074336255" y1="82.71137044288967" y2="80.22380399835377" /><path d="M 25.398753493254645 82.2138571539825 a86.0,86.0 0 0,1 29.58750427330803,-30.492523968695096" fill="none" id="id35" stroke="none" /><text fill="#e1ed5e" style="font-size:5.4px;" text-anchor="middle"><textPath startOffset="21.46611528233685" xlink:href="#id35">November</textPath></text><line stroke="#e1ed5e" stroke-width="0.3" x1="56.762969772571076" x2="54.21961505331055" y1="51.818313649435495" y2="47.513508569990535" /><path d="M 56.25429882871897 50.957352633546506 a86.0,86.0 0 0,1 42.265352541879196,-11.944610805530505" fill="none" id="id36" stroke="none" /><text fill="#e1ed5e" style="font-size:5.4px;" text-anchor="middle"><textPath startOffset="22.20632615414155" xlink:href="#id36">December</textPath></text></svg>