<?xml version="1.0" encoding="utf-8" ?>
<svg baseProfile="full" height="250mm" version="1.1" viewBox="0,0,200,250" width="200mm" xmlns="http://www.w3.org/2000/svg" xmlns:ev="http://www.w3.org/2001/xml-events" xmlns:xlink="http://www.w3.org/1999/xlink"><defs /><rect fill="#1a1a1a" height="250" width="200" x="0" y="0" /><text alignment-baseline="middle" fill="#e1ed5e" style="dominant-baseline: central; font-size:7.2px; " text-anchor="middle" x="100.0" y="125.0">2022</text><line stroke="#e1ed5e" stroke-width="0.3" x1="100.0" x2="100.0" y1="40.0" y2="35.0" /><path d="M 100.0 39.0 a86.0,86.0 0 0,1 42.46469731375804,11.215312516191453" fill="none" id="id37" stroke="none" /><text fill="#e1ed5e" style="font-size:5.4px;" text-anchor="middle"><textPath startOffset="22.20632615414155" xlink:href="#id37">January</textPath></text><path d="M 101.08401301168833 104.027996857942 l 0.7452710532643071 -14.418486403960015 a35.43773455650205,35.43773455650205 0 0,0 0.6089180729111373,0.03673160104112711 l -0.9933511750150563 14.403521533538584" fill="#ff9d0e" stroke="none" /><path d="M 101.44485096284872 104.0497635885617 l 0.9361794199622027 -13.574535143099684 a34.6067790552213,34.6067790552213 0 0,0 0.5939344136224575,0.046100741455788255 l -1.1697040229470013 13.55640913945543" fill="#ff920d" stroke="none" /><path d="M 102.16513564639614 104.11191278185805 l 2.3980034851742467 -23.134673354578187 a44.258622743789836,44.258622743789836 0 0,0 0.7571033783986224,0.08506938608368846 l -2.795873567082594 23.0899680150239" fill="#edff19" stroke="none" /><path d="M 103.2404852339499 104.25152402106235 l 2.2436021774522708 -14.365541739691288 a35.53968844939537,35.53968844939537 0 0,0 0.6036175663248998,0.09960207043849398 l -2.4905489499160454 14.32479340631317" fill="#ff9e0e" stroke="none" /><path d="M 103.59715602781102 104.31037775812273 l 2.2005179328407936 -12.65663330001776 a33.846503246559834,33.846503246559834 0 0,0 0.5731419851468182,0.10473803435420745 l -2.418055039090513 12.616879784312813" fill="#ff870c" stroke="none" /><path d="M 103.95276090670814 104.375362276772 l 2.678538851150195 -13.976027069790925 a35.23038660868529,35.23038660868529 0 0,0 0.594611067694173,0.11927338636895339 l -2.9187163283114934 13.927849727344764" fill="#ff9a0e" stroke="none" /><path d="M 104.66035177308747 104.52364482259891 l 0.7984256686364195 -3.5080715726577423 a24.59778399952344,24.59778399952344 0 0,0 0.4120437030592661,0.09751743191601238 l -0.8586930586582091 3.4938082286008614" fill="#ff0000" stroke="none" /><path d="M 105.71112130821622 104.79150937346287 l 3.957588991371429 -14.003712356933917 a35.55219812950497,35.55219812950497 0 0,0 0.5874743110653858,0.17149986100629513 l -4.198053520160242 13.93351416700892" fill="#ff9f0e" stroke="none" /><path d="M 106.0581310904928 104.89281104454417 l 4.035566266720416 -13.394212217453076 a34.98894978256985,34.98894978256985 0 0,0 0.5751760599253927,0.17871000163241443 l -4.265527699356526 13.32276208093814" fill="#ff970d" stroke="none" /><path d="M 106.40334571778207 105.00007090966166 l 4.418678548566599 -13.801106724398606 a35.49121343897063,35.49121343897063 0 0,0 0.5802258682409229,0.19129134622274435 l -4.6555872390499395 13.723001653916626" fill="#ff9e0e" stroke="none" /><path d="M 106.74666289553966 105.11325718540242 l 4.370239609584691 -12.881899169949017 a34.60302615118842,34.60302615118842 0 0,0 0.5624112161557031,0.1962142300830148 l -4.591332829803668 12.804764086693796" fill="#ff920d" stroke="none" /><path d="M 107.08798089147638 105.2323363322302 l 21.26394267442914 -59.302991003309366 a84.0,84.0 0 0,0 1.3568706969096942,0.49974692877470117 l -22.28159569711141 58.92818080672834" fill="#4dd2ff" stroke="none" /><line stroke="#e1ed5e" stroke-width="0.3" x1="143.23703022742887" x2="145.7803849466894" y1="51.81831364943548" y2="47.513508569990506" /><path d="M 143.74570117128098 50.95735263354649 a86.0,86.0 0 0,1 28.547481713284135,27.462654790039103" fill="none" id="id38" stroke="none" /><text fill="#e1ed5e" style="font-size:5.4px;" text-anchor="middle"><textPath startOffset="19.985693538727396" xlink:href="#id38">February</textPath></text><path d="M 112.48926042617603 108.11751280151076 l 3.631944188091072 -4.909518191530641 a27.10691308750819,27.10691308750819 0 0,0 0.37272501970262933,0.2807287574399934 l -3.715915361552084 4.8462728445848" fill="#ff2603" stroke="none" /><path d="M 112.77801427241765 108.33499621200491 l 6.8864415990089025 -8.98125271162159 a32.31750759516292,32.31750759516292 0 0,0 0.43854464585758485,0.34229105217175365 l -7.040018800025917 8.86138327022661" fill="#ff720a" stroke="none" /><path d="M 113.06298171725822 108.55741782278167 l 6.463985427999922 -8.13632093290095 a31.391478525049145,31.391478525049145 0 0,0 0.42019228225843214,0.3397662698384611 l -6.603081108822845 8.02384856579836" fill="#ff6409" stroke="none" /><path d="M 113.34407831869373 108.78471172551755 l 6.920844575070407 -8.409984354666197 a31.89155298743075,31.89155298743075 0 0,0 0.4208811211969227,0.35247583510935043 l -7.064583233226447 8.289607362163027" fill="#ff6c09" stroke="none" /><path d="M 113.6212207817346 109.01681056812373 l 7.509644268478809 -8.811843580867029 a32.57770894144278,32.57770894144278 0 0,0 0.4236749684661325,0.3674067576913636 l -7.660213035591705 8.681271829755994" fill="#ff750a" stroke="none" /><path d="M 114.42810811169701 109.74124197986012 l 7.128535693001426 -7.538937214454048 a31.37552868290939,31.37552868290939 0 0,0 0.38923099821033763,0.37443991189102904 l -7.257249934824182 7.415114215800717" fill="#ff6409" stroke="none" /><path d="M 114.68862486808459 109.99185889309783 l 8.609343672681314 -8.79661955001413 a33.30858700184666,33.30858700184666 0 0,0 0.4063079779469129,0.40456316236535866 l -8.75948745079555 8.647120536998653" fill="#ff800b" stroke="none" /><path d="M 114.94478906791727 110.2469230424477 l 7.561643065802245 -7.4646421283260755 a31.625409543098826,31.625409543098826 0 0,0 0.379106940810605,0.390703026946235 l -7.689014270315958 7.333374905829726" fill="#ff6809" stroke="none" /><path d="M 115.19652480421416 110.50635884689758 l 9.07948678471835 -8.659534005797873 a33.54689640793471,33.54689640793471 0 0,0 0.39494709707205505,0.42130202626648144 l -9.227201203760869 8.501962562653338" fill="#ff830c" stroke="none" /><path d="M 116.15771136456269 111.58626213691792 l 9.355629621942535 -7.766815513740257 a33.15940906653958,33.15940906653958 0 0,0 0.3608083320742616,0.4423083526656383 l -9.487936446093206 7.604622991466518" fill="#ff7d0b" stroke="none" /><path d="M 116.38621287248628 111.86637796730983 l 8.497169420086562 -6.810518841637455 a31.88967653541431,31.88967653541431 0 0,0 0.3396188584916107,0.4312814614492849 l -8.613142359172137 6.6632449862351315" fill="#ff6b09" stroke="none" /><path d="M 116.60985879189232 112.15038557335679 l 8.63392076118737 -6.679319442836042 a31.915946863644486,31.915946863644486 0 0,0 0.33241835569560924,0.4374235904537553 l -8.747615057107092 6.529711076501253" fill="#ff6c09" stroke="none" /><path d="M 116.82858285166822 112.43820079747576 l 7.429357688313165 -5.545689753375063 a30.270923929230953,30.270923929230953 0 0,0 0.30809658083012265,0.42024339000638566 l -7.523716881656914 5.416983919697183" fill="#ff5407" stroke="none" /><line stroke="#e1ed5e" stroke-width="0.3" x1="172.23445277983987" x2="176.4835382374775" y1="80.19839476539836" y2="77.56300622218649" /><path d="M 173.08426987136738 79.67131705675598 a86.0,86.0 0 0,1 12.851231095245387,41.99856678651699" fill="none" id="id39" stroke="none" /><text fill="#e1ed5e" style="font-size:5.4px;" text-anchor="middle"><textPath startOffset="22.20632615414155" xlink:href="#id39">March</textPath></text><line stroke="#e1ed5e" stroke-width="0.3" x1="184.98032266829074" x2="189.97916517819016" y1="123.17113171792111" y2="123.06355123074" /><path d="M 185.9800911702706 123.14961562048488 a86.0,86.0 0 0,1 -9.607161424134198,41.387399972396054" fill="none" id="id40" stroke="none" /><text fill="#e1ed5e" style="font-size:5.4px;" text-anchor="middle"><textPath startOffset="21.466115282336823" xlink:href="#id40">April</textPath></text><line stroke="#e1ed5e" stroke-width="0.3" x1="174.80103733775053" x2="179.2010983576182" y1="165.37084112569926" y2="167.7455964860345" /><path d="M 175.68104954172406 165.8457921977663 a86.0,86.0 0 0,1 -30.038265399797805,32.042727171017184" fill="none" id="id41" stroke="none" /><text fill="#e1ed5e" style="font-size:5.4px;" text-anchor="middle"><textPath startOffset="22.206326154141568" xlink:href="#id41">May</textPath></text><line stroke="#e1ed5e" stroke-width="0.3" x1="143.8653032363475" x2="146.44561519142675" y1="197.8068346515853" y2="202.08958963109032" /><path d="M 144.38136562736335 198.6633856474863 a86.0,86.0 0 0,1 -40.68145358897372,12.25698825130547" fill="none" id="id42" stroke="none" /><text fill="#e1ed5e" style="font-size:5.4px;" text-anchor="middle"><textPath startOffset="21.466115282336833" xlink:href="#id42">June</textPath></text><line stroke="#e1ed5e" stroke-width="0.3" x1="102.19456741930631" x2="102.32365962044197" y1="209.97166512339345" y2="214.96999836594603" /><path d="M 102.22038585953345 210.97133177190398 a86.0,86.0 0 0,1 -42.740103519485714,-10.115201625700543" fill="none" id="id43" stroke="none" /><text fill="#e1ed5e" style="font-size:5.4px;" text-anchor="middle"><textPath startOffset="22.20632615414155" xlink:href="#id43">July</textPath></text><line stroke="#e1ed5e" stroke-width="0.3" x1="58.666819895761336" x2="56.23545636021788" y1="199.27360380694188" y2="203.64263932499728" /><path d="M 58.180547188652646 200.14741091055294 a86.0,86.0 0 0,1 -31.652253787137756,-30.449443065178592" fill="none" id="id44" stroke="none" /><text fill="#e1ed5e" style="font-size:5.4px;" text-anchor="middle"><textPath startOffset="22.20632615414155" xlink:href="#id44">August</textPath></text><line stroke="#e1ed5e" stroke-width="0.3" x1="26.63291911575756" x2="22.317208475507996" y1="167.92168965132927" y2="170.44649492493687" /><path d="M 25.769776987707644 168.4266507060508 a86.0,86.0 0 0,1 -11.730757126820373,-40.83630448921669" fill="none" id="id45" stroke="none" /><text fill="#e1ed5e" style="font-size:5.4px;" text-anchor="middle"><textPath startOffset="21.46611528233685" xlink:href="#id45">September</textPath></text><line stroke="#e1ed5e" stroke-width="0.3" x1="15.007084014347285" x2="10.007500721073583" y1="126.09737516637583" y2="126.16192664675087" /><path d="M 14.007167355692545 126.11028546245083 a86.0,86.0 0 0,1 10.666146001902534,-42.60595125391555" fill="none" id="id46" stroke="none" /><text fill="#e1ed5e" style="font-size:5.4px;" text-anchor="middle"><textPath startOffset="22.20632615414155" xlink:href="#id46">October</textPath></text><line stroke="#e1ed5e" stroke-width="0.3" x1="26.266209847984243" x2="21.928928074336255" y1="82.71137044288967" y2="80.22380399835377" /><path d="M 25.398753493254645 82.2138571539825 a86.0,86.0 0 0,1 29.58750427330803,-30.492523968695096" fill="none" id="id47" stroke="none" /><text fill="#e1ed5e" style="font-size:5.4px;" text-anchor="middle"><textPath startOffset="21.46611528233685" xlink:href="#id47">November</textPath></text><line stroke="#e1ed5e" stroke-width="0.3" x1="56.762969772571076" x2="54.21961505331055" y1="51.818313649435495" y2="47.513508569990535" /><path d="M 56.25429882871897 50.957352633546506 a86.0,86.0 0 0,1 42.265352541879196,-11.944610805530505" fill="none" id="id48" stroke="none" /><text fill="#e1ed5e" style="font-size:5.4px;" text-anchor="middle"><textPath startOffset="22.20632615414155" xlink:href="#id48">December</textPath></text></svg>