<?xml version="1.0" encoding="utf-8" ?>
<svg baseProfile="full" height="250mm" version="1.1" viewBox="0,0,200,250" width="200mm" xmlns="http://www.w3.org/2000/svg" xmlns:ev="http://www.w3.org/2001/xml-events" xmlns:xlink="http://www.w3.org/1999/xlink"><defs /><rect fill="#1a1a1a" height="250" width="200" x="0" y="0" /><text alignment-baseline="middle" fill="#e1ed5e" style="dominant-baseline: central; font-size:7.2px; " text-anchor="middle" x="100.0" y="125.0">2020</text><line stroke="#e1ed5e" stroke-width="0.3" x1="100.0" x2="100.0" y1="40.0" y2="35.0" /><path d="M 100.0 39.0 a86.0,86.0 0 0,1 42.35913384403234,11.155469271406648" fill="none" id="id13" stroke="none" /><text fill="#e1ed5e" style="font-size:5.4px;" text-anchor="middle"><textPath startOffset="22.145653131862478" xlink:href="#id13">January</textPath></text><line stroke="#e1ed5e" stroke-width="0.3" x1="143.13028292997686" x2="145.6673583964461" y1="51.7553504044142" y2="47.446841604673864" /><path d="M 143.63769802327073 50.89364864446614 a86.0,86.0 0 0,1 29.32050498858742,28.57503671076993" fill="none" id="id14" stroke="none" /><text fill="#e1ed5e" style="font-size:5.4px;" text-anchor="middle"><textPath startOffset="20.669276256404974" xlink:href="#id14">February</textPath></text><line stroke="#e1ed5e" stroke-width="0.3" x1="172.87174338648825" x2="177.1583165268699" y1="81.2426118716644" y2="78.66864786411523" /><path d="M 173.72905801456457 80.72781907015455 a86.0,86.0 0 0,1 12.242430191666344,42.057860355516425" fill="none" id="id15" stroke="none" /><text fill="#e1ed5e" style="font-size:5.4px;" text-anchor="middle"><textPath startOffset="22.145653131862474" xlink:href="#id15">March</textPath></text><line stroke="#e1ed5e" stroke-width="0.3" x1="184.99686870605535" x2="189.99668451229388" y1="124.2704041080226" y2="124.22748670261217" /><path d="M 185.99683186730306 124.26182062694052 a86.0,86.0 0 0,1 -10.086455211305974,41.156179273409016" fill="none" id="id16" stroke="none" /><text fill="#e1ed5e" style="font-size:5.4px;" text-anchor="middle"><textPath startOffset="21.40746469413373" xlink:href="#id16">April</textPath></text><line stroke="#e1ed5e" stroke-width="0.3" x1="174.33088141563837" x2="178.70328620479359" y1="166.23008692659167" y2="168.65538615756765" /><path d="M 175.20536237346943 166.71514677278685 a86.0,86.0 0 0,1 -30.301960400862466,31.631185727798858" fill="none" id="id17" stroke="none" /><text fill="#e1ed5e" style="font-size:5.4px;" text-anchor="middle"><textPath startOffset="22.145653131862474" xlink:href="#id17">May</textPath></text><line stroke="#e1ed5e" stroke-width="0.3" x1="143.1302829299769" x2="145.66735839644613" y1="198.24464959558577" y2="202.55315839532614" /><path d="M 143.63769802327073 199.10635135553383 a86.0,86.0 0 0,1 -40.68552437913181,11.842963189579606" fill="none" id="id18" stroke="none" /><text fill="#e1ed5e" style="font-size:5.4px;" text-anchor="middle"><textPath startOffset="21.407464694133747" xlink:href="#id18">June</textPath></text><path d="M 109.06512990194946 143.9426349767075 l 1.9512493521375558 4.077360680527041 a25.520203994658335,25.520203994658335 0 0,0 -0.3967921251694008,0.18571874978820999 l -1.8809685130966487 -4.110255661885785" fill="#ff1e03" stroke="none" /><path d="M 108.73861861582097 144.09545874513697 l 2.0335811101220993 4.443741728575048 a25.8869512665592,25.8869512665592 0 0,0 -0.4056689858454374,0.1814505774674769 l -1.9569987214210351 -4.4779960569523745" fill="#ff2303" stroke="none" /><path d="M 108.4095320186766 144.2426549942271 l 1.9935803678785475 4.561702023032218 a25.978301721483643,25.978301721483643 0 0,0 -0.4101663646420754,0.17507563106603255 l -1.914978928066041 -4.595252303757655" fill="#ff2403" stroke="none" /><path d="M 108.07796709384702 144.3841803445677 l 3.026203894120688 7.2617876950439735 a28.867113227651124,28.867113227651124 0 0,0 -0.4590496990802146,0.18669151628969183 l -2.901099733850032 -7.312666467912957" fill="#ff4e07" stroke="none" /><path d="M 107.74402155503746 144.5199930879884 l 3.0424085322085332 7.66885694951558 a29.250310090474702,29.250310090474702 0 0,0 -0.46832217062299986,0.1811570763030543 l -2.910314099092004 -7.719953913956675" fill="#ff5407" stroke="none" /><path d="M 107.407793817531 144.65005319985036 l 3.190488598076 8.463150059244624 a30.04456336258115,30.04456336258115 0 0,0 -0.48416219884344863,0.1777910657605533 l -3.0447372475784245 -8.5166719740139" fill="#ff5f08" stroke="none" /><path d="M 107.06938296918513 144.77432235084166 l 4.210354048362391 11.777109618533784 a33.50709367437226,33.50709367437226 0 0,0 -0.5432843805557388,0.18898250927922466 l -4.00756389576163 -11.847650560381599" fill="#ff8f0d" stroke="none" /><path d="M 106.72888874123015 144.89276391827306 l 2.5938970762492892 7.668395800625557 a29.095220577428776,29.095220577428776 0 0,0 -0.4744976900425294,0.1559768154386639 l -2.4618766485590258 -7.7117935374662405" fill="#ff5107" stroke="none" /><path d="M 106.38641147887787 145.00534299687104 l 2.579539025911562 8.080369258675224 a29.482121724117402,29.482121724117402 0 0,0 -0.4834497513580383,0.1497739687727953 l -2.440448641681899 -8.123459815254664" fill="#ff5708" stroke="none" /><path d="M 106.0420521117495 145.11202640906438 l 2.407862352455514 8.01499065653622 a29.368863503053177,29.368863503053177 0 0,0 -0.4840827642530051,0.14090943757624952 l -2.269919575820902 -8.055143788414988" fill="#ff5507" stroke="none" /><path d="M 105.69591212413111 145.2127827147619 l 3.218054291191578 11.419739408652637 a32.86449837045758,32.86449837045758 0 0,0 -0.5443277991522167,0.14835896217714417 l -3.0215450911046657 -11.473298864973923" fill="#ff860c" stroke="none" /><line stroke="#e1ed5e" stroke-width="0.3" x1="101.45913802915013" x2="101.54496967792366" y1="209.9874750549273" y2="214.98673829345242" /><path d="M 101.47630435890484 210.9873277026323 a86.0,86.0 0 0,1 -42.54439059252881,-10.42667462771756" fill="none" id="id19" stroke="none" /><text fill="#e1ed5e" style="font-size:5.4px;" text-anchor="middle"><textPath startOffset="22.145653131862474" xlink:href="#id19">July</textPath></text><path d="M 98.91894614982273 145.97215588758144 l -0.35606919015254807 6.907647164310657 a27.916818243584615,27.916818243584615 0 0,0 -0.4783821293069468,-0.02877828097148428 l 0.4745956715919412 -6.900516905514481" fill="#ff4006" stroke="none" /><path d="M 97.84075906011543 145.88869738790638 l -0.8094828918444671 7.831012674912674 a28.87273917177699,28.87273917177699 0 0,0 -0.4925745651281889,-0.055194007434837114 l 0.9437933585734554 -7.815962906970865" fill="#ff4e07" stroke="none" /><path d="M 97.12497278360702 145.80226474461375 l -1.6476636175341892 11.921673153764422 a33.03499423272538,33.03499423272538 0 0,0 -0.5610834799622887,-0.08245994958367019 l 1.8520722031041628 -11.89163213088187" fill="#ff880c" stroke="none" /><path d="M 96.41257539226777 145.6913118164083 l -1.171472670820893 6.756743058547083 a27.857545113063743,27.857545113063743 0 0,0 -0.47048112667324754,-0.08573733383079343 l 1.2872885310451976 -6.735637550784924" fill="#ff4006" stroke="none" /><path d="M 95.35216902796893 145.47920084513623 l -2.1916198230508503 9.656681321357702 a30.902256893812044,30.902256893812044 0 0,0 -0.5163146819480254,-0.12184885908774234 l 2.3570666587387636 -9.617636318623731" fill="#ff6b09" stroke="none" /><path d="M 94.30408787586889 145.2127827147619 l -4.451018637418525 15.795094906106936 a37.41025868179939,37.41025868179939 0 0,0 -0.6166279274723299,-0.17949140285549223 l 4.721506577272462 -15.716359808948926" fill="#ffc312" stroke="none" /><path d="M 93.27111125876986 144.89276391827306 l -2.5466493048328904 7.528716159811789 a28.947766333808325,28.947766333808325 0 0,0 -0.46935939756434164,-0.16326756277211646 l 2.675514474442254 -7.483890164471083" fill="#ff4f07" stroke="none" /><path d="M 89.97174638481275 143.45085714620012 l -11.771735161462601 21.658666818927653 a45.65099586395918,45.65099586395918 0 0,0 -0.6853210363130883,-0.38013602639542593 l 12.141800385931791 -21.45339787709908" fill="#d4ff1c" stroke="none" /><line stroke="#e1ed5e" stroke-width="0.3" x1="58.13341422392154" x2="55.67067388415222" y1="198.97424548756322" y2="203.32567169271397" /><path d="M 57.64086615596768 199.84453072859336 a86.0,86.0 0 0,1 -31.369924170532247,-30.572349798747897" fill="none" id="id20" stroke="none" /><text fill="#e1ed5e" style="font-size:5.4px;" text-anchor="middle"><textPath startOffset="22.145653131862474" xlink:href="#id20">August</textPath></text><path d="M 89.34428304082925 143.09573695890944 l -5.745155035266337 9.756529260741955 a32.32239681317344,32.32239681317344 0 0,0 -0.4757044802145006,-0.28564687226892516 l 5.911792272038264 -9.65646838793711" fill="#ff7f0b" stroke="none" /><path d="M 87.83215693770417 142.11559508785305 l -9.190423230354842 12.927481221727113 a36.86138864952098,36.86138864952098 0 0,0 -0.5125821652212439,-0.37106995841077994 l 9.41098640595004 -12.767810491943267" fill="#ffbc11" stroke="none" /><path d="M 87.2517909369889 141.68781488649012 l -7.691276884753905 10.068128335447724 a33.66976512398691,33.66976512398691 0 0,0 -0.4562895390835378,-0.35481350543396184 l 7.862976368472672 -9.93461377839297" fill="#ff910d" stroke="none" /><path d="M 85.86807049272751 140.5334660781643 l -10.881790063821617 11.960993489182934 a37.170303653344405,37.170303653344405 0 0,0 -0.46829313037593373,-0.4334451302654719 l 11.085512965511517 -11.772430612785087" fill="#ffc011" stroke="none" /><path d="M 84.3458050057657 138.9980776924008 l -9.023380019858813 8.068762054680102 a33.10480516480264,33.10480516480264 0 0,0 -0.3751703504299748,-0.4268749897179816 l 9.16056143424738 -7.912674787150821" fill="#ff890c" stroke="none" /><path d="M 84.1078160697243 138.72728997021213 l -13.98086298406919 12.07633645936499 a39.47437230487424,39.47437230487424 0 0,0 -0.4385516981367355,-0.5166127976825137 l 14.18610924571304 -11.834556879232922" fill="#ffde14" stroke="none" /><path d="M 82.78059297857968 137.0204834274941 l -9.304426867482201 6.495212571708838 a32.34725278135678,32.34725278135678 0 0,0 -0.31393819536521594,-0.4580452091944851 l 9.414554799662742 -6.334532627444302" fill="#ff7f0b" stroke="none" /><line stroke="#e1ed5e" stroke-width="0.3" x1="26.387840678322732" x2="22.057713659400548" y1="167.50000000000003" y2="170.00000000000006" /><path d="M 25.521815274538298 168.00000000000003 a86.0,86.0 0 0,1 -11.493303480769221,-40.785679425670985" fill="none" id="id21" stroke="none" /><text fill="#e1ed5e" style="font-size:5.4px;" text-anchor="middle"><textPath startOffset="21.40746469413373" xlink:href="#id21">September</textPath></text><path d="M 81.81346652052679 135.5 l -6.218372547856585 3.590179064426383 a28.18035812885276,28.18035812885276 0 0,0 -0.23828054121108724,-0.42101888471951143 l 6.279086454089051 -3.48290340960775" fill="#ff4406" stroke="none" /><path d="M 81.63589988554817 135.18625677009913 l -19.77498979823437 10.968853494344986 a43.61340240876365,43.61340240876365 0 0,0 -0.35753571636984033,-0.6578254480335091 l 19.960370864219538 -10.627773212836889" fill="#edff1a" stroke="none" /><path d="M 81.4637452351635 134.86951160357373 l -7.091317057528587 3.7757269131122655 a29.03385905606989,29.03385905606989 0 0,0 -0.23046238243644987,-0.44194200592605204 l 7.155087508939987 -3.6534386640817105" fill="#ff5007" stroke="none" /><path d="M 81.29705330413844 134.5498578466782 l -26.293781086818466 13.425791973537235 a50.52312337741773,50.52312337741773 0 0,0 -0.3877772100374433,-0.7758141817297908 l 26.520378210067648 -12.972445935643693" fill="#9bff22" stroke="none" /><path d="M 81.1358732173502 134.22738970284198 l -12.368418655786604 6.050013353907945 a34.76882135940744,34.76882135940744 0 0,0 -0.2576547514195356,-0.5383993344767167 l 12.470452665166052 -5.836801517366123" fill="#ffa00e" stroke="none" /><path d="M 80.9802524753101 133.90220220490707 l -30.80324254739507 14.417472859076701 a55.01034070802383,55.01034070802383 0 0,0 -0.3929716999914233,-0.8587140845816202 l 31.046198712241548 -13.886569792280392" fill="#6aff28" stroke="none" /><path d="M 80.83023694016515 133.57439118712176 l -4.721923776865474 2.1120564449462145 a26.172750388445817,26.172750388445817 0 0,0 -0.17992658907232456,-0.41170724721869173 l 4.757484247954767 -2.0306871279516736" fill="#ff2703" stroke="none" /><path d="M 80.68587082218212 133.24405325689762 l -16.902997133300456 7.214884361866967 a39.37840766887806,39.37840766887806 0 0,0 -0.2600365441418879,-0.6239930429605122 l 17.02435952197883 -6.923658809465174" fill="#ffdc14" stroke="none" /><path d="M 80.5471966667186 132.9112857663389 l -21.26589546263841 8.648654551202036 a43.957298085225375,43.957298085225375 0 0,0 -0.2782734024932811,-0.7014307559237675 l 21.411227540097816 -8.282322778064703" fill="#e8ff1a" stroke="none" /><path d="M 80.41425534168474 132.57618678355246 l -20.559817109885362 7.9529789332793195 a43.04440866762181,43.04440866762181 0 0,0 -0.26066323885111575,-0.6914402097083295 l 20.693311032550913 -7.598870443376845" fill="#f4ff19" stroke="none" /><path d="M 80.28708602549918 132.2388550637466 l -7.2488365704781685 2.6618731955282233 a28.7221240947406,28.7221240947406 0 0,0 -0.1659862902911657,-0.4642931956501764 l 7.293463030813278 -2.5370450434971255" fill="#ff4c07" stroke="none" /><path d="M 80.16572619554312 131.89939002012753 l -5.012857292673353 1.7437319822429003 a26.30747957721979,26.30747957721979 0 0,0 -0.14470940061219528,-0.4278076297345595 l 5.042052114857915 -1.6574226780341792" fill="#ff2904" stroke="none" /><path d="M 80.05021161711548 131.5578916946017 l -13.637479768915833 4.482910474809793 a35.35539413505418,35.35539413505418 0 0,0 -0.18458088975256393,-0.5781970081915886 l 13.712425374445653 -4.2481444329268125" fill="#ffa80f" stroke="none" /><path d="M 79.94057633289273 131.2144607282931 l -3.73767475408989 1.1579411931217136 a24.912932452022275,24.912932452022275 0 0,0 -0.12305052540117849,-0.4095951790460783 l 3.757001599494698 -1.093608410484912" fill="#ff1502" stroke="none" /><path d="M 79.83685265289637 130.8691983318838 l -22.959295681831243 6.683116360620543 a44.91219986733443,44.91219986733443 0 0,0 -0.20912298225123957,-0.7421036892404751 l 23.07063715615706 -6.288004747477072" fill="#ddff1b" stroke="none" /><path d="M 79.73907114497094 130.5222062557868 l -60.78278656508718 16.566618767360406 a84.0,84.0 0 0,0 -0.36724207678106957,-1.3944779825087894 l 61.05821812267298 -15.520760280478815" fill="#4dd2ff" stroke="none" /><path d="M 79.64726062577567 130.1735867601596 l -4.533247797123894 1.1523338629012787 a25.67741476904899,25.67741476904899 0 0,0 -0.10492583209519758,-0.428133200976403 l 4.552361155735385 -1.074344837316776" fill="#ff2003" stroke="none" /><path d="M 79.56144815229197 129.8234425847677 l -18.121782302133983 4.276691280248645 a39.619588666576156,39.619588666576156 0 0,0 -0.15053394500694076,-0.6632803370774596 l 18.19252710869859 -3.964976609232159" fill="#ffdf14" stroke="none" /><path d="M 79.48165901384964 129.47187691870673 l -8.602390935671403 1.8748510660236586 a29.804328272497088,29.804328272497088 0 0,0 -0.1046590187693324,-0.5008312918025422 l 8.633307665265102 -1.7269033229357074" fill="#ff5b08" stroke="none" /><path d="M 79.407916724674 129.11899336999215 l -13.445002627107884 2.689377074681024 a34.71134000354297,34.71134000354297 0 0,0 -0.11185928942354484,-0.5852950695005269 l 13.489188208813585 -2.4581794401471826" fill="#ff9f0e" stroke="none" /><path d="M 79.34024301695615 128.76489593502546 l -18.689728304904822 3.4058910847604436 a39.997527159933504,39.997527159933504 0 0,0 -0.1172978576192295,-0.6765428720550571 l 18.745440980016287 -3.0845551797847937" fill="#ffe415" stroke="none" /><path d="M 79.2786578344484 128.40968896794604 l -23.043618270949203 3.7918186173595214 a44.35350576346468,44.35350576346468 0 0,0 -0.11717458658065581,-0.7523449012246507 l 23.105314349668124 -3.3956855342034205" fill="#e4ff1b" stroke="none" /><path d="M 79.17382384314188 127.69636545807758 l -9.978199017826112 1.2918776333614235 a31.06148117619496,31.06148117619496 0 0,0 -0.06392440067237844,-0.5293857389088088 l 9.998905504758152 -1.1203982175292155" fill="#ff6d0a" stroke="none" /><path d="M 79.0935383218832 126.97986365728391 l -13.881364681259967 1.314579667715762 a34.943471774163825,34.943471774163825 0 0,0 -0.05142743442395962,-0.5976647425191562 l 13.901885738381667 -1.076093877820944" fill="#ffa20f" stroke="none" /><path d="M 79.06263194458094 126.62068470465958 l -10.346711382170637 0.8009008981561535 a31.377662486061432,31.377662486061432 0 0,0 -0.03695995608593641,-0.5373896498941699 l 10.35893529942164 -0.6231678241076402" fill="#ff710a" stroke="none" /><path d="M 79.03789590574601 126.26102812881392 l -9.846406970976831 0.592335392588514 a30.86420759389289,30.86420759389289 0 0,0 -0.027275744553572935,-0.5291421575655973 l 9.855124304986978 -0.42322144164618586" fill="#ff6a09" stroke="none" /><path d="M 79.01933749520258 125.90099992219065 l -5.124691792475146 0.22007631576054215 a26.12941512773346,26.12941512773346 0 0,0 -0.015398080514047284,-0.4482983133869468 l 5.127714559986042 -0.13207173780947548" fill="#ff2703" stroke="none" /><line stroke="#e1ed5e" stroke-width="0.3" x1="15.003131293944662" x2="10.003315487706104" y1="125.72959589197737" y2="125.7725132973878" /><path d="M 14.003168132696942 125.73817937305945 a86.0,86.0 0 0,1 10.791469493833604,-42.45332614584628" fill="none" id="id22" stroke="none" /><text fill="#e1ed5e" style="font-size:5.4px;" text-anchor="middle"><textPath startOffset="22.145653131862435" xlink:href="#id22">October</textPath></text><path d="M 79.00077361379809 125.18025310272382 l -2.526330667405893 0.021685510357918394 a23.526423737704146,23.526423737704146 0 0,0 0.0,-0.40387722616347094 l 2.526330667405893 0.021685510357917465" fill="#ff0000" stroke="none" /><path d="M 79.00077361379809 124.81974689727619 l -8.388240634981285 -0.07200295730145816 a29.388549658684234,29.388549658684234 0 0,0 0.008660621418036548,-0.5044377790318755 l 8.385768581964582 0.215987652302386" fill="#ff5607" stroke="none" /><path d="M 79.17382384314186 122.30363454192245 l -4.374637590654459 -0.5663844194059583 a25.41115011761251,25.41115011761251 0 0,0 0.059722838044902464,-0.4321247051944129 l 4.364270236054348 0.6413974328004381" fill="#ff1c02" stroke="none" /><path d="M 79.22317932658666 121.9465228501225 l -19.04918287964178 -2.7995738886679113 a40.25380436018162,40.25380436018162 0 0,0 0.10634385722195128,-0.6828038493007629 l 18.99831753028156 3.1261659199001244" fill="#ffe815" stroke="none" /><path d="M 79.2786578344484 121.59031103205396 l -23.297485481820306 -3.8335923703005492 a44.61078694658978,44.61078694658978 0 0,0 0.13082683123432298,-0.7545743966820844 l 23.22824383309375 4.2329597999032265" fill="#e0ff1b" stroke="none" /><path d="M 79.34024301695615 121.23510406497455 l -5.06108857453408 -0.9222989320109493 a26.14443902474001,26.14443902474001 0 0,0 0.08425195833367453,-0.44084184749063565 l 5.044510323918246 1.0090433445348994" fill="#ff2703" stroke="none" /><path d="M 79.407916724674 120.88100663000787 l -20.891627862656353 -4.178910676693642 a42.30547838457291,42.30547838457291 0 0,0 0.1485572771785083,-0.7109003496388813 l 20.81681287465348 4.536927477617932" fill="#fdff18" stroke="none" /><path d="M 79.48165901384962 120.52812308129327 l -18.86977894759396 -4.112580495362719 a40.312738693978595,40.312738693978595 0 0,0 0.15316755660207926,-0.6748845156995857 l 18.79640052943422 4.435899345001313" fill="#ffe815" stroke="none" /><path d="M 79.56144815229197 120.17655741523228 l -14.2310975959868 -3.358500283383128 a35.622026635866376,35.622026635866376 0 0,0 0.14556258172028586,-0.5939450067715762 l 14.171347487750214 3.6023011147628217" fill="#ffab0f" stroke="none" /><path d="M 79.64726062577567 119.8264132398404 l -28.399272054168293 -7.21898390168007 a50.30242962246271,50.30242962246271 0 0,0 0.21991867525819295,-0.83506703065745 l 28.271163898105375 7.705431436710304" fill="#9eff22" stroke="none" /><path d="M 79.83685265289637 119.1308016681162 l -9.625140796674474 -2.8017382076069275 a31.02462330163941,31.02462330163941 0 0,0 0.15323752854034192,-0.5100778947056716 l 9.575626948130502 2.9665537059033227" fill="#ff6d0a" stroke="none" /><path d="M 79.94057633289273 118.78553927170692 l -4.521606513652492 -1.4008052561332505 a25.733622379311132,25.733622379311132 0 0,0 0.1343482382684053,-0.42084394287369764 l 4.49689355960683 1.47821823269834" fill="#ff2103" stroke="none" /><path d="M 80.05021161711548 118.44210830539832 l -20.316385442074818 -6.678399429500365 a42.385895734593404,42.385895734593404 0 0,0 0.23315185128853574,-0.6892720199655439 l 20.198748169213918 7.026173123940071" fill="#fcff18" stroke="none" /><path d="M 80.16572619554312 118.10060997987247 l -18.20343160475962 -6.332098446565308 a40.273307783724,40.273307783724 0 0,0 0.23274103735241342,-0.6510181039755449 l 18.092050397363263 6.643651506921774" fill="#ffe815" stroke="none" /><path d="M 80.41425534168474 117.42381321644754 l -23.97891409479276 -9.275559097610305 a46.710393185222046,46.710393185222046 0 0,0 0.29570197918554303,-0.7453621543772143 l 23.816153440641084 9.685822269201102" fill="#c7ff1e" stroke="none" /><path d="M 80.5471966667186 117.08871423366112 l -11.174219539921195 -4.544457808036251 a33.06297140406866,33.06297140406866 0 0,0 0.21833236364637057,-0.5239181916451039 l 11.094561331738346 4.735608509122618" fill="#ff890c" stroke="none" /><path d="M 80.68587082218212 116.75594674310238 l -17.839151396080002 -7.614472949474111 a40.396275952629054,40.396275952629054 0 0,0 0.27770731144057087,-0.6354486755692573 l 17.705810202622455 7.919583694819235" fill="#ffe915" stroke="none" /><path d="M 80.83023694016515 116.42560881287825 l -18.324111944119082 -8.196142199310025 a41.073610175848245,41.073610175848245 0 0,0 0.2934133148030987,-0.6411610455172687 l 18.180714164460937 8.509492227041966" fill="#fff216" stroke="none" /><path d="M 80.9802524753101 116.09779779509293 l -41.52786055813635 -19.43713560581253 a66.8515587858773,66.8515587858773 0 0,0 0.49540424689501233,-1.035204339744199 l 41.18807705328143 20.147152447621814" fill="#37ff79" stroke="none" /><path d="M 81.29705330413844 115.45014215332179 l -6.8051387849619225 -3.4747523521351287 a28.64093042706591,28.64093042706591 0 0,0 0.22734342853533407,-0.4359610005711734 l 6.744487287451648 3.5910595958107887" fill="#ff4b07" stroke="none" /><line stroke="#e1ed5e" stroke-width="0.3" x1="26.387840678322718" x2="22.05771365940052" y1="82.5" y2="80.0" /><path d="M 25.521815274538284 82.0 a86.0,86.0 0 0,1 29.574782752854787,-30.34633250058573" fill="none" id="id23" stroke="none" /><text fill="#e1ed5e" style="font-size:5.4px;" text-anchor="middle"><textPath startOffset="21.40746469413373" xlink:href="#id23">November</textPath></text><path d="M 81.81346652052679 114.5 l -2.288177922820934 -1.3210801396944254 a23.64216027938885,23.64216027938885 0 0,0 0.20594155544884293,-0.3497337842765831 l 2.265162657242312 1.3601650922645814" fill="#ff0200" stroke="none" /><path d="M 81.99639281039701 114.18935116829357 l -6.312245822501773 -3.7903222508587393 a28.362811289789107,28.362811289789107 0 0,0 0.25422808108783634,-0.4152624644749489 l 6.246249776958543 3.898121831458231" fill="#ff4706" stroke="none" /><path d="M 82.18462484594161 113.88188828441811 l -7.39777992362816 -4.616761809781487 a29.720185629141888,29.720185629141888 0 0,0 0.2738252438492107,-0.4304987644950673 l 7.317436988153059 4.743074248955226" fill="#ff5a08" stroke="none" /><path d="M 82.37810715431573 113.57770195909679 l -7.333132712215793 -4.753248027662332 a29.738890214863968,29.738890214863968 0 0,0 0.28135193806252096,-0.4260026939284136 l 7.250456335232543 4.878430599929807" fill="#ff5a08" stroke="none" /><path d="M 82.576782715395 113.27688183743585 l -11.574301527735726 -7.78770661252583 a34.95037025091894,34.95037025091894 0 0,0 0.3392021028210491,-0.49490600519356603 l 11.438909688099363 7.985247352789431" fill="#ffa20f" stroke="none" /><path d="M 82.78059297857968 112.97951657250589 l -7.0876793592151826 -4.947750649651051 a29.643809067197594,29.643809067197594 0 0,0 0.2948640064856135,-0.4147631519532126 l 7.001700254199597 5.0686910283137845" fill="#ff5908" stroke="none" /><path d="M 82.98947788004972 112.6856937992154 l -10.393472302930949 -7.5240724255934595 a33.831053439892166,33.831053439892166 0 0,0 0.3445901907688017,-0.4675027742402202 l 10.262780092578328 7.701381509102543" fill="#ff930d" stroke="none" /><path d="M 83.2033758604659 112.39550010848427 l -7.262971618293475 -5.450269304972447 a30.080539203420763,30.080539203420763 0 0,0 0.31347935832309004,-0.4103545428675123 l 7.168340282616079 5.574144761080843" fill="#ff5f08" stroke="none" /><path d="M 83.42222388311158 112.10902102172516 l -6.819293683509681 -5.302724014426229 a29.638382274195074,29.638382274195074 0 0,0 0.31576671696264447,-0.3989609315975015 l 6.727260535905475 5.419004889938413" fill="#ff5908" stroke="none" /><path d="M 83.8745106332314 111.54754324733833 l -6.964574172975403 -5.810095478760083 a30.069867853678154,30.069867853678154 0 0,0 0.33406969737551273,-0.3935332635020481 l 6.863809912092775 5.9287955247116875" fill="#ff5f08" stroke="none" /><path d="M 84.10781606972428 111.27271002978789 l -9.943408485027799 -8.588879424319378 a34.139262614987935,34.139262614987935 0 0,0 0.38689365652281793,-0.44021396003401997 l 9.794503764546388 8.758305662164698" fill="#ff970e" stroke="none" /><path d="M 84.83555147118756 110.47280134310135 l -5.9363474773021565 -5.686886597642799 a29.22076033866217,29.22076033866217 0 0,0 0.35011090388650234,-0.3592446304747541 l 5.8378497722648515 5.787953920185283" fill="#ff5307" stroke="none" /><path d="M 85.08716467003674 110.21462403516908 l -5.754196006483766 -5.7050151395590305 a29.10296053449796,29.10296053449796 0 0,0 0.3547901449985664,-0.3517577688181711 l 5.655413941355223 5.802952918605874" fill="#ff5107" stroke="none" /><path d="M 85.34317274990677 109.96080404539775 l -3.13717595837437 -3.219018903409614 a25.494881054523088,25.494881054523088 0 0,0 0.3160485241944687,-0.30276733687144924 l 3.081454948314601 3.272398370586632" fill="#ff1d03" stroke="none" /><path d="M 85.86807049272753 109.46653392183569 l -5.7346892942611785 -6.3034281040941 a29.521729118271544,29.521729118271544 0 0,0 0.3777867182250378,-0.3378192129853341 l 5.625637549212748 6.400942846962835" fill="#ff5708" stroke="none" /><path d="M 86.13680546590413 109.22622945171909 l -5.945676740504975 -6.765088697869355 a30.006525245210916,30.006525245210916 0 0,0 0.3898283727575076,-0.33672446373236853 l 5.828668887984619 6.866157294066435" fill="#ff5e08" stroke="none" /><path d="M 86.96720088162412 108.53348406188908 l -5.570416201907403 -7.038038899969647 a29.975718813552398,29.975718813552398 0 0,0 0.4062281655593912,-0.31588547858807625 l 5.448778091712767 7.1326254301785275" fill="#ff5e08" stroke="none" /><path d="M 87.54013794807813 108.09580414077388 l -5.260565099452989 -7.136966878188373 a29.86621911447832,29.86621911447832 0 0,0 0.4153096728456975,-0.3006521753715861 l 5.137274416233324 7.226219824933038" fill="#ff5c08" stroke="none" /><path d="M 87.83215693770416 107.88440491214696 l -5.128640419010635 -7.214075026574232 a29.8513180395098,29.8513180395098 0 0,0 0.4201998165434393,-0.2933321063096566 l 5.00404551129343 7.301051948689015" fill="#ff5c08" stroke="none" /><path d="M 88.12776184653039 107.6780497279521 l -4.948764126353406 -7.220394755957314 a29.75353453241251,29.75353453241251 0 0,0 0.42378060099423764,-0.2851385010762412 l 4.824087237262179 7.304282931090666" fill="#ff5b08" stroke="none" /><path d="M 89.03521579738668 107.08984904055464 l -4.567805524335253 -7.461167040089526 a29.74836332740393,29.74836332740393 0 0,0 0.43782117383469743,-0.2628990352636544 l 4.439051593943121 7.538480075889104" fill="#ff5b08" stroke="none" /><line stroke="#e1ed5e" stroke-width="0.3" x1="56.869717070023135" x2="54.33264160355391" y1="51.7553504044142" y2="47.446841604673864" /><path d="M 56.362301976729285 50.89364864446614 a86.0,86.0 0 0,1 42.16139366436587,-11.88097634709845" fill="none" id="id24" stroke="none" /><text fill="#e1ed5e" style="font-size:5.4px;" text-anchor="middle"><textPath startOffset="22.145653131862474" xlink:href="#id24">December</textPath></text><path d="M 91.26138138417902 105.90454125486306 l -3.7202765178977355 -8.129475594621063 a29.940292546285093,29.940292546285093 0 0,0 0.46918804721734486,-0.2098618456892892 l 3.5801750678247717 8.192141191220198" fill="#ff5d08" stroke="none" /><path d="M 91.5904679813234 105.7573450057729 l -3.604542802832345 -8.24789933765452 a30.00114283308138,30.00114283308138 0 0,0 0.4736822222977041,-0.2021867738128622 l 3.4624255053642097 8.308560761126786" fill="#ff5e08" stroke="none" /><path d="M 91.92203290615298 105.6158196554323 l -3.4432140895625047 -8.26246035687305 a29.951199607620225,29.951199607620225 0 0,0 0.4762890233790187,-0.19370259940248366 l 3.300870604993045 8.320350212854825" fill="#ff5d08" stroke="none" /><path d="M 92.25597844496254 105.48000691201159 l -3.2404997064797936 -8.168176111411661 a29.78748765772856,29.78748765772856 0 0,0 0.4769228371980948,-0.18448399889766248 l 3.0998046067881697 8.222599998447365" fill="#ff5b08" stroke="none" /><path d="M 92.592206182469 105.34994680014964 l -3.03574291972054 -8.0526687625142 a29.605882248404598,29.605882248404598 0 0,0 0.4770929394147915,-0.17519513577890433 l 2.8970608286516213 8.103594747301827" fill="#ff5908" stroke="none" /><path d="M 93.61358852112211 104.99465700312896 l -2.6716364335027194 -8.368863076224757 a29.784959329525506,29.784959329525506 0 0,0 0.4884157021266693,-0.1513124330149606 l 2.527580098504434 8.413492097046358" fill="#ff5b08" stroke="none" /><path d="M 93.95794788825049 104.88797359093562 l -2.3024550482676385 -7.664124022762513 a29.002505625463726,29.002505625463726 0 0,0 0.4780441399095184,-0.13915168203771852 l 2.170550895976496 7.702519399102752" fill="#ff5007" stroke="none" /><path d="M 94.30408787586887 104.78721728523814 l -1.1857655004636878 -4.207863444731332 a25.37174502820054,25.37174502820054 0 0,0 0.4202268957881557,-0.11453470911306148 l 1.1133572037408543 4.227598647988534" fill="#ff1b02" stroke="none" /><path d="M 96.05791012581881 104.37332000966035 l -1.643104316789803 -8.597416095240245 a29.753019782369357,29.753019782369357 0 0,0 0.50249346137025,-0.0915710475995649 l 1.4952761218685144 8.62435531677117" fill="#ff5b08" stroke="none" /><path d="M 96.41257539226777 104.30868818359171 l -1.5234859720974543 -8.787062236415721 a29.91815408331909,29.91815408331909 0 0,0 0.5067885940267225,-0.08339187029142026 l 1.372419875017659 8.81192010520281" fill="#ff5d08" stroke="none" /><path d="M 96.76829788921471 104.25015418208739 l -1.7138149739318629 -11.003921540551499 a32.136581658457246,32.136581658457246 0 0,0 0.5458243747219166,-0.08021738658947977 l 1.5246654936022614 11.031720000439863" fill="#ff7c0b" stroke="none" /><path d="M 97.12497278360702 104.19773525538626 l -1.182926541637436 -8.55906718109089 a29.640425117628038,29.640425117628038 0 0,0 0.5046242546731997,-0.06533371269698715 l 1.0358244650734423 8.578112489988273" fill="#ff5908" stroke="none" /><path d="M 97.48249496171623 104.15144685158666 l -0.48751151717249364 -4.037294711101453 a25.06662219337666,25.06662219337666 0 0,0 0.42764146666778496,-0.04791811831486629 l 0.4181341489039094 4.04506858992329" fill="#ff1702" stroke="none" /><path d="M 98.1996594967304 104.07731436759882 l -0.43591054500313314 -5.065941292986333 a26.084661167396405,26.084661167396405 0 0,0 0.44645885639738797,-0.034558739088303744 l 0.34888269383052806 5.072677799069691" fill="#ff2603" stroke="none" /><path d="M 98.9189461498227 104.02784411241856 l -0.4080923506772522 -7.916882580390675 a28.927393591740895,28.927393591740895 0 0,0 0.4961381897479042,-0.02130630861901794 l 0.2721284003285279 7.922721457435522" fill="#ff4f07" stroke="none" /></svg>