<svg xmlns="http://www.w3.org/2000/svg" xmlns:ev="http://www.w3.org/2001/xml-events" xmlns:xlink="http://www.w3.org/1999/xlink" width="200mm" height="200mm" baseProfile="full" version="1.1" viewBox="0 0 200 200"><rect width="200" height="200" x="0" y="0" fill="#1a1a1a"/><text style="dominant-baseline:central;font-size:9px;font-family:Arial" x="100" y="100" fill="#e1ed5e" alignment-baseline="middle" text-anchor="middle">2021</text><line x1="100" x2="100" y1="15" y2="10" stroke="#e1ed5e" stroke-width=".3"/><path id="id25" fill="none" stroke="none" d="M 100.0 14.0 a86.0,86.0 0 0,1 42.46469731375804,11.215312516191453"/><text fill="#e1ed5e" text-anchor="middle" style="font-size:6.75px;font-family:Arial"><textPath startOffset="22.206" xlink:href="#id25">January</textPath></text><path fill="#ff8b0c" stroke="none" d="M 101.08401301168833 79.027996857942 l 0.6281840051819549 -12.153246121970303 a33.16947026150081,33.16947026150081 0 0,0 0.5699430328683512,0.03438052018952871 l -0.837289086889918 12.140632332400472"/><path fill="#ff870c" stroke="none" d="M 101.44485096284872 79.0497635885617 l 0.8161926021297602 -11.834734800724126 a32.86284612423351,32.86284612423351 0 0,0 0.5640043880309296,0.04377759543172702 l -1.0197871795230309 11.818931943103935"/><path fill="#ff840c" stroke="none" d="M 103.59715602781102 79.31037775812273 l 1.9957850925880634 -11.479079395603659 a32.651284131217864,32.651284131217864 0 0,0 0.5529026637769764,0.10103942774035535 l -2.1930828774679405 11.443024486512565"/><path fill="#ff890c" stroke="none" d="M 103.95276090670814 79.375362276772 l 2.2593163770011793 -11.788616331113223 a33.00316564467787,33.00316564467787 0 0,0 0.5570204999235425,0.11173307210786605 l -2.461903286391847 11.74797930292815"/><path fill="#ff8a0c" stroke="none" d="M 104.66035177308747 79.52364482259891 l 2.6723145476973085 -11.741444527938416 a33.0417102043061,33.0417102043061 0 0,0 0.5534900472439792,0.13099321163644082 l -2.874028281903811 11.693705404161108"/><path fill="#ff0e01" stroke="none" d="M 105.71112130821622 79.79150937346287 l 0.9194572378651638 -3.253449186269049 a24.380877581323727,24.380877581323727 0 0,0 0.4028763343431868,0.11761064959126724 l -0.9753237899317777 3.237140207759078"/><path fill="#ff820c" stroke="none" d="M 106.40334571778207 80.00007090966166 l 3.5107297668333177 -10.965259332636283 a32.51356312041136,32.51356312041136 0 0,0 0.5315459394925071,0.17524233907912423 l -3.6989585285682423 10.903203269297922"/><path fill="#ff920d" stroke="none" d="M 106.74666289553966 80.11325718540242 l 4.07038488899754 -11.998034983700432 a33.66968336678857,33.66968336678857 0 0,0 0.5472413738369716,0.19092176996567142 l -4.276308266897785 11.926192360562553"/><path fill="#ff880c" stroke="none" d="M 107.08798089147638 80.2323363322302 l 4.032632733871462 -11.246605881044609 a32.94773077240355,32.94773077240355 0 0,0 0.5322120287469546,0.19601818170957605 l -4.225627088390993 11.175524431528707"/><path fill="#ff870c" stroke="none" d="M 108.43124777332544 80.76684994638697 l 4.773744575977461 -10.889745885285814 a32.89013047543102,32.89013047543102 0 0,0 0.5165596741313262,0.23176526842964026 l -4.960486368575567 10.805960286339642"/><path fill="#ffad10" stroke="none" d="M 108.76106565485865 80.91482961587045 l 6.1082577596544905 -13.306273995165977 a35.64130255451371,35.64130255451371 0 0,0 0.555362417785723,0.26075010174741053 l -6.336398388739812 13.199158910778563"/><path fill="#ff8c0c" stroke="none" d="M 109.08828744355905 81.06846463323043 l 5.292514849056125 -11.024676834475395 a33.229235983171556,33.229235983171556 0 0,0 0.513516278658573,0.25198020776104924 l -5.48150239472513 10.931941466579513"/><path fill="#ff9a0e" stroke="none" d="M 109.41281617654863 81.2277094730956 l 5.928660987598058 -11.823724633229036 a34.2268471416394,34.2268471416394 0 0,0 0.5243871005107265,0.2686114401870785 l -6.13130857569754 11.719920667729456"/><path fill="#ffa00e" stroke="none" d="M 109.73455568895987 81.39251694778311 l 6.340697752360144 -12.120165494566885 a34.678554733687136,34.678554733687136 0 0,0 0.5265442360035822,0.28126169549143887 l -6.548387034892038 12.009225072573692"/><line x1="143.237" x2="145.78" y1="26.818" y2="22.514" stroke="#e1ed5e" stroke-width=".3"/><path id="id26" fill="none" stroke="none" d="M 143.74570117128098 25.957352633546492 a86.0,86.0 0 0,1 28.547481713284135,27.462654790039103"/><text fill="#e1ed5e" text-anchor="middle" style="font-size:6.75px;font-family:Arial"><textPath startOffset="19.986" xlink:href="#id26">February</textPath></text><path fill="#ff8a0c" stroke="none" d="M 110.68208982089419 81.91981866633111 l 6.145425337056901 -10.401560586878773 a33.081337476283444,33.081337476283444 0 0,0 0.48777318966254474,0.2938778890402131 l -6.323560592937083 10.294236088379945"/><path fill="#ff870c" stroke="none" d="M 110.99172775467656 82.1063720568725 l 6.218492829285437 -10.123194418356858 a32.88060260675888,32.88060260675888 0 0,0 0.47971366176997887,0.3003966509913448 l -6.39182564342768 10.01465342604257"/><path fill="red" stroke="none" d="M 111.2981086023043 82.29822771554956 l 1.307257368903708 -2.048198780527177 a23.429823053867516,23.429823053867516 0 0,0 0.3380956650172149,0.21990682526996097 l -1.342320059705203 2.0253930310976878"/><path fill="#ff2503" stroke="none" d="M 112.19680574252982 82.90503203632743 l 2.8775701397119873 -4.033184621451059 a25.95449170951687,25.95449170951687 0 0,0 0.3614529839097605,0.2626109646848768 l -2.9465684399755365 3.9830544219495074"/><path fill="#ff2903" stroke="none" d="M 112.48926042617603 83.11751280151076 l 3.0775413465950776 -4.160098405652419 a26.174715401325376,26.174715401325376 0 0,0 0.3599071307815425,0.27107458924733646 l -3.1486946311350033 4.106507226899235"/><path fill="#ff3004" stroke="none" d="M 114.16331599549186 84.49514656593476 l 3.8503484914738695 -4.215050278436109 a26.70892567437512,26.70892567437512 0 0,0 0.33677680718494934,0.3129973390160479 l -3.9223331824536656 4.14814835334542"/><path fill="#ff5d08" stroke="none" d="M 116.15771136456269 86.58626213691792 l 6.80455931723924 -5.648979171358667 a29.84381100998158,29.84381100998158 0 0,0 0.32473122942702204,0.39808209062475675 l -6.900789038742671 5.531012911125809"/><path fill="#ff940d" stroke="none" d="M 116.38621287248628 86.86637796730983 l 9.998126612974248 -8.013542664898909 a33.813251024280255,33.813251024280255 0 0,0 0.3601045530205831,0.457296213146229 l -10.134585246588795 7.8402540577996405"/><path fill="#ff890c" stroke="none" d="M 116.60985879189232 87.15038557335679 l 9.46833200841482 -7.324831420659767 a32.97090081667446,32.97090081667446 0 0,0 0.3434061562424347,0.45188224799787485 l -9.593014104881368 7.160764396780858"/><path fill="#ff850c" stroke="none" d="M 116.82858285166822 87.43820079747576 l 9.378185562827115 -7.000404309895167 a32.70282123903539,32.70282123903539 0 0,0 0.332848360717396,0.45400478995601673 l -9.497296536058137 6.837937076267656"/><path fill="#ff8e0d" stroke="none" d="M 117.04232023915458 87.72973835380427 l 10.061574146473406 -7.244210038148634 a33.39813910963236,33.39813910963236 0 0,0 0.3318938168673646,0.4694402668283711 l -10.184780583144654 7.06994327098847"/><path fill="#ff890c" stroke="none" d="M 117.2510076193507 88.02491185347247 l 9.88913644151185 -6.864716728042304 a33.03824552478896,33.03824552478896 0 0,0 0.3202751660036425,0.4699642862306003 l -10.005836073184225 6.693474418541298"/><path fill="#ff6309" stroke="none" d="M 117.45458315368197 88.32363383020206 l 7.6768464740079985 -5.135480444912883 a30.236185965298212,30.236185965298212 0 0,0 0.28566481092660256,0.435087105377376 l -7.764107920292526 5.002575275557833"/><line x1="172.234" x2="176.484" y1="55.198" y2="52.563" stroke="#e1ed5e" stroke-width=".3"/><path id="id27" fill="none" stroke="none" d="M 173.08426987136738 54.67131705675599 a86.0,86.0 0 0,1 12.851231095245387,41.99856678651699"/><text fill="#e1ed5e" text-anchor="middle" style="font-size:6.75px;font-family:Arial"><textPath startOffset="22.206" xlink:href="#id27">March</textPath></text><path fill="#ff870c" stroke="none" d="M 117.84615892207809 88.93136811851018 l 10.05935083299911 -6.239059722788785 a32.837077570324745,32.837077570324745 0 0,0 0.293788957424467,0.4829117994007234 l -10.165255588709801 6.064980150180981"/><path fill="#ff840c" stroke="none" d="M 118.03404312379186 89.2402003453031 l 10.012397398787378 -5.973779109579328 a32.65907966013144,32.65907966013144 0 0,0 0.28388566822190026,0.4852526298826265 l -10.113742741479605 5.800547067342807"/><path fill="#ff8b0c" stroke="none" d="M 118.21658344932153 89.55222093294921 l 10.51591062546437 -6.031202898686012 a33.12269708801936,33.12269708801936 0 0,0 0.27940155661561955,0.49702419275569915 l -10.618169823372423 5.849295195995519"/><path fill="#ff800b" stroke="none" d="M 118.3937258080291 89.86733742301442 l 9.90558807487002 -5.45675099416005 a32.30914702889983,32.30914702889983 0 0,0 0.26415327933437627,0.48943590867622033 l -9.99804945342286 5.285434102151371"/><path fill="#ff850c" stroke="none" d="M 118.56541770881063 90.18545643968196 l 10.3757569472306 -5.485107856288094 a32.736385321857725,32.736385321857725 0 0,0 0.2590704015680182,0.5004415553767805 l -10.468636781958734 5.305693578650969"/><path fill="#3aff94" stroke="none" d="M 118.73160827565052 90.50648371742162 l 42.940165850063515 -21.762849066415118 a69.14020609343635,69.14020609343635 0 0,0 0.5288896100594432,1.0662091805983733 l -43.308415473076366 21.020480297317793"/><path fill="#ff5808" stroke="none" d="M 118.89224826269711 90.83032412892265 l 7.651680031988658 -3.7138737955857226 a29.50535512965051,29.50535512965051 0 0,0 0.2178363595543533,0.45881892841936484 l -7.714474585384767 3.5816124515258174"/><path fill="#ff8c0c" stroke="none" d="M 119.04729006885535 91.15688171328212 l 11.112315878911836 -5.159134102612852 a33.25153985756317,33.25153985756317 0 0,0 0.2365572862914694,0.5212226234867013 l -11.199475482166653 4.967089470284088"/><path fill="#ff810b" stroke="none" d="M 119.196687751892 91.48605970444005 l 10.463704504627447 -4.640767020550165 a32.44665149723651,32.44665149723651 0 0,0 0.2220421549833228,0.512503907473035 l -10.542037369453451 4.459963968490528"/><path fill="#b1ff20" stroke="none" d="M 119.7369772167798 92.82701384747503 l 25.90061046260619 -9.413028051340543 a48.558060879368654,48.558060879368654 0 0,0 0.2787392686122667,0.7880334478004661 l -26.05880281202826 8.965796977113461"/><path fill="#40ffca" stroke="none" d="M 119.85752413597 93.16781622104841 l 50.18404016207214 -17.26633102948087 a74.07131121621251,74.07131121621251 0 0,0 0.40443890466306515,1.2092208469871302 l -50.47381636050697 16.399937079571426"/><path fill="#ff900d" stroke="none" d="M 119.97218684219823 93.5106431181261 l 11.886889065067633 -3.862284384176032 a33.49861481562955,33.49861481562955 0 0,0 0.1734662220267065,0.5499353277444656 l -11.951610770862546 3.6570988900051473"/><path fill="#ff0f01" stroke="none" d="M 120.08093135843002 93.85539295169968 l 3.284679250475453 -1.0050860148677503 a24.435013198779114,24.435013198779114 0 0,0 0.1196083457539149,0.40325988138845303 l -3.30149349334107 0.9483967467327673"/><path fill="#ff890c" stroke="none" d="M 120.18372546131832 94.20196356495316 l 11.531188741004977 -3.312483247351003 a32.99753554046251,32.99753554046251 0 0,0 0.15212371328682783,0.5472699354178332 l -11.586499224858168 3.113502008514218"/><path fill="#ff870c" stroke="none" d="M 120.28053869075195 94.5502522615342 l 11.444713348593318 -3.0754015778351693 a32.8507197459235,32.8507197459235 0 0,0 0.14204599303002532,0.5473611553519806 l -11.495955673493645 2.8779439969343383"/><path fill="#ff920d" stroke="none" d="M 120.37134235888165 94.90015583598534 l 12.255952889250041 -3.0682047709747295 a33.63417040173784,33.63417040173784 0 0,0 0.13576544954789269,0.5628354380978459 l -12.306951139058754 2.8567841012174777"/><path fill="#ff870c" stroke="none" d="M 120.6074358757038 95.95851677861258 l 11.60050120294245 -2.2750637805769918 a32.82148651249759,32.82148651249759 0 0,0 0.10395701978957593,0.5553425565789147 l -11.637943946641885 2.075043146535514"/><path fill="#ff960d" stroke="none" d="M 120.67395015179393 96.31383870115 l 12.748187426897434 -2.2729993435452767 a33.94923969532818,33.94923969532818 0 0,0 0.09762530419069618,0.576190071585098 l -12.785424592608354 2.0532234836443406"/><path fill="#ff870c" stroke="none" d="M 120.78858239683441 97.02765380044208 l 11.767211092045965 -1.6824728353850886 a32.8868823383837,32.8868823383837 0 0,0 0.0753015657782701,0.5610841299295438 l -11.794428656882072 1.4796703633908805"/><path fill="#ff5608" stroke="none" d="M 120.83666639777658 97.38593545837742 l 8.271183108815759 -1.037661498690118 a29.336018918250062,29.336018918250062 0 0,0 0.058545818911614166,0.5015848231056317 l -8.287819280730961 0.8951329372596335"/><path fill="#4dd2ff" stroke="none" d="M 120.87857604477298 97.74499172005257 l 62.63572813431897 -6.7650248398422885 a84.0,84.0 0 0,0 0.1428914972710853,1.43889787718226 l -62.74289675727228 5.6858514319555935"/><path fill="#ff960d" stroke="none" d="M 120.94382443527127 98.46500227214037 l 12.925398291558814 -0.9473177676093611 a33.96006681881926,33.96006681881926 0 0,0 0.03771088988882972,0.5833707753452527 l -12.939789772452059 0.7246879280110732"/><path fill="#ff0901" stroke="none" d="M 120.96714384426684 98.82574320788733 l 3.009122707652261 -0.168524754921606 a24.013838094976215,24.013838094976215 0 0,0 0.0195614343938119,0.4129109630214006 l -3.011577750279569 0.11670268527720563"/><path fill="#ff870c" stroke="none" d="M 120.98425023603335 99.18683210126433 l 11.866715546833749 -0.45985117588536506 a32.87562212995298,32.87562212995298 0 0,0 0.017045705652937376,0.5656639855965404 l -11.872872946942332 0.2555170428638256"/><line x1="184.98" x2="189.979" y1="98.171" y2="98.064" stroke="#e1ed5e" stroke-width=".3"/><path id="id28" fill="none" stroke="none" d="M 185.9800911702706 98.14961562048488 a86.0,86.0 0 0,1 -9.607161424134198,41.387399972396054"/><text fill="#e1ed5e" text-anchor="middle" style="font-size:6.75px;font-family:Arial"><textPath startOffset="21.466" xlink:href="#id28">April</textPath></text><path fill="#ff8e0d" stroke="none" d="M 120.99513854157772 99.54816195383933 l 12.384227855601342 -0.2665219525178198 a33.387095443671456,33.387095443671456 0 0,0 0.007419873180750772,0.5746773548362838 l -12.38698073589981 0.053308339621073245"/><path fill="#ff780b" stroke="none" d="M 120.9904718944345 100.63252640178507 l 10.763338188121503 0.3243421877110566 a31.76822393928562,31.76822393928562 0 0,0 -0.02117558944073078,0.5464478718487764 l -10.75616046582957 -0.5095673065738392"/><path fill="#ff830c" stroke="none" d="M 120.95626037817324 101.35467743843564 l 11.549655642745515 0.7466054362077034 a32.57376192702175,32.57376192702175 0 0,0 -0.04098623273145191,0.5592245819071463 l -11.535092851349726 -0.9453031546116198"/><path fill="#ff860c" stroke="none" d="M 120.92983693683757 101.71520430193887 l 11.738178511676029 0.9619460648887032 a32.77752839112382,32.77752839112382 0 0,0 -0.05092286175238286,0.5619295361039145 l -11.71988105364657 -1.1638569895411883"/><path fill="#ff810b" stroke="none" d="M 120.89721153311464 102.0752229133903 l 11.38911532128621 1.1310098976853769 a32.445135699947755,32.445135699947755 0 0,0 -0.05997359501704905,0.5552810051194422 l -11.36795942476811 -1.3268872246896104"/><path fill="#ff860c" stroke="none" d="M 120.8583938346157 102.4346265915055 l 11.683485146116256 1.3637159142612545 a32.76280350317596,32.76280350317596 0 0,0 -0.07020365288023787,0.5595921874457123 l -11.658279983989171 -1.5646258559943615"/><path fill="#37ff2e" stroke="none" d="M 120.81339534386255 102.79330883721812 l 38.5656185166501 5.175786133669314 a59.91138257211209,59.91138257211209 0 0,0 -0.14597251162902697,1.0209314063497286 l -38.47081195400447 -5.838863011999452"/><path fill="#ff820c" stroke="none" d="M 120.70491114924044 103.5080841355445 l 11.328077797187852 1.919344145941261 a32.48952690626117,32.48952690626117 0 0,0 -0.09817028899613918,0.5505911154041401 l -11.293361065852523 -2.1140540120786193"/><path fill="#ff8c0c" stroke="none" d="M 120.64145759157962 103.86396538481128 l 12.024059129123067 2.250836601714042 a33.23291720515852,33.23291720515852 0 0,0 -0.11009601320843254,0.5613771994294049 l -11.98353318293897 -2.4574775282113923"/><path fill="#ff7d0b" stroke="none" d="M 120.5718875245553 104.21870165774334 l 10.888316482813046 2.2328801254259467 a32.11490843346991,32.11490843346991 0 0,0 -0.11571454370928524,0.5405798248546066 l -10.848267900379318 -2.4199737696967225"/><path fill="#ff850c" stroke="none" d="M 120.49622156327973 104.57218783832717 l 11.443845818189308 2.55283211649883 a32.72512511342701,32.72512511342701 0 0,0 -0.12737777174397033,0.5487401068870119 l -11.398207480514785 -2.749440880734407"/><path fill="#ff5808" stroke="none" d="M 120.32669344350535 105.2749913415812 l 8.190315461116 2.1254732483806804 a29.461613550746556,29.461613550746556 0 0,0 -0.13161193529860465,0.48977697208779775 l -8.152515449475619 -2.2661411536440266"/><path fill="#38ff7d" stroke="none" d="M 120.23288151984713 105.62410040840565 l 44.47185077016004 12.36176635708893 a67.15797632468997,67.15797632468997 0 0,0 -0.31918383471586054,1.1111208016311331 l -44.25247429855808 -13.125444634224646"/><path fill="#f8ff18" stroke="none" d="M 119.79798401119884 107.00284435728193 l 20.41478264415421 7.221015299531776 a42.65424698215415,42.65424698215415 0 0,0 -0.25079831749462195,0.6900892561538788 l -20.287460065654365 -7.571352352691786"/><path fill="#d7ff1c" stroke="none" d="M 119.67450827220406 107.3425965602758 l 22.815074715234243 8.514667142313655 a45.352149613660735,45.352149613660735 0 0,0 -0.27925201798940313,0.7290389001442478 l -22.66512841765133 -8.906129609291048"/><path fill="#ff8a0c" stroke="none" d="M 119.54520255179757 107.68017299344265 l 11.264342492739136 4.426257480440746 a33.102775180795774,33.102775180795774 0 0,0 -0.21295706608337056,0.5285419735370498 l -11.186482812398372 -4.61949882182061"/><path fill="#baff1f" stroke="none" d="M 119.41010516605496 108.01547362559984 l 24.75532959960447 10.222803524304133 a47.78305537987737,47.78305537987737 0 0,0 -0.32048554599472817,0.7575331608316976 l -24.57569307241743 -10.647411210801994"/><path fill="#ff3104" stroke="none" d="M 119.12269723197855 108.67885076344098 l 5.2297293148995125 2.373516649173513 a26.743139384606923,26.743139384606923 0 0,0 -0.1938564114155993,0.4175494639132273 l -5.188098286644082 -2.4631861803655712"/><line x1="174.801" x2="179.201" y1="140.371" y2="142.746" stroke="#e1ed5e" stroke-width=".3"/><path id="id29" fill="none" stroke="none" d="M 175.68104954172406 140.8457921977663 a86.0,86.0 0 0,1 -30.038265399797805,32.042727171017184"/><text fill="#e1ed5e" text-anchor="middle" style="font-size:6.75px;font-family:Arial"><textPath startOffset="22.206" xlink:href="#id29">May</textPath></text><path fill="#f3ff19" stroke="none" d="M 118.48025628344425 109.97397251340804 l 19.351179077125003 10.444017943094776 a42.98967126790772,42.98967126790772 0 0,0 -0.3570672770975114,0.6481808251336378 l -19.168535390575983 -10.775569286626219"/><path fill="#ff8e0d" stroke="none" d="M 118.30583269289576 110.29060199501025 l 10.794134139919617 6.067909620837564 a33.38276459427503,33.38276459427503 0 0,0 -0.2858963607235897,0.4984844031975402 l -10.688085783043649 -6.252813869893419"/><path fill="#38ff83" stroke="none" d="M 118.12598468904814 110.60418214915192 l 40.30797432497948 23.581234848095182 a67.699115956774,67.699115956774 0 0,0 -0.5971033796913263,1.000779609684893 l -39.896090069589924 -24.27157655166618"/><path fill="#ff7a0b" stroke="none" d="M 117.55443506779139 111.5257021239791 l 9.098998964232711 5.974122851754929 a31.884940330519427,31.884940330519427 0 0,0 -0.30517971383804104,0.45620226486055176 l -8.994816144983949 -6.129862030821288"/><line x1="143.865" x2="146.446" y1="172.807" y2="177.09" stroke="#e1ed5e" stroke-width=".3"/><path id="id30" fill="none" stroke="none" d="M 144.38136562736335 173.6633856474863 a86.0,86.0 0 0,1 -40.68145358897372,12.25698825130547"/><text fill="#e1ed5e" text-anchor="middle" style="font-size:6.75px;font-family:Arial"><textPath startOffset="21.466" xlink:href="#id30">June</textPath></text><line x1="102.195" x2="102.324" y1="184.972" y2="189.97" stroke="#e1ed5e" stroke-width=".3"/><path id="id31" fill="none" stroke="none" d="M 102.22038585953345 185.97133177190398 a86.0,86.0 0 0,1 -42.740103519485714,-10.115201625700543"/><text fill="#e1ed5e" text-anchor="middle" style="font-size:6.75px;font-family:Arial"><textPath startOffset="22.206" xlink:href="#id31">July</textPath></text><line x1="58.667" x2="56.235" y1="174.274" y2="178.643" stroke="#e1ed5e" stroke-width=".3"/><path id="id32" fill="none" stroke="none" d="M 58.180547188652646 175.14741091055294 a86.0,86.0 0 0,1 -31.652253787137756,-30.449443065178592"/><text fill="#e1ed5e" text-anchor="middle" style="font-size:6.75px;font-family:Arial"><textPath startOffset="22.206" xlink:href="#id32">August</textPath></text><line x1="26.633" x2="22.317" y1="142.922" y2="145.446" stroke="#e1ed5e" stroke-width=".3"/><path id="id33" fill="none" stroke="none" d="M 25.769776987707644 143.4266507060508 a86.0,86.0 0 0,1 -11.730757126820373,-40.83630448921669"/><text fill="#e1ed5e" text-anchor="middle" style="font-size:6.75px;font-family:Arial"><textPath startOffset="21.466" xlink:href="#id33">September</textPath></text><line x1="15.007" x2="10.008" y1="101.097" y2="101.162" stroke="#e1ed5e" stroke-width=".3"/><path id="id34" fill="none" stroke="none" d="M 14.007167355692545 101.11028546245083 a86.0,86.0 0 0,1 10.666146001902534,-42.60595125391555"/><text fill="#e1ed5e" text-anchor="middle" style="font-size:6.75px;font-family:Arial"><textPath startOffset="22.206" xlink:href="#id34">October</textPath></text><line x1="26.266" x2="21.929" y1="57.711" y2="55.224" stroke="#e1ed5e" stroke-width=".3"/><path id="id35" fill="none" stroke="none" d="M 25.398753493254645 57.213857153982495 a86.0,86.0 0 0,1 29.58750427330803,-30.492523968695096"/><text fill="#e1ed5e" text-anchor="middle" style="font-size:6.75px;font-family:Arial"><textPath startOffset="21.466" xlink:href="#id35">November</textPath></text><line x1="56.763" x2="54.22" y1="26.818" y2="22.514" stroke="#e1ed5e" stroke-width=".3"/><path id="id36" fill="none" stroke="none" d="M 56.25429882871897 25.957352633546506 a86.0,86.0 0 0,1 42.265352541879196,-11.944610805530505"/><text fill="#e1ed5e" text-anchor="middle" style="font-size:6.75px;font-family:Arial"><textPath startOffset="22.206" xlink:href="#id36">December</textPath></text></svg>