<?xml version="1.0" encoding="utf-8" ?>
<svg baseProfile="full" height="250mm" version="1.1" viewBox="0,0,200,250" width="200mm" xmlns="http://www.w3.org/2000/svg" xmlns:ev="http://www.w3.org/2001/xml-events" xmlns:xlink="http://www.w3.org/1999/xlink"><defs /><rect fill="#1a1a1a" height="250" width="200" x="0" y="0" /><text alignment-baseline="middle" fill="#e1ed5e" style="dominant-baseline: central; font-size:7.2px; " text-anchor="middle" x="100.0" y="125.0">2021</text><line stroke="#e1ed5e" stroke-width="0.3" x1="100.0" x2="100.0" y1="40.0" y2="35.0" /><path d="M 100.0 39.0 a86.0,86.0 0 0,1 42.46469731375804,11.215312516191453" fill="none" id="id25" stroke="none" /><text fill="#e1ed5e" style="font-size:5.4px;" text-anchor="middle"><textPath startOffset="22.20632615414155" xlink:href="#id25">January</textPath></text><path d="M 101.08401301168833 104.027996857942 l 0.4290300851147971 -8.300288092530659 a29.31136867386713,29.31136867386713 0 0,0 0.5036502008564284,0.030381555524698064 l -0.5718423348108375 8.291673267625656" fill="#ff6008" stroke="none" /><path d="M 101.44485096284872 104.0497635885617 l 0.5572444159919415 -8.080004480854825 a29.099197105256067,29.099197105256067 0 0,0 0.4994112437339642,0.03876392426408241 l -0.6962458490882469 8.069215294402278" fill="#ff5d08" stroke="none" /><path d="M 103.59715602781102 104.31037775812273 l 1.360831486548977 -7.827041466612109 a28.944459733351824,28.944459733351824 0 0,0 0.4901329094390732,0.08956865634927616 l -1.495359517090951 7.802457328912094" fill="#ff5b08" stroke="none" /><path d="M 103.95276090670814 104.375362276772 l 1.5423715477284614 -8.047755773067028 a29.194222536285913,29.194222536285913 0 0,0 0.49273395792150393,0.09883779655864466 l -1.6806719151170906 8.020014020431175" fill="#ff5f08" stroke="none" /><path d="M 104.66035177308747 104.52364482259891 l 1.8204290272330188 -7.998484481822481 a29.20303089407492,29.20303089407492 0 0,0 0.48918735892558074,0.11577484284801146 l -1.957840073121123 7.965963726833601" fill="#ff5f08" stroke="none" /><path d="M 105.71112130821622 104.79150937346287 l 0.6223750550411321 -2.202240118397619 a23.2884956299319,23.2884956299319 0 0,0 0.3848255141948375,0.11234112020388441 l -0.6601907869593967 2.1912006692750308" fill="#ff0a01" stroke="none" /><path d="M 106.40334571778207 105.00007090966166 l 2.396467184612201 -7.485020467732615 a28.859299356132155,28.859299356132155 0 0,0 0.4718044384289767,0.15554650545754387 l -2.524954445283595 7.442660238015835" fill="#ff5a08" stroke="none" /><path d="M 106.74666289553966 105.11325718540242 l 2.7722171331984233 -8.171501971824588 a29.628941552075318,29.628941552075318 0 0,0 0.48156623582289265,0.16800900387769807 l -2.91246537308459 8.122572114774682" fill="#ff6509" stroke="none" /><path d="M 107.08798089147638 105.2323363322302 l 2.7545152482146626 -7.682065150588919 a29.160972934064898,29.160972934064898 0 0,0 0.4710436865191591,0.1734893650462038 l -2.886341260506398 7.63351251773639" fill="#ff5e08" stroke="none" /><path d="M 108.43124777332544 105.76684994638697 l 3.2586867169439273 -7.4336340586487255 a29.11652354380181,29.11652354380181 0 0,0 0.4572928625156586,0.20517397764378228 l -3.3861616979263665 7.376439750488412" fill="#ff5d08" stroke="none" /><path d="M 108.76106565485865 105.91482961587045 l 4.161902878350394 -9.066320089892994 a30.97595085900179,30.97595085900179 0 0,0 0.48266695460849146,0.22661860704595982 l -4.317348044258483 8.99333650020703" fill="#ff770b" stroke="none" /><path d="M 109.08828744355905 106.06846463323043 l 3.6133318785357997 -7.526821821514487 a29.349204393070618,29.349204393070618 0 0,0 0.453555243615956,0.22255758827355315 l -3.7423583891621877 7.463509073106102" fill="#ff6108" stroke="none" /><path d="M 109.41281617654863 106.2277094730956 l 4.044861873189265 -8.066801773297689 a30.024089894435832,30.024089894435832 0 0,0 0.4599969544393884,0.23562830644249722 l -4.183119315217408 7.995980941542691" fill="#ff6a09" stroke="none" /><path d="M 109.73455568895987 106.39251694778311 l 4.31631618247549 -8.25058510934503 a30.311430611546527,30.311430611546527 0 0,0 0.4602357046335711,0.24584197444344374 l -4.457696933637373 8.175064408399832" fill="#ff6e0a" stroke="none" /><line stroke="#e1ed5e" stroke-width="0.3" x1="143.23703022742887" x2="145.7803849466894" y1="51.81831364943548" y2="47.513508569990506" /><path d="M 143.74570117128098 50.95735263354649 a86.0,86.0 0 0,1 28.547481713284135,27.462654790039103" fill="none" id="id26" stroke="none" /><text fill="#e1ed5e" style="font-size:5.4px;" text-anchor="middle"><textPath startOffset="19.985693538727396" xlink:href="#id26">February</textPath></text><path d="M 110.68208982089419 106.91981866633111 l 4.185556318911419 -7.084345712969048 a29.228416365233485,29.228416365233485 0 0,0 0.43096316433626125,0.2596504844328392 l -4.306881549465318 7.011248619077594" fill="#ff5f08" stroke="none" /><path d="M 110.99172775467656 107.1063720568725 l 4.233665151801968 -6.892058350871883 a29.088534411709283,29.088534411709283 0 0,0 0.42438903949086093,0.2657523775956518 l -4.351673343665092 6.818161631953287" fill="#ff5d08" stroke="none" /><path d="M 111.2981086023043 107.29822771554956 l 0.8913970860461956 -1.3966327274455637 a22.65685598057999,22.65685598057999 0 0,0 0.32694164067487497,0.21265193756833087 l -0.9153057525053506 1.3810818657177046" fill="#ff0100" stroke="none" /><path d="M 112.19680574252982 107.90503203632743 l 1.9687359209105264 -2.7593681663340295 a24.389695237578305,24.389695237578305 0 0,0 0.3396609811873081,0.24677814793660666 l -2.015942218451623 2.725070783580748" fill="#ff1a02" stroke="none" /><path d="M 112.48926042617603 108.11751280151076 l 2.105351347398402 -2.8459305001183615 a24.540031738204647,24.540031738204647 0 0,0 0.33742993101418794,0.2541452283837855 l -2.154027432170973 2.8092686822287285" fill="#ff1c02" stroke="none" /><path d="M 114.16331599549186 109.49514656593476 l 2.641923182994878 -2.8921639360043225 a24.917189086267065,24.917189086267065 0 0,0 0.3141845346684097,0.29200028390673066 l -2.6913156014581348 2.8462590660229514" fill="#ff2203" stroke="none" /><path d="M 116.15771136456269 111.58626213691792 l 4.623508713069218 -3.8383241590022643 a27.00912349427164,27.00912349427164 0 0,0 0.2938869260064554,0.3602706217026311 l -4.688894131152082 3.7581693676915324" fill="#ff4006" stroke="none" /><path d="M 116.38621287248628 111.86637796730983 l 6.83143803509179 -5.475427775217576 a29.754933177867372,29.754933177867372 0 0,0 0.31688425654425295,0.40241082571111547 l -6.924676372230007 5.357024555553422" fill="#ff6609" stroke="none" /><path d="M 116.60985879189232 112.15038557335679 l 6.441585739298858 -4.9832990203719705 a29.14415716714619,29.14415716714619 0 0,0 0.30354897020689114,0.39943486318193155 l -6.526410649729862 4.871679381309005" fill="#ff5e08" stroke="none" /><path d="M 116.82858285166822 112.43820079747576 l 6.403026752735301 -4.779578712314351 a28.990189250790777,28.990189250790777 0 0,0 0.295061300628551,0.4024632824607845 l -6.4843506658774785 4.668652986182073" fill="#ff5c08" stroke="none" /><path d="M 117.04232023915458 112.72973835380427 l 6.872312406285057 -4.94798068315713 a29.468246019718347,29.468246019718347 0 0,0 0.2928405267061751,0.4142021574630462 l -6.956465552795115 4.828952025362291" fill="#ff6209" stroke="none" /><path d="M 117.2510076193507 113.02491185347247 l 6.7496020145774285 -4.685354088411603 a29.216426856546768,29.216426856546768 0 0,0 0.2832261765986608,0.4155994658839636 l -6.829252656844822 4.568476599257233" fill="#ff5f08" stroke="none" /><path d="M 117.45458315368197 113.32363383020206 l 5.233598952361925 -3.5010528303999027 a27.29666013974194,27.29666013974194 0 0,0 0.25789281977219125,0.39278845752241315 l -5.293088407492041 3.410446308899816" fill="#ff4406" stroke="none" /><line stroke="#e1ed5e" stroke-width="0.3" x1="172.23445277983987" x2="176.4835382374775" y1="80.19839476539836" y2="77.56300622218649" /><path d="M 173.08426987136738 79.67131705675598 a86.0,86.0 0 0,1 12.851231095245387,41.99856678651699" fill="none" id="id27" stroke="none" /><text fill="#e1ed5e" style="font-size:5.4px;" text-anchor="middle"><textPath startOffset="22.20632615414155" xlink:href="#id27">March</textPath></text><path d="M 117.84615892207809 113.93136811851018 l 6.861755932878646 -4.255831790655067 a29.074391538236526,29.074391538236526 0 0,0 0.2601247068797779,0.42757662292394166 l -6.933996438044647 4.137087394524045" fill="#ff5d08" stroke="none" /><path d="M 118.03404312379186 114.2402003453031 l 6.843190806326027 -4.082909282710529 a28.968651618851766,28.968651618851766 0 0,0 0.2518070046028991,0.43041979530616237 l -6.912457485399253 3.9645100750504714" fill="#ff5b08" stroke="none" /><path d="M 118.21658344932153 114.55222093294921 l 7.1799583122628965 -4.117930146772474 a29.277025435476844,29.277025435476844 0 0,0 0.2469619686467525,0.43931778546558214 l -7.249777922202083 3.9937288513720977" fill="#ff6008" stroke="none" /><path d="M 118.3937258080291 114.86733742301442 l 6.762557952248654 -3.725331050522411 a28.72076948843235,28.72076948843235 0 0,0 0.23481540501796522,0.43507728321882005 l -6.825681456485084 3.608372783971132" fill="#ff5808" stroke="none" /><path d="M 118.56541770881063 115.18545643968196 l 7.083576314503504 -3.7447080045249157 a29.01248347533697,29.01248347533697 0 0,0 0.22960005115233376,0.44351421859781703 l -7.146985798815955 3.622221063666754" fill="#ff5c08" stroke="none" /><path d="M 118.73160827565052 115.50648371742162 l 29.33367406947992 -14.866834086449206 a53.88597254405724,53.88597254405724 0 0,0 0.41220199673668384,0.8309740725143707 l -29.585236079170013 14.359700425435886" fill="#71ff27" stroke="none" /><path d="M 118.89224826269711 115.83032412892265 l 5.233709274679577 -2.5402703259528105 a26.817618593615727,26.817618593615727 0 0,0 0.19799295350557544,0.41702365458116575 l -5.276660422026909 2.4498042557311046" fill="#ff3d05" stroke="none" /><path d="M 119.04729006885535 116.15688171328212 l 7.592294277018022 -3.5248875885511377 a29.37064901311496,29.37064901311496 0 0,0 0.20894794818295878,0.4603891067210492 l -7.651844542164327 3.3936764729880258" fill="#ff6108" stroke="none" /><path d="M 119.196687751892 116.48605970444005 l 7.143370157184499 -3.1681625399860605 a28.814409195986926,28.814409195986926 0 0,0 0.19718563294561017,0.45513162754954867 l -7.19684649997279 3.044731767849909" fill="#ff5908" stroke="none" /><path d="M 119.7369772167798 117.82701384747503 l 17.696515873968384 -6.431423713860068 a39.82896399340167,39.82896399340167 0 0,0 0.22863137637817127,0.6463716888533426 l -17.804600331156365 6.125854398580111" fill="#ffeb16" stroke="none" /><path d="M 119.85752413597 118.16781622104841 l 34.29995919566387 -11.801250912787507 a57.2733610784936,57.2733610784936 0 0,0 0.3127199321926976,0.9349927935118987 l -34.498016421628336 11.209085016353296" fill="#4eff2b" stroke="none" /><path d="M 119.97218684219823 118.5106431181261 l 8.074110612883075 -2.6234375676888546 a29.489622303767838,29.489622303767838 0 0,0 0.15270641482293099,0.48412106577960573 l -8.118072511474214 2.4840663354828294" fill="#ff6309" stroke="none" /><path d="M 120.08093135843002 118.85539295169968 l 2.2381899219422485 -0.6848685115408066 a23.34062790822975,23.34062790822975 0 0,0 0.11425137650838295,0.385198844184583 l -2.249647195562334 0.6462402806096937" fill="#ff0b01" stroke="none" /><path d="M 120.18372546131832 119.20196356495316 l 7.854127190702937 -2.2561997141935644 a29.17176548109809,29.17176548109809 0 0,0 0.13448632497646662,0.48381886554188885 l -7.891800286245767 2.1206695452327233" fill="#ff5e08" stroke="none" /><path d="M 120.28053869075195 119.5502522615342 l 7.821230587451385 -2.101706190152601 a29.09869229022877,29.09869229022877 0 0,0 0.12582228560619596,0.48484459258119783 l -7.856249204927884 1.9667651720225527" fill="#ff5d08" stroke="none" /><path d="M 120.37134235888165 119.90015583598534 l 8.347357907557026 -2.089711309143854 a29.604956559589276,29.604956559589276 0 0,0 0.11950139361697466,0.4954104262438767 l -8.38209210143482 1.945715651240571" fill="#ff6409" stroke="none" /><path d="M 120.6074358757038 120.95851677861258 l 7.916497086835535 -1.5525653138792352 a29.067303463967153,29.067303463967153 0 0,0 0.09206622132372451,0.4918214357045675 l -7.942049032069118 1.416065800712105" fill="#ff5d08" stroke="none" /><path d="M 120.67395015179393 121.31383870115 l 8.694578627624288 -1.5502416815189959 a29.8317012394589,29.8317012394589 0 0,0 0.08578480502551326,0.5063067752599613 l -8.719975294170025 1.4003491179431966" fill="#ff6709" stroke="none" /><path d="M 120.73433829027371 121.67025291283417 l 5.182247102486662 -0.8322219862002037 a26.24864539338927,26.24864539338927 0 0,0 0.06780163418062084,0.446728055338229 l -5.195804630106583 0.7428948184698926" fill="#ff3505" stroke="none" /><path d="M 120.78858239683441 122.02765380044208 l 8.033380175529729 -1.148610644945934 a29.11507877092251,29.11507877092251 0 0,0 0.06666521309772434,0.49673327109352433 l -8.05196138768529 1.0101590317877454" fill="#ff5d08" stroke="none" /><path d="M 120.83666639777658 122.38593545837742 l 10.04130247936518 -1.2597318717842647 a31.120013827603913,31.120013827603913 0 0,0 0.06210613304944342,0.53208742039135 l -10.061498965418211 1.086700713068062" fill="#ff790b" stroke="none" /><path d="M 120.87857604477298 122.74499172005257 l 62.63572813431897 -6.7650248398422885 a84.0,84.0 0 0,0 0.1428914972710853,1.43889787718226 l -62.74289675727228 5.6858514319555935" fill="#4dd2ff" stroke="none" /><path d="M 120.94382443527127 123.46500227214037 l 8.81823955095501 -0.6462992332786223 a29.841891849427007,29.841891849427007 0 0,0 0.033137870535180365,0.5126281900105724 l -8.828058012494605 0.49441197901501466" fill="#ff6809" stroke="none" /><path d="M 120.96714384426684 123.82574320788733 l 5.082512034312353 -0.2846441232823213 a26.09047648613065,26.09047648613065 0 0,0 0.02125304343554758,0.4486181562883601 l -5.086658685981398 0.1971148603709614" fill="#ff3304" stroke="none" /><path d="M 120.98425023603335 124.18683210126433 l 8.10219624027255 -0.31397099337545226 a29.108277357155945,29.108277357155945 0 0,0 0.015092372273073446,0.5008423602939712 l -8.106400307001268 0.17445848565648198" fill="#ff5d08" stroke="none" /><line stroke="#e1ed5e" stroke-width="0.3" x1="184.98032266829074" x2="189.97916517819016" y1="123.17113171792111" y2="123.06355123074" /><path d="M 185.9800911702706 123.14961562048488 a86.0,86.0 0 0,1 -9.607161424134198,41.387399972396054" fill="none" id="id28" stroke="none" /><text fill="#e1ed5e" style="font-size:5.4px;" text-anchor="middle"><textPath startOffset="21.466115282336823" xlink:href="#id28">April</textPath></text><path d="M 120.99513854157772 124.54816195383933 l 8.44389659773459 -0.18172177016824767 a29.44585179570343,29.44585179570343 0 0,0 0.0065439800353976505,0.5068384654605717 l -8.445773584887702 0.036347046647213305" fill="#ff6209" stroke="none" /><path d="M 120.9904718944345 125.63252640178507 l 9.160971078654692 0.2760564937453807 a30.165129474900326,30.165129474900326 0 0,0 -0.02010702261504331,0.5188729101477353 l -9.154861923188445 -0.4337066509071222" fill="#ff6c09" stroke="none" /><path d="M 120.95626037817324 126.35467743843564 l 9.193639078715165 0.5943052439846294 a30.212827917241604,30.212827917241604 0 0,0 -0.038015566002652115,0.5186921945983778 l -9.182046954048177 -0.7524705750797774" fill="#ff6d0a" stroke="none" /><path d="M 120.92983693683757 126.71520430193887 l 9.163260684485842 0.7509310365507416 a30.193978670494026,30.193978670494026 0 0,0 -0.046909083053630646,0.5176378226259685 l -9.148977005155135 -0.9085502477252805" fill="#ff6c0a" stroke="none" /><path d="M 120.89721153311464 127.0752229133903 l 7.752423521488678 0.7698638117628974 a28.790555868819183,28.790555868819183 0 0,0 -0.053218243682521156,0.492734841630239 l -7.738022976305105 -0.9031949752779278" fill="#ff5908" stroke="none" /><path d="M 120.8583938346157 127.4346265915055 l 7.979345623814677 0.9313625580466582 a29.033516838771277,29.033516838771277 0 0,0 -0.06221259233337755,0.4958955724126293 l -7.9621315222344515 -1.0685758847466824" fill="#ff5c08" stroke="none" /><path d="M 120.81339534386255 127.79330883721812 l 26.3473687728531 3.536008268461455 a47.58358884212856,47.58358884212856 0 0,0 -0.1159361656734937,0.8108572726941989 l -26.282598556163002 -3.9890110131360634" fill="#b7ff1f" stroke="none" /><path d="M 120.70491114924044 128.5080841355445 l 7.7342105964577375 1.3104263669051726 a28.844439483700505,28.844439483700505 0 0,0 -0.08715630018917961,0.48881881704092467 l -7.71050785392937 -1.4433639346793157" fill="#ff5a08" stroke="none" /><path d="M 120.64145759157962 128.86396538481128 l 8.203455832668093 1.5356410385567143 a29.345949975756845,29.345949975756845 0 0,0 -0.09721903365267674,0.49571775809764357 l -8.175806866039752 -1.676622523722303" fill="#ff6108" stroke="none" /><path d="M 120.5718875245553 129.21870165774334 l 7.425411300643652 1.5227380047679242 a28.57993825930601,28.57993825930601 0 0,0 -0.10297754769459315,0.48107681983827544 l -7.398099714224616 -1.6503286440223688" fill="#ff5608" stroke="none" /><path d="M 120.49622156327973 129.57218783832718 l 7.817178217249637 1.7438144423154638 a29.009317329802222,29.009317329802222 0 0,0 -0.11291453244185905,0.48643285051165713 l -7.7860031188772245 -1.8781159501756859" fill="#ff5c08" stroke="none" /><path d="M 120.32669344350535 130.2749913415812 l 2.8090763223732953 0.7289849340003902 a23.902124879966028,23.902124879966028 0 0,0 -0.10677639592898477,0.39735469104602145 l -2.7961118501025335 -0.7772305582219599" fill="#ff1302" stroke="none" /><path d="M 120.23288151984713 130.62410040840567 l 30.42691639524365 8.457719319769318 a52.58053605332161,52.58053605332161 0 0,0 -0.24990117402844816,0.8699387707470668 l -30.276822584329103 -8.980215566020966" fill="#7fff26" stroke="none" /><path d="M 119.79798401119884 132.00284435728193 l 7.001767248691166 2.476630258957828 a28.426872965416184,28.426872965416184 0 0,0 -0.1671442450816812,0.4599091768679525 l -6.958098742604258 -2.5967872328319115" fill="#ff5407" stroke="none" /><path d="M 119.67450827220406 132.34259656027578 l 11.435708126798088 4.267847002548693 a33.206143469518935,33.206143469518935 0 0,0 -0.20446401444035794,0.5337910224603378 l -11.360549832764224 -4.464061591842174" fill="#ff950d" stroke="none" /><path d="M 119.54520255179757 132.68017299344265 l 6.889395332792977 2.707147589585873 a28.402189954554682,28.402189954554682 0 0,0 -0.18271721962977558,0.4534891545909846 l -6.841775498905808 -2.8253361120196714" fill="#ff5407" stroke="none" /><path d="M 119.41010516605496 133.01547362559984 l 12.235495637930878 5.052692488935641 a34.23771335592262,34.23771335592262 0 0,0 -0.2296356348762229,0.5427908075774509 l -12.146709021862346 -5.2625578221792555" fill="#ffa30f" stroke="none" /><path d="M 119.12269723197855 133.67885076344098 l 3.611636383523311 1.6391439347789856 a24.96619593637431,24.96619593637431 0 0,0 -0.18097565440316307,0.38980545923437815 l -3.582886112280317 -1.7010694612921942" fill="#ff2303" stroke="none" /><line stroke="#e1ed5e" stroke-width="0.3" x1="174.80103733775053" x2="179.2010983576182" y1="165.37084112569926" y2="167.7455964860345" /><path d="M 175.68104954172406 165.8457921977663 a86.0,86.0 0 0,1 -30.038265399797805,32.042727171017184" fill="none" id="id29" stroke="none" /><text fill="#e1ed5e" style="font-size:5.4px;" text-anchor="middle"><textPath startOffset="22.206326154141568" xlink:href="#id29">May</textPath></text><path d="M 118.48025628344425 134.97397251340806 l 13.23583764452646 7.1435092042908845 a36.04051601189442,36.04051601189442 0 0,0 -0.2993483908578565,0.5434042810248446 l -13.110912844217095 -7.370284003713534" fill="#ffba11" stroke="none" /><path d="M 118.30583269289576 135.29060199501023 l 7.3804304682387105 4.148900177043924 a29.466647894862604,29.466647894862604 0 0,0 -0.25235799066532033,0.4400074280433224 l -7.30792048142101 -4.275327450945561" fill="#ff6209" stroke="none" /><path d="M 118.12598468904814 135.60418214915194 l 27.55067019617254 16.11787332403219 a52.91904241589679,52.91904241589679 0 0,0 -0.4667437473886083,0.7822893676734972 l -27.269145573085705 -16.58972478559179" fill="#7bff26" stroke="none" /><path d="M 117.55443506779139 136.5257021239791 l 6.222200626298958 4.085305547994537 a28.443487224036197,28.443487224036197 0 0,0 -0.2722406001581479,0.406962759146744 l -6.150956920730089 -4.191805221347088" fill="#ff5407" stroke="none" /><path d="M 117.35343817320211 136.82616520977328 l 9.699424005687892 6.610044049255976 a32.73761084613129,32.73761084613129 0 0,0 -0.3213572095952626,0.46293902837522316 l -9.584205888930493 -6.776024339818219" fill="#ff8f0d" stroke="none" /><path d="M 117.14729908036423 137.12312394758627 l 10.117500187667575 7.153062895793147 a33.39072713115038,33.39072713115038 0 0,0 -0.33584744368434166,0.4664627252300324 l -9.99287295160763 -7.326159226474311" fill="#ff980e" stroke="none" /><path d="M 116.93607887273984 137.41649034213515 l 5.228334566099124 3.83309301599391 a27.48290709514861,27.48290709514861 0 0,0 -0.2829937627519716,0.3791163913860294 l -5.16157953665206 -3.922522286889255" fill="#ff4706" stroke="none" /><path d="M 116.71984013943494 137.70617746262582 l 10.178179575263473 7.734867968309532 a33.78372097448514,33.78372097448514 0 0,0 -0.35584422707443175,0.45997663177823667 l -10.043528530970972 -7.908922594201021" fill="#ff9d0e" stroke="none" /><path d="M 116.498646956653 137.99209946851258 l 9.518578352593856 7.495542942438808 a33.11554777368372,33.11554777368372 0 0,0 -0.3565158182915071,0.44480830013171035 l -9.388144622247495 -7.658279076148769" fill="#ff940d" stroke="none" /><path d="M 116.0416608686014 138.55231037782056 l 3.4021852982950493 2.8742330051122953 a25.453771454802304,25.453771454802304 0 0,0 -0.2856367572856028,0.3322600794509477 l -3.352206031438668 -2.932370183724771" fill="#ff2a04" stroke="none" /><path d="M 115.80600337817218 138.826433278659 l 5.937177439179034 5.1935954815581935 a28.888188002980037,28.888188002980037 0 0,0 -0.3306200160100617,0.37145509286602973 l -5.846898573520633 -5.295024744165089" fill="#ff5a08" stroke="none" /><path d="M 115.56566222782051 139.09645910891817 l 12.631958232053172 11.439659943631721 a38.04207113006714,38.04207113006714 0 0,0 -0.44374009383772334,0.4815922321279389 l -12.433171730219726 -11.655403430560995" fill="#ffd413" stroke="none" /><path d="M 115.32070863581623 139.36230785411684 l 18.12298607958682 16.989286298572853 a45.84106425610169,45.84106425610169 0 0,0 -0.5446212004625378,0.5710331513181052 l -17.827858327745318 -17.298726566473466" fill="#cbff1d" stroke="none" /><path d="M 115.07121518719521 139.6239007375343 l 6.902277876384828 6.69741791046086 a30.61752808938936,30.61752808938936 0 0,0 -0.3702670617107573,0.3750785786575919 l -6.785970189618534 -6.815236983099116" fill="#ff720a" stroke="none" /><path d="M 114.81725581225074 139.88116024355367 l 5.712306628012016 5.736942883950119 a29.09586071187838,29.09586071187838 0 0,0 -0.357948428599097,0.3503278755417919 l -5.612708247037124 -5.8344208624144835" fill="#ff5d08" stroke="none" /><path d="M 114.55890576462653 140.1340101406311 l 5.712357638385498 5.938006593619517 a29.239596597812906,29.239596597812906 0 0,0 -0.36572353538637653,0.34581443001992956 l -5.609298268608314 -6.0354556603853675" fill="#ff5f08" stroke="none" /><path d="M 114.0293411484842 140.62618273729856 l 2.241792427649836 2.496956753905255 a24.35565587024969,24.35565587024969 0 0,0 -0.3143707987431779,0.2773956786248396 l -2.1984792760000706 -2.5351755743023836" fill="#ff1a02" stroke="none" /><path d="M 113.20401910651253 141.32954008644617 l 5.21116710677366 6.444701532222021 a29.287969621936643,29.287969621936643 0 0,0 -0.3947495407148096,0.31361290931531727 l -5.099460073341499 -6.533448355542465" fill="#ff6008" stroke="none" /><path d="M 112.63410532772338 141.77436683061367 l 4.727242144300162 6.276383785690397 a28.857468531029884,28.857468531029884 0 0,0 -0.39935305099002855,0.2954318399393627 l -4.6185041228915695 -6.356825574369529" fill="#ff5a08" stroke="none" /><path d="M 112.34349029814194 141.9893568818739 l 4.000687547087896 5.506474009265945 a27.806376191788516,27.806376191788516 0 0,0 -0.3896503154665125,0.27800515422782307 l -3.905309903772499 -5.574523425337988" fill="#ff4b07" stroke="none" /><path d="M 112.04921762599082 142.19931262002967 l 1.457659660686296 2.080694778362291 a23.54048468743588,23.54048468743588 0 0,0 -0.33387482365681975,0.22964214814434303 l -1.421627952406593 -2.1054777158717277" fill="#ff0e01" stroke="none" /><path d="M 111.1453310114006 142.79835938074945 l 2.005402707595528 3.2024960098899573 a24.77857389936899,24.77857389936899 0 0,0 -0.36344362652476425,0.2232567598717114 l -1.9499798811384552 -3.2365412365900466" fill="#ff2003" stroke="none" /><line stroke="#e1ed5e" stroke-width="0.3" x1="143.8653032363475" x2="146.44561519142675" y1="197.8068346515853" y2="202.08958963109032" /><path d="M 144.38136562736335 198.6633856474863 a86.0,86.0 0 0,1 -40.68145358897372,12.25698825130547" fill="none" id="id30" stroke="none" /><text fill="#e1ed5e" style="font-size:5.4px;" text-anchor="middle"><textPath startOffset="21.466115282336833" xlink:href="#id30">June</textPath></text><path d="M 108.59647513512805 144.15986991738527 l 1.7151737717849458 3.8227885076783994 a25.18993234335079,25.18993234335079 0 0,0 -0.3971364669358765,0.17409295633974686 l -1.6491166301913154 -3.851746017312601" fill="#ff2603" stroke="none" /><path d="M 107.93186726928326 144.44442032107085 l 2.042823470485811 5.007839497730789 a26.40847336746704,26.40847336746704 0 0,0 -0.42238331514485056,0.16807503809429797 l -1.9563190792990943 -5.042261380231156" fill="#ff3705" stroke="none" /><path d="M 105.18746579009965 145.34920634021253 l 1.090386583681267 4.277329717388509 a25.414124195480568,25.414124195480568 0 0,0 -0.4248354676167398,0.10441422174462045 l -1.016597831321316 -4.29546519744716" fill="#ff2904" stroke="none" /><path d="M 104.13013068566511 145.58985236759426 l 1.5109663644189912 7.532588371541494 a28.68263671726626,28.68263671726626 0 0,0 -0.4849173778144885,0.09293556957123301 l -1.3810813720327983 -7.557481139461196" fill="#ff5708" stroke="none" /><path d="M 103.7750983002368 145.65789516924582 l 1.5126611944262773 8.27750535107496 a29.414584881394788,29.414584881394788 0 0,0 -0.4988587932967354,0.08673299562240411 l -1.369953429657492 -8.30231692521837" fill="#ff6209" stroke="none" /><path d="M 103.41894727170886 145.7198165907248 l 0.33383614314875965 2.02314429199722 a23.050502230360497,23.050502230360497 0 0,0 -0.39203870107126937,0.06122838242422963 l -0.2989615784689732 -2.0285909817685557" fill="#ff0701" stroke="none" /><path d="M 102.70371172650421 145.82522371788508 l 0.20515435745862878 1.580192647349626 a22.593454459067495,22.593454459067495 0 0,0 -0.386103391614135,0.04675174370412574 l -0.1779235427931135 -1.5834899197791026" fill="#ff0000" stroke="none" /><line stroke="#e1ed5e" stroke-width="0.3" x1="102.19456741930631" x2="102.32365962044197" y1="209.97166512339345" y2="214.96999836594603" /><path d="M 102.22038585953345 210.97133177190398 a86.0,86.0 0 0,1 -42.740103519485714,-10.115201625700543" fill="none" id="id31" stroke="none" /><text fill="#e1ed5e" style="font-size:5.4px;" text-anchor="middle"><textPath startOffset="22.20632615414155" xlink:href="#id31">July</textPath></text><path d="M 100.54218724476979 145.99299961872075 l 0.17250923590505013 6.679401550875946 a27.68162888181591,27.68162888181591 0 0,0 -0.47644078701522014,0.008202360222236652 l -0.05750875899716209 -6.681381388377343" fill="#ff4906" stroke="none" /><path d="M 95.86986931433489 145.5898523675943 l -1.392393308299979 6.941468645296867 a28.07974195000341,28.07974195000341 0 0,0 -0.47308821251288796,-0.09914023468260966 l 1.5116729822422537 -6.916472429887716" fill="#ff4f07" stroke="none" /><path d="M 94.81253420990036 145.34920634021253 l -1.9210763434202682 7.535929968380408 a28.776938652553646,28.776938652553646 0 0,0 -0.47894357550928396,-0.12649335134242068 l 2.0505103617410416 -7.501745267734406" fill="#ff5908" stroke="none" /><path d="M 94.11515582081647 145.15858648285464 l -1.5054900518150836 5.157069666507673 a26.372324249459236,26.372324249459236 0 0,0 -0.43467244785305725,-0.13096324286566569 l 1.5940374741083867 -5.130391054536282" fill="#ff3705" stroke="none" /><path d="M 93.76903079525671 145.05430185196036 l -2.393404640798693 7.703144975250638 a29.066401197828302,29.066401197828302 0 0,0 -0.4765210241635908,-0.1525669838992147 l 2.5256470100532242 -7.660805144691716" fill="#ff5d08" stroke="none" /><path d="M 93.42475214034765 144.94407469862006 l -2.4228408796598204 7.3489730757253415 a28.738059394698826,28.738059394698826 0 0,0 -0.4684717879739579,-0.15893106573545981 l 2.548982400571004 -7.306179023091759" fill="#ff5808" stroke="none" /><path d="M 93.08242187328487 144.82793768551818 l -2.6080280981165247 7.475422418697105 a28.917307048392438,28.917307048392438 0 0,0 -0.4685711403729563,-0.1680129399750915 l 2.7363187991192075 -7.429421937682056" fill="#ff5b08" stroke="none" /><line stroke="#e1ed5e" stroke-width="0.3" x1="58.666819895761336" x2="56.23545636021788" y1="199.27360380694188" y2="203.64263932499728" /><path d="M 58.180547188652646 200.14741091055294 a86.0,86.0 0 0,1 -31.652253787137756,-30.449443065178592" fill="none" id="id32" stroke="none" /><text fill="#e1ed5e" style="font-size:5.4px;" text-anchor="middle"><textPath startOffset="22.20632615414155" xlink:href="#id32">August</textPath></text><path d="M 89.1626897886671 142.98757091392108 l -5.962075129226699 9.895744155126508 a32.553012257860026,32.553012257860026 0 0,0 -0.47747642287044795,-0.29330501707925216 l 6.131530752029455 -9.791650671218878" fill="#ff8c0c" stroke="none" /><path d="M 88.8546689885994 142.79835938074945 l -6.64961038973559 10.618989722011545 a33.529176391585615,33.529176391585615 0 0,0 -0.48652143851880025,-0.3105210010278547 l 6.831413630301313 -10.502954292159886" fill="#ff990e" stroke="none" /><path d="M 88.54995079064634 142.60387380957326 l -9.591009246757794 14.745693524919359 a38.5904217090507,38.5904217090507 0 0,0 -0.5537271641538867,-0.36698017058180815 l 9.843411109651642 -14.578415333246234" fill="#ffdb14" stroke="none" /><path d="M 87.65650970185807 141.9893568818739 l -5.08686460709032 7.001468477083818 a29.654290979997526,29.654290979997526 0 0,0 -0.410380126208023,-0.303589406565502 l 5.2066297037169065 -6.91286912177855" fill="#ff6509" stroke="none" /><path d="M 87.07902340077011 141.55440617244102 l -4.768109705260881 6.10892095728672 a28.749437748880876,28.749437748880876 0 0,0 -0.3874910925433084,-0.3078463591020948 l 4.872558290521547 -6.025940684179494" fill="#ff5808" stroke="none" /><path d="M 86.24171649860922 140.8653595955263 l -9.926123101898668 11.44630523023922 a36.15076972492976,36.15076972492976 0 0,0 -0.46661631344072496,-0.4117346440629599 l 10.12168176824598 -11.273747444403972" fill="#ffbc11" stroke="none" /><path d="M 85.97065885151581 140.6261827372986 l -6.120195449565257 6.816805683937833 a30.161093388534276,30.161093388534276 0 0,0 -0.38333378161771764,-0.3501663207515455 l 6.236628780649829 -6.710446596599711" fill="#ff6c09" stroke="none" /><path d="M 85.44109423537348 140.1340101406311 l -8.862863381238506 9.212963285509142 a33.783936788588946,33.783936788588946 0 0,0 -0.4156229370602434,-0.40677452094595845 l 9.020136270674545 -9.059038661640614" fill="#ff9d0e" stroke="none" /><path d="M 84.67929136418377 139.36230785411684 l -4.578977577325039 4.2925354946635945 a27.276376074343563,27.276376074343563 0 0,0 -0.31816410934618156,-0.34530430252051786 l 4.65218809466695 -4.213079937341733" fill="#ff4406" stroke="none" /><path d="M 82.6465618267979 136.8261652097733 l -7.301705234258122 4.976026741879316 a29.836047841874247,29.836047841874247 0 0,0 -0.2855691887158859,-0.42688719059391883 l 7.386277528384738 -4.849602637079577" fill="#ff6709" stroke="none" /><path d="M 82.24976979558568 136.22182372390057 l -5.313199009443509 3.359042784647957 a27.285956740468947,27.285956740468947 0 0,0 -0.24756855235951516,-0.3991593339467028 l 5.37023220147098 -3.26708711933599" fill="#ff4406" stroke="none" /><path d="M 82.05923443525364 135.91462005526583 l -2.8803499730378417 1.7523179525671297 a24.371503251380332,24.371503251380332 0 0,0 -0.21495564238754095,-0.3602780208669688 l 2.9100864911236144 -1.70247783781405" fill="#ff1a02" stroke="none" /><line stroke="#e1ed5e" stroke-width="0.3" x1="26.63291911575756" x2="22.317208475507996" y1="167.92168965132927" y2="170.44649492493687" /><path d="M 25.769776987707644 168.4266507060508 a86.0,86.0 0 0,1 -11.730757126820373,-40.83630448921669" fill="none" id="id33" stroke="none" /><text fill="#e1ed5e" style="font-size:5.4px;" text-anchor="middle"><textPath startOffset="21.46611528233685" xlink:href="#id33">September</textPath></text><path d="M 81.87401531095188 135.60418214915194 l -3.3050341268583154 1.933532687553505 a24.82907289477962,24.82907289477962 0 0,0 -0.21264091416729675,-0.3707573574066822 l 3.3378270371779895 -1.8763554842885157" fill="#ff2103" stroke="none" /><path d="M 81.69416730710424 135.29060199501023 l -3.3252026355981914 1.8692586920113037 a24.81459049249706,24.81459049249706 0 0,0 -0.20610714150912368,-0.3741443297052222 l 3.3568861865588318 -1.811743843908259" fill="#ff2003" stroke="none" /><path d="M 81.51974371655577 134.97397251340806 l -8.897035934933745 4.801816084408459 a31.110127899091395,31.110127899091395 0 0,0 -0.2502846703502136,-0.47344427406189565 l 8.978373113508846 -4.647956795260438" fill="#ff790b" stroke="none" /><line stroke="#e1ed5e" stroke-width="0.3" x1="15.007084014347285" x2="10.007500721073583" y1="126.09737516637583" y2="126.16192664675087" /><path d="M 14.007167355692545 126.11028546245083 a86.0,86.0 0 0,1 10.666146001902534,-42.60595125391555" fill="none" id="id34" stroke="none" /><text fill="#e1ed5e" style="font-size:5.4px;" text-anchor="middle"><textPath startOffset="22.20632615414155" xlink:href="#id34">October</textPath></text><line stroke="#e1ed5e" stroke-width="0.3" x1="26.266209847984243" x2="21.928928074336255" y1="82.71137044288967" y2="80.22380399835377" /><path d="M 25.398753493254645 82.2138571539825 a86.0,86.0 0 0,1 29.58750427330803,-30.492523968695096" fill="none" id="id35" stroke="none" /><text fill="#e1ed5e" style="font-size:5.4px;" text-anchor="middle"><textPath startOffset="21.46611528233685" xlink:href="#id35">November</textPath></text><line stroke="#e1ed5e" stroke-width="0.3" x1="56.762969772571076" x2="54.21961505331055" y1="51.818313649435495" y2="47.513508569990535" /><path d="M 56.25429882871897 50.957352633546506 a86.0,86.0 0 0,1 42.265352541879196,-11.944610805530505" fill="none" id="id36" stroke="none" /><text fill="#e1ed5e" style="font-size:5.4px;" text-anchor="middle"><textPath startOffset="22.20632615414155" xlink:href="#id36">December</textPath></text></svg>