<?xml version="1.0" encoding="utf-8" ?>
<svg baseProfile="full" height="200mm" version="1.1" viewBox="0,0,200,200" width="200mm" xmlns="http://www.w3.org/2000/svg" xmlns:ev="http://www.w3.org/2001/xml-events" xmlns:xlink="http://www.w3.org/1999/xlink"><defs /><rect fill="#1a1a1a" height="200" width="200" x="0" y="0" /><text alignment-baseline="middle" fill="#e1ed5e" style="dominant-baseline: central; font-size:9.0px; font-family:Arial;" text-anchor="middle" x="100.0" y="100.0">2021</text><line stroke="#e1ed5e" stroke-width="0.3" x1="100.0" x2="100.0" y1="15.0" y2="10.0" /><path d="M 100.0 14.0 a86.0,86.0 0 0,1 42.46469731375804,11.215312516191453" fill="none" id="id25" stroke="none" /><text fill="#e1ed5e" style="font-size:6.75px; font-family:Arial;" text-anchor="middle"><textPath startOffset="22.20632615414155" xlink:href="#id25">January</textPath></text><path d="M 101.08401301168833 79.027996857942 l 0.8220902139398831 -15.904678600628628 a36.925910765452315,36.925910765452315 0 0,0 0.6344890469208158,0.03827411202469191 l -1.0957413097003108 15.888171219223633" fill="#ffb610" stroke="none" /><path d="M 101.44485096284872 79.0497635885617 l 1.068132816763859 -15.487850031187888 a36.52463868509714,36.52463868509714 0 0,0 0.6268494339097508,0.04865558051793611 l -1.334572440035951 15.467169188481488" fill="#ffb010" stroke="none" /><path d="M 103.59715602781102 79.31037775812273 l 2.6118388564645376 -15.022411838441052 a36.24777228502157,36.24777228502157 0 0,0 0.6138040320811772,0.11216876352619844 l -2.8700380096486158 14.975227593564115" fill="#ffad10" stroke="none" /><path d="M 103.95276090670814 79.375362276772 l 2.956716293960384 -15.427495832042013 a36.70827167102239,36.70827167102239 0 0,0 0.6195545014579368,0.12427680452632271 l -3.2218372048854462 15.374315071438481" fill="#ffb310" stroke="none" /><path d="M 104.66035177308747 79.52364482259891 l 3.497197668372358 -15.365763159060831 a36.75871406530432,36.75871406530432 0 0,0 0.6157545193281705,0.14572920049435872 l -3.761175874663052 15.303288046425605" fill="#ffb410" stroke="none" /><path d="M 105.71112130821622 79.79150937346287 l 1.203272912315246 -4.257715439296721 a25.424478100695865,25.424478100695865 0 0,0 0.420121076677046,0.12264486276049136 l -1.2763842067157192 4.236372247617527" fill="#ff1302" stroke="none" /><path d="M 106.40334571778207 80.00007090966166 l 4.594412721898486 -14.349987131656132 a36.06753990994679,36.06753990994679 0 0,0 0.5896479052639002,0.19439764369229715 l -4.840743449404804 14.2687757637046" fill="#ffaa0f" stroke="none" /><path d="M 106.74666289553966 80.11325718540242 l 5.326820735023991 -15.701557290927068 a37.58052835416732,37.58052835416732 0 0,0 0.6108052678137005,0.2130979644643767 l -5.596308006900965 15.607538473290484" fill="#ffbe11" stroke="none" /><path d="M 107.08798089147638 80.2323363322302 l 5.277415342609869 -14.71817900261161 a36.635725306212414,36.635725306212414 0 0,0 0.5917850253337209,0.21795941910968158 l -5.529982693716167 14.625156315695603" fill="#ffb210" stroke="none" /><path d="M 108.43124777332544 80.76684994638697 l 6.247291665159386 -14.251164389313775 a36.560345099027046,36.560345099027046 0 0,0 0.574202646127835,0.25762798971217044 l -6.491676429754 14.141516069085073" fill="#ffb110" stroke="none" /><path d="M 108.76106565485865 80.91482961587045 l 7.993738915685717 -17.413620125937793 a40.1607418369596,40.1607418369596 0 0,0 0.6257842752107138,0.2938141080624595 l -8.29230140219603 17.27344103523533" fill="#ffe015" stroke="none" /><path d="M 109.08828744355905 81.06846463323043 l 6.926194600068341 -14.42774547379116 a37.00412481501307,37.00412481501307 0 0,0 0.5718524638859063,0.2806055205008308 l -7.17351833096468 14.306384793155498" fill="#ffb711" stroke="none" /><path d="M 109.41281617654863 81.2277094730956 l 7.758704678034253 -15.473441273758722 a38.30967599735508,38.30967599735508 0 0,0 0.5869398321915132,0.3006533789152573 l -8.02390499781452 15.337595369530964" fill="#ffc812" stroke="none" /><path d="M 109.73455568895987 81.39251694778311 l 8.297927882223041 -15.86138673099329 a38.900815516861364,38.900815516861364 0 0,0 0.5906532248399801,0.3155064970929596 l -8.569726153591333 15.716201507398576" fill="#ffd013" stroke="none" /><line stroke="#e1ed5e" stroke-width="0.3" x1="143.23703022742887" x2="145.7803849466894" y1="26.81831364943548" y2="22.513508569990506" /><path d="M 143.74570117128098 25.957352633546492 a86.0,86.0 0 0,1 28.547481713284135,27.462654790039103" fill="none" id="id26" stroke="none" /><text fill="#e1ed5e" style="font-size:6.75px; font-family:Arial;" text-anchor="middle"><textPath startOffset="19.985693538727396" xlink:href="#id26">February</textPath></text><path d="M 110.68208982089419 81.91981866633111 l 8.042379284441244 -13.612287319698634 a36.81057338077395,36.81057338077395 0 0,0 0.5427595182365181,0.32700653675980235 l -8.2755008688954 13.471834173480216" fill="#ffb410" stroke="none" /><path d="M 110.99172775467656 82.1063720568725 l 8.138001060581196 -13.24799580455965 a36.54787619257533,36.54787619257533 0 0,0 0.5332175850892766,0.3339008028654298 l -8.364837798042736 13.105950660371276" fill="#ffb110" stroke="none" /><path d="M 111.2981086023043 82.29822771554956 l 1.7107781815699912 -2.680431465597852 a24.17985452942473,24.17985452942473 0 0,0 0.34891872543595337,0.2269464448293202 l -1.7566639327902247 2.6505860966090036" fill="#ff0000" stroke="none" /><path d="M 112.19680574252982 82.90503203632743 l 3.765811023949328 -5.278137585415543 a27.483831354891528,27.483831354891528 0 0,0 0.3827512002038393,0.2780850245931817 l -3.856107540506956 5.212533326005687" fill="#ff3104" stroke="none" /><path d="M 112.48926042617603 83.11751280151076 l 4.027508824103789 -5.444226787218437 a27.772033124468653,27.772033124468653 0 0,0 0.3818705420304722,0.2876169752507629 l -4.120625519892644 5.374093222461827" fill="#ff3605" stroke="none" /><path d="M 114.16331599549186 84.49514656593476 l 5.038864073245567 -5.516141061508269 a28.471142038477282,28.471142038477282 0 0,0 0.35899685481647137,0.33364845166127477 l -5.1330688118568855 5.428588023772353" fill="#ff4006" stroke="none" /><path d="M 116.15771136456269 86.58626213691792 l 8.904973031358107 -7.392691404454101 a32.57369564532888,32.57369564532888 0 0,0 0.35443517017151255,0.43449560974401374 l -9.03090669360603 7.238311625101986" fill="#ff7a0b" stroke="none" /><path d="M 116.38621287248628 86.86637796730983 l 13.084322393527483 -10.487142221800022 a37.768412103655656,37.768412103655656 0 0,0 0.4022262499727679,0.5107864907502063 l -13.262902724094214 10.260363337096779" fill="#ffc111" stroke="none" /><path d="M 116.60985879189232 87.15038557335679 l 12.390992165101338 -9.585841377702023 a36.66604741962908,36.66604741962908 0 0,0 0.3818927022645924,0.5025260312208187 l -12.554160807590044 9.37113057060017" fill="#ffb210" stroke="none" /><path d="M 116.82858285166822 87.43820079747576 l 12.273019548594412 -9.16127094818414 a36.31521773355584,36.31521773355584 0 0,0 0.3696152268747167,0.504154754075167 l -12.428897387982754 8.948653750437478" fill="#ffae10" stroke="none" /><path d="M 117.04232023915458 87.72973835380427 l 13.167354747038575 -9.480333996027273 a37.22516452029346,37.22516452029346 0 0,0 0.36992486005283287,0.5232324803418946 l -13.32859222689529 9.252275015353584" fill="#ffba11" stroke="none" /><path d="M 117.2510076193507 88.02491185347247 l 12.941689418737056 -8.983699675636224 a36.754179917503706,36.754179917503706 0 0,0 0.35629770550539647,0.522822918001516 l -13.094411589911186 8.759598734364301" fill="#ffb310" stroke="none" /><path d="M 117.45458315368197 88.32363383020206 l 10.04651552433727 -6.7206872235144814 a33.08718788374949,33.08718788374949 0 0,0 0.31260044774668566,0.4761119282021843 l -10.16071260744188 6.546757231334623" fill="#ff810b" stroke="none" /><line stroke="#e1ed5e" stroke-width="0.3" x1="172.23445277983987" x2="176.4835382374775" y1="55.19839476539836" y2="52.563006222186495" /><path d="M 173.08426987136738 54.67131705675599 a86.0,86.0 0 0,1 12.851231095245387,41.99856678651699" fill="none" id="id27" stroke="none" /><text fill="#e1ed5e" style="font-size:6.75px; font-family:Arial;" text-anchor="middle"><textPath startOffset="22.20632615414155" xlink:href="#id27">March</textPath></text><path d="M 117.84615892207809 88.93136811851018 l 13.16444514692991 -8.16491648940583 a36.49091596083,36.49091596083 0 0,0 0.32647936262404925,0.536646230185542 l -13.303040307840185 7.937102486013206" fill="#ffb010" stroke="none" /><path d="M 118.03404312379186 89.2402003453031 l 13.102998248476714 -7.817749744839803 a36.25797411757297,36.25797411757297 0 0,0 0.3151686856413437,0.5387254471915416 l -13.235626608588387 7.591044885294366" fill="#ffad10" stroke="none" /><path d="M 118.21658344932153 89.55222093294921 l 13.7619346314885 -7.892898960169285 a36.8646997701439,36.8646997701439 0 0,0 0.3109666604918854,0.553174990422636 l -13.895758933272818 7.654840459811855" fill="#ffb510" stroke="none" /><path d="M 118.3937258080291 89.86733742301442 l 12.963219299592843 -7.141126732296124 a35.800025189710006,35.800025189710006 0 0,0 0.29269401775467385,0.5423175623820836 l -13.084221416565981 6.916928186581582" fill="#ffa70f" stroke="none" /><path d="M 118.56541770881063 90.18545643968196 l 13.578518679517087 -7.178236717047735 a36.35914229037438,36.35914229037438 0 0,0 0.2877403079547287,0.5558226890679837 l -13.700068420631933 6.943441305719406" fill="#ffae10" stroke="none" /><path d="M 118.73160827565052 90.50648371742162 l 56.19482482695156 -28.480548847735175 a84.0,84.0 0 0,0 0.6425599481863675,1.2953616460042006 l -56.676744788091334 27.509027613232025" fill="#4dd2ff" stroke="none" /><path d="M 118.89224826269711 90.83032412892265 l 10.013580770295265 -4.860262722344296 a32.13076608205548,32.13076608205548 0 0,0 0.23721961936237718,0.49964501692261415 l -10.095758583499398 4.687175289781141" fill="#ff740a" stroke="none" /><path d="M 119.04729006885535 91.15688171328212 l 14.542436711065456 -6.751642230898656 a37.03331339147958,37.03331339147958 0 0,0 0.26346148646939543,0.580502462291885 l -14.656500514498198 6.500317759764709" fill="#ffb711" stroke="none" /><path d="M 119.196687751892 91.48605970444005 l 13.693613660731895 -6.073266942962321 a35.979974180547245,35.979974180547245 0 0,0 0.24622174044595807,0.5683137244494985 l -13.796126111020534 5.83665407392622" fill="#ffa90f" stroke="none" /><path d="M 119.7369772167798 92.82701384747503 l 33.895543695370016 -12.318617126055663 a57.064611606158884,57.064611606158884 0 0,0 0.32756967256701136,0.9260835753534432 l -34.10256644874684 11.733335924275606" fill="#57ff2a" stroke="none" /><line stroke="#e1ed5e" stroke-width="0.3" x1="184.98032266829074" x2="189.97916517819016" y1="98.17113171792111" y2="98.06355123074" /><path d="M 185.9800911702706 98.14961562048488 a86.0,86.0 0 0,1 -9.607161424134198,41.387399972396054" fill="none" id="id28" stroke="none" /><text fill="#e1ed5e" style="font-size:6.75px; font-family:Arial;" text-anchor="middle"><textPath startOffset="21.466115282336823" xlink:href="#id28">April</textPath></text><line stroke="#e1ed5e" stroke-width="0.3" x1="174.80103733775053" x2="179.2010983576182" y1="140.37084112569926" y2="142.7455964860345" /><path d="M 175.68104954172406 140.8457921977663 a86.0,86.0 0 0,1 -30.038265399797805,32.042727171017184" fill="none" id="id29" stroke="none" /><text fill="#e1ed5e" style="font-size:6.75px; font-family:Arial;" text-anchor="middle"><textPath startOffset="22.206326154141568" xlink:href="#id29">May</textPath></text><line stroke="#e1ed5e" stroke-width="0.3" x1="143.8653032363475" x2="146.44561519142675" y1="172.8068346515853" y2="177.08958963109032" /><path d="M 144.38136562736335 173.6633856474863 a86.0,86.0 0 0,1 -40.68145358897372,12.25698825130547" fill="none" id="id30" stroke="none" /><text fill="#e1ed5e" style="font-size:6.75px; font-family:Arial;" text-anchor="middle"><textPath startOffset="21.466115282336833" xlink:href="#id30">June</textPath></text><line stroke="#e1ed5e" stroke-width="0.3" x1="102.19456741930631" x2="102.32365962044197" y1="184.97166512339345" y2="189.96999836594603" /><path d="M 102.22038585953345 185.97133177190398 a86.0,86.0 0 0,1 -42.740103519485714,-10.115201625700543" fill="none" id="id31" stroke="none" /><text fill="#e1ed5e" style="font-size:6.75px; font-family:Arial;" text-anchor="middle"><textPath startOffset="22.20632615414155" xlink:href="#id31">July</textPath></text><line stroke="#e1ed5e" stroke-width="0.3" x1="58.666819895761336" x2="56.23545636021788" y1="174.27360380694188" y2="178.64263932499728" /><path d="M 58.180547188652646 175.14741091055294 a86.0,86.0 0 0,1 -31.652253787137756,-30.449443065178592" fill="none" id="id32" stroke="none" /><text fill="#e1ed5e" style="font-size:6.75px; font-family:Arial;" text-anchor="middle"><textPath startOffset="22.20632615414155" xlink:href="#id32">August</textPath></text><line stroke="#e1ed5e" stroke-width="0.3" x1="26.63291911575756" x2="22.317208475507996" y1="142.92168965132927" y2="145.44649492493687" /><path d="M 25.769776987707644 143.4266507060508 a86.0,86.0 0 0,1 -11.730757126820373,-40.83630448921669" fill="none" id="id33" stroke="none" /><text fill="#e1ed5e" style="font-size:6.75px; font-family:Arial;" text-anchor="middle"><textPath startOffset="21.46611528233685" xlink:href="#id33">September</textPath></text><line stroke="#e1ed5e" stroke-width="0.3" x1="15.007084014347285" x2="10.007500721073583" y1="101.09737516637583" y2="101.16192664675087" /><path d="M 14.007167355692545 101.11028546245083 a86.0,86.0 0 0,1 10.666146001902534,-42.60595125391555" fill="none" id="id34" stroke="none" /><text fill="#e1ed5e" style="font-size:6.75px; font-family:Arial;" text-anchor="middle"><textPath startOffset="22.20632615414155" xlink:href="#id34">October</textPath></text><line stroke="#e1ed5e" stroke-width="0.3" x1="26.266209847984243" x2="21.928928074336255" y1="57.711370442889674" y2="55.22380399835377" /><path d="M 25.398753493254645 57.213857153982495 a86.0,86.0 0 0,1 29.58750427330803,-30.492523968695096" fill="none" id="id35" stroke="none" /><text fill="#e1ed5e" style="font-size:6.75px; font-family:Arial;" text-anchor="middle"><textPath startOffset="21.46611528233685" xlink:href="#id35">November</textPath></text><line stroke="#e1ed5e" stroke-width="0.3" x1="56.762969772571076" x2="54.21961505331055" y1="26.818313649435495" y2="22.513508569990535" /><path d="M 56.25429882871897 25.957352633546506 a86.0,86.0 0 0,1 42.265352541879196,-11.944610805530505" fill="none" id="id36" stroke="none" /><text fill="#e1ed5e" style="font-size:6.75px; font-family:Arial;" text-anchor="middle"><textPath startOffset="22.20632615414155" xlink:href="#id36">December</textPath></text></svg>