<?xml version="1.0" encoding="utf-8" ?>
<svg baseProfile="full" height="250mm" version="1.1" viewBox="0,0,200,250" width="200mm" xmlns="http://www.w3.org/2000/svg" xmlns:ev="http://www.w3.org/2001/xml-events" xmlns:xlink="http://www.w3.org/1999/xlink"><defs /><rect fill="#1a1a1a" height="250" width="200" x="0" y="0" /><text alignment-baseline="middle" fill="#e1ed5e" style="dominant-baseline: central; font-size:7.2px; " text-anchor="middle" x="100.0" y="125.0">2022</text><line stroke="#e1ed5e" stroke-width="0.3" x1="100.0" x2="100.0" y1="40.0" y2="35.0" /><path d="M 100.0 39.0 a86.0,86.0 0 0,1 42.46469731375804,11.215312516191453" fill="none" id="id37" stroke="none" /><text fill="#e1ed5e" style="font-size:5.4px;" text-anchor="middle"><textPath startOffset="22.20632615414155" xlink:href="#id37">January</textPath></text><path d="M 101.08401301168833 104.027996857942 l 2.0186954693260066 -39.05496268870945 a60.10709963695038,60.10709963695038 0 0,0 1.0328058420566897,0.06230166886327244 l -2.6906633602223082 39.01442775046588" fill="#56ff2a" stroke="none" /><path d="M 101.44485096284872 104.0497635885617 l 2.53580377941194 -36.768974820042665 a57.856313029447364,57.856313029447364 0 0,0 0.9929515630064875,0.07707215179718638 l -3.1683455317807687 36.719877406057016" fill="#71ff27" stroke="none" /><path d="M 102.16513564639614 104.11191278185805 l 6.4954069391883955 -62.66426165442583 a84.0,84.0 0 0,0 1.436933185961099,0.1614561861175967 l -7.57310682865922 62.54316951483763" fill="#4dd2ff" stroke="none" /><path d="M 103.2404852339499 104.25152402106235 l 6.077184308655306 -38.91155291394878 a60.38325937878177,60.38325937878177 0 0,0 1.0255688123120146,0.16922764144415547 l -6.746082327106196 38.801179009565004" fill="#53ff2b" stroke="none" /><path d="M 103.59715602781102 104.31037775812273 l 5.96048318492915 -34.28267901692588 a55.79697458652682,55.79697458652682 0 0,0 0.9448417328888756,0.1726637874090724 l -6.549720038920927 34.17499974816607" fill="#8bff24" stroke="none" /><path d="M 103.95276090670814 104.375362276772 l 7.255285469021108 -37.856485102150906 a59.54546187979024,59.54546187979024 0 0,0 1.00499580257107,0.2015927034861183 l -7.905847681059304 37.72598844258758" fill="#5dff2a" stroke="none" /><path d="M 104.66035177308747 104.52364482259891 l 2.162673932940635 -9.502218231578146 a30.745219846712388,30.745219846712388 0 0,0 0.5150209562477681,0.12188882068411915 l -2.3259185761509267 9.463583498753158" fill="#ff0000" stroke="none" /><path d="M 105.71112130821622 104.79150937346287 l 10.719813860129438 -37.93147548783376 a60.41714400968133,60.41714400968133 0 0,0 0.998349523265327,0.29144560238762196 l -11.371153601118193 37.741331556527435" fill="#53ff2b" stroke="none" /><line stroke="#e1ed5e" stroke-width="0.3" x1="143.23703022742887" x2="145.7803849466894" y1="51.81831364943548" y2="47.513508569990506" /><path d="M 143.74570117128098 50.95735263354649 a86.0,86.0 0 0,1 28.547481713284135,27.462654790039103" fill="none" id="id38" stroke="none" /><text fill="#e1ed5e" style="font-size:5.4px;" text-anchor="middle"><textPath startOffset="19.985693538727396" xlink:href="#id38">February</textPath></text><line stroke="#e1ed5e" stroke-width="0.3" x1="172.23445277983987" x2="176.4835382374775" y1="80.19839476539836" y2="77.56300622218649" /><path d="M 173.08426987136738 79.67131705675598 a86.0,86.0 0 0,1 12.851231095245387,41.99856678651699" fill="none" id="id39" stroke="none" /><text fill="#e1ed5e" style="font-size:5.4px;" text-anchor="middle"><textPath startOffset="22.20632615414155" xlink:href="#id39">March</textPath></text><line stroke="#e1ed5e" stroke-width="0.3" x1="184.98032266829074" x2="189.97916517819016" y1="123.17113171792111" y2="123.06355123074" /><path d="M 185.9800911702706 123.14961562048488 a86.0,86.0 0 0,1 -9.607161424134198,41.387399972396054" fill="none" id="id40" stroke="none" /><text fill="#e1ed5e" style="font-size:5.4px;" text-anchor="middle"><textPath startOffset="21.466115282336823" xlink:href="#id40">April</textPath></text><line stroke="#e1ed5e" stroke-width="0.3" x1="174.80103733775053" x2="179.2010983576182" y1="165.37084112569926" y2="167.7455964860345" /><path d="M 175.68104954172406 165.8457921977663 a86.0,86.0 0 0,1 -30.038265399797805,32.042727171017184" fill="none" id="id41" stroke="none" /><text fill="#e1ed5e" style="font-size:5.4px;" text-anchor="middle"><textPath startOffset="22.206326154141568" xlink:href="#id41">May</textPath></text><line stroke="#e1ed5e" stroke-width="0.3" x1="143.8653032363475" x2="146.44561519142675" y1="197.8068346515853" y2="202.08958963109032" /><path d="M 144.38136562736335 198.6633856474863 a86.0,86.0 0 0,1 -40.68145358897372,12.25698825130547" fill="none" id="id42" stroke="none" /><text fill="#e1ed5e" style="font-size:5.4px;" text-anchor="middle"><textPath startOffset="21.466115282336833" xlink:href="#id42">June</textPath></text><line stroke="#e1ed5e" stroke-width="0.3" x1="102.19456741930631" x2="102.32365962044197" y1="209.97166512339345" y2="214.96999836594603" /><path d="M 102.22038585953345 210.97133177190398 a86.0,86.0 0 0,1 -42.740103519485714,-10.115201625700543" fill="none" id="id43" stroke="none" /><text fill="#e1ed5e" style="font-size:5.4px;" text-anchor="middle"><textPath startOffset="22.20632615414155" xlink:href="#id43">July</textPath></text><line stroke="#e1ed5e" stroke-width="0.3" x1="58.666819895761336" x2="56.23545636021788" y1="199.27360380694188" y2="203.64263932499728" /><path d="M 58.180547188652646 200.14741091055294 a86.0,86.0 0 0,1 -31.652253787137756,-30.449443065178592" fill="none" id="id44" stroke="none" /><text fill="#e1ed5e" style="font-size:5.4px;" text-anchor="middle"><textPath startOffset="22.20632615414155" xlink:href="#id44">August</textPath></text><line stroke="#e1ed5e" stroke-width="0.3" x1="26.63291911575756" x2="22.317208475507996" y1="167.92168965132927" y2="170.44649492493687" /><path d="M 25.769776987707644 168.4266507060508 a86.0,86.0 0 0,1 -11.730757126820373,-40.83630448921669" fill="none" id="id45" stroke="none" /><text fill="#e1ed5e" style="font-size:5.4px;" text-anchor="middle"><textPath startOffset="21.46611528233685" xlink:href="#id45">September</textPath></text><line stroke="#e1ed5e" stroke-width="0.3" x1="15.007084014347285" x2="10.007500721073583" y1="126.09737516637583" y2="126.16192664675087" /><path d="M 14.007167355692545 126.11028546245083 a86.0,86.0 0 0,1 10.666146001902534,-42.60595125391555" fill="none" id="id46" stroke="none" /><text fill="#e1ed5e" style="font-size:5.4px;" text-anchor="middle"><textPath startOffset="22.20632615414155" xlink:href="#id46">October</textPath></text><line stroke="#e1ed5e" stroke-width="0.3" x1="26.266209847984243" x2="21.928928074336255" y1="82.71137044288967" y2="80.22380399835377" /><path d="M 25.398753493254645 82.2138571539825 a86.0,86.0 0 0,1 29.58750427330803,-30.492523968695096" fill="none" id="id47" stroke="none" /><text fill="#e1ed5e" style="font-size:5.4px;" text-anchor="middle"><textPath startOffset="21.46611528233685" xlink:href="#id47">November</textPath></text><line stroke="#e1ed5e" stroke-width="0.3" x1="56.762969772571076" x2="54.21961505331055" y1="51.818313649435495" y2="47.513508569990535" /><path d="M 56.25429882871897 50.957352633546506 a86.0,86.0 0 0,1 42.265352541879196,-11.944610805530505" fill="none" id="id48" stroke="none" /><text fill="#e1ed5e" style="font-size:5.4px;" text-anchor="middle"><textPath startOffset="22.20632615414155" xlink:href="#id48">December</textPath></text></svg>