<?xml version="1.0" encoding="utf-8" ?>
<svg baseProfile="full" height="200mm" version="1.1" viewBox="0,0,200,200" width="200mm" xmlns="http://www.w3.org/2000/svg" xmlns:ev="http://www.w3.org/2001/xml-events" xmlns:xlink="http://www.w3.org/1999/xlink"><defs /><rect fill="#1a1a1a" height="200" width="200" x="0" y="0" /><text alignment-baseline="middle" fill="#e1ed5e" style="dominant-baseline: central; font-size:9.0px; font-family:Arial;" text-anchor="middle" x="100.0" y="100.0">2020</text><line stroke="#e1ed5e" stroke-width="0.3" x1="100.0" x2="100.0" y1="15.0" y2="10.0" /><path d="M 100.0 14.0 a86.0,86.0 0 0,1 42.35913384403234,11.155469271406648" fill="none" id="id13" stroke="none" /><text fill="#e1ed5e" style="font-size:6.75px; font-family:Arial;" text-anchor="middle"><textPath startOffset="22.145653131862478" xlink:href="#id13">January</textPath></text><line stroke="#e1ed5e" stroke-width="0.3" x1="143.13028292997686" x2="145.6673583964461" y1="26.7553504044142" y2="22.446841604673864" /><path d="M 143.63769802327073 25.89364864446614 a86.0,86.0 0 0,1 29.32050498858742,28.57503671076993" fill="none" id="id14" stroke="none" /><text fill="#e1ed5e" style="font-size:6.75px; font-family:Arial;" text-anchor="middle"><textPath startOffset="20.669276256404974" xlink:href="#id14">February</textPath></text><line stroke="#e1ed5e" stroke-width="0.3" x1="172.87174338648825" x2="177.1583165268699" y1="56.24261187166439" y2="53.66864786411523" /><path d="M 173.72905801456457 55.72781907015455 a86.0,86.0 0 0,1 12.242430191666344,42.057860355516425" fill="none" id="id15" stroke="none" /><text fill="#e1ed5e" style="font-size:6.75px; font-family:Arial;" text-anchor="middle"><textPath startOffset="22.145653131862474" xlink:href="#id15">March</textPath></text><line stroke="#e1ed5e" stroke-width="0.3" x1="184.99686870605535" x2="189.99668451229388" y1="99.2704041080226" y2="99.22748670261217" /><path d="M 185.99683186730306 99.26182062694052 a86.0,86.0 0 0,1 -10.086455211305974,41.156179273409016" fill="none" id="id16" stroke="none" /><text fill="#e1ed5e" style="font-size:6.75px; font-family:Arial;" text-anchor="middle"><textPath startOffset="21.40746469413373" xlink:href="#id16">April</textPath></text><line stroke="#e1ed5e" stroke-width="0.3" x1="174.33088141563837" x2="178.70328620479359" y1="141.23008692659167" y2="143.65538615756765" /><path d="M 175.20536237346943 141.71514677278685 a86.0,86.0 0 0,1 -30.301960400862466,31.631185727798858" fill="none" id="id17" stroke="none" /><text fill="#e1ed5e" style="font-size:6.75px; font-family:Arial;" text-anchor="middle"><textPath startOffset="22.145653131862474" xlink:href="#id17">May</textPath></text><line stroke="#e1ed5e" stroke-width="0.3" x1="143.1302829299769" x2="145.66735839644613" y1="173.24464959558577" y2="177.55315839532614" /><path d="M 143.63769802327073 174.10635135553383 a86.0,86.0 0 0,1 -40.68552437913181,11.842963189579606" fill="none" id="id18" stroke="none" /><text fill="#e1ed5e" style="font-size:6.75px; font-family:Arial;" text-anchor="middle"><textPath startOffset="21.407464694133747" xlink:href="#id18">June</textPath></text><path d="M 109.06512990194946 118.94263497670748 l 1.524722394008719 3.186083383571545 a24.532124814592823,24.532124814592823 0 0,0 -0.3814293154608305,0.17852817913086194 l -1.469804364676382 -3.2117877942729405" fill="#ff1702" stroke="none" /><path d="M 108.73861861582097 119.09545874513695 l 1.5777695980852153 3.447711313893641 a24.791578854328655,24.791578854328655 0 0,0 -0.3885036344289244,0.17377273411332617 l -1.518352560800664 -3.4742877989168175" fill="#ff1b02" stroke="none" /><path d="M 108.4095320186766 119.2426549942271 l 1.5628111836741687 3.5760178285514432 a24.9025994293464,24.9025994293464 0 0,0 -0.3931823098977192,0.1678261480299894 l -1.5011937986060184 -3.602318626240837" fill="#ff1d02" stroke="none" /><path d="M 108.07796709384702 119.3841803445677 l 2.3463390655253398 5.630359602515723 a27.099693128678798,27.099693128678798 0 0,0 -0.4309438868300166,0.1752611271269141 l -2.2493407175048823 -5.669807986221929" fill="#ff3c05" stroke="none" /><path d="M 107.74402155503746 119.51999308798841 l 2.3556699209655156 5.937827038319315 a27.388033399532098,27.388033399532098 0 0,0 -0.4385055478417299,0.16962336607724884 l -2.2533921106302564 -5.977390292534605" fill="#ff4106" stroke="none" /><path d="M 107.407793817531 119.65005319985036 l 2.4694623974572383 6.550542399037514 a28.000560709974838,28.000560709974838 0 0,0 -0.4512235001915574,0.1656955193670625 l -2.356649745611554 -6.591968767413299" fill="#ff4906" stroke="none" /><path d="M 107.06938296918513 119.77432235084164 l 3.2609987083943315 9.121593769434837 a30.68698020389956,30.68698020389956 0 0,0 -0.4975590301331657,0.17307685881364282 l -3.103933906216144 -9.17622906081707" fill="#ff6f0a" stroke="none" /><path d="M 106.72888874123015 119.89276391827305 l 2.0108549327042287 5.9447353030341805 a27.275620716990616,27.275620716990616 0 0,0 -0.4448228529577948,0.14622210707175234 l -1.9085093420986996 -5.978378331507952" fill="#ff3f05" stroke="none" /><path d="M 106.38641147887787 120.00534299687104 l 2.0221287286749514 6.3342894416939455 a27.649227573672597,27.649227573672597 0 0,0 -0.45339383375515857,0.1404625686700004 l -1.9130942620481683 -6.3680685981705905" fill="#ff4406" stroke="none" /><path d="M 106.0420521117495 120.11202640906438 l 1.8669328710976976 6.214412340875221 a27.48878718156231,27.48878718156231 0 0,0 -0.45309373593669633,0.13188898307230995 l -1.7599791227793944 -6.2455450182500485" fill="#ff4206" stroke="none" /><path d="M 105.69591212413111 120.21278271476187 l 2.49518775791401 8.8545410961626 a30.199394543711904,30.199394543711904 0 0,0 -0.5001862429911565,0.13632798475666577 l -2.342820113988158 -8.89606957506341" fill="#ff6809" stroke="none" /><line stroke="#e1ed5e" stroke-width="0.3" x1="101.45913802915013" x2="101.54496967792366" y1="184.9874750549273" y2="189.98673829345242" /><path d="M 101.47630435890484 185.9873277026323 a86.0,86.0 0 0,1 -42.54439059252881,-10.42667462771756" fill="none" id="id19" stroke="none" /><text fill="#e1ed5e" style="font-size:6.75px; font-family:Arial;" text-anchor="middle"><textPath startOffset="22.145653131862474" xlink:href="#id19">July</textPath></text><path d="M 98.91894614982273 120.97215588758144 l -0.2761033289337151 5.356330819716841 a26.36344226206424,26.36344226206424 0 0,0 -0.451763504534951,-0.027176970605077407 l 0.3680111856011124 -5.350801871287072" fill="#ff3204" stroke="none" /><path d="M 97.84075906011543 120.88869738790638 l -0.6262819179494554 6.0587094390045895 a27.090992456655464,27.090992456655464 0 0,0 -0.46217761843920085,-0.05178796615637252 l 0.7301954379894555 -6.047065712341246" fill="#ff3c05" stroke="none" /><path d="M 97.12497278360702 120.80226474461374 l -1.273842232734959 9.21688783227173 a30.30449866175378,30.30449866175378 0 0,0 -0.5147073266568135,-0.07564425209831369 l 1.4318746649994574 -9.193662506874535" fill="#ff6a09" stroke="none" /><path d="M 96.41257539226777 120.69131181640829 l -0.9069607429703567 5.2311085500146435 a26.309150068638637,26.309150068638637 0 0,0 -0.4443305580542355,-0.08097182910713542 l 0.9966260345756494 -5.214768546976142" fill="#ff3104" stroke="none" /><path d="M 95.35216902796893 120.47920084513623 l -1.6985641628391805 7.484187107590386 a28.67451476490232,28.67451476490232 0 0,0 -0.4790935827673839,-0.11306478102890957 l 1.8267898993464522 -7.453926182915248" fill="#ff5307" stroke="none" /><path d="M 94.30408787586889 120.21278271476187 l -3.4426945532101145 12.216908449574323 a33.692714361080654,33.692714361080654 0 0,0 -0.5553521777035484,-0.16165492514014543 l 3.6519067432952697 -12.156009830131662" fill="#ff980e" stroke="none" /><path d="M 93.27111125876986 119.89276391827306 l -1.9683673700733288 5.819128373661066 a27.143022475355,27.143022475355 0 0,0 -0.44009726105288677,-0.15308867270509638 l 2.067970403171237 -5.7844812683873785" fill="#ff3d05" stroke="none" /><path d="M 89.97174638481275 118.45085714620012 l -9.105675666388516 16.75341763253042 a40.068044779458674,40.068044779458674 0 0,0 -0.601508761235518,-0.3336467702322856 l 9.391928615780136 -16.59463794686499" fill="#ffea16" stroke="none" /><line stroke="#e1ed5e" stroke-width="0.3" x1="58.13341422392154" x2="55.67067388415222" y1="173.97424548756322" y2="178.32567169271397" /><path d="M 57.64086615596768 174.84453072859336 a86.0,86.0 0 0,1 -31.369924170532247,-30.572349798747897" fill="none" id="id20" stroke="none" /><text fill="#e1ed5e" style="font-size:6.75px; font-family:Arial;" text-anchor="middle"><textPath startOffset="22.145653131862474" xlink:href="#id20">August</textPath></text><path d="M 89.34428304082925 118.09573695890944 l -4.440635043908966 7.541169120106341 a29.751483947950646,29.751483947950646 0 0,0 -0.43786710152947894,-0.2629266135247615 l 4.569434901995872 -7.463828506045661" fill="#ff6209" stroke="none" /><path d="M 87.83215693770417 117.11559508785305 l -7.110626666170036 10.001986894141771 a33.2719498620322,33.2719498620322 0 0,0 -0.4626686276951956,-0.33493640646417383 l 7.281276304239186 -9.878449716304532" fill="#ff920d" stroke="none" /><path d="M 87.2517909369889 116.68781488649013 l -5.953021123604187 7.792695745343188 a30.806353424059704,30.806353424059704 0 0,0 -0.41748484888285115,-0.3246387436258376 l 6.085915917122267 -7.689355950096558" fill="#ff710a" stroke="none" /><path d="M 85.86807049272751 115.53346607816431 l -8.415430700754587 9.2500325066045 a33.50530188569803,33.50530188569803 0 0,0 -0.4221193039092235,-0.3907073258230878 l 8.572979775977778 -9.104207434649034" fill="#ff950d" stroke="none" /><path d="M 84.3458050057657 113.99807769240083 l -6.96705743112237 6.2299857159176595 a30.346261887465786,30.346261887465786 0 0,0 -0.3439083133062808,-0.3913045301642198 l 7.072976808387244 -6.10946890794214" fill="#ff6a09" stroke="none" /><path d="M 84.1078160697243 113.72728997021213 l -10.81621579141475 9.342789587671339 a35.29259393273138,35.29259393273138 0 0,0 -0.39209304916391136,-0.46188462601113817 l 10.975003404085774 -9.155738179210648" fill="#ffad10" stroke="none" /><path d="M 82.78059297857968 112.02048342749411 l -7.207503350777992 5.031397101762039 a29.789940918293787,29.789940918293787 0 0,0 -0.28911884280063693,-0.4218330320674266 l 7.292811930393954 -4.906929334624562" fill="#ff6209" stroke="none" /><line stroke="#e1ed5e" stroke-width="0.3" x1="26.387840678322732" x2="22.057713659400548" y1="142.50000000000003" y2="145.00000000000006" /><path d="M 25.521815274538298 143.00000000000003 a86.0,86.0 0 0,1 -11.493303480769221,-40.785679425670985" fill="none" id="id21" stroke="none" /><text fill="#e1ed5e" style="font-size:6.75px; font-family:Arial;" text-anchor="middle"><textPath startOffset="21.40746469413373" xlink:href="#id21">September</textPath></text><path d="M 81.81346652052679 110.50000000000001 l -11.140501938758788 6.431971793249941 a33.86394358649987,33.86394358649987 0 0,0 -0.28633840522669807,-0.5059325256195051 l 11.249273709006864 -6.239782497531315" fill="#ff9a0e" stroke="none" /><path d="M 81.63589988554817 110.18625677009913 l -26.95884449863192 14.953616598513968 a51.828395126518814,51.828395126518814 0 0,0 -0.42488091633354286,-0.781733030718767 l 27.21157076458079 -14.488628734320613" fill="#89ff24" stroke="none" /><path d="M 81.4637452351635 109.86951160357371 l -16.34482126298302 8.702696696819611 a39.51729224038161,39.51729224038161 0 0,0 -0.3136768453538316,-0.6015167108083456 l 16.491806177311805 -8.420833742906764" fill="#ffe415" stroke="none" /><path d="M 81.29705330413844 109.54985784667822 l -27.88495024165452 14.23825428152562 a52.30971630284968,52.30971630284968 0 0,0 -0.40148974350298705,-0.8032484343228865 l 28.125259898369244 -13.757473991038982" fill="#84ff25" stroke="none" /><path d="M 81.1358732173502 109.22738970284198 l -9.606797327994 4.699165975875069 a31.694518024201678,31.694518024201678 0 0,0 -0.23487259112043854,-0.490793381644885 l 9.68604917707435 -4.53356009216508" fill="#ff7d0b" stroke="none" /><path d="M 80.9802524753101 108.90220220490708 l -23.907952031720377 11.190128734112303 a47.397142865034624,47.397142865034624 0 0,0 -0.33858608339235857,-0.7398716972715618 l 24.096522579967793 -10.778068054626052" fill="#bbff1f" stroke="none" /><path d="M 80.83023694016515 108.57439118712176 l -10.883591796020157 4.868092176660946 a32.92270488701556,32.92270488701556 0 0,0 -0.2263296713352111,-0.517886580464631 l 10.965555349372336 -4.680543526420466" fill="#ff8d0d" stroke="none" /><path d="M 80.68587082218212 108.24405325689762 l -19.619919374086397 8.374576908275602 a42.33248168025168,42.33248168025168 0 0,0 -0.27954386408017146,-0.6708035094219182 l 19.760789082703052 -8.036540889412402" fill="#f7ff18" stroke="none" /><path d="M 80.5471966667186 107.91128576633889 l -32.34059919594393 13.152640147037538 a55.91283860115291,55.91283860115291 0 0,0 -0.35395842143059497,-0.8922064447594495 l 32.56161629234065 -12.595532685064523" fill="#5eff2a" stroke="none" /><path d="M 80.41425534168474 107.57618678355246 l -30.154627754903117 11.66445781078067 a53.33204526559147,53.33204526559147 0 0,0 -0.32296189177156265,-0.8566947881050324 l 30.350420330489115 -11.145094742481492" fill="#79ff26" stroke="none" /><path d="M 80.28708602549918 107.23885506374661 l -5.599739288863936 2.0563018313420085 a26.96535475263851,26.96535475263851 0 0,0 -0.155833850832617,-0.4358950155861123 l 5.634213309740495 -1.9598718593749749" fill="#ff3b05" stroke="none" /><path d="M 80.16572619554312 106.89939002012753 l -5.810071897337778 2.02104460490548 a27.15154913393787,27.15154913393787 0 0,0 -0.1493523691363804,-0.4415337411748719 l 5.8439096880465256 -1.9210091892564467" fill="#ff3d05" stroke="none" /><path d="M 80.05021161711548 106.5578916946017 l -10.589492993037943 3.4809766808687015 a32.14695296941507,32.14695296941507 0 0,0 -0.16783049169985917,-0.5257266248649334 l 10.647688200515057 -3.2986810223123766" fill="#ff830c" stroke="none" /><path d="M 79.94057633289273 106.21446072829308 l -8.614990036287344 2.668945935018703 a30.01894260594794,30.01894260594794 0 0,0 -0.14827024746136913,-0.4935434315143866 l 8.659536603752342 -2.5206648999135925" fill="#ff6609" stroke="none" /><path d="M 79.83685265289637 105.86919833188381 l -32.45693029349465 9.447739376065805 a54.80402495849917,54.80402495849917 0 0,0 -0.25518191432498444,-0.9055505904200795 l 32.614330699894204 -8.889180861742728" fill="#69ff28" stroke="none" /><path d="M 79.73907114497094 105.5222062557868 l -60.78278656508718 16.566618767360406 a84.0,84.0 0 0,0 -0.36724207678106957,-1.3944779825087894 l 61.05821812267298 -15.520760280478815" fill="#4dd2ff" stroke="none" /><path d="M 79.64726062577567 105.17358676015961 l -10.448711344268206 2.656021564345102 a31.781002704113625,31.781002704113625 0 0,0 -0.12986697389677876,-0.529901570712363 l 10.492765844681278 -2.4762641690246396" fill="#ff7e0b" stroke="none" /><path d="M 79.56144815229197 104.8234425847677 l -20.965716442750853 4.947851993803036 a42.54164583569264,42.54164583569264 0 0,0 -0.16163625091184783,-0.7121991454073968 l 21.047563555220368 -4.587218514456613" fill="#f5ff19" stroke="none" /><path d="M 79.48165901384964 104.47187691870673 l -6.678643736015857 1.4555793176219187 a27.83542195497195,27.83542195497195 0 0,0 -0.09774513024425288,-0.467745832354216 l 6.702646577084477 -1.3407170339822936" fill="#ff4706" stroke="none" /><path d="M 79.407916724674 104.11899336999214 l -10.431666670656544 2.086625489995355 a31.63831168293094,31.63831168293094 0 0,0 -0.10195627892936614,-0.5334783339810649 l 10.465949241868067 -1.9072445909809759" fill="#ff7c0b" stroke="none" /><path d="M 79.34024301695615 103.76489593502545 l -29.109667835740645 5.3047511737272295 a50.58907140351508,50.58907140351508 0 0,0 -0.14835891406113647,-0.8556947914574365 l 29.196441567294016 -4.804263349349201" fill="#97ff23" stroke="none" /><path d="M 79.2786578344484 103.40968896794605 l -32.529910457298335 5.3527843866657285 a53.96736833673534,53.96736833673534 0 0,0 -0.14257281278793255,-0.9154197329335045 l 32.61700476222453 -4.793576471800774" fill="#72ff27" stroke="none" /><path d="M 79.17382384314188 102.69636545807758 l -22.998813640646908 2.9776568780718153 a44.190771210995436,44.190771210995436 0 0,0 -0.09094442563408774,-0.7531503065736515 l 23.046540152540658 -2.5824128945747646" fill="#e1ff1b" stroke="none" /><path d="M 79.0935383218832 101.97986365728391 l -10.770747859332692 1.0200010205831331 a31.81893763413536,31.81893763413536 0 0,0 -0.0468289567560782,-0.544223461573708 l 10.786670438786512 -0.8349565116337632" fill="#ff7e0b" stroke="none" /><path d="M 79.06263194458094 101.62068470465958 l -23.848200105748738 1.8460015147435995 a44.91953949966992,44.91953949966992 0 0,0 -0.05291102254815158,-0.769314655476905 l 23.876375089461956 -1.436343435112351" fill="#d8ff1c" stroke="none" /><path d="M 79.03789590574601 101.26102812881392 l -22.695045323399377 1.3652775698866164 a43.73607409105599,43.73607409105599 0 0,0 -0.038651048501884396,-0.7498200152259675 l 22.715137961357836 -0.9754857612839182" fill="#e6ff1a" stroke="none" /><path d="M 79.01933749520258 100.90099992219065 l -11.811934327059198 0.5072552836292885 a32.82282117218768,32.82282117218768 0 0,0 -0.01934250884058584,-0.5631360403653044 l 11.818901522896633 -0.3044129786998642" fill="#ff8c0c" stroke="none" /><line stroke="#e1ed5e" stroke-width="0.3" x1="15.003131293944662" x2="10.003315487706104" y1="100.72959589197737" y2="100.7725132973878" /><path d="M 14.003168132696942 100.73817937305945 a86.0,86.0 0 0,1 10.791469493833604,-42.45332614584628" fill="none" id="id22" stroke="none" /><text fill="#e1ed5e" style="font-size:6.75px; font-family:Arial;" text-anchor="middle"><textPath startOffset="22.145653131862435" xlink:href="#id22">October</textPath></text><path d="M 79.00077361379809 100.18025310272382 l -1.9476606871107789 0.016718324544356015 a22.947732439143632,22.947732439143632 0 0,0 0.0,-0.3939428545363464 l 1.9476606871107789 0.0167183245443553" fill="#ff0000" stroke="none" /><path d="M 79.00077361379809 99.81974689727619 l -6.661337123557122 -0.05717956760537923 a27.66158252794573,27.66158252794573 0 0,0 0.008151695026825563,-0.4747953681606959 l 6.65937399693163 0.17152185173512755" fill="#ff4406" stroke="none" /><path d="M 79.17382384314186 97.30363454192245 l -3.397791264130693 -0.4399121052926799 a24.426150629348612,24.426150629348612 0 0,0 0.05740783204794353,-0.4153744750193658 l 3.3897389155275417 0.49817488851211267" fill="#ff1602" stroke="none" /><path d="M 79.22317932658666 96.9465228501225 l -33.40345035956974 -4.90915689186899 a54.76226173278717,54.76226173278717 0 0,0 0.14467278895565164,-0.9289030863515191 l 33.31425607847582 5.481848160151959" fill="#6aff28" stroke="none" /><path d="M 79.2786578344484 96.59031103205396 l -18.063472787542256 -2.972337573232518 a39.30638795053599,39.30638795053599 0 0,0 0.11527100360260957,-0.6648525167026882 l 18.00978696644741 3.2819831228557987" fill="#ffe115" stroke="none" /><path d="M 79.34024301695615 96.23510406497455 l -11.66533487020744 -2.1258126061018143 a32.85744984684055,32.85744984684055 0 0,0 0.10588502177565234,-0.5540351766815597 l 11.627123556149629 2.3257503478166885" fill="#ff8d0c" stroke="none" /><path d="M 79.407916724674 95.88100663000787 l -35.324334709947614 -7.0658562576813235 a57.02408843197318,57.02408843197318 0 0,0 0.20024222948225934,-0.9582315565756833 l 35.19783476964099 7.671204265542416" fill="#52ff2b" stroke="none" /><path d="M 79.48165901384962 95.52812308129327 l -21.610507202529462 -4.709909462259517 a43.11780433707784,43.11780433707784 0 0,0 0.1638253552181313,-0.7218447428977283 l 21.52647098575367 5.080188539096254" fill="#eeff19" stroke="none" /><path d="M 79.56144815229197 95.17655741523228 l -32.80134630780946 -7.741028415207587 a54.70240110926663,54.70240110926663 0 0,0 0.22353087355636966,-0.9120822442076264 l 32.663627907736796 8.302966484023331" fill="#6aff28" stroke="none" /><path d="M 79.64726062577567 94.8264132398404 l -22.020294452399497 -5.597472740108316 a43.72058689485445,43.72058689485445 0 0,0 0.19114332296850933,-0.7258023310385715 l 21.92096164862626 5.974655575519671" fill="#e7ff1a" stroke="none" /><path d="M 79.83685265289637 94.1308016681162 l -11.173908217132292 -3.252561831723961 a32.63767087153113,32.63767087153113 0 0,0 0.16120472996693105,-0.5365981170629561 l 11.116427167161731 3.4438975523776403" fill="#ff8a0c" stroke="none" /><path d="M 79.94057633289273 93.78553927170692 l -3.522024810027061 -1.0911322892031727 a24.68717079004864,24.68717079004864 0 0,0 0.12888499934392272,-0.4037304247548597 l 3.502775094905881 1.151431747649424" fill="#ff1a02" stroke="none" /><path d="M 80.05021161711548 93.44210830539832 l -30.351598270329166 -9.977173210801702 a52.94938971000522,52.94938971000522 0 0,0 0.2912584014453242,-0.8610537106467543 l 30.175854447311476 10.496728595922619" fill="#7dff26" stroke="none" /><path d="M 80.16572619554312 93.10060997987247 l -14.124896014285405 -4.9133720526940285 a35.955063100588056,35.955063100588056 0 0,0 0.20778573066412656,-0.5812136697032307 l 14.038470113577334 5.1551206787781805" fill="#ffb610" stroke="none" /><path d="M 80.41425534168474 92.42381321644754 l -18.618902702477644 -7.202191544903659 a40.96334393065979,40.96334393065979 0 0,0 0.25932005809333286,-0.6536559467949644 l 18.49252396941818 7.520748508912206" fill="#fff617" stroke="none" /><path d="M 80.5471966667186 92.08871423366112 l -8.66169622043257 -3.522636447150069 a30.35061222347745,30.35061222347745 0 0,0 0.20042121513769368,-0.4809379555489474 l 8.599949160758397 3.67080691214028" fill="#ff6a09" stroke="none" /><path d="M 80.68587082218212 91.75594674310238 l -13.828577412028086 -5.902597399152896 a36.03563132352413,36.03563132352413 0 0,0 0.2477297239640282,-0.5668540888444239 l 13.725213806047082 6.139113557773186" fill="#ffb711" stroke="none" /><path d="M 80.83023694016515 91.42560881287825 l -14.198896898109266 -6.350985979846909 a36.5545394029958,36.5545394029958 0 0,0 0.2611308947865569,-0.5706181317319025 l 14.087781538467663 6.593793093793482" fill="#ffbe11" stroke="none" /><path d="M 80.9802524753101 91.09779779509293 l -32.162165536079705 -15.053517433825297 a56.51074878259645,56.51074878259645 0 0,0 0.41877355518043125,-0.8750756668114743 l 31.899012722939368 15.603405602701859" fill="#57ff2a" stroke="none" /><path d="M 81.29705330413844 90.45014215332179 l -7.89867209488384 -4.033118251914579 a29.868769006825197,29.868769006825197 0 0,0 0.23708965633757895,-0.45465067747028326 l 7.8282743695713215 4.168115172489348" fill="#ff6409" stroke="none" /><line stroke="#e1ed5e" stroke-width="0.3" x1="26.387840678322718" x2="22.05771365940052" y1="57.49999999999999" y2="54.99999999999999" /><path d="M 25.521815274538284 56.99999999999999 a86.0,86.0 0 0,1 29.574782752854787,-30.34633250058573" fill="none" id="id23" stroke="none" /><text fill="#e1ed5e" style="font-size:6.75px; font-family:Arial;" text-anchor="middle"><textPath startOffset="21.40746469413373" xlink:href="#id23">November</textPath></text><path d="M 81.81346652052679 89.5 l -2.656088558276951 -1.533493444112683 a24.066986888225365,24.066986888225365 0 0,0 0.20964212475325297,-0.3560181599771958 l 2.6293727233939186 1.5788627723834516" fill="#ff1101" stroke="none" /><path d="M 81.99639281039701 89.18935116829357 l -7.323306531556548 -4.397435156512414 a29.542145779069223,29.542145779069223 0 0,0 0.26479896354046284,-0.43252920652865623 l 7.246739603560692 4.522501479165614" fill="#ff5f08" stroke="none" /><path d="M 82.18462484594161 88.88188828441811 l -8.584808168140821 -5.3575552265867685 a31.119403603459276,31.119403603459276 0 0,0 0.2867168592582333,-0.4507665251584558 l 8.491573617256698 5.504135426423896" fill="#ff750a" stroke="none" /><path d="M 82.37810715431573 88.57770195909679 l -8.511578528191029 -5.517102367999052 a31.14324344480321,31.14324344480321 0 0,0 0.29463816024879075,-0.4461197277134258 l 8.41561592902151 5.662401974051539" fill="#ff750a" stroke="none" /><path d="M 82.576782715395 88.27688183743585 l -18.499773173735278 -12.447473009933816 a43.297560221079934,43.297560221079934 0 0,0 0.4202136735196724,-0.6131043079029791 l 18.28336976340029 12.76321205290683" fill="#ecff1a" stroke="none" /><path d="M 82.78059297857968 87.97951657250589 l -8.234843325152932 -5.748560191118974 a31.042837689653936,31.042837689653936 0 0,0 0.3087800043882583,-0.43433774575144507 l 8.134948222234701 5.88907516357994" fill="#ff740a" stroke="none" /><path d="M 82.98947788004972 87.6856937992154 l -12.06139664249651 -8.731521020781658 a35.89015608729398,35.89015608729398 0 0,0 0.3655634239949379,-0.4959569931375434 l 11.909731198917752 8.937284323188065" fill="#ffb510" stroke="none" /><path d="M 83.2033758604659 87.39550010848427 l -8.432249470663825 -6.327717204081215 a31.54243027723379,31.54243027723379 0 0,0 0.32871421407677437,-0.43029745809452463 l 8.322383279232744 6.471535575416624" fill="#ff7b0b" stroke="none" /><path d="M 83.42222388311158 87.10902102172516 l -7.916456919300539 -6.155884782709704 a31.02822056065473,31.02822056065473 0 0,0 0.33057402556553184,-0.4176694823006414 l 7.8096164630934455 6.290874208925028" fill="#ff740a" stroke="none" /><path d="M 83.8745106332314 86.54754324733833 l -12.232114648082112 -10.204465089663115 a36.92971238064197,36.92971238064197 0 0,0 0.4102810793582092,-0.48331007984687024 l 12.055139005216787 10.41294195195954" fill="#ffc212" stroke="none" /><path d="M 84.10781606972428 86.27271002978789 l -11.540501258667216 -9.968410123766692 a36.249667855298156,36.249667855298156 0 0,0 0.4108104707017532,-0.4674269042206248 l 11.367679724006871 10.165049305798616" fill="#ffba11" stroke="none" /><path d="M 84.83555147118756 85.47280134310135 l -6.8871889599438845 -6.59777122910906 a30.53750265853867,30.53750265853867 0 0,0 0.3658875585133709,-0.37543286796933534 l 6.7729146002797105 6.715026789146126" fill="#ff6d0a" stroke="none" /><path d="M 85.08716467003674 85.21462403516908 l -6.673561878306589 -6.616523230634323 a30.397595852403455,30.397595852403455 0 0,0 0.37057286413518087,-0.3674055937299983 l 6.558997094041431 6.730108834592994" fill="#ff6b09" stroke="none" /><path d="M 85.34317274990677 84.96080404539775 l -3.6423353920989263 -3.737356984528171 a26.218663079595956,26.218663079595956 0 0,0 0.3250209230212591,-0.3113626919836418 l 3.5776419832123665 3.7993318068173814" fill="#ff3004" stroke="none" /><path d="M 85.86807049272753 84.46653392183569 l -6.655736317750027 -7.315820126598574 a30.890401915805114,30.890401915805114 0 0,0 0.3953014919170729,-0.3534810316222059 l 6.529169799009563 7.428996688104181" fill="#ff720a" stroke="none" /><path d="M 86.13680546590413 84.22622945171909 l -6.914921196603985 -7.8679109671592675 a31.474739048892253,31.474739048892253 0 0,0 0.40890260388796995,-0.3532003302863596 l 6.778839112953167 7.985455429910338" fill="#ff7a0b" stroke="none" /><path d="M 86.96720088162412 83.53348406188908 l -6.476747618582065 -8.183159037426641 a31.436108065108648,31.436108065108648 0 0,0 0.42601922546198584,-0.3312751264734895 l 6.335318448484835 8.293135215520936" fill="#ff790b" stroke="none" /><path d="M 87.54013794807813 83.09580414077388 l -6.1165487970695755 -8.29827316043437 a31.308904240127497,31.308904240127497 0 0,0 0.43537117059524877,-0.31517515264367035 l 5.973196616100359 8.402049084451118" fill="#ff770b" stroke="none" /><path d="M 87.83215693770416 82.88440491214696 l -5.948090678464748 -8.366734439063924 a31.265574893451294,31.265574893451294 0 0,0 0.44010749598945137,-0.30722921267127373 l 5.803588091301531 8.467608467540325" fill="#ff770a" stroke="none" /><path d="M 88.12776184653039 82.6780497279521 l -5.742692374377223 -8.37875979665721 a31.157860573802413,31.157860573802413 0 0,0 0.44378246440860813,-0.29859664743623204 l 5.598013621871625 8.476106118150552" fill="#ff750a" stroke="none" /><path d="M 89.03521579738668 82.08984904055464 l -5.309474019087187 -8.672626787715549 a31.168823420551817,31.168823420551817 0 0,0 0.4587267779018111,-0.2754522498391632 l 5.159814484627941 8.762493038090636" fill="#ff760a" stroke="none" /><line stroke="#e1ed5e" stroke-width="0.3" x1="56.869717070023135" x2="54.33264160355391" y1="26.7553504044142" y2="22.446841604673864" /><path d="M 56.362301976729285 25.89364864446614 a86.0,86.0 0 0,1 42.16139366436587,-11.88097634709845" fill="none" id="id24" stroke="none" /><text fill="#e1ed5e" style="font-size:6.75px; font-family:Arial;" text-anchor="middle"><textPath startOffset="22.145653131862474" xlink:href="#id24">December</textPath></text><path d="M 91.26138138417902 80.90454125486306 l -4.3207092637636775 -9.441529505196176 a31.383207979206773,31.383207979206773 0 0,0 0.49179967244531186,-0.2199757380454972 l 4.1579961884627465 9.514308994151518" fill="#ff780b" stroke="none" /><path d="M 91.5904679813234 80.7573450057729 l -4.188378570238371 -9.583829829450417 a31.45907783925025,31.45907783925025 0 0,0 0.4967012751894554,-0.21201223869485591 l 4.023242219878485 9.654316717804678" fill="#ff7a0b" stroke="none" /><path d="M 91.92203290615298 80.6158196554323 l -3.9952625967538 -9.587175807929588 a31.386340221135175,31.386340221135175 0 0,0 0.49911087125748205,-0.20298404625562386 l 3.830097264305877 9.654347110764503" fill="#ff790b" stroke="none" /><path d="M 92.25597844496254 80.48000691201159 l -3.762975751439359 -9.485157051323428 a31.204322162407024,31.204322162407024 0 0,0 0.49960755433757775,-0.19325893481044176 l 3.599595934608252 9.54835587427191" fill="#ff760a" stroke="none" /><path d="M 92.592206182469 80.34994680014964 l -3.5368005074991595 -9.3817835433195 a31.0263064128096,31.0263064128096 0 0,0 0.49998279400942364,-0.183600607443576 l 3.3752285618356086 9.441114999771798" fill="#ff740a" stroke="none" /><path d="M 93.61358852112211 79.99465700312896 l -3.109159851014391 -9.739398949998755 a31.22363765429882,31.22363765429882 0 0,0 0.5120072429562056,-0.15862115266902924 l 2.941511975186569 9.791336690474425" fill="#ff760a" stroke="none" /><path d="M 93.95794788825049 79.88797359093562 l -2.671102352059142 -8.891231001046796 a30.283791062338246,30.283791062338246 0 0,0 0.49916338396929705,-0.14529918618835935 l 2.518078955708221 8.935773881537676" fill="#ff6909" stroke="none" /><path d="M 94.30408787586887 79.78721728523814 l -1.3980622059011674 -4.961229557928199 a26.15445212006375,26.15445212006375 0 0,0 0.4331907093200773,-0.11806805413870479 l 1.3126900956464123 4.984498106211044" fill="#ff2f04" stroke="none" /><path d="M 96.05791012581881 79.37332000966035 l -1.9025071617749976 -9.954721393411477 a31.13489079966081,31.13489079966081 0 0,0 0.525831635301001,-0.09582404032522557 l 1.7313407929229583 9.985913607668063" fill="#ff750a" stroke="none" /><path d="M 96.41257539226777 79.30868818359171 l -1.763653684683325 -10.17228578052503 a31.3240434094481,31.3240434094481 0 0,0 0.530603187432515,-0.08731055257382783 l 1.588772994197737 10.201062331594526" fill="#ff780b" stroke="none" /><path d="M 96.76829788921471 79.25015418208739 l -1.984915165870395 -12.744579246952576 a33.89822423427181,33.89822423427181 0 0,0 0.5757450261355197,-0.08461469197306012 l 1.7658450341271903 12.77677501222452" fill="#ff9b0e" stroke="none" /><path d="M 97.12497278360702 79.19773525538626 l -1.3693029738340645 -9.907594201149847 a31.001770517703797,31.001770517703797 0 0,0 0.5278009771776775,-0.06833440343934152 l 1.199024174765593 9.929640200789581" fill="#ff730a" stroke="none" /><path d="M 97.48249496171623 79.15144685158666 l -0.5663953471660077 -4.690565984509248 a25.724638922111033,25.724638922111033 0 0,0 0.4388673604797665,-0.04917600313147259 l 0.48579208508544197 4.699597748147691" fill="#ff2904" stroke="none" /><path d="M 98.1996594967304 79.07731436759882 l -0.5071462243943349 -5.893807867673648 a26.91558690866504,26.91558690866504 0 0,0 0.4606807837522134,-0.03565960621132202 l 0.4058964458669043 5.901645240880024" fill="#ff3a05" stroke="none" /><path d="M 98.9189461498227 79.02784411241856 l -0.47259695427150616 -9.168254657575803 a30.18042707870103,30.18042707870103 0 0,0 0.5176291603720741,-0.022229223367575147 l 0.31514203329861196 9.175016449369206" fill="#ff6809" stroke="none" /></svg>