<?xml version="1.0" encoding="utf-8" ?>
<svg baseProfile="full" height="250mm" version="1.1" viewBox="0,0,200,250" width="200mm" xmlns="http://www.w3.org/2000/svg" xmlns:ev="http://www.w3.org/2001/xml-events" xmlns:xlink="http://www.w3.org/1999/xlink"><defs /><rect fill="#1a1a1a" height="250" width="200" x="0" y="0" /><text alignment-baseline="middle" fill="#e1ed5e" style="dominant-baseline: central; font-size:7.2px; " text-anchor="middle" x="100.0" y="125.0">2021</text><line stroke="#e1ed5e" stroke-width="0.3" x1="100.0" x2="100.0" y1="40.0" y2="35.0" /><path d="M 100.0 39.0 a86.0,86.0 0 0,1 42.46469731375804,11.215312516191453" fill="none" id="id25" stroke="none" /><text fill="#e1ed5e" style="font-size:5.4px;" text-anchor="middle"><textPath startOffset="22.20632615414155" xlink:href="#id25">January</textPath></text><path d="M 101.08401301168833 104.027996857942 l 0.3264563097840024 -6.315830788665125 a27.324262192006916,27.324262192006916 0 0,0 0.4695062279206205,0.028321897834064594 l -0.4351245865442348 6.309275621450757" fill="#ff4906" stroke="none" /><path d="M 101.44485096284872 104.0497635885617 l 0.42416111006695534 -6.150305990674868 a27.164914956933664,27.164914956933664 0 0,0 0.4662143740769794,0.036187208266327514 l -0.529965673506276 6.142093520220076" fill="#ff4706" stroke="none" /><path d="M 103.59715602781102 104.31037775812273 l 1.0371748262827922 -5.965478057851695 a27.05496986606744,27.05496986606744 0 0,0 0.4581371087041704,0.08372162827698414 l -1.1397070560898637 5.946740948223972" fill="#ff4506" stroke="none" /><path d="M 103.95276090670814 104.375362276772 l 1.1741274546726619 -6.126339023547617 a27.237836572984136,27.237836572984136 0 0,0 0.45971448642430557,0.09221440120736674 l -1.2794083505640927 6.105220666263042" fill="#ff4806" stroke="none" /><path d="M 104.66035177308747 104.52364482259891 l 1.3887554261600117 -6.101824657273926 a27.257867510726392,27.257867510726392 0 0,0 0.45660343496130223,0.10806328079002749 l -1.4935825480838374 6.077015464343029" fill="#ff4806" stroke="none" /><path d="M 105.71112130821622 104.79150937346287 l 0.4778259465404736 -1.690760997825021 a22.75698332005559,22.75698332005559 0 0,0 0.37604265843638524,0.10977716376622963 l -0.506858822700286 1.682285505140088" fill="#ff0701" stroke="none" /><path d="M 106.40334571778207 105.00007090966166 l 1.824465244060593 -5.69845470121477 a26.9833986503142,26.9833986503142 0 0,0 0.4411363938539825,0.14543573333606746 l -1.922284460156993 5.666205243619466" fill="#ff4406" stroke="none" /><path d="M 106.74666289553966 105.11325718540242 l 2.1153082843582 -6.235170257643997 a27.584214249223876,27.584214249223876 0 0,0 0.4483327965254469,0.15641450946250557 l -2.2223230849469204 6.197834895009284" fill="#ff4c07" stroke="none" /><path d="M 107.08798089147638 105.2323363322302 l 2.0956891454638833 -5.8446656126773195 a27.209028033309874,27.209028033309874 0 0,0 0.43951348606895924,0.16187652612608758 l -2.195984957305419 5.807725818744907" fill="#ff4706" stroke="none" /><path d="M 108.43124777332544 105.76684994638697 l 2.4808320894346876 -5.659211675034947 a27.17909416005459,27.17909416005459 0 0,0 0.4268643456124338,0.19152158907928352 l -2.577878553513902 5.615669755439132" fill="#ff4706" stroke="none" /><path d="M 108.76106565485865 105.91482961587045 l 3.17435539742645 -6.91503933497717 a28.608830474747872,28.608830474747872 0 0,0 0.44578250859874147,0.20930086507795728 l -3.292916117324789 6.85937348725921" fill="#ff5b08" stroke="none" /><path d="M 109.08828744355905 106.06846463323043 l 2.750427984232814 -5.729332944256574 a27.35532139884323,27.35532139884323 0 0,0 0.42274227590900076,0.20743779883899974 l -2.848641527152247 5.6811399852827416" fill="#ff4906" stroke="none" /><path d="M 109.41281617654863 106.2277094730956 l 3.0810220763437544 -6.144584197982123 a27.87376257962182,27.87376257962182 0 0,0 0.4270519419730626,0.2187525914660187 l -3.1863345059055725 6.090639081203604" fill="#ff5007" stroke="none" /><path d="M 109.73455568895987 106.39251694778311 l 3.2951504218762193 -6.298639361538085 a28.108507164623802,28.108507164623802 0 0,0 0.42678746400641693,0.22797508268634736 l -3.4030829324109475 6.240985552349984" fill="#ff5407" stroke="none" /><line stroke="#e1ed5e" stroke-width="0.3" x1="143.23703022742887" x2="145.7803849466894" y1="51.81831364943548" y2="47.513508569990506" /><path d="M 143.74570117128098 50.95735263354649 a86.0,86.0 0 0,1 28.547481713284135,27.462654790039103" fill="none" id="id26" stroke="none" /><text fill="#e1ed5e" style="font-size:5.4px;" text-anchor="middle"><textPath startOffset="19.985693538727396" xlink:href="#id26">February</textPath></text><path d="M 110.68208982089419 106.91981866633111 l 3.193670741437616 -5.40551026001308 a27.278461115259166,27.278461115259166 0 0,0 0.4022117303091127,0.2423280671334733 l -3.2862445379643663 5.349735583420991" fill="#ff4806" stroke="none" /><path d="M 110.99172775467656 107.1063720568725 l 3.2316426472507715 -5.260848200179109 a27.174142692298076,27.174142692298076 0 0,0 0.39645889864873113,0.24826252596262616 l -3.3217206982717657 5.204441332893539" fill="#ff4706" stroke="none" /><path d="M 111.2981086023043 107.29822771554956 l 0.6793589347545329 -1.0644133089656127 a22.262736811269054,22.262736811269054 0 0,0 0.3212544452428882,0.2089528274597338 l -0.6975804057817012 1.052561557346351" fill="#ff0000" stroke="none" /><path d="M 112.19680574252982 107.90503203632743 l 1.4954231900299846 -2.0959759518473065 a23.57476323338704,23.57476323338704 0 0,0 0.32831190111688285,0.2385325586117047 l -1.531280407500656 2.0699241584189267" fill="#ff1302" stroke="none" /><path d="M 112.48926042617603 108.11751280151076 l 1.5993447507886018 -2.1619308397612382 a23.689209658577365,23.689209658577365 0 0,0 0.32573097158753705,0.24533381468849652 l -1.636321876134522 2.1340804355668945" fill="#ff1502" stroke="none" /><path d="M 114.16331599549186 109.49514656593476 l 2.0009591927525694 -2.190488372994652 a23.96682945301643,23.96682945301643 0 0,0 0.3022013090282007,0.2808631816532655 l -2.038368385575617 2.1557206052667457" fill="#ff1902" stroke="none" /><path d="M 116.15771136456269 111.58626213691792 l 3.536211215325106 -2.9356762972566957 a25.595974878267487,25.595974878267487 0 0,0 0.278510421736118,0.34142084560552793 l -3.5862201291376326 2.8743712820430667" fill="#ff3004" stroke="none" /><path d="M 116.38621287248628 111.86637796730983 l 5.19585263537455 -4.164498849221428 a27.65882386564589,27.65882386564589 0 0,0 0.29456109967247546,0.37406268343603133 l -5.26676781564099 4.0744437718323585" fill="#ff4d07" stroke="none" /><path d="M 116.60985879189232 112.15038557335679 l 4.920527587106488 -3.8065875852503948 a27.22106910262685,27.22106910262685 0 0,0 0.28351917836030915,0.373078004977639 l -4.98532270569091 3.721324804391722" fill="#ff4706" stroke="none" /><path d="M 116.82858285166822 112.43820079747576 l 4.8736800460612795 -3.6379884542626226 a27.081752805295856,27.081752805295856 0 0,0 0.2756372901502717,0.37596895399755353 l -4.935579948725177 3.5535570565935752" fill="#ff4506" stroke="none" /><path d="M 117.04232023915458 112.72973835380427 l 5.228825215828953 -3.7646900539424375 a27.44309741816324,27.44309741816324 0 0,0 0.2727156240315863,0.3857369098407036 l -5.292853459664423 3.674126643769941" fill="#ff4a06" stroke="none" /><path d="M 117.2510076193507 113.02491185347247 l 5.139212337492346 -3.5674739761960064 a27.256066976996753,27.256066976996753 0 0,0 0.26422230469575736,0.3877136288210794 l -5.199859107856837 3.4784823241045206" fill="#ff4806" stroke="none" /><path d="M 117.45458315368197 113.32363383020206 l 3.9895236905261027 -2.668819933625278 a25.79988532314936,25.79988532314936 0 0,0 0.24375162169012018,0.3712504426715842 l -4.034871947574148 2.59975142697602" fill="#ff3304" stroke="none" /><line stroke="#e1ed5e" stroke-width="0.3" x1="172.23445277983987" x2="176.4835382374775" y1="80.19839476539836" y2="77.56300622218649" /><path d="M 173.08426987136738 79.67131705675598 a86.0,86.0 0 0,1 12.851231095245387,41.99856678651699" fill="none" id="id27" stroke="none" /><text fill="#e1ed5e" style="font-size:5.4px;" text-anchor="middle"><textPath startOffset="22.20632615414155" xlink:href="#id27">March</textPath></text><path d="M 117.84615892207809 113.93136811851018 l 5.227669798457095 -3.2423309043560735 a27.151523487319455,27.151523487319455 0 0,0 0.24292106265370747,0.399298355209957 l -5.282706659397026 3.151864775939035" fill="#ff4606" stroke="none" /><path d="M 118.03404312379186 114.2402003453031 l 5.203268914738303 -3.1044691801937194 a27.059021066959133,27.059021066959133 0 0,0 0.23520773876557102,0.4020462692590912 l -5.255936327974202 3.014443498580733" fill="#ff4506" stroke="none" /><path d="M 118.21658344932153 114.55222093294921 l 5.46493598768582 -3.134311325378799 a27.29995498665676,27.29995498665676 0 0,0 0.23028468661651355,0.40965076163492375 l -5.518078315594766 3.039777053809081" fill="#ff4806" stroke="none" /><path d="M 118.3937258080291 114.86733742301442 l 5.147761965422578 -2.8357786544528345 a26.877167160265365,26.877167160265365 0 0,0 0.21974247225566745,0.40714942799203574 l -5.195812536896711 2.7467482431283403" fill="#ff4206" stroke="none" /><path d="M 118.56541770881063 115.18545643968196 l 5.392100556949888 -2.8505152228643382 a27.099195475801757,27.099195475801757 0 0,0 0.21445860271563355,0.4142657596443532 l -5.440368592825638 2.75727674095964" fill="#ff4606" stroke="none" /><path d="M 118.73160827565052 115.50648371742162 l 22.31525790101009 -11.309774425966538 a46.01762843985896,46.01762843985896 0 0,0 0.3520129160235153,0.7096365585841121 l -22.506630829987014 10.923978278883475" fill="#c6ff1e" stroke="none" /><path d="M 118.89224826269711 115.83032412892265 l 3.9764451279962474 -1.930035665201698 a25.420085239553153,25.420085239553153 0 0,0 0.18767504420175402,0.39529150619238257 l -4.009078366039757 1.8613017433687749" fill="#ff2e04" stroke="none" /><path d="M 119.04729006885535 116.15688171328212 l 5.774877432501592 -2.6811123284362393 a27.366912334727797,27.366912334727797 0 0,0 0.19469301403216824,0.4289802488829081 l -5.820172763497107 2.581310070711268" fill="#ff4906" stroke="none" /><path d="M 119.196687751892 116.48605970444005 l 5.437805374018533 -2.411725965001738 a26.948625842660505,26.948625842660505 0 0,0 0.18441751859828243,0.42566105924886055 l -5.478513602459496 2.317765761166275" fill="#ff4306" stroke="none" /><path d="M 119.7369772167798 117.82701384747503 l 13.460097110123352 -4.89178708178641 a35.321445285566796,35.321445285566796 0 0,0 0.20275673383428353,0.5732205900649348 l -13.542306924767445 4.65936886529486" fill="#ffb510" stroke="none" /><path d="M 119.85752413597 118.16781622104841 l 26.07977348391241 -8.973012150732263 a48.58023807057092,48.58023807057092 0 0,0 0.2652543603039688,0.7930767750966238 l -26.230365137988148 8.522762272713326" fill="#a9ff21" stroke="none" /><path d="M 119.97218684219823 118.5106431181261 l 6.177409655423781 -2.0071620687465175 a27.495312896322837,27.495312896322837 0 0,0 0.142379261883449,0.45138116881242046 l -6.211044401075436 1.900530733507678" fill="#ff4b07" stroke="none" /><path d="M 120.08093135843002 118.85539295169968 l 1.7069907194209835 -0.5223257337381508 a22.785116659581234,22.785116659581234 0 0,0 0.11153217267746951,0.37603104065537746 l -1.7157287892101554 0.49286530633624354" fill="#ff0801" stroke="none" /><path d="M 120.18372546131832 119.20196356495316 l 5.992558379007034 -1.7214399733694477 a27.234910705673467,27.234910705673467 0 0,0 0.12555712660728474,0.45169578815144024 l -6.021302276180681 1.6180328817990557" fill="#ff4706" stroke="none" /><path d="M 120.28053869075195 119.5502522615342 l 5.947618620495265 -1.5982327501528186 a27.158613088879918,27.158613088879918 0 0,0 0.1174334137993098,0.45251884747308857 l -5.974248366164877 1.4956174771308797" fill="#ff4606" stroke="none" /><path d="M 120.37134235888165 119.90015583598534 l 6.369205710597875 -1.594492694706474 a27.565758778495056,27.565758778495056 0 0,0 0.11127010382565526,0.4612864159655968 l -6.39570861468435 1.4846210470814711" fill="#ff4c07" stroke="none" /><path d="M 120.6074358757038 120.95851677861258 l 6.028578860839579 -1.1823111066243701 a27.14342108553607,27.14342108553607 0 0,0 0.08597261924353776,0.4592691697312327 l -6.048037203992975 1.0783638594305747" fill="#ff4606" stroke="none" /><path d="M 120.67395015179393 121.31383870115 l 6.625011444878004 -1.1812382545784799 a27.72949481453431,27.72949481453431 0 0,0 0.0797396463254455,0.47062790641534796 l -6.6443629527236725 1.067024559847294" fill="#ff4e07" stroke="none" /><path d="M 120.73433829027371 121.67025291283417 l 7.8522370272898785 -1.260998205166691 a28.952844950467462,28.952844950467462 0 0,0 0.07478672412993262,0.4927510706700711 l -7.872779644859111 1.1256480221045377" fill="#ff5f08" stroke="none" /><path d="M 120.78858239683441 122.02765380044208 l 6.115215092823024 -0.8743518915171213 a27.17740615968305,27.17740615968305 0 0,0 0.06222849635179848,0.4636745779653927 l -6.129359588232658 0.7689589714870643" fill="#ff4706" stroke="none" /><path d="M 120.83666639777658 122.38593545837742 l 10.952989387694362 -1.3741075773135876 a32.03884722971452,32.03884722971452 0 0,0 0.06393984655091804,0.5477975578420211 l -10.97501958724887 1.1853662811467136" fill="#ff890c" stroke="none" /><path d="M 120.87857604477298 122.74499172005257 l 62.63572813431897 -6.7650248398422885 a84.0,84.0 0 0,0 0.1428914972710853,1.43889787718226 l -62.74289675727228 5.6858514319555935" fill="#4dd2ff" stroke="none" /><path d="M 120.94382443527127 123.46500227214037 l 6.717104851354073 -0.4923045796382449 a27.73512148243944,27.73512148243944 0 0,0 0.03079841149482033,0.4764377941252832 l -6.72458385385331 0.3766077212599265" fill="#ff4e07" stroke="none" /><path d="M 120.96714384426684 123.82574320788733 l 6.1561683197406305 -0.3447738288312888 a27.165815223798486,27.165815223798486 0 0,0 0.022129003708321073,0.4671082931831172 l -6.161190931682449 0.23875442902517185" fill="#ff4706" stroke="none" /><path d="M 120.98425023603335 124.18683210126433 l 6.166925828609236 -0.2389766639885833 a27.171554425061714,27.171554425061714 0 0,0 0.014088199366435305,0.46751875022100775 l -6.170125722431317 0.13278776634257647" fill="#ff4706" stroke="none" /><line stroke="#e1ed5e" stroke-width="0.3" x1="184.98032266829074" x2="189.97916517819016" y1="123.17113171792111" y2="123.06355123074" /><path d="M 185.9800911702706 123.14961562048488 a86.0,86.0 0 0,1 -9.607161424134198,41.387399972396054" fill="none" id="id28" stroke="none" /><text fill="#e1ed5e" style="font-size:5.4px;" text-anchor="middle"><textPath startOffset="21.466115282336823" xlink:href="#id28">April</textPath></text><path d="M 120.99513854157772 124.54816195383933 l 6.435867981218063 -0.13850682662668654 a27.43735821690001,27.43735821690001 0 0,0 0.006097616928902908,0.4722671509531518 l -6.437298605264681 0.027703417613072035" fill="#ff4a06" stroke="none" /><path d="M 120.9904718944345 125.63252640178507 l 8.328864352086319 0.2509818086070728 a29.33264503406367,29.33264503406367 0 0,0 -0.01955211753855417,0.5045532757888295 l -8.323310101696562 -0.39431233140990846" fill="#ff6509" stroke="none" /><path d="M 120.95626037817324 126.35467743843564 l 7.975472794031069 0.5155592104679202 a28.99211909244526,28.99211909244526 0 0,0 -0.036479598001703,0.4977351315576854 l -7.965416637365029 -0.6527674785223759" fill="#ff6008" stroke="none" /><path d="M 120.92983693683757 126.71520430193887 l 7.855278096983552 0.643741603220926 a28.881611334788527,28.881611334788527 0 0,0 -0.044870201426955844,0.4951389337728777 l -7.843033299279521 -0.7788619255423742" fill="#ff5e08" stroke="none" /><path d="M 120.89721153311464 127.0752229133903 l 5.918725291986062 0.5877661871072368 a26.947838109153786,26.947838109153786 0 0,0 -0.049812050234266464,0.4611977206515742 l -5.907730940250744 -0.6895602296436024" fill="#ff4306" stroke="none" /><path d="M 120.8583938346157 127.4346265915055 l 6.071704173863109 0.7086994595389211 a27.112924545490273,27.112924545490273 0 0,0 -0.058097175450054696,0.4630916506577554 l -6.058605489166206 -0.8131088644840715" fill="#ff4606" stroke="none" /><path d="M 120.81339534386255 127.79330883721812 l 20.0418816805698 2.6897660995673998 a41.22156925088509,41.22156925088509 0 0,0 -0.10043527187173434,0.7024440575477312 l -19.992612357681466 -3.0343556290955402" fill="#ffff18" stroke="none" /><path d="M 120.70491114924044 128.5080841355445 l 5.887005151531783 0.9974497948384103 a26.970907447564812,26.970907447564812 0 0,0 -0.08149523956611707,0.4570685826808624 l -5.868963469626477 -1.0986371282524912" fill="#ff4406" stroke="none" /><path d="M 120.64145759157962 128.86396538481128 l 6.2486945537258345 1.1697206628326908 a27.357234465930972,27.357234465930972 0 0,0 -0.0906306969235852,0.46212397105584346 l -6.227633923826585 -1.2771083609564793" fill="#ff4906" stroke="none" /><path d="M 120.5718875245553 129.21870165774334 l 5.658468839412569 1.1603889941856393 a26.77622473804735,26.77622473804735 0 0,0 -0.09647851353022381,0.4507154958622213 l -5.637656287157902 -1.2576183094640296" fill="#ff4106" stroke="none" /><path d="M 120.49622156327973 129.57218783832718 l 5.9471677800217995 1.32666248324629 a27.093343741180423,27.093343741180423 0 0,0 -0.10545688497395649,0.45430550040470086 l -5.92345032911729 -1.4288366409995559" fill="#ff4506" stroke="none" /><path d="M 120.32669344350535 130.2749913415812 l 4.25636459914054 1.1045715068946897 a25.397353501216433,25.397353501216433 0 0,0 -0.11345593275128632,0.4222117324104948 l -4.236720590047477 -1.177674172480733" fill="#ff2d04" stroke="none" /><path d="M 120.23288151984713 130.62410040840567 l 23.111247933614752 6.424195130817395 a44.98749807978794,44.98749807978794 0 0,0 -0.21381350268739527,0.7443128525511568 l -22.99724179404126 -6.821065458873134" fill="#d2ff1c" stroke="none" /><path d="M 119.79798401119884 132.00284435728193 l 10.60920773543524 3.7526361514030544 a32.253335810258044,32.253335810258044 0 0,0 -0.1896430702008665,0.5218162807350577 l -10.543040404229147 -3.934700229144243" fill="#ff8c0c" stroke="none" /><path d="M 119.67450827220406 132.34259656027578 l 11.856597808192056 4.424924530693325 a33.655388918858094,33.655388918858094 0 0,0 -0.20723020522445978,0.5410126737176881 l -11.77867332337409 -4.628360771244156" fill="#ff9f0e" stroke="none" /><path d="M 119.54520255179757 132.68017299344265 l 5.853883021516297 2.3002490851386472 a27.289601917711323,27.289601917711323 0 0,0 -0.17555970843044044,0.43572479877745596 l -5.813420698828464 -2.4006732517589167" fill="#ff4806" stroke="none" /><path d="M 119.41010516605496 133.01547362559984 l 12.864914550367653 5.3126133213540925 a34.91868839691766,34.91868839691766 0 0,0 -0.23420299994082663,0.553586709412345 l -12.771560569234516 -5.533274556432601" fill="#ffaf10" stroke="none" /><path d="M 119.12269723197855 133.67885076344098 l 2.7177994333313173 1.2334753513433363 a23.984609723596638,23.984609723596638 0 0,0 -0.1738603050057907,0.3744796296436367 l -2.696164511485695 -1.2800750482658036" fill="#ff1902" stroke="none" /><line stroke="#e1ed5e" stroke-width="0.3" x1="174.80103733775053" x2="179.2010983576182" y1="165.37084112569926" y2="167.7455964860345" /><path d="M 175.68104954172406 165.8457921977663 a86.0,86.0 0 0,1 -30.038265399797805,32.042727171017184" fill="none" id="id29" stroke="none" /><text fill="#e1ed5e" style="font-size:5.4px;" text-anchor="middle"><textPath startOffset="22.206326154141568" xlink:href="#id29">May</textPath></text><path d="M 118.48025628344425 134.97397251340806 l 10.056471446861819 5.427574610138401 a32.427649981958936,32.427649981958936 0 0,0 -0.2693403401382366,0.4889309525411945 l -9.961554697272073 -5.5998760810774" fill="#ff8f0d" stroke="none" /><path d="M 118.30583269289576 135.29060199501023 l 5.609523912680639 3.153387170925662 a27.435107549737957,27.435107549737957 0 0,0 -0.23495949181738823,0.40967167877812055 l -5.554412424710871 -3.2494786955620976" fill="#ff4a06" stroke="none" /><path d="M 118.12598468904814 135.60418214915194 l 20.947353712372298 12.254757913534048 a45.26871894168629,45.26871894168629 0 0,0 -0.3992682133639147,0.6691964914626451 l -20.733304623310154 -12.613516498882799" fill="#cfff1d" stroke="none" /><path d="M 117.55443506779139 136.5257021239791 l 4.7285916229775395 3.1046478170282117 a26.65671431174241,26.65671431174241 0 0,0 -0.2551388950768482,0.3813980304400169 l -4.67444962248997 -3.1855827616740355" fill="#ff3f05" stroke="none" /><path d="M 117.35343817320211 136.82616520977328 l 10.139148770352845 6.909711334888565 a33.26973710064055,33.26973710064055 0 0,0 -0.3265806392800126,0.4704637684179002 l -10.018707223910697 -7.0832163654934845" fill="#ff9a0e" stroke="none" /><path d="M 117.14729908036423 137.12312394758627 l 10.415662385764962 7.363863282902428 a33.7558812076437,33.7558812076437 0 0,0 -0.3395202017725233,0.47156386498601655 l -10.287362391616837 -7.542060753339576" fill="#ffa00e" stroke="none" /><path d="M 116.93607887273984 137.41649034213515 l 3.9770141449911893 2.915701922084246 a25.931324285413176,25.931324285413176 0 0,0 -0.26701698649507344,0.357712888702453 l -3.926235891801024 -2.983727690296014" fill="#ff3505" stroke="none" /><path d="M 116.71984013943494 137.70617746262582 l 10.486179458905925 7.9689312815584925 a34.170566632251706,34.170566632251706 0 0,0 -0.3599188757547535,0.4652436644657221 l -10.347453765933103 -8.148252940137468" fill="#ffa60f" stroke="none" /><path d="M 116.498646956653 137.99209946851258 l 9.574822901672318 7.539833530516054 a33.187137615793254,33.187137615793254 0 0,0 -0.35728654119530645,0.445769895458264 l -9.443618448422159 -7.703531259552568" fill="#ff990e" stroke="none" /><path d="M 116.0416608686014 138.55231037782056 l 2.5898058191625783 2.1879188549780815 a24.39029247955644,24.39029247955644 0 0,0 -0.27370262459842754,0.3183779869902276 l -2.551760684993372 -2.2321739411298367" fill="#ff1f03" stroke="none" /><path d="M 115.80600337817218 138.826433278659 l 4.511298091549673 3.9462956302472 a26.993751719259638,26.993751719259638 0 0,0 -0.3089385400244765,0.347095724752476 l -4.442700701876858 -4.023365524740543" fill="#ff4406" stroke="none" /><path d="M 115.56566222782051 139.09645910891817 l 9.633275206709442 8.724014953480628 a33.99647752726701,33.99647752726701 0 0,0 -0.39655044218079855,0.4303771853237407 l -9.481678356532921 -8.888543393605703" fill="#ffa30f" stroke="none" /><path d="M 115.32070863581623 139.36230785411684 l 13.770805747478885 12.909360542381725 a39.87555775462012,39.87555775462012 0 0,0 -0.47374716285178325,0.49672200623389734 l -13.546552033248137 -13.14448966519813" fill="#ffee16" stroke="none" /><path d="M 115.07121518719521 139.6239007375343 l 7.834375346444861 7.601850679189813 a31.916298402740814,31.916298402740814 0 0,0 -0.3859734853762412,0.3909891029073716 l -7.702361236013084 -7.735580276077849" fill="#ff880c" stroke="none" /><path d="M 114.81725581225074 139.88116024355367 l 4.347560302218034 4.366310627662147 a27.16165148954869,27.16165148954869 0 0,0 -0.3341530455179516,0.32703908493263595 l -4.2717573043242885 -4.440499815517355" fill="#ff4606" stroke="none" /><path d="M 114.55890576462653 140.1340101406311 l 4.3432991359359585 4.514867685094544 a27.264844578928756,27.264844578928756 0 0,0 -0.34102369770422064,0.3224591918053159 l -4.26493960384093 -4.588961513645781" fill="#ff4806" stroke="none" /><path d="M 114.0293411484842 140.62618273729856 l 1.7043185864174208 1.8983067980216917 a23.551131228185497,23.551131228185497 0 0,0 -0.30398639129048316,0.2682326464221878 l -1.67138984222035 -1.9273625862161683" fill="#ff1302" stroke="none" /><path d="M 113.20401910651253 141.32954008644617 l 3.9664134317696305 4.905302439433364 a27.308282455156352,27.308282455156352 0 0,0 -0.368066892175725,0.29241459956826177 l -3.881389046876554 -4.972850953006752" fill="#ff4906" stroke="none" /><path d="M 112.63410532772338 141.77436683061367 l 3.592173896967746 4.769347817203136 a26.970794914206714,26.970794914206714 0 0,0 -0.3732437315155724,0.27611678957783226 l -3.5095451950336094 -4.830474555520737" fill="#ff4406" stroke="none" /><path d="M 112.34349029814194 141.9893568818739 l 3.0400448031163 4.184262704431622 a26.172033138394596,26.172033138394596 0 0,0 -0.3667482917744248,0.2616651684099615 l -2.9675691834929903 -4.235972134685803" fill="#ff3905" stroke="none" /><path d="M 112.04921762599082 142.19931262002967 l 1.1122573271290306 1.587660052047381 a22.93849962667505,22.93849962667505 0 0,0 -0.3253368662326536,0.22376966317474922 l -1.0847635762734935 -1.6065705045872243" fill="#ff0a01" stroke="none" /><path d="M 111.1453310114006 142.79835938074945 l 1.525611174143856 2.436300539205538 a23.874552099372316,23.874552099372316 0 0,0 -0.35018374470983044,0.2151114574527619 l -1.4834482295017168 -2.462200463486678" fill="#ff1802" stroke="none" /><line stroke="#e1ed5e" stroke-width="0.3" x1="143.8653032363475" x2="146.44561519142675" y1="197.8068346515853" y2="202.08958963109032" /><path d="M 144.38136562736335 198.6633856474863 a86.0,86.0 0 0,1 -40.68145358897372,12.25698825130547" fill="none" id="id30" stroke="none" /><text fill="#e1ed5e" style="font-size:5.4px;" text-anchor="middle"><textPath startOffset="21.466115282336833" xlink:href="#id30">June</textPath></text><path d="M 108.59647513512805 144.15986991738527 l 1.7378013553887615 3.8732209874540082 a25.245208401061745,25.245208401061745 0 0,0 -0.3980079316927585,0.17447498087917548 l -1.6708727490382491 -3.9025605216276382" fill="#ff2b04" stroke="none" /><path d="M 107.93186726928326 144.44442032107085 l 1.552400827438309 3.805602536036419 a25.110055837980546,25.110055837980546 0 0,0 -0.4016161207328362,0.1598113428517101 l -1.4866636306636065 -3.831760723294198" fill="#ff2904" stroke="none" /><path d="M 105.18746579009965 145.34920634021253 l 0.8289155842355859 3.2516405784150173 a24.355632205260846,24.355632205260846 0 0,0 -0.40714117541234673,0.10006539522077113 l -0.772821124080028 -3.2654272319498183" fill="#ff1f03" stroke="none" /><path d="M 104.13013068566511 145.58985236759426 l 1.1487307289915012 5.726742788586861 a26.84081888559823,26.84081888559823 0 0,0 -0.45377904551441844,0.0869678340760691 l -1.0499840689053783 -5.7456678210113985" fill="#ff4206" stroke="none" /><path d="M 103.7750983002368 145.65789516924582 l 1.153074811543411 6.309795582718316 a27.414288878488982,27.414288878488982 0 0,0 -0.46493462763981874,0.08083484458056234 l -1.0442912124315424 -6.328709005819884" fill="#ff4a06" stroke="none" /><path d="M 103.41894727170886 145.7198165907248 l 0.25415196229495873 1.5402349397135637 a22.561062743598995,22.561062743598995 0 0,0 -0.38371440432817117,0.05992829847076676 l -0.22760169435827046 -1.5443815455314363" fill="#ff0400" stroke="none" /><path d="M 102.70371172650421 145.82522371788508 l 0.16154638205533361 1.2443040854311376 a22.25474694284377,22.25474694284377 0 0,0 -0.3803151611770362,0.046050869607256614 l -0.14010379782691715 -1.246900483763745" fill="#ff0000" stroke="none" /><line stroke="#e1ed5e" stroke-width="0.3" x1="102.19456741930631" x2="102.32365962044197" y1="209.97166512339345" y2="214.96999836594603" /><path d="M 102.22038585953345 210.97133177190398 a86.0,86.0 0 0,1 -42.740103519485714,-10.115201625700543" fill="none" id="id31" stroke="none" /><text fill="#e1ed5e" style="font-size:5.4px;" text-anchor="middle"><textPath startOffset="22.20632615414155" xlink:href="#id31">July</textPath></text><path d="M 100.54218724476979 145.99299961872075 l 0.13146515816122462 5.090211991846919 a26.09190938742556,26.09190938742556 0 0,0 -0.4490794200135001,0.007731309475874424 l -0.043826048255056566 -5.091720778601953" fill="#ff3705" stroke="none" /><path d="M 95.86986931433489 145.5898523675943 l -1.0584753697092362 5.2767946720645575 a26.38190785125591,26.38190785125591 0 0,0 -0.4444830600741638,-0.09314574686638727 l 1.1491498912127869 -5.257792944471629" fill="#ff3b05" stroke="none" /><path d="M 94.81253420990036 145.34920634021253 l -1.4608250735156827 5.730472652881973 a26.913740501648704,26.913740501648704 0 0,0 -0.447933786905606,-0.11830338432860656 l 1.559249303232778 -5.704477919249785" fill="#ff4306" stroke="none" /><path d="M 94.11515582081647 145.15858648285464 l -1.0281768861024876 3.5220291391036933 a24.66903760757653,24.66903760757653 0 0,0 -0.40659863202176016,-0.12250483244871872 l 1.0886504925644935 -3.503808937549249" fill="#ff2303" stroke="none" /><path d="M 93.76903079525671 145.05430185196036 l -1.8217299173054293 5.8632165324423235 a27.139707484718684,27.139707484718684 0 0,0 -0.4449343803554422,-0.14245393802518075 l 1.922385642751812 -5.830989747757436" fill="#ff4606" stroke="none" /><path d="M 93.42475214034765 144.94407469862006 l -1.8431421575239153 5.590628011972205 a26.886619962345982,26.886619962345982 0 0,0 -0.43829065676786744,-0.1486919873729601 l 1.9391025472290087 -5.5580730377011225" fill="#ff4306" stroke="none" /><path d="M 93.08242187328487 144.82793768551818 l -1.9837341562304178 5.686001157322459 a27.022110125501488,27.022110125501488 0 0,0 -0.4378616907722647,-0.15700162393816625 l 2.081315407632409 -5.651011992344334" fill="#ff4406" stroke="none" /><line stroke="#e1ed5e" stroke-width="0.3" x1="58.666819895761336" x2="56.23545636021788" y1="199.27360380694188" y2="203.64263932499728" /><path d="M 58.180547188652646 200.14741091055294 a86.0,86.0 0 0,1 -31.652253787137756,-30.449443065178592" fill="none" id="id32" stroke="none" /><text fill="#e1ed5e" style="font-size:5.4px;" text-anchor="middle"><textPath startOffset="22.20632615414155" xlink:href="#id32">August</textPath></text><path d="M 89.1626897886671 142.98757091392108 l -4.529209498075429 7.517499770878715 a29.776476598420246,29.776476598420246 0 0,0 -0.4367511497639186,-0.2682882280779055 l 4.657939847771656 -7.438423075972431" fill="#ff6b09" stroke="none" /><path d="M 88.8546689885994 142.79835938074945 l -5.052422380077489 8.068385691907782 a30.51975942868779,30.51975942868779 0 0,0 -0.44285362357481717,-0.28265013545944917 l 5.190557805699229 -7.980221127624529" fill="#ff750a" stroke="none" /><path d="M 88.54995079064634 142.60387380957326 l -7.284942818285523 11.200232570030531 a34.36097307416127,34.36097307416127 0 0,0 -0.49303955062665267,-0.32675972953037763 l 7.476657067652138 -11.073174819408834" fill="#ffa80f" stroke="none" /><path d="M 87.65650970185807 141.9893568818739 l -3.8657384340410323 5.320732489884625 a27.576787047589107,27.576787047589107 0 0,0 -0.3816299420760029,-0.2823207076644628 l 3.9567533465355993 -5.253401833480395" fill="#ff4c07" stroke="none" /><path d="M 87.07902340077011 141.55440617244102 l -3.6285936527215634 4.648968497123851 a26.89742316472383,26.89742316472383 0 0,0 -0.36252924247550694,-0.2880151557332943 l 3.7080803879144284 -4.5858194273854265" fill="#ff4306" stroke="none" /><path d="M 86.24171649860922 140.8653595955263 l -7.541013111240579 8.695916515480745 a32.51024946680623,32.51024946680623 0 0,0 -0.4196262727091599,-0.3702713965557065 l 7.689581736856327 -8.564821977152748" fill="#ff900d" stroke="none" /><path d="M 85.97065885151581 140.6261827372986 l -4.655187966014692 5.185048753431905 a27.968178067069882,27.968178067069882 0 0,0 -0.3554628250805803,-0.32470686276887206 l 4.743750340562127 -5.104149124076457" fill="#ff5207" stroke="none" /><path d="M 85.44109423537348 140.1340101406311 l -6.729847259164942 6.995688983203837 a30.707240003286692,30.707240003286692 0 0,0 -0.3777722341550968,-0.36972964163633293 l 6.849269445695833 -6.878809238644934" fill="#ff770b" stroke="none" /><path d="M 84.67929136418377 139.36230785411684 l -6.938151841997063 6.504129480043508 a30.51008155989097,30.51008155989097 0 0,0 -0.3558835271637412,-0.386241280885984 l 7.049081777156533 -6.38373694435618" fill="#ff750a" stroke="none" /><path d="M 82.6465618267979 136.8261652097733 l -11.063679340046583 7.539768108051145 a34.3885437468964,34.3885437468964 0 0,0 -0.32914240488444874,-0.4920232366743151 l 11.191824850341764 -7.3482079571710095" fill="#ffa80f" stroke="none" /><path d="M 82.24976979558568 136.22182372390057 l -8.050657788065134 5.0896839938811995 a30.5245983630862,30.5245983630862 0 0,0 -0.27695311181435966,-0.4465366000353301 l 8.137075539547451 -4.950351062480605" fill="#ff750a" stroke="none" /><path d="M 82.05923443525364 135.91462005526583 l -4.364359757949103 2.6551446966181813 a26.10856432442474,26.10856432442474 0 0,0 -0.23027644861649213,-0.38595657335781886 l 4.409417082263827 -2.5796260293742512" fill="#ff3805" stroke="none" /><line stroke="#e1ed5e" stroke-width="0.3" x1="26.63291911575756" x2="22.317208475507996" y1="167.92168965132927" y2="170.44649492493687" /><path d="M 25.769776987707644 168.4266507060508 a86.0,86.0 0 0,1 -11.730757126820373,-40.83630448921669" fill="none" id="id33" stroke="none" /><text fill="#e1ed5e" style="font-size:5.4px;" text-anchor="middle"><textPath startOffset="21.46611528233685" xlink:href="#id33">September</textPath></text><path d="M 81.87401531095188 135.60418214915194 l -5.007849072831883 2.9297246276422655 a26.80188234369474,26.80188234369474 0 0,0 -0.2295364304224926,-0.40021611412491986 l 5.057537499406752 -2.8430886676590386" fill="#ff4106" stroke="none" /><path d="M 81.69416730710424 135.29060199501023 l -5.03840877173865 2.832335476236079 a26.779938338864735,26.779938338864735 0 0,0 -0.22243109522532267,-0.4037770473130009 l 5.086416276415489 -2.7451879105252557" fill="#ff4106" stroke="none" /><path d="M 81.51974371655577 134.97397251340806 l -13.480954037852193 7.275800885321689 a36.31905350514617,36.31905350514617 0 0,0 -0.2921910949209812,-0.5527154365013484 l 13.60419764099806 -7.042670433734215" fill="#ffc112" stroke="none" /><path d="M 81.35079622478065 134.6543875284942 l -3.1502848198193028 1.6308508846946914 a24.547389047467643,24.547389047467643 0 0,0 -0.19102699863862807,-0.3769143910500753 l 3.177890488244197 -1.576382281941931" fill="#ff2103" stroke="none" /><path d="M 81.18737489456691 134.33194174019687 l -5.841539965780857 2.897676976402156 a27.52074543525402,27.52074543525402 0 0,0 -0.2068600020233422,-0.4261928740767897 l 5.890553224418918 -2.7966951463600815" fill="#ff4b07" stroke="none" /><path d="M 81.02952815118164 134.00673069616215 l -3.8230396947229655 1.8150886939194681 a25.23204199816374,25.23204199816374 0 0,0 -0.18290272671828858,-0.39395620156074934 l 3.8537170382810806 -1.7490124250798917" fill="#ff2b04" stroke="none" /><path d="M 80.45479744820244 132.68017299344265 l -5.164919816071158 2.0295250243409884 a26.54935748811255,26.54935748811255 0 0,0 -0.16347541887285033,-0.42678273350992507 l 5.199089514537517 -1.9403187239979052" fill="#ff3e05" stroke="none" /><path d="M 80.20201598880116 132.00284435728193 l -13.836528728554637 4.894188068659866 a35.67660056373854,35.67660056373854 0 0,0 -0.1998045403367446,-0.5807255206507435 l 13.91872409983461 -4.655289844919826" fill="#ffb911" stroke="none" /><path d="M 79.76711848015287 130.62410040840567 l -4.321615467261294 1.2012722602341501 a25.485467120610753,25.485467120610753 0 0,0 -0.11384955694823533,-0.4236765544791383 l 4.341653100551305 -1.1267047725794728" fill="#ff2f04" stroke="none" /><path d="M 79.4281124754447 129.21870165774334 l -2.791036530543113 0.5723612101305705 a23.84911956044113,23.84911956044113 0 0,0 -0.07900880220434446,-0.4028641802657915 l 2.800475265723124 -0.5242333027968241" fill="#ff1702" stroke="none" /><path d="M 79.29508885075956 128.50808413554452 l -10.148229823118694 1.719439595259909 a31.29286359885252,31.29286359885252 0 0,0 -0.0854120020236977,-0.5318606181336969 l 10.176323579503682 -1.5444997474329984" fill="#ff7f0b" stroke="none" /><path d="M 79.23777060512086 128.15116336523772 l -9.005765438357253 1.366839638727564 a30.108900138255272,30.108900138255272 0 0,0 -0.07335954516287067,-0.5130764880078377 l 9.027959034536723 -1.2116176787393258" fill="#ff6f0a" stroke="none" /><path d="M 79.1416061653843 127.43462659150553 l -22.024835558019987 2.5707756190748903 a43.174360614039166,43.174360614039166 0 0,0 -0.0798061577714587,-0.7389059049980226 l 22.065824017292496 -2.1912733921920857" fill="#e8ff1a" stroke="none" /><path d="M 79.04373962182676 126.35467743843564 l -8.875099836455501 0.5737138828849653 a29.893623824205036,29.893623824205036 0 0,0 -0.028774248699171685,-0.5137835399706855 l 8.883660436042206 -0.4208586265788421" fill="#ff6c0a" stroke="none" /><line stroke="#e1ed5e" stroke-width="0.3" x1="15.007084014347285" x2="10.007500721073583" y1="126.09737516637583" y2="126.16192664675087" /><path d="M 14.007167355692545 126.11028546245083 a86.0,86.0 0 0,1 10.666146001902534,-42.60595125391555" fill="none" id="id34" stroke="none" /><text fill="#e1ed5e" style="font-size:5.4px;" text-anchor="middle"><textPath startOffset="22.20632615414155" xlink:href="#id34">October</textPath></text><path d="M 79.03285615573316 123.82574320788736 l -5.300342835784059 -0.29684365317820227 a26.308648635131128,26.308648635131128 0 0,0 0.029214387506848086,-0.4519336441369489 l 5.294447857272798 0.388036361568163" fill="#ff3a05" stroke="none" /><path d="M 79.12142395522702 122.74499172005258 l -5.239689657981518 -0.5659171170373597 a26.270162226660045,26.270162226660045 0 0,0 0.052427296450370246,-0.44916505917638005 l 5.229172008527559 0.6560259145386016" fill="#ff3a05" stroke="none" /><path d="M 79.21141760316559 122.0276538004421 l -1.9577511210928653 -0.2799187550829204 a22.977661235294747,22.977661235294747 0 0,0 0.05935250974109252,-0.3910588819356267 l 1.9526427179124706 0.3135767494106392" fill="#ff0b01" stroke="none" /><path d="M 79.26566170972629 121.67025291283419 l -7.5685738396928315 -1.2154444643424345 a28.665547287231576,28.665547287231576 0 0,0 0.08243138281809217,-0.4865146875654285 l 7.5465305953545165 1.345544940223691" fill="#ff5b08" stroke="none" /><path d="M 79.32604984820605 121.31383870115002 l -8.387286646444464 -1.4954515809259652 a29.519562941872053,29.519562941872053 0 0,0 0.09349868378932835,-0.49947370747478914 l 8.360302238745273 1.6396033658633271" fill="#ff6709" stroke="none" /><path d="M 79.3925641242962 120.95851677861259 l -4.99539847136832 -0.9796861301886682 a26.09055898712833,26.09055898712833 0 0,0 0.09022451255317264,-0.4399667657927077 l 4.977794662900153 1.0655285521447784" fill="#ff3705" stroke="none" /><path d="M 79.46518482838121 120.60439243477599 l -9.2227192122864 -1.9741816034211281 a30.43164580929347,30.43164580929347 0 0,0 0.11405434942653889,-0.5112832846686779 l 9.187370475857824 2.1326430576397652" fill="#ff740a" stroke="none" /><path d="M 79.54389044137918 120.25157060432595 l -2.8747529080486265 -0.6673097430750115 a23.951187316240173,23.951187316240173 0 0,0 0.09667976567744621,-0.40080004486756826 l 2.8628403421103656 0.7166950196019766" fill="#ff1902" stroke="none" /><path d="M 79.62865764111835 119.90015583598534 l -23.55945667389477 -5.897969584382081 a45.28649921226649,45.28649921226649 0 0,0 0.19581810691553495,-0.7545670451786004 l 23.454442235108928 6.3026330551095455" fill="#cfff1d" stroke="none" /><path d="M 79.71946130924805 119.55025226153421 l -1.814813224617657 -0.48767315392405747 a22.87919454695499,22.87919454695499 0 0,0 0.10547660528243911,-0.3794554689325424 l 1.8061498487688572 0.5188399262755424" fill="#ff0901" stroke="none" /><path d="M 79.81627453868168 119.20196356495316 l -4.66998814421779 -1.3415145515778832 a25.858852802795113,25.858852802795113 0 0,0 0.12657797978970217,-0.4267580225664607 l 4.646204267316381 1.4217019608908832" fill="#ff3404" stroke="none" /><path d="M 79.91906864156998 118.8553929516997 l -3.456917156994203 -1.0577894595182533 a24.615134129045394,24.615134129045394 0 0,0 0.1274648025163722,-0.4040982568752326 l 3.438196870709627 1.1171378828199003" fill="#ff2203" stroke="none" /><line stroke="#e1ed5e" stroke-width="0.3" x1="26.266209847984243" x2="21.928928074336255" y1="82.71137044288967" y2="80.22380399835377" /><path d="M 25.398753493254645 82.2138571539825 a86.0,86.0 0 0,1 29.58750427330803,-30.492523968695096" fill="none" id="id35" stroke="none" /><text fill="#e1ed5e" style="font-size:5.4px;" text-anchor="middle"><textPath startOffset="21.46611528233685" xlink:href="#id35">November</textPath></text><line stroke="#e1ed5e" stroke-width="0.3" x1="56.762969772571076" x2="54.21961505331055" y1="51.818313649435495" y2="47.513508569990535" /><path d="M 56.25429882871897 50.957352633546506 a86.0,86.0 0 0,1 42.265352541879196,-11.944610805530505" fill="none" id="id36" stroke="none" /><text fill="#e1ed5e" style="font-size:5.4px;" text-anchor="middle"><textPath startOffset="22.20632615414155" xlink:href="#id36">December</textPath></text></svg>