<?xml version="1.0" encoding="utf-8" ?>
<svg baseProfile="full" height="200mm" version="1.1" viewBox="0,0,200,200" width="200mm" xmlns="http://www.w3.org/2000/svg" xmlns:ev="http://www.w3.org/2001/xml-events" xmlns:xlink="http://www.w3.org/1999/xlink"><defs /><rect fill="#1a1a1a" height="200" width="200" x="0" y="0" /><text alignment-baseline="middle" fill="#e1ed5e" style="dominant-baseline: central; font-size:9.0px; font-family:Arial;" text-anchor="middle" x="100.0" y="100.0">2021</text><line stroke="#e1ed5e" stroke-width="0.3" x1="100.0" x2="100.0" y1="15.0" y2="10.0" /><path d="M 100.0 14.0 a86.0,86.0 0 0,1 42.46469731375804,11.215312516191453" fill="none" id="id25" stroke="none" /><text fill="#e1ed5e" style="font-size:6.75px; font-family:Arial;" text-anchor="middle"><textPath startOffset="22.20632615414155" xlink:href="#id25">January</textPath></text><path d="M 101.08401301168833 79.027996857942 l 2.7030103489161594 -52.294152301913094 a73.36396308456828,73.36396308456828 0 0,0 1.2605953394496174,0.07604255341214826 l -3.602767737205389 52.23987647912064" fill="#3dffb0" stroke="none" /><path d="M 101.44485096284872 79.0497635885617 l 3.5119917604819104 -50.92363125955385 a72.04459135681961,72.04459135681961 0 0,0 1.236456072779946,0.09597278828315446 l -4.3880380226241975 50.855633209082235" fill="#3bffa0" stroke="none" /><path d="M 103.59715602781102 79.31037775812273 l 8.58765539233296 -49.393283092840925 a71.1342621350608,71.1342621350608 0 0,0 1.2045566986653713,0.22012503734844344 l -9.436607212101233 49.23814257414174" fill="#3aff94" stroke="none" /><path d="M 103.95276090670814 79.375362276772 l 9.72160306237192 -50.72518828805804 a72.64837163900968,72.64837163900968 0 0,0 1.2261439622086125,0.24595294385553929 l -10.593313434047657 50.550331388125294" fill="#3cffa7" stroke="none" /><path d="M 104.66035177308747 79.52364482259891 l 11.498691177106283 -50.52221293194149 a72.814224864673,72.814224864673 0 0,0 1.219729502836972,0.2886705654418111 l -12.366644366905778 50.31679645435881" fill="#3dffaa" stroke="none" /><path d="M 105.71112130821622 79.79150937346287 l 3.9563287330366395 -13.999253001691548 a35.5475641139409,35.5475641139409 0 0,0 0.5873977373162451,0.1714775070291305 l -4.196716688076312 13.929077165743713" fill="#ff4506" stroke="none" /><path d="M 106.40334571778207 80.00007090966166 l 15.106304544079897 -47.1823688762663 a70.54166296920756,70.54166296920756 0 0,0 1.1532459354721385,0.38020705314498826 l -15.916233301794453 46.915348098862076" fill="#39ff8c" stroke="none" /><path d="M 106.74666289553966 80.11325718540242 l 17.51444224665585 -51.626294939182266 a75.51632797941255,75.51632797941255 0 0,0 1.227384844115887,0.42821047177886684 l -18.400509094835012 51.31716361423119" fill="#41ffcb" stroke="none" /><path d="M 107.08798089147638 80.2323363322302 l 17.35199865503635 -48.39297377181641 a72.4098411571568,72.4098411571568 0 0,0 1.1696522813575192,0.43079280632563177 l -18.182433262166445 48.08711769768445" fill="#3cffa4" stroke="none" /><path d="M 108.43124777332544 80.76684994638697 l 20.54092572479928 -46.85744237704489 a72.16199307835655,72.16199307835655 0 0,0 1.133348365919925,0.5085003754763601 l -21.344456209185985 46.496921671052" fill="#3cffa1" stroke="none" /><path d="M 108.76106565485865 80.91482961587045 l 26.283196964575957 -57.255511152388685 a84.0,84.0 0 0,0 1.308887154801608,0.6145400694399883 l -27.264862330677165 56.79460610030869" fill="#4dd2ff" stroke="none" /><path d="M 109.08828744355905 81.06846463323043 l 22.773140179918254 -47.438036198345515 a73.62112876031591,73.62112876031591 0 0,0 1.1377224589451038,0.5582754695299725 l -23.58633390587379 47.03900556868071" fill="#3effb4" stroke="none" /><path d="M 109.41281617654863 81.2277094730956 l 25.51041075942599 -50.876255655531736 a77.91374567397284,77.91374567397284 0 0,0 1.1937109782513204,0.6114651270462642 l -26.382382225266067 50.42959800317297" fill="#44ffe8" stroke="none" /><path d="M 109.73455568895987 81.39251694778311 l 27.283362044556615 -52.15180980754447 a79.85739639719586,79.85739639719586 0 0,0 1.212520305361814,0.6476863548868872 l -28.177027396446743 51.674444726155826" fill="#47fffe" stroke="none" /><line stroke="#e1ed5e" stroke-width="0.3" x1="143.23703022742887" x2="145.7803849466894" y1="26.81831364943548" y2="22.513508569990506" /><path d="M 143.74570117128098 25.957352633546492 a86.0,86.0 0 0,1 28.547481713284135,27.462654790039103" fill="none" id="id26" stroke="none" /><text fill="#e1ed5e" style="font-size:6.75px; font-family:Arial;" text-anchor="middle"><textPath startOffset="19.985693538727396" xlink:href="#id26">February</textPath></text><path d="M 110.68208982089419 81.91981866633111 l 26.443125179134295 -44.75683188251194 a72.98473688881,72.98473688881 0 0,0 1.076135387042881,0.6483595297323063 l -27.209622632394815 44.29502574332102" fill="#3dffac" stroke="none" /><path d="M 110.99172775467656 82.1063720568725 l 26.75752698821232 -43.55905125120641 a72.12099565178809,72.12099565178809 0 0,0 1.0522138942643406,0.6588962440580419 l -27.50336003484892 43.09201066582542" fill="#3cffa1" stroke="none" /><path d="M 111.2981086023043 82.29822771554956 l 5.624992307500952 -8.8131860326479 a31.455275534652586,31.455275534652586 0 0,0 0.45390408095432094,0.29523184041611916 l -5.775863414239553 8.715055268072252" fill="#ff0000" stroke="none" /><path d="M 112.19680574252982 82.90503203632743 l 12.38188461216977 -17.35437336981225 a42.31866181560032,42.31866181560032 0 0,0 0.5893471835053521,0.42818579257681527 l -12.678777112028913 17.13866834241876" fill="#ffb110" stroke="none" /><path d="M 112.48926042617603 83.11751280151076 l 13.242339888380892 -17.900470165156513 a43.266261425148635,43.266261425148635 0 0,0 0.5949190190003322,0.44808067114632966 l -13.548505061139608 17.669872904504338" fill="#ffbf11" stroke="none" /><path d="M 114.16331599549186 84.49514656593476 l 16.56764854490848 -18.136922350505632 a45.56491259206673,45.56491259206673 0 0,0 0.5745347442836277,0.5339674297532137 l -16.877391172986954 17.849050334677777" fill="#ffe115" stroke="none" /><path d="M 116.15771136456269 86.58626213691792 l 29.279310047036336 -24.306969033016898 a59.053997692785515,59.053997692785515 0 0,0 0.6425679772246553,0.7877123619845672 l -29.6933765163374 23.79937250142423" fill="#67ff28" stroke="none" /><path d="M 116.38621287248628 86.86637796730983 l 43.020897510460486 -34.48143947636626 a76.13408465702369,76.13408465702369 0 0,0 0.8108132076789066,1.02965043438181 l -43.60806479873336 33.73579664803141" fill="#41ffd3" stroke="none" /><path d="M 116.60985879189232 87.15038557335679 l 40.74124650516422 -31.517986721700677 a72.50953944449374,72.50953944449374 0 0,0 0.7552181352275927,0.993778540284762 l -41.27774058061593 30.812023405534884" fill="#3cffa6" stroke="none" /><path d="M 116.82858285166822 87.43820079747576 l 40.35335573855518 -30.12201065317332 a71.35602094240838,71.35602094240838 0 0,0 0.7262594998882538,0.9906171416607361 l -40.86587785095706 29.422931067841088" fill="#3aff97" stroke="none" /><path d="M 117.04232023915458 87.72973835380427 l 43.29390563904498 -31.171081309474534 a74.34790132221138,74.34790132221138 0 0,0 0.7388318452386535,1.045025248869697 l -43.82405010408751 30.421229560273044" fill="#3fffbd" stroke="none" /><path d="M 117.2510076193507 88.02491185347247 l 42.551924153987194 -29.538161120325892 a72.79931670955719,72.79931670955719 0 0,0 0.7057218951475815,1.0355597996210788 l -43.054070514803506 28.801323297434408" fill="#3dffa9" stroke="none" /><path d="M 117.45458315368197 88.32363383020206 l 33.032670833880424 -22.097437494027485 a60.742346259650375,60.742346259650375 0 0,0 0.5738802797223143,0.874059037679983 l -33.408147748960666 21.52556039236983" fill="#53ff2b" stroke="none" /><line stroke="#e1ed5e" stroke-width="0.3" x1="172.23445277983987" x2="176.4835382374775" y1="55.19839476539836" y2="52.563006222186495" /><path d="M 173.08426987136738 54.67131705675599 a86.0,86.0 0 0,1 12.851231095245387,41.99856678651699" fill="none" id="id27" stroke="none" /><text fill="#e1ed5e" style="font-size:6.75px; font-family:Arial;" text-anchor="middle"><textPath startOffset="22.20632615414155" xlink:href="#id27">March</textPath></text><path d="M 117.84615892207809 88.93136811851018 l 43.284338952723246 -26.846024188914697 a71.9337119531458,71.9337119531458 0 0,0 0.6435813355535958,1.0578784973319237 l -43.740036086563066 26.09697791837569" fill="#3bff9e" stroke="none" /><path d="M 118.03404312379186 89.2402003453031 l 43.082303215511644 -25.70454933925772 a71.16780548407135,71.16780548407135 0 0,0 0.6186187800140386,1.0574200232677913 l -43.51838166999601 24.959149903636032" fill="#3aff94" stroke="none" /><path d="M 118.21658344932153 89.55222093294921 l 45.248868188986044 -25.951637923094534 a73.16270299050493,73.16270299050493 0 0,0 0.6171530370075814,1.097846389050051 l -45.68887886728606 25.16890802410969" fill="#3dffae" stroke="none" /><line stroke="#e1ed5e" stroke-width="0.3" x1="184.98032266829074" x2="189.97916517819016" y1="98.17113171792111" y2="98.06355123074" /><path d="M 185.9800911702706 98.14961562048488 a86.0,86.0 0 0,1 -9.607161424134198,41.387399972396054" fill="none" id="id28" stroke="none" /><text fill="#e1ed5e" style="font-size:6.75px; font-family:Arial;" text-anchor="middle"><textPath startOffset="21.466115282336823" xlink:href="#id28">April</textPath></text><line stroke="#e1ed5e" stroke-width="0.3" x1="174.80103733775053" x2="179.2010983576182" y1="140.37084112569926" y2="142.7455964860345" /><path d="M 175.68104954172406 140.8457921977663 a86.0,86.0 0 0,1 -30.038265399797805,32.042727171017184" fill="none" id="id29" stroke="none" /><text fill="#e1ed5e" style="font-size:6.75px; font-family:Arial;" text-anchor="middle"><textPath startOffset="22.206326154141568" xlink:href="#id29">May</textPath></text><line stroke="#e1ed5e" stroke-width="0.3" x1="143.8653032363475" x2="146.44561519142675" y1="172.8068346515853" y2="177.08958963109032" /><path d="M 144.38136562736335 173.6633856474863 a86.0,86.0 0 0,1 -40.68145358897372,12.25698825130547" fill="none" id="id30" stroke="none" /><text fill="#e1ed5e" style="font-size:6.75px; font-family:Arial;" text-anchor="middle"><textPath startOffset="21.466115282336833" xlink:href="#id30">June</textPath></text><line stroke="#e1ed5e" stroke-width="0.3" x1="102.19456741930631" x2="102.32365962044197" y1="184.97166512339345" y2="189.96999836594603" /><path d="M 102.22038585953345 185.97133177190398 a86.0,86.0 0 0,1 -42.740103519485714,-10.115201625700543" fill="none" id="id31" stroke="none" /><text fill="#e1ed5e" style="font-size:6.75px; font-family:Arial;" text-anchor="middle"><textPath startOffset="22.20632615414155" xlink:href="#id31">July</textPath></text><line stroke="#e1ed5e" stroke-width="0.3" x1="58.666819895761336" x2="56.23545636021788" y1="174.27360380694188" y2="178.64263932499728" /><path d="M 58.180547188652646 175.14741091055294 a86.0,86.0 0 0,1 -31.652253787137756,-30.449443065178592" fill="none" id="id32" stroke="none" /><text fill="#e1ed5e" style="font-size:6.75px; font-family:Arial;" text-anchor="middle"><textPath startOffset="22.20632615414155" xlink:href="#id32">August</textPath></text><line stroke="#e1ed5e" stroke-width="0.3" x1="26.63291911575756" x2="22.317208475507996" y1="142.92168965132927" y2="145.44649492493687" /><path d="M 25.769776987707644 143.4266507060508 a86.0,86.0 0 0,1 -11.730757126820373,-40.83630448921669" fill="none" id="id33" stroke="none" /><text fill="#e1ed5e" style="font-size:6.75px; font-family:Arial;" text-anchor="middle"><textPath startOffset="21.46611528233685" xlink:href="#id33">September</textPath></text><line stroke="#e1ed5e" stroke-width="0.3" x1="15.007084014347285" x2="10.007500721073583" y1="101.09737516637583" y2="101.16192664675087" /><path d="M 14.007167355692545 101.11028546245083 a86.0,86.0 0 0,1 10.666146001902534,-42.60595125391555" fill="none" id="id34" stroke="none" /><text fill="#e1ed5e" style="font-size:6.75px; font-family:Arial;" text-anchor="middle"><textPath startOffset="22.20632615414155" xlink:href="#id34">October</textPath></text><line stroke="#e1ed5e" stroke-width="0.3" x1="26.266209847984243" x2="21.928928074336255" y1="57.711370442889674" y2="55.22380399835377" /><path d="M 25.398753493254645 57.213857153982495 a86.0,86.0 0 0,1 29.58750427330803,-30.492523968695096" fill="none" id="id35" stroke="none" /><text fill="#e1ed5e" style="font-size:6.75px; font-family:Arial;" text-anchor="middle"><textPath startOffset="21.46611528233685" xlink:href="#id35">November</textPath></text><line stroke="#e1ed5e" stroke-width="0.3" x1="56.762969772571076" x2="54.21961505331055" y1="26.818313649435495" y2="22.513508569990535" /><path d="M 56.25429882871897 25.957352633546506 a86.0,86.0 0 0,1 42.265352541879196,-11.944610805530505" fill="none" id="id36" stroke="none" /><text fill="#e1ed5e" style="font-size:6.75px; font-family:Arial;" text-anchor="middle"><textPath startOffset="22.20632615414155" xlink:href="#id36">December</textPath></text></svg>