<?xml version="1.0" encoding="utf-8" ?>
<svg baseProfile="full" height="200mm" version="1.1" viewBox="0,0,200,200" width="200mm" xmlns="http://www.w3.org/2000/svg" xmlns:ev="http://www.w3.org/2001/xml-events" xmlns:xlink="http://www.w3.org/1999/xlink"><defs /><rect fill="#1a1a1a" height="200" width="200" x="0" y="0" /><text alignment-baseline="middle" fill="#e1ed5e" style="dominant-baseline: central; font-size:9.0px; font-family:Arial;" text-anchor="middle" x="100.0" y="100.0">2023</text><line stroke="#e1ed5e" stroke-width="0.3" x1="100.0" x2="100.0" y1="15.0" y2="10.0" /><path d="M 100.0 14.0 a86.0,86.0 0 0,1 42.46469731375804,11.215312516191453" fill="none" id="id49" stroke="none" /><text fill="#e1ed5e" style="font-size:6.75px; font-family:Arial;" text-anchor="middle"><textPath startOffset="22.20632615414155" xlink:href="#id49">January</textPath></text><line stroke="#e1ed5e" stroke-width="0.3" x1="143.23703022742887" x2="145.7803849466894" y1="26.81831364943548" y2="22.513508569990506" /><path d="M 143.74570117128098 25.957352633546492 a86.0,86.0 0 0,1 28.547481713284135,27.462654790039103" fill="none" id="id50" stroke="none" /><text fill="#e1ed5e" style="font-size:6.75px; font-family:Arial;" text-anchor="middle"><textPath startOffset="19.985693538727396" xlink:href="#id50">February</textPath></text><path d="M 116.60985879189232 87.15038557335679 l 9.188362566246395 -7.108243222759935 a32.61693282939652,32.61693282939652 0 0,0 0.33971942694680946,0.4470309443983825 l -9.309357933417317 6.949027502480519" fill="#ff6108" stroke="none" /><path d="M 116.82858285166822 87.43820079747576 l 10.99087596233442 -8.204206980209808 a34.71526035456651,34.71526035456651 0 0,0 0.353330907337825,0.48194296052753316 l -11.13046948218587 8.013801576010781" fill="#ff7f0b" stroke="none" /><path d="M 117.45458315368197 88.32363383020206 l 8.554491822339878 -5.722587473715298 a31.29210074439631,31.29210074439631 0 0,0 0.2956408606860481,0.4502813135784451 l -8.651729318383852 5.574488096159179" fill="#ff4d07" stroke="none" /><line stroke="#e1ed5e" stroke-width="0.3" x1="172.23445277983987" x2="176.4835382374775" y1="55.19839476539836" y2="52.563006222186495" /><path d="M 173.08426987136738 54.67131705675599 a86.0,86.0 0 0,1 12.851231095245387,41.99856678651699" fill="none" id="id51" stroke="none" /><text fill="#e1ed5e" style="font-size:6.75px; font-family:Arial;" text-anchor="middle"><textPath startOffset="22.20632615414155" xlink:href="#id51">March</textPath></text><path d="M 118.73160827565052 90.50648371742162 l 10.458063779868354 -5.300334990855213 a32.724531932622234,32.724531932622234 0 0,0 0.25032706598867704,0.5046440898685542 l -10.547750858810439 5.119531312487709" fill="#ff6209" stroke="none" /><path d="M 118.89224826269711 90.83032412892265 l 10.387809947603523 -5.041901255233592 a32.546746891443355,32.546746891443355 0 0,0 0.24029078202974213,0.506113668744214 l -10.473058923475023 4.862345170848838" fill="#ff6008" stroke="none" /><path d="M 119.04729006885535 91.15688171328212 l 11.429794545123196 -5.30653047179017 a33.601566132499784,33.601566132499784 0 0,0 0.23904743459992084,0.5267093352027075 l -11.519444296686464 5.1089991277454" fill="#ff6f0a" stroke="none" /><path d="M 119.7369772167798 92.82701384747503 l 10.360543317686204 -3.7653199339571057 a32.02354262670159,32.02354262670159 0 0,0 0.18382568596212456,0.5196999684480185 l -10.42382208445814 3.586422339082473" fill="#ff5808" stroke="none" /><path d="M 119.85752413597 93.16781622104841 l 10.805298485296923 -3.717673186872832 a32.426966757663784,32.426966757663784 0 0,0 0.17705541729555144,0.5293731616748165 l -10.867691196364245 3.531126922275701" fill="#ff5e08" stroke="none" /><path d="M 119.97218684219823 93.5106431181261 l 10.728673014563032 -3.4859571768740008 a32.28079439101752,32.28079439101752 0 0,0 0.16715996998234303,0.5299427854250607 l -10.787088468313582 3.3007642250225206" fill="#ff5c08" stroke="none" /><path d="M 120.08093135843002 93.85539295169968 l 11.16370473065341 -3.4160058390080366 a32.67464771225883,32.67464771225883 0 0,0 0.15994100470346742,0.5392415569275542 l -11.220851632468582 3.2233348953339527" fill="#ff6109" stroke="none" /><path d="M 120.45610955862082 95.25157060432595 l 11.343180808038536 -2.633066323534464 a32.64477518494819,32.64477518494819 0 0,0 0.122348906767239,0.5484661588277779 l -11.386824101807813 2.437421995156722" fill="#ff6109" stroke="none" /><path d="M 120.53481517161879 95.60439243477599 l 12.157648935777415 -2.6024219449172747 a33.43306187650479,33.43306187650479 0 0,0 0.11561583300901203,0.5637838618793005 l -12.200644064701425 2.392762426874562" fill="#ff6d0a" stroke="none" /><path d="M 120.87857604477298 97.74499172005257 l 12.342430161913741 -1.3330546178103115 a33.41421028160001,33.41421028160001 0 0,0 0.056840554015103795,0.5723766219275703 l -12.363547841611075 1.1204024651783062" fill="#ff6c0a" stroke="none" /><path d="M 120.94382443527127 98.46500227214037 l 11.349541022697975 -0.8318213197371775 a32.379982782670346,32.379982782670346 0 0,0 0.03595628865614637,0.5562278708805289 l -11.362177902358537 0.6363343846036134" fill="#ff5d08" stroke="none" /><line stroke="#e1ed5e" stroke-width="0.3" x1="184.98032266829074" x2="189.97916517819016" y1="98.17113171792111" y2="98.06355123074" /><path d="M 185.9800911702706 98.14961562048488 a86.0,86.0 0 0,1 -9.607161424134198,41.387399972396054" fill="none" id="id52" stroke="none" /><text fill="#e1ed5e" style="font-size:6.75px; font-family:Arial;" text-anchor="middle"><textPath startOffset="21.466115282336823" xlink:href="#id52">April</textPath></text><path d="M 120.92983693683757 101.71520430193887 l 12.321859410976447 1.0097788307368492 a33.363165963088626,33.363165963088626 0 0,0 -0.051832702810509765,0.5719695563645124 l -12.302652111888863 -1.2217297756499321" fill="#ff6c09" stroke="none" /><path d="M 120.8583938346157 102.4346265915055 l 8.540665496867549 0.9968807518304509 a29.598647472873502,29.598647472873502 0 0,0 -0.06342354593399525,0.5055480640774281 l -8.522240441686705 -1.143746570195274" fill="#ff3304" stroke="none" /><path d="M 120.81339534386255 102.79330883721812 l 12.547078901768234 1.6839091267209827 a33.65957103989909,33.65957103989909 0 0,0 -0.08201066164907428,0.5735823765630939 l -12.516234189102558 -1.899636975264486" fill="#ff700a" stroke="none" /><path d="M 120.76222939487914 103.15116336523771 l 12.52540989343363 1.9010296071822057 a33.66885182508298,33.66885182508298 0 0,0 -0.09189711996588042,0.5722434537501886 l -12.490831019106462 -2.116352290625599" fill="#ff700a" stroke="none" /><path d="M 120.13307415673323 105.97154293290107 l 10.931602230960348 3.242352933257607 a32.402314672019074,32.402314672019074 0 0,0 -0.1632046381491118,0.5333622004284634 l -10.874170820305103 -3.430042106238128" fill="#ff5d08" stroke="none" /><path d="M 120.02730092923936 106.31721596034902 l 11.040401944888684 3.4824764266209116 a32.576619418754,32.576619418754 0 0,0 -0.173288610703306,0.5333275043415401 l -10.97882108316913 -3.6720028309402473" fill="#ff6008" stroke="none" /><path d="M 119.41010516605496 108.01547362559984 l 10.659951874801582 4.402065953360412 a32.533115738204515,32.533115738204515 0 0,0 -0.21820273478491228,0.5157668089856828 l -10.58259815882436 -4.584907288012259" fill="#ff5f08" stroke="none" /><path d="M 119.26925614724726 108.34839909993367 l 5.144399864412659 2.2288096058081024 a26.606464324680168,26.606464324680168 0 0,0 -0.18568640716958149,0.4186738283875486 l -5.105272372511805 -2.317031770688339" fill="#ff0500" stroke="none" /><path d="M 119.12269723197855 108.67885076344098 l 10.260195110034845 4.656597397508765 a32.267453262315684,32.267453262315684 0 0,0 -0.2339012112599447,0.5038024002253116 l -10.178519281935069 -4.832519865012908" fill="#ff5b08" stroke="none" /><line stroke="#e1ed5e" stroke-width="0.3" x1="174.80103733775053" x2="179.2010983576182" y1="140.37084112569926" y2="142.7455964860345" /><path d="M 175.68104954172406 140.8457921977663 a86.0,86.0 0 0,1 -30.038265399797805,32.042727171017184" fill="none" id="id53" stroke="none" /><text fill="#e1ed5e" style="font-size:6.75px; font-family:Arial;" text-anchor="middle"><textPath startOffset="22.206326154141568" xlink:href="#id53">May</textPath></text><path d="M 117.75023020441432 111.22182372390056 l 9.66108430998516 6.1078072712224865 a32.42986700303375,32.42986700303375 0 0,0 -0.302362392405861,0.4692731476019982 l -9.554517054202249 -6.273202018745938" fill="#ff5e08" stroke="none" /><path d="M 117.55443506779139 111.5257021239791 l 9.385779579710373 6.1624141830431425 a32.228009925284155,32.228009925284155 0 0,0 -0.3084633292273607,0.46111082434079814 l -9.278313145072293 -6.323061921589747" fill="#ff5b08" stroke="none" /><path d="M 117.14729908036423 112.12312394758627 l 8.946437504196155 6.325122705587083 a31.956546958655395,31.956546958655395 0 0,0 -0.3214223087412377,0.44642747445201675 l -8.836235403079312 -6.4781837854902315" fill="#ff5708" stroke="none" /><path d="M 116.93607887273984 112.41649034213515 l 9.207900871221957 6.750666024760277 a32.41739594794289,32.41739594794289 0 0,0 -0.33380460175365845,0.4471858136174275 l -9.090335002773207 -6.908164717887019" fill="#ff5e08" stroke="none" /><path d="M 115.07121518719521 114.62390073753431 l 8.487900693554089 8.235979360048134 a32.82691059418202,32.82691059418202 0 0,0 -0.3969857950407753,0.4021445144571501 l -8.344874273457776 -8.380864368485948" fill="#ff6409" stroke="none" /><path d="M 113.75828350139079 115.86535959552629 l 7.708573263898249 8.889138444330104 a32.766005441412744,32.766005441412744 0 0,0 -0.4292885376950939,0.36584900503969026 l -7.554419249626108 -9.020511839592741" fill="#ff6309" stroke="none" /><line stroke="#e1ed5e" stroke-width="0.3" x1="143.8653032363475" x2="146.44561519142675" y1="172.8068346515853" y2="177.08958963109032" /><path d="M 144.38136562736335 173.6633856474863 a86.0,86.0 0 0,1 -40.68145358897372,12.25698825130547" fill="none" id="id54" stroke="none" /><text fill="#e1ed5e" style="font-size:6.75px; font-family:Arial;" text-anchor="middle"><textPath startOffset="21.466115282336833" xlink:href="#id54">June</textPath></text><path d="M 107.2578585660854 119.70592522655815 l 4.136541351125975 11.231188072850506 a32.96873259277333,32.96873259277333 0 0,0 -0.5342197529595091,0.1915521967828707 l -3.9426020375367306 -11.300727810673337" fill="#ff6609" stroke="none" /><path d="M 106.91757812671514 119.82793768551818 l 3.766623726178228 10.796319052622053 a32.434507395625694,32.434507395625694 0 0,0 -0.528729218037811,0.1793736576361289 l -3.58022477520319 -10.859555697156305" fill="#ff5e08" stroke="none" /><path d="M 106.2309692047433 120.05430185196036 l 3.420732475719668 11.009587653019379 a32.52876537014957,32.52876537014957 0 0,0 -0.5361437973890603,0.16153572809869066 l -3.230713703890362 -11.066838750223797" fill="#ff5f08" stroke="none" /><path d="M 105.53697534728816 120.25689768951611 l 8.651525573251549 31.65140846823934 a53.81250604217786,53.81250604217786 0 0,0 -0.8956183408573906,0.23654094396886538 l -8.10541678958266 -31.795640761511788" fill="#87ff25" stroke="none" /><path d="M 104.48393922423573 120.51570834832081 l 2.334559758604697 10.681488917241909 a31.933635020232664,31.933635020232664 0 0,0 -0.538018701797912,0.1127470500196062 l -2.150349595377407 -10.720091947988056" fill="#ff5708" stroke="none" /><line stroke="#e1ed5e" stroke-width="0.3" x1="102.19456741930631" x2="102.32365962044197" y1="184.97166512339345" y2="189.96999836594603" /><path d="M 102.22038585953345 185.97133177190398 a86.0,86.0 0 0,1 -42.740103519485714,-10.115201625700543" fill="none" id="id55" stroke="none" /><text fill="#e1ed5e" style="font-size:6.75px; font-family:Arial;" text-anchor="middle"><textPath startOffset="22.20632615414155" xlink:href="#id55">July</textPath></text><path d="M 98.37488393609728 120.93702456842531 l -3.1811869707375466 40.98451257883423 a62.10778784935297,62.10778784935297 0 0,0 -1.0651653669736811,-0.09190694984460888 l 3.8861966554527694 -40.92368137671095" fill="#30ff34" stroke="none" /><path d="M 97.65516085044442 120.86867818915974 l -7.034517448666749 62.60603456747922 a84.0,84.0 0 0,0 -1.4354903077944425,-0.17381788509860563 l 8.111135179512582 -62.47567115365527" fill="#4dd2ff" stroke="none" /><path d="M 96.58105272829116 120.7198165907248 l -1.6735013677728174 10.14190587012151 a31.279049640231467,31.279049640231467 0 0,0 -0.5304793190831069,-0.0922306293445306 l 1.847829658327974 -10.111596662255975" fill="#ff4d07" stroke="none" /><path d="M 95.86986931433489 120.58985236759428 l -2.233285702745736 11.133551554141391 a32.355330697025636,32.355330697025636 0 0,0 -0.5451234413754067,-0.11423591727616202 l 2.4246006055505296 -11.09345965613869" fill="#ff5d08" stroke="none" /><path d="M 94.81253420990036 120.34920634021253 l -2.8669176632642577 11.246242664675721 a32.60591189699065,32.60591189699065 0 0,0 -0.5426703728021331,-0.1433241777113096 l 3.06007847887788 -11.19522713766083" fill="#ff6008" stroke="none" /><path d="M 94.46302465271185 120.25689768951611 l -3.4542785578097215 12.637399111937803 a34.10098838520783,34.10098838520783 0 0,0 -0.5648890950495417,-0.1596433007856595 l 3.671298820963877 -12.576067017813623" fill="#ff760a" stroke="none" /><path d="M 94.11515582081647 120.15858648285463 l -3.1601680699446204 10.825184048827747 a32.27702407203657,32.27702407203657 0 0,0 -0.531994561044117,-0.16028559722466398 l 3.3460376054289833 -10.769183082497358" fill="#ff5c08" stroke="none" /><path d="M 93.76903079525671 120.05430185196036 l -3.584493233972144 11.536649747147724 a33.08068206405399,33.08068206405399 0 0,0 -0.5423320344993696,-0.17363759116552255 l 3.782546613562454 -11.473239309322496" fill="#ff6709" stroke="none" /><path d="M 93.42475214034765 119.94407469862007 l -4.171752807102779 12.653781482457278 a34.32372722962117,34.32372722962117 0 0,0 -0.5595262242431442,-0.1898216742367507 l 4.388948764283149 -12.580096821322403" fill="#ff7a0b" stroke="none" /><path d="M 93.08242187328487 119.8279376855182 l -9.655973891050552 27.677034519544563 a50.31306997877758,50.31306997877758 0 0,0 -0.8152644551640831,-0.29232482790187286 l 10.13095790684436 -27.506722150602734" fill="#b0ff20" stroke="none" /><path d="M 92.7421414339146 119.70592522655815 l -3.45142794279637 9.3710259501905 a30.98641488240196,30.98641488240196 0 0,0 -0.4989252201722313,-0.18865082693509302 l 3.6122233837288844 -9.310226873148773" fill="#ff4806" stroke="none" /><path d="M 92.40401165467489 119.57807347666478 l -4.729890387192059 12.190927279925033 a34.076336299563124,34.076336299563124 0 0,0 -0.5450249127968111,-0.21687666083412913 l 4.939036376030728 -12.107703774684838" fill="#ff760a" stroke="none" /><path d="M 92.06813273071674 119.44442032107085 l -4.827410451325707 11.83406059269438 a33.78080129636365,33.78080129636365 0 0,0 -0.5365172073039239,-0.22426423616587488 l 5.030399118127094 -11.749211313508532" fill="#ff720a" stroke="none" /><path d="M 91.40352486487194 119.15986991738527 l -4.808173809829774 10.716483592218866 a32.745703723822984,32.745703723822984 0 0,0 -0.5122862702092306,-0.23516550059819785 l 4.991928075806424 -10.632131021286593" fill="#ff6309" stroke="none" /><path d="M 91.07499286063937 119.00905698771935 l -5.432707719725627 11.570931992474053 a33.78283146812262,33.78283146812262 0 0,0 -0.5242569911687595,-0.251675214805895 l 5.631077378894629 -11.475702501168596" fill="#ff720a" stroke="none" /><path d="M 90.7491055286396 118.85261126421891 l -19.005764512407595 38.73228596877686 a64.1440501236057,64.1440501236057 0 0,0 -0.9870428163259202,-0.4949237587785609 l 19.669661236416275 -38.399394369088995" fill="#33ff4e" stroke="none" /><line stroke="#e1ed5e" stroke-width="0.3" x1="58.666819895761336" x2="56.23545636021788" y1="174.27360380694188" y2="178.64263932499728" /><path d="M 58.180547188652646 175.14741091055294 a86.0,86.0 0 0,1 -31.652253787137756,-30.449443065178592" fill="none" id="id56" stroke="none" /><text fill="#e1ed5e" style="font-size:6.75px; font-family:Arial;" text-anchor="middle"><textPath startOffset="22.20632615414155" xlink:href="#id56">August</textPath></text><path d="M 89.7882731507175 118.34994917583269 l -4.047449149227637 7.27305844312834 a29.32341418726378,29.32341418726378 0 0,0 -0.43894530513554925,-0.2492446000247298 l 4.172043221284393 -7.202310677308978" fill="#ff2f04" stroke="none" /><path d="M 89.4739219176387 118.17145234162733 l -5.85952632915119 10.115458255350113 a32.690019012719645,32.690019012719645 0 0,0 -0.4844849625453048,-0.28624225560968386 l 6.032779162724877 -10.01309742744668" fill="#ff6209" stroke="none" /><path d="M 89.1626897886671 117.98757091392108 l -6.462184561733927 10.725816719861017 a33.52209940936273,33.52209940936273 0 0,0 -0.4916906609533614,-0.30203656306557347 l 6.645854422619597 -10.612991689967066" fill="#ff6e0a" stroke="none" /><path d="M 88.54995079064634 117.60387380957326 l -8.07127185005208 12.409173841367107 a35.80314239284054,35.80314239284054 0 0,0 -0.5137329841704154,-0.34047420890474117 l 8.283679532962458 -12.268401611371047" fill="#ff8f0d" stroke="none" /><path d="M 88.24862548938628 117.40417183066458 l -33.98725175357846 50.336236755715795 a81.73606846420499,81.73606846420499 0 0,0 -1.1592631080978832,-0.7973517364750993 l 34.84867174629924 -49.743744229875595" fill="#4ae8ff" stroke="none" /><path d="M 87.95078237400918 117.19931262002967 l -7.290169664036936 10.406145112224031 a33.70568494128154,33.70568494128154 0 0,0 -0.4723172368740215,-0.336985807709188 l 7.468214228759845 -10.279115042670623" fill="#ff710a" stroke="none" /><path d="M 87.65650970185807 116.9893568818739 l -13.577765456693013 18.688190894990296 a44.099874322700636,44.099874322700636 0 0,0 -0.6102898228966306,-0.45147782100986933 l 13.897440250008207 -18.45170312524066" fill="#feff18" stroke="none" /><path d="M 87.07902340077011 116.55440617244103 l -5.412316655068417 6.934281441792118 a29.79644420710514,29.79644420710514 0 0,0 -0.4016028703088757,-0.3190576088293443 l 5.530877018094651 -6.840089918957643" fill="#ff3605" stroke="none" /><path d="M 86.79598089348748 116.32954008644616 l -9.150838761787266 11.316932153749214 a35.553721291023514,35.553721291023514 0 0,0 -0.4725764597010169,-0.3888982534923562 l 9.344285350032973 -11.157738781399676" fill="#ff8b0c" stroke="none" /><path d="M 86.24171649860922 115.8653595955263 l -9.341531400158479 10.772183522852453 a35.25847631236103,35.25847631236103 0 0,0 -0.45509902996797114,-0.4015719804898423 l 9.525572783033036 -10.609788400590322" fill="#ff870c" stroke="none" /><path d="M 85.97065885151581 115.62618273729859 l -8.02900983577296 8.942884314058587 a33.01832678859974,33.01832678859974 0 0,0 -0.41964791884418534,-0.38333842410804037 l 8.181757304084 -8.803353123363971" fill="#ff6709" stroke="none" /><path d="M 85.70375840098266 115.38237550388516 l -8.10811181373859 8.72411253563225 a32.910147636300024,32.910147636300024 0 0,0 -0.4116341175697035,-0.3892257510683192 l 8.257081765699112 -8.583252147818" fill="#ff6509" stroke="none" /><path d="M 85.44109423537348 115.13401014063109 l -8.609554963363129 8.949648704948594 a33.418560649654964,33.418560649654964 0 0,0 -0.4111279397795604,-0.40237522003529147 l 8.762332855518483 -8.800123381990732" fill="#ff6c0a" stroke="none" /><path d="M 84.19399662182784 113.82643327865904 l -4.289216524645711 3.752027927416132 a26.69869212744507,26.69869212744507 0 0,0 -0.29960698973791006,-0.34851061593183125 l 4.353166023954399 -3.6776402123227703" fill="#ff0701" stroke="none" /><path d="M 83.50135304334701 112.99209946851258 l -7.491050911002844 5.8989369743556574 a30.534846678298337,30.534846678298337 0 0,0 -0.32162380583481426,-0.4157421243668259 l 7.591481534055728 -5.769116855875579" fill="#ff4206" stroke="none" /><path d="M 82.24976979558568 111.22182372390057 l -5.703496258718969 3.6057915242898386 a27.747710877761563,27.747710877761563 0 0,0 -0.25175809954684186,-0.40591421799353894 l 5.764718997933767 -3.5070809749310357" fill="#ff1702" stroke="none" /><path d="M 82.05923443525364 110.91462005526583 l -11.3646680253687 6.91392087497472 a34.30255543842043,34.30255543842043 0 0,0 -0.30254710855319455,-0.5070863564123252 l 11.481996009620126 -6.717272424676284" fill="#ff790b" stroke="none" /><line stroke="#e1ed5e" stroke-width="0.3" x1="26.63291911575756" x2="22.317208475507996" y1="142.92168965132927" y2="145.44649492493687" /><path d="M 25.769776987707644 143.4266507060508 a86.0,86.0 0 0,1 -11.730757126820373,-40.83630448921669" fill="none" id="id57" stroke="none" /><text fill="#e1ed5e" style="font-size:6.75px; font-family:Arial;" text-anchor="middle"><textPath startOffset="21.46611528233685" xlink:href="#id57">September</textPath></text><path d="M 81.87401531095188 110.60418214915194 l -14.296983803201096 8.364115000285869 a37.56388135694655,37.56388135694655 0 0,0 -0.32170424184837,-0.5609184621938843 l 14.438840041201843 -8.116776692233678" fill="#ffa80f" stroke="none" /><path d="M 81.69416730710424 110.29060199501025 l -10.271670262536585 5.774207175878309 a32.78340691363253,32.78340691363253 0 0,0 -0.2722952163946553,-0.49429491124841474 l 10.369541888382757 -5.596541746232071" fill="#ff6309" stroke="none" /><path d="M 81.35079622478065 109.6543875284942 l -13.373463079293945 6.923222927998405 a36.05923405900848,36.05923405900848 0 0,0 -0.2806118093529297,-0.5536737215025895 l 13.490653558433142 -6.691994994793131" fill="#ff920d" stroke="none" /><path d="M 81.18737489456691 109.33194174019688 l -26.143922161569503 12.968607895213367 a50.18371903527711,50.18371903527711 0 0,0 -0.37720650574668707,-0.7771571267146324 l 26.36328192393091 -12.51666181253345" fill="#b1ff20" stroke="none" /><path d="M 80.87730276802145 108.67885076344099 l -14.690169698856584 6.667144752613331 a37.132324845895695,37.132324845895695 0 0,0 -0.25914634527715324,-0.5843065959628492 l 14.802757128865016 -6.413289820157786" fill="#ffa20e" stroke="none" /><path d="M 80.73074385275274 108.34839909993369 l -10.884114120046206 4.715538982357135 a32.8617135386216,32.8617135386216 0 0,0 -0.22040667182163556,-0.5209762651080194 l 10.963671773060149 -4.527488191582957" fill="#ff6409" stroke="none" /><path d="M 80.20201598880116 107.00284435728193 l -13.75841541815803 4.86655821732601 a35.59374467712903,35.59374467712903 0 0,0 -0.19934051119504909,-0.5793768347577497 l 13.840146760296308 -4.6290086794789636" fill="#ff8c0c" stroke="none" /><path d="M 80.0844068197444 106.66101706037122 l -9.889080399445408 3.3075255482419497 a31.427542203173697,31.427542203173697 0 0,0 -0.16717619026706468,-0.514515408592625 l 9.944548840728723 -3.1368112396715215" fill="#ff4f07" stroke="none" /><path d="M 79.76711848015287 105.62410040840567 l -42.62482627715095 11.848352032229805 a65.24092292252664,65.24092292252664 0 0,0 -0.2914464990762008,-1.0845808438214222 l 42.82246085256893 -11.112880255232843" fill="#34ff5c" stroke="none" /><path d="M 79.58551787078972 104.9243191809786 l -9.159042087387505 2.2093162268259463 a30.421737108869685,30.421737108869685 0 0,0 -0.11841217022325891,-0.5101165301873802 l 9.195714823541318 -2.051331039289992" fill="#ff4006" stroke="none" /><path d="M 79.50377843672027 104.57218783832718 l -13.822445070133174 3.083437357002082 a35.16218816607818,35.16218816607818 0 0,0 -0.12669432229230473,-0.5918736950379591 l 13.87347343114992 -2.8450498425479593" fill="#ff860c" stroke="none" /><path d="M 79.4281124754447 104.21870165774334 l -22.49627285437287 4.613337666293746 a43.96443286392325,43.96443286392325 0 0,0 -0.1456480257633311,-0.7426561455104407 l 22.572350813111868 -4.2254177937153505" fill="#fffe18" stroke="none" /><path d="M 79.35854240842038 103.8639653848113 l -9.283396322716158 1.7377998566870894 a30.444649047292415,30.444649047292415 0 0,0 -0.09199149018026347,-0.5159371303066334 l 9.31193425523561 -1.5777439756472422" fill="#ff4006" stroke="none" /><path d="M 79.29508885075956 103.50808413554451 l -60.120809985054095 10.186417039147324 a81.9776589035231,81.9776589035231 0 0,0 -0.22375312332945035,-1.393310912561545 l 60.287244862744835 -9.150026896892566" fill="#4ae6ff" stroke="none" /><path d="M 79.10278846688536 102.07522291339032 l -12.993283774264533 1.290313789751712 a34.057194680121356,34.057194680121356 0 0,0 -0.05291093933853339,-0.5838678066032595 l 13.013569309880141 -1.0664645945998863" fill="#ff760a" stroke="none" /><path d="M 79.07016306316243 101.71520430193888 l -16.588030074545017 1.3593923655694817 a37.64363810462059,37.64363810462059 0 0,0 -0.04736545062468728,-0.6462639417480899 l 16.60897208383404 -1.0736552873246312" fill="#ffa90f" stroke="none" /><path d="M 79.04373962182676 101.35467743843564 l -19.546879199086618 1.263570683174429 a40.587677179672504,40.587677179672504 0 0,0 -0.03906786022857332,-0.697582888685263 l 19.56573341020272 -0.9269160781537286" fill="#ffd113" stroke="none" /><line stroke="#e1ed5e" stroke-width="0.3" x1="15.007084014347285" x2="10.007500721073583" y1="101.09737516637583" y2="101.16192664675087" /><path d="M 14.007167355692545 101.11028546245083 a86.0,86.0 0 0,1 10.666146001902534,-42.60595125391555" fill="none" id="id58" stroke="none" /><text fill="#e1ed5e" style="font-size:6.75px; font-family:Arial;" text-anchor="middle"><textPath startOffset="22.20632615414155" xlink:href="#id58">October</textPath></text><path d="M 79.00175016825051 100.2711162175752 l -13.373656876679169 0.17267226062200766 a34.374771548132564,34.374771548132564 0 0,0 -0.0025465202509592634,-0.591721623979233 l 13.374647694219632 0.05755884156090075" fill="#ff7a0b" stroke="none" /><path d="M 79.00486145842228 99.54816195383935 l -19.218666223295585 -0.4136064441275638 a40.22311633666785,40.22311633666785 0 0,0 0.02085531336284639,-0.692086318858833 l 19.208699215477093 0.7443629104113912" fill="#ffcc13" stroke="none" /><path d="M 79.03285615573316 98.82574320788736 l -5.26265918745767 -0.2947331950095783 a26.27090593537517,26.27090593537517 0 0,0 0.029172476199600138,-0.4512852947642069 l 5.256806120253657 0.385277554026797" fill="#ff0000" stroke="none" /><path d="M 79.12142395522702 97.74499172005258 l -7.472239398556977 -0.8070455416768606 a28.51569585172841,28.51569585172841 0 0,0 0.05690870223823627,-0.48755900721842144 l 7.457240343315152 0.9355482872201438" fill="#ff2303" stroke="none" /><path d="M 79.16333360222342 97.38593545837743 l -7.25062235433235 -0.9096270218722983 a28.30745823416489,28.30745823416489 0 0,0 0.06481599278104348,-0.48295443181295267 l 7.233890362493473 1.0342997957499105" fill="#ff2003" stroke="none" /><path d="M 79.21141760316559 97.0276538004421 l -13.184422655438375 -1.8851053826173754 a34.318506787955236,34.318506787955236 0 0,0 0.08864651139094638,-0.5840697517806293 l 13.150020250608126 2.111774246790097" fill="#ff790b" stroke="none" /><path d="M 79.62865764111835 94.90015583598534 l -10.310915411038243 -2.5812762290407503 a31.629109256386293,31.629109256386293 0 0,0 0.1367637685787948,-0.5270065897864324 l 10.26495531058914 2.7583792443760466" fill="#ff5207" stroke="none" /><path d="M 79.81627453868168 94.20196356495316 l -22.228458581207878 -6.385412494624518 a44.127426653715304,44.127426653715304 0 0,0 0.216001868363696,-0.7282509198416773 l 22.115250815732473 6.767092801212734" fill="#feff18" stroke="none" /><path d="M 80.02781315780177 93.51064311812611 l -19.660315365564827 -6.388023696422461 a41.672078923502575,41.672078923502575 0 0,0 0.22753492112024243,-0.6803004529581184 l 19.547443150672812 6.725497252302901" fill="#ffe015" stroke="none" /><path d="M 80.14247586403 93.16781622104843 l -10.577125684795226 -3.6391680068860692 a32.18566634288266,32.18566634288266 0 0,0 0.1847563295103766,-0.5223310230807404 l 10.512916274475039 3.8206966563934204" fill="#ff5a08" stroke="none" /><path d="M 80.38941819471856 92.48833698450439 l -13.207574229934512 -5.059046582732852 a35.14333657117341,35.14333657117341 0 0,0 0.22124646539941797,-0.5630481219359239 l 13.118534214653403 5.285643709564539" fill="#ff850c" stroke="none" /><path d="M 80.52162464483688 92.15188598940014 l -13.515323739457854 -5.445515843256204 a35.57112276324331,35.57112276324331 0 0,0 0.23371635783029587,-0.5659626987012699 l 13.419585694741357 5.677353112410785" fill="#ff8c0c" stroke="none" /><path d="M 80.803312248108 91.48605970444005 l -22.87212839860616 -10.14403829113287 a46.020706831228736,46.020706831228736 0 0,0 0.32739937963306803,-0.7213811345891361 l 22.69412670200974 10.536241434564078" fill="#e5ff1a" stroke="none" /><line stroke="#e1ed5e" stroke-width="0.3" x1="26.266209847984243" x2="21.928928074336255" y1="57.711370442889674" y2="55.22380399835377" /><path d="M 25.398753493254645 57.213857153982495 a86.0,86.0 0 0,1 29.58750427330803,-30.492523968695096" fill="none" id="id59" stroke="none" /><text fill="#e1ed5e" style="font-size:6.75px; font-family:Arial;" text-anchor="middle"><textPath startOffset="21.46611528233685" xlink:href="#id59">November</textPath></text><path d="M 84.5562425177563 85.77008943001954 l -5.017623291775499 -4.623248636085365 a27.822827232843668,27.822827232843668 0 0,0 0.3275577184347271,-0.34941573572472034 l 4.937298251370317 4.708933788688135" fill="#ff1802" stroke="none" /><path d="M 85.31137513191541 84.99185889309783 l -5.8062611368176995 -5.932562593672228 a29.301082297915045,29.301082297915045 0 0,0 0.36349632947134025,-0.34968318095366113 l 5.703281563733932 6.031628861388203" fill="#ff2f04" stroke="none" /><path d="M 86.10567301691215 84.25364557470407 l -10.145814447505149 -11.498188463404045 a36.334467344618204,36.334467344618204 0 0,0 0.4725318264134063,-0.40977494345976445 l 9.94638882244497 11.67112840028349" fill="#ff960d" stroke="none" /><line stroke="#e1ed5e" stroke-width="0.3" x1="56.762969772571076" x2="54.21961505331055" y1="26.818313649435495" y2="22.513508569990535" /><path d="M 56.25429882871897 25.957352633546506 a86.0,86.0 0 0,1 42.265352541879196,-11.944610805530505" fill="none" id="id60" stroke="none" /><text fill="#e1ed5e" style="font-size:6.75px; font-family:Arial;" text-anchor="middle"><textPath startOffset="22.20632615414155" xlink:href="#id60">December</textPath></text></svg>