<?xml version="1.0" encoding="utf-8" ?>
<svg baseProfile="full" height="250mm" version="1.1" viewBox="0,0,200,250" width="200mm" xmlns="http://www.w3.org/2000/svg" xmlns:ev="http://www.w3.org/2001/xml-events" xmlns:xlink="http://www.w3.org/1999/xlink"><defs /><rect fill="#1a1a1a" height="250" width="200" x="0" y="0" /><text alignment-baseline="middle" fill="#e1ed5e" style="dominant-baseline: central; font-size:7.2px; " text-anchor="middle" x="100.0" y="125.0">2022</text><line stroke="#e1ed5e" stroke-width="0.3" x1="100.0" x2="100.0" y1="40.0" y2="35.0" /><path d="M 100.0 39.0 a86.0,86.0 0 0,1 42.46469731375804,11.215312516191453" fill="none" id="id37" stroke="none" /><text fill="#e1ed5e" style="font-size:5.4px;" text-anchor="middle"><textPath startOffset="22.20632615414155" xlink:href="#id37">January</textPath></text><path d="M 101.08401301168833 104.027996857942 l 0.7452710532643071 -14.418486403960015 a35.43773455650205,35.43773455650205 0 0,0 0.6089180729111373,0.03673160104112711 l -0.9933511750150563 14.403521533538584" fill="#ff9d0e" stroke="none" /><path d="M 101.44485096284872 104.0497635885617 l 0.9361794199622027 -13.574535143099684 a34.6067790552213,34.6067790552213 0 0,0 0.5939344136224575,0.046100741455788255 l -1.1697040229470013 13.55640913945543" fill="#ff920d" stroke="none" /><path d="M 102.16513564639614 104.11191278185805 l 2.3980034851742467 -23.134673354578187 a44.258622743789836,44.258622743789836 0 0,0 0.7571033783986224,0.08506938608368846 l -2.795873567082594 23.0899680150239" fill="#edff19" stroke="none" /><path d="M 103.2404852339499 104.25152402106235 l 2.2436021774522708 -14.365541739691288 a35.53968844939537,35.53968844939537 0 0,0 0.6036175663248998,0.09960207043849398 l -2.4905489499160454 14.32479340631317" fill="#ff9e0e" stroke="none" /><path d="M 103.59715602781102 104.31037775812273 l 2.2005179328407936 -12.65663330001776 a33.846503246559834,33.846503246559834 0 0,0 0.5731419851468182,0.10473803435420745 l -2.418055039090513 12.616879784312813" fill="#ff870c" stroke="none" /><path d="M 103.95276090670814 104.375362276772 l 2.678538851150195 -13.976027069790925 a35.23038660868529,35.23038660868529 0 0,0 0.594611067694173,0.11927338636895339 l -2.9187163283114934 13.927849727344764" fill="#ff9a0e" stroke="none" /><path d="M 104.66035177308747 104.52364482259891 l 0.7984256686364195 -3.5080715726577423 a24.59778399952344,24.59778399952344 0 0,0 0.4120437030592661,0.09751743191601238 l -0.8586930586582091 3.4938082286008614" fill="#ff0000" stroke="none" /><path d="M 105.71112130821622 104.79150937346287 l 3.957588991371429 -14.003712356933917 a35.55219812950497,35.55219812950497 0 0,0 0.5874743110653858,0.17149986100629513 l -4.198053520160242 13.93351416700892" fill="#ff9f0e" stroke="none" /><path d="M 106.0581310904928 104.89281104454417 l 4.035566266720416 -13.394212217453076 a34.98894978256985,34.98894978256985 0 0,0 0.5751760599253927,0.17871000163241443 l -4.265527699356526 13.32276208093814" fill="#ff970d" stroke="none" /><path d="M 106.40334571778207 105.00007090966166 l 4.418678548566599 -13.801106724398606 a35.49121343897063,35.49121343897063 0 0,0 0.5802258682409229,0.19129134622274435 l -4.6555872390499395 13.723001653916626" fill="#ff9e0e" stroke="none" /><path d="M 106.74666289553966 105.11325718540242 l 4.370239609584691 -12.881899169949017 a34.60302615118842,34.60302615118842 0 0,0 0.5624112161557031,0.1962142300830148 l -4.591332829803668 12.804764086693796" fill="#ff920d" stroke="none" /><path d="M 107.08798089147638 105.2323363322302 l 21.26394267442914 -59.302991003309366 a84.0,84.0 0 0,0 1.3568706969096942,0.49974692877470117 l -22.28159569711141 58.92818080672834" fill="#4dd2ff" stroke="none" /><line stroke="#e1ed5e" stroke-width="0.3" x1="143.23703022742887" x2="145.7803849466894" y1="51.81831364943548" y2="47.513508569990506" /><path d="M 143.74570117128098 50.95735263354649 a86.0,86.0 0 0,1 28.547481713284135,27.462654790039103" fill="none" id="id38" stroke="none" /><text fill="#e1ed5e" style="font-size:5.4px;" text-anchor="middle"><textPath startOffset="19.985693538727396" xlink:href="#id38">February</textPath></text><path d="M 112.48926042617603 108.11751280151076 l 3.631944188091072 -4.909518191530641 a27.10691308750819,27.10691308750819 0 0,0 0.37272501970262933,0.2807287574399934 l -3.715915361552084 4.8462728445848" fill="#ff2603" stroke="none" /><path d="M 112.77801427241765 108.33499621200491 l 6.8864415990089025 -8.98125271162159 a32.31750759516292,32.31750759516292 0 0,0 0.43854464585758485,0.34229105217175365 l -7.040018800025917 8.86138327022661" fill="#ff720a" stroke="none" /><path d="M 113.06298171725822 108.55741782278167 l 6.463985427999922 -8.13632093290095 a31.391478525049145,31.391478525049145 0 0,0 0.42019228225843214,0.3397662698384611 l -6.603081108822845 8.02384856579836" fill="#ff6409" stroke="none" /><path d="M 113.34407831869373 108.78471172551755 l 6.920844575070407 -8.409984354666197 a31.89155298743075,31.89155298743075 0 0,0 0.4208811211969227,0.35247583510935043 l -7.064583233226447 8.289607362163027" fill="#ff6c09" stroke="none" /><path d="M 113.6212207817346 109.01681056812373 l 7.509644268478809 -8.811843580867029 a32.57770894144278,32.57770894144278 0 0,0 0.4236749684661325,0.3674067576913636 l -7.660213035591705 8.681271829755994" fill="#ff750a" stroke="none" /><path d="M 114.42810811169701 109.74124197986012 l 7.128535693001426 -7.538937214454048 a31.37552868290939,31.37552868290939 0 0,0 0.38923099821033763,0.37443991189102904 l -7.257249934824182 7.415114215800717" fill="#ff6409" stroke="none" /><path d="M 114.68862486808459 109.99185889309783 l 8.609343672681314 -8.79661955001413 a33.30858700184666,33.30858700184666 0 0,0 0.4063079779469129,0.40456316236535866 l -8.75948745079555 8.647120536998653" fill="#ff800b" stroke="none" /><path d="M 114.94478906791727 110.2469230424477 l 7.561643065802245 -7.4646421283260755 a31.625409543098826,31.625409543098826 0 0,0 0.379106940810605,0.390703026946235 l -7.689014270315958 7.333374905829726" fill="#ff6809" stroke="none" /><path d="M 115.19652480421416 110.50635884689758 l 9.07948678471835 -8.659534005797873 a33.54689640793471,33.54689640793471 0 0,0 0.39494709707205505,0.42130202626648144 l -9.227201203760869 8.501962562653338" fill="#ff830c" stroke="none" /><path d="M 116.15771136456269 111.58626213691792 l 9.355629621942535 -7.766815513740257 a33.15940906653958,33.15940906653958 0 0,0 0.3608083320742616,0.4423083526656383 l -9.487936446093206 7.604622991466518" fill="#ff7d0b" stroke="none" /><path d="M 116.38621287248628 111.86637796730983 l 8.497169420086562 -6.810518841637455 a31.88967653541431,31.88967653541431 0 0,0 0.3396188584916107,0.4312814614492849 l -8.613142359172137 6.6632449862351315" fill="#ff6b09" stroke="none" /><path d="M 116.60985879189232 112.15038557335679 l 8.63392076118737 -6.679319442836042 a31.915946863644486,31.915946863644486 0 0,0 0.33241835569560924,0.4374235904537553 l -8.747615057107092 6.529711076501253" fill="#ff6c09" stroke="none" /><path d="M 116.82858285166822 112.43820079747576 l 7.429357688313165 -5.545689753375063 a30.270923929230953,30.270923929230953 0 0,0 0.30809658083012265,0.42024339000638566 l -7.523716881656914 5.416983919697183" fill="#ff5407" stroke="none" /><path d="M 117.04232023915458 112.72973835380427 l 5.746846624995195 -4.137659117990263 a28.081417168046706,28.081417168046706 0 0,0 0.279058922904473,0.3947090562445339 l -5.81721816770355 4.038123561413936" fill="#ff3405" stroke="none" /><path d="M 117.65298651832404 113.62581576622439 l 10.960951434271818 -7.062367654417205 a34.03915232024781,34.03915232024781 0 0,0 0.3131154702596345,0.4952734791079121 l -11.080894500777408 6.872646527595086" fill="#ff8a0c" stroke="none" /><line stroke="#e1ed5e" stroke-width="0.3" x1="172.23445277983987" x2="176.4835382374775" y1="80.19839476539836" y2="77.56300622218649" /><path d="M 173.08426987136738 79.67131705675598 a86.0,86.0 0 0,1 12.851231095245387,41.99856678651699" fill="none" id="id39" stroke="none" /><text fill="#e1ed5e" style="font-size:5.4px;" text-anchor="middle"><textPath startOffset="22.20632615414155" xlink:href="#id39">March</textPath></text><path d="M 117.84615892207809 113.93136811851018 l 11.057772206349863 -6.858305505171639 a34.01194376600941,34.01194376600941 0 0,0 0.3043003287243105,0.5001897300386767 l -11.174188333360398 6.666948001925881" fill="#ff890c" stroke="none" /><path d="M 118.03404312379186 114.2402003453031 l 10.338662209602186 -6.168441170363332 a33.0390033954846,33.0390033954846 0 0,0 0.2871881159517962,0.4908975835571787 l -10.443310000024308 5.9895641744522585" fill="#ff7c0b" stroke="none" /><path d="M 118.89224826269711 115.83032412892265 l 10.826720161387495 -5.254933835630654 a33.03462500744624,33.03462500744624 0 0,0 0.24389275842451205,0.5137003496501067 l -10.915571113653762 5.067791070340007" fill="#ff7c0b" stroke="none" /><path d="M 119.04729006885535 116.15688171328212 l 11.21483380238079 -5.206730276161288 a33.364567820337165,33.364567820337165 0 0,0 0.2373613870417926,0.522994352902445 l -11.302797506385929 5.01291391441678" fill="#ff800b" stroke="none" /><path d="M 119.34039704204932 116.81776055985345 l 6.956701759644627 -2.9431350032444685 a28.55365759218443,28.55365759218443 0 0,0 0.1876088337047014,0.45430967181513926 l -7.006332280235526 2.822950760976026" fill="#ff3b05" stroke="none" /><path d="M 119.47837535516314 117.15188598940014 l 10.249440585333577 -4.129645147085908 a32.05011318282004,32.05011318282004 0 0,0 0.20177293760906445,0.5134901177886925 l -10.319007072824341 3.9526060244014314" fill="#ff6e0a" stroke="none" /><path d="M 119.85752413597 118.16781622104841 l 10.826591389436189 -3.7249992277866406 a32.44948472031929,32.44948472031929 0 0,0 0.17717836827349556,0.5297407694493735 l -10.889107051481455 3.538085355414953" fill="#ff730a" stroke="none" /><path d="M 119.97218684219823 118.5106431181261 l 11.59254158239524 -3.7666450895191974 a33.1891195567999,33.1891195567999 0 0,0 0.171863559541113,0.5448544496981164 l -11.65566062570456 3.566540473394662" fill="#ff7e0b" stroke="none" /><path d="M 120.08093135843002 118.85539295169968 l 9.067640431866275 -2.7746266502578467 a30.48265026508608,30.48265026508608 0 0,0 0.1492112708408216,0.5030662283791398 l -9.114057599818798 2.6181310351321767" fill="#ff5708" stroke="none" /><path d="M 120.18372546131832 119.20196356495316 l 10.948832428791917 -3.145193857547229 a32.391627449812354,32.391627449812354 0 0,0 0.14933038381083688,0.5372208430778116 l -11.001349583169116 2.9562617110504656" fill="#ff730a" stroke="none" /><path d="M 120.28053869075195 119.5502522615342 l 9.470976533397861 -2.5450227792757856 a30.80696372192768,30.80696372192768 0 0,0 0.13320882428045455,0.5133079392518756 l -9.513381689548618 2.3816184144750596" fill="#ff5c08" stroke="none" /><path d="M 120.53481517161879 120.60439243477599 l 9.62611510628827 -2.0605310557359324 a30.844180020253766,30.844180020253766 0 0,0 0.10666314619025778,0.5201273814690461 l -9.660157548393522 1.8945280181034745" fill="#ff5d08" stroke="none" /><path d="M 120.6074358757038 120.95851677861258 l 10.595575796876652 -2.0779801069041666 a31.797417644605943,31.797417644605943 0 0,0 0.10071343886508721,0.5380152175812958 l -10.629774959651598 1.8952868118603081" fill="#ff6a09" stroke="none" /><path d="M 120.67395015179393 121.31383870115 l 12.702157733103157 -2.2647922580770135 a33.90248406505034,33.90248406505034 0 0,0 0.09749085250136628,0.5753965301037992 l -12.739260447124746 2.0458099396573766" fill="#ff880c" stroke="none" /><path d="M 120.73433829027371 121.67025291283417 l 11.644306560526326 -1.8699702546170172 a32.79350092333353,32.79350092333353 0 0,0 0.08470734088493913,0.5581155398938323 l -11.674769794850565 1.6692556023311027" fill="#ff780b" stroke="none" /><path d="M 120.78858239683441 122.02765380044208 l 6.772666773591911 -0.9683541648526969 a27.841544051944958,27.841544051944958 0 0,0 0.06374918240119126,0.475005455352882 l -6.788331955050938 0.8516303674351505" fill="#ff3104" stroke="none" /><path d="M 120.91429891909075 123.10471618934814 l 9.945722777810298 -0.9012956847819044 a30.986477631500563,30.986477631500563 0 0,0 0.04356627365170161,0.5316188878753539 l -9.959763535281494 0.7299628796987817" fill="#ff5f08" stroke="none" /><path d="M 120.94382443527127 123.46500227214037 l 11.162782699617612 -0.8181335807822783 a32.19272353606958,32.19272353606958 0 0,0 0.03574834699139931,0.5530111053640512 l -11.175211637613426 0.6258634111651917" fill="#ff700a" stroke="none" /><path d="M 120.98425023603335 124.18683210126433 l 11.72496700729337 -0.4543582294731568 a32.73376720081015,32.73376720081015 0 0,0 0.016972155185724043,0.5632232036615777 l -11.73105085693474 0.25246487838658005" fill="#ff770b" stroke="none" /><line stroke="#e1ed5e" stroke-width="0.3" x1="184.98032266829074" x2="189.97916517819016" y1="123.17113171792111" y2="123.06355123074" /><path d="M 185.9800911702706 123.14961562048488 a86.0,86.0 0 0,1 -9.607161424134198,41.387399972396054" fill="none" id="id40" stroke="none" /><text fill="#e1ed5e" style="font-size:5.4px;" text-anchor="middle"><textPath startOffset="21.466115282336823" xlink:href="#id40">April</textPath></text><path d="M 120.99513854157772 124.54816195383933 l 8.546510944413608 -0.18393014168338118 a29.548489902901053,29.548489902901053 0 0,0 0.006566790098052053,0.5086051299507262 l -8.548410741629377 0.0367887536721923" fill="#ff4a06" stroke="none" /><path d="M 120.99824983174949 125.27111621757518 l 18.96028006119026 0.24480323148568914 a39.96186036814201,39.96186036814201 0 0,0 -0.01480099261589969,0.6877439674771387 l -18.953257005889352 -0.5711370147529428" fill="#ffda14" stroke="none" /><path d="M 120.95626037817324 126.35467743843564 l 5.270274155689094 0.34068680977635457 a26.28127420027402,26.28127420027402 0 0,0 -0.03306865271701887,0.4511954931568164 l -5.2636289443077375 -0.43135543942994126" fill="#ff1902" stroke="none" /><path d="M 120.92983693683757 126.71520430193887 l 11.598249127594656 0.9504788240177721 a32.63712992196342,32.63712992196342 0 0,0 -0.050704740002933395,0.559522580774532 l -11.580169791314646 -1.1499827933408746" fill="#ff760a" stroke="none" /><path d="M 120.89721153311464 127.0752229133903 l 4.875746307995876 0.48419189527738465 a25.899728956930957,25.899728956930957 0 0,0 -0.04787466046926771,0.44325989758609335 l -4.866689346025557 -0.5680481147482694" fill="#ff1402" stroke="none" /><path d="M 120.81339534386255 127.79330883721812 l 22.743534928157416 3.0523475893679493 a43.94744445106332,43.94744445106332 0 0,0 -0.10707679527304058,0.7488948567477354 l -22.687624081867774 -3.4433879180960942" fill="#f1ff19" stroke="none" /><path d="M 120.76222939487914 128.1511633652377 l 10.610541846587727 1.6104027229626652 a31.732054566033238,31.732054566033238 0 0,0 -0.08661074753509011,0.5393252075774208 l -10.581249344691349 -1.792807160233291" fill="#ff6909" stroke="none" /><path d="M 120.70491114924044 128.5080841355445 l 10.199515264707442 1.7281290140516614 a31.344879966640853,31.344879966640853 0 0,0 -0.09471162611116447,0.5311930971735935 l -10.168257196257088 -1.9034408619584733" fill="#ff6409" stroke="none" /><path d="M 120.5718875245553 129.21870165774334 l 10.964545222736483 2.248512444584742 a32.19272353606958,32.19272353606958 0 0,0 -0.1159949224969024,0.5418896612074494 l -10.924216261515138 -2.4369159252083605" fill="#ff700a" stroke="none" /><path d="M 120.23288151984713 130.62410040840567 l 9.87870108757056 2.7459661030794584 a31.25324655983797,31.25324655983797 0 0,0 -0.14853829180409583,0.5170812801632306 l -9.829970158880364 -2.915604858747271" fill="#ff6209" stroke="none" /><path d="M 120.13307415673323 130.9715429329011 l 10.575051014296488 3.136598547140955 a32.0304104366474,32.0304104366474 0 0,0 -0.16133142332559272,0.5272404260017187 l -10.519492818464762 -3.318165945694731" fill="#ff6d0a" stroke="none" /><line stroke="#e1ed5e" stroke-width="0.3" x1="174.80103733775053" x2="179.2010983576182" y1="165.37084112569926" y2="167.7455964860345" /><path d="M 175.68104954172406 165.8457921977663 a86.0,86.0 0 0,1 -30.038265399797805,32.042727171017184" fill="none" id="id41" stroke="none" /><text fill="#e1ed5e" style="font-size:5.4px;" text-anchor="middle"><textPath startOffset="22.206326154141568" xlink:href="#id41">May</textPath></text><line stroke="#e1ed5e" stroke-width="0.3" x1="143.8653032363475" x2="146.44561519142675" y1="197.8068346515853" y2="202.08958963109032" /><path d="M 144.38136562736335 198.6633856474863 a86.0,86.0 0 0,1 -40.68145358897372,12.25698825130547" fill="none" id="id42" stroke="none" /><text fill="#e1ed5e" style="font-size:5.4px;" text-anchor="middle"><textPath startOffset="21.466115282336833" xlink:href="#id42">June</textPath></text><line stroke="#e1ed5e" stroke-width="0.3" x1="102.19456741930631" x2="102.32365962044197" y1="209.97166512339345" y2="214.96999836594603" /><path d="M 102.22038585953345 210.97133177190398 a86.0,86.0 0 0,1 -42.740103519485714,-10.115201625700543" fill="none" id="id43" stroke="none" /><text fill="#e1ed5e" style="font-size:5.4px;" text-anchor="middle"><textPath startOffset="22.20632615414155" xlink:href="#id43">July</textPath></text><line stroke="#e1ed5e" stroke-width="0.3" x1="58.666819895761336" x2="56.23545636021788" y1="199.27360380694188" y2="203.64263932499728" /><path d="M 58.180547188652646 200.14741091055294 a86.0,86.0 0 0,1 -31.652253787137756,-30.449443065178592" fill="none" id="id44" stroke="none" /><text fill="#e1ed5e" style="font-size:5.4px;" text-anchor="middle"><textPath startOffset="22.20632615414155" xlink:href="#id44">August</textPath></text><line stroke="#e1ed5e" stroke-width="0.3" x1="26.63291911575756" x2="22.317208475507996" y1="167.92168965132927" y2="170.44649492493687" /><path d="M 25.769776987707644 168.4266507060508 a86.0,86.0 0 0,1 -11.730757126820373,-40.83630448921669" fill="none" id="id45" stroke="none" /><text fill="#e1ed5e" style="font-size:5.4px;" text-anchor="middle"><textPath startOffset="21.46611528233685" xlink:href="#id45">September</textPath></text><line stroke="#e1ed5e" stroke-width="0.3" x1="15.007084014347285" x2="10.007500721073583" y1="126.09737516637583" y2="126.16192664675087" /><path d="M 14.007167355692545 126.11028546245083 a86.0,86.0 0 0,1 10.666146001902534,-42.60595125391555" fill="none" id="id46" stroke="none" /><text fill="#e1ed5e" style="font-size:5.4px;" text-anchor="middle"><textPath startOffset="22.20632615414155" xlink:href="#id46">October</textPath></text><line stroke="#e1ed5e" stroke-width="0.3" x1="26.266209847984243" x2="21.928928074336255" y1="82.71137044288967" y2="80.22380399835377" /><path d="M 25.398753493254645 82.2138571539825 a86.0,86.0 0 0,1 29.58750427330803,-30.492523968695096" fill="none" id="id47" stroke="none" /><text fill="#e1ed5e" style="font-size:5.4px;" text-anchor="middle"><textPath startOffset="21.46611528233685" xlink:href="#id47">November</textPath></text><line stroke="#e1ed5e" stroke-width="0.3" x1="56.762969772571076" x2="54.21961505331055" y1="51.818313649435495" y2="47.513508569990535" /><path d="M 56.25429882871897 50.957352633546506 a86.0,86.0 0 0,1 42.265352541879196,-11.944610805530505" fill="none" id="id48" stroke="none" /><text fill="#e1ed5e" style="font-size:5.4px;" text-anchor="middle"><textPath startOffset="22.20632615414155" xlink:href="#id48">December</textPath></text></svg>