<?xml version="1.0" encoding="utf-8" ?>
<svg baseProfile="full" height="200mm" version="1.1" viewBox="0,0,200,200" width="200mm" xmlns="http://www.w3.org/2000/svg" xmlns:ev="http://www.w3.org/2001/xml-events" xmlns:xlink="http://www.w3.org/1999/xlink"><defs /><rect fill="#1a1a1a" height="200" width="200" x="0" y="0" /><text alignment-baseline="middle" fill="#e1ed5e" style="dominant-baseline: central; font-size:9.0px; font-family:Arial;" text-anchor="middle" x="100.0" y="100.0">2021</text><line stroke="#e1ed5e" stroke-width="0.3" x1="100.0" x2="100.0" y1="15.0" y2="10.0" /><path d="M 100.0 14.0 a86.0,86.0 0 0,1 42.46469731375804,11.215312516191453" fill="none" id="id25" stroke="none" /><text fill="#e1ed5e" style="font-size:6.75px; font-family:Arial;" text-anchor="middle"><textPath startOffset="22.20632615414155" xlink:href="#id25">January</textPath></text><path d="M 101.08401301168833 79.027996857942 l 0.7457059458213157 -14.42690011115144 a35.446159495685166,35.446159495685166 0 0,0 0.609062836615589,0.03674033358311217 l -0.9939308312765166 14.411926508188024" fill="#ffa50f" stroke="none" /><path d="M 101.44485096284872 79.0497635885617 l 0.9688875732632511 -14.04880104446814 a35.082171491523354,35.082171491523354 0 0,0 0.6020932754294193,0.04673402615879478 l -1.2105710380550117 14.030041756120882" fill="#ffa00e" stroke="none" /><path d="M 103.59715602781102 79.31037775812273 l 2.3691606246698114 -13.62660890319418 a34.8310300507987,34.8310300507987 0 0,0 0.5898135344321663,0.10778465342424356 l -2.6033692802048787 13.583808768419198" fill="#ff9d0e" stroke="none" /><path d="M 103.95276090670814 79.375362276772 l 2.6819938774678778 -13.994054637814456 a35.24874227308893,35.24874227308893 0 0,0 0.5949208707437539,0.11933552994622353 l -2.922481157678757 13.945815151791024" fill="#ffa20f" stroke="none" /><path d="M 104.66035177308747 79.52364482259891 l 3.1722565854657123 -13.93805783781256 a35.29449782728441,35.29449782728441 0 0,0 0.5912270626757778,0.1399243439550789 l -3.4117073351040137 13.881387581716613" fill="#ffa30f" stroke="none" /><path d="M 105.71112130821622 79.79150937346287 l 1.091471166964683 -3.8621110735311106 a25.01337903176449,25.01337903176449 0 0,0 0.4133279624673328,0.1206617664432193 l -1.157789347155443 3.842750978169188" fill="#ff1101" stroke="none" /><path d="M 106.40334571778207 80.00007090966166 l 4.16752422809808 -13.016662338371868 a34.66754391333619,34.66754391333619 0 0,0 0.5667601588625543,0.1868519135538051 l -4.390967209203052 12.942996700558828" fill="#ff9b0e" stroke="none" /><path d="M 106.74666289553966 80.11325718540242 l 4.831880768163652 -14.242651757626414 a36.03995348552543,36.03995348552543 0 0,0 0.5857659379682083,0.2043622339414141 l -5.076328710195134 14.157368670512792" fill="#ffad10" stroke="none" /><path d="M 107.08798089147638 80.2323363322302 l 4.787065863115359 -13.3506437709676 a35.182936532223515,35.182936532223515 0 0,0 0.5683178049024722,0.20931624377683258 l -5.016165993790407 13.266264259384444" fill="#ffa20e" stroke="none" /><path d="M 108.43124777332544 80.76684994638697 l 5.666826415148126 -12.927021681790045 a35.11456025460554,35.11456025460554 0 0,0 0.5514957082926,0.24744004859685126 l -5.888504241907506 12.827561302676662" fill="#ffa10e" stroke="none" /><path d="M 108.76106565485865 80.91482961587045 l 7.251003037978002 -15.79563878269828 a38.38042719872697,38.38042719872697 0 0,0 0.5980434304310952,0.2807894094743106 l -7.521824679708695 15.668484390583966" fill="#ffcc13" stroke="none" /><path d="M 109.08828744355905 81.06846463323043 l 6.282649285451957 -13.08719578723681 a35.517106310055695,35.517106310055695 0 0,0 0.5488724528694368,0.2693293288961413 l -6.506993005331825 12.977111298205836" fill="#ffa60f" stroke="none" /><path d="M 109.41281617654863 81.2277094730956 l 7.037806936727376 -14.035731072456997 a36.70135259195789,36.70135259195789 0 0,0 0.5622988232271283,0.2880312970617187 l -7.27836624754326 13.912507250082777" fill="#ffb610" stroke="none" /><path d="M 109.73455568895987 81.39251694778311 l 7.526928377014714 -14.387630692728287 a37.23756655854092,37.23756655854092 0 0,0 0.5653991691629753,0.3020166551536373 l -7.773472592706001 14.255935311072895" fill="#ffbd11" stroke="none" /><line stroke="#e1ed5e" stroke-width="0.3" x1="143.23703022742887" x2="145.7803849466894" y1="26.81831364943548" y2="22.513508569990506" /><path d="M 143.74570117128098 25.957352633546492 a86.0,86.0 0 0,1 28.547481713284135,27.462654790039103" fill="none" id="id26" stroke="none" /><text fill="#e1ed5e" style="font-size:6.75px; font-family:Arial;" text-anchor="middle"><textPath startOffset="19.985693538727396" xlink:href="#id26">February</textPath></text><path d="M 110.68208982089419 81.91981866633111 l 7.295124001313773 -12.347505685391443 a35.34153864985617,35.34153864985617 0 0,0 0.5210990954395699,0.313956374384766 l -7.50658516297098 12.220102701548063" fill="#ffa40f" stroke="none" /><path d="M 110.99172775467656 82.1063720568725 l 7.381861108517404 -12.017062208209685 a35.103249892894304,35.103249892894304 0 0,0 0.5121411169844389,0.32070272047173926 l -7.587621377874106 11.888215146415002" fill="#ffa00e" stroke="none" /><path d="M 111.2981086023043 82.29822771554956 l 1.5518217348241188 -2.4313799718932403 a23.88439929004223,23.88439929004223 0 0,0 0.3446552644865392,0.22417337123193945 l -1.5934440250949382 2.404307676501773" fill="#ff0000" stroke="none" /><path d="M 112.19680574252982 82.90503203632743 l 3.4159118108707047 -4.787720998945203 a26.88138808984638,26.88138808984638 0 0,0 0.37436132618033596,0.2719894243104991 l -3.4978184534048293 4.72821233981803" fill="#ff2d04" stroke="none" /><path d="M 112.48926042617603 83.11751280151076 l 3.6532940376317833 -4.938378071880745 a27.142811677581246,27.142811677581246 0 0,0 0.37321863189111726,0.2811005359067087 l -3.7377588232812835 4.874760946468189" fill="#ff3004" stroke="none" /><path d="M 114.16331599549186 84.49514656593476 l 4.570679514109153 -5.003610452729003 a27.776963094436624,27.776963094436624 0 0,0 0.3502438495013483,0.32551348715784834 l -4.656131247405348 4.924192379496515" fill="#ff3a05" stroke="none" /><path d="M 116.15771136456269 86.58626213691792 l 8.077570106372542 -6.705801677778748 a31.498329151110838,31.498329151110838 0 0,0 0.3427340813382112,0.4201514583867036 l -8.191802679787163 6.565766049783943" fill="#ff6f0a" stroke="none" /><path d="M 116.38621287248628 86.86637796730983 l 11.868596463562744 -9.512732516290383 a36.21038007221984,36.21038007221984 0 0,0 0.3856335115854099,0.4897153980172268 l -12.030584055742118 9.307024724320117" fill="#ffaf10" stroke="none" /><path d="M 116.60985879189232 87.15038557335679 l 11.239686807434868 -8.695175772491464 a35.21044127547586,35.21044127547586 0 0,0 0.36673193629869155,0.4825762403347043 l -11.387694683957672 8.500414756275726" fill="#ffa20f" stroke="none" /><path d="M 116.82858285166822 87.43820079747576 l 11.132675581560148 -8.310054178361222 a34.89220882550951,34.89220882550951 0 0,0 0.35513188371397103,0.4843994902806183 l -11.274070077787746 8.117192244409111" fill="#ff9e0e" stroke="none" /><path d="M 117.04232023915458 87.72973835380427 l 11.9439138906028 -8.599471577855892 a35.71760817675501,35.71760817675501 0 0,0 0.35494352748944824,0.5020424478719303 l -12.090170037896131 8.392602629652169" fill="#ffa90f" stroke="none" /><path d="M 117.2510076193507 88.02491185347247 l 11.739216189271847 -8.148981887874474 a35.290384968480325,35.290384968480325 0 0,0 0.34210757031973726,0.5020006455872751 l -11.877748225260317 7.945703219016791" fill="#ffa30f" stroke="none" /><path d="M 117.45458315368197 88.32363383020206 l 9.113046517583657 -6.096236565767689 a31.964110410673847,31.964110410673847 0 0,0 0.301989859679451,0.45995127462518137 l -9.216633012621031 5.938467227164834" fill="#ff750a" stroke="none" /><line stroke="#e1ed5e" stroke-width="0.3" x1="172.23445277983987" x2="176.4835382374775" y1="55.19839476539836" y2="52.563006222186495" /><path d="M 173.08426987136738 54.67131705675599 a86.0,86.0 0 0,1 12.851231095245387,41.99856678651699" fill="none" id="id27" stroke="none" /><text fill="#e1ed5e" style="font-size:6.75px; font-family:Arial;" text-anchor="middle"><textPath startOffset="22.20632615414155" xlink:href="#id27">March</textPath></text><path d="M 117.84615892207809 88.93136811851018 l 11.941274635124259 -7.406275698265002 a35.05158210416794,35.05158210416794 0 0,0 0.313601834402213,0.5154789597069047 l -12.066992267812697 7.199628965351016" fill="#ffa00e" stroke="none" /><path d="M 118.03404312379186 89.2402003453031 l 11.885537056994938 -7.091365848683401 a34.8402839831079,34.8402839831079 0 0,0 0.3028455609439409,0.5176612324841189 l -12.005842292409206 6.885725203845387" fill="#ff9d0e" stroke="none" /><path d="M 118.21658344932153 89.55222093294921 l 12.483248561642299 -7.159532596985185 a35.39063590182998,35.39063590182998 0 0,0 0.29853241522908885,0.5310558555504921 l -12.604638618163822 6.9435932314999" fill="#ffa40f" stroke="none" /><path d="M 118.3937258080291 89.86733742301442 l 11.758745627640955 -6.47761106243527 a34.42488524389498,34.42488524389498 0 0,0 0.2814511419862167,0.5214862210800392 l -11.868504868845637 6.274243858022772" fill="#ff970e" stroke="none" /><path d="M 118.56541770881063 90.18545643968196 l 12.316874648385186 -6.511272983973045 a34.932052145174126,34.932052145174126 0 0,0 0.2764465498517553,0.5340067431440444 l -12.427130631397057 6.298293518568656" fill="#ff9e0e" stroke="none" /><path d="M 118.73160827565052 90.50648371742162 l 50.97349936452284 -25.834287108499293 a78.14637370708121,78.14637370708121 0 0,0 0.5977824980973169,1.2050930389817154 l -51.41064187557356 24.953034481018626" fill="#46fff3" stroke="none" /><path d="M 118.89224826269711 90.83032412892265 l 9.083171886433897 -4.408672854693382 a31.096554256686456,31.096554256686456 0 0,0 0.22958409225021395,0.48356264952220956 l -9.157714172525866 4.251667789530632" fill="#ff6909" stroke="none" /><path d="M 119.04729006885535 91.15688171328212 l 13.191230522255932 -6.124315397832479 a35.543582838607016,35.543582838607016 0 0,0 0.2528632820432967,0.557150723684209 l -13.294696121262575 5.896342665306207" fill="#ffa60f" stroke="none" /><path d="M 119.196687751892 91.48605970444005 l 12.42127561359647 -5.508971148339485 a34.588114327682234,34.588114327682234 0 0,0 0.23669682656721036,0.5463289099823132 l -12.51426315000636 5.2943430937705696" fill="#ff990e" stroke="none" /><path d="M 119.7369772167798 92.82701384747503 l 30.746149317782788 -11.174036473651233 a53.71367892771895,53.71367892771895 0 0,0 0.3083342149098844,0.8717023462821598 l -30.933936613502482 10.643136500942457" fill="#7aff26" stroke="none" /><path d="M 119.85752413597 93.16781622104841 l 59.57257240790998 -20.496551336854747 a84.0,84.0 0 0,0 0.45865082491291975,1.371307588310744 l -59.91656052659467 19.46807064562169" fill="#4dd2ff" stroke="none" /><path d="M 119.97218684219823 93.5106431181261 l 14.110712434602348 -4.58484839788089 a35.83688108207356,35.83688108207356 0 0,0 0.18557449031078158,0.5883218470876699 l -14.187542408681336 4.3412763843668" fill="#ffaa0f" stroke="none" /><path d="M 120.08093135843002 93.85539295169968 l 3.899183721632601 -1.1931195496320202 a25.07764245057837,25.07764245057837 0 0,0 0.12275398848860454,0.4138654249070572 l -3.9191436072329076 1.1258247379784332" fill="#ff1202" stroke="none" /><path d="M 120.18372546131832 94.20196356495316 l 13.688466970859189 -3.932189346762599 a35.24205887753229,35.24205887753229 0 0,0 0.1624713110392511,0.5844957500613465 l -13.754125052464804 3.6959822932823005" fill="#ffa20f" stroke="none" /><path d="M 120.28053869075195 94.5502522615342 l 13.585813586251081 -3.650753956582627 a35.06777648570904,35.06777648570904 0 0,0 0.15163251133593936,0.5843019209715984 l -13.646642429457323 3.416355610062178" fill="#ffa00e" stroke="none" /><path d="M 120.37134235888165 94.90015583598534 l 14.548821469232509 -3.6422107564653237 a35.99779668278352,35.99779668278352 0 0,0 0.1453063057895201,0.6023884467643891 l -14.609360575282848 3.391237078041528" fill="#ffac10" stroke="none" /><path d="M 120.6074358757038 95.95851677861258 l 13.77074654907181 -2.7006873373154114 a35.03307423954954,35.03307423954954 0 0,0 0.11096188439313308,0.5927628233901672 l -13.815194157374801 2.4632464364626814" fill="#ff9f0e" stroke="none" /><path d="M 120.67395015179393 96.31383870115 l 15.133144244779695 -2.6982366812072893 a36.37180978028031,36.37180978028031 0 0,0 0.10459170884627018,0.6173061862078526 l -15.177347815146188 2.437344706683599" fill="#ffb110" stroke="none" /><line stroke="#e1ed5e" stroke-width="0.3" x1="184.98032266829074" x2="189.97916517819016" y1="98.17113171792111" y2="98.06355123074" /><path d="M 185.9800911702706 98.14961562048488 a86.0,86.0 0 0,1 -9.607161424134198,41.387399972396054" fill="none" id="id28" stroke="none" /><text fill="#e1ed5e" style="font-size:6.75px; font-family:Arial;" text-anchor="middle"><textPath startOffset="21.466115282336823" xlink:href="#id28">April</textPath></text><line stroke="#e1ed5e" stroke-width="0.3" x1="174.80103733775053" x2="179.2010983576182" y1="140.37084112569926" y2="142.7455964860345" /><path d="M 175.68104954172406 140.8457921977663 a86.0,86.0 0 0,1 -30.038265399797805,32.042727171017184" fill="none" id="id29" stroke="none" /><text fill="#e1ed5e" style="font-size:6.75px; font-family:Arial;" text-anchor="middle"><textPath startOffset="22.206326154141568" xlink:href="#id29">May</textPath></text><line stroke="#e1ed5e" stroke-width="0.3" x1="143.8653032363475" x2="146.44561519142675" y1="172.8068346515853" y2="177.08958963109032" /><path d="M 144.38136562736335 173.6633856474863 a86.0,86.0 0 0,1 -40.68145358897372,12.25698825130547" fill="none" id="id30" stroke="none" /><text fill="#e1ed5e" style="font-size:6.75px; font-family:Arial;" text-anchor="middle"><textPath startOffset="21.466115282336833" xlink:href="#id30">June</textPath></text><line stroke="#e1ed5e" stroke-width="0.3" x1="102.19456741930631" x2="102.32365962044197" y1="184.97166512339345" y2="189.96999836594603" /><path d="M 102.22038585953345 185.97133177190398 a86.0,86.0 0 0,1 -42.740103519485714,-10.115201625700543" fill="none" id="id31" stroke="none" /><text fill="#e1ed5e" style="font-size:6.75px; font-family:Arial;" text-anchor="middle"><textPath startOffset="22.20632615414155" xlink:href="#id31">July</textPath></text><line stroke="#e1ed5e" stroke-width="0.3" x1="58.666819895761336" x2="56.23545636021788" y1="174.27360380694188" y2="178.64263932499728" /><path d="M 58.180547188652646 175.14741091055294 a86.0,86.0 0 0,1 -31.652253787137756,-30.449443065178592" fill="none" id="id32" stroke="none" /><text fill="#e1ed5e" style="font-size:6.75px; font-family:Arial;" text-anchor="middle"><textPath startOffset="22.20632615414155" xlink:href="#id32">August</textPath></text><line stroke="#e1ed5e" stroke-width="0.3" x1="26.63291911575756" x2="22.317208475507996" y1="142.92168965132927" y2="145.44649492493687" /><path d="M 25.769776987707644 143.4266507060508 a86.0,86.0 0 0,1 -11.730757126820373,-40.83630448921669" fill="none" id="id33" stroke="none" /><text fill="#e1ed5e" style="font-size:6.75px; font-family:Arial;" text-anchor="middle"><textPath startOffset="21.46611528233685" xlink:href="#id33">September</textPath></text><line stroke="#e1ed5e" stroke-width="0.3" x1="15.007084014347285" x2="10.007500721073583" y1="101.09737516637583" y2="101.16192664675087" /><path d="M 14.007167355692545 101.11028546245083 a86.0,86.0 0 0,1 10.666146001902534,-42.60595125391555" fill="none" id="id34" stroke="none" /><text fill="#e1ed5e" style="font-size:6.75px; font-family:Arial;" text-anchor="middle"><textPath startOffset="22.20632615414155" xlink:href="#id34">October</textPath></text><line stroke="#e1ed5e" stroke-width="0.3" x1="26.266209847984243" x2="21.928928074336255" y1="57.711370442889674" y2="55.22380399835377" /><path d="M 25.398753493254645 57.213857153982495 a86.0,86.0 0 0,1 29.58750427330803,-30.492523968695096" fill="none" id="id35" stroke="none" /><text fill="#e1ed5e" style="font-size:6.75px; font-family:Arial;" text-anchor="middle"><textPath startOffset="21.46611528233685" xlink:href="#id35">November</textPath></text><line stroke="#e1ed5e" stroke-width="0.3" x1="56.762969772571076" x2="54.21961505331055" y1="26.818313649435495" y2="22.513508569990535" /><path d="M 56.25429882871897 25.957352633546506 a86.0,86.0 0 0,1 42.265352541879196,-11.944610805530505" fill="none" id="id36" stroke="none" /><text fill="#e1ed5e" style="font-size:6.75px; font-family:Arial;" text-anchor="middle"><textPath startOffset="22.20632615414155" xlink:href="#id36">December</textPath></text></svg>