<?xml version="1.0" encoding="utf-8" ?>
<svg baseProfile="full" height="200mm" version="1.1" viewBox="0,0,200,200" width="200mm" xmlns="http://www.w3.org/2000/svg" xmlns:ev="http://www.w3.org/2001/xml-events" xmlns:xlink="http://www.w3.org/1999/xlink"><defs /><rect fill="#1a1a1a" height="200" width="200" x="0" y="0" /><text alignment-baseline="middle" fill="#e1ed5e" style="dominant-baseline: central; font-size:7.2px; " text-anchor="middle" x="100.0" y="100.0">2020</text><line stroke="#e1ed5e" stroke-width="0.3" x1="100.0" x2="100.0" y1="15.0" y2="10.0" /><path d="M 100.0 14.0 a86.0,86.0 0 0,1 42.35913384403234,11.155469271406648" fill="none" id="id13" stroke="none" /><text fill="#e1ed5e" style="font-size:5.4px;" text-anchor="middle"><textPath startOffset="22.145653131862478" xlink:href="#id13">January</textPath></text><line stroke="#e1ed5e" stroke-width="0.3" x1="143.13028292997686" x2="145.6673583964461" y1="26.7553504044142" y2="22.446841604673864" /><path d="M 143.63769802327073 25.89364864446614 a86.0,86.0 0 0,1 29.32050498858742,28.57503671076993" fill="none" id="id14" stroke="none" /><text fill="#e1ed5e" style="font-size:5.4px;" text-anchor="middle"><textPath startOffset="20.669276256404974" xlink:href="#id14">February</textPath></text><line stroke="#e1ed5e" stroke-width="0.3" x1="172.87174338648825" x2="177.1583165268699" y1="56.24261187166439" y2="53.66864786411523" /><path d="M 173.72905801456457 55.72781907015455 a86.0,86.0 0 0,1 12.242430191666344,42.057860355516425" fill="none" id="id15" stroke="none" /><text fill="#e1ed5e" style="font-size:5.4px;" text-anchor="middle"><textPath startOffset="22.145653131862474" xlink:href="#id15">March</textPath></text><line stroke="#e1ed5e" stroke-width="0.3" x1="184.99686870605535" x2="189.99668451229388" y1="99.2704041080226" y2="99.22748670261217" /><path d="M 185.99683186730306 99.26182062694052 a86.0,86.0 0 0,1 -10.086455211305974,41.156179273409016" fill="none" id="id16" stroke="none" /><text fill="#e1ed5e" style="font-size:5.4px;" text-anchor="middle"><textPath startOffset="21.40746469413373" xlink:href="#id16">April</textPath></text><line stroke="#e1ed5e" stroke-width="0.3" x1="174.33088141563837" x2="178.70328620479359" y1="141.23008692659167" y2="143.65538615756765" /><path d="M 175.20536237346943 141.71514677278685 a86.0,86.0 0 0,1 -30.301960400862466,31.631185727798858" fill="none" id="id17" stroke="none" /><text fill="#e1ed5e" style="font-size:5.4px;" text-anchor="middle"><textPath startOffset="22.145653131862474" xlink:href="#id17">May</textPath></text><line stroke="#e1ed5e" stroke-width="0.3" x1="143.1302829299769" x2="145.66735839644613" y1="173.24464959558577" y2="177.55315839532614" /><path d="M 143.63769802327073 174.10635135553383 a86.0,86.0 0 0,1 -40.68552437913181,11.842963189579606" fill="none" id="id18" stroke="none" /><text fill="#e1ed5e" style="font-size:5.4px;" text-anchor="middle"><textPath startOffset="21.407464694133747" xlink:href="#id18">June</textPath></text><path d="M 109.06512990194946 118.94263497670748 l 1.8221777131497698 3.807650596983152 a25.221200621506384,25.221200621506384 0 0,0 -0.392143173934896,0.18354280587115268 l -1.7565458253433677 -3.838369634424838" fill="#ff1c02" stroke="none" /><path d="M 108.73861861582097 119.09545874513695 l 1.8956707201532563 4.142382637630399 a25.555535248001945,25.555535248001945 0 0,0 -0.40047543490324006,0.17912756819033313 l -1.8242818823943894 -4.174313956730582" fill="#ff2103" stroke="none" /><path d="M 108.4095320186766 119.2426549942271 l 1.8632295311377904 4.263433799064395 a25.652794004112863,25.652794004112863 0 0,0 -0.4050269864591474,0.1728819361260579 l -1.7897674695082118 -4.294790384849857" fill="#ff2203" stroke="none" /><path d="M 108.07796709384702 119.3841803445677 l 2.8204827038130533 6.7681317284753835 a28.33230726146305,28.33230726146305 0 0,0 -0.450545124483203,0.18323277983894112 l -2.703883118139409 -6.815551764893616" fill="#ff4906" stroke="none" /><path d="M 107.74402155503746 119.51999308798841 l 2.8346256273264974 7.145108295373324 a28.6868507855759,28.6868507855759 0 0,0 -0.4593007112295192,0.17766738200663523 l -2.7115526536034484 -7.192715565517999" fill="#ff4e07" stroke="none" /><path d="M 107.407793817531 119.65005319985036 l 2.9723176069328554 7.884425584964407 a29.426080866056555,29.426080866056555 0 0,0 -0.4741954756845933,0.17413114696312104 l -2.836532979594135 -7.93428758093625" fill="#ff5808" stroke="none" /><path d="M 107.06938296918513 119.77432235084164 l 3.9230904197507397 10.973582123050818 a32.65376089736187,32.65376089736187 0 0,0 -0.529448433646366,0.18416964872447666 l -3.734136214059352 -11.039310204343886" fill="#ff850c" stroke="none" /><path d="M 106.72888874123015 119.89276391827305 l 2.4174919058583626 7.146885259509387 a28.54468263265482,28.54468263265482 0 0,0 -0.4655192744164709,0.153025431888384 l -2.2944498937941575 -7.18733161279979" fill="#ff4c07" stroke="none" /><path d="M 106.38641147887787 120.00534299687104 l 2.410888489022065 7.552073853933524 a28.92755970029652,28.92755970029652 0 0,0 -0.47435600718868637,0.14695670358355414 l -2.2808918489617542 -7.592347145323723" fill="#ff5107" stroke="none" /><path d="M 106.0420521117495 120.11202640906438 l 2.244208827464028 7.470241297263943 a28.800062711325797,28.800062711325797 0 0,0 -0.4747073023955838,0.13818037726899934 l -2.115641512686837 -7.507665368835461" fill="#ff4f07" stroke="none" /><path d="M 105.69591212413111 120.21278271476187 l 2.999341129582736 10.643603556112165 a32.05813473743606,32.05813473743606 0 0,0 -0.5309721672867522,0.14471882532235492 l -2.816187561361289 -10.693522875578662" fill="#ff7d0b" stroke="none" /><line stroke="#e1ed5e" stroke-width="0.3" x1="101.45913802915013" x2="101.54496967792366" y1="184.9874750549273" y2="189.98673829345242" /><path d="M 101.47630435890484 185.9873277026323 a86.0,86.0 0 0,1 -42.54439059252881,-10.42667462771756" fill="none" id="id19" stroke="none" /><text fill="#e1ed5e" style="font-size:5.4px;" text-anchor="middle"><textPath startOffset="22.145653131862474" xlink:href="#id19">July</textPath></text><path d="M 98.91894614982273 120.97215588758144 l -0.33187085592180254 6.4382059448711475 a27.446753760892722,27.446753760892722 0 0,0 -0.4703271122136793,-0.028293711145525282 l 0.4423423202679282 -6.431560255900931" fill="#ff3c05" stroke="none" /><path d="M 97.84075906011543 120.88869738790638 l -0.7540435901560161 7.294687721557162 a28.333556483105056,28.333556483105056 0 0,0 -0.4833760032315458,-0.054163289387954186 l 0.8791554949883611 -7.280668671662237" fill="#ff4906" stroke="none" /><path d="M 97.12497278360702 120.80226474461374 l -1.5345504723371775 11.103242782369096 a32.20878429787913,32.20878429787913 0 0,0 -0.5470507018071854,-0.08039761444012539 l 1.7249262797520477 -11.075264094630088" fill="#ff7f0b" stroke="none" /><path d="M 96.41257539226777 120.69131181640829 l -1.0914252925979273 6.295051052719993 a27.388965246866942,27.388965246866942 0 0,0 -0.4625673646209952,-0.0842951827635889 l 1.1993273907699797 -6.275387696025038" fill="#ff3b05" stroke="none" /><path d="M 95.35216902796893 120.47920084513623 l -2.0424445892470047 8.99938771654012 a30.22824789289698,30.22824789289698 0 0,0 -0.5050533444951207,-0.11919121411188897 l 2.1966300874820135 -8.963000358782004" fill="#ff6409" stroke="none" /><path d="M 94.30408787586889 120.21278271476187 l -4.145663441240305 14.71149703860729 a36.284458462274266,36.284458462274266 0 0,0 -0.5980715239462723,-0.17408990423297946 l 4.3975949775681835 -14.638163440071795" fill="#ffb610" stroke="none" /><path d="M 93.27111125876986 119.89276391827306 l -2.371682502620475 7.01145789863411 a28.40171735190927,28.40171735190927 0 0,0 -0.46050575344446926,-0.16018780575733316 l 2.491694028109966 -6.969711660308186" fill="#ff4a06" stroke="none" /><path d="M 89.97174638481275 118.45085714620012 l -10.965074599274251 20.17450224057372 a43.96178132511856,43.96178132511856 0 0,0 -0.6599622410359114,-0.366069930128045 l 11.309781028466265 -19.983299395012523" fill="#e7ff1a" stroke="none" /><line stroke="#e1ed5e" stroke-width="0.3" x1="58.13341422392154" x2="55.67067388415222" y1="173.97424548756322" y2="178.32567169271397" /><path d="M 57.64086615596768 174.84453072859336 a86.0,86.0 0 0,1 -31.369924170532247,-30.572349798747897" fill="none" id="id20" stroke="none" /><text fill="#e1ed5e" style="font-size:5.4px;" text-anchor="middle"><textPath startOffset="22.145653131862474" xlink:href="#id20">August</textPath></text><path d="M 89.34428304082925 118.09573695890944 l -5.350442262166069 9.0862206795632 a31.54450751047647,31.54450751047647 0 0,0 -0.46425590390554744,-0.278772331139714 l 5.505630922629044 -8.993034347887567" fill="#ff760a" stroke="none" /><path d="M 87.83215693770417 117.11559508785305 l -8.561150237803387 12.042329951687632 a35.775351233035174,35.775351233035174 0 0,0 -0.4974800914565645,-0.36013722164387096 l 8.766611339633906 -11.893591958670696" fill="#ffaf10" stroke="none" /><path d="M 87.2517909369889 116.68781488649013 l -7.16531982774128 9.37963366436985 a32.803361212451414,32.803361212451414 0 0,0 -0.44454811350486434,-0.3456833018866077 l 7.3252778858813725 -9.25524931086245" fill="#ff870c" stroke="none" /><path d="M 85.86807049272751 115.53346607816431 l -10.135348228050164 11.140523154306745 a36.06109358099485,36.06109358099485 0 0,0 -0.4543186559710588,-0.42051056538310866 l 10.325096655335189 -10.96489484279126" fill="#ffb310" stroke="none" /><path d="M 84.3458050057657 113.99807769240083 l -8.401254193381764 7.512453304426108 a32.27022744548651,32.27022744548651 0 0,0 -0.3657122426459791,-0.41611339926069324 l 8.528977499986334 -7.367127627354115" fill="#ff800b" stroke="none" /><path d="M 84.1078160697243 113.72728997021213 l -13.023362943816025 11.249270729650839 a38.20912764539038,38.20912764539038 0 0,0 -0.42449510492001286,-0.5000541662180154 l 13.21455261224315 -11.024049780983269" fill="#ffcf13" stroke="none" /><path d="M 82.78059297857968 112.02048342749411 l -8.669791894386572 6.05218807225224 a31.5732810401447,31.5732810401447 0 0,0 -0.3064266056378857,-0.44708557529573156 l 8.772408236839782 -5.902467761886458" fill="#ff760a" stroke="none" /><line stroke="#e1ed5e" stroke-width="0.3" x1="26.387840678322732" x2="22.057713659400548" y1="142.50000000000003" y2="145.00000000000006" /><path d="M 25.521815274538298 143.00000000000003 a86.0,86.0 0 0,1 -11.493303480769221,-40.785679425670985" fill="none" id="id21" stroke="none" /><text fill="#e1ed5e" style="font-size:5.4px;" text-anchor="middle"><textPath startOffset="21.40746469413373" xlink:href="#id21">September</textPath></text><path d="M 81.81346652052679 110.50000000000001 l -8.673768252983507 5.007802435748464 a31.01560487149692,31.01560487149692 0 0,0 -0.26225412327896447,-0.463377907129184 l 8.75845574128385 -4.858167758520159" fill="#ff6f0a" stroke="none" /><path d="M 81.63589988554817 110.18625677009913 l -21.948468573946432 12.174445532930136 a46.098852499184034,46.098852499184034 0 0,0 -0.3779110397681674,-0.6953137481659285 l 22.154224963329927 -11.795876951289621" fill="#cdff1d" stroke="none" /><path d="M 81.4637452351635 109.86951160357371 l -9.891501011925284 5.266667147840038 a32.20622929959299,32.20622929959299 0 0,0 -0.2556437406183202,-0.4902305805263207 l 9.980452821518552 -5.096090324209214" fill="#ff7f0b" stroke="none" /><path d="M 81.29705330413844 109.54985784667822 l -26.77496754902774 13.671489209730575 a51.0634080646767,51.0634080646767 0 0,0 -0.3919240258842419,-0.7841105912651978 l 27.00571148812372 -13.209846762301625" fill="#94ff23" stroke="none" /><path d="M 81.1358732173502 109.22738970284198 l -11.532762524900726 5.641252065028928 a33.83854883999542,33.83854883999542 0 0,0 -0.25076095619237365,-0.5239939538583746 l 11.627902739053011 -5.442445609105449" fill="#ff950d" stroke="none" /><path d="M 80.9802524753101 108.90220220490708 l -28.716548204108857 13.440794543044612 a52.70638892569202,52.70638892569202 0 0,0 -0.37651319715453496,-0.8227492855961691 l 28.94304586611845 -12.945856275233753" fill="#82ff25" stroke="none" /><path d="M 80.83023694016515 108.57439118712176 l -6.586493515687878 2.9460547727518636 a28.215340293863658,28.215340293863658 0 0,0 -0.193968530752158,-0.4438379577735714 l 6.636095928457004 -2.8325547452024424" fill="#ff4706" stroke="none" /><path d="M 80.68587082218212 108.24405325689762 l -17.725215491644267 7.565840486918169 a40.27239493417245,40.27239493417245 0 0,0 -0.2659400169518802,-0.6381592286206772 l 17.85248135313263 -7.26044874885621" fill="#ffe915" stroke="none" /><path d="M 80.5471966667186 107.91128576633889 l -29.66278838366595 12.063597801769061 a53.0220456344843,53.0220456344843 0 0,0 -0.33565814298356955,-0.8460777884462671 l 29.865505201615644 -11.552618996109228" fill="#7eff26" stroke="none" /><path d="M 80.41425534168474 107.57618678355246 l -23.463345876422874 9.07612623507806 a46.15759660920976,46.15759660920976 0 0,0 -0.27951571416963406,-0.7414486402995064 l 23.615692274406943 -8.67200931458441" fill="#cdff1d" stroke="none" /><path d="M 80.28708602549918 107.23885506374661 l -6.750026516077579 2.478703234313148 a28.190745976012842,28.190745976012842 0 0,0 -0.1629154351420624,-0.4557034672572172 l 6.791582121263585 -2.362464810675009" fill="#ff4706" stroke="none" /><path d="M 80.16572619554312 106.89939002012753 l -6.992293520736047 2.4322826542773783 a28.403253851545678,28.403253851545678 0 0,0 -0.15623761403020636,-0.46188874427562704 l 7.03301655633862 -2.3118922355275897" fill="#ff4a06" stroke="none" /><path d="M 80.05021161711548 106.5578916946017 l -12.715119462150126 4.179712321572314 a34.3844782501169,34.3844782501169 0 0,0 -0.179512002181065,-0.5623187900692844 l 12.784996180108445 -3.960824497811638" fill="#ff9d0e" stroke="none" /><path d="M 79.94057633289273 106.21446072829308 l -5.213589141819116 1.61518324319646 a26.45805172646768,26.45805172646768 0 0,0 -0.13068221383826414,-0.43499858778099176 l 5.24054767566101 -1.5254470518247445" fill="#ff2e04" stroke="none" /><path d="M 79.83685265289637 105.86919833188381 l -25.8328184249359 7.51955695196913 a47.90498549580756,47.90498549580756 0 0,0 -0.22305817709169876,-0.7915547796470069 l 25.958095094102177 -7.074994248419127" fill="#b8ff1f" stroke="none" /><path d="M 79.73907114497094 105.5222062557868 l -60.78278656508718 16.566618767360406 a84.0,84.0 0 0,0 -0.36724207678106957,-1.3944779825087894 l 61.05821812267298 -15.520760280478815" fill="#4dd2ff" stroke="none" /><path d="M 79.64726062577567 105.17358676015961 l -6.323314104952254 1.6073617183514024 a27.524409012585714,27.524409012585714 0 0,0 -0.11247321993081918,-0.4589291188981532 l 6.349974851399367 -1.4985767748451495" fill="#ff3d05" stroke="none" /><path d="M 79.56144815229197 104.8234425847677 l -18.982249666127142 4.479759235219869 a40.50369311675924,40.50369311675924 0 0,0 -0.153893084643757,-0.6780813261201304 l 19.056353612328564 -4.153243575160713" fill="#ffec16" stroke="none" /><path d="M 79.48165901384964 104.47187691870673 l -8.020238070513843 1.7479735585968013 a29.2085096253384,29.2085096253384 0 0,0 -0.10256677919909381,-0.49081916805970005 l 8.049062560537303 -1.6100379392516921" fill="#ff5507" stroke="none" /><path d="M 79.407916724674 104.11899336999214 l -12.533238075937918 2.5069986289915116 a33.78151394764741,33.78151394764741 0 0,0 -0.10886287148377764,-0.5696165446739646 l 12.574427239703851 -2.2914795192842328" fill="#ff940d" stroke="none" /><path d="M 79.34024301695615 103.76489593502545 l -21.842627039269455 3.980454262744516 a43.202350598853855,43.202350598853855 0 0,0 -0.1266964117330902,-0.7307512346152426 l 21.907738268494782 -3.6049099952086805" fill="#f0ff19" stroke="none" /><path d="M 79.2786578344484 103.40968896794605 l -25.91409199977018 4.2641539770936525 a47.262581238578136,47.262581238578136 0 0,0 -0.12485988022905842,-0.8016899995050695 l 25.983473372137503 -3.8186757956571324" fill="#c0ff1e" stroke="none" /><path d="M 79.17382384314188 102.69636545807758 l -13.918340539749721 1.8020078377558348 a35.034508741946546,35.034508741946546 0 0,0 -0.07210087508307557,-0.5970986764107197 l 13.947223501092457 -1.562815484421716" fill="#ffa50f" stroke="none" /><path d="M 79.0935383218832 101.97986365728391 l -12.940094823868733 1.2254404335862312 a33.99799054881109,33.99799054881109 0 0,0 -0.05003593921048562,-0.5814934588882908 l 12.95922438577696 -1.0031259273222783" fill="#ff970e" stroke="none" /><path d="M 79.06263194458094 101.62068470465958 l -14.43236923078828 1.1171566551453016 a35.475542152401054,35.475542152401054 0 0,0 -0.04178687563676798,-0.607572000800039 l 14.449420067590115 -0.8692412301909191" fill="#ffab0f" stroke="none" /><path d="M 79.03789590574601 101.26102812881392 l -13.734507105960525 0.8262338417047747 a34.75933675018016,34.75933675018016 0 0,0 -0.03071800198224212,-0.595921032075317 l 13.74666669739934 -0.5903410162527268" fill="#ffa20e" stroke="none" /><path d="M 79.01933749520258 100.90099992219065 l -7.1483045589191985 0.3069789550214896 a28.154893021275097,28.154893021275097 0 0,0 -0.016591695890882642,-0.4830491227348951 l 7.152520941806929 -0.18422356772247458" fill="#ff4606" stroke="none" /><line stroke="#e1ed5e" stroke-width="0.3" x1="15.003131293944662" x2="10.003315487706104" y1="100.72959589197737" y2="100.7725132973878" /><path d="M 14.003168132696942 100.73817937305945 a86.0,86.0 0 0,1 10.791469493833604,-42.45332614584628" fill="none" id="id22" stroke="none" /><text fill="#e1ed5e" style="font-size:5.4px;" text-anchor="middle"><textPath startOffset="22.145653131862435" xlink:href="#id22">October</textPath></text><path d="M 79.00077361379809 100.18025310272382 l -2.3512968271880745 0.020183055353116007 a23.3513834492205,23.3513834492205 0 0,0 0.0,-0.40087231615386626 l 2.3512968271880745 0.020183055353115143" fill="#ff0000" stroke="none" /><path d="M 79.00077361379809 99.81974689727619 l -7.865056332782443 -0.0675120493016425 a28.865346082318446,28.865346082318446 0 0,0 0.008506436602790728,-0.4954572865234436 l 7.862738464580986 0.20251625179413846" fill="#ff5007" stroke="none" /><path d="M 79.17382384314186 97.30363454192245 l -4.079028244416603 -0.5281118712301779 a25.113073494028843,25.113073494028843 0 0,0 0.059022280146780404,-0.42705581722612834 l 4.0693614477146145 0.5980559966563732" fill="#ff1a02" stroke="none" /><path d="M 79.22317932658666 96.9465228501225 l -26.570877983690913 -3.9050040451667405 a47.856295601161364,47.856295601161364 0 0,0 0.12642837484487732,-0.8117608601007449 l 26.49992811670777 4.3605530871989355" fill="#b9ff1f" stroke="none" /><path d="M 79.2786578344484 96.59031103205396 l -21.713306693572477 -3.572916353545099 a43.005304334150196,43.005304334150196 0 0,0 0.12611854839145933,-0.7274182724219229 l 21.648773327688783 3.945127658887615" fill="#f3ff19" stroke="none" /><path d="M 79.34024301695615 96.23510406497455 l -7.059586019115955 -1.2864917398663542 a28.175849479890296,28.175849479890296 0 0,0 0.09079829535257007,-0.47509504899221777 l 7.036461431481227 1.4074893538918865" fill="#ff4706" stroke="none" /><path d="M 79.407916724674 95.88100663000787 l -29.140551279584187 -5.82892638465317 a50.71780798907923,50.71780798907923 0 0,0 0.17809748871832953,-0.8522609555338814 l 29.036196080041492 6.328303791472461" fill="#98ff23" stroke="none" /><path d="M 79.48165901384962 95.52812308129327 l -19.698902391426376 -4.293284090928047 a41.16132544532625,41.16132544532625 0 0,0 0.15639174735367983,-0.6890908950542558 l 19.622299782515036 4.630809319921311" fill="#fff517" stroke="none" /><path d="M 79.56144815229197 95.17655741523228 l -19.850602522709636 -4.684688144971105 a41.39589967445023,41.39589967445023 0 0,0 0.16915640681655905,-0.690215864576927 l 19.767258589376777 5.024759834156149" fill="#fff817" stroke="none" /><path d="M 79.64726062577567 94.8264132398404 l -26.468722445656915 -6.728245740551997 a48.31048440893127,48.31048440893127 0 0,0 0.21121003124567564,-0.8019988908641941 l 26.349322933606512 7.181625135788975" fill="#b3ff20" stroke="none" /><path d="M 79.83685265289637 94.1308016681162 l -13.425592935315201 -3.9079944367823045 a34.9828096669699,34.9828096669699 0 0,0 0.17278789310812936,-0.5751546999403635 l 13.356528722203441 4.137886740313392" fill="#ffa50f" stroke="none" /><path d="M 79.94057633289273 93.78553927170692 l -4.219153649804317 -1.3071045857781833 a25.416987652101763,25.416987652101763 0 0,0 0.1326951745392439,-0.41566574428644165 l 4.196093759487817 1.3793393637560165" fill="#ff1f03" stroke="none" /><path d="M 80.05021161711548 93.44210830539832 l -23.353168031797814 -7.676650184908928 a45.582542894966046,45.582542894966046 0 0,0 0.25073562981769487,-0.7412553367543145 l 23.217946980407756 8.076407196137403" fill="#d3ff1c" stroke="none" /><path d="M 80.16572619554312 93.10060997987247 l -16.968937279844187 -5.902677238146187 a38.96625812418977,38.96625812418977 0 0,0 0.2251875457131184,-0.6298896435143025 l 16.865109564087128 6.193101838041411" fill="#ffd914" stroke="none" /><path d="M 80.41425534168474 92.42381321644754 l -22.356736350019677 -8.648065897585104 a44.97108057625408,44.97108057625408 0 0,0 0.28469119238152796,-0.7176077788527975 l 22.20498648267202 9.030574693651483" fill="#dbff1b" stroke="none" /><path d="M 80.5471966667186 92.08871423366112 l -10.413840667107266 -4.235218340055525 a32.24211509582782,32.24211509582782 0 0,0 0.21291181339388474,-0.51091084432117 l 10.339603009176901 4.413361693817958" fill="#ff800b" stroke="none" /><path d="M 80.68587082218212 91.75594674310238 l -16.625506677148778 -7.096440186738289 a39.076695925856384,39.076695925856384 0 0,0 0.26863575687708974,-0.6146911834354865 l 16.50123703825471 7.380793439949643" fill="#ffda14" stroke="none" /><path d="M 80.83023694016515 91.42560881287825 l -17.07556429575292 -7.637682717080795 a39.705857192472806,39.705857192472806 0 0,0 0.28364263881513807,-0.6198103551573058 l 16.941937192082737 7.929682054452772" fill="#ffe215" stroke="none" /><path d="M 80.9802524753101 91.09779779509293 l -38.693086907872924 -18.11031840137653 a63.72164096871098,63.72164096871098 0 0,0 0.47220995483634864,-0.9867371900439027 l 38.376497695076665 18.77186809348552" fill="#33ff55" stroke="none" /><path d="M 81.29705330413844 90.45014215332179 l -9.491525208956864 -4.846440401488046 a31.657252711531207,31.657252711531207 0 0,0 0.2512861231158789,-0.4818742743919824 l 9.406931016866045 5.008660918984515" fill="#ff770b" stroke="none" /><line stroke="#e1ed5e" stroke-width="0.3" x1="26.387840678322718" x2="22.05771365940052" y1="57.49999999999999" y2="54.99999999999999" /><path d="M 25.521815274538284 56.99999999999999 a86.0,86.0 0 0,1 29.574782752854787,-30.34633250058573" fill="none" id="id23" stroke="none" /><text fill="#e1ed5e" style="font-size:5.4px;" text-anchor="middle"><textPath startOffset="21.40746469413373" xlink:href="#id23">November</textPath></text><path d="M 81.81346652052679 89.5 l -3.1914834604011677 -1.842603834976853 a24.685207669953705,24.685207669953705 0 0,0 0.21502730732097836,-0.365163377290555 l 3.15938244295041 1.8971183805609808" fill="#ff1402" stroke="none" /><path d="M 81.99639281039701 89.18935116829357 l -8.804228328466028 -5.286686145217257 a31.26954170631756,31.26954170631756 0 0,0 0.2802823564727209,-0.4578201652613464 l 8.712178007537915 5.437043426603147" fill="#ff720a" stroke="none" /><path d="M 82.18462484594161 88.88188828441811 l -10.318274742388315 -6.439366575550714 a33.162739640135705,33.162739640135705 0 0,0 0.3055430198849076,-0.4803643766057534 l 10.206214030877518 6.615544626835139" fill="#ff8c0c" stroke="none" /><path d="M 82.37810715431573 88.57770195909679 l -10.228244441064968 -6.6298244725547795 a33.18899326782416,33.18899326782416 0 0,0 0.3139924694829101,-0.4754246186967118 l 10.11292753266133 6.804428969590552" fill="#ff8c0c" stroke="none" /><path d="M 82.576782715395 88.27688183743585 l -16.143812064382487 -10.86227723235762 a40.45794785281059,40.45794785281059 0 0,0 0.39265452379969784,-0.5728946848463686 l 15.954967803767477 11.137806652274023" fill="#ffec16" stroke="none" /><path d="M 82.78059297857968 87.97951657250589 l -9.88566791915616 -6.90096396723221 a33.05610774192362,33.05610774192362 0 0,0 0.32880580041211116,-0.46250653575813777 l 9.765747020214077 7.069647729699867" fill="#ff8b0c" stroke="none" /><path d="M 82.98947788004972 87.6856937992154 l -14.494721465173107 -10.49306053974012 a38.89416859883692,38.89416859883692 0 0,0 0.3961611482503653,-0.5374686825531223 l 14.312458297338924 10.740335531562106" fill="#ffd814" stroke="none" /><path d="M 83.2033758604659 87.39550010848427 l -10.130217949171811 -7.601904405352046 a33.66531745697018,33.66531745697018 0 0,0 0.35083753129511724,-0.45925759050135867 l 9.998228440522388 7.774682909094289" fill="#ff930d" stroke="none" /><path d="M 83.42222388311158 87.10902102172516 l -9.511060231163654 -7.3958579628863665 a33.04819412725461,33.04819412725461 0 0,0 0.3520947825210121,-0.44486025568622767 l 9.38269901800108 7.558038162487278" fill="#ff8b0c" stroke="none" /><path d="M 83.8745106332314 86.54754324733833 l -9.71436955495114 -8.104072586266009 a33.65088804525713,33.65088804525713 0 0,0 0.3738540535129494,-0.4403991349956079 l 9.573820937931076 8.269638503711173" fill="#ff930d" stroke="none" /><path d="M 84.10781606972428 86.27271002978789 l -13.868659179371312 -11.979417485257553 a39.32610571615406,39.32610571615406 0 0,0 0.44567514562092464,-0.5070965042585412 l 13.660972969791795 12.215726267327394" fill="#ffdd14" stroke="none" /><path d="M 84.83555147118756 85.47280134310135 l -8.280111874990103 -7.932159872532248 a32.46644726607867,32.46644726607867 0 0,0 0.38899936437556365,-0.39914761682291366 l 8.142725709463738 8.073130181422892" fill="#ff830c" stroke="none" /><path d="M 85.08716467003674 85.21462403516908 l -8.02567196508364 -7.957076890384829 a32.30161418252392,32.30161418252392 0 0,0 0.3937844868366794,-0.390418827685979 l 7.887895558116986 8.09367572829948" fill="#ff800b" stroke="none" /><path d="M 85.34317274990677 84.96080404539775 l -4.375813101445359 -4.489969730177037 a27.269574824235445,27.269574824235445 0 0,0 0.33804860121444763,-0.3238429129947133 l 4.2980920143656105 4.564424773477319" fill="#ff3a05" stroke="none" /><path d="M 85.86807049272753 84.46653392183569 l -7.998430234903684 -8.791675946904695 a32.885640587616805,32.885640587616805 0 0,0 0.4208343686289894,-0.37631268742153234 l 7.846330839451303 8.927684164209628" fill="#ff880c" stroke="none" /><path d="M 86.13680546590413 84.22622945171909 l -8.293392443426084 -9.43635820356621 a33.56285056691706,33.56285056691706 0 0,0 0.4360302072527659,-0.3766325079668627 l 8.13018275641047 9.577334843997782" fill="#ff920d" stroke="none" /><path d="M 86.96720088162412 83.53348406188908 l -7.769923344629038 -9.817044322568998 a33.51982699611682,33.51982699611682 0 0,0 0.4542575914591384,-0.3532334506711052 l 7.600255808534654 9.948978824860909" fill="#ff910d" stroke="none" /><path d="M 87.54013794807813 83.09580414077388 l -7.337728971004396 -9.955038600820117 a33.36709585940595,33.36709585940595 0 0,0 0.46399169617231834,-0.33589420600947306 l 7.1657562644581105 10.07953357820267" fill="#ff8f0d" stroke="none" /><path d="M 87.83215693770416 82.88440491214696 l -7.153707238317342 -10.062585113994796 a33.34630092084036,33.34630092084036 0 0,0 0.4693966782570094,-0.3276753366065565 l 6.979915468886567 10.183905266406478" fill="#ff8f0d" stroke="none" /><path d="M 88.12776184653039 82.6780497279521 l -6.902871318857266 -10.071495549021412 a33.210022728834716,33.210022728834716 0 0,0 0.4730114795513245,-0.31826323327375183 l 6.7289635512089525 10.188508456352272" fill="#ff8d0d" stroke="none" /><path d="M 89.03521579738668 82.08984904055464 l -6.3713660034405315 -10.407147539875954 a33.202582704761475,33.202582704761475 0 0,0 0.48865860532068756,-0.2934254521929439 l 6.191774641562409 10.514986992604822" fill="#ff8d0d" stroke="none" /><line stroke="#e1ed5e" stroke-width="0.3" x1="56.869717070023135" x2="54.33264160355391" y1="26.7553504044142" y2="22.446841604673864" /><path d="M 56.362301976729285 25.89364864446614 a86.0,86.0 0 0,1 42.16139366436587,-11.88097634709845" fill="none" id="id24" stroke="none" /><text fill="#e1ed5e" style="font-size:5.4px;" text-anchor="middle"><textPath startOffset="22.145653131862474" xlink:href="#id24">December</textPath></text><path d="M 91.26138138417902 80.90454125486306 l -5.1892914924077855 -11.33953842891832 a33.47052035698957,33.47052035698957 0 0,0 0.5245095070920683,-0.2346064310306914 l 4.993868582460098 11.426948610858858" fill="#ff900d" stroke="none" /><path d="M 91.5904679813234 80.7573450057729 l -5.027823182350435 -11.504643380283088 a33.55531063974412,33.55531063974412 0 0,0 0.5297982880904567,-0.22613938543225326 l 4.829589819089547 11.589257415374746" fill="#ff910d" stroke="none" /><path d="M 91.92203290615298 80.6158196554323 l -4.802808925710657 -11.524993020507322 a33.48568931615826,33.48568931615826 0 0,0 0.532495074337808,-0.21656111101718895 l 4.604259390182408 11.605741388103803" fill="#ff900d" stroke="none" /><path d="M 92.25597844496254 80.48000691201159 l -4.520057337255316 -11.39349720987549 a33.2573527730712,33.2573527730712 0 0,0 0.5324783084925845,-0.20597404866182317 l 4.323806766269202 11.469411146675354" fill="#ff8d0d" stroke="none" /><path d="M 92.592206182469 80.34994680014964 l -4.234396306482221 -11.232239279488743 a33.00388734169228,33.00388734169228 0 0,0 0.5318511197149381,-0.19530309806494714 l 4.040956035113156 11.303273226562412" fill="#ff8a0c" stroke="none" /><path d="M 93.61358852112211 79.99465700312896 l -3.7265337625356034 -11.673313934673658 a33.25370605575162,33.25370605575162 0 0,0 0.5452964367634254,-0.16893423000488164 l 3.5255966929005615 11.73556475248518" fill="#ff8d0d" stroke="none" /><path d="M 93.95794788825049 79.88797359093562 l -3.211625308100417 -10.69045612614422 a32.162454448043476,32.162454448043476 0 0,0 0.5301291230677305,-0.15431286154039642 l 3.027636172651062 10.744012681987137" fill="#ff7e0b" stroke="none" /><path d="M 94.30408787586887 79.78721728523814 l -1.6538958041791885 -5.869092744795418 a27.097673406971854,27.097673406971854 0 0,0 0.4488130858258377,-0.12232600232497226 l 1.5529013174186732 5.89661924126453" fill="#ff3705" stroke="none" /><path d="M 96.05791012581881 79.37332000966035 l -2.29185705800537 -11.991964574094657 a33.20900582032257,33.20900582032257 0 0,0 0.560860995131896,-0.10220755657578565 l 2.0856613293224355 12.029540304601804" fill="#ff8d0d" stroke="none" /><path d="M 96.41257539226777 79.30868818359171 l -2.125067996924203 -12.256827491414397 a33.43968384428813,33.43968384428813 0 0,0 0.5664403730574283,-0.09320754783075885 l 1.9143501208137017 12.291501037740824" fill="#ff900d" stroke="none" /><path d="M 96.76829788921471 79.25015418208739 l -2.3905405511167572 -15.348985196252212 a36.53402815374374,36.53402815374374 0 0,0 0.620512887307734,-0.0911940258994083 l 2.1267025582013384 15.387760295450505" fill="#ffb911" stroke="none" /><path d="M 97.12497278360702 79.19773525538626 l -1.6500276842357966 -11.938778362758711 a33.05226203473108,33.05226203473108 0 0,0 0.5627103197187272,-0.07285411674066648 l 1.4448395426262755 11.965344075699772" fill="#ff8b0c" stroke="none" /><path d="M 97.48249496171623 79.15144685158666 l -0.6800076063392813 -5.631438470428899 a26.67234603941842,26.67234603941842 0 0,0 0.4550354288573206,-0.050987668916540975 l 0.5832362758811614 5.642281899852411" fill="#ff3104" stroke="none" /><path d="M 98.1996594967304 79.07731436759882 l -0.6079703716073572 -7.065537289114719 a28.091646152807044,28.091646152807044 0 0,0 0.48080993405344474,-0.037217729750281064 l 0.48659144277869537 7.074932785860053" fill="#ff4506" stroke="none" /><path d="M 98.9189461498227 79.02784411241856 l -0.5692368876950881 -11.043043548427507 a32.05770507143228,32.05770507143228 0 0,0 0.549826644808874,-0.02361192188654031 l 0.379584482285394 11.051188038739875" fill="#ff7d0b" stroke="none" /></svg>