<svg xmlns="http://www.w3.org/2000/svg" xmlns:ev="http://www.w3.org/2001/xml-events" xmlns:xlink="http://www.w3.org/1999/xlink" width="200mm" height="200mm" baseProfile="full" version="1.1" viewBox="0 0 200 200"><rect width="200" height="200" x="0" y="0" fill="#1a1a1a"/><text style="dominant-baseline:central;font-size:9px;font-family:Arial" x="100" y="100" fill="#e1ed5e" alignment-baseline="middle" text-anchor="middle">2018</text><line x1="100" x2="100" y1="15" y2="10" stroke="#e1ed5e" stroke-width=".3"/><path id="id13" fill="none" stroke="none" d="M 100.0 14.0 a86.0,86.0 0 0,1 42.46469731375804,11.215312516191453"/><text fill="#e1ed5e" text-anchor="middle" style="font-size:6.75px;font-family:Arial"><textPath startOffset="22.206" xlink:href="#id13">January</textPath></text><line x1="143.237" x2="145.78" y1="26.818" y2="22.514" stroke="#e1ed5e" stroke-width=".3"/><path id="id14" fill="none" stroke="none" d="M 143.74570117128098 25.957352633546492 a86.0,86.0 0 0,1 28.547481713284135,27.462654790039103"/><text fill="#e1ed5e" text-anchor="middle" style="font-size:6.75px;font-family:Arial"><textPath startOffset="19.986" xlink:href="#id14">February</textPath></text><line x1="172.234" x2="176.484" y1="55.198" y2="52.563" stroke="#e1ed5e" stroke-width=".3"/><path id="id15" fill="none" stroke="none" d="M 173.08426987136738 54.67131705675599 a86.0,86.0 0 0,1 12.851231095245387,41.99856678651699"/><text fill="#e1ed5e" text-anchor="middle" style="font-size:6.75px;font-family:Arial"><textPath startOffset="22.206" xlink:href="#id15">March</textPath></text><line x1="184.98" x2="189.979" y1="98.171" y2="98.064" stroke="#e1ed5e" stroke-width=".3"/><path id="id16" fill="none" stroke="none" d="M 185.9800911702706 98.14961562048488 a86.0,86.0 0 0,1 -9.607161424134198,41.387399972396054"/><text fill="#e1ed5e" text-anchor="middle" style="font-size:6.75px;font-family:Arial"><textPath startOffset="21.466" xlink:href="#id16">April</textPath></text><line x1="174.801" x2="179.201" y1="140.371" y2="142.746" stroke="#e1ed5e" stroke-width=".3"/><path id="id17" fill="none" stroke="none" d="M 175.68104954172406 140.8457921977663 a86.0,86.0 0 0,1 -30.038265399797805,32.042727171017184"/><text fill="#e1ed5e" text-anchor="middle" style="font-size:6.75px;font-family:Arial"><textPath startOffset="22.206" xlink:href="#id17">May</textPath></text><line x1="143.865" x2="146.446" y1="172.807" y2="177.09" stroke="#e1ed5e" stroke-width=".3"/><path id="id18" fill="none" stroke="none" d="M 144.38136562736335 173.6633856474863 a86.0,86.0 0 0,1 -40.68145358897372,12.25698825130547"/><text fill="#e1ed5e" text-anchor="middle" style="font-size:6.75px;font-family:Arial"><textPath startOffset="21.466" xlink:href="#id18">June</textPath></text><path fill="#fffa17" stroke="none" d="M 101.26447882468166 120.96189622390904 l 2.315193581794143 38.38011886995964 a59.4498848606002,59.4498848606002 0 0,0 -1.0220056079105484,0.05282601616493561 l -1.654199905470115 -38.414284692886774"/><line x1="102.195" x2="102.324" y1="184.972" y2="189.97" stroke="#e1ed5e" stroke-width=".3"/><path id="id19" fill="none" stroke="none" d="M 102.22038585953345 185.97133177190398 a86.0,86.0 0 0,1 -42.740103519485714,-10.115201625700543"/><text fill="#e1ed5e" text-anchor="middle" style="font-size:6.75px;font-family:Arial"><textPath startOffset="22.206" xlink:href="#id19">July</textPath></text><line x1="58.667" x2="56.235" y1="174.274" y2="178.643" stroke="#e1ed5e" stroke-width=".3"/><path id="id20" fill="none" stroke="none" d="M 58.180547188652646 175.14741091055294 a86.0,86.0 0 0,1 -31.652253787137756,-30.449443065178592"/><text fill="#e1ed5e" text-anchor="middle" style="font-size:6.75px;font-family:Arial"><textPath startOffset="22.206" xlink:href="#id20">August</textPath></text><line x1="26.633" x2="22.317" y1="142.922" y2="145.446" stroke="#e1ed5e" stroke-width=".3"/><path id="id21" fill="none" stroke="none" d="M 25.769776987707644 143.4266507060508 a86.0,86.0 0 0,1 -11.730757126820373,-40.83630448921669"/><text fill="#e1ed5e" text-anchor="middle" style="font-size:6.75px;font-family:Arial"><textPath startOffset="21.466" xlink:href="#id21">September</textPath></text><path fill="#9fff22" stroke="none" d="M 81.87401531095188 110.60418214915194 l -37.44480729833755 21.906206142355355 a64.38197161449673,64.38197161449673 0 0,0 -0.5513794799353119,-0.9613765991819044 l 37.81633877442524 -21.258409697315145"/><path fill="#51ff2b" stroke="none" d="M 81.02952815118164 109.00673069616217 l -42.977943794625396 20.40490973117761 a68.57587617639308,68.57587617639308 0 0,0 -0.49709471554743034,-1.0706977936672022 l 43.32281312701266 -19.66209187023158"/><path fill="#44ff2d" stroke="none" d="M 80.73074385275274 108.34839909993369 l -44.2860417494863 19.186913509053838 a69.26376636609659,69.26376636609659 0 0,0 -0.46455873959952476,-1.0980796319800505 l 44.609751470278134 -18.42175935140763"/><path fill="#4cdbff" stroke="none" d="M 79.67330655649465 105.27499134158121 l -60.45062642842182 15.687575152808279 a83.45300833237434,83.45300833237434 0 0,0 -0.34886809141060343,-1.3935546067000557 l 60.71170583412748 -14.644692706710831"/><path fill="#4cd8ff" stroke="none" d="M 79.50377843672027 104.57218783832718 l -61.119547489762944 13.634222817800076 a83.62181023572225,83.62181023572225 0 0,0 -0.30130117405182494,-1.4075787768443713 l 61.34518270253921 -12.580130221539541"/><path fill="#e4ff1b" stroke="none" d="M 79.35854240842038 103.8639653848113 l -39.304608770883206 7.357602876659105 a60.98733037754348,60.98733037754348 0 0,0 -0.18427919450906682,-1.0335355868669716 l 39.425434407731466 -6.67994853905892"/><path fill="#3fffbe" stroke="none" d="M 79.1416061653843 102.43462659150553 l -56.25130422982349 6.565746249239862 a77.63319036894853,77.63319036894853 0 0,0 -0.14350198939301365,-1.3286501982104293 l 56.35598852071755 -5.596499729144651"/><path fill="#4dd2ff" stroke="none" d="M 79.07016306316243 101.71520430193888 l -62.78951081051271 5.145612905816642 a84.0,84.0 0 0,0 -0.10569376534265862,-1.4421074540129575 l 62.86878113451971 -4.064032315306924"/><line x1="15.007" x2="10.008" y1="101.097" y2="101.162" stroke="#e1ed5e" stroke-width=".3"/><path id="id22" fill="none" stroke="none" d="M 14.007167355692545 101.11028546245083 a86.0,86.0 0 0,1 10.666146001902534,-42.60595125391555"/><text fill="#e1ed5e" text-anchor="middle" style="font-size:6.75px;font-family:Arial"><textPath startOffset="22.206" xlink:href="#id22">October</textPath></text><path fill="red" stroke="none" d="M 79.32604984820605 96.31383870115002 l -27.466145071561694 -4.897208334547746 a48.899314947934414,48.899314947934414 0 0,0 0.15488107309835905,-0.8273808856220578 l 27.377778274553474 5.369267297632376"/><line x1="26.266" x2="21.929" y1="57.711" y2="55.224" stroke="#e1ed5e" stroke-width=".3"/><path id="id23" fill="none" stroke="none" d="M 25.398753493254645 57.213857153982495 a86.0,86.0 0 0,1 29.58750427330803,-30.492523968695096"/><text fill="#e1ed5e" text-anchor="middle" style="font-size:6.75px;font-family:Arial"><textPath startOffset="21.466" xlink:href="#id23">November</textPath></text><line x1="56.763" x2="54.22" y1="26.818" y2="22.514" stroke="#e1ed5e" stroke-width=".3"/><path id="id24" fill="none" stroke="none" d="M 56.25429882871897 25.957352633546506 a86.0,86.0 0 0,1 42.265352541879196,-11.944610805530505"/><text fill="#e1ed5e" text-anchor="middle" style="font-size:6.75px;font-family:Arial"><textPath startOffset="22.206" xlink:href="#id24">December</textPath></text></svg>